<svg id="icon3" xmlns="http://www.w3.org/2000/svg" xmlns:xlink="http://www.w3.org/1999/xlink" width="105.91" height="105.91" viewBox="0 0 105.91 105.91">
  <defs>
    <radialGradient id="radial-gradient" cx="0.076" cy="0.019" r="1.465" gradientTransform="translate(0.001)" gradientUnits="objectBoundingBox">
      <stop offset="0" stop-color="#f6f6f7"/>
      <stop offset="0.477" stop-color="#f9f9fa"/>
      <stop offset="0.715" stop-color="#fff"/>
    </radialGradient>
  </defs>
  <g id="Grupo_18423" data-name="Grupo 18423" transform="translate(0 0)">
    <g id="Grupo_18421" data-name="Grupo 18421">
      <g id="Grupo_18420" data-name="Grupo 18420">
        <g id="Grupo_18419" data-name="Grupo 18419">
          <path id="Trazado_40936" data-name="Trazado 40936" d="M300.533,2198.675a52.955,52.955,0,1,1-52.954-52.954A52.954,52.954,0,0,1,300.533,2198.675Z" transform="translate(-194.623 -2145.721)" fill="#fff"/>
        </g>
      </g>
    </g>
    <path id="Trazado_40937" data-name="Trazado 40937" d="M300.034,2198.131a52.954,52.954,0,1,0-52.954,52.956A52.746,52.746,0,0,0,300.034,2198.131Z" transform="translate(-194.124 -2145.177)" fill="url(#radial-gradient)"/>
    <path id="Trazado_40938" data-name="Trazado 40938" d="M283.1,2193.749a40.42,40.42,0,1,0-40.42,40.42A40.269,40.269,0,0,0,283.1,2193.749Z" transform="translate(-189.561 -2140.619)" fill="none" stroke="#1d272b" stroke-miterlimit="10" stroke-width="4"/>
    <g id="Grupo_18422" data-name="Grupo 18422" transform="translate(9.382 29.73)">
      <path id="Trazado_40939" data-name="Trazado 40939" d="M291.719,2164.488a52.962,52.962,0,0,1-91.174,52.736,52.793,52.793,0,0,0,91.174-52.736Z" transform="translate(-200.545 -2164.488)" fill="#eceef0"/>
    </g>
  </g>
  <g id="aUihJp" transform="translate(-1059.115 -263.638)">
    <g id="Grupo_122199" data-name="Grupo 122199" transform="translate(1095.924 294.233)">
      <path id="Trazado_159683" data-name="Trazado 159683" d="M1116.459,296.378c-.172-.008-.312-.02-.452-.02q-8.749,0-17.5-.009c-.378,0-.478.1-.478.48q.015,15.693,0,31.386c0,.383.077.509.491.507,3.583-.017,7.166-.011,10.75-.006a1.033,1.033,0,0,1,1.039,1.457.981.981,0,0,1-.754.619,3.013,3.013,0,0,1-.546.038q-5.846,0-11.691,0c-1.029,0-1.395-.366-1.395-1.393q0-11.77,0-23.54,0-5.133,0-10.267c0-1.037.355-1.393,1.388-1.393q9.945,0,19.891-.007a1.652,1.652,0,0,1,1.285.528q3.105,3.189,6.248,6.343a1.728,1.728,0,0,1,.544,1.32c-.017,3.557-.008,7.114-.01,10.671,0,.758-.385,1.205-1.029,1.217a1.027,1.027,0,0,1-1.059-.857,2.191,2.191,0,0,1-.023-.39q0-4.388,0-8.776a6.405,6.405,0,0,1,.041-.7c.037-.337-.085-.454-.438-.449-1.672.023-3.344.022-5.016.026-.821,0-1.244-.373-1.257-1.187-.026-1.7-.021-3.4-.028-5.1C1116.459,296.723,1116.459,296.568,1116.459,296.378Zm2.147,1.692v2.936h3.071Z" transform="translate(-1095.924 -294.233)" fill="#1d272b"/>
      <path id="Trazado_159684" data-name="Trazado 159684" d="M1274.2,552.3l3.278,3.29c.272-.29.548-.6.841-.9a1.09,1.09,0,0,1,1.74-.024q4.413,4.4,8.817,8.818a1.084,1.084,0,0,1,.007,1.714q-1.63,1.642-3.275,3.269a1.066,1.066,0,0,1-1.68-.007q-4.427-4.416-8.845-8.841a1.078,1.078,0,0,1,.019-1.71c.258-.258.536-.5.884-.815-.316-.284-.585-.506-.832-.75-.744-.735-1.487-1.471-2.212-2.224-.216-.224-.36-.219-.612-.048a8.61,8.61,0,0,1-8.849.783,8.77,8.77,0,1,1,11.3-12.388,8.648,8.648,0,0,1-.435,9.608C1274.293,552.159,1274.243,552.235,1274.2,552.3Zm-.315-5.335a6.641,6.641,0,1,0-6.65,6.631A6.645,6.645,0,0,0,1273.882,546.97Zm3.422,11.763,7.47,7.473,1.853-1.818-7.514-7.514c-.512.52-1.052,1.068-1.591,1.617C1277.441,558.574,1277.366,558.664,1277.3,558.733Z" transform="translate(-1245.717 -519.022)" fill="#1d272b"/>
      <path id="Trazado_159685" data-name="Trazado 159685" d="M1170.634,450.061q-3.766,0-7.532,0a1.057,1.057,0,0,1-1.1-1.373,1.043,1.043,0,0,1,1.075-.742c1.621,0,3.243,0,4.864,0q5.139,0,10.278,0a1.052,1.052,0,0,1,1.034,1.5,1.082,1.082,0,0,1-1.086.622q-3.609-.007-7.218,0Z" transform="translate(-1156.769 -435.879)" fill="#1d272b"/>
      <path id="Trazado_159686" data-name="Trazado 159686" d="M1168.584,383.191h-5.724a1.009,1.009,0,0,1-.991-.638.928.928,0,0,1,.2-1.118,1.338,1.338,0,0,1,.791-.348c3.149-.018,6.3,0,9.446,0,.666,0,1.332-.007,2,0,.646.012,1.045.31,1.128.815a1.044,1.044,0,0,1-1.092,1.284c-1.92.006-3.84,0-5.76,0Z" transform="translate(-1156.602 -374.262)" fill="#1d272b"/>
      <path id="Trazado_159687" data-name="Trazado 159687" d="M1166.443,514.622c-1.478,0-2.956.008-4.433,0a1.055,1.055,0,0,1-1.044-1.542,1.02,1.02,0,0,1,.993-.572h2.943c2,0,4,0,6,0a1.039,1.039,0,0,1,1.16,1.009,1.008,1.008,0,0,1-.953,1.086c-.494.037-.993.019-1.49.02Q1168.032,514.624,1166.443,514.622Z" transform="translate(-1155.745 -495.374)" fill="#1d272b"/>
      <path id="Trazado_159688" data-name="Trazado 159688" d="M1164.259,579.032c-.783,0-1.567-.023-2.348.007a1.147,1.147,0,0,1-1.106-1.047,1.077,1.077,0,0,1,1.125-1.061q2.331-.01,4.661,0a1.045,1.045,0,0,1,1.107,1.1,1.121,1.121,0,0,1-1.168,1.01c-.756-.01-1.513,0-2.27,0Z" transform="translate(-1155.713 -554.742)" fill="#1d272b"/>
      <path id="Trazado_159689" data-name="Trazado 159689" d="M1164.426,641.492c.611,0,1.222-.008,1.833,0a1.049,1.049,0,1,1,.034,2.1q-1.9.03-3.8,0a1.012,1.012,0,0,1-1.038-1.045,1.042,1.042,0,0,1,1.057-1.071c.324-.014.65.013.976.016s.624,0,.935,0Z" transform="translate(-1156.316 -614.225)" fill="#1d272b"/>
      <path id="Trazado_159690" data-name="Trazado 159690" d="M1313.224,622.231c.94-.947,1.831-1.846,2.724-2.743.415-.417.83-.834,1.25-1.246a1.064,1.064,0,0,1,1.511-.08,1.038,1.038,0,0,1,.019,1.538q-2.355,2.386-4.741,4.742a1.019,1.019,0,0,1-1.511,0q-1.364-1.326-2.691-2.689a1.056,1.056,0,1,1,1.515-1.471C1311.929,620.9,1312.547,621.542,1313.224,622.231Z" transform="translate(-1292.708 -592.485)" fill="#008f85"/>
    </g>
  </g>
</svg>
