<svg xmlns="http://www.w3.org/2000/svg" xmlns:xlink="http://www.w3.org/1999/xlink" width="222.94" height="222.945" viewBox="0 0 222.94 222.945">
  <defs>
    <radialGradient id="radial-gradient" cx="0.076" cy="0.019" r="1.465" gradientTransform="translate(0)" gradientUnits="objectBoundingBox">
      <stop offset="0" stop-color="#f6f6f7"/>
      <stop offset="0.477" stop-color="#f9f9fa"/>
      <stop offset="0.715" stop-color="#fff"/>
    </radialGradient>
  </defs>
  <g id="img3" transform="translate(-701.749 -761.795)">
    <g id="Grupo_91009" data-name="Grupo 91009" transform="translate(701.749 761.795)">
      <g id="Grupo_42274" data-name="Grupo 42274" transform="translate(0 0)">
        <g id="Grupo_18423" data-name="Grupo 18423" transform="translate(0 0)">
          <g id="Grupo_18421" data-name="Grupo 18421">
            <g id="Grupo_18420" data-name="Grupo 18420">
              <g id="Grupo_18419" data-name="Grupo 18419">
                <path id="Trazado_40936" data-name="Trazado 40936" d="M417.562,2257.189a111.47,111.47,0,1,1-111.468-111.468A111.468,111.468,0,0,1,417.562,2257.189Z" transform="translate(-194.623 -2145.721)" fill="#fff"/>
              </g>
            </g>
          </g>
          <path id="Trazado_40937" data-name="Trazado 40937" d="M415.569,2255.017A111.467,111.467,0,1,0,304.1,2366.492,111.031,111.031,0,0,0,415.569,2255.017Z" transform="translate(-192.629 -2143.547)" fill="url(#radial-gradient)"/>
          <path id="Trazado_40938" data-name="Trazado 40938" d="M389.579,2246.181a94.349,94.349,0,1,0-94.349,94.35A94.011,94.011,0,0,0,389.579,2246.181Z" transform="translate(-183.54 -2134.468)" fill="none" stroke="#008f85" stroke-miterlimit="10" stroke-width="5"/>
          <g id="Grupo_18422" data-name="Grupo 18422" transform="translate(19.748 62.583)">
            <path id="Trazado_40939" data-name="Trazado 40939" d="M392.465,2164.488A111.483,111.483,0,0,1,200.545,2275.5a111.8,111.8,0,0,0,11.094,14.849,111.485,111.485,0,0,0,180.826-125.859Z" transform="translate(-200.545 -2164.488)" fill="#eceef0"/>
          </g>
          <g id="e83acZ" transform="translate(-2739.938 -45.545)">
            <g id="Grupo_122202" data-name="Grupo 122202" transform="translate(2804.271 101.507)">
              <path id="Trazado_159705" data-name="Trazado 159705" d="M2920.367,143.993c-2.86,1.651-6.4.555-8.056,4.615-1.675,4.094,1.927,5.7,2.414,8.458l-10.03,10.035a10.146,10.146,0,0,1-2.47-1.445c-2.568-2.56-5.112-1.4-7.7-.17-.241.114-.6.211-.677.4-1.2,3.2-3.266,6.39-3.363,9.634-.387,13-.16,26.02-.16,39.032v3.078h-86.052v-108.5h10.887c.088-1.1.148-1.868.213-2.639a5.09,5.09,0,0,1,4.99-4.918c2.4-.106,4.812-.052,7.218-.035,4.276.03,6.054,1.728,6.434,6.092.03.349.086.7.177,1.421h2.832c7.4,0,14.8.075,22.191-.055a13.716,13.716,0,0,0,5.234-1.513c2.994-.113,4.639,3.774,8.783,2.145,4.179-1.643,2.986-5.37,4.692-8.093,4.1,0,8.276-.058,12.452.062a2.748,2.748,0,0,1,1.825,1.355,11.544,11.544,0,0,1,.776,2.81,5.4,5.4,0,0,0,8.3,3.336c1.214-.721,2.435-1.43,3.536-2.075l10.064,10.031a12.63,12.63,0,0,1-1.551,2.59c-2.5,2.594-1.674,5.306,0,7.657.762,1.068,2.6,1.666,4.039,1.889,2.425.375,3.207,1.431,3.057,3.872C2920.2,136.7,2920.367,140.352,2920.367,143.993ZM2815.44,112.536c-1.8,0-3.3.126-4.769-.029-2.362-.249-3.2.463-3.191,3.037q.139,47.873.006,95.748c-.006,2.474.682,3.127,3.132,3.119,24.338-.088,48.677-.054,73.015-.054h2.835v-41.61h-8.531c-1.693-2.79-.543-6.474-4.71-8.174-4.141-1.688-5.754,2.385-8.622,2.446l-9.79-9.641c.458-3.033,4.163-4.773,2.44-8.888-1.715-4.1-5.548-2.753-8.005-4.521V130.305c2.712-1.748,6.414-.655,8.071-4.8,1.648-4.122-2.246-5.746-2.613-9.508l3.7-2.729-.314-.523h-24.2v48.733l3.712.181v22.223h-25.84V161.645l3.67-.18Zm89.036-1.714c-3.714,5.04-7.439,2.973-11.412,1.4-1.943-.771-3.059-1.7-3.161-3.62-.168-3.139-1.834-4.086-4.694-3.612a2.15,2.15,0,0,1-.8,0c-3.208-.724-4.423.911-4.858,3.829A4.183,4.183,0,0,1,2878,111.6a38.17,38.17,0,0,1-6.371,2.63,3.173,3.173,0,0,1-2.178-.242c-4.528-2.209-4.5-2.22-8.141,1.336a23.136,23.136,0,0,1-2.408,1.813c2.285,3.348,3.544,5.82,1.88,9.923-1.686,4.154-4.37,5.146-7.938,5.809,0,2.32.111,4.373-.034,6.407-.121,1.7.509,2.342,2.169,2.609,1.436.231,3.759.659,4.021,1.513,1.235,4.015,5.366,8.041.759,12.441a1.857,1.857,0,0,0-.357.688l5.873,6.087c1.411-.832,2.746-1.717,4.171-2.416a3.044,3.044,0,0,1,2.11-.265,63.912,63.912,0,0,1,6.364,2.672,3.1,3.1,0,0,1,1.364,1.661c1.654,4.776,1.627,4.785,6.714,4.781h3.042c.75-3.556,1.682-6.122,5.681-7.917,4.244-1.9,6.716-.275,9.829,1.676,1.69-1.773,3.3-3.321,4.715-5.031.421-.508.674-1.793.353-2.173-2.467-2.925-2.423-5.817-.335-8.875a3.756,3.756,0,0,0,.635-1.742c.138-1.774,1.324-2.3,2.792-2.672,4.2-1.062,4.2-1.082,4.2-5.265a7.184,7.184,0,0,1,.011-1.335c.429-2.232-.562-3.354-2.735-3.533-2.7-.221-4.453-1.43-4.726-4.318a2.533,2.533,0,0,0-.506-1.22c-1.964-2.581-1.552-4.957.314-7.435a2.883,2.883,0,0,0,.116-2.678C2908.055,114.66,2906.4,113.014,2904.477,110.822Zm-89.159,54.7v14.665h18.805c0-4.414.007-8.669-.007-12.925,0-.6-.1-1.207-.155-1.749-2.3-.706-3.774-.075-4.907,2-1.219,2.235-2.8,4.272-4.427,6.695-1.6-2.37-3.168-4.406-4.418-6.62C2819.076,165.584,2817.678,164.731,2815.318,165.522Zm15.054-49.112c0-1.268.006-2.4,0-3.528-.052-8.852,1.337-7.882-8.867-7.879-.177,0-.421-.043-.52.052-.705.682-1.917,1.355-1.972,2.1-.225,3.063-.094,6.152-.094,9.25Zm-7.7,41.292V127.854h-3.668V157.7Zm7.526.011V127.856h-3.524v29.858Zm-11.147-33.868h11.1v-3.532h-11.1Zm5.573,43.778,3.885-5.861h-7.8Z" transform="translate(-2804.271 -101.507)" fill="#1d272b"/>
              <path id="Trazado_159706" data-name="Trazado 159706" d="M2818.293,259.809c6.359,0,12.5-.028,18.63.012,2.963.019,6.032.457,7.786-3.68l2.717,3.3c-3.7,1.883-3.16,5.209-3.135,8.4.037,4.7.01,9.4.01,14.237h-26.008Zm10.5,11.861,8.256-8.083h-15.418c0,4.719-.058,9.331.1,13.936.015.425,1.378,1.134,2.128,1.152,4.542.109,9.087.066,13.631.046,1.016,0,2.032-.12,3.018-.182V266.422l-10.719,11.093-5.113-5.172,2-2.615Z" transform="translate(-2810.792 -173.424)" fill="#1d272b"/>
              <path id="Trazado_159707" data-name="Trazado 159707" d="M2874.255,273.656V270.4h40.938v3.256Z" transform="translate(-2836.819 -180.056)" fill="#008f85"/>
              <path id="Trazado_159708" data-name="Trazado 159708" d="M2874.276,287.7V284.5h40.986V287.7Z" transform="translate(-2836.829 -186.614)" fill="#008f85"/>
              <path id="Trazado_159709" data-name="Trazado 159709" d="M2907.829,235.062v3.391h-33.387v-3.391Z" transform="translate(-2836.906 -163.621)" fill="#008f85"/>
              <path id="Trazado_159710" data-name="Trazado 159710" d="M2907.8,249.218v3.37h-33.434v-3.37Z" transform="translate(-2836.869 -170.204)" fill="#008f85"/>
              <path id="Trazado_159711" data-name="Trazado 159711" d="M2874.336,301.8v-3.074h33.453c.042.956.084,1.9.137,3.074Z" transform="translate(-2836.857 -193.228)" fill="#008f85"/>
              <path id="Trazado_159712" data-name="Trazado 159712" d="M2889.108,221.153v3.358H2874.38v-3.358Z" transform="translate(-2836.877 -157.152)" fill="#008f85"/>
              <path id="Trazado_159713" data-name="Trazado 159713" d="M2944.36,301.948v-3.113h3.455v3.113Z" transform="translate(-2869.424 -193.28)" fill="#008f85"/>
              <path id="Trazado_159714" data-name="Trazado 159714" d="M2935.359,170.832a22.118,22.118,0,0,1-22.46-22.451,22.443,22.443,0,0,1,22.254-22.549A22.845,22.845,0,0,1,2957.9,148.3,22.45,22.45,0,0,1,2935.359,170.832Zm18.835-22.3a18.907,18.907,0,0,0-37.814-.224c-.14,10.128,8.551,18.921,18.822,19.044A19.16,19.16,0,0,0,2954.194,148.529Z" transform="translate(-2854.792 -112.82)" fill="#1d272b"/>
              <path id="Trazado_159715" data-name="Trazado 159715" d="M2941.775,169.856a14.6,14.6,0,0,1-14.8-15.111,14.929,14.929,0,0,1,14.975-14.825,15.279,15.279,0,0,1,14.962,15A14.934,14.934,0,0,1,2941.775,169.856Zm.164-26.26a11.367,11.367,0,1,0,11.293,11.517A11.607,11.607,0,0,0,2941.939,143.6Z" transform="translate(-2861.337 -119.372)" fill="#008f85"/>
            </g>
          </g>
        </g>
      </g>
    </g>
  </g>
</svg>
