<svg xmlns="http://www.w3.org/2000/svg" xmlns:xlink="http://www.w3.org/1999/xlink" width="222.94" height="222.945" viewBox="0 0 222.94 222.945">
  <defs>
    <radialGradient id="radial-gradient" cx="0.076" cy="0.019" r="1.465" gradientTransform="translate(0)" gradientUnits="objectBoundingBox">
      <stop offset="0" stop-color="#f6f6f7"/>
      <stop offset="0.477" stop-color="#f9f9fa"/>
      <stop offset="0.715" stop-color="#fff"/>
    </radialGradient>
  </defs>
  <g id="img4" transform="translate(-701.749 -761.795)">
    <g id="Grupo_91009" data-name="Grupo 91009" transform="translate(701.749 761.795)">
      <g id="Grupo_42274" data-name="Grupo 42274" transform="translate(0 0)">
        <g id="Grupo_18423" data-name="Grupo 18423" transform="translate(0 0)">
          <g id="Grupo_18421" data-name="Grupo 18421">
            <g id="Grupo_18420" data-name="Grupo 18420">
              <g id="Grupo_18419" data-name="Grupo 18419">
                <path id="Trazado_40936" data-name="Trazado 40936" d="M417.562,2257.189a111.47,111.47,0,1,1-111.468-111.468A111.468,111.468,0,0,1,417.562,2257.189Z" transform="translate(-194.623 -2145.721)" fill="#fff"/>
              </g>
            </g>
          </g>
          <path id="Trazado_40937" data-name="Trazado 40937" d="M415.569,2255.017A111.467,111.467,0,1,0,304.1,2366.492,111.031,111.031,0,0,0,415.569,2255.017Z" transform="translate(-192.629 -2143.547)" fill="url(#radial-gradient)"/>
          <path id="Trazado_40938" data-name="Trazado 40938" d="M389.579,2246.181a94.349,94.349,0,1,0-94.349,94.35A94.011,94.011,0,0,0,389.579,2246.181Z" transform="translate(-183.54 -2134.468)" fill="none" stroke="#1d272b" stroke-miterlimit="10" stroke-width="5"/>
          <g id="Grupo_18422" data-name="Grupo 18422" transform="translate(19.748 62.583)">
            <path id="Trazado_40939" data-name="Trazado 40939" d="M392.465,2164.488A111.483,111.483,0,0,1,200.545,2275.5a111.8,111.8,0,0,0,11.094,14.849,111.485,111.485,0,0,0,180.826-125.859Z" transform="translate(-200.545 -2164.488)" fill="#eceef0"/>
          </g>
          <g id="pAgZa3.tif" transform="translate(-2908.974 153.334)">
            <g id="Grupo_122203" data-name="Grupo 122203" transform="translate(2960.935 -101.378)">
              <path id="Trazado_159716" data-name="Trazado 159716" d="M3058.84,7.853c0,1.914.008,3.827,0,5.741a3.777,3.777,0,0,1-4.044,4.041q-36.215.009-72.43.018a3.96,3.96,0,0,1-3.955-2.595,34.7,34.7,0,0,1-5.337,2.315,9.778,9.778,0,0,1-10.8-4.822A9.91,9.91,0,0,1,2963.711.689c4.492-4.608,9.07-9.132,13.646-13.658a2.788,2.788,0,0,0,.91-2.183c-.028-23.384.007-46.767-.074-70.151-.01-2.742,1.843-4.761,4.567-4.561,2.187.16,4.395.034,6.593.032a3.248,3.248,0,0,0,.41-.081c0-1.139,0-2.32,0-3.5a7.575,7.575,0,0,1,7.9-7.915,26.433,26.433,0,0,1,5.02.145c3.783.743,5.741,3.326,6.348,7.181,2.936-.394,5.849-.775,8.76-1.177q10.018-1.382,20.035-2.78,10.077-1.4,20.155-2.786c1.541-.212,3.082-.493,4.631-.564a5.849,5.849,0,0,1,6.243,5.221c.857,7.012,1.632,14.034,2.461,21.049.843,7.134,1.721,14.264,2.565,21.4.756,6.382,1.48,12.767,2.231,19.148q1.148,9.75,2.318,19.5c.5,4.241,1.045,8.478,1.472,12.727a6.235,6.235,0,0,1-5.462,7.188q-7.356,1.331-14.711,2.668A8.975,8.975,0,0,0,3058.84,7.853Zm-3.915,5.9V-85.894h-46.032v7.487h-3.815v-7.5h-3.81c0,.641.006,1.2,0,1.749a35.66,35.66,0,0,1-.112,5.027,5.69,5.69,0,0,1-6.313,4.635,5.71,5.71,0,0,1-5.076-5.724c-.015-1.9,0-3.8,0-5.68h-7.6v68.109c2.6-2.607,5.023-5.091,7.522-7.495a6.4,6.4,0,0,1,2.284-1.4c5.127-1.763,10.275-3.463,15.43-5.143a8.083,8.083,0,0,1,2.447-.412q20.029-.032,40.058-.005c.388,0,.775.032,1.186.051v3.787h-1.508q-18.95-.005-37.9-.032a1.519,1.519,0,0,0-1.772,1.233q-2.209,6.952-4.6,13.844a6.232,6.232,0,0,1-1.4,2.287c-6.753,6.815-13.5,13.639-20.375,20.331a4.6,4.6,0,0,0-1.359,4.5Zm-45.785-103.8.023.224h1.3c14.591,0,29.182.056,43.772-.047a4.336,4.336,0,0,1,4.649,4.612q-.108,43.712-.045,87.424V3.8c5.238-.955,10.339-1.852,15.423-2.835a2.326,2.326,0,0,0,1.8-2.827c-.138-1.069-.28-2.137-.406-3.207q-1.009-8.622-2.012-17.245c-.682-5.787-1.383-11.572-2.065-17.359-.677-5.748-1.334-11.5-2.012-17.245-.762-6.461-1.544-12.919-2.3-19.38-.745-6.342-1.462-12.688-2.216-19.029-.2-1.647-1.2-2.314-2.852-2.075-3.2.464-6.4.894-9.6,1.336q-9.961,1.374-19.921,2.744-8.3,1.143-16.6,2.286C3013.76-90.713,3011.451-90.375,3009.14-90.046ZM2980.1,6.863l19.964-19.955-8.392-8.439L2971.689-1.543Zm-2.925,3.308-8.69-8.827c-.7.719-1.5,1.446-2.2,2.26a6.086,6.086,0,0,0-.576,7.136,6.211,6.211,0,0,0,6.673,2.876C2974.6,13.164,2975.86,11.5,2977.18,10.171Zm27.931-100.059c0-1.337.03-2.535-.006-3.731a3.866,3.866,0,0,0-3.782-3.872c-1.316-.058-2.638-.057-3.953,0a3.767,3.767,0,0,0-3.72,3.408c-.133,1.372-.026,2.768-.026,4.185h3.863v-3.7h3.811v3.708Zm-11.483,3.953c0,2-.073,3.949.03,5.888a1.752,1.752,0,0,0,1.845,1.7,1.728,1.728,0,0,0,1.871-1.662c.108-1.971.032-3.953.032-5.926ZM3002.4-17c1.115-2.6,1.115-2.6-.887-4.591a7.77,7.77,0,0,1-1.09-1.111c-1.265-1.919-2.867-2.259-4.826-1.13-.053.031-.075.114-.012.013Zm2.375-6.948,1.061-3.279-3.108,1.042Z" transform="translate(-2960.935 101.378)" fill="#008f85"/>
              <path id="Trazado_159717" data-name="Trazado 159717" d="M2989.467,334.882c-1.32,1.324-2.583,2.993-4.792,3.445a6.211,6.211,0,0,1-6.673-2.876,6.086,6.086,0,0,1,.576-7.136c.7-.814,1.494-1.541,2.2-2.26Z" transform="translate(-2973.222 -223.333)" fill="#1d272b"/>
              <path id="Trazado_159718" data-name="Trazado 159718" d="M3177.057-21.162h38.229V17.072h-38.229Zm34.374,34.454V-17.28h-30.562V13.285h2.125c.243-1.452.523-2.86.708-4.281.425-3.275,1.551-6.191,4.169-8.355.723-.6,1.53-1.1,2.293-1.636-2.52-4.115-2.179-7.935.917-10.646a7.669,7.669,0,0,1,10-.14c3.172,2.618,3.567,6.482,1.075,10.828l.787.488a11.45,11.45,0,0,1,5.43,8.089c.332,1.877.636,3.759.956,5.659Zm-5.95-.019c-.513-2.382-.892-4.7-1.552-6.929a6.249,6.249,0,0,0-1.768-2.5c-2.413-2.3-5.406-2.328-8.432-1.818A6.6,6.6,0,0,0,3188.3,6.55a57.508,57.508,0,0,0-1.433,6.722Zm-5.486-19.166a3.935,3.935,0,0,0-3.869-3.8,3.943,3.943,0,0,0-3.8,3.868,3.94,3.94,0,0,0,3.868,3.8A3.941,3.941,0,0,0,3199.995-5.894Z" transform="translate(-3125.118 40.44)" fill="#008f85"/>
              <path id="Trazado_159719" data-name="Trazado 159719" d="M3251.685,313.585h-26.706v-15.22h26.706Zm-3.819-11.378h-19.047v7.54h19.047Z" transform="translate(-3161.523 -202.298)" fill="#1d272b"/>
              <path id="Trazado_159720" data-name="Trazado 159720" d="M3065.142,158.262V154.57h65.126v3.692Z" transform="translate(-3040.099 -93.06)" fill="#1d272b"/>
              <path id="Trazado_159721" data-name="Trazado 159721" d="M3065.117,30.484v-3.7h22.915v3.7Z" transform="translate(-3040.08 4.015)" fill="#1d272b"/>
              <path id="Trazado_159722" data-name="Trazado 159722" d="M3065.162,62.525V58.833h22.881v3.692Z" transform="translate(-3040.114 -20.331)" fill="#1d272b"/>
              <path id="Trazado_159723" data-name="Trazado 159723" d="M3065.127,94.384v-3.7h22.879v3.7Z" transform="translate(-3040.087 -44.528)" fill="#1d272b"/>
              <path id="Trazado_159724" data-name="Trazado 159724" d="M3065.158,126.311v-3.7h22.865v3.7Z" transform="translate(-3040.111 -68.781)" fill="#1d272b"/>
              <path id="Trazado_159725" data-name="Trazado 159725" d="M3145.021,317.979v-3.7h15.2v3.7Z" transform="translate(-3100.781 -214.385)" fill="#1d272b"/>
              <path id="Trazado_159726" data-name="Trazado 159726" d="M3145.017,349.9v-3.7h15.189v3.7Z" transform="translate(-3100.778 -238.638)" fill="#1d272b"/>
            </g>
          </g>
        </g>
      </g>
    </g>
  </g>
</svg>
