<svg xmlns="http://www.w3.org/2000/svg" xmlns:xlink="http://www.w3.org/1999/xlink" width="379.419" height="347.703" viewBox="0 0 379.419 347.703">
  <defs>
    <linearGradient id="linear-gradient" y1="0.5" x2="1" y2="0.5" gradientUnits="objectBoundingBox">
      <stop offset="0.494" stop-color="#ebeff2"/>
      <stop offset="1" stop-color="#fff"/>
    </linearGradient>
    <linearGradient id="linear-gradient-3" x1="0.73" y1="0.758" x2="-0.115" y2="-0.571" gradientUnits="objectBoundingBox">
      <stop offset="0" stop-color="#f5f5f5"/>
      <stop offset="0.25" stop-color="#f5f5f5"/>
      <stop offset="1" stop-color="#a7b3cf"/>
    </linearGradient>
    <linearGradient id="linear-gradient-4" x1="0.688" y1="1.104" x2="0.376" y2="-0.135" xlink:href="#linear-gradient-3"/>
    <linearGradient id="linear-gradient-5" x1="0.425" y1="0.687" x2="0.693" y2="-0.203" gradientUnits="objectBoundingBox">
      <stop offset="0" stop-color="#311944"/>
      <stop offset="1" stop-color="#6b3976"/>
    </linearGradient>
    <linearGradient id="linear-gradient-6" x1="0.464" y1="0.589" x2="0.756" y2="-0.579" xlink:href="#linear-gradient-5"/>
    <linearGradient id="linear-gradient-7" x1="0.5" y1="0" x2="0.5" y2="1" xlink:href="#linear-gradient-3"/>
    <clipPath id="clip-path">
      <path id="Trazado_150181" data-name="Trazado 150181" d="M-2479.74,1397.863c-156.407-2.708-180.771,3.128-181.681-13.969s-5.868-245.677,31.629-258.237,136.819-22.164,144.422,55.048S-2479.74,1397.863-2479.74,1397.863Z" transform="translate(2662.136 -1117.15)" fill="none"/>
    </clipPath>
    <radialGradient id="radial-gradient" cx="0.5" cy="0.5" r="0.5" gradientUnits="objectBoundingBox">
      <stop offset="0" stop-color="#f5f5f5"/>
      <stop offset="0.25" stop-color="#f5f5f5"/>
      <stop offset="1" stop-color="#4c5872"/>
    </radialGradient>
  </defs>
  <g id="img-intro2" transform="translate(-237.5 -742.981)">
    <g id="Grupo_103729" data-name="Grupo 103729" transform="translate(255.51 742.981)">
      <g id="Grupo_91912" data-name="Grupo 91912" transform="translate(0 37.235)">
        <rect id="Rectángulo_34130" data-name="Rectángulo 34130" width="25.026" height="3.777" transform="translate(54.305 4.722)" fill="#fff"/>
        <rect id="Rectángulo_34131" data-name="Rectángulo 34131" width="19.359" height="3.777" transform="translate(8.504 4.722)" fill="#fff"/>
        <rect id="Rectángulo_34132" data-name="Rectángulo 34132" width="19.832" height="3.777" transform="translate(127.965 4.722)" fill="#d8dee8"/>
        <rect id="Rectángulo_34133" data-name="Rectángulo 34133" width="19.832" height="3.777" transform="translate(194.071 4.722)" fill="#fff"/>
        <g id="Grupo_91900" data-name="Grupo 91900" transform="translate(47.222)">
          <rect id="Rectángulo_34134" data-name="Rectángulo 34134" width="25.026" height="97.741" transform="translate(13.221 14.638)" fill="#d8dee8"/>
          <rect id="Rectángulo_34135" data-name="Rectángulo 34135" width="13.221" height="97.741" transform="translate(0 14.638)" fill="#97a6b7"/>
          <rect id="Rectángulo_34136" data-name="Rectángulo 34136" width="4.25" height="20.304" transform="translate(5.666)" fill="#97a6b7"/>
          <rect id="Rectángulo_34137" data-name="Rectángulo 34137" width="4.25" height="20.304" transform="translate(27.859)" fill="#d8dee8"/>
        </g>
        <g id="Grupo_91901" data-name="Grupo 91901" transform="translate(184.155)">
          <rect id="Rectángulo_34138" data-name="Rectángulo 34138" width="24.553" height="97.741" transform="translate(13.221 14.638)" fill="#d8dee8"/>
          <rect id="Rectángulo_34139" data-name="Rectángulo 34139" width="13.221" height="97.741" transform="translate(0 14.638)" fill="#97a6b7"/>
          <rect id="Rectángulo_34140" data-name="Rectángulo 34140" width="4.722" height="20.304" transform="translate(5.194)" fill="#97a6b7"/>
          <rect id="Rectángulo_34141" data-name="Rectángulo 34141" width="4.722" height="20.304" transform="translate(27.387)" fill="#d8dee8"/>
        </g>
        <g id="Grupo_91902" data-name="Grupo 91902" transform="translate(118.05)">
          <rect id="Rectángulo_34142" data-name="Rectángulo 34142" width="24.081" height="97.741" transform="translate(14.165 14.638)" fill="#d8dee8"/>
          <rect id="Rectángulo_34143" data-name="Rectángulo 34143" width="14.165" height="97.741" transform="translate(0 14.638)" fill="#97a6b7"/>
          <rect id="Rectángulo_34144" data-name="Rectángulo 34144" width="4.25" height="20.304" transform="translate(5.666)" fill="#97a6b7"/>
          <rect id="Rectángulo_34145" data-name="Rectángulo 34145" width="4.25" height="20.304" transform="translate(27.859)" fill="#d8dee8"/>
        </g>
        <g id="Grupo_91903" data-name="Grupo 91903" transform="translate(1.893)">
          <rect id="Rectángulo_34146" data-name="Rectángulo 34146" width="20.776" height="97.741" transform="translate(11.332 14.638)" fill="#d8dee8"/>
          <rect id="Rectángulo_34147" data-name="Rectángulo 34147" width="11.332" height="97.741" transform="translate(0 14.638)" fill="#97a6b7"/>
          <rect id="Rectángulo_34148" data-name="Rectángulo 34148" width="3.777" height="20.304" transform="translate(4.722)" fill="#97a6b7"/>
          <rect id="Rectángulo_34149" data-name="Rectángulo 34149" width="4.722" height="20.304" transform="translate(23.137)" fill="#d8dee8"/>
        </g>
        <path id="Trazado_150963" data-name="Trazado 150963" d="M600.2,1799l-60.42-5.493V1612.342l60.42-3.182Z" transform="translate(-537.488 -1503.866)" fill="#d8dee8"/>
        <path id="Trazado_150964" data-name="Trazado 150964" d="M579.008,1589.877l-56.758,1.95v-10.449l56.758-2.246Z" transform="translate(-522.25 -1477.759)" fill="#97a6b7"/>
        <path id="Trazado_150965" data-name="Trazado 150965" d="M579.008,2186.4l-56.758-.191v-10.449l56.758-.1Z" transform="translate(-522.25 -1996.386)" fill="#97a6b7"/>
        <path id="Trazado_150966" data-name="Trazado 150966" d="M1153.674,1784.959l-165.24,6.466v-191.1l165.24,3.188Z" transform="translate(-927.557 -1496.188)" fill="#fff"/>
        <path id="Trazado_150967" data-name="Trazado 150967" d="M1130.367,1584.9l-173.478-.193v-11.249l173.478.788Z" transform="translate(-900.13 -1472.829)" fill="#d8dee8"/>
        <path id="Trazado_150968" data-name="Trazado 150968" d="M1130.367,2160.8l-173.478,3.952v-10.8l173.478-3.38Z" transform="translate(-900.13 -1974.578)" fill="#d8dee8"/>
        <path id="Trazado_150969" data-name="Trazado 150969" d="M1130.367,2981.156l-173.478,9.525v-1.8l173.478-9.43Z" transform="translate(-900.13 -2695.214)" fill="#d8dee8"/>
        <g id="Grupo_91907" data-name="Grupo 91907" transform="translate(71.863 122.759)">
          <g id="Grupo_91904" data-name="Grupo 91904" transform="translate(0 0.246)">
            <path id="Trazado_150970" data-name="Trazado 150970" d="M1111.465,1792.139l-38.907.663v-47.919l38.907-.095Z" transform="translate(-1072.558 -1744.787)" fill="#d8dee8"/>
          </g>
          <g id="Grupo_91905" data-name="Grupo 91905" transform="translate(54.927 0.125)">
            <path id="Trazado_150971" data-name="Trazado 150971" d="M1530.709,1790.424l-37.533.637v-47.116l37.533-.083Z" transform="translate(-1493.175 -1743.861)" fill="#d8dee8"/>
          </g>
          <g id="Grupo_91906" data-name="Grupo 91906" transform="translate(108.024)">
            <path id="Trazado_150972" data-name="Trazado 150972" d="M1936.39,1788.7l-36.618.619v-46.334l36.618-.083Z" transform="translate(-1899.772 -1742.901)" fill="#d8dee8"/>
          </g>
        </g>
        <g id="Grupo_91910" data-name="Grupo 91910" transform="translate(71.863 218.636)">
          <g id="Grupo_91908" data-name="Grupo 91908" transform="translate(0 3.497)">
            <path id="Trazado_150973" data-name="Trazado 150973" d="M1111.465,2550.783l-38.907,1.847v-47.471l38.907-1.284Z" transform="translate(-1072.558 -2503.875)" fill="#d8dee8"/>
          </g>
          <g id="Grupo_91909" data-name="Grupo 91909" transform="translate(108.024)">
            <path id="Trazado_150974" data-name="Trazado 150974" d="M1936.39,2522.467l-36.618,1.735v-45.9l36.618-1.2Z" transform="translate(-1899.772 -2477.097)" fill="#d8dee8"/>
          </g>
        </g>
        <path id="Trazado_150975" data-name="Trazado 150975" d="M988.435,1663.093s33.275,4.48,47.6,26.617c14.2,21.942,46.254,12.759,74.175,18.5,27.435,5.64,43.776,19.045,43.776,19.045l-165.555,3.7Z" transform="translate(-927.557 -1550.755)" fill="#97a6b7" opacity="0.1" style="mix-blend-mode: multiply;isolation: isolate"/>
        <path id="Trazado_150976" data-name="Trazado 150976" d="M988.435,2530.544s33.275,3.348,47.6,25c14.2,21.458,46.254,11.185,74.175,15.974,27.435,4.707,43.776,17.556,43.776,17.556l-165.555,9.33Z" transform="translate(-927.557 -2304.928)" fill="#97a6b7" opacity="0.1" style="mix-blend-mode: multiply;isolation: isolate"/>
        <path id="Trazado_150977" data-name="Trazado 150977" d="M1530.709,2491.12l-37.533,1.939v-68.252l37.533-1.138Z" transform="translate(-1366.385 -2212.01)" fill="#e4e9f2"/>
        <path id="Trazado_150978" data-name="Trazado 150978" d="M1500.09,2385.294l-48.977,1.535v-9.7l48.977-1.388Z" transform="translate(-1329.816 -2170.338)" fill="#d8dee8"/>
        <g id="Grupo_91911" data-name="Grupo 91911" transform="translate(107.108 272.938)">
          <path id="Trazado_150979" data-name="Trazado 150979" d="M1474.193,2898.565l-58.131,2.991v-5.742l58.131-2.888Z" transform="translate(-1406.45 -2892.927)" fill="url(#linear-gradient)"/>
          <path id="Trazado_150980" data-name="Trazado 150980" d="M1437.022,2939.435l-70.032,3.747v-5.754l70.032-3.622Z" transform="translate(-1363.786 -2928.468)" fill="#d8dee8"/>
          <path id="Trazado_150981" data-name="Trazado 150981" d="M1419.352,2981.068l-76.9,4.247v-5.759l76.9-4.11Z" transform="translate(-1342.454 -2964.67)" fill="url(#linear-gradient)"/>
        </g>
      </g>
      <g id="Grupo_91916" data-name="Grupo 91916" transform="translate(79.024 0)">
        <g id="Grupo_91915" data-name="Grupo 91915" transform="translate(0)">
          <path id="Trazado_150989" data-name="Trazado 150989" d="M608.412,671.3a16.05,16.05,0,0,1-8.735-2.259,168.881,168.881,0,0,1-30.352-23c-13.449-13.11-21.176-26.437-22.867-39.523l-.026-.205-.328-55.839c0-11.035,7.2-19.993,20.711-25.88,11.165-4.863,25.964-7.273,41.6-6.82,15.451.447,29.749,3.635,40.332,8.948,12.58,6.315,19.18,15.189,19.18,25.711l-.3,53.354-.024.2c-1.545,12.531-8.654,25.484-21.22,38.583a175.234,175.234,0,0,1-29.29,23.99A16.626,16.626,0,0,1,608.412,671.3Z" transform="translate(-546.104 -517.713)" fill="#364246"/>
          <path id="Trazado_150990" data-name="Trazado 150990" d="M637.375,671.3a15.677,15.677,0,0,1-8.62-2.259,166.865,166.865,0,0,1-29.951-23c-13.271-13.11-20.9-26.437-22.564-39.523l-.026-.205-.324-55.839c0-11.035,7.1-19.993,20.438-25.88,11.018-4.863,25.62-7.273,41.047-6.82,15.248.447,29.356,3.635,39.8,8.948,12.414,6.315,18.927,15.189,18.927,25.711l-.3,53.354-.024.2c-1.524,12.531-8.54,25.484-20.94,38.583a173.4,173.4,0,0,1-28.9,23.99A16.256,16.256,0,0,1,637.375,671.3Z" transform="translate(-572 -517.713)" fill="#1d272b"/>
          <path id="Trazado_150991" data-name="Trazado 150991" d="M604.122,573.342l.326,55.557c3.657,28.346,36.971,51.3,51.48,60.016a12.809,12.809,0,0,0,13.6-.366c14.206-9.348,45.7-32.882,49.059-60.136l.3-53.207C718.884,535.73,604.122,532.121,604.122,573.342Z" transform="translate(-596.546 -540.548)" fill="url(#linear-gradient-3)"/>
          <path id="Trazado_150992" data-name="Trazado 150992" d="M735.981,749.414a1.982,1.982,0,0,1-1.075-.285,157.682,157.682,0,0,1-27.629-21.091c-10.882-10.69-17.158-21.082-18.6-30.843l-.319-54.637c.013-5.242,4.163-9.729,12.3-13.319,9.081-4.008,21.977-6.111,35.324-5.794,13.214.314,25.734,2.974,34.407,7.278,7.672,3.807,11.551,8.3,11.563,13.356l-.3,52.745c-1.343,9.445-7.234,19.628-17.576,30.332a163.85,163.85,0,0,1-27.022,21.922A2.054,2.054,0,0,1,735.981,749.414Z" transform="translate(-669.783 -609.611)" fill="#1d272b"/>
          <path id="Trazado_150993" data-name="Trazado 150993" d="M749.821,768.642a153.241,153.241,0,0,1-26.122-20.1c-10.227-10.065-16.145-19.723-17.536-28.659l-.317-54.319c.01-3.748,3.455-7.186,10.214-10.179,8.6-3.809,20.927-5.816,33.76-5.528,12.709.286,24.689,2.8,32.922,6.869,6.4,3.165,9.632,6.617,9.641,10.272l-.3,52.551c-1.305,8.671-6.888,18.153-16.649,28.237A159.13,159.13,0,0,1,749.821,768.642Z" transform="translate(-684.986 -632.574)" fill="url(#linear-gradient-4)"/>
        </g>
        <path id="Trazado_150994" data-name="Trazado 150994" d="M879.528,908.557a5.474,5.474,0,0,1-4.633-2.416l-15-23.322c-1.3-2.021-.6-4.96,1.586-6.618,2.234-1.694,5.207-1.443,6.612.619l11.033,16.191,16.463-30.989a8.519,8.519,0,0,1,8.832-4.176c3.4.746,4.774,3.94,3.014,7.077l-22.882,40.794a5.746,5.746,0,0,1-4.835,2.838Q879.625,908.557,879.528,908.557Z" transform="translate(-818.354 -813.294)" fill="#008f85"/>
      </g>
      <g id="Grupo_91936" data-name="Grupo 91936" transform="translate(127.137 65.23)">
        <g id="Grupo_91918" data-name="Grupo 91918" transform="translate(0 15.513)">
          <path id="Trazado_150995" data-name="Trazado 150995" d="M1033.711,2216.722c-8.456-22.019,3.478-58.1,11-74.458,21.911-47.669,62.169-49.28,95.174-50.6,32.421-1.3,63.719-2.551,86.624,34.013,14.963,23.886,28.723,67.707,19.547,91.047-9.651,24.546-36.449,5.524-100.181,5.188C1075.771,2221.539,1044.269,2244.215,1033.711,2216.722Z" transform="translate(-1030.802 -1966.452)" fill="#1d272b"/>
          <path id="Trazado_150996" data-name="Trazado 150996" d="M1664.615,2107.167c0,6-14.654,13.205-32.731,13.205s-32.731-7.2-32.731-13.205,14.654-3.319,32.731-3.319S1664.615,2101.165,1664.615,2107.167Z" transform="translate(-1524.933 -1976.942)" fill="#008f85"/>
          <path id="Trazado_150997" data-name="Trazado 150997" d="M1670.6,1812.63c-4.977,0,6.511,34.97-11.582,39.771a1.991,1.991,0,0,0-.445,3.679c4.857,2.632,13.954,5.966,28.874,5.966a36.829,36.829,0,0,0,20.464-6.13,1.99,1.99,0,0,0-.215-3.422c-5.578-2.875-13.321-12.018-11.01-38.968Z" transform="translate(-1575.683 -1724.273)" fill="#e8b698"/>
          <path id="Trazado_150998" data-name="Trazado 150998" d="M1641.85,1358.764c.074.439,1.579,32.358,8.875,48.3,2.094,4.575,12.481,4.027,19.2,3.476,5.839-.478,14.992,1.653,17.569-2.378,10.364-16.207,8.607-56.348,8.607-56.348s-5.31-13.355-27.083-12.99S1641.85,1358.764,1641.85,1358.764Z" transform="translate(-1562.055 -1312.333)" fill="#e8b698"/>
          <path id="Trazado_150999" data-name="Trazado 150999" d="M1591.575,1582.7s-4.555-5.293-8.846-6-7.087,10.41-1.233,17.644,12.622,1.235,12.622,1.235Z" transform="translate(-1506.686 -1519.125)" fill="#e8b698"/>
          <path id="Trazado_151000" data-name="Trazado 151000" d="M2003.814,1582.7s4.555-5.293,8.846-6,7.088,10.41,1.233,17.644-12.623,1.235-12.623,1.235Z" transform="translate(-1874.54 -1519.125)" fill="#e8b698"/>
          <path id="Trazado_151001" data-name="Trazado 151001" d="M1588.973,1199.2c.573,1.052,1.23,2.032,1.674,1.916,1.84-.479-5.259-18.417,1.28-24.7,3.381-3.247,7.189-.288,21.039-.915,13.948-.631,17.516-3.968,21.731-1.412,3.841,2.329,7.278,8.978,4.43,28.671l2.378-.549c-1.068-6.45.1-10.521,1.43-13.086.972-1.871,2.731-4.284,2.594-7.77-.085-2.161-.8-2.258-.918-4.027-.345-5.187,5.573-6.583,5.858-11.707.22-3.945-3.183-4.841-2.561-8.965.529-3.506,3.186-4.162,2.766-6.7-.454-2.734-4.013-4.768-6.512-5.478-2.548-.724-3.47.079-4.964-.951-2.414-1.666-1.254-4.622-3-5.72-3.107-1.954-9.285,5.851-13.277,3.907-2.418-1.177-1.487-4.687-3.626-5.539-4.135-1.646-11.442,9.938-14.38,8.4-1.407-.736-.05-3.558-2.024-5.635-2.317-2.44-7.881-2.436-10.417.146-2.364,2.407-.357,5.281-2.859,8.331-2.247,2.738-4.843,1.611-7.38,3.806-4.309,3.728-2.809,12.163-2.274,15.173,1.843,10.363,7.581,12.459,6.293,19.525-.33,1.808-1.1,3.818-.549,6.769A13.9,13.9,0,0,0,1588.973,1199.2Z" transform="translate(-1507.649 -1136.019)" fill="url(#linear-gradient-5)"/>
          <g id="Grupo_91917" data-name="Grupo 91917" transform="translate(71.624 15.882)" opacity="0.3" style="mix-blend-mode: multiply;isolation: isolate">
            <path id="Trazado_151002" data-name="Trazado 151002" d="M1641.978,1282.549c-.509-5.095,3.438-7.466,2.775-11.1-.533-2.92-3.835-5.545-6.938-6.105-6.618-1.2-10.9,8.549-17.483,7.493-5.089-.816-4.524-6.963-10.268-9.435-9.1-3.918-18.645,8.026-24.7,4.718-1.819-.994-3.659-3.55-3.79-10.482-3.471,3.987-2.109,11.66-1.6,14.5,1.843,10.363,7.581,12.459,6.293,19.525-.33,1.808-1.1,3.818-.549,6.769a13.9,13.9,0,0,0,3.266,6.5c.573,1.052,1.23,2.031,1.674,1.916,1.841-.479-5.259-18.417,1.281-24.7,3.381-3.247,7.189-.288,21.039-.915,13.948-.631,17.515-3.968,21.731-1.412,3.841,2.329,7.278,8.978,4.431,28.671l2.378-.549c-1.068-6.45.1-10.521,1.43-13.086.4-.771.935-1.636,1.415-2.629a23.429,23.429,0,0,0-.994-5.518C1642.657,1284.415,1642.142,1284.188,1641.978,1282.549Z" transform="translate(-1579.281 -1257.636)" fill="url(#linear-gradient-6)"/>
          </g>
        </g>
        <g id="Grupo_91921" data-name="Grupo 91921" transform="translate(38.373 140.112)">
          <g id="Grupo_91919" data-name="Grupo 91919">
            <path id="Trazado_151003" data-name="Trazado 151003" d="M1396,2161.492v67.96h-64.644a5.134,5.134,0,0,1-5.129-5.063l-.536-40.572-1.035-78.326a2.645,2.645,0,0,1,1.427-2.379l3.463-1.782,3.7-1.9,24.349-9.018a3.836,3.836,0,0,1,4.769,1.9l33.11,66.912A5.121,5.121,0,0,1,1396,2161.492Z" transform="translate(-1324.656 -2090.169)" fill="url(#linear-gradient-7)"/>
            <path id="Trazado_151004" data-name="Trazado 151004" d="M1330.858,2248.678a7.312,7.312,0,0,1-1.466,4.52l-3.7,4.918-1.035-78.326a2.646,2.646,0,0,1,1.427-2.378l3.463-1.782Z" transform="translate(-1324.656 -2164.469)" fill="#008f85" opacity="0.7" style="mix-blend-mode: multiply;isolation: isolate"/>
            <rect id="Rectángulo_34150" data-name="Rectángulo 34150" width="69.883" height="17.943" transform="translate(1.461 94.898)" fill="#fff"/>
            <path id="Trazado_151005" data-name="Trazado 151005" d="M1600.509,2159.207l-33.109-66.912a3.837,3.837,0,0,0-4.77-1.9l-2.138.792a3.837,3.837,0,0,1,.823,1.1l33.082,66.912a5.105,5.105,0,0,1,.5,2.274v67.961h6.138v-67.961A5.13,5.13,0,0,0,1600.509,2159.207Z" transform="translate(-1529.695 -2090.159)" fill="#e4e9f2"/>
          </g>
          <g id="Grupo_91920" data-name="Grupo 91920" transform="translate(71.344)">
            <path id="Trazado_151006" data-name="Trazado 151006" d="M1870.987,2161.492v67.96h64.676a5.134,5.134,0,0,0,5.129-5.063l.537-40.572,1.034-78.326a2.645,2.645,0,0,0-1.427-2.379l-3.463-1.782-3.7-1.9-24.349-9.018a3.836,3.836,0,0,0-4.769,1.9l-33.126,66.912A5.136,5.136,0,0,0,1870.987,2161.492Z" transform="translate(-1870.987 -2090.169)" fill="url(#linear-gradient-7)"/>
            <path id="Trazado_151007" data-name="Trazado 151007" d="M2370.06,2248.678a7.313,7.313,0,0,0,1.466,4.52l3.7,4.918,1.035-78.326a2.646,2.646,0,0,0-1.428-2.378l-3.463-1.782Z" transform="translate(-2304.886 -2164.469)" opacity="0.7" fill="url(#linear-gradient-7)" style="mix-blend-mode: multiply;isolation: isolate"/>
            <rect id="Rectángulo_34151" data-name="Rectángulo 34151" width="70.355" height="17.943" transform="translate(0 94.898)" fill="url(#linear-gradient-7)"/>
            <path id="Trazado_151008" data-name="Trazado 151008" d="M1871.532,2159.207l33.117-66.912a3.842,3.842,0,0,1,4.774-1.9l2.14.792a3.831,3.831,0,0,0-.823,1.1l-33.1,66.912a5.123,5.123,0,0,0-.519,2.274v67.961h-6.138v-67.961A5.146,5.146,0,0,1,1871.532,2159.207Z" transform="translate(-1870.987 -2090.159)" fill="url(#linear-gradient-7)"/>
          </g>
        </g>
        <g id="Grupo_91922" data-name="Grupo 91922" transform="translate(83.295 94.304)">
          <path id="Trazado_151009" data-name="Trazado 151009" d="M1669.524,1739.563a.354.354,0,0,0-.479-.146l-.208.112a.354.354,0,0,0-.145.479l6.127,11.448a.354.354,0,0,0,.479.145l.208-.111a.354.354,0,0,0,.145-.479Z" transform="translate(-1668.649 -1739.376)" fill="#fff"/>
          <path id="Trazado_151010" data-name="Trazado 151010" d="M1993.7,1739.53l-.208-.112a.355.355,0,0,0-.48.146l-6.127,11.448a.354.354,0,0,0,.145.479l.208.111a.355.355,0,0,0,.48-.145l6.127-11.448A.354.354,0,0,0,1993.7,1739.53Z" transform="translate(-1945.29 -1739.376)" fill="#fff"/>
        </g>
        <g id="Grupo_91929" data-name="Grupo 91929" transform="translate(79.898 76.392)">
          <g id="Grupo_91925" data-name="Grupo 91925" transform="translate(6.078 10.124)">
            <path id="Trazado_151011" data-name="Trazado 151011" d="M1732.253,1687.215c0,.25-.009.5-.019.746a18.839,18.839,0,0,1-2.148,9.349c-1.775,4.075-4.424,7.252-7.1,8.532a.577.577,0,0,1-.113.048,6.9,6.9,0,0,1-.657.264c-.165.114-.264.175-.264.175l-.533.038a109.9,109.9,0,0,1-21.437,0l-.533-.038s-.1-.061-.265-.175c-.151-.052-.3-.109-.453-.175-.1-.042-.212-.085-.316-.137-2.672-1.279-5.217-4.457-6.993-8.532a15.681,15.681,0,0,1-2.045-9.349v-.094a1.617,1.617,0,0,0-.075-.383,1.081,1.081,0,0,1-.047-.269,23.237,23.237,0,0,1,.127-2.97,1.549,1.549,0,0,1,.968-1.256,65.832,65.832,0,0,1,40.735,0,1.575,1.575,0,0,1,.991,1.256,23.172,23.172,0,0,1,.17,2.738C1732.253,1687.059,1732.253,1687.139,1732.253,1687.215Z" transform="translate(-1689.246 -1679.738)" fill="#fff"/>
            <path id="Trazado_151012" data-name="Trazado 151012" d="M1732.188,1711.2c0,.25-.009.5-.019.746a18.837,18.837,0,0,1-2.148,9.349c-1.775,4.075-4.425,7.253-7.1,8.532a.6.6,0,0,1-.113.047c-5.256.429-17.522.25-24.143.09-.1-.042-.212-.085-.316-.137-2.672-1.28-5.217-4.458-6.993-8.532a15.679,15.679,0,0,1-2.045-9.349v-.094c0-.1-.1-.208-.094-.312,0-.005-.038-.01-.038-.014l.057-.057a5.461,5.461,0,0,1,2.521-1.516c4.566-1.261,22.165-5.4,38.747.331l1.676.685C1732.188,1711.044,1732.188,1711.124,1732.188,1711.2Z" transform="translate(-1689.182 -1703.723)" fill="#eeebf5" opacity="0.3"/>
            <g id="Grupo_91923" data-name="Grupo 91923" transform="translate(1.343 11.595)" style="mix-blend-mode: soft-light;isolation: isolate">
              <path id="Trazado_151013" data-name="Trazado 151013" d="M1717.465,1770.38c-11.813,0-17.7-1.3-17.791-1.317a.27.27,0,0,1,.12-.526c.13.029,13.3,2.922,39.94-.005a.27.27,0,1,1,.059.536A205.054,205.054,0,0,1,1717.465,1770.38Z" transform="translate(-1699.465 -1768.531)" fill="#1d272b"/>
            </g>
            <g id="Grupo_91924" data-name="Grupo 91924" transform="translate(5.978 18.609)" style="mix-blend-mode: soft-light;isolation: isolate">
              <path id="Trazado_151014" data-name="Trazado 151014" d="M1749.477,1824.091c-9.506,0-14.25-1.3-14.32-1.32a.27.27,0,1,1,.148-.519c.1.03,10.671,2.916,32.046-.008a.27.27,0,0,1,.073.534A132.816,132.816,0,0,1,1749.477,1824.091Z" transform="translate(-1734.961 -1822.242)" fill="#1d272b"/>
            </g>
          </g>
          <g id="Grupo_91928" data-name="Grupo 91928">
            <g id="Grupo_91926" data-name="Grupo 91926" transform="translate(0 0.277)">
              <path id="Trazado_151015" data-name="Trazado 151015" d="M1650.463,1618.322a.54.54,0,0,1-.471-.275l-7.286-12.909a.54.54,0,0,1,.94-.53l7.286,12.909a.54.54,0,0,1-.469.8Z" transform="translate(-1642.636 -1604.333)" fill="#fff"/>
            </g>
            <g id="Grupo_91927" data-name="Grupo 91927" transform="translate(47.531)">
              <path id="Trazado_151016" data-name="Trazado 151016" d="M2007.159,1617.831a.531.531,0,0,1-.1-.01.54.54,0,0,1-.425-.634l2.867-14.543a.54.54,0,0,1,1.059.209l-2.867,14.543A.54.54,0,0,1,2007.159,1617.831Z" transform="translate(-2006.619 -1602.208)" fill="#fff"/>
            </g>
          </g>
        </g>
        <g id="Grupo_91934" data-name="Grupo 91934" transform="translate(76.665 68.153)">
          <g id="Grupo_91930" data-name="Grupo 91930" transform="translate(0 4.427)">
            <path id="Trazado_151017" data-name="Trazado 151017" d="M1618.89,1573.015c-.8,0-1.011.628-1.011,1.427v2.187c0,.8.212,1.108,1.011,1.108h2.295v-4.722Z" transform="translate(-1617.879 -1573.015)" fill="#008f85"/>
            <path id="Trazado_151018" data-name="Trazado 151018" d="M2050.484,1573.015a1.438,1.438,0,0,1,1.456,1.427v2.187c0,.8-.657,1.108-1.456,1.108h-2.322v-4.722Z" transform="translate(-1991.973 -1573.015)" fill="#008f85"/>
          </g>
          <g id="Grupo_91933" data-name="Grupo 91933" transform="translate(2.833)">
            <g id="Grupo_91931" data-name="Grupo 91931" transform="translate(0.472 0.566)">
              <path id="Trazado_151019" data-name="Trazado 151019" d="M1696.547,1545.934v6.694a7.985,7.985,0,0,1-7.106,7.874l-6.288.706a9.956,9.956,0,0,1-8.585-3.086l-3.51-3.725H1668.8l-3.5,3.725a10,10,0,0,1-8.579,3.169l-6.381-.747a8.055,8.055,0,0,1-7.143-7.915v-6.694a2.66,2.66,0,0,1,2.748-2.478l23.964,1.016,23.95-1.016a2.568,2.568,0,0,1,1.875.683A2.534,2.534,0,0,1,1696.547,1545.934Z" transform="translate(-1643.19 -1543.453)" fill="#e4cbb7"/>
              <path id="Trazado_151020" data-name="Trazado 151020" d="M1693.335,1577.292a7.9,7.9,0,0,1-3.917,1.569l-6.276.706a9.944,9.944,0,0,1-8.579-3.087l-3.505-3.724H1668.8l-3.5,3.724a10,10,0,0,1-8.579,3.169l-6.381-.747a8.055,8.055,0,0,1-7.143-7.915v-6.417c2.361,1.682,6.02,3.121,11.58,3.342C1668.412,1568.447,1686.776,1562.233,1693.335,1577.292Z" transform="translate(-1643.19 -1561.812)" fill="#fff" opacity="0.5" style="mix-blend-mode: soft-light;isolation: isolate"/>
            </g>
            <g id="Grupo_91932" data-name="Grupo 91932">
              <path id="Trazado_151021" data-name="Trazado 151021" d="M1679.343,1558.211a10.25,10.25,0,0,1-7.776-3.293l-3.327-3.346h-1.785l-3.412,3.366a10.171,10.171,0,0,1-7.711,3.176,12.643,12.643,0,0,1-1.4-.1l-6.477-.714a8.8,8.8,0,0,1-7.881-8.441v-6.7a3.283,3.283,0,0,1,1.263-2.2,3.742,3.742,0,0,1,2.532-.844l23.919,1.019,23.958-1.021a2.62,2.62,0,0,1,2.63,3.022v6.721a8.282,8.282,0,0,1-7.255,8.5l-5.987.774A11.566,11.566,0,0,1,1679.343,1558.211Zm-13.358-7.583h2.73l3.675,3.611a9.138,9.138,0,0,0,6.953,2.926,10.529,10.529,0,0,0,1.156-.106l6.078-.795a7.267,7.267,0,0,0,6.354-7.4v-6.7a1.79,1.79,0,0,0-.4-1.385,1.716,1.716,0,0,0-1.232-.533l-.1,0-23.88,1.019-24.042-1.02a2.317,2.317,0,0,0-1.507.533c-.708.677-.774,1.127-.774,1.385v6.7a7.512,7.512,0,0,0,6.733,7.31l6.376.7a11.13,11.13,0,0,0,1.254.072,8.957,8.957,0,0,0,6.88-2.694Z" transform="translate(-1639.574 -1539.118)" fill="#008f85"/>
            </g>
          </g>
        </g>
        <g id="Grupo_91935" data-name="Grupo 91935" transform="translate(65.655 0)">
          <path id="Rectángulo_34152" data-name="Rectángulo 34152" d="M37.551,0h0A37.551,37.551,0,0,1,75.1,37.551v9.513a0,0,0,0,1,0,0H0a0,0,0,0,1,0,0V37.551A37.551,37.551,0,0,1,37.551,0Z" transform="translate(4.265 4.748)" fill="#db8804"/>
          <path id="Rectángulo_34153" data-name="Rectángulo 34153" d="M10.445,0h0A10.445,10.445,0,0,1,20.889,10.445V51.812a0,0,0,0,1,0,0H0a0,0,0,0,1,0,0V10.445A10.445,10.445,0,0,1,10.445,0Z" transform="translate(31.372)" fill="#f7b242"/>
          <rect id="Rectángulo_34154" data-name="Rectángulo 34154" width="83.633" height="9.092" rx="4.546" transform="translate(0 51.268)" fill="#f7b242"/>
          <path id="Trazado_151022" data-name="Trazado 151022" d="M1574.934,1475.333c1.574,7.176,17.274,12.813,36.415,12.813s34.841-5.636,36.414-12.812Z" transform="translate(-1569.532 -1415.51)" fill="#db8804"/>
        </g>
      </g>
      <g id="Grupo_91940" data-name="Grupo 91940" transform="translate(195.615 201.117)">
        <g id="Grupo_91938" data-name="Grupo 91938" transform="translate(0 0)">
          <g id="Grupo_91937" data-name="Grupo 91937">
            <path id="Trazado_151023" data-name="Trazado 151023" d="M2030.935,2204.148a10.646,10.646,0,0,1-9.292-15.994l72.173-124.991a10.731,10.731,0,0,1,18.583.013l72.173,125.009a10.631,10.631,0,0,1-9.292,15.963Z" transform="translate(-2020.211 -2057.808)" fill="#1d272b"/>
            <path id="Trazado_151024" data-name="Trazado 151024" d="M2211.493,2227.818a6.207,6.207,0,0,1-5.262,3.172H2061.885a6.247,6.247,0,0,1-5.259-9.317l72.17-125.04a6.1,6.1,0,0,1,4.1-2.943,5.932,5.932,0,0,1,1.164-.122,6.071,6.071,0,0,1,5.262,3.035l72.173,125.071A6.2,6.2,0,0,1,2211.493,2227.818Z" transform="translate(-2051.161 -2088.899)" fill="#db8804"/>
          </g>
        </g>
        <g id="Grupo_91939" data-name="Grupo 91939" transform="translate(73.934 44.683)">
          <path id="Trazado_151026" data-name="Trazado 151026" d="M2599.634,2450.794l-6.289-.15a3.483,3.483,0,0,1-3.3-3.305l-2.3-44.311a2.874,2.874,0,0,1,.908-2.283,3.012,3.012,0,0,1,2.4-.753l10.832.754a3.314,3.314,0,0,1,2.344,1.05,3.355,3.355,0,0,1,.881,2.417l-2.24,43.5A3.205,3.205,0,0,1,2599.634,2450.794Z" transform="translate(-2587.564 -2399.979)" fill="#fff"/>
          <path id="Trazado_151027" data-name="Trazado 151027" d="M2588.741,2857.457a8.986,8.986,0,0,1,6.622-2.18q4.393.07,6.669,2.313t2.272,6.537a8.576,8.576,0,0,1-2.323,6.422,9.059,9.059,0,0,1-6.618,2.284,8.95,8.95,0,0,1-6.6-2.363,8.735,8.735,0,0,1-2.39-6.487Q2586.378,2859.715,2588.741,2857.457Z" transform="translate(-2586.378 -2795.819)" fill="#fff"/>
        </g>
      </g>
    </g>
    <g id="Grupo_103730" data-name="Grupo 103730" transform="translate(237.5 809.972)">
      <g id="Grupo_90984" data-name="Grupo 90984" transform="translate(0 0)" clip-path="url(#clip-path)">
        <g id="Grupo_91824" data-name="Grupo 91824" transform="translate(-57.418 8.261)">
          <path id="Trazado_150872" data-name="Trazado 150872" d="M1120.088,1126.644c-11.839-51.111-30.648-149.5-30.648-149.5l-106.547-1.151c-16.9,9.726-13.685,128.733-17.879,140.238s-48.975,83.412-44.287,109.1c4.7,25.686,45.6,4.709,45.6,4.709s37.167-56.493,46.86-70.6c10.926-15.9,14.147-26.283,14.147-26.283,12.034-23.225,17.775-61.643,17.775-61.643,1.832,39.592,16.267,70.994,14.726,77.285,0,0,19.182,84.91,25.473,91.2s34.406,6.281,45.157-13.635C1130.469,1226.371,1127.882,1160.336,1120.088,1126.644Z" transform="translate(-887.706 -701.397)" fill="url(#linear-gradient-7)"/>
          <path id="Trazado_150873" data-name="Trazado 150873" d="M1003.909,1001c7.713-4.726,62.51,3.442,87.881-11.8-1.467-7.555-2.325-12.055-2.325-12.055l-106.547-1.151c-16.9,9.726-13.685,128.733-17.88,140.238-4.137,11.348-47.691,81.354-44.416,107.952l51.409-2.761c.167-.248.319-.488.488-.738-8.6-1.3-28.591-5.4-29.792-15.724-1.532-13.178,19.516-3.745,19.478-14.216-.045-10.488-9.521-20.974-4.259-27.263s29.854-8.213,29.094-26.645-9.719-38.349,0-53.029,24.189-22.012,21.148-38.782S995.341,1006.242,1003.909,1001Z" transform="translate(-887.731 -701.397)" fill="url(#radial-gradient)"/>
          <path id="Trazado_150874" data-name="Trazado 150874" d="M1165.239,1274.536c6.289,6.284,34.406,6.281,45.156-13.635,0,0-.26-6.484-.852-16.417-4.783,1.982-28.968,11.491-36.484,4.9-8.344-7.344,9.047-31.448,5.069-49.273s-18.168-16.922-21.555-31.528,10.312-25.08,6.086-35.562-19.957-36.693-16.808-48.227-11.62-20.3-11.62-20.3-4.166,19.528-9.011,44.766c2.43,38.063,16.043,67.96,14.545,74.079C1139.765,1183.333,1158.948,1268.243,1165.239,1274.536Z" transform="translate(-967.632 -735.928)" fill="#7999c6"/>
          <path id="Trazado_150875" data-name="Trazado 150875" d="M1149,1202.652s32.812,30.56,48.912,35.641" transform="translate(-976.912 -789.839)" fill="none" stroke="#5179aa" stroke-linecap="round" stroke-miterlimit="10" stroke-width="2.579"/>
          <path id="Trazado_150876" data-name="Trazado 150876" d="M1157.326,1248.207s37.724,10.043,52.409,15.243" transform="translate(-980.16 -807.614)" fill="none" stroke="#5179aa" stroke-linecap="round" stroke-miterlimit="10" stroke-width="2.579"/>
          <g id="Grupo_91823" data-name="Grupo 91823" transform="translate(63.037 0)">
            <g id="Grupo_91822" data-name="Grupo 91822" transform="translate(0)">
              <g id="Grupo_91821" data-name="Grupo 91821">
                <path id="Trazado_150881" data-name="Trazado 150881" d="M1199.079,716.621s12.584,5.2,16.51,10.617-1.42,76.347-11.722,93.6S1199.079,716.621,1199.079,716.621Z" transform="translate(-1058.914 -600.191)" fill="url(#linear-gradient-7)"/>
                <g id="Grupo_91819" data-name="Grupo 91819" transform="translate(15.827 106.249)">
                  <g id="Grupo_91818" data-name="Grupo 91818" transform="translate(0)">
                    <g id="Grupo_91817" data-name="Grupo 91817">
                      <path id="Trazado_150886" data-name="Trazado 150886" d="M1128.908,959.2s-.016,15.426-3.692,16.536c0,0-63.036,15.493-111.775-7.513l-1.37-14.3Z" transform="translate(-1002.346 -799.036)" fill="#1d272b"/>
                      <path id="Trazado_150887" data-name="Trazado 150887" d="M1049.416,699.926s-45.762,10.267-52,17.594,12.05,67.548,13.754,74.365-6.7,58.943-5,66.323,79.074,20.045,116.513,1.882c0,0,2.1-80.137,2.1-81.842s10.214-69.446-7.253-70.222c-4.552-.2-23.942-8.1-23.942-8.1Z" transform="translate(-996.122 -699.926)" fill="#ecedea"/>
                      <path id="Trazado_150888" data-name="Trazado 150888" d="M1012.456,862.44c1.7,7.375,79.074,20.045,116.513,1.882,0,0,2.1-80.137,2.1-81.842s10.214-69.445-7.254-70.222a29.372,29.372,0,0,1-6.069-1.484l-10.5,8.764h-50.609s-34.428,11.309-37.4,19.961c-1.632,4.762-1.9,27.975-2.973,52.314.569,2.018.986,3.521,1.181,4.3C1019.157,802.92,1010.753,855.061,1012.456,862.44Z" transform="translate(-1002.406 -704.158)" fill="url(#linear-gradient-7)"/>
                      <path id="Trazado_150890" data-name="Trazado 150890" d="M1193.482,711.742s5.886,89.175,6.927,125.632c0,0,9.836-85.061,2.232-115.244C1200.09,711.976,1199.438,711.742,1193.482,711.742Z" transform="translate(-1073.132 -704.536)" fill="#1d272b"/>
                      <path id="Trazado_150891" data-name="Trazado 150891" d="M1013.781,716.451s43.022,68.939-3.525,130.617c0,0-6.386,7.155,0,10.045,0,0,36.116-27.946,31.4-82.766,0,0-5.377-41.586-21.033-60.259C1020.627,714.088,1015.253,711.285,1013.781,716.451Z" transform="translate(-1000.53 -705.156)" fill="#1d272b"/>
                      <path id="Trazado_150892" data-name="Trazado 150892" d="M1102.919,798.34H1079.47V782.7h23.449Z" transform="translate(-1028.644 -732.224)" fill="#008f85"/>
                      <rect id="Rectángulo_34024" data-name="Rectángulo 34024" width="19.228" height="2.427" transform="translate(54.235 57.081)" fill="#1d272b"/>
                      <path id="Trazado_150893" data-name="Trazado 150893" d="M1101.937,770.918l-1.565,10.093h-4.278l-.319-10.093Z" transform="translate(-1035.006 -727.627)" fill="#1d272b"/>
                    </g>
                  </g>
                </g>
                <path id="Trazado_150894" data-name="Trazado 150894" d="M1120.462,537.161c-3.3-2.678-15.352-9.828-34.363-11.405-13.108-1.079-26.465,11.555-35.862,22.8-7.044,8.44-3.4,34.006-1.479,45.347,0,0-3.452,33.651-.4,43.105,0,0,55.027,11.367,61.454,10.234s15.15-7.185,18.166-13.235,2.766-36.123,2.766-36.123S1128.406,543.6,1120.462,537.161Z" transform="translate(-999.792 -525.691)" fill="#ecedea"/>
                <path id="Trazado_150895" data-name="Trazado 150895" d="M1126.68,578.066s1.086-21.629-3.4-26.736-33.673-5.508-40.7-2.759-9.393,32.134-9,40.245c0,0-14.154-7.729-16.112-4.919s16.51,5.729,15.324,8.985-12.968,2.118-13.751,6.224,14.54-1.891,15.328,1.308,2.754,1.312-.789,4.809-18.473,5.857-13.756,8.213,18.166-5.376,17.73-2.1-22.839,10.345-18.514,12.512,19.306-5.724,18.892-2.172-22.46,10.409-16.162,11.1c6.317.7,12.251-3.054,16.162,0,2.847,2.229,1.367,11.281.334,17.515,15.333,2.879,32.512,5.817,35.935,5.212,5.286-.932,12.1-5.186,16.046-10.022.355-9.566,1.393-34.67-2.137-51.068Z" transform="translate(-1004.172 -533.959)" fill="url(#linear-gradient-7)"/>
                <path id="Trazado_150896" data-name="Trazado 150896" d="M1139.689,582.507a33.9,33.9,0,0,1,.312,15.026,18.629,18.629,0,0,0,.307,9.08c1.458,4.286,2.956,23.673-2.518,32.672-3.856,6.334-26.345,11.856-37.246,0-9.052-9.837-10.271-31.038-10.019-38.1s2.185-26.117,20.226-24.423C1127.528,578.336,1138.831,575.537,1139.689,582.507Z" transform="translate(-1017.12 -545.578)" fill="#fca977"/>
                <path id="Trazado_150897" data-name="Trazado 150897" d="M1124.229,592.588s3.654.6,1.008,2.489-9.528.669-13.5,1.422c0,0,.624-1.387,3.27-2.706S1124.229,592.588,1124.229,592.588Z" transform="translate(-1025.409 -551.793)" fill="#1a1715"/>
                <path id="Trazado_150898" data-name="Trazado 150898" d="M1159.478,595.8s-2.459.6-.68,2.485,5.377.471,8.05,1.229a1.288,1.288,0,0,0,.04-2.361C1165.106,595.836,1159.478,595.8,1159.478,595.8Z" transform="translate(-1043.519 -553.049)" fill="#1a1715"/>
                <path id="Trazado_150899" data-name="Trazado 150899" d="M1124.935,613.589c0,1.773.824,3.216,1.829,3.216s1.829-1.443,1.829-3.216-.817-3.218-1.829-3.218S1124.935,611.809,1124.935,613.589Z" transform="translate(-1030.558 -558.733)" fill="#1a1715"/>
                <path id="Trazado_150900" data-name="Trazado 150900" d="M1161.244,613.589c0,1.773.577,3.216,1.289,3.216s1.3-1.443,1.3-3.216-.576-3.218-1.3-3.218S1161.244,611.81,1161.244,613.589Z" transform="translate(-1044.725 -558.733)" fill="#1a1715"/>
                <path id="Trazado_150901" data-name="Trazado 150901" d="M1105.148,610.747s-.591,10.5,2.013,12.778,24.03-2.918,25.549-3.9c0,0,13.914,3.971,14.035,3.163s1.27-10.9.61-14.311l-35.476-.9Z" transform="translate(-1022.815 -557.645)" fill="#8e2f2b" opacity="0.5" style="mix-blend-mode: multiply;isolation: isolate"/>
                <g id="Grupo_91820" data-name="Grupo 91820" transform="translate(80.542 49.611)">
                  <path id="Trazado_150902" data-name="Trazado 150902" d="M1117.193,607.049l-.129,0h0Z" transform="translate(-1108.029 -607.047)" fill="#1d272b"/>
                  <path id="Trazado_150903" data-name="Trazado 150903" d="M1147.673,608.336l-2.022-.074c.167,1.42,1.205,11.259-1.61,12.489,0,0-9.473-2.463-12.882-2.463s-19.061,4.824-22.58,3.742-2.543-11.479-2.543-11.479l5.19-3.473-8.4,3.473s-2.554,13.793,3.09,14.971,22.935-5.7,26.474-4.714,12.3,3.985,13.814,2.975S1147.673,608.336,1147.673,608.336Z" transform="translate(-1102.248 -607.059)" fill="#1d272b"/>
                </g>
                <path id="Trazado_150904" data-name="Trazado 150904" d="M1090.544,612.755s10.6-4.865,14.816-5.814,36.107-.751,37.746,0c0,0,1.081,1.534-2.037,1.843,0,0-28.723-1.822-35.709,0l-14.4,5.407Z" transform="translate(-1017.139 -557.145)" fill="#1d272b"/>
                <path id="Trazado_150905" data-name="Trazado 150905" d="M1139.259,633.114a10.756,10.756,0,0,0-7.205,0c-5.031,1.541-16.877,8.757-17.22,11.644s6.865,18.868,15.034,21.093c5.919,1.617,16.36-2.108,20.676-16.841,0,0,.875-6.246-1.067-9.626S1139.259,633.114,1139.259,633.114Z" transform="translate(-1026.611 -567.376)" fill="#eeebf5"/>
                <path id="Trazado_150906" data-name="Trazado 150906" d="M1107.067,643.138s-14.307-9.021-15.952-10.615l.171,3.519,14.3,8.716Z" transform="translate(-1017.361 -567.376)" fill="#eeebf5"/>
                <path id="Trazado_150907" data-name="Trazado 150907" d="M1113.225,668.064s-11.782-1.22-14.485-2.084l.955,2.084,14.273,2.26Z" transform="translate(-1020.337 -580.431)" fill="#eeebf5"/>
                <path id="Trazado_150908" data-name="Trazado 150908" d="M1126.123,693.874l6.774,9.692s-8.578,19.874-30.009,22.236-64.673-21.224-64.673-21.224l5.853-13.789s43.043,21.948,60.975,17.587C1124.844,703.566,1126.123,693.874,1126.123,693.874Z" transform="translate(-996.72 -590.112)" fill="#008f85"/>
                <path id="Trazado_150909" data-name="Trazado 150909" d="M1085.559,712.96,1042.9,695.254l-4.688,11.067s30.416,16.587,52.874,20.546Z" transform="translate(-996.72 -591.854)" fill="#008f85"/>
                <path id="Trazado_150910" data-name="Trazado 150910" d="M1107.642,708.376c-17.932,4.361-60.975-17.587-60.975-17.587L1044.873,695c11.757,5.965,42.85,20.669,59.985,18.785,13.692-1.513,22.136-10.157,26.45-16.217l-2.587-3.7S1127.441,703.566,1107.642,708.376Z" transform="translate(-999.318 -590.112)" fill="#1d272b"/>
                <path id="Trazado_150911" data-name="Trazado 150911" d="M987.289,728.6s11.01-3.149,18.868,12.015,13.666,68.862,13.666,68.862,49.7,66.871,54.32,69.122-.719,17.365-14.685,19.664c-9.558,1.574-66.509-51.331-71.277-59.952,0,0-2.356,1.573-17.405-76.83C968.163,747.862,974.05,728.329,987.289,728.6Z" transform="translate(-970.168 -604.761)" fill="#ecedea"/>
                <path id="Trazado_151028" data-name="Trazado 151028" d="M1053.649,728.6s-10.387-3.149-17.8,12.015-12.894,68.862-12.894,68.862S976.065,876.352,971.7,878.6s.678,17.365,13.856,19.664c9.019,1.574,62.751-51.331,67.251-59.952,0,0,2.223,1.573,16.423-76.83C1071.694,747.862,1066.141,728.329,1053.649,728.6Z" transform="translate(-896.792 -604.761)" fill="#ecedea"/>
              </g>
            </g>
            <path id="Trazado_150913" data-name="Trazado 150913" d="M1027.986,838.906s-28.691,4.833-28.284,21.422" transform="translate(-981.691 -647.906)" fill="none" stroke="#868695" stroke-linecap="round" stroke-miterlimit="10" stroke-width="2.579"/>
            <line id="Línea_1693" data-name="Línea 1693" x1="31.907" y1="2.973" transform="translate(11.439 185.149)" fill="none" stroke="#868695" stroke-linecap="round" stroke-miterlimit="10" stroke-width="2.579"/>
            <path id="Trazado_150914" data-name="Trazado 150914" d="M1011.037,813.128s-23-15.564-29.094-19.6" transform="translate(-974.763 -630.201)" fill="none" stroke="#868695" stroke-linecap="round" stroke-miterlimit="10" stroke-width="2.579"/>
          </g>
          <path id="Trazado_150917" data-name="Trazado 150917" d="M1355.029,835.048a2.354,2.354,0,0,0,2.353,2.358h0a2.356,2.356,0,0,0,2.356-2.358v-9.959a2.352,2.352,0,0,0-2.356-2.358h0a2.35,2.35,0,0,0-2.353,2.358Z" transform="translate(-1057.303 -641.595)" fill="#f7b242"/>
          <path id="Trazado_150918" data-name="Trazado 150918" d="M1362.127,832.621a2.36,2.36,0,0,0,2.365,2.358h0a2.356,2.356,0,0,0,2.359-2.358v-9.957a2.355,2.355,0,0,0-2.359-2.356h0a2.36,2.36,0,0,0-2.365,2.356Z" transform="translate(-1060.073 -640.65)" fill="#f7b242"/>
          <path id="Trazado_150919" data-name="Trazado 150919" d="M1369.873,830.812a2.355,2.355,0,0,0,2.351,2.354h0a2.362,2.362,0,0,0,2.366-2.354v-9.964a2.359,2.359,0,0,0-2.366-2.356h0a2.351,2.351,0,0,0-2.351,2.356Z" transform="translate(-1063.095 -639.941)" fill="#f7b242"/>
          <path id="Trazado_150920" data-name="Trazado 150920" d="M1377.607,830a2.354,2.354,0,0,0,2.355,2.36h0a2.357,2.357,0,0,0,2.358-2.36v-9.955a2.358,2.358,0,0,0-2.358-2.365h0a2.355,2.355,0,0,0-2.355,2.365Z" transform="translate(-1066.113 -639.624)" fill="#f7b242"/>
          <path id="Trazado_150922" data-name="Trazado 150922" d="M1122.756,975.992l14.138,17.8s2.424-.143,7.208,2.625,7.992,1.755,8.945,4.995,1.594,2.475.969,4.566,5.215,5.717,4.836,9.443-7.885,7.474-13.268,9.895c-1.355.6-10.376,1.484-14.111-.731s-8.164-16.41-10.057-19.637S1104.052,989,1104.052,989A37.05,37.05,0,0,1,1122.756,975.992Z" transform="translate(-959.373 -701.397)" fill="#f7b242"/>
          <path id="Trazado_150923" data-name="Trazado 150923" d="M919.043,1424.5s27.215,26.117,28.854,27.351.664,4.433-.431,5.712-66.271-25.707-70.261-27.393-9.1-3.154-10.214-5.243,2.6-13.766,9.766-22.444l21.469-44.1s-.226-6.434,4.064-6.913c0,0,25.631,14.969,47.767,21.188,0,0-4.7,7.7-8.718,11.31C932.749,1391.687,919.043,1424.5,919.043,1424.5Z" transform="translate(-866.796 -847.907)" fill="#00111c"/>
          <path id="Trazado_150924" data-name="Trazado 150924" d="M1236.255,1438.4s37.166,6.441,39.214,6.548,3.036,3.3,2.83,4.972-69.311,15.74-73.56,16.573-9.311,2.473-11.405,1.361-5.538-12.87-4.45-24.071l-6.86-48.57s-3.778-5.207-.486-8c0,0,29.609-1.913,51.45-9.138,0,0,.4,9.016-.912,14.257C1229.267,1403.531,1236.255,1438.4,1236.255,1438.4Z" transform="translate(-989.082 -858.288)" fill="#00111c"/>
          <path id="Trazado_150925" data-name="Trazado 150925" d="M1003.334,1209.52s8.134,26.007,16.05,47.178" transform="translate(-920.073 -792.519)" fill="none" stroke="#5179aa" stroke-linecap="round" stroke-miterlimit="10" stroke-width="2.579"/>
          <path id="Trazado_150926" data-name="Trazado 150926" d="M981.943,1240.6s19.409,32.789,29.094,39.753" transform="translate(-911.726 -804.647)" fill="none" stroke="#5179aa" stroke-linecap="round" stroke-miterlimit="10" stroke-width="2.579"/>
        </g>
      </g>
    </g>
  </g>
</svg>
