<svg xmlns="http://www.w3.org/2000/svg" xmlns:xlink="http://www.w3.org/1999/xlink" width="348.964" height="279.192" viewBox="0 0 348.964 279.192">
  <defs>
    <linearGradient id="linear-gradient" x1="0.5" x2="0.5" y2="1" gradientUnits="objectBoundingBox">
      <stop offset="0" stop-color="#f5f5f5"/>
      <stop offset="0.25" stop-color="#f5f5f5"/>
      <stop offset="1" stop-color="#a7b3cf"/>
    </linearGradient>
  </defs>
  <g id="img1" transform="translate(-51.902 -82.615)">
    <g id="Grupo_107097" data-name="Grupo 107097" transform="translate(62.673 95.328)">
      <g id="Grupo_107070" data-name="Grupo 107070" transform="translate(13.327)">
        <path id="Trazado_151846" data-name="Trazado 151846" d="M333.272,355.072a69.159,69.159,0,0,0,8.305-57.407c-3.683-12.078-10.75-23.3-11.653-35.893-1.807-25.181,20.973-45.539,25.7-70.34,2.077-10.9-.189-23.6-9.093-30.218-8.794-6.539-21.347-5.2-31.3-.625s-18.381,11.911-27.94,17.27-21.33,8.673-31.425,4.407c-10.225-4.321-16.025-15.212-19.274-25.826s-4.844-21.92-10.388-31.536c-9.138-15.849-28.623-24.49-46.78-22.254s-34.38,14.485-43.082,30.578-10.223,35.557-5.891,53.332c2.2,9.015,5.817,17.648,7.791,26.715s2.154,18.99-2.252,27.157c-9.215,17.077-33.524,19.458-46.255,34.1-10.507,12.087-10.836,30.533-4.874,45.4s17.169,26.925,28.341,38.4c52.113,1.752,105.16,1.868,157.273,3.62C290.724,362.632,313.041,356.263,333.272,355.072Z" transform="translate(-80.961 -98.466)" fill="#a4a4b4" opacity="0.354" style="mix-blend-mode: multiply;isolation: isolate"/>
        <path id="Trazado_151847" data-name="Trazado 151847" d="M359.21,172.037c-.138,14.74,13.874,27.569,11.436,42.106-1.3,7.778-7.231,15.663-3.786,22.758,3.047,6.278,11.775,7.366,18.449,5.325,15.621-4.779,25.116-20.746,29.657-36.439,4.271-14.76,5.331-31.247-1.509-45.007-5.512-11.086-18.229-20.873-31.142-19.968C370.486,141.643,359.313,160.935,359.21,172.037Z" transform="translate(-125.311 -104.595)" fill="#a4a4b4" opacity="0.31" style="mix-blend-mode: multiply;isolation: isolate"/>
        <path id="Trazado_151848" data-name="Trazado 151848" d="M114.721,140.4a59.787,59.787,0,0,0-1.193,58.176c3.069,5.631,7.214,10.879,12.811,14.01s12.817,3.83,18.388.652c8.448-4.819,10.317-16.186,9.644-25.889s-2.871-19.875.866-28.855c2.436-5.853,7.113-10.417,11.263-15.21s8.022-10.388,8.236-16.725c.556-16.426-16.883-15.2-27.392-11.787A59.728,59.728,0,0,0,114.721,140.4Z" transform="translate(-85.041 -100.117)" fill="#a4a4b4" opacity="0.31" style="mix-blend-mode: multiply;isolation: isolate"/>
        <g id="Grupo_107069" data-name="Grupo 107069" transform="translate(5.838)" style="mix-blend-mode: multiply;isolation: isolate">
          <path id="Trazado_151849" data-name="Trazado 151849" d="M331.777,357.715l-1.121-1.023c3.083-3.37,8.005-11.1,6.339-24.985-.741-6.183-2.58-12.291-4.358-18.2-.794-2.639-1.615-5.367-2.332-8.077a125.447,125.447,0,0,1,9.176-87.5c1.2-2.369,2.492-4.746,3.746-7.044,3.715-6.814,7.555-13.861,9.207-21.473,2.9-13.357-2.829-23.369-9.375-27.018-6.28-3.5-15.145-2.967-24.321,1.469-3.357,1.622-6.619,3.607-9.774,5.526a90.4,90.4,0,0,1-13.109,7.017c-18.212,7.307-40.982,1.1-52.963-14.442-5.758-7.467-9.01-16.492-12.154-25.22-1.218-3.382-2.478-6.88-3.863-10.226-4.309-10.4-12.2-23.464-25.3-26.588-11.511-2.746-23.171,3.289-30.923,8.836-14.832,10.612-25.286,24.984-29.44,40.467-2.8,10.441-2.913,21.805-3.022,32.8-.162,16.367-.33,33.291-9.573,46.92-4.2,6.2-9.988,11.147-15.58,15.932-5.238,4.48-10.654,9.114-14.691,14.73C89.2,272.347,86.959,290.363,92.2,309.05c4.707,16.79,14.3,31.689,23.583,46.1l-1.275.82c-9.34-14.5-19-29.5-23.767-46.508-5.364-19.134-3.038-37.622,6.381-50.723,4.144-5.765,9.631-10.458,14.936-15,5.517-4.719,11.221-9.6,15.311-15.63,8.986-13.251,9.144-29.2,9.311-46.084.11-11.085.224-22.547,3.075-33.175,4.243-15.821,14.906-30.491,30.022-41.308,8.009-5.73,20.088-11.956,32.158-9.077,13.724,3.273,21.9,16.752,26.346,27.483,1.4,3.379,2.666,6.894,3.889,10.292,3.1,8.617,6.314,17.528,11.927,24.807,11.582,15.021,33.593,21.023,51.2,13.96a89.4,89.4,0,0,0,12.886-6.9c3.185-1.938,6.479-3.942,9.9-5.6,9.626-4.654,19-5.176,25.72-1.429,7.019,3.914,13.18,14.554,10.119,28.665-1.7,7.825-5.592,14.969-9.359,21.878-1.247,2.288-2.538,4.654-3.723,7a123.907,123.907,0,0,0-9.063,86.423c.709,2.685,1.527,5.4,2.318,8.028,1.8,5.968,3.654,12.139,4.412,18.453C340.24,346.017,335.034,354.155,331.777,357.715Z" transform="translate(-87.906 -97.739)" fill="#a4a4b4"/>
        </g>
      </g>
      <path id="Trazado_151852" data-name="Trazado 151852" d="M378.106,412.6H73.813a5.644,5.644,0,0,1-5.644-5.643h0a5.644,5.644,0,0,1,5.644-5.644H378.106a5.644,5.644,0,0,1,5.644,5.644h0A5.644,5.644,0,0,1,378.106,412.6Z" transform="translate(-65.595 -146.126)" fill="#1d272b"/>
      <g id="Grupo_107086" data-name="Grupo 107086" transform="translate(63.505 43.137)">
        <path id="Trazado_151853" data-name="Trazado 151853" d="M180.471,284.567a25.865,25.865,0,0,1-7.715-37.641c3.328-4.517,8.32-8.379,8.948-13.954.651-5.777-3.674-10.784-5.667-16.246a21.328,21.328,0,0,1,3.2-20.1c3.165-4.031,7.835-6.951,9.949-11.62,1.328-2.935,1.487-6.24,1.856-9.44s1.047-6.542,3.153-8.979,6.058-3.546,8.626-1.6c4.865-5.023,10.593-11.112,17.04-13.818s14.191-3.088,20.225.446c4.774,2.8,7.949,7.634,12.141,11.243,3.6,3.1,7.908,5.254,11.792,7.992s7.5,6.321,8.695,10.921c1.957,7.561-3.1,15.156-3.331,22.964-.227,7.586,4.086,14.577,5.046,22.106.973,7.637-1.606,15.388-5.675,21.924s-9.559,12.047-15,17.495c-2.2,9.84-9.457,16.808-18.71,20.819s-19.606,4.7-29.685,4.333C197.151,291.116,187.552,288.729,180.471,284.567Z" transform="translate(-144.969 -149.055)" fill="#12263f"/>
        <path id="Trazado_151854" data-name="Trazado 151854" d="M195.937,273.751c-2.1-2.776-2.036-6.646-1.16-10.012s2.46-6.53,3.151-9.939c.934-4.6.188-9.375-.767-13.976s-2.127-9.217-2.039-13.915,1.627-9.607,5.221-12.634c12.6-10.612,33.009-6.922,49.394-5.2,8.281.872,13.943,8.861,16.568,16.763s1.734,16.707-1.394,24.424-8.364,14.43-14.314,20.255c-3.549,3.475-9.836.686-14.71,1.642-4.777.937-8.9,3.853-13.387,5.736a32.629,32.629,0,0,1-22.818.815C197.518,276.982,195.7,276.022,195.937,273.751Z" transform="translate(-149.189 -158.136)" fill="#0c1f36"/>
        <path id="Trazado_151855" data-name="Trazado 151855" d="M281.194,288.794a43.888,43.888,0,0,0-23.871-15.608c-4.317-1.08-8.8-1.5-13.042-2.828a24.735,24.735,0,0,1-3.531-1.419,77.853,77.853,0,0,1-2.434-19.907h-24.89a77.853,77.853,0,0,1-2.434,19.907,24.733,24.733,0,0,1-3.531,1.419c-4.247,1.332-8.725,1.748-13.042,2.828a43.5,43.5,0,0,0-32.944,42.647V377.34l111.036-1.625A18.021,18.021,0,0,0,290.267,357.7V315.832A43.885,43.885,0,0,0,281.194,288.794Z" transform="translate(-143.972 -164.99)" fill="#ffc582"/>
        <path id="Trazado_151856" data-name="Trazado 151856" d="M243.642,380.8c2.12-5.556,2.3-11.627,3.071-17.523,1.474-11.314,5.163-22.2,7.781-33.308s4.938-23.205,2.07-34.248a202.062,202.062,0,0,1-48.8-.076c-6.126,2.568-9.3,10.3-10.442,16.842s-.305,13.244-.178,19.885c.139,7.264-.573,14.533-.23,21.79s1.838,14.683,5.941,20.679A37.348,37.348,0,0,0,212.5,384.1l29.789-.435A21.342,21.342,0,0,0,243.642,380.8Z" transform="translate(-149.592 -172.419)" fill="#fff"/>
        <g id="Grupo_107073" data-name="Grupo 107073" transform="translate(47.146 123.221)">
          <path id="Trazado_151857" data-name="Trazado 151857" d="M197.325,318.273c1.137-6.543,4.317-14.274,10.442-16.842a202.06,202.06,0,0,0,48.8.076,41.786,41.786,0,0,1,1.237,8.215,46.468,46.468,0,0,0-1.237-14.006,202.061,202.061,0,0,1-48.8-.076c-6.126,2.568-9.3,10.3-10.442,16.842a53.111,53.111,0,0,0-.53,10.881A40.326,40.326,0,0,1,197.325,318.273Z" transform="translate(-196.738 -295.64)" fill="#ededed"/>
          <path id="Trazado_151858" data-name="Trazado 151858" d="M197.164,346.091c0-.227-.015-.455-.021-.682-.107,4.983-.39,9.967-.262,14.946C196.985,355.6,197.255,350.845,197.164,346.091Z" transform="translate(-196.756 -303.573)" fill="#ededed"/>
        </g>
        <path id="Trazado_151859" data-name="Trazado 151859" d="M222.5,259.614a52.937,52.937,0,0,0,25.607-6.933c-.048-1.216-.077-2.433-.067-3.649h-24.89A77.467,77.467,0,0,1,222.5,259.614Z" transform="translate(-153.699 -164.99)" fill="#94724c"/>
        <g id="Grupo_107074" data-name="Grupo 107074" transform="translate(47.323 46.363)">
          <path id="Trazado_151860" data-name="Trazado 151860" d="M208.008,209.733a11.54,11.54,0,0,0-4.056-4.787c-1.836-1.058-4.438-1.054-5.85.527-1.146,1.284-1.224,3.181-1.12,4.9.212,3.476.976,7.045,3.071,9.826s5.758,4.583,9.124,3.693C209.66,219.159,210.262,213.921,208.008,209.733Z" transform="translate(-196.949 -204.209)" fill="#ffc582"/>
          <path id="Trazado_151861" data-name="Trazado 151861" d="M208.062,213.964l.361.058a20.925,20.925,0,0,0-1.6-3.346,7.033,7.033,0,0,0-2.634-2.555,4.252,4.252,0,0,0-3.586-.22,3.072,3.072,0,0,0-1.874,2.931,3.06,3.06,0,0,1,2.891-.815A2.958,2.958,0,0,1,203.805,212a2.253,2.253,0,0,0-1.71,1.863,4.42,4.42,0,0,0,.393,2.595,4.072,4.072,0,0,0,.814,1.309,1.936,1.936,0,0,0,1.378.614,2.858,2.858,0,0,1-2.028,1.148,5.514,5.514,0,0,0,5.369-.348A24.019,24.019,0,0,0,208.062,213.964Z" transform="translate(-197.232 -204.75)" fill="#d6a56d"/>
        </g>
        <g id="Grupo_107075" data-name="Grupo 107075" transform="translate(102.251 48.179)">
          <path id="Trazado_151862" data-name="Trazado 151862" d="M263.913,211.893a11.558,11.558,0,0,1,4.056-4.787c1.837-1.058,4.439-1.054,5.85.527,1.147,1.284,1.225,3.181,1.12,4.9-.211,3.475-.976,7.044-3.07,9.826s-5.758,4.583-9.125,3.692C262.263,221.319,261.66,216.081,263.913,211.893Z" transform="translate(-262.292 -206.369)" fill="#ffc582"/>
          <path id="Trazado_151863" data-name="Trazado 151863" d="M264.425,216.125l-.361.058a21.071,21.071,0,0,1,1.6-3.346,7.021,7.021,0,0,1,2.634-2.555,4.254,4.254,0,0,1,3.586-.22,3.074,3.074,0,0,1,1.874,2.932,3.059,3.059,0,0,0-2.892-.815,2.955,2.955,0,0,0-2.183,1.986,2.253,2.253,0,0,1,1.71,1.864,4.423,4.423,0,0,1-.394,2.595,4.085,4.085,0,0,1-.813,1.309,1.938,1.938,0,0,1-1.379.613,2.866,2.866,0,0,0,2.029,1.149,5.516,5.516,0,0,1-5.37-.349A24.025,24.025,0,0,1,264.425,216.125Z" transform="translate(-262.574 -206.91)" fill="#d6a56d"/>
        </g>
        <circle id="Elipse_4259" data-name="Elipse 4259" cx="7.163" cy="7.163" r="7.163" transform="translate(48.847 48.285)" fill="#1d272b"/>
        <circle id="Elipse_4260" data-name="Elipse 4260" cx="7.163" cy="7.163" r="7.163" transform="translate(99.557 48.285)" fill="#1d272b"/>
        <ellipse id="Elipse_4261" data-name="Elipse 4261" cx="25.398" cy="34.157" rx="25.398" ry="34.157" transform="translate(55.924 22.842)" fill="#ffc582"/>
        <path id="Trazado_151864" data-name="Trazado 151864" d="M208.941,200.937c-.794-.367.578-1.742,2.643-2.3,5.472-1.476,11.528-2.1,16.077,1.277.179.943-1.027,2.064-1.98,2.179a6.223,6.223,0,0,1-2.786-.6A24.721,24.721,0,0,0,208.941,200.937Z" transform="translate(-151.501 -156.768)" fill="#0c1f36"/>
        <path id="Trazado_151865" data-name="Trazado 151865" d="M261.979,200.937c.793-.367-.577-1.742-2.643-2.3-5.472-1.476-11.528-2.1-16.077,1.277-.179.943,1.027,2.064,1.98,2.179a6.228,6.228,0,0,0,2.786-.6A24.721,24.721,0,0,1,261.979,200.937Z" transform="translate(-157.005 -156.768)" fill="#0c1f36"/>
        <path id="Trazado_151866" data-name="Trazado 151866" d="M226.22,226.376c0,.986-3.14,1.785-7.013,1.785s-7.013-.8-7.013-1.785,3.14-1.785,7.013-1.785S226.22,225.39,226.22,226.376Z" transform="translate(-152.056 -161.094)" fill="#ffa866"/>
        <path id="Trazado_151867" data-name="Trazado 151867" d="M259.472,226.376c0,.986-3.14,1.785-7.013,1.785s-7.013-.8-7.013-1.785,3.141-1.785,7.013-1.785S259.472,225.39,259.472,226.376Z" transform="translate(-157.356 -161.094)" fill="#ffa866"/>
        <path id="Trazado_151868" data-name="Trazado 151868" d="M235.782,208.079a18.831,18.831,0,0,1-3.155,13.323,4.655,4.655,0,0,0-1.187,2.644,2.742,2.742,0,0,0,2.076,2.337,6.852,6.852,0,0,0,3.305-.087" transform="translate(-155.123 -158.462)" fill="none" stroke="#d9d9d9" stroke-linecap="round" stroke-linejoin="round" stroke-width="2" style="mix-blend-mode: multiply;isolation: isolate"/>
        <g id="Grupo_107079" data-name="Grupo 107079" transform="translate(56.011 39.717)">
          <g id="Grupo_107076" data-name="Grupo 107076">
            <path id="Trazado_151869" data-name="Trazado 151869" d="M218.6,218.93a11.314,11.314,0,1,1,11.314-11.315A11.327,11.327,0,0,1,218.6,218.93Zm0-20.787a9.472,9.472,0,1,0,9.472,9.472A9.483,9.483,0,0,0,218.6,198.144Z" transform="translate(-207.284 -196.302)" fill="#1d272b"/>
          </g>
          <g id="Grupo_107077" data-name="Grupo 107077" transform="translate(28.395)">
            <path id="Trazado_151870" data-name="Trazado 151870" d="M252.377,218.93a11.314,11.314,0,1,1,11.315-11.315A11.327,11.327,0,0,1,252.377,218.93Zm0-20.787a9.472,9.472,0,1,0,9.473,9.472A9.483,9.483,0,0,0,252.377,198.144Z" transform="translate(-241.063 -196.302)" fill="#1d272b"/>
          </g>
          <g id="Grupo_107078" data-name="Grupo 107078" transform="translate(21.174 9.202)">
            <path id="Trazado_151871" data-name="Trazado 151871" d="M233.538,210.112l-1.065-1.5a7.651,7.651,0,0,1,8.676,0l-1.068,1.5A5.876,5.876,0,0,0,233.538,210.112Z" transform="translate(-232.473 -207.249)" fill="#1d272b"/>
          </g>
        </g>
        <path id="Trazado_151872" data-name="Trazado 151872" d="M228.722,235.376a15.06,15.06,0,0,0,15.735-.589" transform="translate(-154.69 -162.719)" fill="none" stroke="#d9d9d9" stroke-linecap="round" stroke-linejoin="round" stroke-width="2" style="mix-blend-mode: multiply;isolation: isolate"/>
        <path id="Trazado_151873" data-name="Trazado 151873" d="M234.653,242.106a9.813,9.813,0,0,0,4.741.377" transform="translate(-155.636 -163.886)" fill="none" stroke="#d9d9d9" stroke-linecap="round" stroke-linejoin="round" stroke-width="2" style="mix-blend-mode: multiply;isolation: isolate"/>
        <path id="Trazado_151874" data-name="Trazado 151874" d="M195.491,211.142a53.5,53.5,0,0,0,18.767-25.091,32.135,32.135,0,0,0,22.825,8.273,9.624,9.624,0,0,1-3.8-3.666c7.937,1.877,14.76,6.693,19.989,12.952,2.123,2.543,3.923,5.371,6.325,7.653s5.609,4.012,8.9,3.657c-2.053-8.736-4.053-17.767-7.343-26.117-2.02-5.125-4.4-10.349-8.621-13.894-5.248-4.412-12.574-5.531-19.411-5.03a46.7,46.7,0,0,0-20.733,6.531A44.588,44.588,0,0,0,193.817,199a16.728,16.728,0,0,0-1.265,6.425A7.653,7.653,0,0,0,195.491,211.142Z" transform="translate(-148.924 -152.357)" fill="#12263f"/>
        <path id="Trazado_151875" data-name="Trazado 151875" d="M206.367,225.211a2.313,2.313,0,1,1-2.313-2.313A2.313,2.313,0,0,1,206.367,225.211Z" transform="translate(-150.39 -160.824)" fill="#db8804"/>
        <path id="Trazado_151876" data-name="Trazado 151876" d="M272.235,225.211a2.313,2.313,0,1,1-2.313-2.313A2.313,2.313,0,0,1,272.235,225.211Z" transform="translate(-160.889 -160.824)" fill="#db8804"/>
        <path id="Trazado_151877" data-name="Trazado 151877" d="M221.011,205.739a2.314,2.314,0,0,0-1.946,1.681l1.946,1.946-1.946,1.947a2.314,2.314,0,0,0,1.946,1.681c1.278,0,2.313-1.624,2.313-3.628S222.289,205.739,221.011,205.739Z" transform="translate(-153.151 -158.089)" fill="#453e18"/>
        <path id="Trazado_151878" data-name="Trazado 151878" d="M253.154,205.739a2.313,2.313,0,0,0-1.946,1.681l1.946,1.946-1.946,1.947a2.313,2.313,0,0,0,1.946,1.681c1.278,0,2.313-1.624,2.313-3.628S254.432,205.739,253.154,205.739Z" transform="translate(-158.274 -158.089)" fill="#453e18"/>
        <path id="Trazado_151879" data-name="Trazado 151879" d="M201.981,194.425a25.62,25.62,0,0,1,1.116-11.252,27.8,27.8,0,0,1,5.9-10.01,28.346,28.346,0,0,1,9.607-6.875,29.052,29.052,0,0,1,23.314-.005,28.336,28.336,0,0,1,9.609,6.875,27.806,27.806,0,0,1,5.9,10.013,25.594,25.594,0,0,1,1.11,11.255,30.477,30.477,0,0,0-9.553-18.727,27.82,27.82,0,0,0-37.459-.005A30.449,30.449,0,0,0,201.981,194.425Z" transform="translate(-150.395 -151.412)" fill="#db8804"/>
        <g id="Grupo_107080" data-name="Grupo 107080" transform="translate(17.501 105.771)">
          <path id="Trazado_151880" data-name="Trazado 151880" d="M270.424,277.344c-3.578-.894-7.264-1.341-10.839-2.223a841.5,841.5,0,0,0-15.918,105.366l41.944-.614a18.021,18.021,0,0,0,17.757-18.019V319.99a43.5,43.5,0,0,0-32.944-42.647Z" transform="translate(-174.573 -274.919)" fill="#1d272b"/>
          <path id="Trazado_151881" data-name="Trazado 151881" d="M206.053,274.881c-3.821,1.024-7.791,1.464-11.634,2.424a43.5,43.5,0,0,0-32.944,42.647V381.46l60.551-.886A841.515,841.515,0,0,0,206.053,274.881Z" transform="translate(-161.472 -274.881)" fill="#1d272b"/>
        </g>
        <path id="Trazado_151882" data-name="Trazado 151882" d="M198.418,277.446c-1.3.326-2.591.721-3.858,1.169q-4.384,12.46-8,25.092c4.576,2.641,9,5.93,13.979,8.018-1.8,4.383-3.719,9.234-5.515,13.617a412.278,412.278,0,0,1,23.459,55.463l7.54-.091a704.065,704.065,0,0,0-19.206-104.949C204.021,276.33,201.187,276.754,198.418,277.446Z" transform="translate(-147.97 -169.251)" fill="#009fcf" opacity="0.18" style="mix-blend-mode: multiply;isolation: isolate"/>
        <path id="Trazado_151883" data-name="Trazado 151883" d="M274.7,325.357c-1.756-4.383-3.636-9.234-5.393-13.617,4.87-2.088,9.194-5.377,13.669-8.018q-3.464-12.443-7.692-24.723a42.549,42.549,0,0,0-4.862-1.538c-2.64-.66-5.34-1.078-8.01-1.6A718.521,718.521,0,0,0,243.667,380.6l8.207-.12A417.076,417.076,0,0,1,274.7,325.357Z" transform="translate(-157.072 -169.265)" fill="#009fcf" opacity="0.18" style="mix-blend-mode: multiply;isolation: isolate"/>
        <path id="Trazado_151884" data-name="Trazado 151884" d="M211.373,274.881c-3.105.832-6.307,1.282-9.461,1.935q-3.894,13.276-7.061,26.751c3.769,2.641,7.411,5.93,11.511,8.018-1.479,4.383-3.062,9.234-4.542,13.617a464.185,464.185,0,0,1,19.316,55.463l6.209-.091A841.515,841.515,0,0,0,211.373,274.881Z" transform="translate(-149.292 -169.11)" fill="#868695"/>
        <path id="Trazado_151885" data-name="Trazado 151885" d="M269.816,277.208c-3.388-.8-6.857-1.255-10.231-2.087a841.5,841.5,0,0,0-15.918,105.366l6.906-.1A463.885,463.885,0,0,1,269.8,325.24c-1.479-4.383-3.062-9.234-4.541-13.617,4.1-2.088,7.742-5.377,11.511-8.018Q273.656,290.315,269.816,277.208Z" transform="translate(-157.072 -169.148)" fill="#868695"/>
        <g id="Grupo_107084" data-name="Grupo 107084" transform="translate(62.869 103.441)">
          <g id="Grupo_107081" data-name="Grupo 107081">
            <path id="Trazado_151886" data-name="Trazado 151886" d="M216.824,274.875a1.393,1.393,0,0,1-.975-.4,2.02,2.02,0,0,1-.176-.212,1.2,1.2,0,0,1-.119-.24,1.375,1.375,0,0,1-.083-.258,1.443,1.443,0,0,1-.028-.266,1.469,1.469,0,0,1,.028-.277,1.389,1.389,0,0,1,.083-.257,1.182,1.182,0,0,1,.119-.24,1.864,1.864,0,0,1,.176-.212,1.439,1.439,0,0,1,1.242-.378,1.236,1.236,0,0,1,.258.083,1,1,0,0,1,.239.129,1.26,1.26,0,0,1,.212.166,1.771,1.771,0,0,1,.175.212,1.809,1.809,0,0,1,.129.24c.028.082.055.175.074.257a1.4,1.4,0,0,1,.027.277,1.373,1.373,0,0,1-.027.266,2.634,2.634,0,0,1-.074.258,1.861,1.861,0,0,1-.129.24,1.912,1.912,0,0,1-.175.212.914.914,0,0,1-.212.166.94.94,0,0,1-.239.129,1.188,1.188,0,0,1-.258.083A1.243,1.243,0,0,1,216.824,274.875Z" transform="translate(-215.443 -272.109)" fill="#db8804"/>
          </g>
          <g id="Grupo_107082" data-name="Grupo 107082" transform="translate(1.301 2.063)">
            <path id="Trazado_151887" data-name="Trazado 151887" d="M233.11,283.2h0a1.377,1.377,0,0,1-1.317-1.233h0a1.388,1.388,0,0,1-1.491,1.013h-.009a1.383,1.383,0,0,1-1.216-1.326h0a1.387,1.387,0,0,1-1.565.9h0a1.393,1.393,0,0,1-1.123-1.427h0a1.375,1.375,0,0,1-1.657.755h0a1.369,1.369,0,0,1-.958-1.565h0a1.386,1.386,0,0,1-1.777.515h0a1.387,1.387,0,0,1-.69-1.731h0a1.39,1.39,0,0,1-1.869.156h0a1.381,1.381,0,0,1-.3-1.859h0a1.386,1.386,0,0,1-1.87-.3h0a1.391,1.391,0,0,1,.258-1.943h0a1.387,1.387,0,0,1,1.933.258h.009a1.4,1.4,0,0,1,.046,1.611h0a1.4,1.4,0,0,1,1.621.055h0a1.388,1.388,0,0,1,.442,1.574h0a1.373,1.373,0,0,1,1.611-.3h0a1.373,1.373,0,0,1,.765,1.491h0a1.374,1.374,0,0,1,1.574-.6h0a1.372,1.372,0,0,1,.975,1.39h0a1.393,1.393,0,0,1,1.52-.792h0a1.375,1.375,0,0,1,1.123,1.317h0a1.389,1.389,0,0,1,1.464-.92h0a1.378,1.378,0,0,1,1.215,1.224h0a1.384,1.384,0,0,1,1.39-1.022h0a1.378,1.378,0,0,1,1.3,1.124h0a1.392,1.392,0,0,1,1.3-1.132h0a1.39,1.39,0,0,1,1.39,1h0a1.379,1.379,0,0,1,1.179-1.243h0a1.386,1.386,0,0,1,1.482.857h0a1.368,1.368,0,0,1,1.041-1.353h0a1.382,1.382,0,0,1,1.556.69h0a1.384,1.384,0,0,1,.875-1.454h0a1.386,1.386,0,0,1,1.629.488h0a1.38,1.38,0,0,1,.691-1.548h0a1.37,1.37,0,0,1,1.666.3h0a1.376,1.376,0,0,1,.488-1.621h0a1.368,1.368,0,0,1,1.685.065h0a1.387,1.387,0,0,1,.258-1.666h0a1.381,1.381,0,0,1,1.952.045h0a1.373,1.373,0,0,1-.046,1.952h0a1.379,1.379,0,0,1-1.833.065h0a1.379,1.379,0,0,1-.414,1.786h0a1.384,1.384,0,0,1-1.823-.193h0a1.371,1.371,0,0,1-.636,1.712h0a1.377,1.377,0,0,1-1.777-.424h0a1.391,1.391,0,0,1-.847,1.621h0a1.39,1.39,0,0,1-1.713-.635h0a1.382,1.382,0,0,1-1.031,1.5h0a1.375,1.375,0,0,1-1.621-.828h0a1.4,1.4,0,0,1-1.188,1.381h0a1.375,1.375,0,0,1-1.528-.994h0a1.377,1.377,0,0,1-1.308,1.261h0a1.394,1.394,0,0,1-1.427-1.123h0a1.375,1.375,0,0,1-1.353,1.132h-.055Z" transform="translate(-216.99 -274.564)" fill="#db8804"/>
          </g>
          <g id="Grupo_107083" data-name="Grupo 107083" transform="translate(35.466 0.051)">
            <path id="Trazado_151888" data-name="Trazado 151888" d="M259.015,274.914a1.4,1.4,0,0,1-.975-.405,1.376,1.376,0,0,1,0-1.952,1.423,1.423,0,0,1,1.951,0,1.381,1.381,0,0,1-.976,2.357Z" transform="translate(-257.634 -272.169)" fill="#db8804"/>
          </g>
        </g>
        <g id="Grupo_107085" data-name="Grupo 107085" transform="translate(52.455 56.046)">
          <path id="Trazado_151889" data-name="Trazado 151889" d="M223.62,239.84h-.045a47.046,47.046,0,0,1-7.954-.924,16.116,16.116,0,0,1-7.343-3.618,16.438,16.438,0,0,1-4.644-8.936,46.9,46.9,0,0,1-.555-9.887.782.782,0,0,1,.769-.747.758.758,0,0,1,.747.769,45.837,45.837,0,0,0,.526,9.57,14.948,14.948,0,0,0,4.18,8.112,14.622,14.622,0,0,0,6.664,3.26,45.765,45.765,0,0,0,7.7.887.758.758,0,0,1-.043,1.516Z" transform="translate(-203.054 -215.727)" fill="#1d272b"/>
        </g>
        <path id="Trazado_151890" data-name="Trazado 151890" d="M229.075,243.052c0,1.135-1.279,2.055-2.856,2.055s-2.856-.92-2.856-2.055S224.643,241,226.22,241,229.075,241.916,229.075,243.052Z" transform="translate(-153.836 -163.709)" fill="#006385"/>
        <path id="Trazado_151891" data-name="Trazado 151891" d="M169.246,295.218c-8.594,8.828-14.506,19.979-18.641,31.585s-6.584,23.731-9.02,35.808c-.7,3.474-1.4,7.091-.522,10.524,1.8,7.038,9.572,10.883,16.787,11.726s14.6-.367,21.741.97C184.9,355.816,182.687,322.577,169.246,295.218Z" transform="translate(-140.653 -172.351)" fill="#1d272b"/>
        <path id="Trazado_151892" data-name="Trazado 151892" d="M203.742,383.279a90.6,90.6,0,0,1,16.129-3.666c5.493-.558,11.212-.066,16.189,2.328s9.113,6.872,10.245,12.276c.361,1.722-2.955,2.183-4.645,2.667a15.837,15.837,0,0,1-5.243.293l-17.56-.979c-4.18-.233-8.739.794-12.244-1.5a8.043,8.043,0,0,1-3.209-5.212C202.987,387.437,203.61,385.371,203.742,383.279Z" transform="translate(-150.632 -185.77)" fill="#ffc582"/>
        <path id="Trazado_151894" data-name="Trazado 151894" d="M201.828,367.111a49.335,49.335,0,0,0-17.523-5.059,153.191,153.191,0,0,0,.614-26.335c2.231,7.064,3.843,14.316,3.748,21.724C193.845,359.326,198.957,362.407,201.828,367.111Z" transform="translate(-147.611 -178.806)" fill="#009fcf" opacity="0.18" style="mix-blend-mode: multiply;isolation: isolate"/>
      </g>
      <g id="Grupo_107088" data-name="Grupo 107088" transform="translate(94.664 175.794)">
        <path id="Rectángulo_34155" data-name="Rectángulo 34155" d="M0,0H174.672a0,0,0,0,1,0,0V.778a4.187,4.187,0,0,1-4.187,4.187H4.187A4.187,4.187,0,0,1,0,.778V0A0,0,0,0,1,0,0Z" transform="translate(0 74.433)" fill="#e0e8ff"/>
        <path id="Rectángulo_34156" data-name="Rectángulo 34156" d="M0,0H174.672a0,0,0,0,1,0,0V.778a4.187,4.187,0,0,1-4.187,4.187H4.187A4.187,4.187,0,0,1,0,.778V0A0,0,0,0,1,0,0Z" transform="translate(0 74.433)" fill="url(#linear-gradient)" style="mix-blend-mode: multiply;isolation: isolate"/>
        <path id="Trazado_151895" data-name="Trazado 151895" d="M238.572,396.857v-1.445H177.721v1.445a3.519,3.519,0,0,0,3.52,3.52h53.812A3.519,3.519,0,0,0,238.572,396.857Z" transform="translate(-177.721 -320.978)" fill="#d0d8ed" style="mix-blend-mode: multiply;isolation: isolate"/>
        <g id="Grupo_107087" data-name="Grupo 107087" transform="translate(60.851)">
          <path id="Trazado_151896" data-name="Trazado 151896" d="M363.931,381.3H250.11l25.381-69.732a7.436,7.436,0,0,1,6.412-4.7H386.321c2.6,0,3.935,2.1,2.99,4.7Z" transform="translate(-250.11 -306.865)" fill="url(#linear-gradient)"/>
          <path id="Trazado_151897" data-name="Trazado 151897" d="M339.76,349.752c-1.469,4.037-5.933,7.31-9.971,7.31s-6.119-3.273-4.649-7.31,5.934-7.31,9.97-7.31S341.229,345.715,339.76,349.752Z" transform="translate(-261.994 -312.536)" fill="#1d272b"/>
        </g>
        <path id="Trazado_151898" data-name="Trazado 151898" d="M234.68,399.113h-3.95a.9.9,0,0,1-.9-.9h0a.9.9,0,0,1,.9-.9h3.95a.9.9,0,0,1,.9.9h0A.9.9,0,0,1,234.68,399.113Z" transform="translate(-186.026 -321.28)" fill="#d0d8ed" style="mix-blend-mode: multiply;isolation: isolate"/>
        <path id="Trazado_151899" data-name="Trazado 151899" d="M225.148,399.113H221.2a.9.9,0,0,1-.9-.9h0a.9.9,0,0,1,.9-.9h3.95a.9.9,0,0,1,.9.9h0A.9.9,0,0,1,225.148,399.113Z" transform="translate(-184.506 -321.28)" fill="#d0d8ed" style="mix-blend-mode: multiply;isolation: isolate"/>
        <path id="Trazado_151900" data-name="Trazado 151900" d="M215.615,399.113h-3.95a.9.9,0,0,1-.9-.9h0a.9.9,0,0,1,.9-.9h3.95a.9.9,0,0,1,.9.9h0A.9.9,0,0,1,215.615,399.113Z" transform="translate(-182.987 -321.28)" fill="#d0d8ed" style="mix-blend-mode: multiply;isolation: isolate"/>
      </g>
      <g id="Grupo_107090" data-name="Grupo 107090" transform="translate(45.451 220.409)">
        <g id="Grupo_107089" data-name="Grupo 107089" transform="translate(21.495 1.273)">
          <path id="Trazado_151901" data-name="Trazado 151901" d="M156.755,385.469a12.008,12.008,0,1,1,12.007-12.008A12.022,12.022,0,0,1,156.755,385.469Zm0-20.263a8.255,8.255,0,1,0,8.254,8.255A8.264,8.264,0,0,0,156.755,365.206Z" transform="translate(-144.747 -361.453)" fill="#d6d6d6"/>
        </g>
        <path id="Trazado_151902" data-name="Trazado 151902" d="M119.176,384.393a16.032,16.032,0,0,0,.574,4.264,8.351,8.351,0,0,0,8.076,6.065h14.743a8.349,8.349,0,0,0,8.075-6.065,16,16,0,0,0,.575-4.264V359.939H119.176Z" transform="translate(-119.176 -359.939)" fill="#fff"/>
        <path id="Trazado_151903" data-name="Trazado 151903" d="M145.434,359.939v24.454a16,16,0,0,1-.575,4.264,8.349,8.349,0,0,1-8.075,6.065h8.592a8.349,8.349,0,0,0,8.075-6.065,16,16,0,0,0,.575-4.264V359.939Z" transform="translate(-121.982 -359.939)" opacity="0.1"/>
      </g>
      <path id="Trazado_151904" data-name="Trazado 151904" d="M324.419,144.807a19.5,19.5,0,0,0-.124-2.126l3.03-1.307a22.257,22.257,0,0,0-.7-3.08l-3.309.137a19.106,19.106,0,0,0-1.841-3.821l2.168-2.5a22.557,22.557,0,0,0-1.972-2.471l-2.9,1.549a19.3,19.3,0,0,0-3.331-2.637l.869-3.19a22.309,22.309,0,0,0-2.847-1.374l-1.953,2.669a19.076,19.076,0,0,0-4.138-.952l-.6-3.238c-.524-.037-1.049-.062-1.582-.062s-1.058.025-1.581.062l-.6,3.238a19.057,19.057,0,0,0-4.137.952l-1.953-2.669a22.256,22.256,0,0,0-2.847,1.374l.868,3.19a19.3,19.3,0,0,0-3.331,2.637l-2.9-1.549a22.452,22.452,0,0,0-1.972,2.471l2.168,2.5a19.154,19.154,0,0,0-1.842,3.821l-3.309-.137a22.38,22.38,0,0,0-.7,3.08l3.03,1.307a18.342,18.342,0,0,0,0,4.251l-3.03,1.307a22.392,22.392,0,0,0,.7,3.081l3.309-.138A19.139,19.139,0,0,0,288.9,155l-2.168,2.5a22.449,22.449,0,0,0,1.972,2.471l2.9-1.549a19.3,19.3,0,0,0,3.331,2.637l-.868,3.19a22.256,22.256,0,0,0,2.847,1.374l1.953-2.669a19.105,19.105,0,0,0,4.137.952l.6,3.239c.523.037,1.049.062,1.581.062s1.058-.025,1.582-.062l.6-3.239a19.124,19.124,0,0,0,4.138-.952l1.953,2.669a22.309,22.309,0,0,0,2.847-1.374l-.869-3.19a19.344,19.344,0,0,0,3.331-2.637l2.9,1.549a22.554,22.554,0,0,0,1.972-2.471l-2.168-2.5a19.091,19.091,0,0,0,1.841-3.821l3.309.138a22.269,22.269,0,0,0,.7-3.081l-3.03-1.307A19.5,19.5,0,0,0,324.419,144.807Zm-19.233,13.605a13.605,13.605,0,1,1,13.606-13.605A13.605,13.605,0,0,1,305.186,158.413Z" transform="translate(-99.844 -101.67)" fill="#e0e8ff" style="mix-blend-mode: screen;isolation: isolate"/>
      <path id="Trazado_151906" data-name="Trazado 151906" d="M410.888,277.1a11.924,11.924,0,0,0-.076-1.3l1.859-.8a13.543,13.543,0,0,0-.431-1.889l-2.029.084a11.7,11.7,0,0,0-1.129-2.344l1.33-1.532a13.851,13.851,0,0,0-1.21-1.516l-1.78.95a11.852,11.852,0,0,0-2.043-1.617l.533-1.957a13.689,13.689,0,0,0-1.747-.842l-1.2,1.637a11.721,11.721,0,0,0-2.538-.583l-.367-1.986c-.321-.023-.643-.038-.97-.038s-.649.015-.97.038l-.367,1.986a11.722,11.722,0,0,0-2.538.583l-1.2-1.637a13.626,13.626,0,0,0-1.746.842l.533,1.957a11.826,11.826,0,0,0-2.044,1.617l-1.78-.95a13.66,13.66,0,0,0-1.21,1.516l1.33,1.532a11.748,11.748,0,0,0-1.13,2.344l-2.029-.084a13.661,13.661,0,0,0-.431,1.889l1.859.8a11.272,11.272,0,0,0,0,2.608l-1.859.8a13.66,13.66,0,0,0,.431,1.889l2.029-.084a11.748,11.748,0,0,0,1.13,2.344l-1.33,1.532a13.737,13.737,0,0,0,1.21,1.516l1.78-.95a11.857,11.857,0,0,0,2.044,1.617l-.533,1.956a13.634,13.634,0,0,0,1.746.843l1.2-1.638a11.673,11.673,0,0,0,2.538.584l.367,1.986c.321.023.644.038.97.038s.649-.015.97-.038l.367-1.986a11.672,11.672,0,0,0,2.538-.584l1.2,1.638a13.7,13.7,0,0,0,1.747-.843l-.533-1.956a11.852,11.852,0,0,0,2.043-1.617l1.78.95a13.93,13.93,0,0,0,1.21-1.516l-1.33-1.532a11.7,11.7,0,0,0,1.129-2.344l2.029.084a13.542,13.542,0,0,0,.431-1.889l-1.859-.8A11.924,11.924,0,0,0,410.888,277.1Zm-11.8,8.345a8.345,8.345,0,1,1,8.346-8.345A8.344,8.344,0,0,1,399.091,285.443Z" transform="translate(-116.176 -124.137)" fill="#e0e8ff" style="mix-blend-mode: screen;isolation: isolate"/>
      <g id="Grupo_107091" data-name="Grupo 107091" transform="translate(204.452 116.429)">
        <path id="Trazado_151907" data-name="Trazado 151907" d="M346.157,236.244H316.908a8.584,8.584,0,0,0-8.583,8.583v13.979a8.583,8.583,0,0,0,8.583,8.583h.983L315.9,270.2a1.119,1.119,0,0,0,1.35,1.675l9.327-3.952a6.752,6.752,0,0,1,2.634-.535h16.943a8.583,8.583,0,0,0,8.583-8.583V244.827A8.583,8.583,0,0,0,346.157,236.244Z" transform="translate(-308.325 -236.244)" fill="#d93328"/>
        <path id="Trazado_151908" data-name="Trazado 151908" d="M349.689,248.087H315.043a1.489,1.489,0,0,1-1.489-1.489h0a1.489,1.489,0,0,1,1.489-1.489h34.647a1.489,1.489,0,0,1,1.489,1.489h0A1.489,1.489,0,0,1,349.689,248.087Z" transform="translate(-309.158 -237.657)" fill="#ededed"/>
        <path id="Trazado_151909" data-name="Trazado 151909" d="M349.689,255.976H315.043a1.489,1.489,0,0,1-1.489-1.489h0A1.489,1.489,0,0,1,315.043,253h34.647a1.489,1.489,0,0,1,1.489,1.489h0A1.489,1.489,0,0,1,349.689,255.976Z" transform="translate(-309.158 -238.915)" fill="#ededed"/>
        <path id="Trazado_151910" data-name="Trazado 151910" d="M334.52,263.864H315.043a1.489,1.489,0,0,1-1.489-1.489h0a1.489,1.489,0,0,1,1.489-1.489H334.52a1.489,1.489,0,0,1,1.489,1.489h0A1.489,1.489,0,0,1,334.52,263.864Z" transform="translate(-309.158 -240.172)" fill="#ededed"/>
      </g>
      <g id="Grupo_107096" data-name="Grupo 107096" transform="translate(243.551 32.847)">
        <rect id="Rectángulo_34157" data-name="Rectángulo 34157" width="62.039" height="62.039" rx="20.34" fill="#008f85"/>
        <g id="Grupo_107095" data-name="Grupo 107095" transform="translate(9.095 7.795)">
          <g id="Grupo_107094" data-name="Grupo 107094">
            <g id="Grupo_107092" data-name="Grupo 107092" transform="translate(0 2.61)">
              <path id="Trazado_151911" data-name="Trazado 151911" d="M371.129,185.616a21.929,21.929,0,0,1,32.9-29.007,1.75,1.75,0,0,1-2.626,2.315,18.418,18.418,0,1,0,4.185,8.252,1.75,1.75,0,1,1,3.42-.745,21.932,21.932,0,0,1-37.875,19.184Z" transform="translate(-365.657 -149.193)" fill="#fff"/>
            </g>
            <g id="Grupo_107093" data-name="Grupo 107093" transform="translate(25.873)">
              <path id="Trazado_151912" data-name="Trazado 151912" d="M396.872,159.137a1.751,1.751,0,0,1,1.179-2.9l7.668-.593-.593-7.668a1.75,1.75,0,0,1,3.49-.271l.728,9.414a1.75,1.75,0,0,1-1.61,1.88l-9.414.728A1.752,1.752,0,0,1,396.872,159.137Z" transform="translate(-396.436 -146.088)" fill="#fff"/>
            </g>
          </g>
          <text id="_24_7" data-name="24/7" transform="translate(7.565 27.876)" fill="#fff" font-size="11" font-family="Poppins-Bold, Poppins" font-weight="700"><tspan x="0" y="0">24/7</tspan></text>
        </g>
      </g>
    </g>
    <g id="Grupo_107098" data-name="Grupo 107098" transform="translate(51.902 89.432)" style="mix-blend-mode: multiply;isolation: isolate">
      <circle id="Elipse_4262" data-name="Elipse 4262" cx="2.826" cy="2.826" r="2.826" transform="translate(19.746 84.061)" fill="#a4a4b4"/>
      <circle id="Elipse_4263" data-name="Elipse 4263" cx="1.808" cy="1.808" r="1.808" transform="translate(0 155.241)" fill="#a4a4b4"/>
      <path id="Trazado_151913" data-name="Trazado 151913" d="M75.27,374.415a1.352,1.352,0,1,1-1.352-1.352A1.352,1.352,0,0,1,75.27,374.415Z" transform="translate(-55.524 -135.726)" fill="#a4a4b4"/>
      <circle id="Elipse_4264" data-name="Elipse 4264" cx="1.117" cy="1.117" r="1.117" transform="translate(24.08 66.428) rotate(-89.032)" fill="#a4a4b4"/>
      <circle id="Elipse_4265" data-name="Elipse 4265" cx="1.942" cy="1.942" r="1.942" transform="translate(94.097)" fill="#a4a4b4"/>
      <path id="Trazado_151914" data-name="Trazado 151914" d="M249.257,92.974a2.25,2.25,0,1,1-2.249-2.249A2.25,2.25,0,0,1,249.257,92.974Z" transform="translate(-82.969 -90.725)" fill="#a4a4b4"/>
      <path id="Trazado_151915" data-name="Trazado 151915" d="M266.072,118.8a2.576,2.576,0,1,1-2.576-2.576A2.576,2.576,0,0,1,266.072,118.8Z" transform="translate(-85.545 -94.79)" fill="#a4a4b4"/>
      <circle id="Elipse_4266" data-name="Elipse 4266" cx="2.821" cy="2.821" r="2.821" transform="translate(245.978 15.797)" fill="#a4a4b4"/>
      <path id="Trazado_151916" data-name="Trazado 151916" d="M310.6,98.876a1.137,1.137,0,1,1-1.137-1.137A1.138,1.138,0,0,1,310.6,98.876Z" transform="translate(-93.101 -91.843)" fill="#a4a4b4"/>
      <path id="Trazado_151917" data-name="Trazado 151917" d="M384.817,121.125a1.833,1.833,0,1,1-1.833-1.833A1.833,1.833,0,0,1,384.817,121.125Z" transform="translate(-104.709 -95.278)" fill="#a4a4b4"/>
      <path id="Trazado_151918" data-name="Trazado 151918" d="M442.835,161.874a1.983,1.983,0,1,1-1.983-1.982A1.983,1.983,0,0,1,442.835,161.874Z" transform="translate(-113.908 -101.749)" fill="#a4a4b4"/>
      <path id="Trazado_151919" data-name="Trazado 151919" d="M440.405,220.293a3.117,3.117,0,1,1-3.117-3.117A3.117,3.117,0,0,1,440.405,220.293Z" transform="translate(-113.16 -110.879)" fill="#a4a4b4"/>
      <circle id="Elipse_4267" data-name="Elipse 4267" cx="1.564" cy="1.564" r="1.564" transform="translate(345.836 132.756)" fill="#a4a4b4"/>
      <circle id="Elipse_4268" data-name="Elipse 4268" cx="2.325" cy="2.325" r="2.325" transform="translate(316.362 134.32)" fill="#a4a4b4"/>
      <circle id="Elipse_4269" data-name="Elipse 4269" cx="2.12" cy="2.12" r="2.12" transform="translate(332.296 229.036)" fill="#a4a4b4"/>
      <circle id="Elipse_4270" data-name="Elipse 4270" cx="2.966" cy="2.966" r="2.966" transform="translate(314.242 243.697)" fill="#a4a4b4"/>
    </g>
    <g id="Grupo_107101" data-name="Grupo 107101" transform="translate(80.345 123.503)">
      <rect id="Rectángulo_34158" data-name="Rectángulo 34158" width="73.29" height="52.109" rx="17.084" transform="translate(0)" fill="#008f85"/>
      <g id="Grupo_107100" data-name="Grupo 107100" transform="translate(7.097 8.597)">
        <circle id="Elipse_4271" data-name="Elipse 4271" cx="6.104" cy="6.104" r="6.104" transform="translate(0 10.991) rotate(-64.201)" fill="#fff"/>
        <path id="Trazado_151927" data-name="Trazado 151927" d="M149.795,147.673H118.914a1.877,1.877,0,0,1-1.877-1.877h0a1.877,1.877,0,0,1,1.877-1.878h30.881a1.878,1.878,0,0,1,1.877,1.878h0A1.877,1.877,0,0,1,149.795,147.673Z" transform="translate(-98.153 -141.87)" fill="#fff"/>
        <path id="Trazado_151928" data-name="Trazado 151928" d="M149.795,157.824H118.914a1.876,1.876,0,0,1-1.877-1.877h0a1.877,1.877,0,0,1,1.877-1.877h30.881a1.877,1.877,0,0,1,1.877,1.877h0A1.877,1.877,0,0,1,149.795,157.824Z" transform="translate(-98.153 -143.488)" fill="#fff"/>
        <circle id="Elipse_4272" data-name="Elipse 4272" cx="6.104" cy="6.104" r="6.104" transform="translate(0.34 30.357) rotate(-70.183)" fill="#fff"/>
        <path id="Trazado_151929" data-name="Trazado 151929" d="M149.795,169.718H118.914a1.877,1.877,0,0,1-1.877-1.877h0a1.876,1.876,0,0,1,1.877-1.877h30.881a1.877,1.877,0,0,1,1.877,1.877h0A1.877,1.877,0,0,1,149.795,169.718Z" transform="translate(-98.153 -145.384)" fill="#fff"/>
        <path id="Trazado_151930" data-name="Trazado 151930" d="M149.795,179.87H118.914a1.877,1.877,0,0,1-1.877-1.878h0a1.877,1.877,0,0,1,1.877-1.877h30.881a1.877,1.877,0,0,1,1.877,1.877h0A1.878,1.878,0,0,1,149.795,179.87Z" transform="translate(-98.153 -147.002)" fill="#fff"/>
      </g>
    </g>
    <g id="Grupo_107102" data-name="Grupo 107102" transform="translate(69.89 251.265)">
      <rect id="Rectángulo_34159" data-name="Rectángulo 34159" width="48.567" height="48.567" rx="15.923" transform="translate(0)" fill="#008f85"/>
      <text id="_" data-name="?" transform="translate(15.71 37.158)" fill="#fff" font-size="34" font-family="Poppins-Bold, Poppins" font-weight="700"><tspan x="0" y="0">?</tspan></text>
    </g>
    <g id="Grupo_107104" data-name="Grupo 107104" transform="translate(181.396 82.615)">
      <rect id="Rectángulo_34160" data-name="Rectángulo 34160" width="62.039" height="45.227" rx="20.34" fill="#008f85"/>
      <g id="Grupo_107103" data-name="Grupo 107103" transform="translate(13.938 18.075)">
        <path id="Trazado_151931" data-name="Trazado 151931" d="M261.841,108.656a4.538,4.538,0,1,1-4.538-4.538A4.539,4.539,0,0,1,261.841,108.656Z" transform="translate(-227.678 -104.118)" fill="#fff"/>
        <circle id="Elipse_4273" data-name="Elipse 4273" cx="4.538" cy="4.538" r="4.538" transform="translate(12.543)" fill="#fff"/>
        <circle id="Elipse_4274" data-name="Elipse 4274" cx="4.538" cy="4.538" r="4.538" fill="#fff"/>
      </g>
    </g>
  </g>
</svg>
