<svg xmlns="http://www.w3.org/2000/svg" xmlns:xlink="http://www.w3.org/1999/xlink" width="236.672" height="183.312" viewBox="0 0 236.672 183.312">
  <defs>
    <linearGradient id="linear-gradient" x1="0.5" x2="0.5" y2="1" gradientUnits="objectBoundingBox">
      <stop offset="0" stop-color="#fff"/>
      <stop offset="1" stop-color="#f8f8f8"/>
    </linearGradient>
    <filter id="Rectángulo_29523" x="0" y="0" width="236.672" height="183.312" filterUnits="userSpaceOnUse">
      <feOffset dy="3" input="SourceAlpha"/>
      <feGaussianBlur stdDeviation="3" result="blur"/>
      <feFlood flood-opacity="0.161"/>
      <feComposite operator="in" in2="blur"/>
      <feComposite in="SourceGraphic"/>
    </filter>
    <radialGradient id="radial-gradient" cx="0.076" cy="0.019" r="1.465" gradientTransform="translate(0.001)" gradientUnits="objectBoundingBox">
      <stop offset="0" stop-color="#f6f6f7"/>
      <stop offset="0.477" stop-color="#f9f9fa"/>
      <stop offset="0.715" stop-color="#fff"/>
    </radialGradient>
  </defs>
  <g id="img12" transform="translate(-270.076 -2914.593)">
    <g id="Grupo_61744" data-name="Grupo 61744" transform="translate(272 2913.391)">
      <g id="Grupo_57070" data-name="Grupo 57070" transform="translate(0 0)">
        <g transform="matrix(1, 0, 0, 1, -1.92, 1.2)" filter="url(#Rectángulo_29523)">
          <rect id="Rectángulo_29523-2" data-name="Rectángulo 29523" width="218.672" height="165.312" rx="10" transform="translate(9 6)" fill="url(#linear-gradient)"/>
        </g>
        <path id="Trazado_123976" data-name="Trazado 123976" d="M185.015,982.253H403.687v8.985H306.651l-12.736,8.61-13.7-8.8-95.2.187Z" transform="translate(-177.939 -975.05)" fill="#008f85"/>
        <path id="Trazado_123977" data-name="Trazado 123977" d="M271.948,988.712l-7.319,6.865a1.845,1.845,0,0,1-2.586.019l-7.739-7.079" transform="translate(-147.512 -976.938)" fill="none" stroke="#12263f" stroke-linecap="round" stroke-miterlimit="10" stroke-width="0.806"/>
        <path id="Trazado_160194" data-name="Trazado 160194" d="M-83.942-4.026a4.277,4.277,0,0,1-1.44,3.071A5.058,5.058,0,0,1-88.806.166,4.548,4.548,0,0,1-92.462-1.4a6.416,6.416,0,0,1-1.332-4.3v-.739A7.245,7.245,0,0,1-93.18-9.5a4.6,4.6,0,0,1,1.756-2.038,4.918,4.918,0,0,1,2.652-.71,4.927,4.927,0,0,1,3.37,1.121,4.6,4.6,0,0,1,1.478,3.146h-2.49a2.524,2.524,0,0,0-.652-1.7,2.413,2.413,0,0,0-1.706-.527,2.116,2.116,0,0,0-1.864.892,5,5,0,0,0-.635,2.768v.913a5.352,5.352,0,0,0,.594,2.864,2.077,2.077,0,0,0,1.872.9,2.458,2.458,0,0,0,1.722-.527,2.381,2.381,0,0,0,.652-1.631Zm1.1-.548a5.326,5.326,0,0,1,.515-2.382,3.768,3.768,0,0,1,1.482-1.619A4.323,4.323,0,0,1-78.6-9.147a4.09,4.09,0,0,1,2.968,1.112,4.464,4.464,0,0,1,1.282,3.021l.017.614a4.694,4.694,0,0,1-1.154,3.316,4.011,4.011,0,0,1-3.1,1.249,4.031,4.031,0,0,1-3.1-1.245,4.777,4.777,0,0,1-1.158-3.387Zm2.4.17a3.357,3.357,0,0,0,.481,1.958,1.588,1.588,0,0,0,1.378.678,1.592,1.592,0,0,0,1.361-.669,3.674,3.674,0,0,0,.49-2.141,3.324,3.324,0,0,0-.49-1.945,1.592,1.592,0,0,0-1.378-.69,1.566,1.566,0,0,0-1.361.686A3.736,3.736,0,0,0-80.439-4.4ZM-70.6-8.981l.075,1a3.156,3.156,0,0,1,2.582-1.17,2.4,2.4,0,0,1,2.382,1.37,3.084,3.084,0,0,1,2.7-1.37,2.679,2.679,0,0,1,2.175.851,3.911,3.911,0,0,1,.714,2.561V0h-2.407V-5.728a1.71,1.71,0,0,0-.3-1.116A1.324,1.324,0,0,0-63.738-7.2a1.5,1.5,0,0,0-1.494,1.029L-65.223,0h-2.4V-5.719a1.689,1.689,0,0,0-.307-1.129A1.337,1.337,0,0,0-68.975-7.2a1.555,1.555,0,0,0-1.478.847V0h-2.4V-8.981ZM-52.756-.913A3.008,3.008,0,0,1-55.213.166a2.837,2.837,0,0,1-2.2-.83A3.543,3.543,0,0,1-58.193-3.1V-8.981h2.4v5.809q0,1.4,1.278,1.4a1.732,1.732,0,0,0,1.677-.848V-8.981h2.407V0h-2.258Zm6.342-8.068.075,1.038a3.136,3.136,0,0,1,2.582-1.2,2.606,2.606,0,0,1,2.125.838A3.912,3.912,0,0,1-40.919-5.8V0h-2.4V-5.744a1.556,1.556,0,0,0-.332-1.108,1.486,1.486,0,0,0-1.1-.344,1.65,1.65,0,0,0-1.519.863V0h-2.4V-8.981ZM-36.569,0h-2.407V-8.981h2.407Zm-2.548-11.306a1.181,1.181,0,0,1,.361-.888,1.356,1.356,0,0,1,.984-.349,1.36,1.36,0,0,1,.979.349,1.175,1.175,0,0,1,.365.888,1.178,1.178,0,0,1-.369.9,1.363,1.363,0,0,1-.975.349,1.363,1.363,0,0,1-.975-.349A1.178,1.178,0,0,1-39.117-11.306Zm8.259,9.538a1.573,1.573,0,0,0,1.079-.365,1.28,1.28,0,0,0,.432-.971h2.25a3.077,3.077,0,0,1-.5,1.673A3.286,3.286,0,0,1-28.937-.253a4.2,4.2,0,0,1-1.88.419,3.9,3.9,0,0,1-3.038-1.224,4.845,4.845,0,0,1-1.112-3.383V-4.6a4.79,4.79,0,0,1,1.1-3.312,3.854,3.854,0,0,1,3.03-1.237,3.778,3.778,0,0,1,2.7.959A3.4,3.4,0,0,1-27.1-5.636h-2.25a1.648,1.648,0,0,0-.432-1.139,1.439,1.439,0,0,0-1.1-.438,1.445,1.445,0,0,0-1.266.611,3.541,3.541,0,0,0-.427,1.983v.249a3.586,3.586,0,0,0,.423,2A1.463,1.463,0,0,0-30.858-1.768ZM-20.524,0a2.664,2.664,0,0,1-.241-.805,2.9,2.9,0,0,1-2.266.971A3.189,3.189,0,0,1-25.218-.6a2.456,2.456,0,0,1-.867-1.926,2.538,2.538,0,0,1,1.058-2.191,5.222,5.222,0,0,1,3.059-.772h1.1V-6a1.48,1.48,0,0,0-.32-1,1.257,1.257,0,0,0-1.009-.374,1.429,1.429,0,0,0-.95.291.987.987,0,0,0-.344.8h-2.4A2.41,2.41,0,0,1-25.4-7.728,3.182,3.182,0,0,1-24.043-8.77a4.961,4.961,0,0,1,1.976-.378,3.92,3.92,0,0,1,2.635.834,2.918,2.918,0,0,1,.975,2.345v3.893A4.294,4.294,0,0,0-18.1-.141V0Zm-1.984-1.668a2.066,2.066,0,0,0,.979-.237,1.554,1.554,0,0,0,.664-.635V-4.084h-.9q-1.8,0-1.917,1.245l-.008.141a.96.96,0,0,0,.315.739A1.225,1.225,0,0,0-22.508-1.668Zm9.629-.1A1.573,1.573,0,0,0-11.8-2.133a1.28,1.28,0,0,0,.432-.971h2.25a3.077,3.077,0,0,1-.5,1.673A3.286,3.286,0,0,1-10.957-.253a4.2,4.2,0,0,1-1.88.419,3.9,3.9,0,0,1-3.038-1.224,4.845,4.845,0,0,1-1.112-3.383V-4.6a4.79,4.79,0,0,1,1.1-3.312,3.854,3.854,0,0,1,3.03-1.237,3.778,3.778,0,0,1,2.7.959A3.4,3.4,0,0,1-9.118-5.636h-2.25A1.648,1.648,0,0,0-11.8-6.775a1.439,1.439,0,0,0-1.1-.438,1.445,1.445,0,0,0-1.266.611,3.541,3.541,0,0,0-.427,1.983v.249a3.586,3.586,0,0,0,.423,2A1.463,1.463,0,0,0-12.879-1.768ZM-5.217,0H-7.624V-8.981h2.407ZM-7.765-11.306a1.181,1.181,0,0,1,.361-.888,1.356,1.356,0,0,1,.984-.349,1.36,1.36,0,0,1,.979.349,1.175,1.175,0,0,1,.365.888,1.178,1.178,0,0,1-.369.9,1.363,1.363,0,0,1-.975.349,1.363,1.363,0,0,1-.975-.349A1.178,1.178,0,0,1-7.765-11.306Zm4.15,6.732A5.327,5.327,0,0,1-3.1-6.956,3.768,3.768,0,0,1-1.619-8.575,4.323,4.323,0,0,1,.627-9.147,4.09,4.09,0,0,1,3.594-8.035,4.464,4.464,0,0,1,4.877-5.014l.017.614A4.694,4.694,0,0,1,3.74-1.083,4.011,4.011,0,0,1,.643.166a4.031,4.031,0,0,1-3.1-1.245A4.777,4.777,0,0,1-3.615-4.466Zm2.4.17A3.357,3.357,0,0,0-.735-2.446a1.588,1.588,0,0,0,1.378.678A1.592,1.592,0,0,0,2-2.437a3.674,3.674,0,0,0,.49-2.141A3.324,3.324,0,0,0,2-6.523a1.592,1.592,0,0,0-1.378-.69,1.566,1.566,0,0,0-1.361.686A3.735,3.735,0,0,0-1.216-4.4ZM1.1-12.75H3.715l-2.3,2.573H-.535ZM8.579-8.981l.075,1.038a3.136,3.136,0,0,1,2.582-1.2,2.606,2.606,0,0,1,2.125.838A3.912,3.912,0,0,1,14.074-5.8V0h-2.4V-5.744a1.556,1.556,0,0,0-.332-1.108,1.486,1.486,0,0,0-1.1-.344,1.65,1.65,0,0,0-1.519.863V0h-2.4V-8.981ZM23.479-3.4l1.66-5.586h2.573L24.1,1.395l-.2.473a2.738,2.738,0,0,1-2.656,1.76,3.775,3.775,0,0,1-1.062-.158V1.652l.365.008a1.973,1.973,0,0,0,1.017-.208,1.363,1.363,0,0,0,.527-.689l.282-.739L19.229-8.981H21.81ZM36.627-1.768a1.573,1.573,0,0,0,1.079-.365,1.28,1.28,0,0,0,.432-.971h2.25a3.077,3.077,0,0,1-.5,1.673A3.286,3.286,0,0,1,38.549-.253a4.2,4.2,0,0,1-1.88.419,3.9,3.9,0,0,1-3.038-1.224,4.845,4.845,0,0,1-1.112-3.383V-4.6a4.79,4.79,0,0,1,1.1-3.312,3.854,3.854,0,0,1,3.03-1.237,3.778,3.778,0,0,1,2.7.959,3.4,3.4,0,0,1,1.033,2.552h-2.25a1.648,1.648,0,0,0-.432-1.139,1.439,1.439,0,0,0-1.1-.438,1.445,1.445,0,0,0-1.266.611,3.541,3.541,0,0,0-.427,1.983v.249a3.586,3.586,0,0,0,.423,2A1.463,1.463,0,0,0,36.627-1.768Zm4.756-2.806A5.327,5.327,0,0,1,41.9-6.956,3.767,3.767,0,0,1,43.38-8.575a4.323,4.323,0,0,1,2.245-.573,4.09,4.09,0,0,1,2.968,1.112,4.464,4.464,0,0,1,1.282,3.021l.017.614a4.694,4.694,0,0,1-1.154,3.316,4.011,4.011,0,0,1-3.1,1.249,4.031,4.031,0,0,1-3.1-1.245,4.777,4.777,0,0,1-1.158-3.387Zm2.4.17a3.357,3.357,0,0,0,.481,1.958,1.588,1.588,0,0,0,1.378.678A1.592,1.592,0,0,0,47-2.437a3.674,3.674,0,0,0,.49-2.141A3.324,3.324,0,0,0,47-6.523a1.592,1.592,0,0,0-1.378-.69,1.566,1.566,0,0,0-1.361.686A3.735,3.735,0,0,0,43.782-4.4ZM56.416-6.732a6.517,6.517,0,0,0-.863-.066,1.757,1.757,0,0,0-1.785.921V0h-2.4V-8.981h2.266L53.7-7.911a2.223,2.223,0,0,1,2-1.237,2.514,2.514,0,0,1,.747.108Zm4.441-4.458v2.208h1.536v1.76H60.857v4.482a1.07,1.07,0,0,0,.191.714.959.959,0,0,0,.73.216,3.826,3.826,0,0,0,.706-.058V-.05a4.939,4.939,0,0,1-1.453.216,2.29,2.29,0,0,1-2.573-2.548V-7.222H57.147v-1.76h1.312v-2.208ZM67.863.166a4.409,4.409,0,0,1-3.217-1.212,4.308,4.308,0,0,1-1.241-3.229v-.232a5.426,5.426,0,0,1,.523-2.42A3.838,3.838,0,0,1,65.41-8.571,4.159,4.159,0,0,1,67.6-9.147a3.727,3.727,0,0,1,2.9,1.162,4.722,4.722,0,0,1,1.058,3.3v.979H65.838a2.229,2.229,0,0,0,.7,1.411,2.12,2.12,0,0,0,1.482.531,2.589,2.589,0,0,0,2.167-1l1.179,1.32A3.6,3.6,0,0,1,69.905-.261,4.793,4.793,0,0,1,67.863.166Zm-.274-7.379a1.5,1.5,0,0,0-1.158.484,2.5,2.5,0,0,0-.569,1.384H69.2v-.192a1.786,1.786,0,0,0-.432-1.238A1.547,1.547,0,0,0,67.589-7.213ZM77.782-2.482a.773.773,0,0,0-.436-.693,4.95,4.95,0,0,0-1.4-.452q-3.2-.672-3.2-2.723a2.468,2.468,0,0,1,.992-2,4,4,0,0,1,2.594-.8,4.307,4.307,0,0,1,2.735.805A2.538,2.538,0,0,1,80.09-6.25h-2.4a1.161,1.161,0,0,0-.332-.851,1.405,1.405,0,0,0-1.038-.336,1.436,1.436,0,0,0-.938.274.865.865,0,0,0-.332.7.739.739,0,0,0,.378.643A3.885,3.885,0,0,0,76.7-5.4a10.407,10.407,0,0,1,1.511.4,2.482,2.482,0,0,1,1.9,2.416A2.343,2.343,0,0,1,79.061-.594a4.548,4.548,0,0,1-2.723.76,4.75,4.75,0,0,1-2-.4,3.363,3.363,0,0,1-1.374-1.1,2.565,2.565,0,0,1-.5-1.515h2.274a1.252,1.252,0,0,0,.473.979,1.877,1.877,0,0,0,1.179.34A1.737,1.737,0,0,0,77.43-1.8.814.814,0,0,0,77.782-2.482ZM84.249,0h-2.4V-8.981h2.4Zm-.706-12.625h2.615l-2.3,2.573H81.908ZM91.52,0a2.664,2.664,0,0,1-.241-.805,2.9,2.9,0,0,1-2.266.971A3.189,3.189,0,0,1,86.826-.6a2.456,2.456,0,0,1-.867-1.926,2.538,2.538,0,0,1,1.058-2.191,5.222,5.222,0,0,1,3.059-.772h1.1V-6a1.48,1.48,0,0,0-.32-1,1.257,1.257,0,0,0-1.009-.374,1.429,1.429,0,0,0-.95.291.987.987,0,0,0-.344.8h-2.4a2.41,2.41,0,0,1,.481-1.444A3.182,3.182,0,0,1,88-8.77a4.961,4.961,0,0,1,1.976-.378,3.92,3.92,0,0,1,2.635.834,2.918,2.918,0,0,1,.975,2.345v3.893a4.294,4.294,0,0,0,.357,1.934V0ZM89.536-1.668a2.066,2.066,0,0,0,.979-.237,1.554,1.554,0,0,0,.664-.635V-4.084h-.9q-1.8,0-1.917,1.245l-.008.141a.96.96,0,0,0,.315.739A1.225,1.225,0,0,0,89.536-1.668Z" transform="translate(117.837 127.227)" fill="#12263f"/>
      </g>
      <line id="Línea_1692" data-name="Línea 1692" x2="37.16" transform="translate(97.663 161.419)" fill="none" stroke="#12263f" stroke-linecap="round" stroke-miterlimit="10" stroke-width="1"/>
      <g id="Grupo_90998" data-name="Grupo 90998" transform="translate(-147.589 -720.375)">
        <g id="Grupo_42274" data-name="Grupo 42274" transform="translate(158.65 782.984)">
          <g id="Grupo_18423" data-name="Grupo 18423" transform="translate(75 -27)">
            <g id="Grupo_18421" data-name="Grupo 18421">
              <g id="Grupo_18420" data-name="Grupo 18420">
                <g id="Grupo_18419" data-name="Grupo 18419">
                  <path id="Trazado_40936" data-name="Trazado 40936" d="M257.25,2177.034a31.314,31.314,0,1,1-31.313-31.313A31.313,31.313,0,0,1,257.25,2177.034Z" transform="translate(-194.623 -2145.721)" fill="#fff"/>
                </g>
              </g>
            </g>
            <path id="Trazado_40937" data-name="Trazado 40937" d="M257.3,2177.093a31.313,31.313,0,1,0-31.313,31.314A31.189,31.189,0,0,0,257.3,2177.093Z" transform="translate(-194.677 -2145.78)" fill="url(#radial-gradient)"/>
            <path id="Trazado_40938" data-name="Trazado 40938" d="M250.481,2177.69a23.9,23.9,0,1,0-23.9,23.9A23.813,23.813,0,0,0,250.481,2177.69Z" transform="translate(-195.171 -2146.273)" fill="none" stroke="#1d272b" stroke-miterlimit="10" stroke-width="2"/>
            <g id="Grupo_18422" data-name="Grupo 18422" transform="translate(5.548 17.58)">
              <path id="Trazado_40939" data-name="Trazado 40939" d="M254.459,2164.488a31.317,31.317,0,0,1-53.913,31.184,31.218,31.218,0,0,0,53.913-31.184Z" transform="translate(-200.545 -2164.488)" fill="#eceef0"/>
            </g>
          </g>
        </g>
        <path id="Trazado_160193" data-name="Trazado 160193" d="M5.815,18.271H8.145q2.769,0,2.769-2.71a2.343,2.343,0,0,0-.659-1.721,2.5,2.5,0,0,0-1.86-.667,2.676,2.676,0,0,0-1.707.571,1.743,1.743,0,0,0-.725,1.421H1.025a5.053,5.053,0,0,1,.938-3,6.191,6.191,0,0,1,2.6-2.058,8.89,8.89,0,0,1,3.655-.74,8.735,8.735,0,0,1,5.6,1.626,5.405,5.405,0,0,1,2.036,4.468,4.505,4.505,0,0,1-.842,2.6,6,6,0,0,1-2.454,1.985,5.734,5.734,0,0,1,2.666,1.868,4.919,4.919,0,0,1,.967,3.1,5.5,5.5,0,0,1-2.2,4.57,9.12,9.12,0,0,1-5.771,1.714,9.458,9.458,0,0,1-3.889-.8,6.093,6.093,0,0,1-2.717-2.212,5.751,5.751,0,0,1-.923-3.215H5.654a2.223,2.223,0,0,0,.791,1.7,2.793,2.793,0,0,0,1.948.718,2.925,2.925,0,0,0,2.08-.725,2.424,2.424,0,0,0,.776-1.853,2.833,2.833,0,0,0-.806-2.285,3.368,3.368,0,0,0-2.227-.674h-2.4Z" transform="translate(255.464 770.297)" fill="#1d272b"/>
      </g>
    </g>
  </g>
</svg>
