<svg xmlns="http://www.w3.org/2000/svg" xmlns:xlink="http://www.w3.org/1999/xlink" width="232.488" height="168.418" viewBox="0 0 232.488 168.418">
  <defs>
    <linearGradient id="linear-gradient" x1="0.5" x2="0.5" y2="1" gradientUnits="objectBoundingBox">
      <stop offset="0" stop-color="#f5f5f5"/>
      <stop offset="0.25" stop-color="#f5f5f5"/>
      <stop offset="1" stop-color="#a7b3cf"/>
    </linearGradient>
  </defs>
  <g id="img2" transform="translate(-379.789 -252.088)">
    <line id="Línea_1606" data-name="Línea 1606" x2="232.488" transform="translate(379.789 419.506)" fill="none" stroke="#231f20" stroke-miterlimit="10" stroke-width="2"/>
    <g id="Grupo_106841" data-name="Grupo 106841" transform="translate(406.006 285.141)">
      <g id="Grupo_106833" data-name="Grupo 106833" transform="translate(4.239 12.847)">
        <path id="Trazado_151274" data-name="Trazado 151274" d="M775.115,698.318a3.567,3.567,0,0,1-3.782,3.3l-152.937-4.2a3.527,3.527,0,0,1-3.536-3.532l3.48-92.373a3.567,3.567,0,0,1,3.782-3.3l151.621,2.885a3.528,3.528,0,0,1,3.536,3.533Z" transform="translate(-614.858 -598.208)" fill="#fff"/>
      </g>
      <g id="Grupo_106834" data-name="Grupo 106834" transform="translate(4.239 4.71)">
        <path id="Trazado_151275" data-name="Trazado 151275" d="M775.115,643.649a3.567,3.567,0,0,1-3.782,3.3L618.4,642.75a3.527,3.527,0,0,1-3.536-3.532l3.48-92.373a3.566,3.566,0,0,1,3.782-3.3L772.384,535.4c5.5,0,4.962,11.091,4.894,12.979Z" transform="translate(-614.858 -535.402)" fill="#1d272b"/>
      </g>
      <g id="Grupo_106835" data-name="Grupo 106835" transform="translate(55.748 106.849)">
        <path id="Trazado_151276" data-name="Trazado 151276" d="M1013.574,1349.146c-9.114,0,39,.132,39,.132,2.526-3.436.785-25.538.785-25.538h-32.895S1022.69,1349.146,1013.574,1349.146Z" transform="translate(-1012.425 -1323.74)"/>
      </g>
      <rect id="Rectángulo_34054" data-name="Rectángulo 34054" width="47.589" height="2.189" rx="1.094" transform="translate(49.732 132.028)"/>
      <g id="Grupo_106836" data-name="Grupo 106836" transform="translate(54.418 106.849)">
        <path id="Trazado_151277" data-name="Trazado 151277" d="M1003.322,1349.146c-9.114,0,38.343-.131,38.343-.131,2.526-3.436,1.443-25.275,1.443-25.275h-32.895S1012.438,1349.146,1003.322,1349.146Z" transform="translate(-1002.159 -1323.74)" fill="url(#linear-gradient)"/>
      </g>
      <g id="Grupo_106837" data-name="Grupo 106837" transform="translate(57.327 106.849)">
        <path id="Trazado_151278" data-name="Trazado 151278" d="M1062.648,1323.74h-32.895a62.432,62.432,0,0,1,.217,7.563s25.271,1.744,27.874,2.531c3.591,1.086,2.8,5.8,2.484,7.63-.318,1.868-.621,3.762-1.864,5.228-1.992,2.349-31.008,2.2-33.855,2.359,6.992-.021,36.6-.036,36.6-.036C1063.731,1345.578,1062.648,1323.74,1062.648,1323.74Z" transform="translate(-1024.608 -1323.74)"/>
      </g>
      <g id="Grupo_106838" data-name="Grupo 106838" transform="translate(0 12.714)">
        <path id="Trazado_151279" data-name="Trazado 151279" d="M742.575,697.424a3.566,3.566,0,0,1-3.782,3.3l-153.114-4.207a3.526,3.526,0,0,1-3.534-3.532l4.407-92.379c.068-1.888.833-3.491,2.853-3.427l152.937,4.2a3.528,3.528,0,0,1,3.536,3.533Z" transform="translate(-582.143 -597.179)" fill="url(#linear-gradient)"/>
      </g>
      <g id="Grupo_106839" data-name="Grupo 106839" transform="translate(0.559)">
        <path id="Trazado_151280" data-name="Trazado 151280" d="M746.678,602.9,586.459,598.47s.055-1.53.123-3.419l3.48-92.372a3.835,3.835,0,0,1,3.781-3.63L746.6,503.571a3.693,3.693,0,0,1,3.675,3.583Z" transform="translate(-586.459 -499.047)" fill="url(#linear-gradient)"/>
      </g>
      <g id="Grupo_106840" data-name="Grupo 106840" transform="translate(7.921 6.505)">
        <path id="Trazado_151281" data-name="Trazado 151281" d="M789.638,639.716l-146.362-3.994,3.267-86.465,146.362,3.994Z" transform="translate(-643.276 -549.257)" fill="#fff"/>
      </g>
      <path id="Trazado_151282" data-name="Trazado 151282" d="M774.968,630.289l-151.406-4.132,3.38-89.6,151.406,4.132Z" transform="translate(-618.195 -531.698)" fill="#f7f5ee"/>
      <path id="Trazado_151283" data-name="Trazado 151283" d="M798.291,587.408a5.967,5.967,0,0,0-.761-.1C796.6,587.256,796.972,587.3,798.291,587.408Z" transform="translate(-769.177 -575.854)" fill="#aacaf9" style="mix-blend-mode: multiply;isolation: isolate"/>
      <rect id="Rectángulo_34055" data-name="Rectángulo 34055" width="46.338" height="2.189" rx="1.094" transform="translate(46.31 132.028)" fill="url(#linear-gradient)"/>
    </g>
    <g id="Grupo_106860" data-name="Grupo 106860" transform="translate(426.372 253.302)">
      <path id="Trazado_151285" data-name="Trazado 151285" d="M813.917,709.055l80.977,14.087a5.86,5.86,0,0,0,6.688-6.076l5.143-58.526c.093-3.538-3.826-6.69-6.843-6.754l-91.8-.537c-6.568.572-4.622,11.093-4.334,14.4l4.38,36.276C808.354,704.558,808.661,708.437,813.917,709.055Z" transform="translate(-794.972 -599.691)" fill="#e89952"/>
      <path id="Trazado_151286" data-name="Trazado 151286" d="M808.831,709.611l83.994,5.277c3.751.422,3.554,1.529,3.245-2.02l3.655-55.8a5.952,5.952,0,0,0-5.755-5.307l-89.438-.512c-6.568.572-5.508,7.72-4.876,12.939.211,1.745,6.906-2.124,6.906-2.124a5.821,5.821,0,0,0-6.056,6.115l3.169,36.387A5.687,5.687,0,0,0,808.831,709.611Z" transform="translate(-791.425 -599.691)" fill="#313851"/>
      <g id="Grupo_106850" data-name="Grupo 106850" transform="translate(35.464 12.632)">
        <path id="Trazado_151287" data-name="Trazado 151287" d="M1013.048,428.746l60.886,10.007,15.046-79.3-50.567-8.512-10.041,6.939Z" transform="translate(-1013.048 -350.922)" fill="#fffcf8"/>
        <path id="Trazado_151288" data-name="Trazado 151288" d="M1013.048,428.746l60.886,10.007,15.046-79.3-50.567-8.512-10.041,6.939Z" transform="translate(-1013.048 -350.922)" fill="none" stroke="#414042" stroke-miterlimit="10" stroke-width="2" opacity="0.249"/>
        <path id="Trazado_151289" data-name="Trazado 151289" d="M1378.94,602.578a1.094,1.094,0,0,0,.916,1.246l14.517,2.744a1.094,1.094,0,0,0,1.307-.826h0a1.094,1.094,0,0,0-.915-1.246l-14.517-2.744a1.094,1.094,0,0,0-1.307.826Z" transform="translate(-1331.519 -569.22)"/>
        <path id="Trazado_151290" data-name="Trazado 151290" d="M1275.026,608.4a.734.734,0,0,0,.614.836l28.1,5.312a.734.734,0,0,0,.876-.554h0a.734.734,0,0,0-.614-.836l-28.1-5.312a.734.734,0,0,0-.877.554Z" transform="translate(-1241.073 -574.529)" fill="#414042" opacity="0.493"/>
        <path id="Trazado_151291" data-name="Trazado 151291" d="M1271.47,627.213a.734.734,0,0,0,.614.836l28.1,5.312a.735.735,0,0,0,.877-.554h0a.734.734,0,0,0-.614-.836l-28.1-5.312a.734.734,0,0,0-.877.554Z" transform="translate(-1237.978 -590.906)" fill="#414042" opacity="0.493"/>
        <path id="Trazado_151292" data-name="Trazado 151292" d="M1415.482,673.756a.734.734,0,0,0,.614.836l8.983,1.7a.734.734,0,0,0,.876-.554h0a.734.734,0,0,0-.614-.836l-8.983-1.7a.734.734,0,0,0-.877.554Z" transform="translate(-1363.332 -631.419)" fill="#414042" opacity="0.493"/>
        <path id="Trazado_151293" data-name="Trazado 151293" d="M1359,708.063a1.1,1.1,0,0,0,.916,1.246l14.517,2.744a1.094,1.094,0,0,0,1.307-.826h0a1.1,1.1,0,0,0-.915-1.246l-14.517-2.744a1.1,1.1,0,0,0-1.307.826Z" transform="translate(-1314.161 -661.039)"/>
        <path id="Trazado_151294" data-name="Trazado 151294" d="M1255.085,713.885a.735.735,0,0,0,.614.836l28.1,5.312a.735.735,0,0,0,.876-.554h0a.734.734,0,0,0-.614-.836l-28.1-5.312a.734.734,0,0,0-.877.554Z" transform="translate(-1223.716 -666.349)" fill="#f2e0c9"/>
        <path id="Trazado_151295" data-name="Trazado 151295" d="M1251.528,732.7a.734.734,0,0,0,.614.836l28.1,5.312a.734.734,0,0,0,.877-.554h0a.735.735,0,0,0-.614-.836l-28.1-5.312a.734.734,0,0,0-.877.554Z" transform="translate(-1220.62 -682.724)" fill="#f2e0c9"/>
        <path id="Trazado_151296" data-name="Trazado 151296" d="M1395.54,779.244a.734.734,0,0,0,.614.835l8.983,1.7a.734.734,0,0,0,.876-.554h0a.734.734,0,0,0-.614-.836l-8.983-1.7a.734.734,0,0,0-.877.554Z" transform="translate(-1345.974 -723.239)" fill="#f2e0c9"/>
        <path id="Trazado_151297" data-name="Trazado 151297" d="M1338,819.133a1.1,1.1,0,0,0,.916,1.246l14.517,2.744a1.094,1.094,0,0,0,1.307-.826h0a1.094,1.094,0,0,0-.915-1.246l-14.517-2.744a1.1,1.1,0,0,0-1.307.826Z" transform="translate(-1295.884 -757.718)"/>
        <path id="Trazado_151298" data-name="Trazado 151298" d="M1234.087,824.956a.734.734,0,0,0,.614.835l28.1,5.312a.734.734,0,0,0,.876-.554h0a.734.734,0,0,0-.614-.836l-28.1-5.312a.734.734,0,0,0-.877.554Z" transform="translate(-1205.439 -763.029)" fill="#f2e0c9"/>
        <path id="Trazado_151299" data-name="Trazado 151299" d="M1230.531,843.77a.734.734,0,0,0,.614.836l28.1,5.312a.735.735,0,0,0,.877-.554h0a.735.735,0,0,0-.614-.835l-28.1-5.312a.734.734,0,0,0-.877.554Z" transform="translate(-1202.343 -779.405)" fill="#f2e0c9"/>
        <path id="Trazado_151300" data-name="Trazado 151300" d="M1374.543,890.315a.734.734,0,0,0,.614.836l8.983,1.7a.734.734,0,0,0,.876-.554h0a.734.734,0,0,0-.614-.835l-8.983-1.7a.734.734,0,0,0-.877.554Z" transform="translate(-1327.697 -819.92)" fill="#f2e0c9"/>
        <path id="Trazado_151302" data-name="Trazado 151302" d="M1131.317,357.879l8.718,1.513,1.323-8.452Z" transform="translate(-1115.994 -350.922)" fill="#414042"/>
        <g id="Grupo_106843" data-name="Grupo 106843" transform="translate(19.816 11.906)">
          <path id="Trazado_151303" data-name="Trazado 151303" d="M1166,452.227l1.8-9.529,9.529,1.8-1.8,9.529Zm8.444.211,1.3-6.854-6.854-1.3-1.3,6.854Z" transform="translate(-1165.995 -442.698)" fill="#008f85"/>
          <path id="Trazado_151304" data-name="Trazado 151304" d="M1171.072,446.117l8.784,1.661-1.661,8.784-8.785-1.661Zm8.079,2.141-7.6-1.436-1.437,7.6,7.6,1.436Z" transform="translate(-1168.968 -445.674)" fill="#008f85"/>
        </g>
        <g id="Grupo_106845" data-name="Grupo 106845" transform="translate(16.793 26.279)">
          <path id="Trazado_151307" data-name="Trazado 151307" d="M1142.664,563.158l1.8-9.529,9.529,1.8-1.8,9.529Zm8.444.211,1.3-6.854-6.853-1.3-1.3,6.854Z" transform="translate(-1142.664 -553.629)" fill="#008f85"/>
          <path id="Trazado_151308" data-name="Trazado 151308" d="M1147.745,557.047l8.784,1.661-1.661,8.784-8.784-1.661Zm8.079,2.141-7.6-1.436-1.437,7.6,7.6,1.436Z" transform="translate(-1145.641 -556.604)" fill="#008f85"/>
        </g>
        <g id="Grupo_106846" data-name="Grupo 106846" transform="translate(19.44 28.532)">
          <path id="Trazado_151309" data-name="Trazado 151309" d="M1169.557,574.859l-.767-1.125-2.3,1.569-2.182-4.283-1.213.619,2.885,5.66Z" transform="translate(-1163.093 -571.021)"/>
          <path id="Trazado_151310" data-name="Trazado 151310" d="M1169.547,580.171l2.91-1.984-.34-.5-2.344,1.6-2.206-4.329-.537.274Z" transform="translate(-1166.52 -574.448)"/>
        </g>
        <g id="Grupo_106847" data-name="Grupo 106847" transform="translate(13.821 40.069)">
          <path id="Trazado_151311" data-name="Trazado 151311" d="M1119.721,669.594l1.8-9.528,9.53,1.8-1.8,9.529Zm8.444.212,1.3-6.854-6.854-1.3-1.3,6.854Z" transform="translate(-1119.721 -660.066)"/>
          <path id="Trazado_151312" data-name="Trazado 151312" d="M1124.8,663.483l8.784,1.661-1.661,8.784-8.784-1.661Zm8.079,2.141-7.6-1.436-1.436,7.6,7.6,1.437Z" transform="translate(-1122.698 -663.04)"/>
        </g>
        <g id="Grupo_106848" data-name="Grupo 106848" transform="translate(13.472 42.323)">
          <path id="Trazado_151313" data-name="Trazado 151313" d="M1146.616,681.3l-.768-1.124-2.3,1.569-2.182-4.283-1.213.619,2.884,5.66Z" transform="translate(-1137.157 -677.459)"/>
          <path id="Trazado_151314" data-name="Trazado 151314" d="M1123.494,791.563l-.768-1.124-2.3,1.569-2.182-4.283-1.213.619,2.884,5.66Z" transform="translate(-1117.031 -773.439)"/>
          <path id="Trazado_151315" data-name="Trazado 151315" d="M1146.6,686.609l2.91-1.986-.34-.5-2.344,1.6-2.206-4.328-.537.274Z" transform="translate(-1140.58 -680.886)"/>
        </g>
        <g id="Grupo_106849" data-name="Grupo 106849" transform="translate(10.843 54.21)">
          <path id="Trazado_151316" data-name="Trazado 151316" d="M1096.734,778.739l1.8-9.529,9.529,1.8-1.8,9.529Zm8.444.212,1.3-6.853-6.853-1.3-1.3,6.853Z" transform="translate(-1096.734 -769.21)"/>
          <path id="Trazado_151317" data-name="Trazado 151317" d="M1101.811,772.631l8.784,1.661-1.661,8.784-8.784-1.661Zm8.079,2.142-7.6-1.436-1.436,7.6,7.6,1.436Z" transform="translate(-1099.707 -772.188)"/>
        </g>
        <path id="Trazado_151318" data-name="Trazado 151318" d="M1400.251,489.851a1.1,1.1,0,0,0,.916,1.246l14.517,2.744a1.1,1.1,0,0,0,1.307-.826h0a1.094,1.094,0,0,0-.915-1.246l-14.517-2.744a1.094,1.094,0,0,0-1.307.826Z" transform="translate(-1350.069 -471.098)"/>
        <path id="Trazado_151319" data-name="Trazado 151319" d="M1296.337,495.673a.734.734,0,0,0,.614.836l28.1,5.312a.734.734,0,0,0,.876-.554h0a.734.734,0,0,0-.614-.836l-28.1-5.312a.734.734,0,0,0-.876.554Z" transform="translate(-1259.623 -476.408)" fill="#414042" opacity="0.493"/>
        <path id="Trazado_151320" data-name="Trazado 151320" d="M1292.78,514.487a.734.734,0,0,0,.614.836l28.1,5.312a.735.735,0,0,0,.877-.554h0a.735.735,0,0,0-.614-.836l-28.1-5.312a.734.734,0,0,0-.877.554Z" transform="translate(-1256.527 -492.785)" fill="#414042" opacity="0.493"/>
        <path id="Trazado_151321" data-name="Trazado 151321" d="M1436.792,561.032a.734.734,0,0,0,.614.836l8.983,1.7a.734.734,0,0,0,.877-.554h0a.734.734,0,0,0-.614-.836l-8.983-1.7a.734.734,0,0,0-.877.554Z" transform="translate(-1381.881 -533.299)" fill="#414042" opacity="0.493"/>
      </g>
      <g id="Grupo_106859" data-name="Grupo 106859" transform="translate(0 0)">
        <path id="Trazado_151323" data-name="Trazado 151323" d="M751.873,337.473l53.8-13.384L789.9,253.3l-44.754,10.95-5.82,9.3Z" transform="translate(-739.328 -253.302)" fill="#fffcf8"/>
        <path id="Trazado_151324" data-name="Trazado 151324" d="M751.873,337.473l53.8-13.384L789.9,253.3l-44.754,10.95-5.82,9.3Z" transform="translate(-739.328 -253.302)" fill="none" stroke="#414042" stroke-miterlimit="10" stroke-width="2" opacity="0.249"/>
        <path id="Trazado_151325" data-name="Trazado 151325" d="M936.058,478.952a.983.983,0,0,1-.774,1.154l-12.927,3.017a.983.983,0,0,1-1.2-.692h0a.983.983,0,0,1,.774-1.153l12.927-3.017a.983.983,0,0,1,1.2.691Z" transform="translate(-897.574 -449.09)" fill="#414042"/>
        <path id="Trazado_151326" data-name="Trazado 151326" d="M952.7,480.125a.66.66,0,0,1-.519.774l-25.022,5.84a.66.66,0,0,1-.808-.464h0a.66.66,0,0,1,.519-.773l25.021-5.84a.659.659,0,0,1,.808.464Z" transform="translate(-902.11 -450.317)" fill="#414042" opacity="0.493"/>
        <path id="Trazado_151327" data-name="Trazado 151327" d="M956.614,496.878a.66.66,0,0,1-.519.774l-25.021,5.84a.66.66,0,0,1-.808-.464h0a.66.66,0,0,1,.519-.774l25.021-5.84a.659.659,0,0,1,.808.464Z" transform="translate(-905.514 -464.9)" fill="#414042" opacity="0.493"/>
        <path id="Trazado_151328" data-name="Trazado 151328" d="M943.468,544.152a.66.66,0,0,1-.519.774l-8,1.867a.66.66,0,0,1-.808-.464h0a.66.66,0,0,1,.519-.774l8-1.867a.66.66,0,0,1,.808.464Z" transform="translate(-908.888 -506.048)" fill="#414042" opacity="0.493"/>
        <path id="Trazado_151329" data-name="Trazado 151329" d="M957.982,572.886a.984.984,0,0,1-.775,1.153l-12.927,3.017a.983.983,0,0,1-1.2-.691h0a.984.984,0,0,1,.774-1.153l12.927-3.017a.984.984,0,0,1,1.205.691Z" transform="translate(-916.658 -530.853)" fill="#414042"/>
        <path id="Trazado_151330" data-name="Trazado 151330" d="M974.628,574.058a.66.66,0,0,1-.519.774l-25.022,5.84a.66.66,0,0,1-.808-.464h0a.66.66,0,0,1,.519-.774l25.021-5.84a.66.66,0,0,1,.808.464Z" transform="translate(-921.194 -532.08)" fill="#414042" opacity="0.493"/>
        <path id="Trazado_151331" data-name="Trazado 151331" d="M978.538,590.811a.66.66,0,0,1-.519.774L953,597.425a.66.66,0,0,1-.808-.464h0a.66.66,0,0,1,.519-.774l25.022-5.84a.66.66,0,0,1,.808.464Z" transform="translate(-924.597 -546.662)" fill="#414042" opacity="0.493"/>
        <path id="Trazado_151332" data-name="Trazado 151332" d="M965.393,638.087a.66.66,0,0,1-.519.774l-8,1.867a.66.66,0,0,1-.808-.464h0a.66.66,0,0,1,.519-.774l8-1.867a.66.66,0,0,1,.808.464Z" transform="translate(-927.972 -587.813)" fill="#414042" opacity="0.493"/>
        <path id="Trazado_151333" data-name="Trazado 151333" d="M981.067,671.792a.984.984,0,0,1-.774,1.153l-12.927,3.017a.983.983,0,0,1-1.2-.691h0a.983.983,0,0,1,.774-1.153l12.927-3.017a.984.984,0,0,1,1.205.691Z" transform="translate(-936.752 -616.945)"/>
        <path id="Trazado_151334" data-name="Trazado 151334" d="M997.713,672.966a.66.66,0,0,1-.519.773l-25.021,5.84a.66.66,0,0,1-.808-.464h0a.66.66,0,0,1,.519-.774l25.021-5.84a.66.66,0,0,1,.808.464Z" transform="translate(-941.288 -618.173)" fill="#f2e0c9"/>
        <path id="Trazado_151335" data-name="Trazado 151335" d="M1001.623,689.719a.659.659,0,0,1-.519.774l-25.021,5.84a.66.66,0,0,1-.808-.464h0a.66.66,0,0,1,.519-.773l25.022-5.84a.659.659,0,0,1,.808.464Z" transform="translate(-944.692 -632.756)" fill="#f2e0c9"/>
        <path id="Trazado_151336" data-name="Trazado 151336" d="M988.479,736.994a.66.66,0,0,1-.519.774l-8,1.867a.66.66,0,0,1-.808-.464h0a.66.66,0,0,1,.519-.773l8-1.867a.66.66,0,0,1,.808.464Z" transform="translate(-948.066 -673.906)" fill="#f2e0c9"/>
        <path id="Trazado_151338" data-name="Trazado 151338" d="M739.328,347.11l7.732-1.85-1.912-7.445Z" transform="translate(-739.328 -326.865)" fill="#414042"/>
        <g id="Grupo_106851" data-name="Grupo 106851" transform="translate(6.954 20.191)">
          <path id="Trazado_151339" data-name="Trazado 151339" d="M794.9,419.549l-1.9-8.5,8.5-1.9,1.9,8.5Zm7.043-2.827-1.367-6.116-6.116,1.367,1.367,6.116Z" transform="translate(-792.998 -409.145)" fill="#008f85"/>
          <path id="Trazado_151340" data-name="Trazado 151340" d="M796.135,414.037l7.839-1.752,1.752,7.839-7.839,1.752Zm7.428-1.1-6.781,1.515,1.516,6.781,6.781-1.515Z" transform="translate(-795.728 -411.878)" fill="#008f85"/>
        </g>
        <g id="Grupo_106852" data-name="Grupo 106852" transform="translate(9.355 22.135)">
          <path id="Trazado_151341" data-name="Trazado 151341" d="M811.531,428.218l.542-1.1,2.244,1.108,1.405-4.084,1.157.4-1.857,5.4Z" transform="translate(-811.531 -424.145)" fill="#1d272b"/>
        </g>
        <g id="Grupo_107106" data-name="Grupo 107106" transform="translate(59.834 25.479) rotate(21)">
          <path id="Trazado_151341-2" data-name="Trazado 151341" d="M811.531,428.218l.542-1.1,2.244,1.108,1.405-4.084,1.157.4-1.857,5.4Z" transform="translate(-811.531 -424.145)" fill="#1d272b"/>
        </g>
        <g id="Grupo_106853" data-name="Grupo 106853" transform="translate(10.268 33.068)">
          <path id="Trazado_151342" data-name="Trazado 151342" d="M820.476,518.939l-1.9-8.5,8.5-1.9,1.9,8.5Zm7.043-2.827L826.153,510l-6.116,1.367,1.367,6.116Z" transform="translate(-818.576 -508.535)" fill="#008f85"/>
          <path id="Trazado_151343" data-name="Trazado 151343" d="M821.713,513.427l7.839-1.752,1.752,7.839-7.839,1.752Zm7.428-1.105-6.781,1.515,1.516,6.781,6.781-1.515Z" transform="translate(-821.306 -511.268)" fill="#008f85"/>
        </g>
        <g id="Grupo_106854" data-name="Grupo 106854" transform="translate(12.669 35.012)">
          <path id="Trazado_151344" data-name="Trazado 151344" d="M837.109,527.608l.542-1.1,2.244,1.108,1.4-4.084,1.157.4-1.857,5.4Z" transform="translate(-837.109 -523.535)" fill="#1d272b"/>
        </g>
        <g id="Grupo_106855" data-name="Grupo 106855" transform="translate(13.297 45.093)">
          <path id="Trazado_151345" data-name="Trazado 151345" d="M843.862,611.751l-1.9-8.5,8.5-1.9,1.9,8.5Zm7.043-2.827-1.367-6.116-6.116,1.367,1.367,6.116Z" transform="translate(-841.962 -601.347)" fill="#008f85"/>
          <path id="Trazado_151346" data-name="Trazado 151346" d="M845.1,606.239l7.839-1.752,1.752,7.839-7.84,1.752Zm7.428-1.1-6.781,1.515,1.516,6.781,6.781-1.515Z" transform="translate(-844.693 -604.08)" fill="#008f85"/>
        </g>
        <g id="Grupo_106856" data-name="Grupo 106856" transform="translate(15.699 47.037)">
          <path id="Trazado_151347" data-name="Trazado 151347" d="M860.5,620.42l.542-1.1,2.244,1.108,1.405-4.084,1.157.4-1.857,5.4Z" transform="translate(-860.495 -616.347)" fill="#1d272b"/>
        </g>
        <g id="Grupo_106857" data-name="Grupo 106857" transform="translate(16.801 58.539)">
          <path id="Trazado_151348" data-name="Trazado 151348" d="M870.9,715.526l-1.9-8.5,8.5-1.9,1.9,8.5Zm7.043-2.827-1.367-6.117-6.116,1.367,1.367,6.116Z" transform="translate(-869.001 -705.122)"/>
          <path id="Trazado_151349" data-name="Trazado 151349" d="M872.138,710.014l7.839-1.752,1.752,7.839-7.839,1.752Zm7.428-1.105-6.781,1.515,1.516,6.781,6.781-1.516Z" transform="translate(-871.731 -707.855)"/>
        </g>
        <g id="Grupo_106858" data-name="Grupo 106858" transform="translate(19.202 60.482)">
          <path id="Trazado_151350" data-name="Trazado 151350" d="M887.535,724.195l.542-1.1,2.244,1.108,1.4-4.084,1.157.4-1.857,5.4Z" transform="translate(-887.535 -720.122)"/>
        </g>
        <path id="Trazado_151351" data-name="Trazado 151351" d="M912.628,378.571a.984.984,0,0,1-.774,1.154l-12.927,3.017a.983.983,0,0,1-1.2-.692h0a.983.983,0,0,1,.774-1.153l12.927-3.017a.984.984,0,0,1,1.2.691Z" transform="translate(-877.18 -361.714)" fill="#414042"/>
        <path id="Trazado_151352" data-name="Trazado 151352" d="M929.274,379.744a.66.66,0,0,1-.519.774l-25.022,5.84a.66.66,0,0,1-.808-.464h0a.66.66,0,0,1,.519-.774l25.021-5.84a.66.66,0,0,1,.808.464Z" transform="translate(-881.716 -362.941)" fill="#414042" opacity="0.493"/>
        <path id="Trazado_151353" data-name="Trazado 151353" d="M933.184,396.5a.659.659,0,0,1-.519.774l-25.021,5.84a.66.66,0,0,1-.808-.464h0a.66.66,0,0,1,.519-.774l25.021-5.84a.659.659,0,0,1,.808.464Z" transform="translate(-885.12 -377.524)" fill="#414042" opacity="0.493"/>
        <path id="Trazado_151354" data-name="Trazado 151354" d="M920.039,443.772a.66.66,0,0,1-.519.774l-8,1.867a.66.66,0,0,1-.808-.464h0a.66.66,0,0,1,.519-.774l8-1.867a.66.66,0,0,1,.808.464Z" transform="translate(-888.494 -418.674)" fill="#414042" opacity="0.493"/>
      </g>
      <path id="Trazado_151356" data-name="Trazado 151356" d="M779.258,727.594l83.625,12.747c3.806.465,7.911-.819,7.221-8.5l1.969-47.957a6.022,6.022,0,0,0-5.848-5.482l-33.824-.846a6.024,6.024,0,0,1-4.069-1.724l-4.5-4.423a6.022,6.022,0,0,0-4.131-1.725l-44.653.118c-3.574-.053-7.114,4.1-6.794,7.659l5.738,44.7A6.022,6.022,0,0,0,779.258,727.594Z" transform="translate(-764.486 -615.734)" fill="#e89952"/>
      <path id="Trazado_151357" data-name="Trazado 151357" d="M780.281,745.081l81.947,3.328a6.022,6.022,0,0,0,6.728-6.517l1.529-47.976a6.023,6.023,0,0,0-5.848-5.482l-33.824-.846a6.023,6.023,0,0,1-4.069-1.724l-4.5-4.423a6.022,6.022,0,0,0-4.131-1.725l-43.8-.648a6.023,6.023,0,0,0-6.088,6.56l6.792,54.014A6.023,6.023,0,0,0,780.281,745.081Z" transform="translate(-764.456 -623.904)" fill="#f4b671"/>
    </g>
    <path id="Trazado_151358" data-name="Trazado 151358" d="M1290.2,988.323h69.925l.4-25.877a3.846,3.846,0,0,0-.855-2.486,4.584,4.584,0,0,0-3.863-2.1l-4.433.317a3.845,3.845,0,0,0-2.18-.336l-2.161.353c-.722-11.96-.39-25.382-4.876-27.94-8.029-4.578-47.5.33-47.5.33.045.017.088.038.132.056h-.022a2.649,2.649,0,0,0-.314.053h-.128c-3.694.4-.639,6.889.792,11.951l-6.008.812c2.28,4.228,4.067,5.021,4.769,5.162l-.305.021c.113,0,.22-.008.323-.018a1.042,1.042,0,0,0,.305.023c.544-.044,1.055-.1,1.534-.156l5.682-.4c.282,3.219.449,6.652.606,10.1l-10.869,1.56a5.092,5.092,0,0,0-3.894,5.189Z" transform="translate(-789.876 -587.548)" fill="#e8cfb8" style="mix-blend-mode: multiply;isolation: isolate"/>
    <g id="Grupo_106864" data-name="Grupo 106864" transform="translate(395.655 293.669)">
      <path id="Trazado_151360" data-name="Trazado 151360" d="M773.609,880.064c-.167.107-1.092.237-1.075.372a9.281,9.281,0,0,1-.618,3.2c-.454,1.553-2.543,4.631-2.919,6.154a1.656,1.656,0,0,0,2.911,1.4c1.572-1.476,1.421-4.495,1.69-6.209.174-1.112.259-2.174.462-3.281a2.232,2.232,0,0,1,.358-1.144c-.144.2-.418.068-.81-.487Z" transform="translate(-734.394 -839.227)" fill="#f99e82"/>
      <path id="Trazado_151361" data-name="Trazado 151361" d="M776.749,912.241a22.124,22.124,0,0,1-1.875,4.386,2.047,2.047,0,0,1-1.654.983,1.747,1.747,0,0,0,2.408-.206c1.572-1.476,1.421-4.5,1.69-6.209.053-.34.1-.676.141-1.01C777.256,910.875,777,911.555,776.749,912.241Z" transform="translate(-738.112 -865.445)" fill="#f99e82" style="mix-blend-mode: multiply;isolation: isolate"/>
      <g id="Grupo_106863" data-name="Grupo 106863" transform="translate(0 0)">
        <path id="Trazado_151362" data-name="Trazado 151362" d="M507.446,884.264l18.87-35c-.117,0-.234-.008-.352-.021a4.577,4.577,0,0,1-3.009-1.662,4.766,4.766,0,0,1-1.6-1.143L502.386,881.63a1.244,1.244,0,0,0,.527,1.673l2.86,1.489A1.244,1.244,0,0,0,507.446,884.264Z" transform="translate(-502.246 -809.958)" fill="#1d272b"/>
        <path id="Trazado_151363" data-name="Trazado 151363" d="M507.446,884.264l18.87-35c-.117,0-.234-.008-.352-.021a4.577,4.577,0,0,1-3.009-1.662,4.766,4.766,0,0,1-1.6-1.143L502.386,881.63a1.244,1.244,0,0,0,.527,1.673l2.86,1.489A1.244,1.244,0,0,0,507.446,884.264Z" transform="translate(-502.246 -809.958)" fill="none"/>
        <path id="Trazado_151364" data-name="Trazado 151364" d="M640.54,822.482a5.262,5.262,0,0,1-3.443-.19c-3.694-1.572-7.1-3.781-8.6-7.594a7.215,7.215,0,0,0,12.045,7.784Z" transform="translate(-611.477 -782.33)" fill="#22a2ff"/>
        <path id="Trazado_151365" data-name="Trazado 151365" d="M640.333,822.908a5.263,5.263,0,0,1-3.443-.19c-3.693-1.572-7.1-3.781-8.6-7.594a7.215,7.215,0,0,0,12.045,7.784Z" transform="translate(-611.297 -782.701)" fill="url(#linear-gradient)"/>
        <path id="Trazado_151366" data-name="Trazado 151366" d="M640.333,822.908a5.263,5.263,0,0,1-3.443-.19c-3.693-1.572-7.1-3.781-8.6-7.594a7.215,7.215,0,0,0,12.045,7.784Z" transform="translate(-611.297 -782.701)" fill="none"/>
        <g id="Grupo_106862" data-name="Grupo 106862" transform="translate(8.482)">
          <path id="Trazado_151367" data-name="Trazado 151367" d="M630.516,633.8a18.92,18.92,0,1,0-26.046-6.128A18.92,18.92,0,0,0,630.516,633.8Zm-23.978-7.408a16.488,16.488,0,1,1,22.7,5.34A16.488,16.488,0,0,1,606.539,626.392Z" transform="translate(-597.24 -594.396)" fill="#1d272b"/>
          <path id="Trazado_151368" data-name="Trazado 151368" d="M630.516,633.8a18.92,18.92,0,1,0-26.046-6.128A18.92,18.92,0,0,0,630.516,633.8Zm-23.978-7.408a16.488,16.488,0,1,1,22.7,5.34A16.488,16.488,0,0,1,606.539,626.392Z" transform="translate(-597.24 -594.396)" fill="none"/>
          <circle id="Elipse_4287" data-name="Elipse 4287" cx="16.488" cy="16.488" r="16.488" transform="translate(0 23.317) rotate(-45)" fill="#fffcf8" opacity="0.2"/>
        </g>
        <path id="Trazado_151369" data-name="Trazado 151369" d="M755.667,813.3a16.515,16.515,0,0,0,13.487-8.6Q762.415,809.007,755.667,813.3Z" transform="translate(-722.833 -773.627)" fill="#fff" opacity="0.77"/>
        <path id="Trazado_151370" data-name="Trazado 151370" d="M660.716,664.728a16.539,16.539,0,0,0-4.52-9.342q-13.588,8.72-27.231,17.355a16.537,16.537,0,0,0,6.537,8.027C643.935,675.465,652.314,670.078,660.716,664.728Z" transform="translate(-612.547 -643.659)" fill="#fff" opacity="0.77"/>
        <path id="Trazado_151371" data-name="Trazado 151371" d="M642.672,619.946c-.375-.112-.755-.217-1.143-.3a16.488,16.488,0,0,0-19.686,12.5c-.091.406-.16.812-.22,1.217Q632.157,626.667,642.672,619.946Z" transform="translate(-606.156 -612.198)" fill="#fff" opacity="0.77"/>
      </g>
      <path id="Trazado_151372" data-name="Trazado 151372" d="M787.5,875.892a4.052,4.052,0,0,0-1.247-.456l.528-.429a6.481,6.481,0,0,0,1.929-.694,6.41,6.41,0,0,1,1.576-.608,2.57,2.57,0,0,1-1.7,2.147" transform="translate(-749.461 -833.692)" fill="#f99e82"/>
      <path id="Trazado_151373" data-name="Trazado 151373" d="M569.633,988.308s-.333.414-.811.936a13.513,13.513,0,0,1-1.705,1.607.322.322,0,0,1-.386-.515,12.964,12.964,0,0,0,1.616-1.527c.232-.253.429-.48.567-.643l.161-.192.042-.052.014-.017a.322.322,0,0,1,.5.4Z" transform="translate(-558.264 -932.991)" fill="#f99e82"/>
      <path id="Trazado_151374" data-name="Trazado 151374" d="M551.568,997.741c.172.145.16.875.1.976-.268.438-.632.452-.537,2.013.086,1.4-.186,7.021-.187,8.368,0,0-1.875,1.519-2.578-.195-.693-1.69-.129-5.5.06-6.961a19.755,19.755,0,0,1,.92-2.915c.336-1.1.654-.07.63-.766.388.118.094.565.253.678.272.194-.114-1.033.3-1.224" transform="translate(-542.097 -941.635)" fill="#f99e82"/>
      <path id="Trazado_151375" data-name="Trazado 151375" d="M558.526,999.137c-.268.438-.8.032-.7,1.593.086,1.4-.186,7.021-.187,8.368,0,0-1.051.948-1.918.4a2.012,2.012,0,0,0,1.339-2.09c-.066-.476.254-5.879.338-6.407l.015-.091c.018-.059.037-.118.057-.177a4.518,4.518,0,0,1,.254-.578,2.114,2.114,0,0,0-.52-2.428l.016-.009,1.046.026A3.079,3.079,0,0,1,558.526,999.137Z" transform="translate(-548.788 -941.635)" fill="#f99e82"/>
      <path id="Trazado_151376" data-name="Trazado 151376" d="M558.342,984.53a10.052,10.052,0,0,0,1.627-1.846l-.437-.519c-.355-.225-.27-1.485-.2-2.093,0,0-2.2-.852-2.7,4.394" transform="translate(-549.585 -926.233)" fill="#f99e82"/>
      <path id="Trazado_151377" data-name="Trazado 151377" d="M551.417,994.275c-3.4,4.192-5.107,6.449-5.544,7.124-.819,1.266-.537,4.992,2.069,4.443,3.993-.84,3.7-3.344,6.621-5.924,1.169-1.034,3.023-4.6,1.6-7.29-1.478-2.794-4.745,1.646-4.745,1.646Z" transform="translate(-539.865 -936.404)" fill="#d93328"/>
      <path id="Trazado_151379" data-name="Trazado 151379" d="M633.851,919.368l3.643-1.8a8.764,8.764,0,0,0,1.28,1.589,8.79,8.79,0,0,1,2.135,4.044c.15.525.328.906.135,1.134a6.867,6.867,0,0,1-3.787.688l-2.236-1.32a6.744,6.744,0,0,1-.746-1.411,6.277,6.277,0,0,1-.423-2.927Z" transform="translate(-616.773 -871.874)" fill="#f99e82"/>
      <path id="Trazado_151380" data-name="Trazado 151380" d="M616.093,906.651c.132-.37-.007-.746.075-1.068-.216-2.993.683-6.209,3.85-7.241,3.61-1.176,5.708,4.358,2.08,5.539-.342.387-.913,1.535.361,3.808-1.454.784-2.846-.071-2.828,1.66a4.628,4.628,0,0,0,4.6,4.508,4.581,4.581,0,0,0,3.64-1.926,2.792,2.792,0,0,1,.922,2.534c-.52,4.237-2.35,10.536-6.7,10.7C619.928,925.254,611.277,920.143,616.093,906.651Z" transform="translate(-600.092 -854.996)"/>
      <path id="Trazado_151381" data-name="Trazado 151381" d="M698.888,946.608c-2.817.787-10.5,3.813-11.737,5.124a3.55,3.55,0,0,0-.807,1.374c.123.446,3.127,2.131,3.478,2.236,2.579.773,8-3.854,10.284-5.746,1.073-.89.082-3.351-1.218-2.988Z" transform="translate(-662.492 -897.118)" fill="#d93328"/>
      <path id="Trazado_151383" data-name="Trazado 151383" d="M712.58,959.64c-.669-.472-.039.7-.666,1.261a.775.775,0,0,0,.165.075c2.579.773,8-3.854,10.284-5.746a1.584,1.584,0,0,0,.046-2.186c.2,2.243-8.149,7.78-9.829,6.595Z" transform="translate(-684.749 -902.753)" fill="#e8cfb8" style="mix-blend-mode: multiply;isolation: isolate"/>
      <path id="Trazado_151384" data-name="Trazado 151384" d="M698.46,1302.749c-.54-.131-4.588,2.779-4.7,4.089-1.293,14.462.984,12.181,1.217,24.252l3.042.852c-.011-10,.576-26.653.472-26.679Z" transform="translate(-668.6 -1207.145)" fill="#f99e82"/>
      <path id="Trazado_151385" data-name="Trazado 151385" d="M693.756,1306.838c.117-1.31,4.164-4.22,4.7-4.089l.026,2.514c.027.006.008,1.14-.036,2.988a8.691,8.691,0,0,0-1.748.759,4.674,4.674,0,0,0-2.037,1.928c-.649,1.367-.232,2.754-.175,4.19q.114,2.867.3,5.73c.218,3.473.5,6.942.813,10.408l-.627-.176C694.74,1319.018,692.463,1321.3,693.756,1306.838Z" transform="translate(-668.6 -1207.145)" fill="#f99e82" style="mix-blend-mode: multiply;isolation: isolate"/>
      <path id="Trazado_151386" data-name="Trazado 151386" d="M698.6,1511.625c-.752.232-.9,2.086-.573,2.782s6.774.716,6.792-.436-.387-1.2-1.771-1.444a7.524,7.524,0,0,0-2.457-.15c-1.466.164-1.22-.99-1.991-.752Z" transform="translate(-672.518 -1388.934)" fill="#e3eeff"/>
      <path id="Trazado_151387" data-name="Trazado 151387" d="M698.066,1507.745c-.745.232-1.035,2.081-.715,2.776s6.723.956,6.742-.2-.478-1.653-.884-1.668c-1.711-.06-1.183-.752-2.274-.658-2.015.173-2.1-.492-2.869-.254Z" transform="translate(-671.961 -1385.539)" fill="#d93328"/>
      <path id="Trazado_151388" data-name="Trazado 151388" d="M698.169,1339.617q0-.042-.008-.084h0c0,.028.005.056.008.084h0" transform="translate(-672.778 -1239.166)" fill="#0e1f30"/>
      <path id="Trazado_151389" data-name="Trazado 151389" d="M547.9,1302.488c1.891-2.675,5.171-1.285,4.819,1.127-2.069,14.2-5.05,12.614-7.818,25.493l-3.8-.063C543.469,1319.328,546.006,1305.162,547.9,1302.488Z" transform="translate(-536.062 -1205.654)" fill="#f99e82"/>
      <path id="Trazado_151390" data-name="Trazado 151390" d="M551.847,1308.507c-1.477-.047-2.984-.094-4.142,1.009-1.01.961-1.244,2.552-1.556,3.846-.4,1.657-.919,3.291-1.35,4.941-.934,3.572-1.782,7.166-2.627,10.76l-1.076-.018c2.374-9.718,4.911-23.884,6.8-26.558s5.171-1.285,4.819,1.127C552.442,1305.5,552.151,1307.107,551.847,1308.507Z" transform="translate(-536.062 -1205.654)" fill="#f99e82" style="mix-blend-mode: multiply;isolation: isolate"/>
      <path id="Trazado_151391" data-name="Trazado 151391" d="M515.252,1509.521c.844.205,1.068,2.053.733,2.76s-9.044.713-9.1-.437,1.926-.971,3.456-1.26a9.288,9.288,0,0,1,2.726-.239c1.636.111,1.322-1.034,2.188-.823Z" transform="translate(-506.28 -1387.108)" fill="#e3eeff"/>
      <path id="Trazado_151392" data-name="Trazado 151392" d="M516.392,1505.678c.836.205,1.222,2.042.891,2.748s-8.979.952-9.039-.2,2.012-1.423,2.462-1.452c1.9-.122,1.289-.794,2.505-.74,2.247.1,2.323-.568,3.181-.357Z" transform="translate(-507.465 -1383.75)" fill="#d93328"/>
      <path id="Trazado_151393" data-name="Trazado 151393" d="M629.829,1341.259l.028-.08h0l-.028.08h0" transform="translate(-613.299 -1240.599)" fill="#0e1f30"/>
      <path id="Trazado_151394" data-name="Trazado 151394" d="M560.1,1167.9s3.976-6.155,8.086-21.671c1.174-4.433,3.216.332,3.216.332l-.282-1.469s9.855-1.926,11.965,1.658.549,21.806.549,21.806-2.136,3.526-18.063,2.655C556.029,1170.686,560.1,1167.9,560.1,1167.9Z" transform="translate(-551.85 -1069.261)"/>
      <path id="Trazado_151395" data-name="Trazado 151395" d="M560.1,1167.9s3.976-6.155,8.086-21.671c1.174-4.433,3.216.332,3.216.332l-.282-1.469s9.855-1.926,11.965,1.658a3.862,3.862,0,0,1,.313.711,1.8,1.8,0,0,0-.145.225c-.127.235-.262.464-.411.686-.027.04-.055.08-.083.12-.048.059-.1.117-.145.175a9.772,9.772,0,0,1-.994.973l-.057.041q-.131.1-.265.187-.324.221-.662.418c-.336.2-.689.355-1.035.529.033-.02-.01,0-.233.12l-.01,0q-.185.076-.373.148-.313.12-.629.23-.57.2-1.15.366c-.882.258-1.776.472-2.672.672-1.928.428-3.951.751-5.572,1.97a7.7,7.7,0,0,0-2.424,2.944,26.06,26.06,0,0,0-1.146,3.183c-.09.289-.181.578-.279.865a3.075,3.075,0,0,1-.257.7c.026-.038.2-.445.037-.1-.052.111-.1.224-.156.334-.108.221-.213.443-.322.663-.6,1.211-1.266,2.364-1.769,3.623a2.112,2.112,0,0,0,1,2.38,25.57,25.57,0,0,0,5.032,1.906,26.378,26.378,0,0,0,5.574.353l.66,0a69.844,69.844,0,0,1-9.34.031C556.029,1170.686,560.1,1167.9,560.1,1167.9Z" transform="translate(-551.85 -1069.261)" fill="#5e98ff" style="mix-blend-mode: multiply;isolation: isolate"/>
      <path id="Trazado_151396" data-name="Trazado 151396" d="M630.016,987.571c1.441,2.406.843,5.82.446,8.308-.659,4.133,2.345,10.687,2.884,11.7s-4.776,4.159-11.431,4.279-4.966-2.707-4.966-2.707a36.8,36.8,0,0,0,.141-20.8c-.79-2.577,9.539-3.391,9.539-3.391" transform="translate(-601.922 -930.524)" fill="#d93328"/>
      <path id="Trazado_151398" data-name="Trazado 151398" d="M614.485,1022.264l-.987.089c1.125-1.255,1.759.589,1.759.589,4.128,4.554-.14,17.484,1.7,19.861s12.8-1.753,12.8-1.753c-11.59,6.209-16.258,1.508-16.174,1.335,2.155-4.425,2.274-12.841,2.258-12.858l-1.357-7.263Z" transform="translate(-599.084 -962.7)" fill="#e8cfb8" style="mix-blend-mode: multiply;isolation: isolate"/>
      <path id="Trazado_151399" data-name="Trazado 151399" d="M674.1,969.384h0l-.115-.315,0-.011c.034.094.073.206.113.327" transform="translate(-651.732 -916.69)" fill="#0f2c4a"/>
      <path id="Trazado_151400" data-name="Trazado 151400" d="M674.88,971.594l-.007-.019h0l.006.018" transform="translate(-652.507 -918.882)" fill="#0f2c4a"/>
      <path id="Trazado_151401" data-name="Trazado 151401" d="M663.477,970.637l-2.141-.617c.2-.391,1.211-.128,1.458-.486a1.349,1.349,0,0,0,.18-.393l.116.315.007.019c.125.376.269.838.38,1.161" transform="translate(-640.725 -916.764)" fill="#fb9d6f"/>
      <path id="Trazado_151402" data-name="Trazado 151402" d="M633.993,909.5a.294.294,0,0,0,0-.211,2.035,2.035,0,0,0-.523-.6,3.2,3.2,0,0,0-1.329-.863,1.7,1.7,0,0,0-1.4.17c-.044.028-.081.064-.122.1a.169.169,0,0,0-.05-.013,2.784,2.784,0,0,0-1.478.317,3.044,3.044,0,0,0-1.1,1.167,4.175,4.175,0,0,0-.642,1.422,2.707,2.707,0,0,0,.141,1.224l1.6,4.047,1.735-.174c-.315-1.544-1.026-3.079.533-4.459L632.3,911l1.837-1.206c.161-.106.015-.317-.147-.295Z" transform="translate(-611.115 -863.327)"/>
      <path id="Trazado_151403" data-name="Trazado 151403" d="M654.153,932.1a5.434,5.434,0,0,1,2.418-4.759,4.139,4.139,0,0,0-2.361,1.392c-.622,1.03-.057,3.367-.057,3.367Z" transform="translate(-634.267 -880.381)"/>
      <path id="Trazado_151404" data-name="Trazado 151404" d="M599.758,916.518c3.714-.877,2.082-6.565-1.614-5.693-3.242.766-4.4,3.9-4.437,6.9-.108.314,0,.7-.163,1.058-5.916,13.046,2.281,18.856,4.454,18.953,4.345.193,6.69-5.933,7.56-10.112a2.869,2.869,0,0,0-1.867-3.365,3.022,3.022,0,0,0-.531-.706,2.2,2.2,0,0,0,.175-.293l.272-.706a2.957,2.957,0,0,0-.026-1.511L603.417,920a2.241,2.241,0,0,0-.566-1.036,2.2,2.2,0,0,0-.871-.758,3.309,3.309,0,0,0-2.216-.245c-.048.016-.1.036-.144.054a8.122,8.122,0,0,1,.032-1.09q.041-.208.072-.418.212-.347.035.013" transform="translate(-579.883 -865.924)"/>
    </g>
    <g id="Grupo_106866" data-name="Grupo 106866" transform="translate(512.1 369.151)">
      <path id="Trazado_151405" data-name="Trazado 151405" d="M1416.394,1165.24c.326,4.7-2.123,10.757-6.971,11.212-4.576.429-8.39-5.051-8.415-9.767-.061-11.1,10.14-19.219,10.14-19.219C1411.549,1153.256,1416.067,1160.541,1416.394,1165.24Z" transform="translate(-1401.007 -1147.466)" fill="#f5e7d7"/>
      <path id="Trazado_151406" data-name="Trazado 151406" d="M1409.422,1176.452c-4.576.429-8.39-5.051-8.415-9.767-.061-11.1,10.14-19.219,10.14-19.219C1403.8,1165.31,1409.422,1176.452,1409.422,1176.452Z" transform="translate(-1401.007 -1147.466)" fill="#f5e7d7"/>
      <path id="Trazado_151407" data-name="Trazado 151407" d="M1409.422,1176.452c-4.576.429-8.39-5.051-8.415-9.767-.061-11.1,10.14-19.219,10.14-19.219C1403.8,1165.31,1409.422,1176.452,1409.422,1176.452Z" transform="translate(-1401.007 -1147.466)" fill="#f5e7d7" opacity="0.3" style="mix-blend-mode: multiply;isolation: isolate"/>
      <g id="Grupo_106865" data-name="Grupo 106865" transform="translate(6.029 4.14)" style="mix-blend-mode: multiply;isolation: isolate">
        <path id="Trazado_151408" data-name="Trazado 151408" d="M1448.978,1202.151l-.246-.883c-.084-.283-.179-.63-.259-1.04s-.2-.87-.272-1.39l-.129-.812c-.04-.283-.062-.58-.1-.885-.079-.611-.1-1.267-.137-1.956a39.637,39.637,0,0,1,.145-4.474,68.482,68.482,0,0,1,1.3-8.009l.737-3.283s-.371,1.229-.889,3.241a52.347,52.347,0,0,0-1.461,8.012,33.684,33.684,0,0,0-.1,4.516c.056.7.09,1.356.188,1.971.044.307.075.605.125.89s.108.554.158.814c.089.52.227.981.33,1.387a10.446,10.446,0,0,0,.307,1.032Z" transform="translate(-1447.542 -1179.419)" fill="#f5e7d7"/>
      </g>
    </g>
    <path id="Trazado_151409" data-name="Trazado 151409" d="M1889.515,932.894c-3.667.53-4.217-5.189-.569-5.716,3.2-.462,5.364,1.952,6.462,4.651.209.245.25.632.524.9,9.987,9.678,4.65,17.844,2.722,18.7-3.855,1.721-8.155-2.978-10.427-6.443a2.784,2.784,0,0,1,.488-3.7,2.925,2.925,0,0,1,.228-.827,2.142,2.142,0,0,1-.263-.2l-.5-.541a2.87,2.87,0,0,1-.513-1.374l-.222-1a2.176,2.176,0,0,1,.143-1.137,2.141,2.141,0,0,1,.516-.994,3.214,3.214,0,0,1,1.915-1.011c.05,0,.1,0,.15,0a7.965,7.965,0,0,0-.416-.974q-.112-.173-.214-.352Q1889.228,932.631,1889.515,932.894Z" transform="translate(-1311.474 -586.518)"/>
    <path id="Trazado_151410" data-name="Trazado 151410" d="M1829.96,1013.545c2.151-1.854,9.009-6.625,10.761-6.6.475.006.675,2.436.828,2.847a1.271,1.271,0,0,1,.345,1.122c-.761,2.5-7.417,4.4-10.173,5.224C1830.424,1016.525,1828.967,1014.4,1829.96,1013.545Z" transform="translate(-1261.999 -655.998)" fill="#00978e"/>
    <path id="Trazado_151412" data-name="Trazado 151412" d="M1847.712,1009.79c-.153-.411-.352-2.841-.828-2.847a1.557,1.557,0,0,0-.335.039.949.949,0,0,1-.152.428c-.708,1.117-.746,1.777-1.708,2.663a8.419,8.419,0,0,0-1.334,2.435,3.409,3.409,0,0,1-1.609,1.566,18.514,18.514,0,0,1-5.034,1.814,1.359,1.359,0,0,0,1.171.249c2.756-.828,9.412-2.724,10.174-5.224A1.27,1.27,0,0,0,1847.712,1009.79Z" transform="translate(-1268.162 -655.998)" fill="#008f85"/>
    <path id="Trazado_151413" data-name="Trazado 151413" d="M1752.371,1054.054c.134-.137.377-1.019.519-.966a10.713,10.713,0,0,0,3.5.221c1.718-.045,5.258-1.309,6.936-1.283s2.823,2.149,1.177,3.243c-1.761,1.17-5.106.458-6.977.278-1.214-.117-2.286-.259-3.5-.346-.258-.018-1.721-.12-2.015.21C1752.132,1054.56,1752.923,1054.586,1752.371,1054.054Z" transform="translate(-1194.439 -695.239)" fill="#f99e82"/>
    <path id="Trazado_151414" data-name="Trazado 151414" d="M1765.055,1054.708c-1.177-.315-2.351-1.268-2.269-2.469-1.811.182-4.844,1.216-6.395,1.256a10.713,10.713,0,0,1-3.5-.221c-.143-.052-.385.829-.519.966.552.532-.239.506-.355,1.356.294-.33,1.757-.229,2.015-.21,1.211.087,2.283.229,3.5.346,1.871.18,5.215.892,6.977-.278a1.817,1.817,0,0,0,.656-.724A.9.9,0,0,1,1765.055,1054.708Z" transform="translate(-1194.439 -695.426)" fill="#f99e82" style="mix-blend-mode: multiply;isolation: isolate"/>
    <path id="Trazado_151415" data-name="Trazado 151415" d="M1766.206,1015.116a11.294,11.294,0,0,1,1.627,1.594" transform="translate(-1206.79 -663.112)" fill="none" stroke="#f99e82" stroke-linecap="round" stroke-linejoin="round" stroke-width="6"/>
    <path id="Trazado_151416" data-name="Trazado 151416" d="M1760.331,999c-.516-.552-1.117-1.109-1.117-1.109s-1.893.1-2.2.045c-.769-.136-.011,2.252.692,2.413.949.217,1.438-.119,2.464.188" transform="translate(-1198.508 -648.116)" fill="#f99e82"/>
    <path id="Trazado_151417" data-name="Trazado 151417" d="M1759.186,1005.051a11.279,11.279,0,0,1-2.257-.3" transform="translate(-1198.715 -654.088)" fill="none" stroke="#f99e82" stroke-linecap="round" stroke-linejoin="round" stroke-width="6"/>
    <path id="Trazado_151418" data-name="Trazado 151418" d="M1840.262,1097.994a14.986,14.986,0,0,1,2.141,2.136" transform="translate(-1271.251 -735.252)" fill="none" stroke="#f99e82" stroke-linecap="round" stroke-linejoin="round" stroke-width="2"/>
    <path id="Trazado_151419" data-name="Trazado 151419" d="M1423.355,1153.707l-57.377,16.6a4.1,4.1,0,0,1-5.078-3.846l-5.214-41.551c-.356-2.563,2.062-5.188,4.121-5.492l23.543-3.38c4.54-.144,4.241,6.549,8.051,6.018,9.633-1.341,29.827-4.663,29.827-4.663a4.1,4.1,0,0,1,4.65,3.928l.849,26.715C1426.787,1149.965,1426.9,1152.81,1423.355,1153.707Z" transform="translate(-849.427 -750.955)" fill="#e89952"/>
    <path id="Trazado_151420" data-name="Trazado 151420" d="M1439.723,1153.787l-57.015,11c-2.531.627-5,1.877-5.079-.729l-4.434-40.7a4.1,4.1,0,0,1,3.5-4.182l22.764-3.355c4.54-.144,4.24,8.418,8.051,7.888,9.633-1.341,29.827-4.664,29.827-4.664a4.1,4.1,0,0,1,4.65,3.928l.849,26.715A4.1,4.1,0,0,1,1439.723,1153.787Z" transform="translate(-864.697 -750.762)" fill="#f4b671"/>
    <path id="Trazado_151421" data-name="Trazado 151421" d="M1510.6,1149.682l-.849-26.715a4.1,4.1,0,0,0-4.65-3.928s-20.194,3.323-29.827,4.664c-3.81.53-3.511-8.032-8.051-7.888l-16.176,2.323,7.518,35.953,48.926-.3A4.1,4.1,0,0,0,1510.6,1149.682Z" transform="translate(-932.461 -750.762)" fill="#e89952"/>
    <path id="Trazado_151422" data-name="Trazado 151422" d="M1376.415,1004.124s-2.254.321-5.389-5.491l11.408-1.542.5,5.9A30.682,30.682,0,0,1,1376.415,1004.124Z" transform="translate(-862.811 -647.423)" fill="#fff"/>
    <path id="Trazado_151423" data-name="Trazado 151423" d="M1401.136,904.74c-6.444.7,6.519,18.907-.8,18.992l45.083-3.144-14.765-15.559Z" transform="translate(-887.4 -567.037)" fill="#cbc4c4" stroke="#ddd4d4" stroke-width="1"/>
    <path id="Trazado_151424" data-name="Trazado 151424" d="M1404.743,904.318c-6.444.7,6.518,18.907-.8,18.992l45.083-3.144-14.766-15.559Z" transform="translate(-890.54 -566.669)" fill="none" stroke="#414042" stroke-miterlimit="10" stroke-width="2" opacity="0.4"/>
    <path id="Trazado_151425" data-name="Trazado 151425" d="M1416.341,887.632s41.77-5.194,50.267-.349.662,46.514,12.116,50.242c8.163,2.656-33.625,8.964-42.862,10.822C1416.892,952.163,1430.643,893.224,1416.341,887.632Z" transform="translate(-902.254 -550.043)" fill="#fffcf8"/>
    <path id="Trazado_151426" data-name="Trazado 151426" d="M1416.341,887.632s41.77-5.194,50.267-.349.662,46.514,12.116,50.242c8.163,2.656-33.625,8.964-42.862,10.822C1416.892,952.163,1430.643,893.224,1416.341,887.632Z" transform="translate(-902.254 -550.043)" fill="none" stroke="#414042" stroke-miterlimit="10" stroke-width="2" opacity="0.247"/>
    <g id="Grupo_106867" data-name="Grupo 106867" transform="translate(528.279 391.051)">
      <path id="Trazado_151427" data-name="Trazado 151427" d="M1536.7,1316.817a.333.333,0,0,1-.332.4c-3.307.323-6.615.554-9.937.625a.555.555,0,0,1-.537-.312h0c-.055-.178.1-.33.339-.336,3.328-.1,6.64-.348,9.95-.692a.48.48,0,0,1,.517.316Z" transform="translate(-1525.887 -1316.498)" fill="#f2e0c9"/>
    </g>
    <g id="Grupo_106868" data-name="Grupo 106868" transform="translate(528.777 393.006)">
      <path id="Trazado_151428" data-name="Trazado 151428" d="M1536.714,1331.875c.06.174-.081.324-.317.337-2.036.109-4.07.171-6.108.174a.614.614,0,0,1-.551-.285h0c-.062-.158.085-.29.326-.292,2.041-.021,4.078-.1,6.115-.225a.538.538,0,0,1,.535.291Z" transform="translate(-1529.724 -1331.583)" fill="#f2e0c9"/>
    </g>
    <g id="Grupo_106872" data-name="Grupo 106872" transform="translate(522.48 341.463)">
      <g id="Grupo_106869" data-name="Grupo 106869">
        <path id="Trazado_151429" data-name="Trazado 151429" d="M1482.668,934.127l-1.285-.011a.277.277,0,0,1-.253-.18c-.028-.1.039-.176.15-.175l1.285.012a.278.278,0,0,1,.256.178C1482.849,934.049,1482.781,934.128,1482.668,934.127Z" transform="translate(-1481.124 -933.761)" fill="#a19f9e"/>
      </g>
      <g id="Grupo_106870" data-name="Grupo 106870" transform="translate(3.757 0.034)">
        <path id="Trazado_151430" data-name="Trazado 151430" d="M1543.677,934.625l-2.507-.019a.267.267,0,0,1-.253-.154c-.024-.084.049-.151.165-.15l2.508.022a.265.265,0,0,1,.25.151C1543.864,934.559,1543.791,934.626,1543.677,934.625Zm-5.041-.038-2.556-.019a.272.272,0,0,1-.257-.158c-.025-.086.05-.154.167-.153l2.557.022a.27.27,0,0,1,.256.155C1538.827,934.519,1538.752,934.588,1538.635,934.587Zm-5.128-.037-2.585-.019a.277.277,0,0,1-.261-.162c-.026-.088.049-.159.168-.157l2.587.023a.275.275,0,0,1,.26.159C1533.7,934.48,1533.625,934.551,1533.507,934.55Zm-5.177-.037-2.595-.019a.28.28,0,0,1-.263-.167c-.027-.091.048-.163.167-.162l2.6.023a.279.279,0,0,1,.263.163C1528.524,934.441,1528.448,934.513,1528.33,934.513Zm-5.187-.037-2.585-.019a.282.282,0,0,1-.263-.171c-.027-.093.046-.167.164-.166l2.587.023a.282.282,0,0,1,.264.168C1523.336,934.4,1523.261,934.476,1523.142,934.475Zm-5.158-.038-2.556-.019a.282.282,0,0,1-.261-.175c-.028-.1.043-.171.16-.17l2.558.023a.282.282,0,0,1,.263.172C1518.175,934.362,1518.1,934.438,1517.984,934.437Zm-5.091-.039-2.508-.02a.28.28,0,0,1-.258-.178c-.028-.1.041-.175.155-.174l2.508.023a.282.282,0,0,1,.261.175C1513.08,934.322,1513.009,934.4,1512.893,934.4Z" transform="translate(-1510.121 -934.027)" fill="#a19f9e"/>
      </g>
      <g id="Grupo_106871" data-name="Grupo 106871" transform="translate(39.536 0.354)">
        <path id="Trazado_151431" data-name="Trazado 151431" d="M1787.812,936.8l-1.284-.01a.262.262,0,0,1-.247-.151c-.024-.082.047-.148.159-.147l1.284.011a.262.262,0,0,1,.246.149C1787.994,936.733,1787.923,936.8,1787.812,936.8Z" transform="translate(-1786.276 -936.49)" fill="#a19f9e"/>
      </g>
    </g>
    <g id="Grupo_106876" data-name="Grupo 106876" transform="translate(526.458 379.641)">
      <g id="Grupo_106873" data-name="Grupo 106873" transform="translate(0 4.911)">
        <path id="Trazado_151432" data-name="Trazado 151432" d="M1513.337,1266.769c-.513.043-.769.063-1.283.1a.216.216,0,0,1-.224-.2.2.2,0,0,1,.182-.231c.514-.038.77-.059,1.283-.1a.214.214,0,0,1,.223.2A.207.207,0,0,1,1513.337,1266.769Z" transform="translate(-1511.829 -1266.336)" fill="#f2e0c9"/>
      </g>
      <g id="Grupo_106874" data-name="Grupo 106874" transform="translate(3.726 0.33)">
        <path id="Trazado_151433" data-name="Trazado 151433" d="M1572.388,1231.413q-1.219.127-2.437.267a.193.193,0,0,1-.211-.194.231.231,0,0,1,.193-.242q1.219-.141,2.438-.268a.2.2,0,0,1,.21.2A.227.227,0,0,1,1572.388,1231.413Zm-4.87.568q-1.215.16-2.43.329a.189.189,0,0,1-.212-.189.235.235,0,0,1,.191-.245q1.215-.169,2.431-.329a.191.191,0,0,1,.211.191A.233.233,0,0,1,1567.519,1231.98Zm-4.856.679q-1.213.181-2.425.365a.189.189,0,0,1-.214-.186.236.236,0,0,1,.188-.248q1.214-.185,2.427-.365a.189.189,0,0,1,.213.188A.236.236,0,0,1,1562.662,1232.659Zm-4.849.74-2.424.378a.19.19,0,0,1-.216-.186.235.235,0,0,1,.186-.249l2.426-.377a.19.19,0,0,1,.215.187A.235.235,0,0,1,1557.813,1233.4Zm-4.848.752q-1.213.185-2.426.365a.2.2,0,0,1-.218-.188.23.23,0,0,1,.184-.248q1.214-.18,2.427-.365a.192.192,0,0,1,.217.187A.232.232,0,0,1,1552.965,1234.152Zm-4.853.715q-1.214.168-2.43.328a.2.2,0,0,1-.221-.191.222.222,0,0,1,.182-.244q1.217-.16,2.432-.329a.2.2,0,0,1,.219.19A.225.225,0,0,1,1548.113,1234.867Zm-4.863.629q-1.218.14-2.437.267a.209.209,0,0,1-.223-.2.213.213,0,0,1,.182-.238q1.22-.127,2.438-.268a.205.205,0,0,1,.222.194A.217.217,0,0,1,1543.25,1235.5Z" transform="translate(-1540.589 -1230.976)" fill="#f2e0c9"/>
      </g>
      <g id="Grupo_106875" data-name="Grupo 106875" transform="translate(37.756 0)">
        <path id="Trazado_151434" data-name="Trazado 151434" d="M1804.739,1228.87c-.514.038-.77.058-1.283.1a.2.2,0,0,1-.21-.2.224.224,0,0,1,.194-.236c.513-.043.77-.064,1.283-.1a.2.2,0,0,1,.211.2A.221.221,0,0,1,1804.739,1228.87Z" transform="translate(-1803.246 -1228.431)" fill="#f2e0c9"/>
      </g>
    </g>
    <g id="Grupo_106880" data-name="Grupo 106880" transform="translate(527.645 388.568)">
      <g id="Grupo_106877" data-name="Grupo 106877" transform="translate(0 4.104)">
        <path id="Trazado_151435" data-name="Trazado 151435" d="M1522.513,1329.347c-.51.026-.766.037-1.278.056a.236.236,0,0,1-.24-.161c-.021-.093.053-.173.164-.178.512-.021.768-.032,1.278-.059a.232.232,0,0,1,.239.161A.155.155,0,0,1,1522.513,1329.347Z" transform="translate(-1520.991 -1329.005)" fill="#f2e0c9"/>
      </g>
      <g id="Grupo_106878" data-name="Grupo 106878" transform="translate(3.705 0.214)">
        <path id="Trazado_151436" data-name="Trazado 151436" d="M1580.872,1299.4q-1.206.087-2.411.2a.209.209,0,0,1-.224-.184.2.2,0,0,1,.175-.222q1.2-.113,2.412-.2a.215.215,0,0,1,.224.191A.193.193,0,0,1,1580.872,1299.4Zm-4.81.439q-1.2.129-2.39.275a.2.2,0,0,1-.224-.173.2.2,0,0,1,.171-.222q1.2-.148,2.392-.28a.205.205,0,0,1,.224.179A.2.2,0,0,1,1576.062,1299.835Zm-4.773.576q-1.189.156-2.378.32a.2.2,0,0,1-.226-.165.2.2,0,0,1,.168-.221q1.19-.166,2.38-.325a.2.2,0,0,1,.224.17A.2.2,0,0,1,1571.289,1300.411Zm-4.753.652-2.374.335a.2.2,0,0,1-.228-.16.191.191,0,0,1,.166-.217l2.376-.34a.2.2,0,0,1,.226.163A.192.192,0,0,1,1566.536,1301.063Zm-4.749.667q-1.189.164-2.378.32a.206.206,0,0,1-.231-.158.183.183,0,0,1,.164-.211q1.191-.158,2.38-.325a.2.2,0,0,1,.229.16A.186.186,0,0,1,1561.788,1301.73Zm-4.761.622q-1.195.145-2.391.275a.214.214,0,0,1-.235-.157.173.173,0,0,1,.163-.2q1.2-.132,2.393-.28a.209.209,0,0,1,.232.158A.177.177,0,0,1,1557.026,1302.352Zm-4.79.515q-1.2.111-2.411.2a.225.225,0,0,1-.238-.159.162.162,0,0,1,.163-.189q1.207-.091,2.412-.2a.218.218,0,0,1,.235.159A.166.166,0,0,1,1552.236,1302.867Z" transform="translate(-1549.584 -1298.984)" fill="#f2e0c9"/>
      </g>
      <g id="Grupo_106879" data-name="Grupo 106879" transform="translate(37.19 0)">
        <path id="Trazado_151437" data-name="Trazado 151437" d="M1809.538,1297.752c-.512.019-.767.03-1.277.056a.222.222,0,0,1-.225-.2.192.192,0,0,1,.178-.22c.51-.027.766-.039,1.278-.059a.226.226,0,0,1,.225.2A.189.189,0,0,1,1809.538,1297.752Z" transform="translate(-1808.034 -1297.331)" fill="#f2e0c9"/>
      </g>
    </g>
    <g id="Grupo_106881" data-name="Grupo 106881" transform="translate(525.979 369.071)">
      <path id="Trazado_151438" data-name="Trazado 151438" d="M1528.223,1147.713a1.063,1.063,0,0,1-.837,1.1c-6.1.854-12.194,1.688-18.329,2.212a.931.931,0,0,1-.928-.955h0a.991.991,0,0,1,.807-1.1c6.148-.507,12.264-1.3,18.377-2.119a.829.829,0,0,1,.91.861Z" transform="translate(-1508.127 -1146.845)" fill="#a19f9e"/>
    </g>
    <g id="Grupo_106882" data-name="Grupo 106882" transform="translate(527.146 382.783)">
      <path id="Trazado_151439" data-name="Trazado 151439" d="M1536.836,1253.44a.919.919,0,0,1-.751,1.008c-5.963.92-11.929,1.8-17.95,2.23a.939.939,0,0,1-.991-.77h0a.794.794,0,0,1,.743-.908c6.04-.469,12.026-1.372,18.008-2.31a.82.82,0,0,1,.94.75Z" transform="translate(-1517.135 -1252.679)" fill="#f2e0c9"/>
    </g>
    <path id="Trazado_151440" data-name="Trazado 151440" d="M1484.824,1233.764c1.854-.1,3.709-.048,5.564-.082,2.193-.04,4.376-.366,6.563-.527,2.586-.191-.62.624,1.974.585,1.32-.02,8.438-.92,9.757-.946,1.11-.022,2.217-.111,3.32-.238,1.612-.219,3.214-.5,4.817-.779,1.43-.245,2.871-.109,4.294-.393,1.322-.263,4.54-.723,5.848-1.045a25.13,25.13,0,0,1,2.963-.249c.035-.006-.707-.828-.672-.833a34.75,34.75,0,0,1-.909-3.964,6.409,6.409,0,0,1-1.888,3.022,7.821,7.821,0,0,1-3.491,1.645c-1.444.293-2.926.42-4.389.576-1.911.2-3.823.4-5.738.563a74.252,74.252,0,0,1-11.153.276,48.861,48.861,0,0,1-10.538-1.823,55.126,55.126,0,0,1-10.148-4.218,2.817,2.817,0,0,1-.86-.719c.216,3.392.508,6.637.971,9.552A26.828,26.828,0,0,1,1484.824,1233.764Z" transform="translate(-957.784 -845.467)" fill="#cad8ef" style="mix-blend-mode: multiply;isolation: isolate"/>
    <g id="Grupo_106883" data-name="Grupo 106883" transform="translate(559.49 369.77)">
      <path id="Trazado_151441" data-name="Trazado 151441" d="M1772.8,1153.1a.987.987,0,0,1-.856,1q-2.144.188-4.283.42a.813.813,0,0,1-.884-.847h0a1.016,1.016,0,0,1,.858-1.034q2.142-.22,4.287-.4a.829.829,0,0,1,.879.86Z" transform="translate(-1766.781 -1152.242)" fill="#f2e0c9"/>
    </g>
    <g id="Grupo_106884" data-name="Grupo 106884" transform="translate(532.895 370.328)">
      <path id="Trazado_151442" data-name="Trazado 151442" d="M1586.437,1157.429a1.1,1.1,0,0,1-.87,1.143c-7.673,1.154-15.337,2.382-23.07,3.071a.965.965,0,0,1-.985-.96h0a1.013,1.013,0,0,1,.839-1.128c7.752-.683,15.441-1.876,23.137-3a.847.847,0,0,1,.949.873Z" transform="translate(-1561.51 -1156.547)" fill="#a19f9e"/>
    </g>
    <g id="Grupo_106885" data-name="Grupo 106885" transform="translate(559.564 373.764)">
      <path id="Trazado_151443" data-name="Trazado 151443" d="M1773.356,1183.941a.985.985,0,0,1-.848,1.014q-2.138.193-4.271.435a.812.812,0,0,1-.889-.839h0a1.018,1.018,0,0,1,.848-1.044q2.136-.237,4.276-.432a.837.837,0,0,1,.884.866Z" transform="translate(-1767.348 -1183.072)" fill="#f2e0c9"/>
    </g>
    <g id="Grupo_106886" data-name="Grupo 106886" transform="translate(525.472 360.241)">
      <path id="Trazado_151444" data-name="Trazado 151444" d="M1524.528,1079.581a1.01,1.01,0,0,1-.846,1.066c-6.17.642-12.341,1.272-18.532,1.682a.969.969,0,0,1-.931-.995h0a.969.969,0,0,1,.8-1.1c6.2-.373,12.389-.947,18.575-1.532a.875.875,0,0,1,.933.88Z" transform="translate(-1504.216 -1078.698)" fill="#a19f9e"/>
    </g>
    <g id="Grupo_106887" data-name="Grupo 106887" transform="translate(525.733 363.969)">
      <path id="Trazado_151445" data-name="Trazado 151445" d="M1530.252,1108.336a1.04,1.04,0,0,1-.852,1.075c-7.4.906-14.8,1.867-22.238,2.446a.948.948,0,0,1-.926-.983h0a.992.992,0,0,1,.809-1.113c7.454-.544,14.873-1.442,22.3-2.287a.838.838,0,0,1,.911.863Z" transform="translate(-1506.234 -1107.468)" fill="#a19f9e"/>
    </g>
    <g id="Grupo_106888" data-name="Grupo 106888" transform="translate(524.778 352.099)">
      <path id="Trazado_151446" data-name="Trazado 151446" d="M1519.359,1016.7a.884.884,0,0,1-.821.967c-6.232.38-12.466.753-18.705.989a1.018,1.018,0,0,1-.966-.968h0a.858.858,0,0,1,.762-1.017c6.251-.193,12.5-.5,18.744-.822a.943.943,0,0,1,.986.851Z" transform="translate(-1498.861 -1015.852)" fill="#a19f9e"/>
    </g>
    <g id="Grupo_106889" data-name="Grupo 106889" transform="translate(525.164 355.741)">
      <path id="Trazado_151447" data-name="Trazado 151447" d="M1526.1,1044.814a.946.946,0,0,1-.842,1c-7.488.617-14.974,1.272-22.478,1.669a.991.991,0,0,1-.945-.989h0a.924.924,0,0,1,.786-1.069c7.519-.346,15.023-.924,22.53-1.466a.89.89,0,0,1,.949.852Z" transform="translate(-1501.836 -1043.959)" fill="#a19f9e"/>
    </g>
    <g id="Grupo_106890" data-name="Grupo 106890" transform="translate(523.594 344.553)">
      <path id="Trazado_151448" data-name="Trazado 151448" d="M1510.4,958.374a.705.705,0,0,1-.761.808c-6.288.106-12.577.209-18.866.259a1.1,1.1,0,0,1-1.033-.864h0a.679.679,0,0,1,.688-.855c6.3-.013,12.6-.062,18.9-.112a1.075,1.075,0,0,1,1.073.764Z" transform="translate(-1489.719 -957.61)" fill="#a19f9e"/>
    </g>
    <g id="Grupo_106891" data-name="Grupo 106891" transform="translate(546.388 344.162)">
      <path id="Trazado_151449" data-name="Trazado 151449" d="M1678.5,955.265a.618.618,0,0,1-.629.733c-1.263.039-10.03.227-11.292.27a.91.91,0,0,1-.908-.7h0a.616.616,0,0,1,.638-.735c1.263-.034,10.03-.212,11.293-.243a.9.9,0,0,1,.9.677Z" transform="translate(-1665.655 -954.588)" fill="#a19f9e"/>
    </g>
    <g id="Grupo_106892" data-name="Grupo 106892" transform="translate(552.286 351.366)">
      <path id="Trazado_151450" data-name="Trazado 151450" d="M1724.467,1010.88a.639.639,0,0,1-.64.768c-1.306.059-10.38.386-11.686.45a.943.943,0,0,1-.95-.713h0a.638.638,0,0,1,.649-.77c1.307-.054,10.381-.371,11.688-.421a.931.931,0,0,1,.939.687Z" transform="translate(-1711.177 -1010.192)" fill="#a19f9e"/>
    </g>
    <g id="Grupo_106893" data-name="Grupo 106893" transform="translate(550.078 347.632)">
      <path id="Trazado_151451" data-name="Trazado 151451" d="M1706.977,982.051a.617.617,0,0,1-.629.732c-1.263.039-10.03.227-11.292.27a.911.911,0,0,1-.908-.7h0a.616.616,0,0,1,.638-.735c1.263-.033,10.031-.212,11.294-.242a.9.9,0,0,1,.9.677Z" transform="translate(-1694.136 -981.374)" fill="#a19f9e"/>
    </g>
    <g id="Grupo_106894" data-name="Grupo 106894" transform="translate(524.253 347.875)">
      <path id="Trazado_151452" data-name="Trazado 151452" d="M1519.31,984.048a.787.787,0,0,1-.8.87c-7.565.281-15.131.584-22.7.752a1.052,1.052,0,0,1-1-.923h0a.769.769,0,0,1,.728-.941c7.584-.117,15.165-.344,22.746-.553a.989.989,0,0,1,1.021.8Z" transform="translate(-1494.805 -983.252)" fill="#a19f9e"/>
    </g>
    <g id="Grupo_106895" data-name="Grupo 106895" transform="translate(561.13 344.064)">
      <path id="Trazado_151453" data-name="Trazado 151453" d="M1782.657,954.5c.019.374-.174.686-.428.69q-1.145.021-2.291.054c-.259.008-.483-.3-.5-.688h0c-.019-.386.174-.694.433-.7q1.145-.017,2.291-.025c.255,0,.477.295.5.669Z" transform="translate(-1779.436 -953.835)" fill="#a19f9e"/>
    </g>
    <g id="Grupo_106896" data-name="Grupo 106896" transform="translate(547.065 351.759)">
      <path id="Trazado_151454" data-name="Trazado 151454" d="M1674.866,1014.03c.041.462-.183.858-.5.875q-1.418.08-2.835.174c-.32.022-.612-.353-.653-.829h0c-.042-.477.183-.868.5-.887q1.418-.075,2.836-.139c.315-.015.6.343.646.805Z" transform="translate(-1670.875 -1013.225)" fill="#a19f9e"/>
    </g>
    <g id="Grupo_106897" data-name="Grupo 106897" transform="translate(550.722 355.416)">
      <path id="Trazado_151455" data-name="Trazado 151455" d="M1703.093,1042.257c.041.462-.183.858-.5.875q-1.418.08-2.835.174c-.32.022-.612-.353-.653-.829h0c-.042-.477.183-.868.5-.887q1.418-.075,2.836-.139c.315-.015.6.343.646.805Z" transform="translate(-1699.103 -1041.451)" fill="#a19f9e"/>
    </g>
    <g id="Grupo_106898" data-name="Grupo 106898" transform="translate(552.32 359.131)">
      <path id="Trazado_151456" data-name="Trazado 151456" d="M1725.259,1070.834a.665.665,0,0,1-.658.805c-1.359.075-10.8.506-12.153.586a.98.98,0,0,1-1-.733h0a.663.663,0,0,1,.668-.808c1.359-.069,10.8-.49,12.155-.556a.969.969,0,0,1,.984.706Z" transform="translate(-1711.435 -1070.128)" fill="#a19f9e"/>
    </g>
    <g id="Grupo_106899" data-name="Grupo 106899" transform="translate(546.999 359.829)">
      <path id="Trazado_151457" data-name="Trazado 151457" d="M1674.433,1076.332c.042.471-.187.874-.507.891q-1.444.082-2.888.178c-.326.022-.623-.36-.665-.845h0c-.043-.486.186-.885.513-.9q1.444-.076,2.89-.141c.321-.015.616.349.658.821Z" transform="translate(-1670.367 -1075.511)" fill="#a19f9e"/>
    </g>
    <path id="Trazado_151459" data-name="Trazado 151459" d="M1481.11,1484.316v2.949l13.325-2.949Z" transform="translate(-958.632 -1071.522)" fill="#f2e0c9"/>
    <path id="Trazado_151460" data-name="Trazado 151460" d="M1475.071,1165.987l-60.334,13.354c-2.558.506-5.407-.158-5.325-5.4l.511-32.93a4.1,4.1,0,0,1,3.69-4.012l22.9-2.275a4.1,4.1,0,0,0,2.673-1.374l2.832-3.227a4.1,4.1,0,0,1,2.715-1.378l30.291-2.166c2.421-.216,5.031,2.422,4.993,4.853l-1.644,30.6A4.1,4.1,0,0,1,1475.071,1165.987Z" transform="translate(-896.221 -760.122)" fill="#e89952"/>
    <path id="Trazado_151461" data-name="Trazado 151461" d="M1483.958,1171.913l-60.769,12.033a4.1,4.1,0,0,1-4.891-4.082l.511-32.93a4.1,4.1,0,0,1,3.691-4.012l22.9-2.275a4.1,4.1,0,0,0,2.673-1.374l2.832-3.227a4.1,4.1,0,0,1,2.715-1.378l29.675-2.643a4.1,4.1,0,0,1,4.459,4.143l-.494,31.789A4.1,4.1,0,0,1,1483.958,1171.913Z" transform="translate(-903.958 -764.861)" fill="#f4b671"/>
    <path id="Trazado_151462" data-name="Trazado 151462" d="M1894.07,1132.888l-1,.089a4.529,4.529,0,0,1,.256,1.318,4.631,4.631,0,0,1-.109,2.439,59.705,59.705,0,0,0-1.567,7.489c-.254,2.072-.426,4.154-.545,6.238-.443,7.73-.191,15.494-.884,23.208l4.517-.894a4.1,4.1,0,0,0,3.3-3.954l.493-31.789A4.1,4.1,0,0,0,1894.07,1132.888Z" transform="translate(-1314.735 -765.612)" fill="#e89952"/>
    <path id="Trazado_151463" data-name="Trazado 151463" d="M1916.5,927.865c-3.61.831-4.632-4.822-1.04-5.649,3.152-.726,5.508,1.5,6.825,4.1.229.227.3.609.6.851,10.755,8.817,6.113,17.4,4.263,18.414-3.7,2.034-8.374-2.292-10.926-5.557a2.785,2.785,0,0,1,.18-3.731,2.943,2.943,0,0,1,.159-.843,2.144,2.144,0,0,1-.278-.18l-.54-.5a2.871,2.871,0,0,1-.626-1.326l-.3-.979a2.174,2.174,0,0,1,.048-1.145,2.142,2.142,0,0,1,.432-1.034,3.211,3.211,0,0,1,1.824-1.166c.049-.007.1-.01.149-.015a7.966,7.966,0,0,0-.5-.936q-.126-.163-.242-.333Q1916.193,927.627,1916.5,927.865Z" transform="translate(-1334.762 -582.127)"/>
    <path id="Trazado_151464" data-name="Trazado 151464" d="M1904.7,1448.135a22.464,22.464,0,0,1,3.251.568l-.724,8.983-3.028.493C1905.3,1448.53,1904.6,1448.148,1904.7,1448.135Z" transform="translate(-1326.907 -1040.024)" fill="#f99e82"/>
    <path id="Trazado_151465" data-name="Trazado 151465" d="M1865.38,1512.3c.579.291.49,2.092.154,2.734s-9.81.64-9.7-.473,2.43-1.811,4.928-1.865a13.358,13.358,0,0,1,2.932.152C1864.857,1513.14,1864.786,1512,1865.38,1512.3Z" transform="translate(-1284.807 -1095.838)" fill="#fff"/>
    <path id="Trazado_151466" data-name="Trazado 151466" d="M1866.219,1508.6c.573.29.6,2.1.269,2.741s-9.837.638-9.725-.475,2.409-1.812,4.884-1.867c.472-.011.949-.749,1.733-.333C1865.135,1509.6,1865.63,1508.3,1866.219,1508.6Z" transform="translate(-1285.613 -1092.607)" fill="#008f85"/>
    <path id="Trazado_151467" data-name="Trazado 151467" d="M1886.12,1511.715c.537-.086.884.331.92,1.163" transform="translate(-1311.168 -1095.362)" fill="#fff"/>
    <path id="Trazado_151468" data-name="Trazado 151468" d="M1879.658,1512.735c.506-.081.834.312.867,1.1" transform="translate(-1305.543 -1096.25)" fill="#fff"/>
    <path id="Trazado_151469" data-name="Trazado 151469" d="M1872.519,1514.24c.457-.073.752.282.783.989" transform="translate(-1299.329 -1097.56)" fill="#fff"/>
    <path id="Trazado_151470" data-name="Trazado 151470" d="M1910.839,1162.222l-2.894,20.978,7.316,2.195,7.3-23.476Z" transform="translate(-1330.166 -790.895)"/>
    <path id="Trazado_151471" data-name="Trazado 151471" d="M2054.6,1470.405l3.158-1.278,1.091,6.365-2.581.349Z" transform="translate(-1457.816 -1058.301)" fill="#f99e82"/>
    <path id="Trazado_151472" data-name="Trazado 151472" d="M2027.634,1510.361c.588.271.562,2.075.247,2.728s-9.782.975-9.708-.141,2.367-1.893,4.862-2.032a13.341,13.341,0,0,1,2.935.052C2027.14,1511.216,2027.03,1510.084,2027.634,1510.361Z" transform="translate(-1426.112 -1094.154)" fill="#fff"/>
    <path id="Trazado_151473" data-name="Trazado 151473" d="M2028.348,1506.755c.583.271.674,2.077.362,2.73s-9.81.974-9.736-.142,2.346-1.894,4.818-2.033c.47-.026.922-.781,1.719-.392C2027.3,1507.789,2027.75,1506.477,2028.348,1506.755Z" transform="translate(-1426.809 -1091.019)" fill="#008f85"/>
    <path id="Trazado_151474" data-name="Trazado 151474" d="M2047.808,1511.184c.534-.1.895.3.959,1.131" transform="translate(-1451.908 -1094.895)" fill="#fff"/>
    <path id="Trazado_151475" data-name="Trazado 151475" d="M2041.385,1512.427c.5-.1.844.283.9,1.066" transform="translate(-1446.317 -1095.977)" fill="#fff"/>
    <path id="Trazado_151476" data-name="Trazado 151476" d="M2034.3,1514.178c.454-.089.761.255.816.962" transform="translate(-1440.151 -1097.503)" fill="#fff"/>
    <path id="Trazado_151477" data-name="Trazado 151477" d="M2007.894,1346.268l-7.667-.2a23.835,23.835,0,0,0,1.153,4.261c1.156,3.311,5.356,12.645,5.69,13.732s5.219,1.025,4.865-.31S2009.071,1351.078,2007.894,1346.268Z" transform="translate(-1410.491 -951.183)"/>
    <path id="Trazado_151478" data-name="Trazado 151478" d="M1907.332,1328.265l-7.316-2.092s-1.126,17.835-1.18,18.87,5.641,1.93,5.784.529S1905.744,1332.615,1907.332,1328.265Z" transform="translate(-1322.237 -933.868)"/>
    <path id="Trazado_151479" data-name="Trazado 151479" d="M1926.74,1162.221l-.527,3.819c.593.313,1.188.62,1.783.93a10.313,10.313,0,0,1,1.9,1.119,4.779,4.779,0,0,1,1.394,2.694,14.866,14.866,0,0,1,.371,4.152,27.557,27.557,0,0,1-.53,4.324,28.4,28.4,0,0,0-.856,4.049,1.153,1.153,0,0,1-.243.658,6.617,6.617,0,0,1-.153,1.045l1.28.384,7.3-23.476Z" transform="translate(-1346.067 -790.894)"/>
    <path id="Trazado_151480" data-name="Trazado 151480" d="M1959.935,1164.22l5.231,22.614s6.484,1.2,7.656.128c-2.759-12.117,1.529-15.209-2.065-23.116C1969.851,1161.849,1959.935,1164.22,1959.935,1164.22Z" transform="translate(-1375.42 -791.876)"/>
    <path id="Trazado_151481" data-name="Trazado 151481" d="M2043.384,1348.8c.553,1.706,1.2,3.38,1.828,5.058.675,1.8,1.255,3.631,1.754,5.486a24.233,24.233,0,0,1,.623,2.738c.134.908.207,1.823.295,2.736.028.281.058.564.1.848.718-.163,1.215-.472,1.094-.931-.354-1.335-2.865-12.67-4.042-17.48l-2.139-.057C2043.047,1347.735,2043.213,1348.27,2043.384,1348.8Z" transform="translate(-1447.63 -952.167)"/>
    <path id="Trazado_151482" data-name="Trazado 151482" d="M1961.307,1170.132a4.942,4.942,0,0,1,3.616-1.911c1.315-.048,2.939-.759,4.065.036,1.331.94,1.369,2.8,1.26,4.276a49.531,49.531,0,0,0,.581,14.871,3.411,3.411,0,0,0,1.992-.443c-2.759-12.117,1.529-15.209-2.065-23.116-.907-2-10.822.375-10.822.375l1.2,5.928C1961.19,1170.138,1961.276,1170.184,1961.307,1170.132Z" transform="translate(-1375.42 -791.876)"/>
    <path id="Trazado_151483" data-name="Trazado 151483" d="M1944.664,1340.108c-.2.775-.367,1.558-.5,2.347-.242,1.463-.3,2.943-.392,4.42-.1,1.542-.194,3.084-.247,4.628-.047,1.373-.035,2.744-.123,4.116-.035.551-.078,1.115-.075,1.675a.472.472,0,0,0,.02-.094c.143-1.4,1.123-12.957,2.712-17.307l-1.263-.361C1944.759,1339.723,1944.713,1339.915,1944.664,1340.108Z" transform="translate(-1360.966 -945.496)"/>
    <path id="Trazado_151484" data-name="Trazado 151484" d="M1894.28,1003.264c-.521,2.673,1.152,5.592,2.336,7.732,1.967,3.555,1.388,10.531,1.229,11.63s5.733,2.219,11.849.131,3.64-4.111,3.64-4.111a35.719,35.719,0,0,1-7-18.946c-.13-2.613-9.828.054-9.828.054" transform="translate(-1318.186 -648.695)" fill="#00978e"/>
    <path id="Trazado_151485" data-name="Trazado 151485" d="M1927.677,1017.977l.931-.244c-1.441-.775-5.417,3.089-5.417,3.089-1.807,3.782-1.694,6.661-4.516,8.355-.762-.014.758,2.229-.394,2.482l.789,3.005a35.266,35.266,0,0,0,5.122-.754c2.917-2.681,4.635-8.833,4.643-8.854Z" transform="translate(-1339.163 -665.3)" fill="#008f85"/>
    <path id="Trazado_151487" data-name="Trazado 151487" d="M1938.54,1003.67c-1.331,5.07-3.369,10.056-3.071,10.778.718,1.742.154,3.147,2.24,1.619,3.2-2.341,4.326-5.215,5.873-8.664.62-1.383.835-5.276-1.5-7.087C1939.652,998.436,1938.54,1003.67,1938.54,1003.67Z" transform="translate(-1354.097 -649.874)" fill="#00978e"/>
    <path id="Trazado_151489" data-name="Trazado 151489" d="M1848.76,1105.3c.144-.143.439-1.081.581-1.021a10.294,10.294,0,0,0,3.548.347c1.749.006,5.418-1.24,7.123-1.16a1.916,1.916,0,0,1,1.019,3.516c-1.855,1.2-5.216.332-7.108.08-1.228-.163-2.31-.35-3.536-.481-.261-.028-1.018.063-1.892.043C1848.658,1105.714,1849.292,1105.886,1848.76,1105.3Z" transform="translate(-1278.416 -740.011)" fill="#f99e82"/>
    <path id="Trazado_151490" data-name="Trazado 151490" d="M1828.22,1103.085a9.628,9.628,0,0,0-1.774-1.576l-.519.41c-.228.336-1.114.295-1.708.222-1.03-.125-1.378,2.273-.447,2.495,1.257.3,3.642.607,4.4-.12" transform="translate(-1256.426 -738.312)" fill="#f99e82"/>
    <path id="Trazado_151491" data-name="Trazado 151491" d="M1873.1,1103.634a1.509,1.509,0,0,1,.6,1.975c-.61,1.07-2.22,1.483-3.343,1.582a18.668,18.668,0,0,1-4.157-.432,14.838,14.838,0,0,0-2.889-.027c1.215.131,2.29.316,3.508.478,1.892.252,5.254,1.12,7.109-.08A1.909,1.909,0,0,0,1873.1,1103.634Z" transform="translate(-1291.318 -740.162)" fill="#f99e82" style="mix-blend-mode: multiply;isolation: isolate"/>
    <path id="Trazado_151492" data-name="Trazado 151492" d="M1818.741,1104.71a14.992,14.992,0,0,1-2.921-.784" transform="translate(-1249.976 -740.416)" fill="none" stroke="#f99e82" stroke-linecap="round" stroke-linejoin="round" stroke-width="2" opacity="0.2"/>
    <path id="Trazado_151493" data-name="Trazado 151493" d="M1819.026,1110.216a14.985,14.985,0,0,1-2.953-.652" transform="translate(-1250.196 -745.323)" fill="none" stroke="#f99e82" stroke-linecap="round" stroke-linejoin="round" stroke-width="2"/>
    <path id="Trazado_151494" data-name="Trazado 151494" d="M1819.4,1115.346a14.993,14.993,0,0,1-2.954-.653" transform="translate(-1250.525 -749.788)" fill="none" stroke="#f99e82" stroke-linecap="round" stroke-linejoin="round" stroke-width="2"/>
    <path id="Trazado_151495" data-name="Trazado 151495" d="M1822.857,1121.467a14.991,14.991,0,0,1-2.971-.569" transform="translate(-1253.516 -755.189)" fill="none" stroke="#f99e82" stroke-linecap="round" stroke-linejoin="round" stroke-width="2"/>
    <path id="Trazado_151496" data-name="Trazado 151496" d="M1925.322,976.538l2.3-.224,1.009,3.351s-2.66,2.5-2.9.635C1925.65,979.644,1925.322,976.538,1925.322,976.538Z" transform="translate(-1345.291 -629.338)" fill="#f99e82"/>
    <path id="Trazado_151497" data-name="Trazado 151497" d="M1926.5,989.1c-.056-.441-.17-1.126-.212-1.526a1.315,1.315,0,0,0,.332.273c.369.206,1.133-.455,1.479-.2Z" transform="translate(-1346.13 -639.134)" fill="#f99e82" style="mix-blend-mode: multiply;isolation: isolate"/>
    <path id="Trazado_151498" data-name="Trazado 151498" d="M1913.123,937.664h-3.943a8.507,8.507,0,0,1-.432,1.933,8.533,8.533,0,0,0-.122,4.438c.095.522.1.93.37,1.045a6.668,6.668,0,0,0,3.593-1.028l1.38-2.109a6.557,6.557,0,0,0,.044-1.549A6.092,6.092,0,0,0,1913.123,937.664Z" transform="translate(-1330.555 -595.695)" fill="#f99e82"/>
    <path id="Trazado_151499" data-name="Trazado 151499" d="M1904,968.519c.028.352.416.216.664.709.127.252.37-.207.343-.559s-.414-1.583-.438-1.295C1904.477,968.516,1903.973,968.167,1904,968.519Z" transform="translate(-1326.731 -621.518)" fill="#f99e82"/>
    <path id="Trazado_151500" data-name="Trazado 151500" d="M1900.7,927.4a.287.287,0,0,1-.089-.184,1.972,1.972,0,0,1,.2-.745,3.109,3.109,0,0,1,.786-1.322,1.654,1.654,0,0,1,1.292-.453c.05.005.1.021.147.031a.161.161,0,0,1,.038-.033,2.7,2.7,0,0,1,1.423-.359,2.954,2.954,0,0,1,1.463.541,4.051,4.051,0,0,1,1.17.962,2.623,2.623,0,0,1,.4,1.127l.347,4.21-1.586.594c-.389-1.48-.429-3.122-2.379-3.654l-1.1-.135-2.117-.261C1900.508,927.7,1900.545,927.454,1900.7,927.4Z" transform="translate(-1323.744 -584.095)"/>
    <path id="Trazado_151501" data-name="Trazado 151501" d="M1839.13,1029.752a1.492,1.492,0,0,1,.181-.061C1839.534,1029.633,1839.446,1029.66,1839.13,1029.752Z" transform="translate(-1270.266 -675.772)" fill="#aacaf9" style="mix-blend-mode: multiply;isolation: isolate"/>
    <path id="Trazado_151502" data-name="Trazado 151502" d="M1912.179,953.553a5.275,5.275,0,0,0-4.149-3.1,4.019,4.019,0,0,1,2.653.2C1911.668,951.275,1912.179,953.553,1912.179,953.553Z" transform="translate(-1330.239 -606.697)"/>
  </g>
</svg>
