<svg xmlns="http://www.w3.org/2000/svg" xmlns:xlink="http://www.w3.org/1999/xlink" width="363.568" height="281.868" viewBox="0 0 363.568 281.868">
  <defs>
    <radialGradient id="radial-gradient" cx="0.5" cy="0.5" r="0.5" gradientUnits="objectBoundingBox">
      <stop offset="0" stop-color="#f6f6f7"/>
      <stop offset="0.477" stop-color="#f9f9fa"/>
      <stop offset="0.715" stop-color="#fff"/>
    </radialGradient>
    <linearGradient id="linear-gradient" x1="0.5" x2="0.5" y2="1" gradientUnits="objectBoundingBox">
      <stop offset="0" stop-color="#f5f5f5"/>
      <stop offset="0.25" stop-color="#f5f5f5"/>
      <stop offset="1" stop-color="#eeeef2"/>
    </linearGradient>
    <radialGradient id="radial-gradient-4" cx="0.076" cy="0.019" r="1.465" gradientTransform="translate(0.001)" xlink:href="#radial-gradient"/>
  </defs>
  <g id="img6" transform="translate(-39.691 -83.482)">
    <path id="Trazado_158666" data-name="Trazado 158666" d="M401.6,364.8c.409-37.9-1.6-76.161-8.868-112.122-7.727-38.173-21.755-73.775-42.01-96.738s-47.053-31.931-70.371-18.787c-8.83,4.974-17.129,12.962-26.384,15.019-7.813,1.737-15.973-1.024-22.71-7.683-11.442-11.312-17.98-32.3-28.614-45.534-13.422-16.713-32.14-18.918-48.365-11.251s-30.377,24.03-43.251,41.871c-22.346,30.967-41.88,67.3-57.871,107.381V364.8Z" transform="translate(-1.826)" fill="#dfdfe5"/>
    <path id="Trazado_158667" data-name="Trazado 158667" d="M386.1,371.432a468.334,468.334,0,0,0-8.087-69.878c-7.631-38.173-21.512-73.775-41.532-96.738s-46.533-31.931-69.591-18.787c-8.725,4.974-16.938,12.962-26.088,15.019-7.727,1.737-15.792-1.024-22.459-7.683-11.312-11.312-17.771-32.3-28.285-45.534-13.283-16.712-31.783-18.918-47.835-11.251s-30.038,24.03-42.765,41.871a482.448,482.448,0,0,0-46.307,81.536V371.432Z" transform="translate(-1.826 -6.629)" fill="#e3e3e8" style="mix-blend-mode: multiply;isolation: isolate"/>
    <path id="Trazado_158668" data-name="Trazado 158668" d="M372.227,380.068q-1.15-7.482-2.555-14.846c-7.344-38.172-20.705-73.775-39.97-96.738s-44.77-31.93-66.951-18.786c-8.4,4.974-16.3,12.961-25.107,15.018-7.431,1.737-15.192-1.024-21.608-7.682-10.878-11.3-17.1-32.3-27.216-45.535-12.78-16.712-30.576-18.917-46.021-11.251s-28.9,24.031-41.142,41.872c-18.3,26.66-34.613,57.271-48.5,90.843v47.106Z" transform="translate(-1.826 -15.264)" fill="#dfdfe5" style="mix-blend-mode: multiply;isolation: isolate"/>
    <path id="Trazado_158669" data-name="Trazado 158669" d="M360.554,388.233c-7.548-23.459-17.73-44.293-30.527-59.547-19.264-22.954-44.77-31.931-66.951-18.787-8.4,4.974-16.3,12.962-25.107,15.019-7.431,1.737-15.192-1.024-21.608-7.683-10.878-11.3-17.1-32.3-27.216-45.534-12.78-16.713-30.576-18.917-46.021-11.251s-28.9,24.03-41.142,41.871c-17.4,25.348-33,54.274-46.429,85.913Z" transform="translate(-2.151 -23.43)" fill="#dfdfe5" style="mix-blend-mode: multiply;isolation: isolate"/>
    <path id="Trazado_158670" data-name="Trazado 158670" d="M318.926,236.62q-3.215,5.561-6.441,11.121c-2.943,5.07-5.878,10.148-8.881,15.184a39.126,39.126,0,0,1-3.846,5.66,40.877,40.877,0,0,1-7.154,6.1c-.182.131-.382.269-.573.4A80.157,80.157,0,0,1,279.921,282l-72.169,46.359a8.574,8.574,0,0,1-12.563-4.463L184.224,292.78V277.44l23.405-3.212,4.592,16.929,1,3.673a2.466,2.466,0,0,0,3.612,1.493l48.035-27.512a33.429,33.429,0,0,0,3.195-5.026c1.988-3.759,3.542-7.753,5.878-11.3a40.318,40.318,0,0,1,6.615-7.561c1.25-1.137,2.544-2.222,3.863-3.282.678-.546,1.354-1.085,2.041-1.615.6-.46,1.128-1.111,1.953-1.093,2.482.043,1.909,4,1.276,5.443-.895,2.031-2.492,3.681-3.4,5.713a14,14,0,0,0-.842,2.665c.668-.286,1.336-.564,2-.851,8.646-3.776,15.93-10.166,22.077-17.328.929-1.086,2.093-2.3,3.516-2.145a2.182,2.182,0,0,1,1.145.5,2.866,2.866,0,0,1,.66.808l.26-.209a6.276,6.276,0,0,1,2.031-1.2,2.208,2.208,0,0,1,2.2.469C320.272,233.807,319.612,235.422,318.926,236.62Z" transform="translate(-19.604 -20.175)" fill="#ffc582"/>
    <path id="Trazado_158671" data-name="Trazado 158671" d="M212.222,297.748c-8.8.6-22.824-1.207-28-1.945V284.031l23.405-3.212Z" transform="translate(-19.604 -26.766)" fill="#eca0a4" style="mix-blend-mode: multiply;isolation: isolate"/>
    <path id="Trazado_158672" data-name="Trazado 158672" d="M45.66,377.79l-2.434,14.455H74.858L69.4,385.716V285.8H44.861l.1,10.774Z" transform="translate(-0.479 -27.441)" fill="#ffc582"/>
    <path id="Trazado_158673" data-name="Trazado 158673" d="M69.66,285.8v14.073c-6.988-.121-17.5-1.935-24.447-3.3l-.1-10.774Z" transform="translate(-0.736 -27.441)" fill="#eca0a4" style="mix-blend-mode: multiply;isolation: isolate"/>
    <rect id="Rectángulo_34290" data-name="Rectángulo 34290" width="103.279" height="30.652" transform="translate(65.373 334.151)"/>
    <rect id="Rectángulo_34291" data-name="Rectángulo 34291" width="103.279" height="9.675" transform="translate(65.373 334.151)" fill="#343435"/>
    <g id="Grupo_121032" data-name="Grupo 121032" transform="translate(71.403 333.745)">
      <g id="Grupo_121030" data-name="Grupo 121030">
        <rect id="Rectángulo_34292" data-name="Rectángulo 34292" width="3.59" height="12.847"/>
        <rect id="Rectángulo_34293" data-name="Rectángulo 34293" width="3.59" height="12.847" transform="translate(25.469)"/>
      </g>
      <g id="Grupo_121031" data-name="Grupo 121031" transform="translate(62.16)">
        <rect id="Rectángulo_34294" data-name="Rectángulo 34294" width="3.59" height="12.847"/>
        <rect id="Rectángulo_34295" data-name="Rectángulo 34295" width="3.59" height="12.847" transform="translate(25.469)"/>
      </g>
    </g>
    <path id="Trazado_158674" data-name="Trazado 158674" d="M141.913,215.226s35.654.919,54.726,26.164a34.944,34.944,0,0,1,5.32,10.473l6.871,29.85-30.984,2.125Z" transform="translate(-13.865 -17.869)" fill="url(#radial-gradient)"/>
    <path id="Trazado_158675" data-name="Trazado 158675" d="M106.608,215.226s-35.654.919-54.726,26.164a34.944,34.944,0,0,0-5.32,10.473l-6.871,31.409,30.984.566Z" transform="translate(0 -17.869)" fill="url(#radial-gradient)"/>
    <path id="Trazado_158676" data-name="Trazado 158676" d="M172.222,335.34l2.355-3.183-2.359-5.285V260.841c0-27.1-21.23-49.259-47.188-49.259h-9.108c-25.958,0-47.188,22.161-47.188,49.259v66.031l-2.359,5.285,2.355,3.183L65.22,343.8,68.6,353.974H172.346L175.73,343.8Z" transform="translate(-3.463 -17.375)" fill="url(#radial-gradient)"/>
    <path id="Trazado_158677" data-name="Trazado 158677" d="M101.081,118.632H91.814v34.784s-.166,16.018,9.267,19.328Z" transform="translate(-7.07 -4.768)" fill="#3b2314"/>
    <path id="Trazado_158678" data-name="Trazado 158678" d="M155.757,118.632h9.267v34.784s.165,16.018-9.267,19.328Z" transform="translate(-15.743 -4.768)" fill="#3b2314"/>
    <path id="Trazado_158679" data-name="Trazado 158679" d="M141.1,190.217v22.651a14.186,14.186,0,0,1-28.371,0V190.217a14.186,14.186,0,0,1,28.371,0Z" transform="translate(-9.907 -12.553)" fill="#ffc582"/>
    <path id="Trazado_158680" data-name="Trazado 158680" d="M141.1,190.217v16.521a60.613,60.613,0,0,1-28.371-6.442V190.217a14.186,14.186,0,0,1,28.371,0Z" transform="translate(-9.907 -12.553)" fill="#eca0a4" style="mix-blend-mode: multiply;isolation: isolate"/>
    <path id="Trazado_158681" data-name="Trazado 158681" d="M151.635,125.811v40.256A24.4,24.4,0,0,1,127.31,190.4h-4.7a24.408,24.408,0,0,1-24.334-24.334V125.811a24.408,24.408,0,0,1,24.334-24.334h4.7A24.4,24.4,0,0,1,151.635,125.811Z" transform="translate(-7.947 -2.441)" fill="#ffc582"/>
    <path id="Trazado_158682" data-name="Trazado 158682" d="M151.635,125.811V136.95c-30.914,5.842-46.3-1.936-53.356-8.256v-2.882a24.408,24.408,0,0,1,24.334-24.334h4.7A24.4,24.4,0,0,1,151.635,125.811Z" transform="translate(-7.947 -2.441)" fill="#eca0a4" style="mix-blend-mode: multiply;isolation: isolate"/>
    <path id="Trazado_158683" data-name="Trazado 158683" d="M156.351,114.919c0-10-14.447-18.112-32.268-18.112s-32.269,8.109-32.269,18.112c0,3.34,1.617,6.466,4.427,9.153v7.767L97.211,149h1.564a2.389,2.389,0,0,0,2.449-2.323v-10.9a11.514,11.514,0,0,0,3.569-6.332,53.6,53.6,0,0,0,38.579,0,11.516,11.516,0,0,0,3.57,6.332v10.9A2.388,2.388,0,0,0,149.39,149h1.564l.969-17.158v-7.767C154.733,121.385,156.351,118.259,156.351,114.919Z" transform="translate(-7.07 -1.807)" fill="#3b2314"/>
    <path id="Trazado_158684" data-name="Trazado 158684" d="M115.067,172.95a12.274,12.274,0,0,0,24.338,0Z" transform="translate(-10.224 -12.135)" fill="#fff"/>
    <path id="Trazado_158685" data-name="Trazado 158685" d="M130.852,166.876h-4.716a1.805,1.805,0,0,1-1.8-1.8h0a1.805,1.805,0,0,1,1.8-1.8h4.716a1.805,1.805,0,0,1,1.8,1.8h0A1.805,1.805,0,0,1,130.852,166.876Z" transform="translate(-11.481 -10.823)" fill="#df757b"/>
    <g id="Grupo_121037" data-name="Grupo 121037" transform="translate(98.163 134.535)">
      <g id="Grupo_121033" data-name="Grupo 121033" transform="translate(1.617 7.989)">
        <path id="Trazado_158686" data-name="Trazado 158686" d="M117.566,154.486a.539.539,0,0,1-.381-.157,4.989,4.989,0,0,0-7.055,0,.539.539,0,0,1-.762-.762,6.066,6.066,0,0,1,8.58,0,.538.538,0,0,1-.381.92Z" transform="translate(-109.21 -151.789)" fill="#944c52"/>
      </g>
      <g id="Grupo_121034" data-name="Grupo 121034">
        <path id="Trazado_158687" data-name="Trazado 158687" d="M118.39,146.768a1.077,1.077,0,0,1-.762-.315,5.974,5.974,0,0,0-8.448,0,1.078,1.078,0,0,1-1.525-1.525,8.13,8.13,0,0,1,11.5,0,1.078,1.078,0,0,1-.762,1.84Z" transform="translate(-107.339 -142.546)" fill="#3b2314"/>
      </g>
      <g id="Grupo_121035" data-name="Grupo 121035" transform="translate(27.186 7.989)">
        <path id="Trazado_158688" data-name="Trazado 158688" d="M147.147,154.486a.541.541,0,0,1-.381-.157,4.988,4.988,0,0,0-7.054,0,.539.539,0,0,1-.762-.762,6.065,6.065,0,0,1,8.579,0,.538.538,0,0,1-.381.92Z" transform="translate(-138.791 -151.789)" fill="#944c52"/>
      </g>
      <g id="Grupo_121036" data-name="Grupo 121036" transform="translate(25.569)">
        <path id="Trazado_158689" data-name="Trazado 158689" d="M147.971,146.768a1.074,1.074,0,0,1-.762-.315,5.975,5.975,0,0,0-8.449,0,1.078,1.078,0,1,1-1.525-1.525,8.13,8.13,0,0,1,11.5,0,1.078,1.078,0,0,1-.762,1.84Z" transform="translate(-136.92 -142.546)" fill="#3b2314"/>
      </g>
    </g>
    <path id="Trazado_158690" data-name="Trazado 158690" d="M127.483,195.089h-6.7a2.987,2.987,0,0,1-2.979-2.979h0a2.987,2.987,0,0,1,2.979-2.979h6.7a2.988,2.988,0,0,1,2.979,2.979h0A2.987,2.987,0,0,1,127.483,195.089Z" transform="translate(-10.595 -14.33)"/>
    <g id="Grupo_121038" data-name="Grupo 121038" transform="translate(84.403 154.078)">
      <path id="Trazado_158691" data-name="Trazado 158691" d="M115.215,189.81H104.193a10.458,10.458,0,0,1-9.785-6.664l-.054-.192-2.919-16.633a.993.993,0,0,1,1.955-.344l2.9,16.533a8.481,8.481,0,0,0,7.9,5.315h11.022a.993.993,0,1,1,0,1.985Z" transform="translate(-91.419 -165.156)" fill="#404041"/>
    </g>
    <g id="Grupo_121041" data-name="Grupo 121041" transform="translate(80.456 139.183)">
      <g id="Grupo_121039" data-name="Grupo 121039" transform="translate(0 0)">
        <path id="Trazado_158692" data-name="Trazado 158692" d="M96.732,149.045v16.691a1.12,1.12,0,0,1-1.121,1.122H93.1c-.138,0-.277-.01-.407-.02-3.256-.318-5.838-4.428-5.838-9.453s2.582-9.124,5.838-9.442c.13-.01.269-.02.407-.02h2.513A1.12,1.12,0,0,1,96.732,149.045Z" transform="translate(-86.853 -147.923)"/>
        <path id="Trazado_158693" data-name="Trazado 158693" d="M97.648,149.045v16.691a1.12,1.12,0,0,1-1.121,1.122H94.014c-.138,0-.277-.01-.407-.02v-18.9c.13-.01.269-.02.407-.02h2.513A1.12,1.12,0,0,1,97.648,149.045Z" transform="translate(-87.769 -147.923)" fill="#404041"/>
      </g>
      <g id="Grupo_121040" data-name="Grupo 121040" transform="translate(63.234 0)">
        <path id="Trazado_158694" data-name="Trazado 158694" d="M160.009,149.045v16.691a1.121,1.121,0,0,0,1.122,1.122h2.512c.139,0,.278-.01.407-.02,3.257-.318,5.838-4.428,5.838-9.453s-2.581-9.124-5.838-9.442c-.129-.01-.268-.02-.407-.02h-2.512A1.121,1.121,0,0,0,160.009,149.045Z" transform="translate(-160.009 -147.923)"/>
        <path id="Trazado_158695" data-name="Trazado 158695" d="M160.009,149.045v16.691a1.121,1.121,0,0,0,1.122,1.122h2.512c.139,0,.278-.01.407-.02v-18.9c-.129-.01-.268-.02-.407-.02h-2.512A1.121,1.121,0,0,0,160.009,149.045Z" transform="translate(-160.009 -147.923)" fill="#404041"/>
      </g>
    </g>
    <g id="Grupo_121042" data-name="Grupo 121042" transform="translate(115.942 216.241)">
      <rect id="Rectángulo_34296" data-name="Rectángulo 34296" width="2.141" height="120.358" transform="translate(0 0)" fill="#231f20"/>
    </g>
    <g id="Grupo_121043" data-name="Grupo 121043" transform="translate(136.232 229.473)">
      <path id="Trazado_158696" data-name="Trazado 158696" d="M174.769,252.774v15.433a.4.4,0,0,1-.392.392H170.01a.388.388,0,0,1-.393-.392V252.774a.389.389,0,0,1,.393-.392h4.367A.4.4,0,0,1,174.769,252.774Z" transform="translate(-153.855 -252.382)" fill="#1a1a1a"/>
      <path id="Rectángulo_34297" data-name="Rectángulo 34297" d="M0,0H23a0,0,0,0,1,0,0V29.446a3.872,3.872,0,0,1-3.872,3.872H3.872A3.872,3.872,0,0,1,0,29.446V0A0,0,0,0,1,0,0Z" transform="translate(0 7.092)" fill="#dfdfe5"/>
      <rect id="Rectángulo_34298" data-name="Rectángulo 34298" width="22.997" height="3.768" transform="translate(0 7.092)" fill="#fff"/>
      <rect id="Rectángulo_34299" data-name="Rectángulo 34299" width="3.371" height="12.891" transform="translate(16.651 3.324)" fill="#b3b3b3"/>
      <path id="Trazado_158697" data-name="Trazado 158697" d="M174.769,252.774v1.595h-5.152v-1.595a.389.389,0,0,1,.393-.392h4.367A.4.4,0,0,1,174.769,252.774Z" transform="translate(-153.855 -252.382)" fill="#4d4d4d"/>
    </g>
    <path id="Trazado_158698" data-name="Trazado 158698" d="M328.618,236.945a33.2,33.2,0,0,1,3.393-3.1,2.938,2.938,0,0,0-.661-.8,73.861,73.861,0,0,0-5.395,5.49,2.848,2.848,0,0,0-2.238,2.663l0,.01a37.286,37.286,0,0,0-6.2,10.648,104.6,104.6,0,0,1,6.032-8.915,29.891,29.891,0,0,0,.093,4.957s-3.212.23-3.212,5.187v4.957s-8.97,3.617-9.622,9.839l11.069-5.715,1.839-10.31,4.166-3.153v-8.216l1.138,3.644a10.35,10.35,0,0,0,1.563,2.127l2.04-3.525A6.858,6.858,0,0,0,328.618,236.945Zm-1.38,1.48,0,0h0v0Z" transform="translate(-36.773 -20.285)" fill="#eca0a4" style="mix-blend-mode: multiply;isolation: isolate"/>
    <path id="Trazado_158699" data-name="Trazado 158699" d="M332.781,251.119a14.475,14.475,0,0,1-.807,3.16,9.7,9.7,0,0,1-2.274,3.186,29.6,29.6,0,0,1-3.508,2.813h-.009c0-.009,0-.009.009-.017a4.172,4.172,0,0,0-.078-2.327,5.693,5.693,0,0,1-.269-2.882,3.259,3.259,0,0,1,.156-.408c.148-.347.348-.669.5-1.017a8.792,8.792,0,0,0,.417-4.011c-.043-.816-.086-1.623-.131-2.439-.052-1.138-.112-2.284-.174-3.42a8.38,8.38,0,0,1,.235-3.126,2.805,2.805,0,0,1,2.231-1.988c1.31-.113,2.4,1.016,3,2.179C333.693,243.931,333.354,247.663,332.781,251.119Z" transform="translate(-38.798 -21.044)" fill="#ffc582"/>
    <path id="Trazado_158700" data-name="Trazado 158700" d="M142.48,355.319l-15.818,32.26-15.818-32.26,5.192-49.589.139-1.3.139-1.3.139-1.3,5.374-51.3.061-.564,3.36-1.823,1.415-.764,1.589.859,3.186,1.728.26,2.5Z" transform="translate(-9.651 -22.229)" fill="#1d272b"/>
    <path id="Trazado_158701" data-name="Trazado 158701" d="M134,311.874v2.6H116.85l.139-1.3.139-1.3Z" transform="translate(-10.465 -30.978)" fill="#2b388f" style="mix-blend-mode: multiply;isolation: isolate"/>
    <path id="Trazado_158702" data-name="Trazado 158702" d="M136.434,231.752,135.2,234.8l-1.667,4.089-.929,2.283-.53,1.3H123.5l-.53-1.3-.955-2.344-1.632-4.028-1.241-3.047,4.566-6.546h8.161Z" transform="translate(-10.776 -19.223)" fill="#1d272b"/>
    <path id="Trazado_158705" data-name="Trazado 158705" d="M124.427,223.219l-5.626,9.593-1.484,2.518-.747,1.276-9.081-23.128,4.532-2.926,9.88,10.079Z" transform="translate(-9.196 -17.235)" fill="#dfdfe5"/>
    <path id="Trazado_158706" data-name="Trazado 158706" d="M148.142,213.478l-9.081,23.128-.773-1.328-1.45-2.466-5.626-9.593,2.5-2.561,9.9-10.105Z" transform="translate(-12.414 -17.235)" fill="#dfdfe5"/>
    <path id="Trazado_158707" data-name="Trazado 158707" d="M133.882,310.367v2.6H116.007l.278-2.6Z" transform="translate(-10.351 -30.773)" fill="#b3b3b3"/>
    <path id="Trazado_158708" data-name="Trazado 158708" d="M281.891,136.338H276.5v-5.394a1.941,1.941,0,1,0-3.882,0v5.394H267.22a1.941,1.941,0,0,0,0,3.883h5.395v5.394a1.941,1.941,0,1,0,3.882,0v-5.394h5.395a1.941,1.941,0,1,0,0-3.883Z" transform="translate(-30.598 -6.174)" fill="#fff"/>
    <path id="Trazado_158709" data-name="Trazado 158709" d="M69.4,189.4h-5.05v-5.05a1.817,1.817,0,0,0-3.635,0v5.05h-5.05a1.817,1.817,0,1,0,0,3.635h5.05v5.05a1.817,1.817,0,1,0,3.635,0v-5.05H69.4a1.817,1.817,0,1,0,0-3.635Z" transform="translate(-1.92 -13.434)" fill="#fff"/>
    <path id="Trazado_158710" data-name="Trazado 158710" d="M305.446,128.619H302.06v-3.387a1.219,1.219,0,1,0-2.438,0v3.387h-3.387a1.219,1.219,0,0,0,0,2.438h3.387v3.387a1.219,1.219,0,0,0,2.438,0v-3.387h3.387a1.219,1.219,0,1,0,0-2.438Z" transform="translate(-34.631 -5.497)" fill="#fff"/>
    <path id="Trazado_158711" data-name="Trazado 158711" d="M456.55,243.677h-4.177V239.5a1.5,1.5,0,0,0-3.007,0v4.178h-4.178a1.5,1.5,0,1,0,0,3.007h4.178v4.177a1.5,1.5,0,1,0,3.007,0v-4.177h4.177a1.5,1.5,0,1,0,0-3.007Z" transform="translate(-54.795 -20.957)" fill="#fff"/>
    <path id="Trazado_158712" data-name="Trazado 158712" d="M79.752,174.386H76.581v-3.171a1.141,1.141,0,1,0-2.283,0v3.171H71.127a1.141,1.141,0,0,0,0,2.283H74.3v3.171a1.141,1.141,0,0,0,2.283,0v-3.171h3.171a1.141,1.141,0,0,0,0-2.283Z" transform="translate(-4.109 -11.745)" fill="#fff"/>
    <path id="Trazado_158713" data-name="Trazado 158713" d="M412.188,155.3H409.2V152.31a1.077,1.077,0,0,0-2.153,0V155.3h-2.992a1.077,1.077,0,1,0,0,2.153h2.992v2.992a1.077,1.077,0,1,0,2.153,0v-2.992h2.992a1.077,1.077,0,1,0,0-2.153Z" transform="translate(-49.274 -9.19)" fill="#fff"/>
    <g id="Grupo_121044" data-name="Grupo 121044" transform="translate(83.255 93.531)">
      <path id="Trazado_158714" data-name="Trazado 158714" d="M157.607,145.075h-2.979V115.441c-.024-.57-.908-15.148-27.876-17.355h-5.807c-26.968,2.207-27.852,16.784-27.877,17.4v29.585H90.091V115.441c.02-.769.832-17.911,30.673-20.328.04,0,.08-.005.121-.005h5.928c.04,0,.08,0,.12.005,29.84,2.418,30.653,19.559,30.673,20.288Z" transform="translate(-90.091 -95.108)"/>
    </g>
    <path id="Trazado_158715" data-name="Trazado 158715" d="M329.741,258.806a29.6,29.6,0,0,1-3.508,2.813V261.6l-.078-2.327-.113-3.29c.148-.347.348-.669.5-1.016a8.792,8.792,0,0,0,.417-4.011c-.043-.816-.086-1.623-.131-2.439a7.062,7.062,0,0,1,2.709,3.733A13.842,13.842,0,0,1,329.741,258.806Z" transform="translate(-38.839 -22.385)" fill="#eca0a4" style="mix-blend-mode: multiply;isolation: isolate"/>
    <path id="Trazado_158716" data-name="Trazado 158716" d="M321.544,250.447a2.362,2.362,0,0,0-.966,1.142,6.038,6.038,0,0,0-.295,2.33q.016,3.038.031,6.076a1.533,1.533,0,0,1-.186.908,1.471,1.471,0,0,1-.527.4c-4.278,2.3-8.747,4.558-11.2,9.016-.86,1.56-1.367,3.295-2.233,4.852-1.3,2.335-3.331,4.158-4.962,6.274a9.3,9.3,0,0,0,3.2-1.546l12.381-8.089c2.867-1.872,5.895-3.935,7.185-7.107a13.628,13.628,0,0,0,.779-3.146c.469-3.183,1.073-7.489-.782-10.335a2.041,2.041,0,0,0-1.626-1A1.6,1.6,0,0,0,321.544,250.447Z" transform="translate(-35.47 -22.616)" fill="#ffc582"/>
    <path id="Trazado_158717" data-name="Trazado 158717" d="M133.42,252.58l-9.871-1.936.061-.564,3.36-1.823,3,.1,3.186,1.728Z" transform="translate(-11.374 -22.349)" fill="#2b388f" style="mix-blend-mode: multiply;isolation: isolate"/>
    <path id="Trazado_158718" data-name="Trazado 158718" d="M133.206,243.677l-.53,1.3H124.1l-.53-1.3Z" transform="translate(-11.377 -21.728)" fill="#2b388f" style="mix-blend-mode: multiply;isolation: isolate"/>
    <path id="Trazado_158719" data-name="Trazado 158719" d="M133.546,249.739H123.108l.515-5.072h9.409Z" transform="translate(-11.314 -21.862)" fill="url(#linear-gradient)"/>
    <g id="Grupo_121046" data-name="Grupo 121046" transform="translate(240.745 149.61)">
      <g id="Grupo_121047" data-name="Grupo 121047" transform="translate(0 0)">
        <g id="Grupo_18423" data-name="Grupo 18423" transform="translate(0 0)">
          <g id="Grupo_18421" data-name="Grupo 18421">
            <g id="Grupo_18420" data-name="Grupo 18420">
              <g id="Grupo_18419" data-name="Grupo 18419">
                <path id="Trazado_40936" data-name="Trazado 40936" d="M253.712,2175.265a29.544,29.544,0,1,1-29.544-29.543A29.544,29.544,0,0,1,253.712,2175.265Z" transform="translate(-194.623 -2145.721)" fill="#fff"/>
              </g>
            </g>
          </g>
          <path id="Trazado_40937" data-name="Trazado 40937" d="M253.811,2175.373a29.544,29.544,0,1,0-29.544,29.545A29.428,29.428,0,0,0,253.811,2175.373Z" transform="translate(-194.722 -2145.829)" fill="url(#radial-gradient-4)"/>
          <path id="Trazado_40938" data-name="Trazado 40938" d="M247.815,2176.377a22.551,22.551,0,1,0-22.551,22.551A22.467,22.467,0,0,0,247.815,2176.377Z" transform="translate(-195.63 -2146.735)" fill="none" stroke="#1d272b" stroke-miterlimit="10" stroke-width="2"/>
          <g id="Grupo_18422" data-name="Grupo 18422" transform="translate(5.234 16.587)">
            <path id="Trazado_40939" data-name="Trazado 40939" d="M251.412,2164.488a29.548,29.548,0,0,1-50.867,29.422,29.454,29.454,0,0,0,50.867-29.422Z" transform="translate(-200.545 -2164.488)" fill="#eceef0"/>
          </g>
        </g>
        <g id="TKvKcl.tif" transform="translate(19.028 16.346)">
          <g id="Grupo_121018" data-name="Grupo 121018" transform="translate(0 0)">
            <path id="Trazado_158642" data-name="Trazado 158642" d="M998.944,33.782a12.331,12.331,0,0,1-1.49-.519,3.819,3.819,0,0,1-.971-.741q-3.315-3.289-6.607-6.6a4,4,0,0,1-.036-5.762,3.971,3.971,0,0,1,2.981-1.43,1.436,1.436,0,0,0,1.14-.505,7.216,7.216,0,0,1,2.606-1.638c.06-.022.118-.05.215-.091a6,6,0,0,1-3.177-5.444,5.8,5.8,0,0,1,2.148-4.495,6.013,6.013,0,0,1,8.554.852,5.85,5.85,0,0,1,1.15,5.158,5.935,5.935,0,0,1-3.316,4.071l2.608,1.547a.981.981,0,0,1,.144-.217q2.735-2.742,5.476-5.478c.5-.5.951-.4,1.2.268.873,2.385,1.74,4.773,2.621,7.155a.8.8,0,0,1-.215.952q-5.8,5.785-11.588,11.586a4.179,4.179,0,0,1-2.474,1.3.235.235,0,0,0-.071.038Zm11.725-19.964c-.106.132-.163.219-.236.291q-5.239,5.241-10.48,10.479c-.433.433-.7.432-1.135,0-1.24-1.238-2.476-2.481-3.721-3.713a3.5,3.5,0,0,0-.693-.559,2.762,2.762,0,0,0-3.38.369,2.863,2.863,0,0,0-.292,4.408q3.291,3.313,6.61,6.6a3.171,3.171,0,0,0,1.112.717,2.755,2.755,0,0,0,3.057-.771q5.644-5.646,11.294-11.287a.366.366,0,0,0,.106-.456c-.708-1.911-1.406-3.825-2.107-5.738C1010.772,14.065,1010.736,13.982,1010.67,13.818Zm-15.785-1.747c.024.121.039.221.064.319a4.817,4.817,0,0,0,9.034.811c.082-.171.019-.25-.087-.354-.944-.926-1.889-1.852-2.824-2.788a.329.329,0,0,0-.412-.078c-1.449.53-2.9,1.052-4.354,1.576Zm-.09-1.245c.137-.046.233-.076.328-.11,1.847-.666,3.7-1.324,5.538-2a.8.8,0,0,1,.954.207c.84.847,1.7,1.679,2.546,2.516.069.068.143.13.259.234a4.733,4.733,0,0,0-2.078-4.464,4.581,4.581,0,0,0-5.023-.267A4.721,4.721,0,0,0,994.795,10.825Zm-.02,8.274a43.974,43.974,0,0,1,4,3.718V17.586C997.334,17.366,996.173,17.854,994.775,19.1Zm8.993-.082c-1.144-.758-2.255-1.584-3.757-1.458v5.21Z" transform="translate(-988.634 -5.153)" fill="#1d272b"/>
            <path id="Trazado_158643" data-name="Trazado 158643" d="M1049.247,309.843c0,.555-.464.844-.851.64a1.044,1.044,0,0,1-.241-.187q-1.128-1.123-2.248-2.254a.9.9,0,0,1-.228-.343.54.54,0,0,1,.2-.623.556.556,0,0,1,.674-.035,1.2,1.2,0,0,1,.215.176c.738.736,1.479,1.47,2.207,2.216A2.226,2.226,0,0,1,1049.247,309.843Z" transform="translate(-1042.454 -290.035)" fill="#1d272b"/>
          </g>
        </g>
      </g>
    </g>
    <g id="Grupo_121047-2" data-name="Grupo 121047" transform="translate(178.033 149.61)">
      <g id="Grupo_18423-2" data-name="Grupo 18423" transform="translate(0 0)">
        <g id="Grupo_18421-2" data-name="Grupo 18421">
          <g id="Grupo_18420-2" data-name="Grupo 18420">
            <g id="Grupo_18419-2" data-name="Grupo 18419">
              <path id="Trazado_40936-2" data-name="Trazado 40936" d="M253.712,2175.265a29.544,29.544,0,1,1-29.544-29.543A29.544,29.544,0,0,1,253.712,2175.265Z" transform="translate(-194.623 -2145.721)" fill="#fff"/>
            </g>
          </g>
        </g>
        <path id="Trazado_40937-2" data-name="Trazado 40937" d="M253.811,2175.373a29.544,29.544,0,1,0-29.544,29.545A29.428,29.428,0,0,0,253.811,2175.373Z" transform="translate(-194.722 -2145.829)" fill="url(#radial-gradient-4)"/>
        <path id="Trazado_40938-2" data-name="Trazado 40938" d="M247.815,2176.377a22.551,22.551,0,1,0-22.551,22.551A22.467,22.467,0,0,0,247.815,2176.377Z" transform="translate(-195.63 -2146.735)" fill="none" stroke="#1d272d" stroke-miterlimit="10" stroke-width="2"/>
        <g id="Grupo_18422-2" data-name="Grupo 18422" transform="translate(5.234 16.587)">
          <path id="Trazado_40939-2" data-name="Trazado 40939" d="M251.412,2164.488a29.548,29.548,0,0,1-50.867,29.422,29.454,29.454,0,0,0,50.867-29.422Z" transform="translate(-200.545 -2164.488)" fill="#eceef0"/>
        </g>
      </g>
      <g id="XNzkG7" transform="translate(14.019 15.256)">
        <g id="Grupo_121017" data-name="Grupo 121017" transform="translate(0)">
          <path id="Trazado_158635" data-name="Trazado 158635" d="M556.21,50.022l3.733,3.736c-.208.195-.447.409-.676.633q-.63.619-1.25,1.248c-.231.235-.274.5-.074.705.563.582,1.147,1.143,1.741,1.73.072-.211.133-.4.2-.592a3.452,3.452,0,0,1,2.7-2.326c.995-.2,2-.366,2.993-.547.108-.02.216-.045.411-.085-.094-.143-.139-.278-.232-.34a5.08,5.08,0,0,1-2.2-3.067.42.42,0,0,0-.234-.258,1.892,1.892,0,0,1-1.383-1.71c-.039-.617-.027-1.238-.017-1.857a24.892,24.892,0,0,1,.093-2.886,6.51,6.51,0,0,1,12.845-.11,6.8,6.8,0,0,1,.1,1.059q.015,3.014,0,6.029a1.478,1.478,0,0,1-1.6,1.562,1.473,1.473,0,0,0-1.44.577,4.559,4.559,0,0,1-.792.656,1.111,1.111,0,0,0-.175.28.977.977,0,0,0,.247.127c1.027.192,2.058.363,3.083.566A3.4,3.4,0,0,1,577,57.474c.406,1.145.775,2.3,1.174,3.5H567.5l-.039.074.755.609c-.1.12-.128.159-.162.191-.829.763-1.649,1.535-2.491,2.284a3.471,3.471,0,0,1-4.734-.114q-3.47-3.42-6.89-6.891A3.472,3.472,0,0,1,554,52.215q1.019-1.027,2.045-2.046C556.1,50.113,556.165,50.062,556.21,50.022Zm8.245,8c.586.588,1.162,1.157,1.725,1.739a.667.667,0,0,0,.529.223q4.855-.011,9.71,0h.36c-.247-.746-.468-1.451-.714-2.146a2.471,2.471,0,0,0-2-1.7c-.947-.174-1.9-.32-2.841-.527a.933.933,0,0,0-1.028.316c-.545.611-1.148,1.17-1.742,1.766-.681-.683-1.335-1.347-2-2a.492.492,0,0,0-.358-.142c-1.13.19-2.26.382-3.382.612a2.424,2.424,0,0,0-1.85,1.6,4.35,4.35,0,0,1-.181.516.759.759,0,0,0,.27,1.1,3.969,3.969,0,0,1,.454.448c.408.409.6.416,1.025.034Zm-1.01-11.591a5.822,5.822,0,0,0,5-2.244,5.836,5.836,0,0,0,5.028,2.243c-.072.413.006.7.487.722,0-.594.018-1.19,0-1.784a5.3,5.3,0,0,0-3.112-4.888,5.229,5.229,0,0,0-5.784.607c-2.029,1.543-2.317,3.726-2.093,6.066C563.4,47.024,563.4,47.024,563.445,46.432Zm5.022,5.515h.367c.943,0,1.887,0,2.83-.006.111,0,.284-.057.321-.138a2.948,2.948,0,0,0,.362-.991c.068-1.109.069-2.223.094-3.335,0-.016-.022-.033-.041-.058a6.579,6.579,0,0,1-3.939-1.763,7.111,7.111,0,0,1-3.983,1.786c0,1,0,2,0,3.006a1.714,1.714,0,0,0,.046.361,4,4,0,0,0,5.329,2.883,10.543,10.543,0,0,0,1.176-.626l-.044-.107h-2.52ZM563,60.722a1.566,1.566,0,0,1-2.359-.234q-1.635-1.638-3.27-3.275a1.95,1.95,0,0,1-.345-.421,1.511,1.511,0,0,1,.208-1.812L554.955,52.7a2.508,2.508,0,0,0-.149,3.875q3.283,3.284,6.566,6.568A2.529,2.529,0,0,0,565.28,63Zm3.68,1.023-2.294-2.307-.594.544,2.295,2.305Zm-8.206-8.018-2.233-2.237-.484.4L558,54.167Zm11.437,1.024a5.234,5.234,0,0,1-2.911.008l1.457,1.441Zm3.174-2.835c.836.159.988-.256.815-1.2-.189.1-.451.145-.531.292A4.434,4.434,0,0,0,573.089,51.915Zm.4-3.815v1.677a.987.987,0,0,0,0-1.677ZM563.4,49.772V48.115A.974.974,0,0,0,563.4,49.772Z" transform="translate(-552.955 -33.889)" fill="#1d272b"/>
          <path id="Trazado_158636" data-name="Trazado 158636" d="M900.117-33.392l.508-3.014h-1.206a1.512,1.512,0,0,1-1.638-1.625q0-1.9,0-3.805a1.5,1.5,0,0,1,1.584-1.588q3.44-.007,6.88,0a1.5,1.5,0,0,1,1.575,1.6q0,1.918,0,3.836a1.452,1.452,0,0,1-1.582,1.57,3.6,3.6,0,0,0-2.4.7c-1.1.758-2.262,1.432-3.4,2.141C900.356-33.529,900.269-33.481,900.117-33.392Zm1.366-2.029c.649-.406,1.28-.741,1.844-1.166a3.653,3.653,0,0,1,2.849-.82.182.182,0,0,0,.03,0c.419-.008.6-.178.6-.589q.006-1.918,0-3.837c0-.417-.179-.59-.6-.59q-3.411,0-6.821,0c-.419,0-.593.178-.594.6q0,1.9,0,3.806c0,.438.171.611.607.613.69,0,1.38,0,2.071,0,.107,0,.214.009.345.015Z" transform="translate(-876.772 43.428)" fill="#1d272b"/>
          <path id="Trazado_158637" data-name="Trazado 158637" d="M572.768-18.4l-.29.937a13.015,13.015,0,0,0-11.873,2.2,12.708,12.708,0,0,0-4.625,7.135l1.331-.784.519.855L554.888-6.29l-1.764-2.94.861-.514.923,1.531a14.012,14.012,0,0,1,9.867-10.266A13.554,13.554,0,0,1,572.768-18.4Z" transform="translate(-553.114 20.528)" fill="#1d272b"/>
          <path id="Trazado_158638" data-name="Trazado 158638" d="M979.114,111.755l-.515.862-1.439-.86a14.246,14.246,0,0,1-2.418,13.3c-.155-.124-.279-.221-.4-.321s-.249-.2-.38-.312a12.993,12.993,0,0,0,2.162-12.388l-.85,1.408-.859-.516,1.762-2.939Z" transform="translate(-948.311 -100.645)" fill="#1d272b"/>
          <path id="Trazado_158639" data-name="Trazado 158639" d="M880.614,517.772l-.031-.511c.358.158.372.255.146.5Z" transform="translate(-860.624 -483.103)" fill="#1d272b"/>
          <path id="Trazado_158640" data-name="Trazado 158640" d="M937.034-10.1v.954h-5.993V-10.1Z" transform="translate(-908.008 12.132)" fill="#1d272b"/>
          <path id="Trazado_158641" data-name="Trazado 158641" d="M930.943,23.8v-.956h3.986V23.8Z" transform="translate(-907.916 -18.81)" fill="#1d272b"/>
        </g>
      </g>
    </g>
    <g id="Grupo_121048" data-name="Grupo 121048" transform="translate(303.458 149.61)">
      <g id="Grupo_18423-3" data-name="Grupo 18423" transform="translate(0 0)">
        <g id="Grupo_18421-3" data-name="Grupo 18421">
          <g id="Grupo_18420-3" data-name="Grupo 18420">
            <g id="Grupo_18419-3" data-name="Grupo 18419">
              <path id="Trazado_40936-3" data-name="Trazado 40936" d="M253.712,2175.265a29.544,29.544,0,1,1-29.544-29.543A29.544,29.544,0,0,1,253.712,2175.265Z" transform="translate(-194.623 -2145.721)" fill="#fff"/>
            </g>
          </g>
        </g>
        <path id="Trazado_40937-3" data-name="Trazado 40937" d="M253.811,2175.373a29.544,29.544,0,1,0-29.544,29.545A29.428,29.428,0,0,0,253.811,2175.373Z" transform="translate(-194.722 -2145.829)" fill="url(#radial-gradient-4)"/>
        <path id="Trazado_40938-3" data-name="Trazado 40938" d="M247.815,2176.377a22.551,22.551,0,1,0-22.551,22.551A22.467,22.467,0,0,0,247.815,2176.377Z" transform="translate(-195.63 -2146.735)" fill="none" stroke="#1d272b" stroke-miterlimit="10" stroke-width="2"/>
        <g id="Grupo_18422-3" data-name="Grupo 18422" transform="translate(5.234 16.587)">
          <path id="Trazado_40939-3" data-name="Trazado 40939" d="M251.412,2164.488a29.548,29.548,0,0,1-50.867,29.422,29.454,29.454,0,0,0,50.867-29.422Z" transform="translate(-200.545 -2164.488)" fill="#eceef0"/>
        </g>
      </g>
      <g id="p8ix17" transform="translate(15.521 17.267)">
        <g id="Grupo_121019" data-name="Grupo 121019">
          <path id="Trazado_158644" data-name="Trazado 158644" d="M1601.292,131.946c0-.719-.007-1.348,0-1.977a1.355,1.355,0,0,1,1.5-1.538q5.1-.013,10.2,0a1.356,1.356,0,0,1,1.5,1.537q.011,4.184,0,8.368a1.335,1.335,0,0,1-1.511,1.519c-1.078.014-2.161.066-3.233-.016a1.256,1.256,0,0,0-1.446,1.407c.059,3.234.025,6.469.022,9.7,0,.972-.27,1.236-1.26,1.237-4.149,0-8.3-.009-12.447.019a1.7,1.7,0,0,0-1.027.418c-.784.7-1.5,1.481-2.253,2.221a2.317,2.317,0,1,1-3.271-3.25c1.636-1.645,3.292-3.272,4.908-4.938a1.538,1.538,0,0,0,.4-.967c.026-4.1.017-8.2.017-12.306,0-1.237.2-1.438,1.409-1.438Zm-7,13.14c1.191-.529,2.384-1.093,3.6-1.587.912-.369,1.907.392,1.583,1.257-.533,1.427-.888,2.965-2.1,4.066-.82.746-1.576,1.563-2.446,2.434h12.5v-9.578c-.516-.128-1.092-.106-1.37-.383a4.046,4.046,0,0,1-.563-1.436c-.775,0-1.616,0-2.457,0-1.342,0-1.751-.419-1.753-1.773q0-.809,0-1.618v-3.589h-7Zm12.328-4.428.191.106c.434-.432.889-.846,1.3-1.3a1.37,1.37,0,0,1,1.163-.49c1.171.034,2.344-.019,3.514.023.665.023.851-.25.846-.87-.02-2.648-.025-5.3,0-7.944.007-.686-.251-.892-.911-.887-3.21.023-6.421.009-9.631.011-.849,0-.92.072-.921.923q0,3.867,0,7.733c0,1.008.015,1.021,1.025,1.022h3.425Zm-15.553,10.328,4.645-4.645-.459-.5-4.69,4.7Zm5.516-3.8-4.662,4.662.505.482,4.62-4.576Zm-8.077,5.275a1.379,1.379,0,0,0,1.924,1.974Zm3.291.662-2.022-2.02-.533.535,2.017,2.028Zm5.821-6.186c.5-.969.528-1-.488-1.785-.236-.181-.73-.027-1.105-.027l0,.212Z" transform="translate(-1586.839 -128.425)" fill="#1d272b"/>
          <path id="Trazado_158645" data-name="Trazado 158645" d="M1738.763,220.569H1736.6v.8q0,4.006,0,8.012c0,1.033-.252,1.283-1.286,1.286-1.306,0-2.613,0-3.937,0v-.883h4.291v-9.217h-2.1l2.6-3.893Zm-2.593-2.313-.887,1.341h1.773Z" transform="translate(-1710.716 -204.261)" fill="#1d272b"/>
          <path id="Trazado_158646" data-name="Trazado 158646" d="M1584.512,144.774h2.154v-.826q0-3.974,0-7.947c0-1.126.221-1.339,1.37-1.341.98,0,1.96,0,2.981,0v.873H1587.6v9.229h2.089l-2.592,3.891Zm1.675.925.911,1.366L1588,145.7Z" transform="translate(-1584.512 -133.781)" fill="#1d272b"/>
          <path id="Trazado_158647" data-name="Trazado 158647" d="M1664.906,129.774a1.322,1.322,0,1,1-1.3-1.306A1.36,1.36,0,0,1,1664.906,129.774Zm-.716.06c-.276-.221-.445-.458-.591-.445a.646.646,0,0,0-.421.412c-.028.093.222.376.359.384C1663.7,130.2,1663.885,130.01,1664.19,129.834Z" transform="translate(-1651.324 -128.462)" fill="#1d272b"/>
          <path id="Trazado_158648" data-name="Trazado 158648" d="M1637.249,129.792a1.323,1.323,0,1,1,1.289,1.321A1.352,1.352,0,0,1,1637.249,129.792Zm1.33-.61c-.2.287-.4.451-.41.623-.006.132.256.4.358.383a.625.625,0,0,0,.442-.379C1638.992,129.659,1638.773,129.473,1638.579,129.181Z" transform="translate(-1629.83 -128.464)" fill="#1d272b"/>
          <path id="Trazado_158649" data-name="Trazado 158649" d="M1708.753,304.864a1.37,1.37,0,0,1-1.287,1.326,1.322,1.322,0,0,1-.075-2.643A1.353,1.353,0,0,1,1708.753,304.864Zm-1.339-.591c-.187.281-.388.454-.389.628,0,.129.257.26.4.391.139-.153.357-.29.391-.463C1707.838,304.705,1707.613,304.534,1707.413,304.272Z" transform="translate(-1689.013 -278.911)" fill="#1d272b"/>
          <path id="Trazado_158650" data-name="Trazado 158650" d="M1683.742,304.86a1.369,1.369,0,0,1-1.283,1.329,1.322,1.322,0,0,1-.083-2.643A1.352,1.352,0,0,1,1683.742,304.86Zm-.731.09c-.261-.237-.4-.464-.568-.484-.135-.017-.3.214-.453.334.131.163.234.4.4.463C1682.505,305.307,1682.712,305.111,1683.011,304.95Z" transform="translate(-1667.521 -278.911)" fill="#1d272b"/>
          <path id="Trazado_158651" data-name="Trazado 158651" d="M1658.732,304.865a1.37,1.37,0,0,1-1.289,1.324,1.322,1.322,0,0,1-.072-2.643A1.353,1.353,0,0,1,1658.732,304.865Zm-1.3-.589c-.205.264-.418.421-.434.6-.011.126.267.407.368.386a.661.661,0,0,0,.43-.4C1657.829,304.734,1657.614,304.548,1657.433,304.277Z" transform="translate(-1646.029 -278.911)" fill="#1d272b"/>
          <path id="Trazado_158652" data-name="Trazado 158652" d="M1688.391,310.565c-.3.161-.506.357-.618.313-.169-.066-.272-.3-.4-.463.152-.121.318-.351.453-.334" transform="translate(-1672.901 -284.526)" fill="#1d272b"/>
          <path id="Trazado_158653" data-name="Trazado 158653" d="M1681.344,234.017v-5.253h6.123c0,1.647.009,3.258-.016,4.869a.528.528,0,0,1-.361.368C1685.2,234.025,1683.3,234.017,1681.344,234.017Zm5.2-4.368h-4.308v3.41h4.308Z" transform="translate(-1667.722 -214.649)" fill="#1d272b"/>
          <path id="Trazado_158654" data-name="Trazado 158654" d="M1665.342,272.382c.761-.539.926-.51,1.795.4a.857.857,0,0,0,.559.153c1.261.013,2.523.007,3.838.007v.825h-5.19l-.127-.918-1.328,1.209-.792-1.264-.491,1.15-.742-.242c.126-.645.192-1.339.871-1.516A4.955,4.955,0,0,1,1665.342,272.382Z" transform="translate(-1651.841 -251.825)" fill="#1d272b"/>
          <path id="Trazado_158655" data-name="Trazado 158655" d="M1649.08,178.819v.762h-5.22v-.762Z" transform="translate(-1635.511 -171.73)" fill="#1d272b"/>
          <path id="Trazado_158656" data-name="Trazado 158656" d="M1643.8,216.415h5.21l.037.779H1643.8Z" transform="translate(-1635.463 -204.037)" fill="#1d272b"/>
          <path id="Trazado_158657" data-name="Trazado 158657" d="M1643.737,167.271v-.757h2.568l.037.757Z" transform="translate(-1635.406 -161.156)" fill="#1d272b"/>
          <path id="Trazado_158658" data-name="Trazado 158658" d="M1662.54,203.748h2.571c.015.252.028.478.046.772h-2.617Z" transform="translate(-1651.563 -193.152)" fill="#1d272b"/>
          <path id="Trazado_158659" data-name="Trazado 158659" d="M1646.107,192.278H1643.5l-.038-.79h2.608Z" transform="translate(-1635.171 -182.617)" fill="#1d272b"/>
          <path id="Trazado_158660" data-name="Trazado 158660" d="M1668.739,167.276V166.5h1.69v.773Z" transform="translate(-1656.891 -161.146)" fill="#1d272b"/>
          <path id="Trazado_158661" data-name="Trazado 158661" d="M1668.874,191.374h1.68v.777h-1.68Z" transform="translate(-1657.007 -182.519)" fill="#1d272b"/>
          <path id="Trazado_158662" data-name="Trazado 158662" d="M1645.56,203.847v.781h-1.679v-.781Z" transform="translate(-1635.529 -193.237)" fill="#1d272b"/>
          <path id="Trazado_158663" data-name="Trazado 158663" d="M1726.366,141.064c1.092,0,1.348.277,1.22,1.34-.083.694-.188,1.385-.291,2.076-.086.574-.387.978-1,.958-.574-.019-.854-.412-.93-.96-.094-.669-.2-1.337-.281-2.007C1724.937,141.327,1725.185,141.06,1726.366,141.064Zm-.474.9.363,2.393.161-.009.338-2.383Z" transform="translate(-1705.275 -139.286)" fill="#1d272b"/>
          <path id="Trazado_158664" data-name="Trazado 158664" d="M1726.215,178.485a1.321,1.321,0,1,1-1.3,1.363A1.318,1.318,0,0,1,1726.215,178.485Zm.6,1.272c-.3-.169-.485-.355-.656-.343-.13.009-.371.323-.336.408a.7.7,0,0,0,.46.379C1726.408,180.217,1726.566,179.978,1726.818,179.757Z" transform="translate(-1705.166 -171.443)" fill="#1d272b"/>
        </g>
      </g>
    </g>
    <g id="Grupo_121049" data-name="Grupo 121049" transform="translate(161.162 106.299)">
      <path id="Trazado_151907" data-name="Trazado 151907" d="M346.157,236.244H316.908a8.584,8.584,0,0,0-8.583,8.583v13.979a8.583,8.583,0,0,0,8.583,8.583h.983L315.9,270.2a1.119,1.119,0,0,0,1.35,1.675l9.327-3.952a6.752,6.752,0,0,1,2.634-.535h16.943a8.583,8.583,0,0,0,8.583-8.583V244.827A8.583,8.583,0,0,0,346.157,236.244Z" transform="translate(-308.325 -236.244)" fill="#d93328"/>
      <path id="Trazado_151908" data-name="Trazado 151908" d="M349.689,248.087H315.043a1.489,1.489,0,0,1-1.489-1.489h0a1.489,1.489,0,0,1,1.489-1.489h34.647a1.489,1.489,0,0,1,1.489,1.489h0A1.489,1.489,0,0,1,349.689,248.087Z" transform="translate(-309.158 -237.657)" fill="#ededed"/>
      <path id="Trazado_151909" data-name="Trazado 151909" d="M349.689,255.976H315.043a1.489,1.489,0,0,1-1.489-1.489h0A1.489,1.489,0,0,1,315.043,253h34.647a1.489,1.489,0,0,1,1.489,1.489h0A1.489,1.489,0,0,1,349.689,255.976Z" transform="translate(-309.158 -238.915)" fill="#ededed"/>
      <path id="Trazado_151910" data-name="Trazado 151910" d="M334.52,263.864H315.043a1.489,1.489,0,0,1-1.489-1.489h0a1.489,1.489,0,0,1,1.489-1.489H334.52a1.489,1.489,0,0,1,1.489,1.489h0A1.489,1.489,0,0,1,334.52,263.864Z" transform="translate(-309.158 -240.172)" fill="#ededed"/>
    </g>
  </g>
</svg>
