<svg xmlns="http://www.w3.org/2000/svg" width="92.432" height="102.673" viewBox="0 0 92.432 102.673">
  <g id="icon4" transform="translate(1135.426 -132.847)">
    <g id="Grupo_121057" data-name="Grupo 121057" transform="translate(-1135.426 132.847)">
      <path id="Trazado_158740" data-name="Trazado 158740" d="M-986.457,298.142c-.082-.326-.4-.259-.61-.333a6.658,6.658,0,0,1-4.662-5.595,6.882,6.882,0,0,1,2.747-6.777,1.3,1.3,0,0,0,.619-1.106,6.739,6.739,0,0,1,6.025-6.653c.742-.092.811-.351.81-.964q-.024-13.685-.011-27.371c0-2.059.452-2.57,2.488-2.5.865.029.958-.282.95-1.019-.037-3.457-.018-6.914-.016-10.371,0-1.766.54-2.31,2.266-2.325.92-.008,2.163.315,2.675-.153.6-.546.1-1.809.2-2.754.064-.624-.2-.906-.742-1.194a4.9,4.9,0,0,1-2.391-5.994,24.621,24.621,0,0,1,3.431-6.242,1.663,1.663,0,0,1,2.752-.056,22.582,22.582,0,0,1,3.55,6.53,4.863,4.863,0,0,1-2.478,5.775,1.069,1.069,0,0,0-.714,1.208c.095.943-.408,2.209.214,2.746.535.462,1.764.127,2.687.134,1.672.013,2.235.569,2.237,2.248,0,3.528.021,7.057-.016,10.585-.007.7.177.923.876.87.955-.074,2.184.3,2.8-.169.6-.457.6-1.728.832-2.65q3.725-14.841,7.443-29.685c.343-1.366.794-1.721,2.145-1.725,2.031-.007,4.063-.012,6.094,0,1.626.01,2.3.9,1.9,2.5-1.394,5.624-2.762,11.255-4.223,16.862-.281,1.08,0,1.245.965,1.177.993-.07,2,.019,2.992-.025a2.1,2.1,0,0,1,2.176,1.354c1.843,3.768,3.78,7.49,5.581,11.277a1.588,1.588,0,0,0,1.874,1.07,2.637,2.637,0,0,1,2.775,1.065q0,24.676.022,49.352c0,.779-.17.926-.933.925Q-958.788,298.123-986.457,298.142Zm39.947-3.425a4.382,4.382,0,0,0-.118-.5c-1.419-3.67-.737-6.337,2.335-8.913a1.19,1.19,0,0,0,.4-1.025,6.766,6.766,0,0,1,5.341-6.492,14.376,14.376,0,0,1,3.829-.146c.919.023,1.113-.288,1.11-1.153q-.046-12.563,0-25.126c0-.874-.211-1.148-1.117-1.14-5.132.043-10.264.021-15.4.021q-13.472,0-26.945-.014c-.742,0-1.066.114-1.062.975q.052,11.387.011,22.774c0,.718.108.949.9.655a5.9,5.9,0,0,1,5.427.433.816.816,0,0,0,.985.043c2.819-1.861,6.854-.837,8.9,2a1.189,1.189,0,0,0,1.075.51,6.772,6.772,0,0,1,6.679,6.686c.015.354-.01.683.338.949,3.06,2.343,3.836,5.325,2.416,8.886-.17.428-.1.583.365.58C-949.557,294.712-948.069,294.717-946.509,294.717Zm-24.826,0q6.575,0,13.15,0a3.648,3.648,0,0,0,3.916-2.775,3.573,3.573,0,0,0-2.179-4.16,1.928,1.928,0,0,1-1.145-1.871c-.081-4.023-.863-4.815-4.819-4.869a1.978,1.978,0,0,1-1.95-1.194c-1.239-2.515-3.368-2.935-5.574-1.134a1.74,1.74,0,0,1-2.658.011c-2.244-1.84-4.3-1.413-5.632,1.2a1.822,1.822,0,0,1-1.782,1.11c-.5-.007-1-.012-1.5,0a3.408,3.408,0,0,0-3.451,3.462c-.012.5-.008,1,0,1.5a1.831,1.831,0,0,1-1.118,1.777c-1.835.949-2.626,2.478-2.205,4.151a3.646,3.646,0,0,0,3.9,2.795Q-977.856,294.725-971.335,294.72Zm37.7-6.868v-4.379c0-2.44,0-2.436-2.4-2.441a4.973,4.973,0,0,0-2.7.444,3.7,3.7,0,0,0-1.735,3.848,2.325,2.325,0,0,1-1.469,2.639,3.431,3.431,0,0,0-1.871,3.925,3.571,3.571,0,0,0,3.445,2.82c1.993.039,3.988-.013,5.981.025.628.012.774-.207.765-.794C-933.651,291.911-933.632,289.881-933.632,287.852Zm-14.125-71.832c-1.647,0-1.654,0-2.052,1.594q-3.372,13.508-6.739,27.018c-.546,2.19-.543,2.166,1.7,2.2.723.011,1.119-.113,1.32-.928q3.483-14.141,7.042-28.263C-946.079,216.021-946.085,216.02-947.757,216.02Zm-20.093,25.666c0-1.493-.019-2.986.01-4.479.01-.506-.14-.673-.657-.666q-2.772.042-5.545,0c-.512-.007-.664.151-.66.661q.031,4.479,0,8.958c0,.505.139.673.656.666q2.772-.041,5.545,0c.512.007.671-.15.661-.662C-967.87,244.672-967.851,243.178-967.851,241.685Zm29.7,5.056-3.971-7.937c-1.169-2.336-1.169-2.337-3.805-2.239-.056,0-.11.062-.249.145l3.953,7.9C-941.028,247-941.028,247-938.151,246.741Zm-6.814.048-3.527-7.042-1.751,7.042Zm-24.587-22.173a12.176,12.176,0,0,0-1.477-3.321c-.309-.482-.448-.067-.578.142a12.18,12.18,0,0,0-1.3,2.888,1.416,1.416,0,0,0,.594,1.583,1.572,1.572,0,0,0,1.788.192A1.759,1.759,0,0,0-969.552,224.616Z" transform="translate(1022.62 -195.489)" fill="#1d272b"/>
      <path id="Trazado_158741" data-name="Trazado 158741" d="M-1134.337,348.287a2.666,2.666,0,0,1-1.089-2.454q.038-33.507.019-67.014c0-1.886.508-2.388,2.412-2.388q9.619,0,19.239,0c1.753,0,2.3.543,2.3,2.287,0,3.848.015,7.7-.013,11.543a1.835,1.835,0,0,0,.626,1.479c1.263,1.2,2.483,2.454,3.709,3.7,1.1,1.112,1.108,1.924.027,3.022q-1.912,1.942-3.858,3.85a1.535,1.535,0,0,0-.5,1.208q.022,17.047,0,34.095a1.1,1.1,0,0,0,.687,1.127,5.192,5.192,0,0,1,2.743,4.635c.025.819-.052,1.644.021,2.457a2.488,2.488,0,0,1-1.084,2.456Zm2.353-27.35c0,5.344.019,10.688-.02,16.032-.006.86.253,1.1,1.088,1.069,1.53-.061,3.066-.072,4.594,0,.927.045,1.208-.208,1.2-1.174-.041-8.087-.023-16.174-.023-24.262,0-1.959,0-1.959,1.979-1.958,1.443,0,1.444,0,1.444,1.423,0,8.265.017,16.531-.023,24.8,0,.966.276,1.219,1.2,1.174,1.564-.075,3.136-.054,4.7-.006.739.023.978-.2.976-.959q-.032-16.139,0-32.278c0-.816-.253-1.015-1.036-1.01-5.023.032-10.047.041-15.07-.006-.915-.008-1.037.347-1.033,1.123C-1131.972,310.249-1131.984,315.593-1131.984,320.937Zm16.8-33.414.3-.144c0-2.3-.014-4.6.009-6.9.006-.67-.408-.623-.848-.623-5.129,0-10.258.014-15.387-.013-.714,0-.9.23-.895.917q.034,9.349,0,18.7c0,.77.25.954.977.944,2.885-.036,5.769-.015,8.654-.015h4.8c-.086-.5-.424-.671-.661-.909-2.133-2.148-4.3-4.265-6.411-6.433a5.34,5.34,0,0,1-.053-7.512,5.548,5.548,0,0,1,7.624-.033C-1116.406,286.133-1115.809,286.845-1115.181,287.523Zm-5.861-.178a1.9,1.9,0,0,0-1.582,1.2,1.9,1.9,0,0,0,.554,2.218c2.261,2.264,4.514,4.535,6.794,6.78.7.688,1.337,1.954,2.153,1.865.78-.085,1.425-1.266,2.162-1.928.4-.36.458-.6.034-1.013-2.834-2.8-5.641-5.62-8.456-8.435A2.164,2.164,0,0,0-1121.042,287.345Zm4.452,57.519h4.261a.915.915,0,0,0,.106,0c.3-.034.688.106.753-.37.232-1.7-.352-3.1-2.247-3.059-1.845.038-3.692.008-5.539.008-2.519,0-2.485,0-2.483,2.511,0,.788.293.946,1,.924C-1119.36,344.833-1117.974,344.864-1116.589,344.864Zm-11.973-3.42c-.925,0-1.851,0-2.776,0-1.12,0-.693.928-.6,1.322.172.7-.8,1.927.6,2.055,1.835.167,3.7.044,5.548.04,1.121,0,.693-.928.6-1.322-.172-.7.8-1.839-.6-2.068A17.367,17.367,0,0,0-1128.563,341.445Z" transform="translate(1135.426 -245.634)" fill="#1d272b"/>
      <path id="Trazado_158742" data-name="Trazado 158742" d="M-1111.385,146.512q0,5.769,0,11.539c0,1.591-.591,2.169-2.2,2.169q-9.775.005-19.552,0c-1.608,0-2.192-.581-2.193-2.179q-.005-11.486,0-22.971c0-1.664.567-2.221,2.256-2.221q9.723,0,19.446,0c1.678,0,2.247.565,2.249,2.231Q-1111.38,140.8-1111.385,146.512Zm-12.068,10.288c2.6,0,5.2-.014,7.794.011.583.006.879-.042.872-.775-.041-4.057-.032-8.114-.006-12.171,0-.608-.173-.769-.772-.764-3.274.028-6.548.02-9.823,0a1.418,1.418,0,0,0-1.127.441q-2.466,2.516-4.98,4.984a1.3,1.3,0,0,0-.43,1.024c.02,2.171.034,4.342-.006,6.512-.012.636.216.752.791.746C-1128.578,156.784-1126.016,156.8-1123.453,156.8Zm-8.461-13.008.243.108c1.072-1.087,2.167-2.153,3.207-3.27a2.794,2.794,0,0,1,2.254-.955c2.951.044,5.9.016,8.856.016,2.677,0,2.656,0,2.563-2.648-.021-.611-.218-.8-.81-.783-1.386.032-2.774.01-4.161.01q-5.6,0-11.2,0c-.432,0-.962-.158-.956.615C-1131.9,139.189-1131.915,141.491-1131.915,143.792Z" transform="translate(1135.358 -132.847)" fill="#1d272b"/>
      <path id="Trazado_158743" data-name="Trazado 158743" d="M-774.72,407.483c-1.65,0-1.65,0-1.649-1.932,0-1.491,0-1.506,1.985-1.485,1.718.018,1.422-.283,1.431,2.034C-772.948,407.729-772.741,407.456-774.72,407.483Z" transform="translate(853.38 -345.891)" fill="#1d272b"/>
      <path id="Trazado_158744" data-name="Trazado 158744" d="M-752.445,437.6c0-1.633,0-1.633,1.949-1.633,1.474,0,1.49,0,1.469,2-.018,1.7.279,1.406-2.05,1.414C-752.688,439.387-752.417,439.6-752.445,437.6Z" transform="translate(834.589 -370.952)" fill="#1d272b"/>
      <path id="Trazado_158745" data-name="Trazado 158745" d="M-1068.1,198.466c0,1.62,0,1.62-1.589,1.62-1.833,0-1.833,0-1.833-1.8,0-1.62,0-1.62,1.589-1.62C-1068.1,196.664-1068.1,196.664-1068.1,198.466Z" transform="translate(1085.226 -182.976)" fill="#1d272b"/>
    </g>
  </g>
</svg>
