<svg xmlns="http://www.w3.org/2000/svg" xmlns:xlink="http://www.w3.org/1999/xlink" width="126.927" height="126.927" viewBox="0 0 126.927 126.927">
  <defs>
    <radialGradient id="radial-gradient" cx="0.076" cy="0.019" r="1.465" gradientTransform="translate(0.001)" gradientUnits="objectBoundingBox">
      <stop offset="0" stop-color="#f6f6f7"/>
      <stop offset="0.477" stop-color="#f9f9fa"/>
      <stop offset="0.715" stop-color="#fff"/>
    </radialGradient>
  </defs>
  <g id="icon5" transform="translate(-217 -741.333)">
    <g id="Grupo_42274" data-name="Grupo 42274" transform="translate(217 741.333)">
      <g id="Grupo_18423" data-name="Grupo 18423" transform="translate(0 0)">
        <g id="Grupo_18421" data-name="Grupo 18421">
          <g id="Grupo_18420" data-name="Grupo 18420">
            <g id="Grupo_18419" data-name="Grupo 18419">
              <path id="Trazado_40936" data-name="Trazado 40936" d="M321.55,2209.183a63.464,63.464,0,1,1-63.463-63.462A63.463,63.463,0,0,1,321.55,2209.183Z" transform="translate(-194.623 -2145.721)" fill="#fff"/>
            </g>
          </g>
        </g>
        <path id="Trazado_40937" data-name="Trazado 40937" d="M320.783,2208.346a63.462,63.462,0,1,0-63.463,63.465A63.213,63.213,0,0,0,320.783,2208.346Z" transform="translate(-193.856 -2144.885)" fill="url(#radial-gradient)"/>
        <path id="Trazado_40938" data-name="Trazado 40938" d="M298.935,2201.548a48.442,48.442,0,1,0-48.441,48.441A48.262,48.262,0,0,0,298.935,2201.548Z" transform="translate(-186.837 -2137.874)" fill="none" stroke="#008f85" stroke-miterlimit="10" stroke-width="4"/>
        <g id="Grupo_18422" data-name="Grupo 18422" transform="translate(11.243 35.63)">
          <path id="Trazado_40939" data-name="Trazado 40939" d="M309.812,2164.488a63.471,63.471,0,0,1-109.267,63.2,63.27,63.27,0,0,0,109.267-63.2Z" transform="translate(-200.545 -2164.488)" fill="#eceef0"/>
        </g>
      </g>
    </g>
    <g id="JsB1ut" transform="translate(1653.64 794.879)">
      <g id="Grupo_121154" data-name="Grupo 121154" transform="translate(-1404.842 -16.683)">
        <path id="Trazado_159175" data-name="Trazado 159175" d="M-1112.654,3.225a20.651,20.651,0,0,1,6.114-14.6,16.818,16.818,0,0,1,6.841-4.461,15.4,15.4,0,0,1,11.946.782,15.293,15.293,0,0,1,8.733,11.08,15.13,15.13,0,0,1,.245,2.045,1.381,1.381,0,0,1-1.267,1.548,1.379,1.379,0,0,1-1.48-1.391,11.914,11.914,0,0,0-1.2-4.757,12.707,12.707,0,0,0-8.224-6.8c-5.179-1.475-9.638-.071-13.411,3.672A18.059,18.059,0,0,0-1109.5-.587a19.516,19.516,0,0,0,.718,10.455,30.817,30.817,0,0,0,2.622,5.584,18.527,18.527,0,0,1,1.384,3.456,103.506,103.506,0,0,0,3.957,10.757,8.814,8.814,0,0,0,5.168,4.989,13.41,13.41,0,0,0,5.349.582,10.828,10.828,0,0,0,4.548-1.137,9.5,9.5,0,0,0,4.357-5.075,19.918,19.918,0,0,0,.8-2.754,1.4,1.4,0,0,1,1.544-1.171,1.321,1.321,0,0,1,1.193,1.51,13.127,13.127,0,0,1-1.719,5.048,11.764,11.764,0,0,1-6.951,5.726,17.9,17.9,0,0,1-6.256.62,11.913,11.913,0,0,1-6.973-2.465,13.761,13.761,0,0,1-3.955-5.584c-1.661-3.875-2.872-7.91-4.268-11.88a20.642,20.642,0,0,0-1.464-2.807A25.506,25.506,0,0,1-1112.654,3.225Z" transform="translate(1137.795 16.683)" fill="#1d272b"/>
        <path id="Trazado_159176" data-name="Trazado 159176" d="M-994.924,113.246a5.67,5.67,0,0,0-5.427-2.93,7.292,7.292,0,0,0-4.338,1.538,7.55,7.55,0,0,0-2.429,4.062,18.719,18.719,0,0,0-.373,7c.1.853.257,1.7.372,2.549a1.356,1.356,0,0,1-1.136,1.564,1.328,1.328,0,0,1-1.55-1.043c-.775-3.957-.988-7.91.35-11.8a9.22,9.22,0,0,1,7.889-6.514,8.642,8.642,0,0,1,5.964,1.05,9.813,9.813,0,0,1,3.685,4.263,15.826,15.826,0,0,1,1.445,4.879,1.388,1.388,0,0,1-1.146,1.6,1.39,1.39,0,0,1-1.574-1.183c-.153-.812-.33-1.62-.5-2.46a8.906,8.906,0,0,0-3.634,1.645,10.031,10.031,0,0,0-3.6,5.7,14.228,14.228,0,0,0-.344,6.759,8.294,8.294,0,0,0,4.942,5.993c1.946.879,3.634-.24,3.885-2.466a3.753,3.753,0,0,0-.45-2.188,36.966,36.966,0,0,1-1.865-3.952,4.639,4.639,0,0,1,.833-4.947,4.025,4.025,0,0,1,5.313-.533,1.348,1.348,0,0,1,.4,1.628,1.355,1.355,0,0,1-1.514.789,2.85,2.85,0,0,1-.557-.219,1.359,1.359,0,0,0-2.053,1.324,5.389,5.389,0,0,0,.689,2.416c.494.985,1.09,1.924,1.525,2.933,1.263,2.933-.079,7.05-3.46,8.059a5.675,5.675,0,0,1-4.4-.562,11.249,11.249,0,0,1-5.468-5.934,12.976,12.976,0,0,1-.813-5.569,18.68,18.68,0,0,1,1.492-6.582,11.709,11.709,0,0,1,7.693-6.781A1.1,1.1,0,0,0-994.924,113.246Z" transform="translate(1044.361 -96.856)" fill="#1d272b"/>
        <path id="Trazado_159177" data-name="Trazado 159177" d="M-1387.2,259a1.636,1.636,0,0,1,1.849,1.55,1.648,1.648,0,0,1-1.662,1.66c-2.812.218-5.623.45-8.435.677l-6.98.564c-.228.018-.457.038-.686.046a1.628,1.628,0,0,1-1.729-1.542,1.621,1.621,0,0,1,1.514-1.665c2.4-.2,4.795-.392,7.192-.584q4.239-.34,8.478-.676C-1387.483,259.014-1387.312,259-1387.2,259Z" transform="translate(1404.842 -235.275)" fill="#1d272b"/>
        <path id="Trazado_159178" data-name="Trazado 159178" d="M-1328.094,13.929a1.718,1.718,0,0,1,2.183-1.665c3.085.868,6.164,1.76,9.244,2.645.894.257,1.788.512,2.679.78a1.746,1.746,0,0,1,1.281,1.892,1.744,1.744,0,0,1-1.646,1.536,2.171,2.171,0,0,1-.716-.1q-5.817-1.671-11.629-3.356A1.757,1.757,0,0,1-1328.094,13.929Z" transform="translate(1334.698 -9.713)" fill="#1d272b"/>
        <path id="Trazado_159179" data-name="Trazado 159179" d="M-1257.453,439.19a1.666,1.666,0,0,1-.663,1.389q-4.566,3.539-9.131,7.08a1.65,1.65,0,0,1-2.406-.164,1.647,1.647,0,0,1,.4-2.444q2.964-2.311,5.94-4.605c1.075-.834,2.141-1.678,3.224-2.5a1.59,1.59,0,0,1,1.782-.136A1.517,1.517,0,0,1-1257.453,439.19Z" transform="translate(1281.631 -398.51)" fill="#1d272b"/>
      </g>
    </g>
  </g>
</svg>
