<svg xmlns="http://www.w3.org/2000/svg" xmlns:xlink="http://www.w3.org/1999/xlink" width="126.927" height="126.927" viewBox="0 0 126.927 126.927">
  <defs>
    <radialGradient id="radial-gradient" cx="0.076" cy="0.019" r="1.465" gradientTransform="translate(0.001)" gradientUnits="objectBoundingBox">
      <stop offset="0" stop-color="#f6f6f7"/>
      <stop offset="0.477" stop-color="#f9f9fa"/>
      <stop offset="0.715" stop-color="#fff"/>
    </radialGradient>
  </defs>
  <g id="icon7" transform="translate(-217 -741.333)">
    <g id="Grupo_42274" data-name="Grupo 42274" transform="translate(217 741.333)">
      <g id="Grupo_18423" data-name="Grupo 18423" transform="translate(0 0)">
        <g id="Grupo_18421" data-name="Grupo 18421">
          <g id="Grupo_18420" data-name="Grupo 18420">
            <g id="Grupo_18419" data-name="Grupo 18419">
              <path id="Trazado_40936" data-name="Trazado 40936" d="M321.55,2209.183a63.464,63.464,0,1,1-63.463-63.462A63.463,63.463,0,0,1,321.55,2209.183Z" transform="translate(-194.623 -2145.721)" fill="#fff"/>
            </g>
          </g>
        </g>
        <path id="Trazado_40937" data-name="Trazado 40937" d="M320.783,2208.346a63.462,63.462,0,1,0-63.463,63.465A63.213,63.213,0,0,0,320.783,2208.346Z" transform="translate(-193.856 -2144.885)" fill="url(#radial-gradient)"/>
        <path id="Trazado_40938" data-name="Trazado 40938" d="M298.935,2201.548a48.442,48.442,0,1,0-48.441,48.441A48.262,48.262,0,0,0,298.935,2201.548Z" transform="translate(-186.837 -2137.874)" fill="none" stroke="#008f85" stroke-miterlimit="10" stroke-width="4"/>
        <g id="Grupo_18422" data-name="Grupo 18422" transform="translate(11.243 35.63)">
          <path id="Trazado_40939" data-name="Trazado 40939" d="M309.812,2164.488a63.471,63.471,0,0,1-109.267,63.2,63.27,63.27,0,0,0,109.267-63.2Z" transform="translate(-200.545 -2164.488)" fill="#eceef0"/>
        </g>
      </g>
    </g>
    <g id="Xo5eH7.tif" transform="translate(2712.648 753.435)">
      <g id="Grupo_121156" data-name="Grupo 121156" transform="translate(-2461.274 22.606)">
        <path id="Trazado_159193" data-name="Trazado 159193" d="M-2461.274,56.89c.456-.75.857-1.54,1.378-2.241a44.178,44.178,0,0,0,4.19-6.822.9.9,0,0,0-.226-1.258c-.1-.087-.192-.189-.292-.28-1.646-1.5-1.919-2.424-1-4.426a46.671,46.671,0,0,0,1.854-5.686c1.353-4.311,3.716-7.88,7.815-10.072a24,24,0,0,1,6.655-2.195,53.534,53.534,0,0,1,10.69-1.305,21.909,21.909,0,0,1,10.6,2.781c.479.262.81.61.676,1.2-.157.69-.833.9-1.569.571a45.575,45.575,0,0,0-4.248-1.764,19.619,19.619,0,0,0-8.047-.712,66.855,66.855,0,0,0-10.165,1.739c-5.74,1.478-9.121,5.3-10.671,10.864a33.739,33.739,0,0,1-1.807,5.4c-.532,1.132-.439,1.273.5,2.123a5.541,5.541,0,0,1,1.014,1.162,2.482,2.482,0,0,1,.079,2.526,43.839,43.839,0,0,1-4.717,7.643c-.962,1.253-1.071,1.105.431,2.021.295.18.614.32.912.495a2.907,2.907,0,0,1,1.29,3.994c-.185.42-.413.821-.646,1.28l.941.738c.746.583.809.953.3,1.761-.079.127-.139.265-.232.444,2.084.957,2.366,2.6,1.841,4.591a3.49,3.49,0,0,0,.329,2.36,1.67,1.67,0,0,0,2.086.888c3.56-1.095,7.119-2.2,10.663-3.343A43.959,43.959,0,0,0-2436.5,69.8a5.546,5.546,0,0,0,1.768-1.257,3.4,3.4,0,0,0,.691-1.524c.149-.637.452-1.025,1.038-1.014a.949.949,0,0,1,.946,1.073,4.042,4.042,0,0,1-1.336,2.967,10.859,10.859,0,0,1-4.076,2.324c-1.012.364-2.033.7-3.107,1.072.116.16.2.3.307.42a15.536,15.536,0,0,1,2.973,5.425c.1.309.188.48.573.477q10.739-.062,21.478-.095c.076,0,.152-.015.243-.025,0-.062.021-.128,0-.166a23.512,23.512,0,0,1-2.945-8.974,19.884,19.884,0,0,1-.132-6.263c.018-.114.027-.23.051-.342A.98.98,0,0,1-2416.9,63a.947.947,0,0,1,.8,1.187,23.959,23.959,0,0,0,1.263,10.9,29.05,29.05,0,0,0,1.744,3.681c.227.465.511.906.706,1.383a.979.979,0,0,1-.976,1.481c-.981.019-1.963.008-2.944.019-.208,0-.416.04-.624.062h-21.251a6,6,0,0,1-.737-1.033c-.515-1.176-.868-2.434-1.481-3.552a18.64,18.64,0,0,0-1.983-2.589.764.764,0,0,0-.927-.177c-2.57.789-5.14,1.58-7.73,2.3a3.535,3.535,0,0,1-4.1-1.917,5.821,5.821,0,0,1-.5-3.761c.335-1.636.329-1.638-1.084-2.524a1.529,1.529,0,0,1-.78-2.05.682.682,0,0,0-.291-.936c-1.054-.807-1.143-1.328-.518-2.521.08-.153.167-.3.25-.455.793-1.44.723-1.714-.723-2.453a4.605,4.605,0,0,1-2.49-2.346Z" transform="translate(2461.274 -22.606)" fill="#1d272b"/>
        <path id="Trazado_159194" data-name="Trazado 159194" d="M-2281.487,102.81a3.088,3.088,0,0,1-2.864,2.881c-.052.237-.091.48-.158.716a3,3,0,0,1-5.046,1.255c-2.093-2.072-4.151-4.178-6.224-6.269-3.1-3.13-6.232-6.235-9.3-9.4a10.485,10.485,0,0,1-2.751-10.9,10.343,10.343,0,0,1,8.36-7.566,10.365,10.365,0,0,1,9.464,2.8c.562.521.631,1.123.212,1.562s-1,.392-1.571-.137a8.79,8.79,0,0,0-11.094-.922,8.955,8.955,0,0,0-1.248,13.743c4.539,4.633,9.124,9.221,13.689,13.829q.813.82,1.626,1.64c.621.624,1.234.721,1.709.276.513-.481.448-1.109-.193-1.756Q-2292.6,98.786-2298.335,93a4.06,4.06,0,0,1-.4-.419.994.994,0,0,1,.112-1.312.943.943,0,0,1,1.265-.049,4.8,4.8,0,0,1,.459.437l11.3,11.4a4.754,4.754,0,0,0,.416.4,1.024,1.024,0,0,0,1.369-.034,1.072,1.072,0,0,0,.156-1.37,2.667,2.667,0,0,0-.342-.389q-4.629-4.68-9.269-9.348a1.743,1.743,0,0,0-.823-.422,2.987,2.987,0,0,1-2.4-2.084,2.87,2.87,0,0,1,.7-3.043c3.54-3.591,7.026-7.239,10.668-10.724a10.058,10.058,0,0,1,10.642-2.389,10.4,10.4,0,0,1,7.305,8.271,10.543,10.543,0,0,1-3.026,9.891c-1.744,1.794-3.52,3.556-5.272,5.342a2.054,2.054,0,0,0-.436.658A3.051,3.051,0,0,1-2278.2,99.8a.676.676,0,0,0-.455.378,3.017,3.017,0,0,1-2.609,2.566C-2281.334,102.761-2281.405,102.787-2281.487,102.81Zm5.367-7.827c-.04.031.024-.009.075-.061,1.571-1.584,3.179-3.135,4.7-4.764a8.485,8.485,0,0,0,2.3-7.551,8.54,8.54,0,0,0-6.1-7.091,8.393,8.393,0,0,0-8.993,2.292c-3.321,3.317-6.613,6.664-9.918,10-.694.7-.791,1.348-.274,1.84s1.058.381,1.782-.35q3.27-3.3,6.537-6.6c.824-.832,1.214-.831,2.008,0,.04.042.077.086.119.126,1.475,1.4,3.542,2.331,5.5,1.343a10.486,10.486,0,0,0,1.762-1.269,1.01,1.01,0,0,1,1.4-.062.956.956,0,0,1,.052,1.393,5.168,5.168,0,0,1-.6.618,6.506,6.506,0,0,1-8.335.356c-.307-.219-.6-.458-.833-.639l-1.012.875Zm-15.637-3.63,9.316,9.076a1.466,1.466,0,0,0,.129.115,1.03,1.03,0,0,0,1.414-.052,1.072,1.072,0,0,0,.068-1.421,3.976,3.976,0,0,0-.352-.38q-4.262-4.3-8.526-8.607c-.131-.132-.273-.253-.418-.386Zm2.866-2.916,9.338,9.09a1.522,1.522,0,0,0,.175.15,1.034,1.034,0,0,0,1.325-.061,1.055,1.055,0,0,0,.195-1.316,2.417,2.417,0,0,0-.369-.439q-4.339-4.383-8.683-8.762c-.1-.105-.225-.2-.324-.281Z" transform="translate(2326.043 -67.219)" fill="#1d272b"/>
        <path id="Trazado_159195" data-name="Trazado 159195" d="M-2372.122,73.98a1.105,1.105,0,0,1-.844.95,17.352,17.352,0,0,0-2.488,1.045,10.662,10.662,0,0,0-4.817,6.507c-.209.657-.338,1.34-.506,2.01-.179.714-.639,1.067-1.214.935-.6-.138-.855-.621-.715-1.349A15.457,15.457,0,0,1-2379,76.265a11.261,11.261,0,0,1,5.607-3.254A.97.97,0,0,1-2372.122,73.98Z" transform="translate(2391.828 -67.146)" fill="#1d272b"/>
        <path id="Trazado_159196" data-name="Trazado 159196" d="M-2391.173,193.973a.981.981,0,0,1-.98.99,1.014,1.014,0,0,1-.973-1.01.978.978,0,0,1,.965-.945A.944.944,0,0,1-2391.173,193.973Z" transform="translate(2401.01 -173.295)" fill="#1d272b"/>
      </g>
    </g>
  </g>
</svg>
