<svg xmlns="http://www.w3.org/2000/svg" width="101.786" height="103.563" viewBox="0 0 101.786 103.563">
  <g id="icon3" transform="translate(1916.364 -84.345)">
    <g id="Grupo_121058" data-name="Grupo 121058" transform="translate(-1916.364 84.345)">
      <path id="Trazado_158746" data-name="Trazado 158746" d="M-1551.621,299.29a2.693,2.693,0,0,1-2.474,1.1c-7.541-.039-15.083-.02-22.624-.021-2.034,0-2.507-.48-2.5-2.554a26.15,26.15,0,0,1,.055-3.122,5.314,5.314,0,0,1,5.656-4.652c.973.018,1.234-.229,1.214-1.211-.067-3.339-.045-6.681-.01-10.022.007-.684-.147-.9-.869-.893-2.194.028-2.6-.422-2.6-2.657,0-6.646-.009-13.292.013-19.938a1.966,1.966,0,0,0-.645-1.6c-1.277-1.209-2.508-2.469-3.738-3.728a1.754,1.754,0,0,1,.006-2.8c1.153-1.183,2.288-2.389,3.514-3.494a2.561,2.561,0,0,0,.867-2.157c-.042-3.7-.018-7.4-.017-11.1,0-2.078.466-2.554,2.5-2.554,6.392,0,12.784.021,19.176-.021a2.675,2.675,0,0,1,2.473,1.1v47.888a2.463,2.463,0,0,1-2.568,1.076c-.66-.091-.911.1-.9.839q.068,5.2,0,10.407c-.01.746.245.928.9.839a2.454,2.454,0,0,1,2.567,1.076Zm-20.7-34.371c0,2.838.036,5.676-.022,8.513-.017.888.287,1.1,1.108,1.067,1.614-.056,3.232-.05,4.846,0,.747.022.993-.207.984-.969-.035-2.909-.007-5.819,0-8.729,0-2.437,0-2.4,2.441-2.416.812,0,1.038.244,1.028,1.044-.045,3.376-.011,6.753-.044,10.13-.006.683.169.96.9.94,1.687-.046,3.376-.05,5.063,0,.772.024.966-.251.963-.988q-.039-8.513,0-17.027c0-.722-.167-1-.951-1q-7.7.048-15.405,0c-.7,0-.93.211-.922.919C-1572.3,259.244-1572.322,262.082-1572.322,264.92Zm0-25.846.255.186c.734-.772,1.449-1.564,2.207-2.311a4.981,4.981,0,0,1,4.029-1.45,5.049,5.049,0,0,1,4.666,3.44,5.249,5.249,0,0,1-1.359,5.831c-2.184,2.134-4.328,4.311-6.478,6.479-.208.21-.553.352-.526.8,4.607,0,9.2-.008,13.792.009.638,0,.669-.339.669-.82q-.011-9.541.005-19.082c0-.582-.143-.828-.778-.826q-7.867.031-15.735,0c-.549,0-.762.164-.757.737C-1572.308,234.4-1572.322,236.739-1572.322,239.074Zm8.051,1.8a1.836,1.836,0,0,0-1.131-1.794,1.812,1.812,0,0,0-2.173.418c-2.906,2.882-5.79,5.787-8.7,8.669-.331.329-.356.534,0,.858.633.584,1.247,1.192,1.825,1.83.379.419.631.395,1.023,0q4.2-4.252,8.443-8.466A2.053,2.053,0,0,0-1564.271,240.874Zm-4.6,43.1v3.445c0,2.63,0,2.6,2.588,2.612.713,0,.888-.2.879-.893-.039-2.87-.016-5.742-.016-8.612,0-2.672,0-2.65-2.7-2.609-.614.009-.781.182-.768.783C-1568.848,280.459-1568.872,282.218-1568.872,283.976Zm10.351,0v-3.549c0-2.535,0-2.507-2.58-2.514-.7,0-.9.188-.886.89.039,2.868.016,5.736.016,8.6,0,2.685,0,2.663,2.687,2.62.61-.01.79-.169.776-.781C-1558.548,287.494-1558.522,285.737-1558.522,283.98Zm-12.177,12.937h2.793c2.54,0,2.505,0,2.5-2.533,0-.8-.3-.943-1-.932-2.291.036-4.583.011-6.874.014-1.837,0-2.5.713-2.509,2.542,0,.693.184.947.9.922C-1573.493,296.882-1572.095,296.917-1570.7,296.917Zm12.133,0c.933,0,1.866-.023,2.8.006s.776-.667.668-1.114c-.188-.783.732-2.111-.639-2.283a44.725,44.725,0,0,0-5.59-.056c-.3,0-.627.014-.622.413.011.96-.336,2.046.159,2.839.337.539,1.341.133,2.043.19C-1559.357,296.943-1558.961,296.917-1558.566,296.916Z" transform="translate(1653.407 -196.827)" fill="#1d272b"/>
      <path id="Trazado_158747" data-name="Trazado 158747" d="M-1533.27,110.878a2.689,2.689,0,0,1-2.476,1.1c-6.431-.042-12.863-.02-19.294-.021-1.846,0-2.381-.529-2.381-2.355q0-7.979,0-15.959c0-4.623,2.118-7.569,6.487-9.033.161-.054.366-.034.413-.264h9.92c.069.067.13.179.209.193a8.366,8.366,0,0,1,6.795,6.089c.093.277-.058.671.328.836Zm-12.1-2.373c2.622,0,5.244-.015,7.865.012.575.006.826-.1.8-.75-.052-1.291-.03-2.587-.008-3.879.008-.484-.083-.712-.642-.861a10.17,10.17,0,0,1-7.675-7.638c-.155-.579-.378-.707-.928-.7-2.406.029-4.814.043-7.219-.006-.7-.014-.812.228-.808.855.026,4.024.038,8.048-.007,12.071-.009.8.254.926.97.914C-1550.472,108.478-1547.921,108.5-1545.371,108.5Zm-.063-17.257c2.512,0,5.023-.015,7.534.01.7.007.832-.2.485-.792a5.029,5.029,0,0,0-4.4-2.649q-3.549-.106-7.1,0a5.023,5.023,0,0,0-4.327,2.585c-.359.6-.316.868.489.857C-1550.315,91.225-1547.874,91.247-1545.435,91.247Zm3.864,3.452c.249,2.219,2.952,4.747,4.851,4.828,0-1.364-.034-2.728.015-4.088.024-.646-.225-.768-.8-.752C-1538.831,94.724-1540.159,94.7-1541.571,94.7Z" transform="translate(1635.056 -84.345)" fill="#1d272b"/>
      <path id="Trazado_158748" data-name="Trazado 158748" d="M-1862.755,302.1c1.944-.772,3.555-1.383,5.139-2.056.62-.263,1-.345,1.232.465.3,1.028,1.323,2.148.962,2.968-.305.692-1.76.889-2.716,1.28-1.361.557-2.732,1.089-4.1,1.636-.2.081-.392.185-.7.333,1.931,2.423,3.807,4.857,5.778,7.21.653.779.613,1.151-.19,1.769-2.321,1.787-2.292,1.825-4.129-.461-.86-1.07-1.72-2.14-2.706-3.173.091,2.751-.555,5.485,1.037,8.141,1.751,2.925,3.114,6.085,4.625,9.152,1.043,2.115.192,3.522-2.133,3.523q-26.555.009-53.111,0c-1.861,0-2.59-.736-2.594-2.6q-.012-5.729,0-11.459c0-1.876.723-2.6,2.586-2.607,2.863-.009,5.729-.055,8.59.025,1.056.029,1.354-.2,1.35-1.315-.047-12.414-.03-24.828-.03-37.241,0-5.821,2.287-9.138,7.72-11.109a.78.78,0,0,0,.622-.908c-.024-1.649-.04-3.3.006-4.948.018-.648-.206-.864-.812-.772a1.636,1.636,0,0,1-.26,0c-3.451-.037-3.435-.036-3.127-3.535.046-.52.206-.627.687-.648,1.151-.051,2.689.522,3.34-.245.561-.662.17-2.154.145-3.278-.012-.539.208-.692.687-.631a1.255,1.255,0,0,0,.13,0c1.076.025,2.437-.337,3.148.186.675.5.231,1.945.186,2.964-.04.907.3,1.074,1.1,1.035.985-.048,2.319-.345,2.877.159.663.6.1,1.961.23,2.978.12.917-.293,1.067-1.088,1.031-.985-.045-2.321-.342-2.876.162-.659.6-.084,1.964-.227,2.98-.3,2.155.235,3.373,2.57,4.315,3.745,1.511,5.455,4.875,5.8,8.9a4.86,4.86,0,0,1,2.452-.372c1.554.511,2.128-.068,2.882-1.461a8.094,8.094,0,0,1,13.98-.242c.459.739.747.941,1.662.629,3.3-1.121,7.237.619,9.083,3.861a8.337,8.337,0,0,1-1.573,10.238,8.3,8.3,0,0,1-3.361,1.9c-.435.127-.767.228-.951.728C-1860.079,295.012-1861.363,298.4-1862.755,302.1Zm-36.938-6.463c0,6.462.022,12.923-.023,19.384-.007.972.237,1.238,1.215,1.22,3.38-.064,6.763-.07,10.142,0,1.033.022,1.184-.335,1.182-1.254q-.042-18.994-.014-37.988a7.078,7.078,0,0,0-.46-2.669,6.287,6.287,0,0,0-6.785-3.9,6.243,6.243,0,0,0-5.244,6.076C-1899.717,282.892-1899.691,289.267-1899.694,295.641Zm36.194,33.083c-1.262-2.527-2.46-4.828-3.558-7.176a1.761,1.761,0,0,0-1.871-1.181c-5.467.048-10.935.023-16.4.023-8.549,0-17.1.016-25.645-.021-.974,0-1.276.261-1.238,1.239.074,1.907.1,3.824-.008,5.727-.07,1.2.365,1.415,1.467,1.412q22.977-.052,45.953-.024Zm-7.544-41.68c3.683,0,7.365.029,11.048-.012a4.061,4.061,0,0,0,3.851-2.954,4.113,4.113,0,0,0-1.572-4.593,3.455,3.455,0,0,0-4.233-.052c-3.182,2.1-3.562,1.964-4.666-1.647a4.489,4.489,0,0,0-4.5-3.21,4.222,4.222,0,0,0-3.575,4.288c-.011.65.014,1.3-.01,1.95a2,2,0,0,1-1.44,1.957,2,2,0,0,1-2.311-.738c-.331-.4-.65-.81-1-1.2a1.608,1.608,0,0,0-2.085-.495c-.817.419-1.592.84-1.511,2.009a28.421,28.421,0,0,1,0,3.638c-.051.862.241,1.089,1.086,1.079C-1878.323,287.022-1874.683,287.047-1871.044,287.044Zm-10.684,4.2c2.043,4.081,4.007,7.975,5.931,11.889.27.551.639.6,1.141.592,1.948-.014,3.9-.046,5.847.014a1.216,1.216,0,0,0,1.386-.964c1.266-3.493,2.6-6.963,3.882-10.45.117-.323.461-.654.177-1.08Zm-1.088,7.157-.213.057V313.1c0,3.2,0,3.178,3.258,3.14.739-.009.937-.208.925-.937-.042-2.775-.014-5.551-.021-8.326a2.12,2.12,0,0,0-.11-.886C-1880.241,303.52-1881.532,300.962-1882.815,298.4Zm14.368,13.665c0-1.126-.03-2.252.012-3.376.023-.608-.147-.833-.788-.815-1.557.043-3.117.039-4.674,0-.61-.015-.822.155-.812.792.036,2.251.033,4.5,0,6.754-.008.606.147.833.788.815,1.557-.043,3.117-.039,4.675,0,.611.015.837-.153.811-.792C-1868.482,314.318-1868.448,313.191-1868.448,312.065Z" transform="translate(1916.364 -229.351)" fill="#1d272b"/>
      <path id="Trazado_158749" data-name="Trazado 158749" d="M-1523.844,151.627c-1.668,0-1.668,0-1.668-1.675,0-1.776,0-1.776,1.782-1.776,1.668,0,1.668,0,1.668,1.675C-1522.063,151.627-1522.063,151.627-1523.844,151.627Z" transform="translate(1610.048 -134.37)" fill="#1d272b"/>
    </g>
  </g>
</svg>
