<svg xmlns="http://www.w3.org/2000/svg" xmlns:xlink="http://www.w3.org/1999/xlink" width="479.409" height="542.9" viewBox="0 0 479.409 542.9">
  <defs>
    <clipPath id="clip-path">
      <rect id="Rectángulo_34354" data-name="Rectángulo 34354" width="17.096" height="6.586" fill="none"/>
    </clipPath>
    <linearGradient id="linear-gradient" x1="0.5" x2="0.5" y2="1" gradientUnits="objectBoundingBox">
      <stop offset="0" stop-color="#f5f5f5"/>
      <stop offset="0.25" stop-color="#f5f5f5"/>
      <stop offset="1" stop-color="#a7b3cf"/>
    </linearGradient>
  </defs>
  <g id="img6" transform="translate(-184.473 -1959.284)">
    <g id="Grupo_107070" data-name="Grupo 107070" transform="translate(184.473 2017)">
      <path id="Trazado_151846" data-name="Trazado 151846" d="M493.7,568.433c17.995-30.74,23.114-70.635,13.586-105.864-6.024-22.273-17.585-42.964-19.063-66.19-2.956-46.437,34.309-83.978,42.039-129.713,3.4-20.1-.309-43.516-14.874-55.725-14.386-12.059-34.919-9.6-51.206-1.152s-30.068,21.964-45.705,31.848-34.892,15.993-51.405,8.128c-16.727-7.968-26.215-28.052-31.529-47.626s-7.923-40.422-16.993-58.156c-14.949-29.227-46.822-45.162-76.524-41.039s-56.24,26.712-70.475,56.389-16.723,65.57-9.637,98.348c3.594,16.624,9.516,32.544,12.744,49.264s3.524,35.02-3.684,50.08c-15.074,31.492-54.84,35.883-75.665,62.89-17.187,22.29-17.726,56.305-7.973,83.716s28.085,49.652,46.361,70.811c85.248,3.23,172.023,3.444,257.27,6.675C424.1,582.374,460.6,570.63,493.7,568.433Z" transform="translate(-80.961 -96.028)" fill="#a4a4b4" opacity="0.354" style="mix-blend-mode: multiply;isolation: isolate"/>
      <path id="Trazado_151847" data-name="Trazado 151847" d="M359.21,191.928c-.225,24.112,22.7,45.1,18.707,68.878-2.133,12.724-11.828,25.622-6.193,37.228,4.985,10.269,19.262,12.05,30.179,8.711,25.553-7.817,41.085-33.937,48.513-59.608,6.987-24.145,8.721-51.115-2.468-73.624-9.017-18.135-29.819-34.145-50.943-32.664C377.656,142.207,359.38,173.766,359.21,191.928Z" transform="translate(23.408 -81.604)" fill="#a4a4b4" opacity="0.31" style="mix-blend-mode: multiply;isolation: isolate"/>
      <path id="Trazado_151848" data-name="Trazado 151848" d="M119.912,158.042c-17.069,28.478-17.839,66.013-1.951,95.166,5.02,9.212,11.8,17.8,20.956,22.919s20.966,6.265,30.079,1.067c13.82-7.883,16.876-26.477,15.776-42.35s-4.7-32.513,1.416-47.2c3.985-9.575,11.636-17.04,18.424-24.881s13.123-16.993,13.473-27.359c.909-26.869-27.617-24.862-44.809-19.282C151.329,123.247,131.812,138.189,119.912,158.042Z" transform="translate(-71.361 -92.142)" fill="#a4a4b4" opacity="0.31" style="mix-blend-mode: multiply;isolation: isolate"/>
      <g id="Grupo_107069" data-name="Grupo 107069" transform="translate(9.55)" style="mix-blend-mode: multiply;isolation: isolate">
        <path id="Trazado_151849" data-name="Trazado 151849" d="M486.836,577.1,485,575.214c5.044-6.214,13.1-20.458,10.37-46.068-1.213-11.4-4.22-22.662-7.129-33.552-1.3-4.865-2.642-9.9-3.814-14.892-12.508-53.305-7.036-112.108,15.011-161.329,1.958-4.368,4.077-8.751,6.127-12.989,6.077-12.564,12.359-25.558,15.061-39.593,4.739-24.629-4.629-43.089-15.336-49.818-10.273-6.459-24.775-5.471-39.784,2.709a187.679,187.679,0,0,0-15.988,10.19c-6.82,4.678-13.872,9.514-21.445,12.938-29.791,13.472-67.039,2.023-86.638-26.629-9.419-13.768-14.738-30.409-19.881-46.5-1.993-6.236-4.054-12.685-6.32-18.855-7.049-19.184-19.95-43.265-41.381-49.024-18.831-5.064-37.9,6.065-50.584,16.292-24.262,19.567-41.364,46.067-48.159,74.616-4.58,19.252-4.765,40.206-4.943,60.471-.265,30.178-.54,61.384-15.66,86.515-6.878,11.433-16.339,20.554-25.486,29.377-8.568,8.261-17.428,16.8-24.033,27.16-14.965,23.464-18.634,56.683-10.064,91.14,7.7,30.959,23.4,58.429,38.577,85l-2.086,1.513c-15.279-26.739-31.079-54.389-38.879-85.754-8.774-35.28-4.97-69.371,10.438-93.527,6.779-10.63,15.754-19.283,24.433-27.653,9.025-8.7,18.356-17.7,25.046-28.82,14.7-24.434,14.958-53.84,15.232-84.973.18-20.44.366-41.573,5.03-61.17,6.941-29.172,24.383-56.221,49.11-76.166,13.1-10.565,32.861-22.045,52.6-16.737,22.45,6.034,35.828,30.888,43.1,50.675,2.29,6.231,4.36,12.711,6.363,18.978,5.078,15.889,10.328,32.32,19.511,45.741,18.946,27.7,54.951,38.763,83.75,25.74,7.38-3.337,14.344-8.113,21.079-12.73a189.187,189.187,0,0,1,16.2-10.32c15.746-8.581,31.081-9.545,42.074-2.635,11.482,7.217,21.56,26.835,16.553,52.854-2.778,14.429-9.147,27.6-15.309,40.34-2.041,4.219-4.151,8.581-6.09,12.91-21.777,48.618-27.182,106.7-14.826,159.353,1.161,4.951,2.5,9.959,3.791,14.8,2.939,11,5.978,22.383,7.218,34.025C500.68,555.531,492.164,570.536,486.836,577.1Z" transform="translate(-87.906 -97.739)" fill="#a4a4b4"/>
      </g>
    </g>
    <g id="Grupo_121137" data-name="Grupo 121137" transform="translate(394.638 1655.915)">
      <g id="Grupo_121123" data-name="Grupo 121123" transform="translate(-180.22 635.34)">
        <path id="Trazado_159087" data-name="Trazado 159087" d="M-132.25,522.242c-8.343,0-12.573-4.974-12.573-14.789V446.564h1.973v60.889c0,8.746,3.367,12.818,10.6,12.818,8.356,0,9.614-1.838,9.614-14.052,0-1.513-.034-3.2-.073-5-.214-10.385-.481-23.313,4.833-28.737a8.211,8.211,0,0,1,6.088-2.5h13.8v1.971h-13.8a6.23,6.23,0,0,0-4.679,1.908c-4.736,4.836-4.467,17.832-4.268,27.32.037,1.809.073,3.51.073,5.037C-120.663,518.635-122.185,522.242-132.25,522.242Z" transform="translate(237.346 -404.247)" fill="#51799e"/>
        <rect id="Rectángulo_34341" data-name="Rectángulo 34341" width="68.366" height="13.805" rx="2.332" transform="translate(2.383)" fill="#63bab6"/>
        <rect id="Rectángulo_34342" data-name="Rectángulo 34342" width="345.125" height="13.805" rx="2.332" transform="translate(71.734)" fill="#63bab6"/>
        <rect id="Rectángulo_34343" data-name="Rectángulo 34343" width="61.915" height="73.624" transform="translate(130.568 86.772)" fill="#acc1d1"/>
        <rect id="Rectángulo_34344" data-name="Rectángulo 34344" width="61.915" height="33.69" transform="translate(130.568 46.016)" fill="#707b82"/>
        <path id="Trazado_159088" data-name="Trazado 159088" d="M-.859,437.794H-146.3l41.907,28.6h62.121Z" transform="translate(234.962 -418.401)" fill="#c7d0d8"/>
        <path id="Trazado_159089" data-name="Trazado 159089" d="M35.319,506.761l-190.8.986,65.9-16.763h62.121Z" transform="translate(220.148 -332.56)" fill="#c7d0d8"/>
        <path id="Trazado_159090" data-name="Trazado 159090" d="M-127.577,450.612H-19.487L-.922,437.794H-146.363Z" transform="translate(234.861 -418.401)" opacity="0.25"/>
        <rect id="Rectángulo_34345" data-name="Rectángulo 34345" width="420.396" height="13.147" transform="translate(0 10.189)" fill="#f2f3f4"/>
        <rect id="Rectángulo_34346" data-name="Rectángulo 34346" width="192.936" height="14.791" transform="translate(64.175 174.53)" fill="#f2f3f4"/>
        <rect id="Rectángulo_34347" data-name="Rectángulo 34347" width="75.268" height="9.203" rx="1.554" transform="translate(124.324 78.719)" fill="#f2f3f4"/>
        <g id="Grupo_121119" data-name="Grupo 121119" transform="translate(136.997 94.319)">
          <rect id="Rectángulo_34348" data-name="Rectángulo 34348" width="24.931" height="47.459" rx="0.667" transform="translate(0 24.931) rotate(-90)" fill="#fff"/>
          <g id="Grupo_121118" data-name="Grupo 121118" transform="translate(4.301 8.461)">
            <rect id="Rectángulo_34349" data-name="Rectángulo 34349" width="18.525" height="7.804" rx="0.263" fill="#7aa2cc"/>
            <rect id="Rectángulo_34350" data-name="Rectángulo 34350" width="17.096" height="6.586" transform="translate(0.616 0.587)" fill="#d93328"/>
            <g id="Grupo_121117" data-name="Grupo 121117" transform="translate(0.586 0.617)">
              <g id="Grupo_121116" data-name="Grupo 121116" clip-path="url(#clip-path)">
                <rect id="Rectángulo_34351" data-name="Rectángulo 34351" width="2.646" height="15.457" transform="translate(15.459 -1.718) rotate(49.414)" fill="#fff" opacity="0.26"/>
                <rect id="Rectángulo_34352" data-name="Rectángulo 34352" width="1.777" height="15.458" transform="translate(10.672 -1.719) rotate(49.415)" fill="#fff" opacity="0.26"/>
                <rect id="Rectángulo_34353" data-name="Rectángulo 34353" width="1.559" height="13.566" transform="translate(17.111 1.783) rotate(49.412)" fill="#fff" opacity="0.26"/>
              </g>
            </g>
          </g>
          <rect id="Rectángulo_34355" data-name="Rectángulo 34355" width="18.389" height="19.317" rx="0.531" transform="translate(25.189 2.885)" fill="#7aa2cc"/>
          <rect id="Rectángulo_34356" data-name="Rectángulo 34356" width="4.018" height="1.854" rx="0.156" transform="translate(26.966 4.662)" fill="#b5d6ff"/>
          <rect id="Rectángulo_34357" data-name="Rectángulo 34357" width="4.018" height="1.854" rx="0.156" transform="translate(31.988 4.662)" fill="#b5d6ff"/>
          <rect id="Rectángulo_34358" data-name="Rectángulo 34358" width="4.018" height="1.854" rx="0.156" transform="translate(36.972 4.662)" fill="#b5d6ff"/>
          <rect id="Rectángulo_34359" data-name="Rectángulo 34359" width="4.018" height="1.854" rx="0.156" transform="translate(26.966 7.405)" fill="#b5d6ff"/>
          <rect id="Rectángulo_34360" data-name="Rectángulo 34360" width="4.018" height="1.854" rx="0.156" transform="translate(31.988 7.405)" fill="#b5d6ff"/>
          <rect id="Rectángulo_34361" data-name="Rectángulo 34361" width="4.018" height="1.854" rx="0.156" transform="translate(36.972 7.405)" fill="#b5d6ff"/>
          <rect id="Rectángulo_34362" data-name="Rectángulo 34362" width="4.018" height="1.855" rx="0.156" transform="translate(26.966 10.263)" fill="#b5d6ff"/>
          <rect id="Rectángulo_34363" data-name="Rectángulo 34363" width="4.018" height="1.855" rx="0.156" transform="translate(31.988 10.263)" fill="#b5d6ff"/>
          <rect id="Rectángulo_34364" data-name="Rectángulo 34364" width="4.018" height="1.855" rx="0.156" transform="translate(36.972 10.263)" fill="#b5d6ff"/>
          <rect id="Rectángulo_34365" data-name="Rectángulo 34365" width="4.018" height="1.854" rx="0.156" transform="translate(26.966 13.084)" fill="#b5d6ff"/>
          <rect id="Rectángulo_34366" data-name="Rectángulo 34366" width="4.018" height="1.854" rx="0.156" transform="translate(31.988 13.084)" fill="#b5d6ff"/>
          <rect id="Rectángulo_34367" data-name="Rectángulo 34367" width="4.018" height="1.854" rx="0.156" transform="translate(36.972 13.084)" fill="#b5d6ff"/>
          <rect id="Rectángulo_34368" data-name="Rectángulo 34368" width="9.427" height="3.631" transform="translate(29.284 17.102)" fill="#f2f2f2"/>
          <rect id="Rectángulo_34369" data-name="Rectángulo 34369" width="7.031" height="0.309" rx="0.05" transform="translate(30.327 17.836)" opacity="0.41"/>
          <rect id="Rectángulo_34370" data-name="Rectángulo 34370" width="7.031" height="0.309" rx="0.05" transform="translate(30.327 18.415)" opacity="0.41"/>
          <rect id="Rectángulo_34371" data-name="Rectángulo 34371" width="5.834" height="0.309" rx="0.05" transform="translate(30.327 18.994)" opacity="0.41"/>
          <rect id="Rectángulo_34372" data-name="Rectángulo 34372" width="2.782" height="0.309" rx="0.05" transform="translate(30.327 19.729)" opacity="0.41"/>
        </g>
        <g id="Grupo_121120" data-name="Grupo 121120" transform="translate(135.539 129.702)">
          <rect id="Rectángulo_34373" data-name="Rectángulo 34373" width="23.942" height="15.411" fill="#d7e9f4"/>
          <rect id="Rectángulo_34374" data-name="Rectángulo 34374" width="17.017" height="3.302" rx="0.558" transform="translate(3.211 1.055)" fill="#d93328"/>
          <rect id="Rectángulo_34375" data-name="Rectángulo 34375" width="13.519" height="0.757" rx="0.128" transform="translate(4.919 2.27)" fill="#fff"/>
          <rect id="Rectángulo_34376" data-name="Rectángulo 34376" width="20.468" height="0.516" rx="0.087" transform="translate(1.582 6.157)" opacity="0.17"/>
          <rect id="Rectángulo_34377" data-name="Rectángulo 34377" width="20.468" height="0.516" rx="0.087" transform="translate(1.582 7.396)" opacity="0.17"/>
          <rect id="Rectángulo_34378" data-name="Rectángulo 34378" width="20.468" height="0.516" rx="0.087" transform="translate(1.582 8.738)" opacity="0.17"/>
          <rect id="Rectángulo_34379" data-name="Rectángulo 34379" width="20.468" height="0.516" rx="0.087" transform="translate(1.582 9.976)" opacity="0.17"/>
          <rect id="Rectángulo_34380" data-name="Rectángulo 34380" width="13.611" height="0.516" rx="0.087" transform="translate(5.412 11.352)" opacity="0.17"/>
        </g>
        <g id="Grupo_121122" data-name="Grupo 121122" transform="translate(83.931 24.232)">
          <g id="Grupo_121121" data-name="Grupo 121121">
            <rect id="Rectángulo_34381" data-name="Rectángulo 34381" width="18.389" height="19.317" rx="0.531" transform="translate(0.741 0.738)" fill="#7aa2cc"/>
            <path id="Trazado_159091" data-name="Trazado 159091" d="M-130.027,460.441h-16.295a1.79,1.79,0,0,1-1.788-1.788V441.43a1.788,1.788,0,0,1,1.788-1.785h16.295a1.788,1.788,0,0,1,1.788,1.785v17.223A1.79,1.79,0,0,1-130.027,460.441Zm-16.295-19.319a.311.311,0,0,0-.308.308v17.223a.309.309,0,0,0,.308.308h16.295a.309.309,0,0,0,.308-.308V441.43a.311.311,0,0,0-.308-.308Z" transform="translate(148.11 -439.645)" fill="#f2f2f2"/>
          </g>
          <rect id="Rectángulo_34382" data-name="Rectángulo 34382" width="4.018" height="1.855" rx="0.156" transform="translate(2.518 2.515)" fill="#b5d6ff"/>
          <rect id="Rectángulo_34383" data-name="Rectángulo 34383" width="4.018" height="1.855" rx="0.156" transform="translate(7.541 2.515)" fill="#b5d6ff"/>
          <rect id="Rectángulo_34384" data-name="Rectángulo 34384" width="4.018" height="1.855" rx="0.156" transform="translate(12.524 2.515)" fill="#b5d6ff"/>
          <rect id="Rectángulo_34385" data-name="Rectángulo 34385" width="4.018" height="1.855" rx="0.156" transform="translate(2.518 5.258)" fill="#b5d6ff"/>
          <rect id="Rectángulo_34386" data-name="Rectángulo 34386" width="4.018" height="1.855" rx="0.156" transform="translate(7.541 5.258)" fill="#b5d6ff"/>
          <rect id="Rectángulo_34387" data-name="Rectángulo 34387" width="4.018" height="1.855" rx="0.156" transform="translate(12.524 5.258)" fill="#b5d6ff"/>
          <rect id="Rectángulo_34388" data-name="Rectángulo 34388" width="4.018" height="1.854" rx="0.156" transform="translate(2.518 8.117)" fill="#b5d6ff"/>
          <rect id="Rectángulo_34389" data-name="Rectángulo 34389" width="4.018" height="1.854" rx="0.156" transform="translate(7.541 8.117)" fill="#b5d6ff"/>
          <rect id="Rectángulo_34390" data-name="Rectángulo 34390" width="4.018" height="1.854" rx="0.156" transform="translate(12.524 8.117)" fill="#b5d6ff"/>
          <rect id="Rectángulo_34391" data-name="Rectángulo 34391" width="4.018" height="1.855" rx="0.156" transform="translate(2.518 10.937)" fill="#b5d6ff"/>
          <rect id="Rectángulo_34392" data-name="Rectángulo 34392" width="4.018" height="1.855" rx="0.156" transform="translate(7.541 10.937)" fill="#b5d6ff"/>
          <rect id="Rectángulo_34393" data-name="Rectángulo 34393" width="4.018" height="1.855" rx="0.156" transform="translate(12.524 10.937)" fill="#b5d6ff"/>
          <rect id="Rectángulo_34394" data-name="Rectángulo 34394" width="9.427" height="3.631" transform="translate(4.836 14.955)" fill="#f2f2f2"/>
          <rect id="Rectángulo_34395" data-name="Rectángulo 34395" width="7.031" height="0.309" rx="0.05" transform="translate(5.879 15.689)" opacity="0.41"/>
          <rect id="Rectángulo_34396" data-name="Rectángulo 34396" width="7.031" height="0.309" rx="0.05" transform="translate(5.879 16.269)" opacity="0.41"/>
          <rect id="Rectángulo_34397" data-name="Rectángulo 34397" width="5.834" height="0.309" rx="0.05" transform="translate(5.879 16.848)" opacity="0.41"/>
          <rect id="Rectángulo_34398" data-name="Rectángulo 34398" width="2.781" height="0.309" rx="0.05" transform="translate(5.879 17.582)" opacity="0.41"/>
        </g>
      </g>
      <path id="Trazado_159092" data-name="Trazado 159092" d="M-176.977,457.563s63.77-2.091,84.68-1.438,90.831,3.921,110.435,1.96c15.3-1.532,196.038-1.307,196.038-1.307s5.881-41.821,1.307-43.128-11.762,7.842-17.643,18.95c0,0-62.732-15.683-105.207-15.03s-83.643,3.267-105.86,1.307S-154.493,402.153-176.977,457.563Z" transform="translate(5.234 177.775)" fill="#2d2d2d"/>
      <path id="Trazado_159093" data-name="Trazado 159093" d="M-122.4,423.415c-14.462-.107-26.74,12.23-41.2,12.39a108.635,108.635,0,0,1,50.2-19.131c10.777-1.223,21.666-.816,32.506-.408,8.085.3,16.211.612,24.136,2.235a253.84,253.84,0,0,1-34.184,6.077l8.291,2.494q-25.626,7.332-51.257,14.666a145.648,145.648,0,0,1,32.226-14.685A34,34,0,0,0-124,426.2,4.891,4.891,0,0,1-122.4,423.415Z" transform="translate(26.821 181.538)" fill="#fff" opacity="0.28"/>
      <path id="Trazado_159094" data-name="Trazado 159094" d="M-105.231,435.02a316.235,316.235,0,0,0,42.856-9.6c-17-.01-34.28-.063-50.565-4.945q34.009-1.58,68.017-3.165c-.959.852.855,2.021,2.136,2.013L17.241,419a536.086,536.086,0,0,0-70.906,10.725C-70.658,433.472-88.1,438.075-105.231,435.02Z" transform="translate(108.581 183.883)" fill="#fff" opacity="0.28"/>
      <g id="Grupo_121133" data-name="Grupo 121133" transform="translate(62.596 508.832)">
        <path id="Trazado_159095" data-name="Trazado 159095" d="M-45.95,472.738c-10.96,0-25.929-9.765-30.767-13.14l5.975-8.576c9.013,6.268,21.65,12.316,25.765,11.19,3.361-2.977,8.822-43.168,14.049-49.867l4.893,6.676C-27.318,441.165-31,468.333-41.258,472A13.952,13.952,0,0,1-45.95,472.738Z" transform="translate(104.442 -332.962)" fill="#dfebf4"/>
        <path id="Trazado_159096" data-name="Trazado 159096" d="M-62.195,438.414s-8.95-10.874-9.614-12.248-2.823-1.649-2.318.068a15.93,15.93,0,0,0,2.413,4.093l-10-6.932s-1.325-1.124-2.039-.452,1.357,2.12,1.357,2.12l6.357,4.836-7.779-4.075s-1.655-.768-2.12.013,1.571,1.814,1.571,1.814l7.444,4.556-7.951-3.482s-1.989-.87-2.4.073,2.434,2.091,2.434,2.091l7.429,3.767-4.587-.868s-.813-.115-.651.583,1.192.964,1.192.964,13.121,6.5,15.445,6.89,2.486.193,2.486.193l1.3-3.709Z" transform="translate(87.324 -316.206)" fill="#bc8364"/>
        <rect id="Rectángulo_34399" data-name="Rectángulo 34399" width="10.289" height="15.875" transform="matrix(-1, -0.017, 0.017, -1, 98.728, 79.582)" fill="#bc8364"/>
        <g id="Grupo_121124" data-name="Grupo 121124" transform="translate(86.406 300.547)">
          <path id="Trazado_159097" data-name="Trazado 159097" d="M-30.076,496.958a12.489,12.489,0,0,0,0,6.67c1.077,3,4.289,2.324,5.787,6.605v.478a4.076,4.076,0,0,1-3.811,4.083c-2.06.125-3.8.12-5.886,1.579-4.284,3-.766,12.894-6.576,12.706-3.45-.115-13.7,0-13.7,0s5.567-3.5,7.923-4.574S-35.7,496.958-35.7,496.958Z" transform="translate(54.267 -496.958)" fill="#bc8364"/>
          <path id="Trazado_159098" data-name="Trazado 159098" d="M-28.793,499.908a9.748,9.748,0,0,1,4.5,5.565v.478a4.076,4.076,0,0,1-3.811,4.083c-2.06.125-3.1,1.315-5.186,2.773-4.281,3-1.466,11.7-7.277,11.509-3.45-.112-13.7,0-13.7,0s5.351-4.857,7.923-4.572C-35.774,520.91-32.423,505.34-28.793,499.908Z" transform="translate(54.267 -492.197)" fill="#333"/>
          <path id="Trazado_159099" data-name="Trazado 159099" d="M-44.885,504.294a77.533,77.533,0,0,1,.031,14.844h1.341s.9-12.026,2.3-14.677S-44.885,504.294-44.885,504.294Z" transform="translate(69.408 -486.825)" fill="#333"/>
        </g>
        <g id="Grupo_121125" data-name="Grupo 121125" transform="translate(57.899 296.446)">
          <path id="Trazado_159100" data-name="Trazado 159100" d="M-39.7,495.389s-2.36,7.774-1.283,10.772,4.287,2.324,5.787,6.605v.478a4.079,4.079,0,0,1-3.814,4.083c-2.057.125-3.8.12-5.886,1.579-4.281,3-.766,12.894-6.576,12.706-3.45-.115-13.7,0-13.7,0s5.567-3.5,7.925-4.574,11.164-27.322,11.164-27.322Z" transform="translate(65.173 -495.389)" fill="#bc8364"/>
          <path id="Trazado_159101" data-name="Trazado 159101" d="M-39.7,499.908a9.757,9.757,0,0,1,4.506,5.565v.478a4.079,4.079,0,0,1-3.814,4.083c-2.057.125-3.1,1.315-5.183,2.773-4.284,3-1.469,11.7-7.28,11.509-3.45-.112-13.7,0-13.7,0s5.353-4.857,7.925-4.572C-46.677,520.91-43.329,505.34-39.7,499.908Z" transform="translate(65.173 -488.096)" fill="#333"/>
          <path id="Trazado_159102" data-name="Trazado 159102" d="M-55.791,504.294a77.391,77.391,0,0,1,.034,14.844h1.338s.9-12.026,2.3-14.677S-55.791,504.294-55.791,504.294Z" transform="translate(80.314 -482.724)" fill="#333"/>
        </g>
        <path id="Trazado_159103" data-name="Trazado 159103" d="M-49.188,435.965c8.555,2.352,17.372,2.52,26.225,2.927,6.1,5.824,16.561,12.737,18.221,20.26,2.295,10.406-3.288,20.861-3.288,20.861l-5.894,49s15.8,3.3-1.411,71.065l-8.3,9.235s3.573-60.1-.779-77.079c-10.921-42.59-5.973-57.552-8.892-59.888-5.306-4.242-5.928.653-5.928.653l-4.786,54.935s15.657,15.032.51,74.492l-6.731,5.635s-.06-59.739-4.339-76.734c-1.981-7.865-12.58-53.432-7.943-69.771C-60.216,453.428-51.854,440.095-49.188,435.965Z" transform="translate(125.476 -294.844)" fill="#bc8364"/>
        <path id="Trazado_159104" data-name="Trazado 159104" d="M-62.821,466.373l3.834,24.581h45.543l2.035-36.236Z" transform="translate(126.868 -264.58)" fill="#4c4c4c"/>
        <path id="Trazado_159105" data-name="Trazado 159105" d="M-27.306,469.916c.2,1.3,16.044,19.254,17.288,20.736-25.728,6.9-48.421,3.581-50.708,1.1,2.5-6.888,11.911-20.163,11.911-20.163l-7.408-23.8c-8.931-3.011-6.046-11.9-6.046-11.9,7.51-5.183,8.984-23.031,8.984-23.031l22.273-.638s17.544,1.937,19.857,3.61-1.49,18.775-1.49,18.775S-28.359,462.952-27.306,469.916Z" transform="translate(127.042 -333.159)" fill="#e6b89c"/>
        <path id="Trazado_159106" data-name="Trazado 159106" d="M-9.7,548.83c-.233.047-13.772,2.687-24.361,1.906-.209-.627-4.593-13.563-4.593-13.563l-2.138,13.3c-5.685-.3-14.128.06-19.46-1.877-3.121-16.587-4.961-38.8-2.109-48.847a54.68,54.68,0,0,1,3.61-8.769c1.639-4.088,5.309-10.011,8.1-14.259.651-1.043,1.673-2.551,1.7-2.543a7.856,7.856,0,0,0,1.3-2.739l-7.12-23.164c-8.931-3.011-5.769-12.5-5.769-12.5,7.51-5.181,8.984-23.028,8.984-23.028l22.273-.64s17.544,1.937,19.857,3.612-1.132,19.416-1.132,19.416-16.072,27.7-15.019,34.667c.17,1.127,12.084,14.747,16.078,19.335,2.418,2.635,4.292,5.382,4.919,8.218,2.295,10.406-1.6,22.683-1.6,22.683Z" transform="translate(125.319 -333.353)" fill="#fff"/>
        <path id="Trazado_159107" data-name="Trazado 159107" d="M-54.72,423.8s8.336,6.454,17.939.886C-36.781,424.691-46.975,436.9-54.72,423.8Z" transform="translate(139.942 -314.468)" fill="#020202" opacity="0.23"/>
        <path id="Trazado_159108" data-name="Trazado 159108" d="M-35.521,412.581l5.946.784-11.686,14.92,3.861,1.566L-53.05,444.979-56.7,427.032l2.818-.627L-56.7,412.217S-38.444,412.113-35.521,412.581Z" transform="translate(136.74 -333.185)" fill="#dfebf4"/>
        <path id="Trazado_159109" data-name="Trazado 159109" d="M-37.778,412.869l-17.528,32.4,1.877-33.023S-43.884,411.463-37.778,412.869Z" transform="translate(138.996 -333.474)" fill="#1d272b"/>
        <path id="Trazado_159110" data-name="Trazado 159110" d="M-46.524,411.991c-.782-.021-8.931,2.078-8.931,2.078s2.964,2.781,8.236-.607c0,0,2.713,4.5,11.783,1.344C-35.436,414.806-45.739,412.009-46.524,411.991Z" transform="translate(138.755 -333.534)" fill="#4b4b4c" opacity="0.49"/>
        <path id="Trazado_159111" data-name="Trazado 159111" d="M-39.753,410.513s-5.9,2.674-6.684,2.656-3.484-2.5-3.484-2.5l-5.6,5.706s3.087,1.793,8.359-1.6c0,0,1.817,3.612,11.681,2.413C-35.48,417.186-37.524,415.354-39.753,410.513Z" transform="translate(138.651 -335.919)" fill="#868695"/>
        <path id="Trazado_159112" data-name="Trazado 159112" d="M-56.154,427.064a1.355,1.355,0,0,1,1.33-1.378,1.351,1.351,0,0,1,1.377,1.328,1.354,1.354,0,0,1-1.33,1.377A1.352,1.352,0,0,1-56.154,427.064Z" transform="translate(137.627 -311.433)" fill="#666"/>
        <path id="Trazado_159113" data-name="Trazado 159113" d="M-56.094,430.377A1.358,1.358,0,0,1-54.763,429a1.356,1.356,0,0,1,1.377,1.33,1.355,1.355,0,0,1-1.33,1.378A1.355,1.355,0,0,1-56.094,430.377Z" transform="translate(137.724 -306.086)" fill="#666"/>
        <path id="Trazado_159114" data-name="Trazado 159114" d="M-56.034,433.691a1.352,1.352,0,0,1,1.328-1.377,1.358,1.358,0,0,1,1.38,1.33,1.358,1.358,0,0,1-1.33,1.378A1.355,1.355,0,0,1-56.034,433.691Z" transform="translate(137.821 -300.738)" fill="#666"/>
        <path id="Trazado_159115" data-name="Trazado 159115" d="M-56.06,436.795a1.356,1.356,0,0,1,1.317-1.391,1.353,1.353,0,0,1,1.388,1.317,1.354,1.354,0,0,1-1.315,1.391A1.356,1.356,0,0,1-56.06,436.795Z" transform="translate(137.779 -295.749)" fill="#666"/>
        <path id="Trazado_159116" data-name="Trazado 159116" d="M-55.972,440.108a1.356,1.356,0,0,1,1.317-1.391,1.356,1.356,0,0,1,1.391,1.317,1.356,1.356,0,0,1-1.317,1.391A1.356,1.356,0,0,1-55.972,440.108Z" transform="translate(137.921 -290.403)" fill="#666"/>
        <path id="Trazado_159117" data-name="Trazado 159117" d="M-55.884,443.421a1.356,1.356,0,0,1,1.317-1.391,1.356,1.356,0,0,1,1.391,1.317,1.357,1.357,0,0,1-1.317,1.391A1.357,1.357,0,0,1-55.884,443.421Z" transform="translate(138.063 -285.056)" fill="#666"/>
        <path id="Trazado_159118" data-name="Trazado 159118" d="M-55.608,447.154a1.351,1.351,0,0,1,1.317-1.388,1.354,1.354,0,0,1,1.388,1.317,1.351,1.351,0,0,1-1.317,1.388A1.351,1.351,0,0,1-55.608,447.154Z" transform="translate(138.508 -279.027)" fill="#666"/>
        <path id="Trazado_159119" data-name="Trazado 159119" d="M-55.4,450.709a1.354,1.354,0,0,1,1.315-1.391,1.356,1.356,0,0,1,1.391,1.317,1.357,1.357,0,0,1-1.317,1.391A1.353,1.353,0,0,1-55.4,450.709Z" transform="translate(138.844 -273.294)" fill="#666"/>
        <path id="Trazado_159120" data-name="Trazado 159120" d="M-55.312,453.9a1.351,1.351,0,0,1,1.317-1.388,1.354,1.354,0,0,1,1.388,1.317,1.352,1.352,0,0,1-1.317,1.388A1.351,1.351,0,0,1-55.312,453.9Z" transform="translate(138.986 -268.14)" fill="#666"/>
        <path id="Trazado_159121" data-name="Trazado 159121" d="M-55.01,456.734a1.353,1.353,0,0,1,1.317-1.388,1.355,1.355,0,0,1,1.391,1.317,1.353,1.353,0,0,1-1.317,1.388A1.355,1.355,0,0,1-55.01,456.734Z" transform="translate(139.473 -263.566)" fill="#666"/>
        <path id="Trazado_159122" data-name="Trazado 159122" d="M-54.8,460.167a1.353,1.353,0,0,1,1.317-1.388,1.355,1.355,0,0,1,1.391,1.317,1.354,1.354,0,0,1-1.317,1.388A1.355,1.355,0,0,1-54.8,460.167Z" transform="translate(139.809 -258.026)" fill="#666"/>
        <path id="Rectángulo_34400" data-name="Rectángulo 34400" d="M3.129,0H13.981a3.13,3.13,0,0,1,3.13,3.13v19.2a0,0,0,0,1,0,0H0a0,0,0,0,1,0,0V3.129A3.129,3.129,0,0,1,3.129,0Z" transform="translate(108.606 184.559) rotate(-179.191)" fill="#dfebf4"/>
        <path id="Rectángulo_34401" data-name="Rectángulo 34401" d="M1.87,0h8.916a1.871,1.871,0,0,1,1.871,1.871V18.76a0,0,0,0,1,0,0H0a0,0,0,0,1,0,0V1.87A1.87,1.87,0,0,1,1.87,0Z" transform="matrix(-1, -0.014, 0.014, -1, 77.007, 181.694)" fill="#dfebf4"/>
        <path id="Trazado_159123" data-name="Trazado 159123" d="M-20.692,435.462a2.62,2.62,0,0,0,1.783-3.191c1.574.152,2.734-1.375,3.56-2.721q.467-.764.936-1.529a4.225,4.225,0,0,0,.9-2.865,4.23,4.23,0,0,1-.259-1.336c.133-.952,1.5-1.477,1.4-2.433-.039-.395-.337-.721-.405-1.113-.2-1.179,1.657-1.88,1.6-3.074-.031-.619-.586-1.106-.68-1.717-.191-1.26,1.587-2.365,1.061-3.526-.162-.358-.518-.6-.706-.943-.515-.944.405-2.073.293-3.144-.141-1.38-1.926-2.224-1.892-3.612.013-.549.324-1.111.115-1.618a1.731,1.731,0,0,0-.614-.661l-2.452-1.84a3.75,3.75,0,0,0,3.21-1.179,7.136,7.136,0,0,1,.91-.991,19.671,19.671,0,0,1,1.872-.818c1.291-.766,1.451-2.535,1.461-4.036a4.867,4.867,0,0,0-.669-3.087,3.863,3.863,0,0,1-.813-1.1,3.988,3.988,0,0,1-.021-1.158,2.442,2.442,0,0,0-3.184-2.146A2.958,2.958,0,0,0-15,382.741,8.709,8.709,0,0,0-18.481,382a3.543,3.543,0,0,0-1.641.144,1.213,1.213,0,0,0-.787,1.312,2.6,2.6,0,0,1-1.67-.029,2.322,2.322,0,0,0-1.665.039c-.494.28-.653,1.124-.146,1.383a1.4,1.4,0,0,0-1.767.068,1.394,1.394,0,0,0-.18,1.756,3.545,3.545,0,0,0-2.4.167c-.706.423-.928,1.636-.2,2.015-.795.089-.889,1.228-.63,1.986s.6,1.709.016,2.258a7.892,7.892,0,0,0-3.2-.782,2.7,2.7,0,0,0-2.551,1.762,3.79,3.79,0,0,0-4.535-.165c-1.55-1.276-3.858-.457-5.669.405l-1.987.949a4.769,4.769,0,0,0-1.874,1.3,9.949,9.949,0,0,0-3.343.173,3.362,3.362,0,0,0-2.394,2.156,2.307,2.307,0,0,1-.314.881,1.372,1.372,0,0,1-.75.4c-.792.2-1.626.2-2.4.452a2.151,2.151,0,0,0-1.615,1.649c-.052.541.193,1.134-.084,1.6-.188.311-.559.463-.787.75-.742.941.565,2.353.133,3.471-.24.622-1,1.066-.91,1.728.055.4.416.687.585,1.056.455.991-.567,2.041-.622,3.131-.05.98.682,1.8,1.145,2.666a5.211,5.211,0,0,1,.5,3.456,2.1,2.1,0,0,0-.065,1.111c.2.57.9.761,1.364,1.153.957.805.784,2.29,1.1,3.5.434,1.7,1.874,2.917,3.233,4.02,4.274,3.461,8.613,6.963,13.636,9.2s10.9,3.113,16.036,1.158l-.609-.85a3.215,3.215,0,0,0,3.084-2.522,2.145,2.145,0,0,1,.251-.865C-21.884,435.6-21.231,435.6-20.692,435.462Z" transform="translate(128.393 -381.975)" fill="#35302c"/>
        <path id="Trazado_159124" data-name="Trazado 159124" d="M-20.9,423.685c.682.209-8.516,15.288-19.755,16.525-10.416,1.145-17.643-20.743-17.651-20.777-.159-.755-2.065-14.41-2.729-21.107-.685-6.888,31.852-18.169,40.164.259,1.3,2.891.382,19.086.382,19.086s4.276-3.186,4.76,2.815C-15.554,422.718-20.9,423.685-20.9,423.685Z" transform="translate(129.724 -371.366)" fill="#bc8364"/>
        <path id="Trazado_159125" data-name="Trazado 159125" d="M-50.258,397.884a1.374,1.374,0,0,0,1.49-.878,1.317,1.317,0,0,1-.4,1.111.917.917,0,0,0,1.085-.269,1.028,1.028,0,0,1-.565.878,3.033,3.033,0,0,1-1.051.3.412.412,0,0,1-.269-.016.437.437,0,0,1-.175-.3l-.175-.677" transform="translate(147.049 -357.717)" fill="#1a1a1a"/>
        <path id="Trazado_159126" data-name="Trazado 159126" d="M-51.933,400.177a2.771,2.771,0,0,1,2.4-3.1,2.771,2.771,0,0,1,3.1,2.4,2.768,2.768,0,0,1-2.4,3.095A2.769,2.769,0,0,1-51.933,400.177Z" transform="translate(144.403 -357.634)" fill="#333"/>
        <path id="Trazado_159127" data-name="Trazado 159127" d="M-57.162,398.954a1.347,1.347,0,0,1-1.4-1.064,1.47,1.47,0,0,0,.285,1.223.867.867,0,0,1-1.056-.376,1.1,1.1,0,0,0,.473.988,2.853,2.853,0,0,0,1.019.4.4.4,0,0,0,.269,0,.482.482,0,0,0,.2-.3l.246-.711" transform="translate(132.488 -356.291)" fill="#1a1a1a"/>
        <path id="Trazado_159128" data-name="Trazado 159128" d="M-58.7,400.646a2.48,2.48,0,0,1,2.222-2.711,2.48,2.48,0,0,1,2.711,2.222,2.478,2.478,0,0,1-2.222,2.711A2.478,2.478,0,0,1-58.7,400.646Z" transform="translate(133.492 -356.237)" fill="#333"/>
        <path id="Trazado_159129" data-name="Trazado 159129" d="M-51.387,398.318a.819.819,0,0,1,.708-.912.815.815,0,0,1,.912.706.818.818,0,0,1-.708.912A.815.815,0,0,1-51.387,398.318Z" transform="translate(145.31 -357.082)" fill="#fff" opacity="0.43"/>
        <path id="Trazado_159130" data-name="Trazado 159130" d="M-58.46,399.222a.672.672,0,0,1,.6-.737.673.673,0,0,1,.737.6.672.672,0,0,1-.6.734A.67.67,0,0,1-58.46,399.222Z" transform="translate(133.901 -355.336)" fill="#fff" opacity="0.43"/>
        <path id="Trazado_159131" data-name="Trazado 159131" d="M-51.036,397.884s-4.224-.76-6.414.319a16.211,16.211,0,0,0-2.763,2.007l2.018-3.074s1.827-1.2,6.216-1.252A1.418,1.418,0,0,1-51.036,397.884Z" transform="translate(131.077 -359.528)" fill="#35302c"/>
        <path id="Trazado_159132" data-name="Trazado 159132" d="M-52.654,397.42s3.994-1.576,6.352-.946A16.354,16.354,0,0,1-43.2,397.9l-2.582-2.617s-2.028-.823-6.341-.008A1.42,1.42,0,0,0-52.654,397.42Z" transform="translate(142.797 -361.095)" fill="#35302c"/>
        <path id="Trazado_159133" data-name="Trazado 159133" d="M-54.246,399.591l.612,5.69c.05.458-.578-.076-1.038-.047-.609.039-.87,1.114-.818,1.649.089.876.8,1.242,4.287.562a.869.869,0,0,0,.68-.844C-50.6,404.424-51.02,398.01-54.246,399.591Z" transform="translate(138.689 -353.945)" fill="#1a1a1a" opacity="0.49"/>
        <path id="Trazado_159134" data-name="Trazado 159134" d="M-53.968,399.474l.46,5.288s-2.2-.12-1.84,1.942c.152.868.962,1.2,4.506.5a1.183,1.183,0,0,0,.933-.837c.123-.491.826-.565-.554-2.3C-52.089,402.018-50.842,398.39-53.968,399.474Z" transform="translate(138.865 -354.054)" fill="#ba6565"/>
        <path id="Trazado_159135" data-name="Trazado 159135" d="M-55.04,402.868a1.574,1.574,0,0,0,1.905-.259.511.511,0,0,0,.167-.275c.055-.311-.267-.525-.52-.591a1.586,1.586,0,0,0-1.2.044,1.1,1.1,0,0,0-.455,1.252" transform="translate(139.166 -350.227)" fill="#fff" opacity="0.43"/>
        <path id="Trazado_159136" data-name="Trazado 159136" d="M-51.984,402.206a1.917,1.917,0,0,0,.687,1.908,4.246,4.246,0,0,0,1.953.823,15.42,15.42,0,0,0,8.367-1.006,5.354,5.354,0,0,0,1.95-1.111,2.123,2.123,0,0,0,.625-2.06,2.162,2.162,0,0,0-1.678-1.325,6.341,6.341,0,0,0-2.23.084l-6.961,1.1C-50.368,400.789-51.678,401.14-51.984,402.206Z" transform="translate(144.265 -353.91)" fill="#ba6565" opacity="0.52"/>
        <path id="Trazado_159137" data-name="Trazado 159137" d="M-52.231,401.225a3.482,3.482,0,0,0-1.328-.154,34.271,34.271,0,0,1-3.772-.191,2.076,2.076,0,0,0-1.681.293,1.02,1.02,0,0,0-.152,1.244,1.735,1.735,0,0,0,.651.544,6.5,6.5,0,0,0,3.2.873,5.2,5.2,0,0,0,3.131-1.035,1.091,1.091,0,0,0,.536-.949A.892.892,0,0,0-52.231,401.225Z" transform="translate(132.536 -351.533)" fill="#ba6565" opacity="0.52"/>
        <g id="Grupo_121126" data-name="Grupo 121126" transform="translate(82.72 55.445)">
          <path id="Trazado_159138" data-name="Trazado 159138" d="M-42.948,404.345s-4.543-1.751-6.3-.946c-1.639.745-1.715,1.6-1.715,1.6a2.467,2.467,0,0,0-1.932-.787c-1,.2-2.781,2-2.781,2s1.746,6.365,6.378,5.607C-43.457,410.859-42.948,404.345-42.948,404.345Z" transform="translate(55.677 -403.187)" fill="#934c4c"/>
          <path id="Trazado_159139" data-name="Trazado 159139" d="M-53.647,406.569a2.409,2.409,0,0,0,2.326-.518c.081-.078.165-.186.123-.29-.055-.141-.256-.123-.4-.078a3.7,3.7,0,0,1-2.462.238.563.563,0,0,0,.4.7" transform="translate(58.248 -399.211)" fill="#fff" opacity="0.43"/>
          <path id="Trazado_159140" data-name="Trazado 159140" d="M-42.9,403.573s-6.992,2.692-12.774,2.015C-55.677,405.588-50.993,412.617-42.9,403.573Z" transform="translate(55.677 -402.564)" fill="#fff"/>
        </g>
        <path id="Trazado_159141" data-name="Trazado 159141" d="M-23.755,409.3c-.071-.528.264-1.074.1-1.581a2.307,2.307,0,0,0-.562-.774,3.225,3.225,0,0,1-.724-2.666c.021.93.044,1.864.065,2.8a1.427,1.427,0,0,0,.17.776c.139.2.371.316.507.515.4.578-.22,1.3-.332,2a3.492,3.492,0,0,0,.672,2.041,1.779,1.779,0,0,1,.01,2.041c.408-.319.259-.983-.055-1.393a4.412,4.412,0,0,1-.92-1.231c-.24-.771.335-1.641.042-2.4-.306-.784-1.43-1.093-1.566-1.924-.094-.585.369-1.187.175-1.746-.159-.47-.693-.677-1.1-.964a2.426,2.426,0,0,1-.834-2.752,2.134,2.134,0,0,1-2.094-1.819,2.2,2.2,0,0,0-.139-.787,2.426,2.426,0,0,0-.544-.554,3.414,3.414,0,0,1-.625-2.718l-1.67.125a5.993,5.993,0,0,0,1.074,3.2c-.084-.512-.784-.567-1.247-.805-.9-.468-.894-1.741-.755-2.75a1.83,1.83,0,0,1-1.856-.669c-.029.784-1.043,1.087-1.827,1.04s-1.7-.178-2.222.413a2.14,2.14,0,0,1-.416.476c-.476.3-1.069-.238-1.631-.186-.465.044-.787.484-1,.9a6.318,6.318,0,0,0-.63,2.162,1.061,1.061,0,0,1-.146.541c-.28.379-1.108.565-.836.951.46-.173.457-.834.269-1.286s-.484-.933-.327-1.4a2.686,2.686,0,0,1,.544-.727,2.027,2.027,0,0,0,.314-1.986c-.46,1.085-2.47.3-3.1,1.294-.152.235-.188.538-.379.742-.536.573-1.809-.023-2.133.69-.073.159-.065.348-.152.5-.18.316-.646.308-.983.178a2.326,2.326,0,0,0-1.035-.309c-.606.065-.889.758-1.218,1.27s-1.187.878-1.469.337a1.549,1.549,0,0,1-1.221,1.529c-.6.112-1.4-.055-1.67.494-.251.515.3,1.184,0,1.673-.217.363-.776.4-.988.763-.162.28-.052.63-.058.951a3.6,3.6,0,0,1-.606,1.529,10.229,10.229,0,0,0-.708,5.016l-1.414-10.565a8.8,8.8,0,0,1,.217-4.671,8.757,8.757,0,0,1,1.989-2.572,25.351,25.351,0,0,1,4.454-3.814,20.26,20.26,0,0,1,4.885-2.057c8.79-2.632,18.692-2.439,26.737,1.979a13.7,13.7,0,0,1,3.427,2.509,15.37,15.37,0,0,1,2.818,4.867,13.879,13.879,0,0,1,1.179,4.506c.123,2.705-1.108,5.257-2.151,7.755a61.448,61.448,0,0,0-3.053,9.392c.421-.761-.86-1.409-.98-2.269-.073-.515.293-.98.408-1.485.3-1.3-1.051-2.457-1.032-3.787a4.905,4.905,0,0,0,.031-.917C-22.231,410.713-23.627,410.3-23.755,409.3Z" transform="translate(129.483 -373.173)" fill="#35302c"/>
        <path id="Trazado_159142" data-name="Trazado 159142" d="M-59.3,406.623a62.353,62.353,0,0,0,13.234.191c6-.745,23.112-7.24,23.112-7.24l-.6.983-7.962,3.184s1.338,7.076,1.827,7.3l5.965-5.147s.238.523-.512,1.879-12.928,18.9-24.421,13.78C-48.658,421.553-56.891,414.937-59.3,406.623Z" transform="translate(132.544 -353.575)" fill="url(#linear-gradient)"/>
        <g id="Grupo_121132" data-name="Grupo 121132" transform="translate(2.698 87.485)">
          <path id="Trazado_159143" data-name="Trazado 159143" d="M-51.385,415.456l-34.675,9.109a.311.311,0,0,0-.222.376l12.113,46.1a.312.312,0,0,0,.379.222l34.675-9.112a.306.306,0,0,0,.22-.376l-12.113-46.1A.306.306,0,0,0-51.385,415.456Z" transform="translate(86.292 -415.445)" fill="#333"/>
          <rect id="Rectángulo_34402" data-name="Rectángulo 34402" width="31.016" height="44.419" transform="translate(2.998 10.134) rotate(-14.721)" fill="#fff"/>
          <g id="Grupo_121127" data-name="Grupo 121127" transform="translate(6.796 7.393)">
            <path id="Trazado_159144" data-name="Trazado 159144" d="M-58.67,418.278-83.6,424.825a.129.129,0,0,0-.091.157l.013.055a.131.131,0,0,0,.157.091l24.928-6.55a.128.128,0,0,0,.089-.157l-.013-.055A.127.127,0,0,0-58.67,418.278Z" transform="translate(83.692 -418.273)" fill="#333" opacity="0.37"/>
            <path id="Trazado_159145" data-name="Trazado 159145" d="M-58.558,418.7l-24.928,6.55a.124.124,0,0,0-.089.154l.013.055a.129.129,0,0,0,.157.092L-58.48,419a.126.126,0,0,0,.091-.154l-.013-.055A.129.129,0,0,0-58.558,418.7Z" transform="translate(83.872 -417.587)" fill="#333" opacity="0.37"/>
            <path id="Trazado_159146" data-name="Trazado 159146" d="M-58.439,419.157l-24.926,6.55a.126.126,0,0,0-.091.154l.013.055a.129.129,0,0,0,.157.092l24.928-6.55a.124.124,0,0,0,.089-.154l-.013-.055A.129.129,0,0,0-58.439,419.157Z" transform="translate(84.064 -416.855)" fill="#333" opacity="0.37"/>
            <path id="Trazado_159147" data-name="Trazado 159147" d="M-58.327,419.581l-24.928,6.55a.126.126,0,0,0-.089.154l.013.057a.128.128,0,0,0,.157.089l24.926-6.548a.129.129,0,0,0,.091-.157l-.013-.055A.131.131,0,0,0-58.327,419.581Z" transform="translate(84.245 -416.168)" fill="#333" opacity="0.37"/>
          </g>
          <g id="Grupo_121128" data-name="Grupo 121128" transform="translate(12.991 30.97)">
            <path id="Trazado_159148" data-name="Trazado 159148" d="M-56.3,427.3l-24.928,6.548a.128.128,0,0,0-.089.157l.013.055a.127.127,0,0,0,.157.089l24.928-6.548a.13.13,0,0,0,.089-.157l-.013-.055A.127.127,0,0,0-56.3,427.3Z" transform="translate(81.322 -427.293)" fill="#333" opacity="0.37"/>
            <path id="Trazado_159149" data-name="Trazado 159149" d="M-56.187,427.723l-24.928,6.548a.131.131,0,0,0-.091.157l.016.055a.128.128,0,0,0,.154.092l24.928-6.55a.126.126,0,0,0,.091-.154l-.016-.055A.125.125,0,0,0-56.187,427.723Z" transform="translate(81.502 -426.607)" fill="#333" opacity="0.37"/>
            <path id="Trazado_159150" data-name="Trazado 159150" d="M-56.069,428.177-81,434.727a.126.126,0,0,0-.089.154l.013.055a.129.129,0,0,0,.157.091l24.928-6.55a.126.126,0,0,0,.089-.154l-.013-.055A.129.129,0,0,0-56.069,428.177Z" transform="translate(81.695 -425.875)" fill="#333" opacity="0.37"/>
            <path id="Trazado_159151" data-name="Trazado 159151" d="M-55.956,428.6l-24.928,6.55a.13.13,0,0,0-.091.154l.016.058a.128.128,0,0,0,.154.089l24.928-6.548a.129.129,0,0,0,.091-.157l-.016-.055A.127.127,0,0,0-55.956,428.6Z" transform="translate(81.874 -425.188)" fill="#333" opacity="0.37"/>
          </g>
          <g id="Grupo_121129" data-name="Grupo 121129" transform="translate(8.172 12.631)">
            <path id="Trazado_159152" data-name="Trazado 159152" d="M-58.142,420.282l-24.928,6.548a.131.131,0,0,0-.091.157l.016.055a.128.128,0,0,0,.154.092l24.928-6.55a.128.128,0,0,0,.091-.154l-.016-.057A.124.124,0,0,0-58.142,420.282Z" transform="translate(83.165 -420.277)" fill="#333" opacity="0.37"/>
            <path id="Trazado_159153" data-name="Trazado 159153" d="M-58.03,420.707l-24.928,6.55a.125.125,0,0,0-.091.154l.016.055a.125.125,0,0,0,.154.092l24.928-6.55a.127.127,0,0,0,.091-.154l-.016-.055A.126.126,0,0,0-58.03,420.707Z" transform="translate(83.346 -419.591)" fill="#333" opacity="0.37"/>
            <path id="Trazado_159154" data-name="Trazado 159154" d="M-57.911,421.161l-24.928,6.55a.128.128,0,0,0-.091.154l.016.055a.127.127,0,0,0,.154.091l24.928-6.55a.125.125,0,0,0,.091-.154l-.016-.055A.125.125,0,0,0-57.911,421.161Z" transform="translate(83.538 -418.859)" fill="#333" opacity="0.37"/>
            <path id="Trazado_159155" data-name="Trazado 159155" d="M-57.8,421.585l-24.928,6.55a.129.129,0,0,0-.091.157l.016.055a.125.125,0,0,0,.154.089l24.928-6.548a.129.129,0,0,0,.091-.157l-.016-.055A.128.128,0,0,0-57.8,421.585Z" transform="translate(83.718 -418.172)" fill="#333" opacity="0.37"/>
          </g>
          <g id="Grupo_121130" data-name="Grupo 121130" transform="translate(9.345 17.096)">
            <path id="Trazado_159156" data-name="Trazado 159156" d="M-57.693,421.99l-24.928,6.55a.126.126,0,0,0-.091.154l.016.055a.126.126,0,0,0,.154.092l24.928-6.55a.125.125,0,0,0,.091-.154l-.016-.055A.126.126,0,0,0-57.693,421.99Z" transform="translate(82.717 -421.985)" fill="#333" opacity="0.37"/>
            <path id="Trazado_159157" data-name="Trazado 159157" d="M-57.581,422.414l-24.928,6.55a.129.129,0,0,0-.091.157l.016.055a.124.124,0,0,0,.154.089l24.928-6.548a.131.131,0,0,0,.091-.157l-.016-.055A.13.13,0,0,0-57.581,422.414Z" transform="translate(82.897 -421.299)" fill="#333" opacity="0.37"/>
            <path id="Trazado_159158" data-name="Trazado 159158" d="M-57.462,422.87l-24.928,6.548a.129.129,0,0,0-.091.157l.016.055a.129.129,0,0,0,.154.092l24.928-6.55a.128.128,0,0,0,.091-.154l-.016-.057A.125.125,0,0,0-57.462,422.87Z" transform="translate(83.089 -420.565)" fill="#333" opacity="0.37"/>
            <path id="Trazado_159159" data-name="Trazado 159159" d="M-57.35,423.295l-24.928,6.55a.125.125,0,0,0-.091.154l.016.055a.125.125,0,0,0,.154.091l24.928-6.55a.128.128,0,0,0,.091-.154l-.016-.055A.128.128,0,0,0-57.35,423.295Z" transform="translate(83.27 -419.879)" fill="#333" opacity="0.37"/>
          </g>
          <g id="Grupo_121131" data-name="Grupo 121131" transform="translate(10.523 21.581)">
            <path id="Trazado_159160" data-name="Trazado 159160" d="M-57.242,423.706l-24.928,6.548a.129.129,0,0,0-.091.157l.016.055a.125.125,0,0,0,.154.091l24.928-6.55a.128.128,0,0,0,.091-.154l-.016-.055A.127.127,0,0,0-57.242,423.706Z" transform="translate(82.266 -423.701)" fill="#333" opacity="0.37"/>
            <path id="Trazado_159161" data-name="Trazado 159161" d="M-57.132,424.131l-24.928,6.55a.127.127,0,0,0-.089.154l.013.055a.129.129,0,0,0,.157.092l24.928-6.548a.127.127,0,0,0,.089-.157l-.013-.055A.129.129,0,0,0-57.132,424.131Z" transform="translate(82.446 -423.016)" fill="#333" opacity="0.37"/>
            <path id="Trazado_159162" data-name="Trazado 159162" d="M-57.011,424.584l-24.928,6.55a.128.128,0,0,0-.091.154l.016.057a.126.126,0,0,0,.154.089l24.928-6.548a.131.131,0,0,0,.091-.157l-.016-.055A.128.128,0,0,0-57.011,424.584Z" transform="translate(82.638 -422.282)" fill="#333" opacity="0.37"/>
            <path id="Trazado_159163" data-name="Trazado 159163" d="M-56.9,425.011l-24.926,6.548a.129.129,0,0,0-.091.157l.013.055a.131.131,0,0,0,.157.092l24.928-6.55a.126.126,0,0,0,.089-.154l-.013-.058A.128.128,0,0,0-56.9,425.011Z" transform="translate(82.819 -421.595)" fill="#333" opacity="0.37"/>
          </g>
          <rect id="Rectángulo_34403" data-name="Rectángulo 34403" width="7.598" height="3.663" transform="matrix(0.967, -0.254, 0.254, 0.967, 13.233, 3.013)" fill="#b3b3b3"/>
          <rect id="Rectángulo_34404" data-name="Rectángulo 34404" width="12.508" height="2.603" transform="matrix(0.967, -0.254, 0.254, 0.967, 11.521, 6.154)" fill="#b3b3b3"/>
        </g>
        <path id="Trazado_159164" data-name="Trazado 159164" d="M-38.98,447.885s-6.574,12.776-7.682,13.963-.125,3.273,1.453,2.086A14.618,14.618,0,0,0-42.166,460L-43.8,472.058s-.439,1.683.719,2.049,1.511-2.138,1.511-2.138l1.511-7.847.167,8.822s.146,1.832,1.276,1.926,1.048-2.2,1.048-2.2l.557-8.72.923,8.725s.23,2.182,1.508,2.162.842-3.105.842-3.105l-.3-8.37,1.777,4.548s.361.789,1.027.345.345-1.5.345-1.5-.7-14.721-1.649-17-1.268-2.347-1.268-2.347l-4.828.395Z" transform="translate(152.182 -276.378)" fill="#bc8364"/>
        <path id="Trazado_159165" data-name="Trazado 159165" d="M-34.378,508.967l-10.283-1.882c.047-.264,4.83-26.554,5.144-40.347.308-13.6-4.253-32.32-5.557-38.217l5.447-15.03c2.068.546,10.9,38.677,10.563,53.487C-29.4,481.6-34.174,507.853-34.378,508.967Z" transform="translate(155.509 -331.113)" fill="#dfebf4"/>
      </g>
      <g id="Grupo_121136" data-name="Grupo 121136" transform="translate(-90.897 303.369)">
        <rect id="Rectángulo_34405" data-name="Rectángulo 34405" width="30.93" height="102.375" transform="matrix(1, -0.02, 0.02, 1, 73.659, 24.04)" fill="#a7c1ce"/>
        <g id="Grupo_121135" data-name="Grupo 121135" transform="translate(0 106.461)">
          <g id="Grupo_121134" data-name="Grupo 121134">
            <path id="Trazado_159166" data-name="Trazado 159166" d="M-53.946,429.524c47.128-.68,85.763-10.591,90.4-22.654l-.107-41.482c-.51-12.471-41.351-21.974-91.521-21.25s-90.721,11.4-90.87,23.883l1.09,41.466C-139.978,421.413-101.071,430.2-53.946,429.524Z" transform="translate(146.047 -344.099)" fill="#d7e9f4"/>
            <path id="Trazado_159167" data-name="Trazado 159167" d="M36.053,388.942l-.047-18.454c-2.815-8.511-42.342-18.548-90.426-17.855s-88.107,8.673-91.419,20.477l.486,18.448c4.979,11.927,43.884,20.717,91.011,20.038S31.421,401,36.053,388.942Z" transform="translate(146.383 -330.382)" fill="#515151" opacity="0.15"/>
            <path id="Trazado_159168" data-name="Trazado 159168" d="M36.079,391.882l-.047-18.454C32.38,361.721-7.11,353.02-55.194,353.715s-87.307,10.531-90.619,22.335l.486,18.448c4.977,11.927,43.884,20.717,91.011,20.038S31.447,403.945,36.079,391.882Z" transform="translate(146.425 -328.644)" fill="#fff"/>
          </g>
          <path id="Trazado_159169" data-name="Trazado 159169" d="M-87.684,374.115c-21.559,1.012-39.221-2.128-39.451-7.01s17.063-9.663,38.622-10.675,39.221,2.125,39.451,7.01S-66.125,373.1-87.684,374.115Z" transform="translate(176.565 -324.507)" fill="#ffef9f"/>
          <path id="Trazado_159170" data-name="Trazado 159170" d="M-100.343,378.724c-10.782.5-19.661-2.018-19.831-5.635s8.435-6.961,19.217-7.465,19.661,2.015,19.831,5.635S-89.561,378.219-100.343,378.724Z" transform="translate(187.797 -309.468)" fill="#ffef9f"/>
          <path id="Trazado_159171" data-name="Trazado 159171" d="M-70.526,381.675c-17.565.823-31.991-2.467-32.221-7.35s13.825-9.512,31.39-10.338,31.993,2.467,32.221,7.35S-52.962,380.849-70.526,381.675Z" transform="translate(215.921 -312.207)" fill="#ffef9f"/>
          <path id="Trazado_159172" data-name="Trazado 159172" d="M-115,382.867c-16.441-.371-29.68-4.634-29.57-9.522s13.529-8.553,29.97-8.181,29.68,4.634,29.57,9.522S-98.561,383.236-115,382.867Z" transform="translate(148.425 -310.146)" fill="#ffef9f"/>
          <path id="Trazado_159173" data-name="Trazado 159173" d="M-96.006,381.48c-15.176.714-27.576-.826-27.7-3.437s12.079-5.3,27.254-6.014,27.576.826,27.7,3.435S-80.832,380.77-96.006,381.48Z" transform="translate(182.103 -299.307)" fill="#ffef9f"/>
        </g>
        <circle id="Elipse_4288" data-name="Elipse 4288" cx="17.48" cy="17.48" r="17.48" transform="translate(66.662 32.597) rotate(-68.813)" fill="#d7e9f4"/>
        <path id="Trazado_159174" data-name="Trazado 159174" d="M-93.563,311.35a13.394,13.394,0,0,0-18.906-1.2,13.394,13.394,0,0,0-1.2,18.906,13.4,13.4,0,0,0,18.906,1.2A13.4,13.4,0,0,0-93.563,311.35Z" transform="translate(192.907 -297.819)" fill="#fff"/>
      </g>
    </g>
  </g>
</svg>
