<svg id="icon11" xmlns="http://www.w3.org/2000/svg" xmlns:xlink="http://www.w3.org/1999/xlink" width="105.91" height="105.91" viewBox="0 0 105.91 105.91">
  <defs>
    <radialGradient id="radial-gradient" cx="0.076" cy="0.019" r="1.465" gradientTransform="translate(0.001)" gradientUnits="objectBoundingBox">
      <stop offset="0" stop-color="#f6f6f7"/>
      <stop offset="0.477" stop-color="#f9f9fa"/>
      <stop offset="0.715" stop-color="#fff"/>
    </radialGradient>
  </defs>
  <g id="Grupo_18423" data-name="Grupo 18423" transform="translate(0 0)">
    <g id="Grupo_18421" data-name="Grupo 18421">
      <g id="Grupo_18420" data-name="Grupo 18420">
        <g id="Grupo_18419" data-name="Grupo 18419">
          <path id="Trazado_40936" data-name="Trazado 40936" d="M300.533,2198.675a52.955,52.955,0,1,1-52.954-52.954A52.954,52.954,0,0,1,300.533,2198.675Z" transform="translate(-194.623 -2145.721)" fill="#fff"/>
        </g>
      </g>
    </g>
    <path id="Trazado_40937" data-name="Trazado 40937" d="M300.034,2198.131a52.954,52.954,0,1,0-52.954,52.956A52.746,52.746,0,0,0,300.034,2198.131Z" transform="translate(-194.124 -2145.177)" fill="url(#radial-gradient)"/>
    <path id="Trazado_40938" data-name="Trazado 40938" d="M283.1,2193.749a40.42,40.42,0,1,0-40.42,40.42A40.269,40.269,0,0,0,283.1,2193.749Z" transform="translate(-189.561 -2140.619)" fill="none" stroke="#1d272b" stroke-miterlimit="10" stroke-width="4"/>
    <g id="Grupo_18422" data-name="Grupo 18422" transform="translate(9.382 29.73)">
      <path id="Trazado_40939" data-name="Trazado 40939" d="M291.719,2164.488a52.962,52.962,0,0,1-91.174,52.736,52.793,52.793,0,0,0,91.174-52.736Z" transform="translate(-200.545 -2164.488)" fill="#eceef0"/>
    </g>
  </g>
  <g id="n20Oyx.tif" transform="translate(1734.425 508.213)">
    <g id="Grupo_124119" data-name="Grupo 124119" transform="translate(-1700.146 -484.699)">
      <path id="Trazado_160167" data-name="Trazado 160167" d="M-1680.143-484.7a219.91,219.91,0,0,1,13.118,20.285c.6,1.07,1.179,2.152,1.795,3.277.159-.144.3-.259.421-.385q2.09-2.087,4.179-4.174a3.814,3.814,0,0,1,.488-.355v20.81c-.154.967-.276,1.941-.47,2.9a18.926,18.926,0,0,1-2.091,5.6l-1.451-.817c.363-.818.737-1.581,1.045-2.369a18.157,18.157,0,0,0,1.216-6.66q.011-7.448,0-14.9c0-.109-.012-.218-.017-.311l-3.706,3.724a192.3,192.3,0,0,0-14.546-23.7c-4.069,5.782-7.886,11.635-11.355,17.677l-6.717-6.73-.165.094a3.467,3.467,0,0,0-.044.4c0,7.941-.016,15.882.007,23.822a18.1,18.1,0,0,0,1.9,8.218l-1.592.807c-.454-1.263-.946-2.46-1.313-3.694a18.888,18.888,0,0,1-.714-5.439q.016-13.816,0-27.632v-.757l8.189,8.221c.265-.435.492-.8.712-1.169q4.931-8.24,10.555-16.023c.161-.225.286-.477.428-.716Z" transform="translate(1700.146 484.699)"/>
      <path id="Trazado_160168" data-name="Trazado 160168" d="M-1639.789-197.175h-31.022v-17.036h-1.087v-5.228l1.067-.052c0-.88.02-1.746-.009-2.609a1.2,1.2,0,0,1,.406-1c.849-.811,1.655-1.667,2.507-2.475a1.179,1.179,0,0,1,.733-.309q11.874-.024,23.749,0a1.1,1.1,0,0,1,.69.28q1.356,1.3,2.652,2.652a1.229,1.229,0,0,1,.287.744c.034.886.013,1.775.013,2.719h1.032v5.247h-1.017Zm-29.275-17.019v15.305h27.472v-15.305Zm27.423-5.3c.281-1.526.194-2.879-1.217-3.793a1.693,1.693,0,0,1-.4-.4,1.213,1.213,0,0,0-1.08-.462q-10.02.022-20.041.011a6.884,6.884,0,0,0-2.524.093c-.745.316-1.272,1.148-1.894,1.754a1,1,0,0,0-.158.162.657.657,0,0,0-.139.293c-.011.77-.006,1.541-.006,2.34Zm1.176,1.789h-29.725v1.716h29.725Z" transform="translate(1675.117 255.378)"/>
      <path id="Trazado_160169" data-name="Trazado 160169" d="M-1489.659-370.477l1.468-.939,6.441,10.855-1.514.82Z" transform="translate(1513.64 384.322)"/>
      <path id="Trazado_160170" data-name="Trazado 160170" d="M-1517.315-412l1.422-.966.962,1.435-1.428.954Z" transform="translate(1538.145 421.142)"/>
      <path id="Trazado_160171" data-name="Trazado 160171" d="M-1503.6-391.135l1.442-.944.942,1.439-1.434.936Z" transform="translate(1525.996 402.631)"/>
      <path id="Trazado_160172" data-name="Trazado 160172" d="M-1633.142-97.184v-.607c0-3.6.007-7.2-.009-10.8,0-.441.072-.629.578-.628q11.589.024,23.179.012c.149,0,.3.016.491.027v12Zm1.778-1.734h20.751v-8.5h-20.751Z" transform="translate(1640.783 151.999)"/>
      <path id="Trazado_160173" data-name="Trazado 160173" d="M-1456.555-193.689h-4.453v-1.675h4.453Z" transform="translate(1488.253 228.328)"/>
      <path id="Trazado_160174" data-name="Trazado 160174" d="M-1510.867-193.667v-1.662h1.671v1.662Z" transform="translate(1532.431 228.297)"/>
      <path id="Trazado_160175" data-name="Trazado 160175" d="M-1484.277-193.692h-1.676v-1.668h1.676Z" transform="translate(1510.356 228.324)"/>
      <path id="Trazado_160176" data-name="Trazado 160176" d="M-1580.288-72.412v1.334h-1.733v-1.277h-8.257v1.3h-1.737v-1.31h-1.825V-74.1h1.806v-1.361h1.724v1.315h8.268v-1.3h1.743v1.316h1.8v1.716Z" transform="translate(1605.952 122.085)"/>
    </g>
  </g>
</svg>
