<svg id="icon12" xmlns="http://www.w3.org/2000/svg" xmlns:xlink="http://www.w3.org/1999/xlink" width="105.91" height="105.91" viewBox="0 0 105.91 105.91">
  <defs>
    <radialGradient id="radial-gradient" cx="0.076" cy="0.019" r="1.465" gradientTransform="translate(0.001)" gradientUnits="objectBoundingBox">
      <stop offset="0" stop-color="#f6f6f7"/>
      <stop offset="0.477" stop-color="#f9f9fa"/>
      <stop offset="0.715" stop-color="#fff"/>
    </radialGradient>
  </defs>
  <g id="Grupo_18423" data-name="Grupo 18423" transform="translate(0 0)">
    <g id="Grupo_18421" data-name="Grupo 18421">
      <g id="Grupo_18420" data-name="Grupo 18420">
        <g id="Grupo_18419" data-name="Grupo 18419">
          <path id="Trazado_40936" data-name="Trazado 40936" d="M300.533,2198.675a52.955,52.955,0,1,1-52.954-52.954A52.954,52.954,0,0,1,300.533,2198.675Z" transform="translate(-194.623 -2145.721)" fill="#fff"/>
        </g>
      </g>
    </g>
    <path id="Trazado_40937" data-name="Trazado 40937" d="M300.034,2198.131a52.954,52.954,0,1,0-52.954,52.956A52.746,52.746,0,0,0,300.034,2198.131Z" transform="translate(-194.124 -2145.177)" fill="url(#radial-gradient)"/>
    <path id="Trazado_40938" data-name="Trazado 40938" d="M283.1,2193.749a40.42,40.42,0,1,0-40.42,40.42A40.269,40.269,0,0,0,283.1,2193.749Z" transform="translate(-189.561 -2140.619)" fill="none" stroke="#1d272b" stroke-miterlimit="10" stroke-width="4"/>
    <g id="Grupo_18422" data-name="Grupo 18422" transform="translate(9.382 29.73)">
      <path id="Trazado_40939" data-name="Trazado 40939" d="M291.719,2164.488a52.962,52.962,0,0,1-91.174,52.736,52.793,52.793,0,0,0,91.174-52.736Z" transform="translate(-200.545 -2164.488)" fill="#eceef0"/>
    </g>
  </g>
  <g id="Grupo_124118" data-name="Grupo 124118" transform="translate(1159.436 219.201)">
    <path id="Trazado_160166" data-name="Trazado 160166" d="M-1106.06-183.536h2.779c-.035-.405-.063-.786-.1-1.165a11.113,11.113,0,0,1,.352-4.835,3.758,3.758,0,0,1,1.318-1.9,2.9,2.9,0,0,1,3.073-.231,1.91,1.91,0,0,1,1.076,1.447c.008.039.014.077.023.116,0,.006.011.009.017.014a1.9,1.9,0,0,1,2.933,1.017,2.059,2.059,0,0,1,1.858.187,1.452,1.452,0,0,1,.7,1.678,1.863,1.863,0,0,1,1.785.5,2.113,2.113,0,0,1,.332,1.8,2.134,2.134,0,0,1,2.393,2.737,15.551,15.551,0,0,1-.893,2.035,2.906,2.906,0,0,0-.314,1.759,12.43,12.43,0,0,1-.313,4.9c-.5,2.049-1.058,4.083-1.633,6.112a34.792,34.792,0,0,0-.944,5.149,48.959,48.959,0,0,1-1.289,7.109,10.29,10.29,0,0,1-1.818,3.856,5.183,5.183,0,0,1-2.83,1.8.18.18,0,0,0-.107.078h19.588v6.29h-53.674v-6.277h15.92l.011-.038c-.171-.082-.34-.167-.512-.245a5.348,5.348,0,0,1-2.216-1.984,12.575,12.575,0,0,1-1.535-3.5,42.884,42.884,0,0,1-1.351-6.4,43.567,43.567,0,0,0-2.034-8,32.014,32.014,0,0,1-1.342-5.106,11.714,11.714,0,0,1-.1-3.475,2.3,2.3,0,0,0-.339-1.335c-.32-.652-.7-1.28-.97-1.95a2.169,2.169,0,0,1,1.251-2.91,3.39,3.39,0,0,1,.974-.154,2.107,2.107,0,0,1,.3-1.767,1.839,1.839,0,0,1,1.75-.535,1.453,1.453,0,0,1,.631-1.7,2.029,2.029,0,0,1,1.852-.256,1.9,1.9,0,0,1,2.867-1.145,7.228,7.228,0,0,1,.4-.942,2.229,2.229,0,0,1,1.74-.976,3.012,3.012,0,0,1,3.212,1.845,7.5,7.5,0,0,1,.746,3.28c.016.884-.044,1.77-.081,2.655a3.031,3.031,0,0,0,.465,1.69,7.79,7.79,0,0,1,1,2.268,8.84,8.84,0,0,1,.071,3.046,65.354,65.354,0,0,0-.733,8.72,21.76,21.76,0,0,0,1,6.944,23.717,23.717,0,0,1,1.069,4.172,10.468,10.468,0,0,1-.206,4.817,4.333,4.333,0,0,1-2.664,2.9.819.819,0,0,0-.109.07h8.936c-.032-.03-.049-.057-.071-.064a4.4,4.4,0,0,1-3.15-3.216,10.179,10.179,0,0,1-.3-3.951c.023-.252.043-.5.067-.78h-.85Zm-5.248-1.913.048-.005c-.065-.787-.105-1.577-.2-2.36a5.015,5.015,0,0,0-.646-1.944,2.133,2.133,0,0,0-2.155-1.214,1.43,1.43,0,0,0-1.462,1.622,4.7,4.7,0,0,0,.143.887c.223.823.487,1.636.7,2.462a3.078,3.078,0,0,1,.066.98.714.714,0,0,1-.638.584.669.669,0,0,1-.693-.5,2.814,2.814,0,0,1-.13-.6c-.057-.606-.087-1.215-.145-1.821a3.384,3.384,0,0,0-.377-1.409,1.019,1.019,0,0,0-1.345-.4c-.388.144-.518.46-.431,1.008a10.079,10.079,0,0,0,.707,2.08,7,7,0,0,1,.359,1.123.557.557,0,0,1-.355.673.672.672,0,0,1-.808-.224,1.651,1.651,0,0,1-.258-.553c-.1-.438-.151-.888-.25-1.326a9.148,9.148,0,0,0-.351-1.224.557.557,0,0,0-.649-.371c-.371.075-.77.141-.929.555a.786.786,0,0,0,.009.443,2.548,2.548,0,0,0,.225.6c.323.589.669,1.165.993,1.753a2.282,2.282,0,0,1,.38,1.3.885.885,0,0,1-.65.761c-.354.06-.606-.1-.759-.526-.126-.356-.2-.732-.312-1.093a11.9,11.9,0,0,0-.447-1.27.739.739,0,0,0-.844-.468.772.772,0,0,0-.684,1,9.365,9.365,0,0,0,.807,2.42c.172.407.337.817.477,1.235a.606.606,0,0,1-.175.645.666.666,0,0,1-.8-.061,1.618,1.618,0,0,1-.366-.541c-.153-.405-.245-.833-.39-1.242a5.971,5.971,0,0,0-.4-.88.4.4,0,0,0-.551-.192,1.568,1.568,0,0,0-.922,1.021,1.749,1.749,0,0,0,.244,1.229c.257.516.545,1.017.806,1.532a2.95,2.95,0,0,1,.393,1.777,12.2,12.2,0,0,0,.318,4.38,56.537,56.537,0,0,0,1.626,5.472,30.635,30.635,0,0,1,1.285,5.021,68.559,68.559,0,0,0,1.336,6.885,15.162,15.162,0,0,0,1.335,3.615,4.877,4.877,0,0,0,2.526,2.364,7.425,7.425,0,0,0,4.211.188,3.56,3.56,0,0,0,2.815-2.884,10.95,10.95,0,0,0,.01-4.5,22.623,22.623,0,0,0-.965-3.587,22.008,22.008,0,0,1-1.039-6.725,61.448,61.448,0,0,1,.72-9.219,9.21,9.21,0,0,0,.028-2.508,6.664,6.664,0,0,0-1-2.439,3.591,3.591,0,0,1-.548-2.008C-1111.392-184.44-1111.344-184.945-1111.307-185.45Zm16.721,27.621v-25.262a1.158,1.158,0,0,0-.132-.017c-1.623,0-3.246-.005-4.869.007a1.591,1.591,0,0,0-.476.179c.125.094.2.143.263.2a1.186,1.186,0,0,1,.218,1.436,1.075,1.075,0,0,1-1.229.486,1.093,1.093,0,0,1-.77-1.23,1.055,1.055,0,0,1,1.162-.946,1.864,1.864,0,0,0,.386-.06l-.01-.057h-5.588v25.265Zm15.668,9.311h-51.976v4.6h51.976Zm-25.425-8.88a12.844,12.844,0,0,0-.089,3.105,6.2,6.2,0,0,0,.608,2.229,3.406,3.406,0,0,0,2.391,1.851,8.466,8.466,0,0,0,3.067.077,4.559,4.559,0,0,0,2.886-1.544,7.762,7.762,0,0,0,1.388-2.546,36.512,36.512,0,0,0,1.468-6.921c.165-1.134.294-2.274.456-3.409a31.944,31.944,0,0,1,1.044-4.3,45.166,45.166,0,0,0,1.517-6.259,9.7,9.7,0,0,0,.053-3.027,3.69,3.69,0,0,1,.385-2.382c.262-.523.529-1.045.749-1.586a1.364,1.364,0,0,0-.665-1.89c-.347-.205-.594-.156-.784.208a4.759,4.759,0,0,0-.322.835c-.127.423-.212.86-.348,1.279a1.351,1.351,0,0,1-.313.492.667.667,0,0,1-.771.109.559.559,0,0,1-.245-.64,1.783,1.783,0,0,1,.079-.321c.223-.591.462-1.177.676-1.771a4.879,4.879,0,0,0,.4-1.842.683.683,0,0,0-.684-.73.849.849,0,0,0-.924.659c-.18.52-.292,1.064-.437,1.6a5.466,5.466,0,0,1-.232.768.611.611,0,0,1-1,.261c-.046-.032-.094-.061-.174-.113V-157.4Zm3.847-26.141c.3,0,.6.007.9,0a.292.292,0,0,0,.214-.1c.192-.335.37-.678.544-1.022a.173.173,0,0,0-.019-.16,1.124,1.124,0,0,1-.248-1.151c.131-.625.313-1.239.469-1.859a5.924,5.924,0,0,0,.269-2.032,1.218,1.218,0,0,0-.657-1.06,2.114,2.114,0,0,0-2.516.467,4.675,4.675,0,0,0-1.015,2.561,12.775,12.775,0,0,0-.016,2.885,1.387,1.387,0,0,0,.384.84c.09.1.188.194.272.3a.843.843,0,0,0,.824.346A4.357,4.357,0,0,1-1100.5-183.539Zm6.166-.011a2.1,2.1,0,0,1,.246-1.313c.089-.194.2-.378.291-.569.288-.579.61-1.145.851-1.743.258-.639.042-.983-.628-1.147-.031-.008-.062-.011-.093-.018a.652.652,0,0,0-.777.347,2.2,2.2,0,0,0-.217.6c-.1.536-.145,1.081-.25,1.615a3.576,3.576,0,0,1-.307.935.658.658,0,0,1-.837.239.625.625,0,0,1-.354-.706,1.432,1.432,0,0,1,.058-.278c.223-.633.473-1.257.667-1.9a6.17,6.17,0,0,0,.245-1.3c.033-.417-.185-.637-.594-.729a1.034,1.034,0,0,0-1.348.815,7.468,7.468,0,0,0-.235,1.971c-.014.442-.027.886-.08,1.325-.068.565-.395.879-.956.688-.013,0-.031,0-.041.005l-.612,1.158Zm-6.189,1.01a.628.628,0,0,0-.644.665.633.633,0,0,0,.659.679.629.629,0,0,0,.641-.695A.614.614,0,0,0-1100.521-182.54Zm-1.936-1.018h.721l-.721-.78Z" fill="#1d272b"/>
  </g>
</svg>
