<svg id="icon4" xmlns="http://www.w3.org/2000/svg" xmlns:xlink="http://www.w3.org/1999/xlink" width="121.001" height="120.999" viewBox="0 0 121.001 120.999">
  <defs>
    <radialGradient id="radial-gradient" cx="0.077" cy="0.019" r="1.465" gradientTransform="matrix(1, 0, 0, -1, 0, 9.666)" gradientUnits="objectBoundingBox">
      <stop offset="0" stop-color="#f4f4f5"/>
      <stop offset="0.477" stop-color="#f7f8fa"/>
      <stop offset="0.715" stop-color="#fff"/>
    </radialGradient>
  </defs>
  <g id="Group_18531" data-name="Group 18531">
    <g id="Group_18423" data-name="Group 18423">
      <g id="Group_18421" data-name="Group 18421">
        <g id="Group_18420" data-name="Group 18420">
          <g id="Group_18419" data-name="Group 18419">
            <path id="Path_40936" data-name="Path 40936" d="M243.8,575.329a60.5,60.5,0,1,1-60.5-60.5h0A60.5,60.5,0,0,1,243.8,575.329Z" transform="translate(-122.8 -514.832)" fill="#fff"/>
          </g>
        </g>
      </g>
      <path id="Path_40937" data-name="Path 40937" d="M243.8,575.329a60.259,60.259,0,1,0,0,.477Z" transform="translate(-122.798 -514.832)" fill="url(#radial-gradient)"/>
      <path id="Path_40938" data-name="Path 40938" d="M221.969,567.828a46.18,46.18,0,1,0-46.179,46.179h0a46.008,46.008,0,0,0,46.179-45.836Z" transform="translate(-115.106 -507.129)" fill="none" stroke="#1d272d" stroke-miterlimit="10" stroke-width="3"/>
      <g id="Group_18422" data-name="Group 18422" transform="translate(10.719 33.966)">
        <path id="Path_40939" data-name="Path 40939" d="M232,530.78a60.506,60.506,0,0,1-104.163,60.246A60.314,60.314,0,0,0,232,530.78Z" transform="translate(-127.833 -530.78)" fill="#e7e9eb"/>
      </g>
    </g>
  </g>
  <g id="Grupo_52998" data-name="Grupo 52998" transform="translate(36.604 34.772)">
    <path id="Trazado_114962" data-name="Trazado 114962" d="M-1042.24,1383.988a12.814,12.814,0,0,1-1.358.156q-16.389.014-32.779.009c-.19,0-.38,0-.568-.013a.905.905,0,0,1-.961-1.009c-.016-.926-.028-1.854,0-2.779.018-.509-.174-.664-.661-.646-.778.029-1.558.014-2.337,0-.75-.016-1.073-.339-1.083-1.088-.012-.926,0-1.852,0-2.779q0-21.094,0-42.189c0-1.315.231-1.544,1.535-1.544h32.716c1.249,0,1.5.251,1.5,1.521,0,.8.011,1.6-.006,2.4-.008.37.107.527.5.514.757-.025,1.516-.007,2.273,0,.975.007,1.287.318,1.287,1.281,0,3.136.007,6.273-.008,9.41a1.04,1.04,0,0,0,.434.9,24.5,24.5,0,0,1,7.623,10.192,16.488,16.488,0,0,1,.728,8.145c-.224,1.749-.474,3.5-.542,5.262a10.986,10.986,0,0,0,1.173,5.311,17.757,17.757,0,0,0,1.184,1.857c.718,1.088,1.449,2.168,2.165,3.259.534.814.438,1.253-.381,1.78q-3.769,2.423-7.543,4.839c-.967.618-1.345.542-1.967-.395-.85-1.279-1.692-2.563-2.54-3.843C-1041.99,1384.329-1042.14,1384.129-1042.24,1383.988Zm-7.2-15.542a3.314,3.314,0,0,0-.433-.53c-.378-.308-.77-.586-.37-1.037l-.618-.154a2.707,2.707,0,0,1,.5-.44,3.3,3.3,0,0,1,.69-.193l-.05-.217-1.5.328a1.944,1.944,0,0,1-.232-.444c-.182-.807-.726-.885-1.451-.881-5.39.028-10.779.016-16.169.015-1.089,0-1.53-.28-1.527-.965,0-.649.449-.924,1.494-.924q8.211,0,16.422.008c.472,0,.761-.086.933-.6a1.986,1.986,0,0,1,1.715-1.4,15.329,15.329,0,0,1,1.815-.014v-26.924h-31.858v.923q0,21,0,42c0,.816,0,.815.833.814q14.969,0,29.938,0c1.357,0,1.121.123,1.137-1.136a28.445,28.445,0,0,1,.058-3.72c.245-1.668.172-3.156-1.175-4.352-.062-.055-.113-.122-.17-.183.3-.331.628-.681.345-1.158a3.117,3.117,0,0,0-.6-.582l-.2.137C-1049.02,1367.192-1049.335,1367.844-1049.439,1368.445Zm7.524-18.062-.221.125c-.012.159-.033.318-.034.476,0,1.305-.036,2.612.014,3.915a1.912,1.912,0,0,0,.426,1.11,7.505,7.505,0,0,1,1.737,3.318,19.685,19.685,0,0,1,.525,3.228,11.238,11.238,0,0,1-1.642,7.18,1.45,1.45,0,0,1-1.318.7,2.073,2.073,0,0,1-1.674-.989c-.744-1.091-1.409-2.236-2.087-3.371-.388-.649-.7-1.347-1.112-1.977a2.506,2.506,0,0,0-2.078-1.249c-.452-.013-.688.2-.7.62a4.833,4.833,0,0,0,1.435,3.092c.7.9,1.48,1.75,2.2,2.646.066.083-.082.338-.141.549l.617.1c0,1.347-.052,2.689.013,4.026.083,1.711.232,3.491,1.427,4.808a48.23,48.23,0,0,0,3.9,3.493c1.777-1.135,3.886-2.477,5.98-3.841a.544.544,0,0,0,.1-.506,17.3,17.3,0,0,1-.94-10.326,17.89,17.89,0,0,0,.243-5.963,17.086,17.086,0,0,0-3.663-7.794C-1039.835,1352.572-1040.908,1351.5-1041.915,1350.383Zm-4.478,29.18a14.115,14.115,0,0,1-1.411.142q-13.227.013-26.455.007c-1.79,0-1.764,0-1.781,1.793-.006.621.208.76.794.759q15.216-.025,30.433-.012h.661l.1-.2Zm2.141-13.959.13-.042V1338.51h-2.113v.843c0,7.174.014,14.348-.017,21.521a3.764,3.764,0,0,0,.745,2.5A16.761,16.761,0,0,1-1044.252,1365.6Zm12.87,17.067-1.867-2.807L-1039.9,1384l1.927,2.9Zm-10.767-15.254c1.152-1.754.925-7.144,0-8.076Z" transform="translate(1081.987 -1332.103)" fill="#1d272b"/>
    <path id="Trazado_114969" data-name="Trazado 114969" d="M-827.676,1607.6l.02.016c.1-.6.419-1.253-.478-1.619l.2-.137a3.111,3.111,0,0,1,.6.582C-827.048,1606.924-827.372,1607.273-827.676,1607.6Z" transform="translate(860.205 -1571.279)" fill="#12263f"/>
    <path id="Trazado_114971" data-name="Trazado 114971" d="M-1023.607,1501.035q-5.65,0-11.3,0a3.718,3.718,0,0,1-.629-.024.985.985,0,0,1-.86-1.006,1.006,1.006,0,0,1,.974-.9c.147-.011.295,0,.442,0h22.6c1.03,0,1.478.291,1.48.956s-.478.976-1.47.976Z" transform="translate(1042.157 -1478.003)" fill="#1d272b"/>
    <path id="Trazado_114973" data-name="Trazado 114973" d="M-1023.632,1655.889H-1035c-.917-.007-1.359-.317-1.352-.947s.452-.95,1.377-.949c4.059.006,8.117.027,12.176.029q5.361,0,10.723-.029c.55,0,1.019.107,1.177.709.185.709-.292,1.221-1.117,1.219q-4.419-.013-8.839-.031C-1021.78,1655.886-1022.706,1655.889-1023.632,1655.889Z" transform="translate(1042.116 -1613.326)" fill="#1d272b"/>
    <path id="Trazado_114981" data-name="Trazado 114981" d="M-1023.632,1655.889H-1035c-.917-.007-1.359-.317-1.352-.947s.452-.95,1.377-.949c4.059.006,8.117.027,12.176.029q5.361,0,10.723-.029c.55,0,1.019.107,1.177.709.185.709-.292,1.221-1.117,1.219q-4.419-.013-8.839-.031C-1021.78,1655.886-1022.706,1655.889-1023.632,1655.889Z" transform="translate(1042.116 -1617.247)" fill="#1d272b"/>
    <path id="Trazado_114974" data-name="Trazado 114974" d="M-982,1539.8h-8.335c-.232,0-.464.008-.694-.012a.92.92,0,0,1-.9-.949.913.913,0,0,1,.872-.916,4.993,4.993,0,0,1,.694-.01l17.049,0a3.724,3.724,0,0,1,.378.009.905.905,0,0,1,.882.957.865.865,0,0,1-.919.909c-1.241.023-2.483.014-3.725.015Q-979.347,1539.8-982,1539.8Z" transform="translate(1003.305 -1511.903)" fill="#1d272b"/>
    <path id="Trazado_114975" data-name="Trazado 114975" d="M-916.986,1383.072q2.176,0,4.352,0c.788,0,1.237.347,1.238.943s-.419.976-1.221.978q-4.446.006-8.892-.028c-.7,0-1.078-.374-1.07-.969.009-.574.407-.916,1.115-.92C-919.971,1383.067-918.478,1383.073-916.986,1383.072Z" transform="translate(942.718 -1376.632)" fill="#1d272b"/>
    <path id="Trazado_114976" data-name="Trazado 114976" d="M-916.99,1462.41c-1.472,0-2.943,0-4.414,0-.744,0-1.137-.347-1.132-.966.005-.589.381-.931,1.1-.933q4.478-.014,8.955,0a1,1,0,0,1,1.125.932c0,.579-.446.965-1.157.969C-914.005,1462.416-915.5,1462.411-916.99,1462.41Z" transform="translate(942.681 -1444.281)" fill="#1d272b"/>
    <path id="Trazado_114977" data-name="Trazado 114977" d="M-917.018,1423.746c-1.471,0-2.942,0-4.413,0-.756,0-1.157-.333-1.162-.936s.41-.943,1.156-.944q4.413-.005,8.826,0c.758,0,1.189.336,1.2.906.015.614-.416.971-1.2.974C-914.076,1423.75-915.547,1423.747-917.018,1423.746Z" transform="translate(942.73 -1410.522)" fill="#1d272b"/>
    <path id="Trazado_114978" data-name="Trazado 114978" d="M-1026.063,1540.213a.971.971,0,0,1-1.016-.978.988.988,0,0,1,1.05-.949.956.956,0,0,1,1.006.981A.96.96,0,0,1-1026.063,1540.213Z" transform="translate(1034.015 -1512.238)" fill="#1d272b"/>
    <path id="Trazado_114979" data-name="Trazado 114979" d="M-1025.132,1577.253a.947.947,0,0,1-.995.985,1.007,1.007,0,0,1-1.072-.934,1.041,1.041,0,0,1,1.021-1A.976.976,0,0,1-1025.132,1577.253Z" transform="translate(1034.122 -1545.453)" fill="#1d272b"/>
    <path id="Trazado_114980" data-name="Trazado 114980" d="M-925.661,1628.477l1.167-.053.007.159c-.624.184-.975.146-1.157-.124Z" transform="translate(945.411 -1590.988)" fill="#12263f"/>
    <g id="Grupo_91485" data-name="Grupo 91485" transform="translate(3.872 4.859)">
      <g id="Grupo_90944" data-name="Grupo 90944">
        <path id="Trazado_150122" data-name="Trazado 150122" d="M-2277.755,2424.523c1.49-2.247-.855-4.954-.855-4.954,1.976,3.52-1.645,5.734-3.008,6.415a.855.855,0,0,1,.664.833.851.851,0,0,1-.031.226c1.316-.818,5.053-2.7,7.015.791C-2273.971,2427.833-2275.061,2424.42-2277.755,2424.523Z" transform="translate(2289.648 -2419.569)" fill="#00978e"/>
        <path id="Trazado_150123" data-name="Trazado 150123" d="M-2363.083,2557.649a.852.852,0,0,1-.615.262.851.851,0,0,1-.615-.262c.066,1.568-.138,5.705-4.124,5.705,0,0,3.509.72,4.739-1.68,1.23,2.4,4.739,1.68,4.739,1.68C-2362.945,2563.354-2363.149,2559.217-2363.083,2557.649Z" transform="translate(2371.536 -2549.808)" fill="#00978e"/>
        <path id="Trazado_150124" data-name="Trazado 150124" d="M-2416.042,2426.816a.855.855,0,0,1,.663-.833c-1.363-.681-4.984-2.9-3.008-6.415,0,0-2.346,2.707-.855,4.954-2.694-.1-3.784,3.31-3.784,3.31,1.961-3.495,5.7-1.609,7.015-.791A.861.861,0,0,1-2416.042,2426.816Z" transform="translate(2423.025 -2419.569)" fill="#00978e"/>
      </g>
      <g id="Grupo_90945" data-name="Grupo 90945" transform="translate(3.61 3.019)">
        <path id="Trazado_150125" data-name="Trazado 150125" d="M-2358.468,2535.075a3.241,3.241,0,0,1,.047-.545,5.576,5.576,0,0,0-.973-.185,4.252,4.252,0,0,0-.063.73,4.23,4.23,0,0,0,2.8,3.981,5.465,5.465,0,0,0,.323-.936A3.239,3.239,0,0,1-2358.468,2535.075Z" transform="translate(2359.457 -2530.846)" fill="#00978e"/>
        <path id="Trazado_150126" data-name="Trazado 150126" d="M-2262.434,2535.075a4.252,4.252,0,0,0-.063-.73,5.572,5.572,0,0,0-.973.185,3.241,3.241,0,0,1,.047.545,3.239,3.239,0,0,1-2.135,3.045,5.443,5.443,0,0,0,.323.936A4.23,4.23,0,0,0-2262.434,2535.075Z" transform="translate(2270.891 -2530.846)" fill="#00978e"/>
        <path id="Trazado_150127" data-name="Trazado 150127" d="M-2333.137,2474.5a3.226,3.226,0,0,1,2.107-.78,3.226,3.226,0,0,1,2.106.78,5.626,5.626,0,0,0,.665-.735,4.213,4.213,0,0,0-2.772-1.035,4.211,4.211,0,0,0-2.772,1.035A5.59,5.59,0,0,0-2333.137,2474.5Z" transform="translate(2335.259 -2472.732)" fill="#00978e"/>
      </g>
    </g>
  </g>
</svg>
