<svg id="icon1" xmlns="http://www.w3.org/2000/svg" xmlns:xlink="http://www.w3.org/1999/xlink" width="121.001" height="120.999" viewBox="0 0 121.001 120.999">
  <defs>
    <radialGradient id="radial-gradient" cx="0.077" cy="0.019" r="1.465" gradientTransform="matrix(1, 0, 0, -1, 0, 9.666)" gradientUnits="objectBoundingBox">
      <stop offset="0" stop-color="#f4f4f5"/>
      <stop offset="0.477" stop-color="#f7f8fa"/>
      <stop offset="0.715" stop-color="#fff"/>
    </radialGradient>
  </defs>
  <g id="Group_18531" data-name="Group 18531">
    <g id="Group_18423" data-name="Group 18423">
      <g id="Group_18421" data-name="Group 18421">
        <g id="Group_18420" data-name="Group 18420">
          <g id="Group_18419" data-name="Group 18419">
            <path id="Path_40936" data-name="Path 40936" d="M243.8,575.329a60.5,60.5,0,1,1-60.5-60.5h0A60.5,60.5,0,0,1,243.8,575.329Z" transform="translate(-122.8 -514.832)" fill="#fff"/>
          </g>
        </g>
      </g>
      <path id="Path_40937" data-name="Path 40937" d="M243.8,575.329a60.259,60.259,0,1,0,0,.477Z" transform="translate(-122.798 -514.832)" fill="url(#radial-gradient)"/>
      <path id="Path_40938" data-name="Path 40938" d="M221.969,567.828a46.18,46.18,0,1,0-46.179,46.179h0a46.008,46.008,0,0,0,46.179-45.836Z" transform="translate(-115.106 -507.129)" fill="none" stroke="#1d272d" stroke-miterlimit="10" stroke-width="3"/>
      <g id="Group_18422" data-name="Group 18422" transform="translate(10.719 33.966)">
        <path id="Path_40939" data-name="Path 40939" d="M232,530.78a60.506,60.506,0,0,1-104.163,60.246A60.314,60.314,0,0,0,232,530.78Z" transform="translate(-127.833 -530.78)" fill="#e7e9eb"/>
      </g>
    </g>
  </g>
  <g id="_0h2GYs" data-name="0h2GYs" transform="translate(2333.885 212.925)">
    <g id="Grupo_91875" data-name="Grupo 91875" transform="translate(-2305.767 -183.461)">
      <path id="Trazado_150953" data-name="Trazado 150953" d="M-2141.526-183.461c.015.242.041.457.041.672,0,1.214,0,2.428,0,3.642,0,.947,0,.95-.964,1.013-2.078.134-4.156.27-6.234.395-4.056.243-8.114.468-12.169.721-1.729.108-3.453.267-5.19.544.263.021.526.061.788.061q9.345,0,18.69-.01c2.042,0,4.087.055,6.127-.01a3.591,3.591,0,0,1,3.544,3.665q-.018,20.485,0,40.97a29.118,29.118,0,0,1-.059,3.088,3.452,3.452,0,0,1-3.749,3.313q-8.071,0-16.142,0-7.616,0-15.231,0a3.555,3.555,0,0,1-3.583-1.989,4.727,4.727,0,0,1-.382-1.875c-.043-2.407-.018-4.814-.014-7.222a1.558,1.558,0,0,1,.083-.325c.821.309,1.59.664,2.4.878.579.154.7.451.693.98-.022,1.881.014,3.763-.024,5.644-.012.6.2.766.769.765q14.988-.02,29.977-.013c.485,0,.971-.012,1.456.008s.629-.183.628-.654c-.011-4.127,0-8.254,0-12.382q0-15.387,0-30.774c0-1-.009-1.008-1.005-1.008q-14.138,0-28.276-.013c-.951,0-1.9.021-2.852-.008-.467-.014-.674.156-.675.616,0,1.537-.027,3.074-.005,4.611.007.484-.065.755-.614.9a11.843,11.843,0,0,0-1.895.793c-.509.234-.659.153-.657-.385q.011-3,.014-6.008a3.54,3.54,0,0,1,3.052-3.579c1.582-.306,3.143-.725,4.715-1.084,1.219-.279,2.443-.539,3.663-.816,1.846-.419,3.69-.85,5.537-1.269,1.082-.245,2.168-.472,3.25-.716,2.363-.532,4.723-1.074,7.085-1.6q3.426-.769,6.855-1.521A2.453,2.453,0,0,1-2141.526-183.461Z" transform="translate(2191.807 183.461)" fill="#1d272b"/>
      <path id="Trazado_150954" data-name="Trazado 150954" d="M-2232.088-24.824a14.363,14.363,0,0,1,14.074-14.541A14.44,14.44,0,0,1-2203.3-25.227a14.444,14.444,0,0,1-14.3,14.689A14.374,14.374,0,0,1-2232.088-24.824Zm14.406-11.061a10.9,10.9,0,0,0-10.962,11.217A10.852,10.852,0,0,0-2217.687-14a10.9,10.9,0,0,0,10.932-11.31A10.931,10.931,0,0,0-2217.682-35.886Z" transform="translate(2241.033 56.857)" fill="#008f85"/>
      <path id="Trazado_150955" data-name="Trazado 150955" d="M-2303.379,172.653a2.379,2.379,0,0,1-2.064-1.25,2.31,2.31,0,0,1,.287-2.763c1-1.077,2.053-2.113,3.092-3.158q2.669-2.685,5.348-5.359.47-.471.942-.94c.232-.23.392-.3.679.019.84.923,1.714,1.817,2.627,2.667.4.369.426.537.02.938-2.945,2.908-5.857,5.848-8.78,8.777A2.653,2.653,0,0,1-2303.379,172.653Z" transform="translate(2305.767 -117.422)" fill="#008f85"/>
      <path id="Trazado_150956" data-name="Trazado 150956" d="M-2028.906,173.493c.9-.521,1.291-1.674,2.663-1.648,3.517.068,7.036.027,10.554,0a1.054,1.054,0,0,1,1.119.735,1.059,1.059,0,0,1-.328.883,1.567,1.567,0,0,1-.96.277c-3.656.016-7.312.007-10.967,0h-1.975Z" transform="translate(2062.51 -128.72)" fill="#1d272b"/>
      <path id="Trazado_150957" data-name="Trazado 150957" d="M-2009.076-7.766c.847,0,1.506,0,2.164,0q4.091-.009,8.181-.018c.261,0,.523.032.785.046a.784.784,0,0,1,.821.858c-.034.316-.408.618-.679.874-.1.1-.348.066-.528.067q-4.485,0-8.97-.013a.806.806,0,0,1-.553-.148C-2008.259-6.59-2008.612-7.122-2009.076-7.766Z" transform="translate(2045.087 29.107)" fill="#1d272b"/>
      <path id="Trazado_150958" data-name="Trazado 150958" d="M-1993.055,128.751a7,7,0,0,0,.572-1.186c.148-.573.508-.611,1-.608,2.261.015,4.523-.006,6.784,0a2.021,2.021,0,0,1,1.005.117,1.4,1.4,0,0,1,.644.893.78.78,0,0,1-.808.8q-1.121.038-2.243.042-3.212.011-6.426.006A4.725,4.725,0,0,1-1993.055,128.751Z" transform="translate(2031.01 -89.272)" fill="#1d272b"/>
      <path id="Trazado_150959" data-name="Trazado 150959" d="M-1978.993,37.177c1.213,0,2.426-.008,3.639,0a1,1,0,0,1,1.035.813.874.874,0,0,1-.846.935,10.852,10.852,0,0,1-1.446.045c-1.9,0-3.8-.019-5.7,0a.553.553,0,0,1-.653-.535c-.016-.1-.028-.2-.052-.3-.248-.991-.249-.99.8-.99h3.217Z" transform="translate(2022.308 -10.374)" fill="#1d272b"/>
      <path id="Trazado_150960" data-name="Trazado 150960" d="M-1975.022,83.748c-1.11,0-2.22-.015-3.329.008-.4.008-.529-.111-.523-.514.021-1.391.009-1.385,1.4-1.384,1.8,0,3.592-.012,5.387-.016a4.378,4.378,0,0,1,.6.031,1.019,1.019,0,0,1,.932.942,1.055,1.055,0,0,1-1.02.929C-1972.721,83.758-1973.872,83.748-1975.022,83.748Z" transform="translate(2018.551 -49.64)" fill="#1d272b"/>
      <path id="Trazado_150961" data-name="Trazado 150961" d="M-2124.332,19.074c0,1.537-.007,3.074,0,4.611,0,.354-.118.528-.488.525-.809-.008-1.618-.015-2.427,0-.41.01-.518-.175-.516-.552.014-2.832.012-5.664.022-8.5,0-1.216.013-1.215,1.21-1.213.546,0,1.094.024,1.637-.012.458-.031.559.2.558.583Q-2124.334,16.8-2124.332,19.074Z" transform="translate(2149.365 10.021)" fill="#1d272b"/>
      <path id="Trazado_150962" data-name="Trazado 150962" d="M-2127.843,113.846a8,8,0,0,1,.02-1.21.619.619,0,0,1,.413-.422c.807-.04,1.618-.009,2.427-.015.411,0,.584.189.578.595-.011.767-.007,1.535-.007,2.3,0,.353-.112.579-.524.571q-1.183-.023-2.367-.007c-.43.006-.568-.2-.546-.6s0-.809,0-1.213Z" transform="translate(2149.451 -76.308)" fill="#1d272b"/>
    </g>
  </g>
</svg>
