<svg id="icon13" xmlns="http://www.w3.org/2000/svg" xmlns:xlink="http://www.w3.org/1999/xlink" width="105.91" height="105.91" viewBox="0 0 105.91 105.91">
  <defs>
    <radialGradient id="radial-gradient" cx="0.076" cy="0.019" r="1.465" gradientTransform="translate(0.001)" gradientUnits="objectBoundingBox">
      <stop offset="0" stop-color="#f6f6f7"/>
      <stop offset="0.477" stop-color="#f9f9fa"/>
      <stop offset="0.715" stop-color="#fff"/>
    </radialGradient>
  </defs>
  <g id="Grupo_18423" data-name="Grupo 18423" transform="translate(0 0)">
    <g id="Grupo_18421" data-name="Grupo 18421">
      <g id="Grupo_18420" data-name="Grupo 18420">
        <g id="Grupo_18419" data-name="Grupo 18419">
          <path id="Trazado_40936" data-name="Trazado 40936" d="M300.533,2198.675a52.955,52.955,0,1,1-52.954-52.954A52.954,52.954,0,0,1,300.533,2198.675Z" transform="translate(-194.623 -2145.721)" fill="#fff"/>
        </g>
      </g>
    </g>
    <path id="Trazado_40937" data-name="Trazado 40937" d="M300.034,2198.131a52.954,52.954,0,1,0-52.954,52.956A52.746,52.746,0,0,0,300.034,2198.131Z" transform="translate(-194.124 -2145.177)" fill="url(#radial-gradient)"/>
    <path id="Trazado_40938" data-name="Trazado 40938" d="M283.1,2193.749a40.42,40.42,0,1,0-40.42,40.42A40.269,40.269,0,0,0,283.1,2193.749Z" transform="translate(-189.561 -2140.619)" fill="none" stroke="#1d272b" stroke-miterlimit="10" stroke-width="4"/>
    <g id="Grupo_18422" data-name="Grupo 18422" transform="translate(9.382 29.73)">
      <path id="Trazado_40939" data-name="Trazado 40939" d="M291.719,2164.488a52.962,52.962,0,0,1-91.174,52.736,52.793,52.793,0,0,0,91.174-52.736Z" transform="translate(-200.545 -2164.488)" fill="#eceef0"/>
    </g>
  </g>
  <g id="jrj7bw" transform="translate(184.479 -323.767)">
    <g id="Grupo_124117" data-name="Grupo 124117" transform="translate(-157.203 354.906)">
      <path id="Trazado_160163" data-name="Trazado 160163" d="M-108.538,388c.826,0,1.56-.034,2.288.007a2.237,2.237,0,0,1,2.382,2.373c.048,5.876.529,4.816-4.307,4.828-15.246.039-30.492.015-45.738.012-1.668,0-3.42.462-3.282-2.415.2-4.239.351-4.724,3.372-4.814.435-.013.869-.048,1.438-.082V370.359c-.357-.053-.636-.1-.915-.135-1.206-.164-3.3-.044-3.456-.541a10.208,10.208,0,0,1-.174-4.986c.144-.7,1.541-1.468,2.453-1.594a3.535,3.535,0,0,0,2.6-1.524,12.1,12.1,0,0,1,4.506-3.711,37.691,37.691,0,0,1,9.364-2.459c7.154-.835,14.332-.817,21.293,1.475,2.984.982,5.751,2.295,7.281,5.371.237.477,1.346.7,2.065.728,3.144.135,3.515.477,3.524,3.686a10.158,10.158,0,0,0,.009,1.331c.248,1.807-.584,2.426-2.3,2.229a22.569,22.569,0,0,0-2.4-.014Zm-2.218-.077v-17.54h-39.426v17.54Zm4.886-23.053a13.335,13.335,0,0,1-2.946-.047c-.781-.2-1.853-.618-2.121-1.234-1.265-2.913-3.774-4.13-6.491-4.91a47.347,47.347,0,0,0-26.875.015c-1.974.581-4.234,1.642-5.387,3.2-1.468,1.989-2.7,3.554-5.4,2.978v3.354h49.216Zm-.1,28.4c.492-3.383.485-3.393-2.534-3.393l-43.961,0c-3.029,0-3.24.29-2.4,3.394Z" transform="translate(157.203 -354.906)" fill="#1d272b"/>
      <path id="Trazado_160164" data-name="Trazado 160164" d="M-78.438,403.227c.023,2.8-1.33,4.467-3.451,4.94a4.278,4.278,0,0,1-4.77-2.326,4.472,4.472,0,0,1,1.255-5.376,15.23,15.23,0,0,0,1.791-2.407c.2-.269.516-.7.724-.671.367.053,1,.435.985.621-.159,1.5,1.088,1.85,1.871,2.657A11.465,11.465,0,0,1-78.438,403.227Zm-1.592,1.321q.015-.528.03-1.057c-.885-.66-1.7-1.729-2.669-1.884a2.036,2.036,0,0,0-2.425,2.366,3.425,3.425,0,0,0,2.343,2.2C-81.935,406.282-80.944,405.138-80.03,404.548Z" transform="translate(118.236 -378.518)" fill="#1d272b"/>
      <path id="Trazado_160165" data-name="Trazado 160165" d="M-122.262,408.336a4.244,4.244,0,0,1-4-2.88,4.348,4.348,0,0,1,1.432-4.968,17.617,17.617,0,0,0,1.679-2.224,2.586,2.586,0,0,1,1.081-.846c.146-.048.524.542.765.863a11.125,11.125,0,0,0,1.555,2.078,4.3,4.3,0,0,1,1.693,4.881A4.31,4.31,0,0,1-122.262,408.336Zm-.537-1.643,1.051.028c.665-.883,1.744-1.7,1.9-2.665a2.153,2.153,0,0,0-2.391-2.495c-1.361.032-2.527.906-2.26,2.376C-124.318,404.926-123.391,405.779-122.8,406.692Z" transform="translate(140.156 -378.533)" fill="#1d272b"/>
    </g>
  </g>
</svg>
