<svg xmlns="http://www.w3.org/2000/svg" xmlns:xlink="http://www.w3.org/1999/xlink" width="432" height="93" viewBox="0 0 432 93">
  <defs>
    <linearGradient id="linear-gradient" x1="0.5" x2="0.5" y2="1" gradientUnits="objectBoundingBox">
      <stop offset="0" stop-color="#fff"/>
      <stop offset="1" stop-color="#f8f8f8"/>
    </linearGradient>
    <filter id="Rectángulo_32726" x="0" y="0" width="432" height="93" filterUnits="userSpaceOnUse">
      <feOffset dy="3" input="SourceAlpha"/>
      <feGaussianBlur stdDeviation="3" result="blur"/>
      <feFlood flood-opacity="0.161"/>
      <feComposite operator="in" in2="blur"/>
      <feComposite in="SourceGraphic"/>
    </filter>
  </defs>
  <g id="img11" transform="translate(-578 -6498)">
    <g transform="matrix(1, 0, 0, 1, 578, 6498)" filter="url(#Rectángulo_32726)">
      <rect id="Rectángulo_32726-2" data-name="Rectángulo 32726" width="414" height="75" rx="5" transform="translate(9 6)" opacity="0.997" fill="url(#linear-gradient)"/>
    </g>
    <path id="Trazado_160215" data-name="Trazado 160215" d="M32.245,30.232,37.2,12.117h6.7L35.526,37H28.964L20.658,12.117h6.648ZM58.119,37H52.343V18.611l-5.674,1.658V15.894l10.92-3.777h.53ZM78.832,20.654,73.26,19.117l1.111-3.227,5.452,2.236L79.4,12.117h3.657l-.444,6.129,5.3-2.185,1.111,3.261-5.64,1.536,3.743,4.529L84.164,27.4,81.036,22.38l-3.145,4.854L74.935,25.3Zm40.981,7.921a9.087,9.087,0,0,1-1.4,4.589,8.458,8.458,0,0,1-3.6,3.085,12.244,12.244,0,0,1-5.289,1.094,9.771,9.771,0,0,1-7.725-3.2q-2.82-3.2-2.82-9.023v-1.23a15.062,15.062,0,0,1,1.273-6.4,9.647,9.647,0,0,1,3.666-4.238,10.228,10.228,0,0,1,5.537-1.5,10.725,10.725,0,0,1,7.28,2.384,9.42,9.42,0,0,1,3.127,6.571h-5.981a4.457,4.457,0,0,0-1.145-3.264,4.709,4.709,0,0,0-3.281-.991,3.583,3.583,0,0,0-3.281,1.675,10.764,10.764,0,0,0-1.094,5.349v1.76q0,3.982,1,5.691a3.659,3.659,0,0,0,3.444,1.709,4.606,4.606,0,0,0,3.162-.974,4.134,4.134,0,0,0,1.162-3.093ZM135.057,37h-5.776V18.611l-5.674,1.658V15.894l10.92-3.777h.53Zm32.71-12.339H151.942V20.218h15.825Zm0,7.5H151.942V27.72h15.825ZM190.5,30.232l4.956-18.115h6.7L193.778,37h-6.562L178.91,12.117h6.648ZM220.968,37H203.6V33.24l8-8.408q2.957-3.367,2.957-5.349a3.721,3.721,0,0,0-.7-2.444,2.5,2.5,0,0,0-2.034-.837,2.533,2.533,0,0,0-2.136,1.119,4.6,4.6,0,0,0-.82,2.794h-5.776a8.172,8.172,0,0,1,1.145-4.23,8.03,8.03,0,0,1,3.179-3.033,9.442,9.442,0,0,1,4.546-1.094,9.289,9.289,0,0,1,6.212,1.863,6.65,6.65,0,0,1,2.179,5.349,7.768,7.768,0,0,1-.547,2.863,12.553,12.553,0,0,1-1.7,2.922,42.834,42.834,0,0,1-3.717,4.093l-3.213,3.708h9.792Zm16.116-16.346-5.571-1.536,1.111-3.227,5.452,2.236-.427-6.009H241.3l-.444,6.129,5.3-2.185,1.111,3.261-5.64,1.536,3.743,4.529L242.416,27.4l-3.127-5.024-3.145,4.854L233.187,25.3Zm40.981,7.921a9.087,9.087,0,0,1-1.4,4.589,8.458,8.458,0,0,1-3.6,3.085,12.244,12.244,0,0,1-5.289,1.094,9.771,9.771,0,0,1-7.725-3.2q-2.82-3.2-2.82-9.023v-1.23a15.062,15.062,0,0,1,1.273-6.4,9.647,9.647,0,0,1,3.666-4.238,10.228,10.228,0,0,1,5.537-1.5,10.725,10.725,0,0,1,7.28,2.384,9.419,9.419,0,0,1,3.127,6.571h-5.981a4.457,4.457,0,0,0-1.145-3.264,4.709,4.709,0,0,0-3.281-.991,3.583,3.583,0,0,0-3.281,1.675,10.764,10.764,0,0,0-1.094,5.349v1.76q0,3.982,1,5.691a3.659,3.659,0,0,0,3.444,1.709,4.606,4.606,0,0,0,3.162-.974,4.134,4.134,0,0,0,1.162-3.093ZM297.906,37H280.543V33.24l8-8.408q2.957-3.367,2.957-5.349a3.721,3.721,0,0,0-.7-2.444,2.5,2.5,0,0,0-2.034-.837,2.533,2.533,0,0,0-2.136,1.119,4.6,4.6,0,0,0-.82,2.794h-5.776a8.172,8.172,0,0,1,1.145-4.23,8.029,8.029,0,0,1,3.179-3.033,9.442,9.442,0,0,1,4.546-1.094,9.289,9.289,0,0,1,6.212,1.863,6.65,6.65,0,0,1,2.179,5.349,7.767,7.767,0,0,1-.547,2.863,12.554,12.554,0,0,1-1.7,2.922,42.834,42.834,0,0,1-3.717,4.093l-3.213,3.708h9.792Z" transform="translate(634 6521)" fill="#1d272b"/>
    <rect id="Rectángulo_34414" data-name="Rectángulo 34414" width="6" height="48" transform="translate(995 6519)" fill="#008f85"/>
    <rect id="Rectángulo_34415" data-name="Rectángulo 34415" width="6" height="48" transform="translate(587 6519)" fill="#008f85"/>
  </g>
</svg>
