<svg xmlns="http://www.w3.org/2000/svg" xmlns:xlink="http://www.w3.org/1999/xlink" width="439.527" height="331.053" viewBox="0 0 439.527 331.053">
  <defs>
    <linearGradient id="linear-gradient" x1="0.5" x2="0.5" y2="1" gradientUnits="objectBoundingBox">
      <stop offset="0" stop-color="#f5f5f5"/>
      <stop offset="0.25" stop-color="#f5f5f5"/>
      <stop offset="1" stop-color="#eeeef2"/>
    </linearGradient>
    <linearGradient id="linear-gradient-5" x1="0.5" x2="0.5" y2="1" gradientUnits="objectBoundingBox">
      <stop offset="0" stop-color="#fff"/>
      <stop offset="1" stop-color="#f8f8f8"/>
    </linearGradient>
  </defs>
  <g id="img22" transform="translate(-207 -11730.071)">
    <g id="Grupo_124106" data-name="Grupo 124106" transform="translate(224.741 11730.071)">
      <path id="Trazado_151846" data-name="Trazado 151846" d="M444.089,418.726c15.832-20.867,20.336-47.949,11.953-71.863-5.3-15.119-15.471-29.166-16.772-44.932-2.6-31.523,30.185-57.007,36.986-88.053,2.989-13.644-.272-29.54-13.087-37.828-12.657-8.186-30.722-6.515-45.051-.782s-26.454,14.91-40.212,21.619-30.7,10.857-45.227,5.517c-14.716-5.409-23.064-19.042-27.74-32.33s-6.971-27.44-14.951-39.478c-13.152-19.84-41.194-30.658-67.326-27.858s-49.48,18.133-62,38.278-14.713,44.511-8.478,66.762c3.162,11.285,8.372,22.092,11.213,33.442s3.1,23.773-3.241,34c-13.262,21.377-48.249,24.359-66.57,42.692-15.121,15.131-15.6,38.222-7.014,56.829s24.709,33.705,40.789,48.069c75,2.193,151.347,2.338,226.348,4.531C382.854,428.189,414.973,420.217,444.089,418.726Z" transform="translate(-80.961 -96.348)" fill="#a4a4b4" opacity="0.354" style="mix-blend-mode: multiply;isolation: isolate"/>
      <path id="Trazado_151847" data-name="Trazado 151847" d="M359.21,189.316c-.2,22.882,19.968,42.8,16.458,65.363-1.876,12.074-10.407,24.314-5.449,35.328,4.386,9.745,16.947,11.435,26.552,8.267,22.482-7.418,36.147-32.205,42.682-56.565,6.147-22.913,7.673-48.506-2.172-69.866-7.933-17.209-26.235-32.4-44.82-31C375.439,142.133,359.359,172.081,359.21,189.316Z" transform="translate(-22.58 -84.623)" fill="#a4a4b4" opacity="0.31" style="mix-blend-mode: multiply;isolation: isolate"/>
      <path id="Trazado_151848" data-name="Trazado 151848" d="M118.307,155.726c-15.017,27.025-15.695,62.643-1.717,90.309,4.417,8.742,10.383,16.888,18.438,21.749s18.446,5.945,26.464,1.013c12.159-7.481,14.848-25.126,13.88-40.189s-4.132-30.853,1.246-44.792c3.506-9.086,10.237-16.17,16.209-23.611s11.545-16.126,11.854-25.962c.8-25.5-24.3-23.593-39.423-18.3A87.335,87.335,0,0,0,118.307,155.726Z" transform="translate(-75.591 -93.189)" fill="#a4a4b4" opacity="0.31" style="mix-blend-mode: multiply;isolation: isolate"/>
      <g id="Grupo_107069" data-name="Grupo 107069" transform="translate(8.402)" style="mix-blend-mode: multiply;isolation: isolate">
        <path id="Trazado_151849" data-name="Trazado 151849" d="M438.887,423.266l-1.613-1.281c4.438-4.22,11.521-13.893,9.123-31.284-1.067-7.742-3.713-15.39-6.272-22.785-1.142-3.3-2.324-6.721-3.356-10.113-11-36.2-6.191-76.131,13.206-109.556,1.723-2.966,3.587-5.943,5.391-8.82,5.346-8.532,10.874-17.356,13.251-26.887,4.169-16.725-4.072-29.261-13.493-33.831-9.039-4.386-21.8-3.716-35,1.84-4.831,2.031-9.526,4.517-14.067,6.92a137.531,137.531,0,0,1-18.867,8.786c-26.211,9.149-58.981,1.374-76.224-18.083-8.287-9.35-12.967-20.65-17.492-31.579-1.753-4.234-3.567-8.614-5.56-12.8-6.2-13.028-17.552-29.38-36.407-33.292-16.567-3.439-33.347,4.119-44.5,11.064-21.346,13.288-36.392,31.283-42.37,50.67-4.03,13.074-4.192,27.3-4.349,41.065-.233,20.493-.475,41.685-13.777,58.751-6.052,7.764-14.375,13.958-22.423,19.949-7.538,5.61-15.333,11.412-21.144,18.444-13.166,15.934-16.394,38.492-8.855,61.892,6.775,21.024,20.585,39.678,33.94,57.719l-1.835,1.027c-13.442-18.158-27.343-36.935-34.206-58.234-7.72-23.958-4.372-47.109,9.184-63.513,5.964-7.218,13.861-13.095,21.5-18.779,7.94-5.909,16.15-12.02,22.036-19.571,12.933-16.593,13.16-36.562,13.4-57.7.158-13.88.322-28.232,4.425-41.539,6.107-19.81,21.452-38.179,43.207-51.723,11.526-7.174,28.911-14.971,46.282-11.366,19.751,4.1,31.522,20.976,37.917,34.413,2.014,4.231,3.836,8.632,5.6,12.888,4.468,10.79,9.087,21.948,17.166,31.062,16.669,18.808,48.347,26.324,73.684,17.48a135.978,135.978,0,0,0,18.545-8.645c4.584-2.427,9.324-4.937,14.249-7.008,13.854-5.827,27.345-6.482,37.017-1.789,10.1,4.9,18.969,18.223,14.564,35.892-2.444,9.8-8.048,18.743-13.469,27.394-1.8,2.865-3.652,5.827-5.358,8.767-19.16,33.016-23.914,72.459-13.044,108.214,1.021,3.362,2.2,6.763,3.335,10.052,2.585,7.473,5.259,15.2,6.35,23.106C451.068,408.618,443.575,418.808,438.887,423.266Z" transform="translate(-87.906 -97.739)" fill="#a4a4b4"/>
      </g>
    </g>
    <g id="Grupo_106447" data-name="Grupo 106447" transform="translate(207 11773.186)">
      <g id="Grupo_106422" data-name="Grupo 106422" transform="translate(56.506)">
        <g id="Grupo_106420" data-name="Grupo 106420" transform="translate(0 5.879)">
          <path id="Trazado_149953" data-name="Trazado 149953" d="M176.219,289.529s16.23,4.51,12.172,40.8l-1.8,49.59-6.539,2.481-5.859-85.437Z" transform="translate(-112.351 -247.084)" fill="#1d272b"/>
          <path id="Trazado_149954" data-name="Trazado 149954" d="M168.144,321.458c1.385.774,1.22,3.095,1.715,4.5a9.477,9.477,0,0,0,2.588,4.061c-1.187,1.255-3.654.184-4.9-.617-.5,2.643-.884,6.437-2.448,8.755-2.83,4.2-2.984-.917-2.734-3.362.061,1.577-.9,5.093-2.145,5.958-1.388-1.066-.647-4.719-.207-6.17-.041,1.03-1.214,5.132-2.574,4.873-1.679-.322-.84-4.738-.413-5.729a4.824,4.824,0,0,1-.867,3.381c-1.024-.969-.531-5.4-.44-6.919a30.084,30.084,0,0,1,1.666-8.315c1.1-2.913,2.781-1.737,5.407-1.481,1.905.185,4.424-.19,5.779,1.28Z" transform="translate(-145.086 -193.769)" fill="#ff8f67"/>
          <g id="haed" transform="translate(48.431)">
            <g id="Grupo_106419" data-name="Grupo 106419">
              <g id="Grupo_106416" data-name="Grupo 106416">
                <path id="Trazado_149955" data-name="Trazado 149955" d="M170.019,292.343c-1.057-4.24-1.181-9.427,1.523-13.119,4.254-5.815,15.195-6.977,20.308-1.883,3.384,3.373,4.325,7.373,4.193,12.095-.077,2.682.295,5.314,2.365,7.263.253.24.553.567.408.884-.129.295-.526.311-.837.391-1,.251-1.451,1.388-1.605,2.4a41.56,41.56,0,0,1-1.305,7.216,2.3,2.3,0,0,1-.925,1.3,2.74,2.74,0,0,1-1.641.168c-1.872-.212-3.725-.523-5.573-.917a1.15,1.15,0,0,0-.325.2,2.735,2.735,0,0,0-.564,1.355q-1.28,5.633-2.544,11.274a66.128,66.128,0,0,0-13.246-8.122,17.371,17.371,0,0,0,2.64-13.034A32.644,32.644,0,0,1,170.019,292.343Z" transform="translate(-169.32 -274.113)" fill="#ff8f67"/>
                <path id="Trazado_149956" data-name="Trazado 149956" d="M181.725,291.717a.247.247,0,0,1-.088-.017c-.267-.094-6.522-2.354-8.059-7.469a.27.27,0,0,1,.518-.157c1.462,4.857,7.659,7.092,7.72,7.114a.272.272,0,0,1-.091.529Z" transform="translate(-161.875 -256.984)" fill="#894c4c"/>
              </g>
              <g id="Grupo_106418" data-name="Grupo 106418" transform="translate(22.487 15.927)">
                <g id="Grupo_106417" data-name="Grupo 106417">
                  <path id="Trazado_149957" data-name="Trazado 149957" d="M180.834,281.471a.753.753,0,0,1-.333.011,3.135,3.135,0,0,0-1.867.286.773.773,0,1,1-.743-1.355,4.792,4.792,0,0,1,2.888-.451.774.774,0,0,1,.055,1.509Z" transform="translate(-177.487 -279.897)" fill="#a86060"/>
                  <path id="Trazado_149958" data-name="Trazado 149958" d="M179.268,281.8c.022.636-.206,1.162-.507,1.173s-.564-.5-.581-1.14.209-1.162.509-1.173S179.249,281.165,179.268,281.8Z" transform="translate(-176.274 -278.564)" fill="#a86060"/>
                </g>
              </g>
            </g>
            <path id="Trazado_149959" data-name="Trazado 149959" d="M178.275,284.779a.212.212,0,0,1-.14-.052.215.215,0,0,1-.028-.306,2.338,2.338,0,0,1,2.4-.614.216.216,0,0,1,.157.264.21.21,0,0,1-.264.154,1.984,1.984,0,0,0-1.955.474A.213.213,0,0,1,178.275,284.779Z" transform="translate(-154.003 -257.284)" fill="#894c4c"/>
          </g>
          <path id="Trazado_149960" data-name="Trazado 149960" d="M156.014,317.838v7.214l11.5.9.677-8.34Z" transform="translate(-144.217 -197.849)" fill="#7a8ecb"/>
          <path id="Trazado_149961" data-name="Trazado 149961" d="M189.505,383.679l27.323-7.728c1.919-.545,3.015-2.04,2.456-3.348s-2.624-2.233-4.617-2.255c-4.009-.044-10.487-.647-14.881-3.72l-15.553,6.536a29.566,29.566,0,0,0,.509,8.147C185.2,383.249,187.589,384.224,189.505,383.679Z" transform="translate(-94.892 -111.915)" fill="#1d272b"/>
          <path id="Trazado_149962" data-name="Trazado 149962" d="M155.005,378.412l27.515,7.012c1.933.493,3.634-.251,3.808-1.666s-1.154-3.246-2.869-4.265c-3.444-2.048-8.747-5.817-11.007-10.68l-16.739-2.145a29.62,29.62,0,0,0-3.64,7.3C151.495,375.882,153.073,377.92,155.005,378.412Z" transform="translate(-151.338 -111.841)" fill="#1d272b"/>
          <path id="Trazado_149963" data-name="Trazado 149963" d="M195.312,325.555l-10.823,41.474s-32.16,60.416-32.76,73.94c0,0,4.207,6.01,24.344.9l23.744-63.117,18.636-44.183Z" transform="translate(-151.729 -183.924)" fill="#1d272b"/>
          <path id="Trazado_149964" data-name="Trazado 149964" d="M165.922,339.064l27.5,64.92,21.189,61.762s14.43-.452,20.743-8.565L212.355,389.1l-16.679-53.2,1.352-20.286Z" transform="translate(-126.846 -201.342)" fill="#1d272b"/>
          <path id="Trazado_149965" data-name="Trazado 149965" d="M171.952,289.2c.006-.127,8.425,4.017,8.953,4.405a30.078,30.078,0,0,1,10.019,12.351,20.466,20.466,0,0,1,1.385,8.1q-.095,5.129-.193,10.261-.2,10.382-.4,20.762c-.052,2.69-.1,5.371-.157,8.061-.074,4.011-2.219,5.283-5.556,7.3q-3.279,1.978-6.564,3.959-4.2,2.532-8.392,5.06S171.952,289.277,171.952,289.2Z" transform="translate(-117.852 -247.661)" fill="url(#linear-gradient)"/>
          <path id="Trazado_149966" data-name="Trazado 149966" d="M198.924,305.195a19.543,19.543,0,0,0-4.16-8.788c-3.667-4.556-9.526-8.29-15.6-7.326,0,0-18.333,3.907-15.327,34.866,0,0,5.531,41.471.653,62.886,3.141.609,26.918,4.218,34.211-24.118q.112-5.5.228-11,.227-10.7.449-21.412c.055-2.706.2-5.432.151-8.136-.05-2.883-.069-5.776-.047-8.664A41.132,41.132,0,0,0,198.924,305.195Z" transform="translate(-131.08 -248.139)" fill="#1d272b"/>
          <path id="Trazado_149967" data-name="Trazado 149967" d="M187.612,291.167q-6.327,8.206-12.659,16.417c-4.606,5.977-10.181,11.31-13.821,17.989-2.839,5.217-2.982,10.426-3.458,16.191-.14,1.726-2.136,25.134-2.068,25.142l13.524,1.352,4.055-32.912L200.238,310.1S204.745,292.97,187.612,291.167Z" transform="translate(-144.935 -244.213)" fill="#1d272b"/>
          <path id="Trazado_149968" data-name="Trazado 149968" d="M165.007,316.57a.452.452,0,0,1-.317-.774l17.433-17.133a.452.452,0,0,1,.633.644l-17.436,17.133A.446.446,0,0,1,165.007,316.57Z" transform="translate(-129.24 -231.294)" fill="#fff"/>
          <path id="Trazado_149969" data-name="Trazado 149969" d="M169.8,289.419s10.291,4.543,13.672,8.488l2.255-6.762-15.927-4.21Z" transform="translate(-120.052 -251.63)" fill="url(#linear-gradient)"/>
          <path id="Trazado_149970" data-name="Trazado 149970" d="M189.568,302.545a28.369,28.369,0,0,0-3.169-5.432,22.987,22.987,0,0,0-10.228-7.72c-.328-.135-5.7-1.784-5.7-1.745-.008.779-.022,1.558-.033,2.34-.011.939.278,2.2-.091,3.086-.33.8-1.275,1.4-1.724,2.2-1.311,2.34,2.31,3.345,3.742,4.039q3.593,1.751,7.178,3.494,2.932,1.433,5.875,2.844c1.09.531,2.139,1.137,3.21,1.7a3.058,3.058,0,0,1,1.465,2.23c.124.5.138,1.349.542,1.674A19.54,19.54,0,0,0,189.568,302.545Z" transform="translate(-122.605 -250.384)" fill="#1d272b"/>
          <path id="Trazado_149971" data-name="Trazado 149971" d="M183.76,366.722a.451.451,0,0,1-.413-.275L166.666,327a.451.451,0,0,1,.831-.35L184.176,366.1a.45.45,0,0,1-.237.589A.52.52,0,0,1,183.76,366.722Z" transform="translate(-125.604 -182.488)" fill="#fff"/>
        </g>
        <path id="Trazado_149972" data-name="Trazado 149972" d="M188.288,298.859c.328.245.7.248,1.1-.184.73-.774-.383-2.607-.413-3.472-.069-1.864-.372-4.884,1.377-6.162,1.955-1.426,5.4-.25,7.646-.664,7.348-1.357,8.494-12.191,2.734-16.4-.049.854-.014,1.762-.085,2.624-.074-.129-.716-1.316-.628-1.107,0,.358-.022-.325-.041-.44-2.417,2.632-9.515,1.619-12.816,1.327-5.41-.482-6.473,1.968-9.292,5.925-1.032,1.451-.383.68-1.969,1.3a10.251,10.251,0,0,0-2.533.842,5.412,5.412,0,0,0-2.249,3.888c-.741,3.761,2.04,7.593-.127,11.1-1.176,1.908-3.015,3-3.656,5.355-.655,2.409.595,5.661,3.629,4.6-1.195,2.225,1.134,1.294,2.244,1.666,1.192.394,1.423,1.545,3.106.534.08.35.394.655.474.9.328-.4,1.184-.738,1.533-1.132a1.194,1.194,0,0,0,.275.4c.611.589,6.131-7.852,6.181-8.992.039-.834-.845-1.977-1.176-2.706a8.814,8.814,0,0,1-1.021-3.466,1.552,1.552,0,0,1,2.428-1.426,4.1,4.1,0,0,1,1.608,2.211C186.848,295.888,187.424,298.218,188.288,298.859Z" transform="translate(-124.659 -271.977)" fill="#12263f"/>
        <g id="Grupo_106421" data-name="Grupo 106421" transform="translate(59.271 23.319)">
          <path id="Trazado_149973" data-name="Trazado 149973" d="M175.456,283.8a.273.273,0,0,1-.264-.2c-.173-.672-.82-2.45-1.713-2.61a.271.271,0,0,1,.1-.534c1.388.251,2.068,2.728,2.142,3.009a.267.267,0,0,1-.193.328A.212.212,0,0,1,175.456,283.8Z" transform="translate(-173.256 -280.447)" fill="#894c4c"/>
          <path id="Trazado_149974" data-name="Trazado 149974" d="M174.923,281.5h-1.4a.271.271,0,0,1,0-.542h1.4a.271.271,0,0,1,0,.542Z" transform="translate(-173.257 -279.554)" fill="#894c4c"/>
        </g>
      </g>
      <g id="Grupo_106429" data-name="Grupo 106429" transform="translate(265.749 2.44)">
        <g id="Grupo_106427" data-name="Grupo 106427" transform="translate(0 3.44)">
          <path id="Trazado_149975" data-name="Trazado 149975" d="M252.224,289.529s16.227,4.51,12.172,40.8l-1.806,49.59-6.539,2.481-5.859-85.437Z" transform="translate(-188.347 -247.084)" fill="#1d272b"/>
          <path id="Trazado_149976" data-name="Trazado 149976" d="M244.143,321.458c1.388.774,1.225,3.095,1.718,4.5a9.457,9.457,0,0,0,2.591,4.061c-1.189,1.255-3.656.184-4.906-.617-.5,2.643-.887,6.437-2.448,8.755-2.83,4.2-2.984-.917-2.734-3.362.061,1.577-.9,5.093-2.145,5.958-1.388-1.066-.647-4.719-.2-6.17-.047,1.03-1.22,5.132-2.58,4.873-1.679-.322-.842-4.738-.413-5.729a4.865,4.865,0,0,1-.867,3.381c-1.024-.969-.531-5.4-.441-6.919a30.183,30.183,0,0,1,1.663-8.315c1.107-2.913,2.783-1.737,5.41-1.481,1.9.185,4.424-.19,5.779,1.28Z" transform="translate(-221.083 -193.769)" fill="#ff8f67"/>
          <g id="haed-2" data-name="haed" transform="translate(48.436)">
            <g id="Grupo_106426" data-name="Grupo 106426">
              <g id="Grupo_106423" data-name="Grupo 106423">
                <path id="Trazado_149977" data-name="Trazado 149977" d="M246.022,292.343c-1.06-4.24-1.181-9.427,1.523-13.119,4.254-5.815,15.195-6.977,20.3-1.883,3.384,3.373,4.328,7.373,4.2,12.095-.077,2.682.3,5.314,2.368,7.263.248.24.553.567.4.884-.129.295-.526.311-.837.391-1,.251-1.451,1.388-1.6,2.4a41.83,41.83,0,0,1-1.308,7.216,2.3,2.3,0,0,1-.925,1.3,2.74,2.74,0,0,1-1.641.168c-1.875-.212-3.725-.523-5.575-.917a1.176,1.176,0,0,0-.322.2,2.789,2.789,0,0,0-.567,1.355q-1.272,5.633-2.541,11.274a66.071,66.071,0,0,0-13.248-8.122,17.36,17.36,0,0,0,2.643-13.034A32.771,32.771,0,0,1,246.022,292.343Z" transform="translate(-245.322 -274.113)" fill="#ff8f67"/>
                <path id="Trazado_149978" data-name="Trazado 149978" d="M257.732,291.717a.261.261,0,0,1-.091-.017c-.264-.094-6.522-2.354-8.061-7.469a.27.27,0,0,1,.518-.157c1.462,4.851,7.662,7.092,7.725,7.114a.272.272,0,0,1-.091.529Z" transform="translate(-237.877 -256.984)" fill="#894c4c"/>
              </g>
              <g id="Grupo_106425" data-name="Grupo 106425" transform="translate(22.488 15.927)">
                <g id="Grupo_106424" data-name="Grupo 106424">
                  <path id="Trazado_149979" data-name="Trazado 149979" d="M256.836,281.471a.754.754,0,0,1-.333.011,3.135,3.135,0,0,0-1.867.286.772.772,0,1,1-.741-1.355,4.768,4.768,0,0,1,2.885-.451.775.775,0,0,1,.055,1.509Z" transform="translate(-253.49 -279.897)" fill="#a86060"/>
                  <path id="Trazado_149980" data-name="Trazado 149980" d="M255.272,281.8c.025.636-.2,1.162-.509,1.173s-.559-.5-.581-1.14.212-1.162.509-1.173S255.253,281.165,255.272,281.8Z" transform="translate(-252.278 -278.564)" fill="#a86060"/>
                </g>
              </g>
            </g>
            <path id="Trazado_149981" data-name="Trazado 149981" d="M254.278,284.78a.207.207,0,0,1-.14-.052.218.218,0,0,1-.028-.306,2.307,2.307,0,0,1,2.4-.614.218.218,0,0,1,.157.264.207.207,0,0,1-.264.154,1.956,1.956,0,0,0-1.955.474A.213.213,0,0,1,254.278,284.78Z" transform="translate(-230.002 -257.286)" fill="#894c4c"/>
          </g>
          <path id="Trazado_149982" data-name="Trazado 149982" d="M232.016,317.838v7.214l11.5.9.678-8.34Z" transform="translate(-220.214 -197.849)" fill="#7a8ecb"/>
          <path id="Trazado_149983" data-name="Trazado 149983" d="M265.509,383.679l27.317-7.728c1.922-.545,3.02-2.04,2.461-3.348s-2.627-2.233-4.62-2.255c-4.009-.044-10.487-.647-14.878-3.72l-15.553,6.536a29.5,29.5,0,0,0,.507,8.147C261.2,383.249,263.59,384.224,265.509,383.679Z" transform="translate(-170.887 -111.915)" fill="#1d272b"/>
          <path id="Trazado_149984" data-name="Trazado 149984" d="M231,378.412l27.518,7.012c1.93.493,3.634-.251,3.8-1.666s-1.148-3.246-2.863-4.265c-3.441-2.048-8.747-5.817-11.01-10.68l-16.737-2.145a29.617,29.617,0,0,0-3.64,7.3C227.5,375.882,229.074,377.92,231,378.412Z" transform="translate(-227.334 -111.841)" fill="#1d272b"/>
          <path id="Trazado_149985" data-name="Trazado 149985" d="M271.315,325.555l-10.82,41.474s-32.16,60.416-32.766,73.94c0,0,4.215,6.01,24.346.9l23.749-63.117,18.631-44.183Z" transform="translate(-227.729 -183.924)" fill="#1d272b"/>
          <path id="Trazado_149986" data-name="Trazado 149986" d="M241.924,339.064l27.5,64.92,21.189,61.762s14.43-.452,20.74-8.565L288.357,389.1l-16.682-53.2,1.355-20.286Z" transform="translate(-202.843 -201.342)" fill="#1d272b"/>
          <path id="Trazado_149987" data-name="Trazado 149987" d="M247.957,289.2c0-.127,8.416,4.017,8.953,4.405a30.048,30.048,0,0,1,10.013,12.351,20.422,20.422,0,0,1,1.388,8.1q-.095,5.129-.2,10.261-.194,10.382-.4,20.762c-.052,2.69-.1,5.371-.149,8.061-.08,4.011-2.225,5.283-5.562,7.3q-3.279,1.978-6.564,3.959-4.2,2.532-8.392,5.06S247.957,289.277,247.957,289.2Z" transform="translate(-193.849 -247.661)" fill="url(#linear-gradient)"/>
          <path id="Trazado_149988" data-name="Trazado 149988" d="M274.926,305.195a19.593,19.593,0,0,0-4.157-8.788c-3.667-4.556-9.529-8.29-15.6-7.326,0,0-18.336,3.907-15.33,34.866,0,0,5.531,41.471.653,62.886,3.141.609,26.918,4.218,34.211-24.118q.112-5.5.231-11,.227-10.7.446-21.412c.055-2.706.2-5.432.151-8.136-.05-2.883-.072-5.776-.05-8.664A40.931,40.931,0,0,0,274.926,305.195Z" transform="translate(-207.076 -248.139)" fill="#1d272b"/>
          <path id="Trazado_149989" data-name="Trazado 149989" d="M263.616,291.167l-12.659,16.417c-4.609,5.977-10.184,11.31-13.821,17.989-2.839,5.217-2.984,10.426-3.455,16.191-.143,1.726-2.139,25.134-2.073,25.142l13.526,1.352,4.056-32.912L276.242,310.1S280.749,292.97,263.616,291.167Z" transform="translate(-220.933 -244.213)" fill="#1d272b"/>
          <path id="Trazado_149990" data-name="Trazado 149990" d="M241.01,316.57a.455.455,0,0,1-.322-.135.449.449,0,0,1,.006-.639l17.433-17.133a.451.451,0,1,1,.63.644l-17.433,17.133A.446.446,0,0,1,241.01,316.57Z" transform="translate(-205.238 -231.294)" fill="#fff"/>
          <path id="Trazado_149991" data-name="Trazado 149991" d="M245.8,289.419s10.291,4.543,13.675,8.488l2.252-6.762-15.927-4.21Z" transform="translate(-196.049 -251.63)" fill="url(#linear-gradient)"/>
          <path id="Trazado_149992" data-name="Trazado 149992" d="M265.57,302.545a28.514,28.514,0,0,0-3.169-5.432,22.986,22.986,0,0,0-10.228-7.72c-.328-.135-5.7-1.784-5.7-1.745q-.017,1.169-.03,2.34c-.014.939.275,2.2-.094,3.086-.33.8-1.277,1.4-1.723,2.2-1.311,2.34,2.313,3.345,3.742,4.039q3.589,1.751,7.178,3.494c1.955.955,3.918,1.9,5.873,2.844,1.093.531,2.142,1.137,3.213,1.7a3.058,3.058,0,0,1,1.465,2.23c.121.5.141,1.349.542,1.674A19.617,19.617,0,0,0,265.57,302.545Z" transform="translate(-198.602 -250.384)" fill="#1d272b"/>
          <path id="Trazado_149993" data-name="Trazado 149993" d="M259.761,366.722a.451.451,0,0,1-.413-.275L242.667,327a.451.451,0,0,1,.831-.35L260.177,366.1a.449.449,0,0,1-.24.589A.492.492,0,0,1,259.761,366.722Z" transform="translate(-201.603 -182.488)" fill="#fff"/>
        </g>
        <path id="Trazado_149994" data-name="Trazado 149994" d="M264.291,297.305c.328.245.7.248,1.1-.184.732-.774-.38-2.607-.408-3.472-.072-1.864-.374-4.884,1.377-6.162,3.521-2.574,8.967.424,11.726,2.627-.041-1.85.19-3.744-.476-5.484a21.145,21.145,0,0,0,1.6,3.246c-.03-.79-.151-1.594-.2-2.337a6.859,6.859,0,0,0,1.046.57c.16-2.742.063-5.082-1.319-7.412-2.547-4.278-8.061-4.925-12.634-5.586-6.349-.92-8.692.675-12.23,5.641-1.03,1.451-.383.68-1.969,1.3a10.389,10.389,0,0,0-2.536.842,5.409,5.409,0,0,0-2.247,3.888c-.741,3.761,2.04,7.593-.129,11.1-1.173,1.908-3.012,3-3.656,5.355-.653,2.409.6,5.661,3.631,4.6-1.195,2.225,1.134,1.294,2.241,1.666,1.195.394,1.426,1.544,3.108.534.085.35.394.655.474.9.328-.4,1.181-.738,1.534-1.132a1.227,1.227,0,0,0,.273.4c.617.589,6.134-7.852,6.184-8.992.039-.834-.842-1.977-1.176-2.706a8.864,8.864,0,0,1-1.024-3.466,1.555,1.555,0,0,1,2.431-1.426,4.135,4.135,0,0,1,1.611,2.211C262.848,294.335,263.429,296.664,264.291,297.305Z" transform="translate(-200.657 -272.863)" fill="#12263f"/>
        <g id="Grupo_106428" data-name="Grupo 106428" transform="translate(59.276 20.879)">
          <path id="Trazado_149995" data-name="Trazado 149995" d="M251.461,283.8a.273.273,0,0,1-.264-.2c-.176-.672-.826-2.45-1.715-2.61a.271.271,0,0,1,.1-.534c1.385.251,2.07,2.728,2.145,3.009a.269.269,0,0,1-.2.328A.186.186,0,0,1,251.461,283.8Z" transform="translate(-249.258 -280.447)" fill="#894c4c"/>
          <path id="Trazado_149996" data-name="Trazado 149996" d="M250.925,281.5h-1.4a.271.271,0,0,1,0-.542h1.4a.271.271,0,0,1,0,.542Z" transform="translate(-249.259 -279.554)" fill="#894c4c"/>
        </g>
      </g>
      <g id="cascet" transform="translate(23.747 72.561)">
        <path id="Trazado_149997" data-name="Trazado 149997" d="M167.13,304.361c0-3.571,3.224-6.261,7.2-6.013l124.761,7.813c3.978.253,7.2,2.6,7.2,5.261v4.81L167.13,310.82Z" transform="translate(-91.968 -298.332)" fill="#272015"/>
        <path id="Trazado_149998" data-name="Trazado 149998" d="M151.464,309.532a8.6,8.6,0,0,1,9.008-8.659l298.919,11.9a9.466,9.466,0,0,1,9.008,9.38v10.366l-316.936-4.956Z" transform="translate(-119.434 -293.889)" fill="#443b2c"/>
        <rect id="Rectángulo_33893" data-name="Rectángulo 33893" width="363.375" height="71.685" transform="translate(7.211 45.943)" fill="#443b2c"/>
        <rect id="Rectángulo_33894" data-name="Rectángulo 33894" width="362.924" height="22.994" transform="translate(7.211 25.203)" fill="#443b2c"/>
        <rect id="Rectángulo_33895" data-name="Rectángulo 33895" width="363.375" height="3.915" transform="translate(7.211 45.943)" fill="#272015"/>
        <rect id="Rectángulo_33896" data-name="Rectángulo 33896" width="363.375" height="3.909" transform="translate(7.211 24.305)" fill="#272015"/>
        <rect id="Rectángulo_33897" data-name="Rectángulo 33897" width="58.156" height="13.976" rx="1.965" transform="translate(0 34.221)" fill="#1a150e"/>
        <rect id="Rectángulo_33898" data-name="Rectángulo 33898" width="58.156" height="13.976" rx="1.965" transform="translate(319.193 34.221)" fill="#1a150e"/>
        <rect id="Rectángulo_33899" data-name="Rectángulo 33899" width="356.613" height="6.313" transform="translate(12.621 111.316)" fill="#272015"/>
        <rect id="Rectángulo_33900" data-name="Rectángulo 33900" width="58.159" height="13.975" rx="1.965" transform="translate(2.253 108.611)" fill="#1a150e"/>
        <path id="Rectángulo_33901" data-name="Rectángulo 33901" d="M1.965,0H56.194a1.965,1.965,0,0,1,1.965,1.965V12.011a1.965,1.965,0,0,1-1.965,1.965H1.966A1.966,1.966,0,0,1,0,12.01V1.965A1.965,1.965,0,0,1,1.965,0Z" transform="translate(315.437 108.611)" fill="#1a150e"/>
      </g>
      <g id="Grupo_106435" data-name="Grupo 106435" transform="translate(0 5.074)">
        <path id="Trazado_149999" data-name="Trazado 149999" d="M179.363,321.943a6.59,6.59,0,0,1,.567,5.107c-.237,1.2-.022,4.6-1.162,4.964-1.949.619-2.8-2.522-3.125-3.761-.482-1.847-.523-3.827-2.731-4.386,1.178-1.608,6.024-4.35,6.6-1.024Z" transform="translate(-58.085 -190.627)" fill="#ff8f67"/>
        <g id="Grupo_106430" data-name="Grupo 106430" transform="translate(96.781 134.02)">
          <path id="Trazado_150000" data-name="Trazado 150000" d="M190.768,327.079c0,2.522-2.434,4.584-5.41,4.584H174.387c-2.976,0-5.41-2.062-5.41-4.584s2.434-4.581,5.41-4.581h10.971C188.335,322.5,190.768,324.557,190.768,327.079Z" transform="translate(-161.765 -322.498)" fill="#272015"/>
          <path id="Trazado_150001" data-name="Trazado 150001" d="M170.4,333.821h-3.607v-4.656a5.419,5.419,0,0,1,5.413-5.413H195.5a5.416,5.416,0,0,1,5.407,5.413v4.355H197.3v-4.355a1.8,1.8,0,0,0-1.8-1.8H172.207a1.8,1.8,0,0,0-1.806,1.8Z" transform="translate(-165.592 -320.298)" fill="#272015"/>
          <ellipse id="Elipse_4246" data-name="Elipse 4246" cx="3.157" cy="3.157" rx="3.157" ry="3.157" transform="translate(0 11.569)" fill="#ffd56c"/>
          <path id="Trazado_150002" data-name="Trazado 150002" d="M177.384,329.858a3.155,3.155,0,1,1,3.152,3.155A3.155,3.155,0,0,1,177.384,329.858Z" transform="translate(-147.026 -315.131)" fill="#ffd56c"/>
        </g>
        <path id="Trazado_150003" data-name="Trazado 150003" d="M155.7,289.966s16.23,4.507,12.169,40.8l-1.8,49.59-6.539,2.481-5.859-85.431Z" transform="translate(-91.825 -245.513)" fill="#1d272b"/>
        <path id="Trazado_150004" data-name="Trazado 150004" d="M169.06,323.057c1.743,3.086.719,6.682,3.208,9.419.542.595,2.987,4.02,3.318,4.116,2.877.865,1.214-3.265,1.187-4.116-.143-4.7,5.738-1.616,8.518-2.874,3.194-1.454-1.864-6.6-3.772-8.18-2.1-1.732-4.419-4.144-6.875-2.7-1.721,1.01-4.13,4.95-5.583,5.016Z" transform="translate(-64.838 -195.876)" fill="#ff8f67"/>
        <path id="Trazado_150005" data-name="Trazado 150005" d="M147.619,321.9c1.388.774,1.222,3.1,1.715,4.493a9.473,9.473,0,0,0,2.593,4.061c-1.189,1.255-3.659.184-4.909-.611-.5,2.64-.881,6.429-2.442,8.75-2.836,4.2-2.987-.917-2.739-3.356.063,1.575-.9,5.085-2.142,5.952-1.39-1.066-.647-4.716-.2-6.17-.047,1.03-1.22,5.138-2.58,4.873-1.677-.319-.837-4.738-.413-5.727a4.816,4.816,0,0,1-.864,3.378c-1.024-.966-.534-5.4-.443-6.916a30.23,30.23,0,0,1,1.668-8.315c1.1-2.913,2.781-1.737,5.41-1.484,1.9.187,4.419-.187,5.773,1.286Z" transform="translate(-124.561 -192.198)" fill="#ff8f67"/>
        <g id="haed-3" data-name="haed" transform="translate(46.041)">
          <g id="Grupo_106434" data-name="Grupo 106434">
            <g id="Grupo_106431" data-name="Grupo 106431">
              <path id="Trazado_150006" data-name="Trazado 150006" d="M149.5,292.778c-1.06-4.237-1.184-9.424,1.523-13.119,4.254-5.812,15.195-6.977,20.308-1.88,3.384,3.37,4.325,7.373,4.2,12.095-.08,2.682.292,5.314,2.362,7.266.251.237.553.562.41.876s-.531.314-.84.4c-.994.251-1.451,1.388-1.6,2.4a41.33,41.33,0,0,1-1.311,7.213,2.284,2.284,0,0,1-.922,1.3,2.7,2.7,0,0,1-1.641.165c-1.872-.209-3.728-.52-5.575-.914a1.137,1.137,0,0,0-.322.2,2.748,2.748,0,0,0-.567,1.357q-1.276,5.633-2.544,11.272a66.032,66.032,0,0,0-13.243-8.122,17.378,17.378,0,0,0,2.64-13.034A32.742,32.742,0,0,1,149.5,292.778Z" transform="translate(-146.405 -272.542)" fill="#ff8f67"/>
              <path id="Trazado_150007" data-name="Trazado 150007" d="M176.308,283.946a5.848,5.848,0,0,0,4.334-4.044,8.928,8.928,0,0,0-.465-6.082,7.531,7.531,0,0,1-6.66,2.629,1.622,1.622,0,0,0,1.922-1.222,6.521,6.521,0,0,1-2.28.771c.256-.2.509-.413.768-.614-4.284.928-8.719-1.074-13.072-.592a11.5,11.5,0,0,0-6.756,3.329,12.424,12.424,0,0,0-2.271,3.081c-.49.955-.548,2.4-1.087,3.249-.564.889-1.624,1.3-2.156,2.335a6.96,6.96,0,0,0-.65,2.938,14.084,14.084,0,0,0,1.349,6.057c1.473,3.334,3.6,6.586,3.6,10.231.655-.9,2.635-.457,3.8-1.021.319-.151,3.315-2.183,3.1-2.431a3.62,3.62,0,0,1,.27.344c.286-.2,2.277-2.153,1.924-2.566a1.24,1.24,0,0,1,.262,1.027,7.073,7.073,0,0,0,2.549-2.687,2.035,2.035,0,0,0,.289-.933,2.485,2.485,0,0,0-.361-1.085,7.3,7.3,0,0,1-.933-3.73,2.141,2.141,0,0,1,.418-1.217,1.907,1.907,0,0,1,2.792.292,5.538,5.538,0,0,1,.917,3.023,10.033,10.033,0,0,1,3.678-6.55c1.922-1.423,3.062-2.918,2.238-5.443a2.338,2.338,0,0,0,2.976,1.22,4.779,4.779,0,0,0,2.481-2.461Z" transform="translate(-147.928 -273.82)" fill="#12263f"/>
              <path id="Trazado_150008" data-name="Trazado 150008" d="M161.206,292.15a.265.265,0,0,1-.091-.017c-.264-.094-6.52-2.351-8.061-7.467a.271.271,0,0,1,.52-.154c1.462,4.851,7.659,7.089,7.723,7.111a.272.272,0,0,1,.165.347A.275.275,0,0,1,161.206,292.15Z" transform="translate(-138.96 -255.411)" fill="#894c4c"/>
              <path id="Trazado_150009" data-name="Trazado 150009" d="M156.258,283.957a.27.27,0,0,1-.262-.2c-.173-.672-.823-2.453-1.712-2.607a.271.271,0,0,1,.094-.534c1.39.242,2.07,2.726,2.145,3.006a.267.267,0,0,1-.2.328A.191.191,0,0,1,156.258,283.957Z" transform="translate(-137.173 -261.918)" fill="#894c4c"/>
              <path id="Trazado_150010" data-name="Trazado 150010" d="M155.728,281.66h-1.4a.271.271,0,0,1,0-.542h1.4a.271.271,0,0,1,0,.542Z" transform="translate(-137.174 -261.025)" fill="#894c4c"/>
            </g>
            <g id="Grupo_106433" data-name="Grupo 106433" transform="translate(24.88 17.933)">
              <g id="Grupo_106432" data-name="Grupo 106432">
                <path id="Trazado_150011" data-name="Trazado 150011" d="M160.311,281.9a.649.649,0,0,1-.333.014,3.167,3.167,0,0,0-1.867.289.773.773,0,0,1-.746-1.355,4.818,4.818,0,0,1,2.888-.454.774.774,0,0,1,.622.9A.765.765,0,0,1,160.311,281.9Z" transform="translate(-156.965 -280.334)" fill="#a86060"/>
                <path id="Trazado_150012" data-name="Trazado 150012" d="M158.75,282.23c.019.636-.209,1.167-.512,1.173s-.562-.5-.581-1.134.209-1.165.512-1.173S158.728,281.595,158.75,282.23Z" transform="translate(-155.753 -278.997)" fill="#a86060"/>
              </g>
            </g>
          </g>
          <path id="Trazado_150013" data-name="Trazado 150013" d="M157.75,285.214a.243.243,0,0,1-.14-.05.221.221,0,0,1-.025-.308,2.348,2.348,0,0,1,2.4-.611.216.216,0,1,1-.11.418,1.926,1.926,0,0,0-1.952.474A.224.224,0,0,1,157.75,285.214Z" transform="translate(-131.088 -255.711)" fill="#894c4c"/>
        </g>
        <path id="Trazado_150014" data-name="Trazado 150014" d="M167.422,323.644l4.057,5.412,9.467-7.214-4.28-6.087Z" transform="translate(-67.71 -200.298)" fill="url(#linear-gradient-5)"/>
        <path id="Trazado_150015" data-name="Trazado 150015" d="M135.49,318.275v7.211l11.5.9.677-8.34Z" transform="translate(-123.692 -196.279)" fill="url(#linear-gradient)"/>
        <path id="Trazado_150016" data-name="Trazado 150016" d="M160.412,296.516l19.837,33.361L196.93,352.2l-11.873,8.94-27.65-41.776Z" transform="translate(-85.269 -234.03)" fill="#1d272b"/>
        <path id="Trazado_150017" data-name="Trazado 150017" d="M168.983,384.116l27.323-7.728c1.916-.542,3.018-2.043,2.456-3.351s-2.624-2.23-4.617-2.252c-4.009-.044-10.49-.644-14.881-3.72L163.708,373.6a29.586,29.586,0,0,0,.512,8.141C164.677,383.686,167.067,384.658,168.983,384.116Z" transform="translate(-74.367 -110.344)" fill="#1d272b"/>
        <path id="Trazado_150018" data-name="Trazado 150018" d="M134.485,378.851l27.51,7.012c1.933.493,3.637-.256,3.808-1.666s-1.154-3.246-2.866-4.262c-3.444-2.048-8.75-5.826-11.01-10.685l-16.737-2.145a29.6,29.6,0,0,0-3.64,7.307C130.972,376.315,132.552,378.358,134.485,378.851Z" transform="translate(-130.812 -110.272)" fill="#1d272b"/>
        <path id="Trazado_150019" data-name="Trazado 150019" d="M174.788,325.99l-10.82,41.482s-32.16,60.408-32.763,73.934c0,0,4.207,6.01,24.346.9l23.743-63.114,18.636-44.183Z" transform="translate(-131.205 -182.356)" fill="#1d272b"/>
        <path id="Trazado_150020" data-name="Trazado 150020" d="M145.4,339.5l27.5,64.918,21.186,61.765s14.427-.449,20.74-8.562l-22.992-68.078-16.682-53.2,1.352-20.285Z" transform="translate(-106.322 -199.77)" fill="#1d272b"/>
        <path id="Trazado_150021" data-name="Trazado 150021" d="M151.429,289.641c0-.129,8.422,4.017,8.951,4.4a30.148,30.148,0,0,1,7.059,7.109,30.789,30.789,0,0,1,2.962,5.25,20.325,20.325,0,0,1,1.385,8.092q-.1,5.129-.193,10.267-.2,10.378-.4,20.759c-.047,2.684-.1,5.374-.154,8.056-.077,4.011-2.216,5.286-5.556,7.3q-3.283,1.974-6.566,3.956-4.2,2.527-8.389,5.06S151.429,289.712,151.429,289.641Z" transform="translate(-97.326 -246.088)" fill="url(#linear-gradient)"/>
        <path id="Trazado_150022" data-name="Trazado 150022" d="M178.4,305.63a19.634,19.634,0,0,0-4.157-8.788c-3.667-4.554-9.529-8.293-15.6-7.323,0,0-18.333,3.907-15.327,34.866,0,0,5.528,41.471.653,62.888,3.139.608,26.918,4.212,34.211-24.118q.111-5.5.231-11,.223-10.709.446-21.409c.052-2.712.2-5.432.149-8.144-.047-2.874-.066-5.771-.044-8.661A41.374,41.374,0,0,0,178.4,305.63Z" transform="translate(-110.554 -246.568)" fill="#1d272b"/>
        <path id="Trazado_150023" data-name="Trazado 150023" d="M167.091,291.6q-6.327,8.21-12.659,16.417c-4.609,5.974-10.184,11.313-13.821,17.992-2.839,5.215-2.982,10.426-3.455,16.189-.146,1.729-2.139,25.137-2.073,25.142l13.526,1.352,4.055-32.912,27.053-25.247S184.224,293.406,167.091,291.6Z" transform="translate(-124.411 -242.643)" fill="#1d272b"/>
        <path id="Trazado_150024" data-name="Trazado 150024" d="M144.484,317.005a.445.445,0,0,1-.319-.132.453.453,0,0,1,.005-.642L161.6,299.1a.449.449,0,0,1,.636.005.454.454,0,0,1-.005.639L144.8,316.879A.45.45,0,0,1,144.484,317.005Z" transform="translate(-108.714 -229.724)" fill="#fff"/>
        <path id="Trazado_150025" data-name="Trazado 150025" d="M149.273,289.851s10.294,4.548,13.675,8.491l2.255-6.762-15.93-4.207Z" transform="translate(-99.528 -250.059)" fill="url(#linear-gradient)"/>
        <path id="Trazado_150026" data-name="Trazado 150026" d="M169.043,302.983a28.334,28.334,0,0,0-3.166-5.429,22.946,22.946,0,0,0-10.228-7.72c-.328-.135-5.7-1.784-5.7-1.751-.008.782-.022,1.564-.033,2.346-.014.933.278,2.2-.088,3.086-.333.8-1.275,1.4-1.726,2.194-1.313,2.337,2.313,3.342,3.742,4.039q3.589,1.747,7.178,3.5,2.932,1.425,5.875,2.844c1.088.529,2.139,1.129,3.208,1.7a3.041,3.041,0,0,1,1.467,2.23c.124.5.14,1.346.54,1.674A19.558,19.558,0,0,0,169.043,302.983Z" transform="translate(-102.08 -248.816)" fill="#1d272b"/>
        <path id="Trazado_150027" data-name="Trazado 150027" d="M163.241,367.16a.453.453,0,0,1-.416-.278l-16.682-39.448a.45.45,0,0,1,.829-.35l16.684,39.448a.45.45,0,0,1-.24.589A.441.441,0,0,1,163.241,367.16Z" transform="translate(-105.08 -180.921)" fill="#fff"/>
        <path id="Trazado_150028" data-name="Trazado 150028" d="M169.692,387.165a.449.449,0,0,1-.424-.3l-12.326-33.36a.45.45,0,0,1,.267-.578.458.458,0,0,1,.581.267l12.323,33.36a.448.448,0,0,1-.267.578A.425.425,0,0,1,169.692,387.165Z" transform="translate(-86.132 -135.176)" fill="#fff"/>
        <path id="Trazado_150029" data-name="Trazado 150029" d="M172.618,373.694a.454.454,0,0,1-.427-.308L162.122,343.18a.451.451,0,0,1,.286-.57.444.444,0,0,1,.57.284L173.044,373.1a.447.447,0,0,1-.284.57A.435.435,0,0,1,172.618,373.694Z" transform="translate(-77.041 -153.265)" fill="#fff"/>
      </g>
      <g id="Grupo_106446" data-name="Grupo 106446" transform="translate(301.163 2.981)">
        <path id="Trazado_150030" data-name="Trazado 150030" d="M288.634,316.82c.994,1.41,3.9,1.52,5.46,2.426,2.175,1.261,3.516,2.7,6.225,2.572.132,2.789-3.78,2.161-5.564,2.252-.055,1.624,2.665,4.422,3.747,5.652,1.374,1.58,3.29,2.816,4.309,4.625-2.01,1.154-5.143-1.481-6.712-2.61,1.352,1.407,3.5,2.907,4,4.884-1.737.374-4.835-1.958-6.2-2.927,1.374,1.088,3.653,2.511,3.72,4.507-1.825.408-4.408-1.869-5.476-3.051,1.071.661,2.459,1.561,2.541,2.825-3.362.193-7.213-4.744-8.926-7.227-2.034-2.951-3.114-6.544-4.768-9.642,2.1-1.319,5.44-3.72,7.794-4.21Z" transform="translate(-169.765 -196.34)" fill="#ff8f67"/>
        <path id="Trazado_150031" data-name="Trazado 150031" d="M279.837,325.9l3.154,2.479,9.467-7.663-6.985-5.861Z" transform="translate(-171.788 -199.784)" fill="url(#linear-gradient)"/>
        <g id="Grupo_106444" data-name="Grupo 106444">
          <path id="Trazado_150032" data-name="Trazado 150032" d="M256.608,321.6a6.59,6.59,0,0,0-.3,3.764c.308.964,1.189,1.495,1.7,2.36.625,1.052.586,2.222,1.451,3.2.628.71,3,1.712,1.057,2.244-1.129.311-1.784-.84-2.7-1.2a9.361,9.361,0,0,0-3.772-.306c-2.167.1-5.209.724-7.354.306a8.069,8.069,0,0,0-1.03-.025c-.972-2.153-.319-4.232.314-6.283a41.023,41.023,0,0,0,1.79-8.395c1.531-.08,3.45,1.685,4.791,2.382,1.4.727,3.062.988,4.339,1.845-.061.143-.176.124-.289.259Z" transform="translate(-232.567 -195.559)" fill="#ff8f67"/>
          <path id="Trazado_150033" data-name="Trazado 150033" d="M248.382,315.675l-2.934,5.633,11.274,4.737,3.6-7.668Z" transform="translate(-232.078 -198.347)" fill="url(#linear-gradient)"/>
          <g id="Grupo_106436" data-name="Grupo 106436" transform="translate(0 136.113)">
            <path id="Trazado_150034" data-name="Trazado 150034" d="M265,327.079c0,2.522-2.434,4.584-5.41,4.584H248.621c-2.973,0-5.41-2.062-5.41-4.584s2.437-4.581,5.41-4.581H259.59C262.566,322.5,265,324.557,265,327.079Z" transform="translate(-236 -322.498)" fill="#272015"/>
            <path id="Trazado_150035" data-name="Trazado 150035" d="M244.632,333.821h-3.6v-4.656a5.416,5.416,0,0,1,5.407-5.413H269.73a5.414,5.414,0,0,1,5.407,5.413v4.355h-3.6v-4.355a1.8,1.8,0,0,0-1.8-1.8H246.435a1.8,1.8,0,0,0-1.8,1.8Z" transform="translate(-239.828 -320.298)" fill="#272015"/>
            <path id="Trazado_150036" data-name="Trazado 150036" d="M240.592,329.858a3.155,3.155,0,1,1,3.155,3.155A3.154,3.154,0,0,1,240.592,329.858Z" transform="translate(-240.592 -315.131)" fill="#ffd56c"/>
            <ellipse id="Elipse_4247" data-name="Elipse 4247" cx="3.157" cy="3.157" rx="3.157" ry="3.157" transform="translate(30.354 11.569)" fill="#ffd56c"/>
          </g>
          <path id="Trazado_150037" data-name="Trazado 150037" d="M285.142,291.85s-22.992,30.654-27.05,39l-12.4,28.4,13.072,6.085L276.8,331.523l17.582-25.7Z" transform="translate(-231.647 -240.117)" fill="#1d272b"/>
          <g id="Grupo_106443" data-name="Grupo 106443" transform="translate(13.824)">
            <g id="Grupo_106442" data-name="Grupo 106442" transform="translate(0 4.1)">
              <path id="Trazado_150038" data-name="Trazado 150038" d="M270.1,289.966s16.23,4.507,12.172,40.8l-1.8,49.59-6.536,2.481-5.862-85.431Z" transform="translate(-206.235 -247.52)" fill="#1d272b"/>
              <g id="haed-4" data-name="haed" transform="translate(48.431)">
                <g id="Grupo_106440" data-name="Grupo 106440">
                  <g id="Grupo_106437" data-name="Grupo 106437">
                    <path id="Trazado_150039" data-name="Trazado 150039" d="M263.9,292.778c-1.054-4.237-1.178-9.424,1.528-13.119,4.254-5.812,15.192-6.977,20.3-1.88,3.381,3.37,4.325,7.373,4.193,12.095-.077,2.682.3,5.314,2.365,7.266.25.237.556.562.41.876s-.526.314-.84.4c-.994.251-1.451,1.388-1.6,2.4a41.842,41.842,0,0,1-1.308,7.213,2.27,2.27,0,0,1-.922,1.3,2.7,2.7,0,0,1-1.641.165c-1.878-.209-3.733-.52-5.575-.914a1.115,1.115,0,0,0-.325.2,2.777,2.777,0,0,0-.57,1.357q-1.272,5.633-2.541,11.272a66.029,66.029,0,0,0-13.243-8.122,17.39,17.39,0,0,0,2.64-13.034A33.14,33.14,0,0,1,263.9,292.778Z" transform="translate(-263.204 -274.549)" fill="#ff8f67"/>
                    <path id="Trazado_150040" data-name="Trazado 150040" d="M275.609,292.15a.266.266,0,0,1-.091-.017c-.264-.094-6.52-2.351-8.056-7.467a.269.269,0,0,1,.179-.336.273.273,0,0,1,.339.182c1.459,4.851,7.657,7.089,7.72,7.111a.271.271,0,0,1-.091.526Z" transform="translate(-255.758 -257.418)" fill="#894c4c"/>
                  </g>
                  <g id="Grupo_106439" data-name="Grupo 106439" transform="translate(22.487 15.926)">
                    <g id="Grupo_106438" data-name="Grupo 106438">
                      <path id="Trazado_150041" data-name="Trazado 150041" d="M274.721,281.9a.661.661,0,0,1-.336.014,3.174,3.174,0,0,0-1.867.289.772.772,0,1,1-.741-1.355,4.781,4.781,0,0,1,2.885-.454.77.77,0,0,1,.617.9A.755.755,0,0,1,274.721,281.9Z" transform="translate(-271.372 -280.334)" fill="#a86060"/>
                      <path id="Trazado_150042" data-name="Trazado 150042" d="M273.154,282.23c.025.636-.207,1.167-.509,1.173s-.559-.5-.581-1.134.212-1.165.509-1.173S273.134,281.595,273.154,282.23Z" transform="translate(-270.16 -278.997)" fill="#a86060"/>
                    </g>
                  </g>
                </g>
                <path id="Trazado_150043" data-name="Trazado 150043" d="M272.157,285.216a.227.227,0,0,1-.138-.05.219.219,0,0,1-.028-.308,2.33,2.33,0,0,1,2.4-.611.216.216,0,1,1-.107.418,1.921,1.921,0,0,0-1.958.474A.224.224,0,0,1,272.157,285.216Z" transform="translate(-247.887 -257.72)" fill="#894c4c"/>
                <g id="Grupo_106441" data-name="Grupo 106441" transform="translate(10.985 18.276)">
                  <path id="Trazado_150044" data-name="Trazado 150044" d="M268.805,282.6a.348.348,0,0,1-.074-.011l-1.341-.383a.274.274,0,0,1-.187-.336.28.28,0,0,1,.336-.184l1.341.38a.272.272,0,0,1-.074.534Z" transform="translate(-267.194 -280.326)" fill="#894c4c"/>
                  <path id="Trazado_150045" data-name="Trazado 150045" d="M268.682,284.961h-.005a.275.275,0,0,1-.264-.278c.016-.7-.116-2.585-.925-2.985a.268.268,0,0,1-.127-.361.276.276,0,0,1,.363-.124c1.264.617,1.236,3.188,1.228,3.483A.271.271,0,0,1,268.682,284.961Z" transform="translate(-266.949 -281.187)" fill="#894c4c"/>
                </g>
              </g>
              <path id="Trazado_150046" data-name="Trazado 150046" d="M283.389,384.116l27.32-7.728c1.922-.542,3.02-2.043,2.461-3.351s-2.629-2.23-4.62-2.252c-4.006-.044-10.487-.644-14.878-3.72L278.117,373.6a29.463,29.463,0,0,0,.512,8.141C279.083,383.686,281.473,384.658,283.389,384.116Z" transform="translate(-188.776 -112.351)" fill="#1d272b"/>
              <path id="Trazado_150047" data-name="Trazado 150047" d="M248.889,378.851l27.515,7.012c1.933.493,3.637-.256,3.8-1.666s-1.151-3.246-2.861-4.262c-3.444-2.048-8.752-5.826-11.013-10.685L249.6,367.106a29.562,29.562,0,0,0-3.642,7.307C245.379,376.315,246.959,378.358,248.889,378.851Z" transform="translate(-245.222 -112.279)" fill="#1d272b"/>
              <path id="Trazado_150048" data-name="Trazado 150048" d="M289.2,325.99l-10.817,41.482s-32.163,60.408-32.766,73.934c0,0,4.207,6.01,24.344.9L293.7,379.193l18.634-44.183Z" transform="translate(-245.613 -184.363)" fill="#1d272b"/>
              <path id="Trazado_150049" data-name="Trazado 150049" d="M259.8,339.5l27.5,64.918L308.5,466.183s14.427-.449,20.737-8.562L306.24,389.542l-16.679-53.2,1.349-20.285Z" transform="translate(-220.732 -201.778)" fill="#1d272b"/>
              <path id="Trazado_150050" data-name="Trazado 150050" d="M265.841,289.641c.005-.129,8.419,4.017,8.953,4.4A30.013,30.013,0,0,1,284.808,306.4a20.381,20.381,0,0,1,1.39,8.092q-.095,5.129-.2,10.267-.2,10.378-.4,20.759c-.052,2.684-.107,5.374-.151,8.056-.083,4.011-2.225,5.286-5.561,7.3q-3.279,1.974-6.566,3.956-4.2,2.527-8.392,5.06S265.841,289.712,265.841,289.641Z" transform="translate(-211.738 -248.095)" fill="url(#linear-gradient)"/>
              <path id="Trazado_150051" data-name="Trazado 150051" d="M292.8,305.63a19.547,19.547,0,0,0-4.157-8.788c-3.664-4.554-9.526-8.293-15.594-7.323,0,0-18.336,3.907-15.324,34.866,0,0,5.523,41.471.647,62.888,3.144.608,26.915,4.212,34.214-24.118q.112-5.5.228-11,.223-10.709.443-21.409c.058-2.712.2-5.432.151-8.144-.047-2.874-.066-5.771-.044-8.661A41.169,41.169,0,0,0,292.8,305.63Z" transform="translate(-224.961 -248.575)" fill="#1d272b"/>
              <path id="Trazado_150052" data-name="Trazado 150052" d="M263.68,289.851s10.3,4.548,13.675,8.491l2.258-6.762-15.933-4.207Z" transform="translate(-213.938 -252.066)" fill="url(#linear-gradient)"/>
              <path id="Trazado_150053" data-name="Trazado 150053" d="M283.452,302.983a28.647,28.647,0,0,0-3.172-5.429,22.923,22.923,0,0,0-10.225-7.72c-.325-.135-5.7-1.784-5.7-1.751l-.033,2.346c-.014.933.278,2.2-.091,3.086-.328.8-1.275,1.4-1.724,2.194-1.31,2.337,2.313,3.342,3.739,4.039q3.593,1.747,7.183,3.5,2.932,1.425,5.872,2.844c1.088.529,2.139,1.129,3.213,1.7a3.05,3.05,0,0,1,1.462,2.23c.124.5.14,1.346.542,1.674A19.635,19.635,0,0,0,283.452,302.983Z" transform="translate(-216.489 -250.823)" fill="#1d272b"/>
              <path id="Trazado_150054" data-name="Trazado 150054" d="M277.644,367.16a.453.453,0,0,1-.416-.278L260.55,327.435a.451.451,0,0,1,.831-.35l16.679,39.448a.45.45,0,0,1-.239.589A.441.441,0,0,1,277.644,367.16Z" transform="translate(-219.488 -182.928)" fill="#fff"/>
            </g>
            <path id="Trazado_150055" data-name="Trazado 150055" d="M260.2,338.13a.452.452,0,0,1-.451-.451,99.191,99.191,0,0,0-1.283-13.405c-1.528-10.958-3.111-22.29,3.169-31.411a.451.451,0,1,1,.743.512c-6.082,8.832-4.524,19.988-3.02,30.775a99.68,99.68,0,0,1,1.291,13.529A.451.451,0,0,1,260.2,338.13Z" transform="translate(-225.489 -238.684)" fill="#fff"/>
            <path id="Trazado_150056" data-name="Trazado 150056" d="M292.728,279.759a15.7,15.7,0,0,0-7.3-5.688c-6.426-2.442-13.559-.245-18.636,4.27a16.99,16.99,0,0,0-4.733,17.07c1.253,3.945,4.009,6.979,4.127,11.216-.022.633.019,1.277.061,1.913a7.752,7.752,0,0,0,1.517-4.4c.606,1.635.171,4.328.292,6.277,1.578-.534,2.954-.8,4.188-2.057a18,18,0,0,0,2.6-3.728,14.6,14.6,0,0,0,1.831-6.814c.094-1.112,1.757-4.537,2.869-2.4.573,1.1-.534,4.254,1.85,3.876-.388-2.024-.545-2.734.551-4.455.564-.884,2.715-3.02,2.582-4.1.058.476.1,3.587-.573,3.714,4.452-.829,10.715-6.327,10.052-11.352A8.109,8.109,0,0,0,292.728,279.759Z" transform="translate(-217.962 -273.06)" fill="#12263f"/>
          </g>
        </g>
        <g id="Grupo_106445" data-name="Grupo 106445" transform="translate(57.127 51.331)">
          <path id="Trazado_150057" data-name="Trazado 150057" d="M280.874,341.8c3.232,4.152,6.85,7.186,11.01,10.649Q302,360.863,312.112,369.27l10.823-12.321L292.875,330.5q-4.386-9.891-8.777-19.779c-2.428-5.476-3.775-11.99-8.061-16.425-4.383-4.535-12.824-3-14.286,3.708A20.065,20.065,0,0,0,263,310.016c4.7,10.1,10.324,21.343,16.946,30.536C280.249,340.981,280.56,341.394,280.874,341.8Z" transform="translate(-261.341 -291.704)" fill="#1d272b"/>
          <path id="Trazado_150058" data-name="Trazado 150058" d="M292.809,339.055a.458.458,0,0,1-.264-.085c-19.713-14.339-29.065-36.639-29.159-36.862a.453.453,0,0,1,.245-.589.446.446,0,0,1,.589.245c.091.22,9.353,22.3,28.853,36.474a.453.453,0,0,1-.264.818Z" transform="translate(-257.817 -274.561)" fill="#fff"/>
        </g>
        <path id="Trazado_150059" data-name="Trazado 150059" d="M257.116,384.061a.456.456,0,0,1-.157-.03.45.45,0,0,1-.267-.578l12.4-33.586a.452.452,0,0,1,.848.311l-12.4,33.586A.455.455,0,0,1,257.116,384.061Z" transform="translate(-212.415 -138.922)" fill="#fff"/>
        <path id="Trazado_150060" data-name="Trazado 150060" d="M253.187,365.465a.43.43,0,0,1-.2-.05.451.451,0,0,1-.206-.6l11.269-22.766a.451.451,0,1,1,.809.4l-11.269,22.769A.456.456,0,0,1,253.187,365.465Z" transform="translate(-219.301 -152.557)" fill="#fff"/>
      </g>
    </g>
  </g>
</svg>
