<svg id="num3" xmlns="http://www.w3.org/2000/svg" xmlns:xlink="http://www.w3.org/1999/xlink" width="105.91" height="105.91" viewBox="0 0 105.91 105.91">
  <defs>
    <radialGradient id="radial-gradient" cx="0.076" cy="0.019" r="1.465" gradientTransform="translate(0.001)" gradientUnits="objectBoundingBox">
      <stop offset="0" stop-color="#f6f6f7"/>
      <stop offset="0.477" stop-color="#f9f9fa"/>
      <stop offset="0.715" stop-color="#fff"/>
    </radialGradient>
  </defs>
  <g id="Grupo_18423" data-name="Grupo 18423" transform="translate(0 0)">
    <g id="Grupo_18421" data-name="Grupo 18421">
      <g id="Grupo_18420" data-name="Grupo 18420">
        <g id="Grupo_18419" data-name="Grupo 18419">
          <path id="Trazado_40936" data-name="Trazado 40936" d="M300.533,2198.675a52.955,52.955,0,1,1-52.954-52.954A52.954,52.954,0,0,1,300.533,2198.675Z" transform="translate(-194.623 -2145.721)" fill="#fff"/>
        </g>
      </g>
    </g>
    <path id="Trazado_40937" data-name="Trazado 40937" d="M300.034,2198.131a52.954,52.954,0,1,0-52.954,52.956A52.746,52.746,0,0,0,300.034,2198.131Z" transform="translate(-194.124 -2145.177)" fill="url(#radial-gradient)"/>
    <path id="Trazado_40938" data-name="Trazado 40938" d="M283.1,2193.749a40.42,40.42,0,1,0-40.42,40.42A40.269,40.269,0,0,0,283.1,2193.749Z" transform="translate(-189.561 -2140.619)" fill="none" stroke="#1d272b" stroke-miterlimit="10" stroke-width="4"/>
    <g id="Grupo_18422" data-name="Grupo 18422" transform="translate(9.382 29.73)">
      <path id="Trazado_40939" data-name="Trazado 40939" d="M291.719,2164.488a52.962,52.962,0,0,1-91.174,52.736,52.793,52.793,0,0,0,91.174-52.736Z" transform="translate(-200.545 -2164.488)" fill="#eceef0"/>
    </g>
  </g>
  <path id="Trazado_160222" data-name="Trazado 160222" d="M7.676-16.719h3.008a4.238,4.238,0,0,0,3.184-1.074A3.936,3.936,0,0,0,14.9-20.645a3.48,3.48,0,0,0-1.025-2.676,3.974,3.974,0,0,0-2.822-.957,4.165,4.165,0,0,0-2.715.889,2.841,2.841,0,0,0-1.094,2.314H1.6a6.942,6.942,0,0,1,1.2-3.994,8,8,0,0,1,3.359-2.764,11.212,11.212,0,0,1,4.756-1,10.633,10.633,0,0,1,7.07,2.158,7.364,7.364,0,0,1,2.559,5.947,5.984,5.984,0,0,1-1.191,3.594,7.74,7.74,0,0,1-3.125,2.52,7.066,7.066,0,0,1,3.584,2.578A6.993,6.993,0,0,1,21-7.969a7.486,7.486,0,0,1-2.764,6.074A11.112,11.112,0,0,1,10.918.391,10.536,10.536,0,0,1,3.955-1.855,7.335,7.335,0,0,1,1.25-7.793H6.895A3.27,3.27,0,0,0,8.1-5.176,4.426,4.426,0,0,0,11.055-4.16a4.447,4.447,0,0,0,3.154-1.064,3.675,3.675,0,0,0,1.143-2.822q0-4.258-4.687-4.258H7.676Z" transform="translate(41.682 68.851)" fill="#12263f"/>
</svg>
