<svg id="icon10" xmlns="http://www.w3.org/2000/svg" xmlns:xlink="http://www.w3.org/1999/xlink" width="105.91" height="105.91" viewBox="0 0 105.91 105.91">
  <defs>
    <radialGradient id="radial-gradient" cx="0.076" cy="0.019" r="1.465" gradientTransform="translate(0.001)" gradientUnits="objectBoundingBox">
      <stop offset="0" stop-color="#f6f6f7"/>
      <stop offset="0.477" stop-color="#f9f9fa"/>
      <stop offset="0.715" stop-color="#fff"/>
    </radialGradient>
  </defs>
  <g id="Grupo_18423" data-name="Grupo 18423" transform="translate(0 0)">
    <g id="Grupo_18421" data-name="Grupo 18421">
      <g id="Grupo_18420" data-name="Grupo 18420">
        <g id="Grupo_18419" data-name="Grupo 18419">
          <path id="Trazado_40936" data-name="Trazado 40936" d="M300.533,2198.675a52.955,52.955,0,1,1-52.954-52.954A52.954,52.954,0,0,1,300.533,2198.675Z" transform="translate(-194.623 -2145.721)" fill="#fff"/>
        </g>
      </g>
    </g>
    <path id="Trazado_40937" data-name="Trazado 40937" d="M300.034,2198.131a52.954,52.954,0,1,0-52.954,52.956A52.746,52.746,0,0,0,300.034,2198.131Z" transform="translate(-194.124 -2145.177)" fill="url(#radial-gradient)"/>
    <path id="Trazado_40938" data-name="Trazado 40938" d="M283.1,2193.749a40.42,40.42,0,1,0-40.42,40.42A40.269,40.269,0,0,0,283.1,2193.749Z" transform="translate(-189.561 -2140.619)" fill="none" stroke="#1d272b" stroke-miterlimit="10" stroke-width="4"/>
    <g id="Grupo_18422" data-name="Grupo 18422" transform="translate(9.382 29.73)">
      <path id="Trazado_40939" data-name="Trazado 40939" d="M291.719,2164.488a52.962,52.962,0,0,1-91.174,52.736,52.793,52.793,0,0,0,91.174-52.736Z" transform="translate(-200.545 -2164.488)" fill="#eceef0"/>
    </g>
  </g>
  <g id="CwXJib" transform="translate(-219.268 -273.453)">
    <g id="Grupo_124114" data-name="Grupo 124114" transform="translate(255.216 301.342)">
      <path id="Trazado_160144" data-name="Trazado 160144" d="M291.787,346.436V313.359c-2.086,0-4.067.011-6.049,0-3.214-.021-4.378-1.2-4.393-4.448-.009-1.928,0-3.857,0-5.871-.675-.069-1.161-.16-1.647-.161-6.384-.009-12.768-.025-19.152.006-2.992.014-3.8.855-3.8,3.8q-.006,19.527,0,39.054c0,2.842.827,3.669,3.677,3.68,2.692.011,5.384-.034,8.073.041.451.012.888.509,1.331.782-.424.23-.843.65-1.272.659-2.815.062-5.632.052-8.448.034-3.395-.023-4.882-1.536-4.884-4.979q-.01-16.147,0-32.294c0-2.5-.024-5.007.01-7.51.043-3.173,1.592-4.766,4.72-4.779,7.072-.03,14.145-.041,21.216.032a3.657,3.657,0,0,1,2.257.986c3.023,2.9,5.995,5.865,8.884,8.9a3.921,3.921,0,0,1,.995,2.443c.066,10.389.048,20.779.037,31.168C293.342,345.753,293.613,346.936,291.787,346.436Zm-8.83-41.825a38.441,38.441,0,0,0,.077,5.266,2.638,2.638,0,0,0,1.633,1.85,39.528,39.528,0,0,0,5.5.088Z" transform="translate(-255.216 -301.342)" fill="#1d272b"/>
      <path id="Trazado_160145" data-name="Trazado 160145" d="M320.432,404.665l-4.013-.608c-.244.711-.458,1.472-.773,2.189-.155.352-.48.846-.76.869a1.386,1.386,0,0,1-.973-.664c-.889-1.434-1.677-2.93-2.557-4.369-1.068-1.745-2.3-1.73-3.393.038-.852,1.383-1.612,2.824-2.48,4.2a4.243,4.243,0,0,1-1.081.857,7.024,7.024,0,0,1-.78-1.15,18.971,18.971,0,0,1-.607-1.99,18.872,18.872,0,0,1-1.978.369,10.222,10.222,0,0,1-1.592-.1,5.414,5.414,0,0,1,.321-1.506c.983-1.812,2.054-3.576,3.063-5.375.235-.419.622-1.187.485-1.317-2.246-2.142,1.07-3.837.465-5.844-.051-.171.7-.593,1.082-.884.57-.43,1.154-.841,1.722-1.274.145-.111.232-.3.376-.413.9-.725,5.348-.24,6.126.608a3.328,3.328,0,0,0,1.281.937,2,2,0,0,1,1.6,2.2c-.019.5.4,1.009.466,1.532a23.679,23.679,0,0,1,.109,2.531c.011.652-.238,1.417.02,1.938.86,1.732,1.907,3.371,2.857,5.059C319.712,403.005,319.926,403.568,320.432,404.665ZM305.39,391.043l-1.029,3.221,1,3.188,2.757,1.99h3.242l2.761-1.945.979-2.988a6.6,6.6,0,0,0-3.151-5.078A6.788,6.788,0,0,0,305.39,391.043Zm-.6,13.025c2.711-3.352,2.468-4.443-1.1-5.044l-2.195,3.815C303.721,401.618,304.428,402.579,304.794,404.068Zm12.957-1.417-2.411-4.078c-.962.815-2.35,1.442-2.4,2.164-.076,1.074.792,2.215,1.258,3.328l.471.023C314.832,402.293,315.825,401.925,317.751,402.65Z" transform="translate(-282.835 -355.04)" fill="#1d272b"/>
      <path id="Trazado_160146" data-name="Trazado 160146" d="M264.727,355.262h30.806l.325.475c-.412.31-.806.854-1.239.887-1.494.112-3,.045-4.5.045q-11.92,0-23.84-.012C265.5,356.655,264.312,357.055,264.727,355.262Z" transform="translate(-261.102 -335.013)" fill="#1d272b"/>
      <path id="Trazado_160147" data-name="Trazado 160147" d="M264.889,368.966h28.454a5.345,5.345,0,0,1,1.491.045c.359.108.63.507.94.778-.3.22-.59.616-.9.632-1.435.071-2.874.038-4.313.038q-12.1,0-24.2-.01C265.552,370.447,264.275,370.812,264.889,368.966Z" transform="translate(-261.156 -343.552)" fill="#1d272b"/>
      <path id="Trazado_160148" data-name="Trazado 160148" d="M264.5,327.331H284.65l.393.344c-.365.35-.727,1-1.1,1.006q-9.352.091-18.7,0c-.363,0-.721-.593-1.081-.91Z" transform="translate(-260.802 -317.571)" fill="#1d272b"/>
      <path id="Trazado_160149" data-name="Trazado 160149" d="M285.109,341.607c-.347.32-.692.916-1.043.919-6.536.056-13.072.041-19.608.041l-.322-.531c.37-.316.737-.9,1.109-.907,6.478-.056,12.957-.041,19.436-.041Z" transform="translate(-260.786 -326.162)" fill="#1d272b"/>
      <path id="Trazado_160150" data-name="Trazado 160150" d="M264.466,382.989c5.035,0,10.07-.014,15.1.031.349,0,.695.448,1.042.688-.4.255-.788.726-1.186.731-4.111.055-8.224.035-12.336.036a7.085,7.085,0,0,1-1.858-.039c-.426-.119-.748-.61-1.116-.935Z" transform="translate(-260.773 -352.327)" fill="#1d272b"/>
      <path id="Trazado_160151" data-name="Trazado 160151" d="M264.518,397.173h12.27l.393.351c-.362.352-.718,1-1.088,1.01q-5.412.117-10.827.006c-.368-.007-.724-.6-1.086-.928Z" transform="translate(-260.814 -361.185)" fill="#1d272b"/>
      <path id="Trazado_160156" data-name="Trazado 160156" d="M319.879,394.926a4.051,4.051,0,0,1,4.228,4.042,4.172,4.172,0,0,1-8.343.129A4.107,4.107,0,0,1,319.879,394.926Zm.046,1.5a2.575,2.575,0,0,0-2.565,2.622,2.585,2.585,0,1,0,5.17-.05A2.547,2.547,0,0,0,319.925,396.43Z" transform="translate(-293.025 -359.782)" fill="#1d272b"/>
    </g>
  </g>
</svg>
