<svg id="icon3" xmlns="http://www.w3.org/2000/svg" xmlns:xlink="http://www.w3.org/1999/xlink" width="121.001" height="120.999" viewBox="0 0 121.001 120.999">
  <defs>
    <radialGradient id="radial-gradient" cx="0.077" cy="0.019" r="1.465" gradientTransform="matrix(1, 0, 0, -1, 0, 9.666)" gradientUnits="objectBoundingBox">
      <stop offset="0" stop-color="#f4f4f5"/>
      <stop offset="0.477" stop-color="#f7f8fa"/>
      <stop offset="0.715" stop-color="#fff"/>
    </radialGradient>
  </defs>
  <g id="Group_18531" data-name="Group 18531">
    <g id="Group_18423" data-name="Group 18423">
      <g id="Group_18421" data-name="Group 18421">
        <g id="Group_18420" data-name="Group 18420">
          <g id="Group_18419" data-name="Group 18419">
            <path id="Path_40936" data-name="Path 40936" d="M243.8,575.329a60.5,60.5,0,1,1-60.5-60.5h0A60.5,60.5,0,0,1,243.8,575.329Z" transform="translate(-122.8 -514.832)" fill="#fff"/>
          </g>
        </g>
      </g>
      <path id="Path_40937" data-name="Path 40937" d="M243.8,575.329a60.259,60.259,0,1,0,0,.477Z" transform="translate(-122.798 -514.832)" fill="url(#radial-gradient)"/>
      <path id="Path_40938" data-name="Path 40938" d="M221.969,567.828a46.18,46.18,0,1,0-46.179,46.179h0a46.008,46.008,0,0,0,46.179-45.836Z" transform="translate(-115.106 -507.129)" fill="none" stroke="#1d272d" stroke-miterlimit="10" stroke-width="3"/>
      <g id="Group_18422" data-name="Group 18422" transform="translate(10.719 33.966)">
        <path id="Path_40939" data-name="Path 40939" d="M232,530.78a60.506,60.506,0,0,1-104.163,60.246A60.314,60.314,0,0,0,232,530.78Z" transform="translate(-127.833 -530.78)" fill="#e7e9eb"/>
      </g>
    </g>
  </g>
  <g id="z60E4n.tif" transform="translate(1074.563 -224.572)">
    <g id="Grupo_91873" data-name="Grupo 91873" transform="translate(-1046.087 255.863)">
      <path id="Trazado_150937" data-name="Trazado 150937" d="M-983.292,308.279h-61.577a1.621,1.621,0,0,1-1.218-.937V294.881a1.129,1.129,0,0,0,.081-.212,8.526,8.526,0,0,1,6.383-7.3c2.2-.637,4.459-1.057,6.692-1.573l2.416-.558a9.307,9.307,0,0,1-2.573-7.123c.035-.967.005-1.936.005-2.9v-.487c-.377,0-.689.011-1,0a1.3,1.3,0,0,1-1.394-1.42c-.01-1.514,0-3.029,0-4.544a1.381,1.381,0,0,1,.568-1.125.76.76,0,0,0,.264-.513,10.523,10.523,0,0,1,8.836-10.291.958.958,0,0,0,.575-.36,1.273,1.273,0,0,1,2.16,0,.913.913,0,0,0,.534.352,10.4,10.4,0,0,1,6.438,3.681,10.631,10.631,0,0,1,2,3.739c.044-.048.073-.067.083-.094.034-.087.06-.177.092-.264a10.409,10.409,0,0,1,8.359-7.064.852.852,0,0,0,.493-.333,1.24,1.24,0,0,1,2.138-.027.779.779,0,0,0,.631.384,9.944,9.944,0,0,1,4.75,2.073,10.449,10.449,0,0,1,4.041,8.152c.008.236,0,.429.269.576a1.237,1.237,0,0,1,.585,1.2c-.007,1.468,0,2.935,0,4.4a1.325,1.325,0,0,1-1.477,1.474c-.289,0-.578,0-.891,0,0,1.4,0,2.729,0,4.055a8.95,8.95,0,0,1-1.961,5.683c-.2.249-.4.491-.62.756.117.041.188.074.263.091,2.372.54,4.742,1.088,7.117,1.612a11.418,11.418,0,0,1,4.421,1.69,8.3,8.3,0,0,1,3.706,6.624c.125,3.931.041,7.868.014,11.8a1.474,1.474,0,0,1-.412.888A2.28,2.28,0,0,1-983.292,308.279Zm-42.123-2.542v-10.9c-.121-.048-.236-.092-.35-.138a4.568,4.568,0,0,1-3.032-3.68,23.127,23.127,0,0,1-.077-2.991c0-.178-.016-.356-.025-.557-.135.015-.213.016-.286.032-2.933.668-5.863,1.345-8.8,2-.381.085-.493.223-.492.612q.021,7.561.01,15.121v.488h2.507v-.544c0-1.124-.009-2.247,0-3.371a1.243,1.243,0,0,1,1.42-1.3,1.281,1.281,0,0,1,1.087,1.365c.011,1.123,0,2.247,0,3.371v.5Zm2.509-.015h13.051c.008-.1.02-.175.02-.25q0-7.753.008-15.505c0-.308-.128-.384-.4-.444-2.952-.663-5.9-1.341-8.85-2.012a2.211,2.211,0,0,0-.347-.018c0,.9.011,1.752,0,2.608a4.68,4.68,0,0,1-3.059,4.553.579.579,0,0,0-.432.639c.014,3.31.008,6.621.008,9.931Zm33.221.015c.008-.12.017-.2.017-.271q0-7.751.009-15.5c0-.313-.127-.384-.394-.443-2.45-.547-4.9-1.11-7.343-1.667-.6-.136-1.2-.267-1.845-.411,0,.967.016,1.855,0,2.742a4.558,4.558,0,0,1-2.271,4.056,1.282,1.282,0,0,0-.729,1.352c.049,3.2.025,6.4.027,9.6,0,.179,0,.359,0,.543Zm-28-30.981h-12.876c0,1.577-.075,3.124.016,4.661a6.276,6.276,0,0,0,5.645,5.864,6.331,6.331,0,0,0,6.736-4.059C-1017.341,279.126-1017.857,276.931-1017.68,274.756Zm20.225-.006h-12.908c0,1.679-.136,3.343.029,4.977a6.312,6.312,0,0,0,5.966,5.595,6.248,6.248,0,0,0,6.609-4.982A42.827,42.827,0,0,0-997.455,274.75Zm-25.452-15.384c0,.172,0,.34,0,.507,0,1.342.007,2.684,0,4.026a1.254,1.254,0,0,1-1.262,1.381,1.245,1.245,0,0,1-1.219-1.371c-.008-1.186,0-2.372,0-3.558,0-.324,0-.649,0-.977a7.768,7.768,0,0,0-6.673,8.025h15.847A7.832,7.832,0,0,0-1022.906,259.366Zm17.68-.02a7.815,7.815,0,0,0-6.669,8.05h15.851a7.788,7.788,0,0,0-6.675-8.008q0,2.107,0,4.21a3.639,3.639,0,0,1-.041.652,1.225,1.225,0,0,1-1.838.853,1.224,1.224,0,0,1-.627-1.171Q-1005.223,261.641-1005.226,259.346Zm-10.135,10.6h-17.58v2.232h17.58Zm2.583,2.229h17.568v-2.233h-17.568Zm-5.049,13.048c.879.2,1.693.342,2.483.572a4.457,4.457,0,0,0,2.564,0c.787-.227,1.6-.373,2.449-.567l-.288-.328a8.336,8.336,0,0,1-2.108-4.26,26.225,26.225,0,0,1-.181-3.121c-.028-.916-.006-1.833-.006-2.768h-2.3c0,1.295.021,2.556-.008,3.817a13.311,13.311,0,0,1-.187,2.138A8.951,8.951,0,0,1-1017.826,285.228Zm-25.751,20.482h2.591v-14.9a.543.543,0,0,0-.119.026.724.724,0,0,0-.115.081,6.105,6.105,0,0,0-2.354,4.79c-.022,1.514,0,3.028,0,4.542C-1043.577,302.058-1043.577,303.868-1043.577,305.71Zm38.827.024c.012-.118.026-.193.026-.269,0-3.2.008-6.395,0-9.592a6.229,6.229,0,0,0-1.722-4.372c-.246-.263-.535-.486-.858-.775v15.009Zm20.2,0c.008-.152.018-.259.018-.365,0-3.122.008-6.244-.007-9.366a7.517,7.517,0,0,0-.169-1.532,6.155,6.155,0,0,0-2.409-3.718v14.982Zm-37.373-18.12c-.775.077-1.5.2-2.229.2s-1.452-.129-2.2-.2c0,.965-.072,1.949.018,2.919a2.128,2.128,0,0,0,2.261,1.924,2.193,2.193,0,0,0,2.137-2.03C-1021.878,289.5-1021.928,288.562-1021.928,287.615Zm15.782-.052c-.126.81-.127.811.427,1.23a8.591,8.591,0,0,1,2.51,2.979c.074.145.157.287.24.437a1.937,1.937,0,0,0,1.155-1.556c.073-1.016.019-2.041.019-3.094A9.108,9.108,0,0,1-1006.146,287.563Z" transform="translate(1046.087 -255.863)" fill="#1d272b"/>
      <path id="Trazado_150938" data-name="Trazado 150938" d="M-936.9,684.56a1.248,1.248,0,0,1-1.218-1.271,1.252,1.252,0,0,1,1.277-1.215,1.263,1.263,0,0,1,1.224,1.274A1.261,1.261,0,0,1-936.9,684.56Z" transform="translate(948.249 -642.069)" fill="#008f85"/>
      <path id="Trazado_150939" data-name="Trazado 150939" d="M-757.01,679.481c-.8,0-1.591.008-2.386,0a1.208,1.208,0,0,1-1.318-1.209,1.229,1.229,0,0,1,1.306-1.279q2.409-.027,4.819,0a1.234,1.234,0,0,1,1.3,1.29,1.22,1.22,0,0,1-1.334,1.2C-755.419,679.489-756.215,679.481-757.01,679.481Z" transform="translate(787.5 -637.451)" fill="#008f85"/>
      <path id="Trazado_150940" data-name="Trazado 150940" d="M-542.169,679.483c-.78,0-1.559.007-2.339,0a1.22,1.22,0,0,1-1.341-1.19,1.231,1.231,0,0,1,1.289-1.3q2.432-.03,4.865,0a1.217,1.217,0,0,1,1.267,1.268,1.206,1.206,0,0,1-1.308,1.218C-540.547,679.491-541.358,679.483-542.169,679.483Z" transform="translate(592.802 -637.453)" fill="#008f85"/>
    </g>
  </g>
</svg>
