<svg id="icon4" xmlns="http://www.w3.org/2000/svg" xmlns:xlink="http://www.w3.org/1999/xlink" width="105.91" height="105.91" viewBox="0 0 105.91 105.91">
  <defs>
    <radialGradient id="radial-gradient" cx="0.076" cy="0.019" r="1.465" gradientTransform="translate(0.001)" gradientUnits="objectBoundingBox">
      <stop offset="0" stop-color="#f6f6f7"/>
      <stop offset="0.477" stop-color="#f9f9fa"/>
      <stop offset="0.715" stop-color="#fff"/>
    </radialGradient>
  </defs>
  <g id="Grupo_18423" data-name="Grupo 18423" transform="translate(0 0)">
    <g id="Grupo_18421" data-name="Grupo 18421">
      <g id="Grupo_18420" data-name="Grupo 18420">
        <g id="Grupo_18419" data-name="Grupo 18419">
          <path id="Trazado_40936" data-name="Trazado 40936" d="M300.533,2198.675a52.955,52.955,0,1,1-52.954-52.954A52.954,52.954,0,0,1,300.533,2198.675Z" transform="translate(-194.623 -2145.721)" fill="#fff"/>
        </g>
      </g>
    </g>
    <path id="Trazado_40937" data-name="Trazado 40937" d="M300.034,2198.131a52.954,52.954,0,1,0-52.954,52.956A52.746,52.746,0,0,0,300.034,2198.131Z" transform="translate(-194.124 -2145.177)" fill="url(#radial-gradient)"/>
    <path id="Trazado_40938" data-name="Trazado 40938" d="M283.1,2193.749a40.42,40.42,0,1,0-40.42,40.42A40.269,40.269,0,0,0,283.1,2193.749Z" transform="translate(-189.561 -2140.619)" fill="none" stroke="#1d272b" stroke-miterlimit="10" stroke-width="4"/>
    <g id="Grupo_18422" data-name="Grupo 18422" transform="translate(9.382 29.73)">
      <path id="Trazado_40939" data-name="Trazado 40939" d="M291.719,2164.488a52.962,52.962,0,0,1-91.174,52.736,52.793,52.793,0,0,0,91.174-52.736Z" transform="translate(-200.545 -2164.488)" fill="#eceef0"/>
    </g>
  </g>
  <g id="znrwo7.tif" transform="translate(-1673.685 -194.388)">
    <g id="Grupo_122200" data-name="Grupo 122200" transform="translate(1703.924 225.943)">
      <path id="Trazado_159691" data-name="Trazado 159691" d="M1808.37,258.884a3.237,3.237,0,0,1-.512,6.086c0,.959,0,1.926,0,2.892a6.016,6.016,0,0,1-12.01.652c-.041-1.034-.033-2.07-.022-3.105a.516.516,0,0,0-.379-.584,3.062,3.062,0,0,1-2.064-2.817,3.017,3.017,0,0,1,1.584-2.917c.277-.163.314-.3.208-.595a9.128,9.128,0,0,0-2.916-4.17,15.8,15.8,0,0,1,6.708-28.106,15.54,15.54,0,0,1,10.629,1.765,1.044,1.044,0,0,1,.663.972.95.95,0,0,1-1.519.717,15.158,15.158,0,0,0-3.855-1.487,13.9,13.9,0,0,0-16.548,10.3c-1.256,5.773.5,10.556,5.056,14.307a11.178,11.178,0,0,1,3.68,5.426c.094.3.216.421.547.419q4.208-.021,8.416,0a.481.481,0,0,0,.552-.411,11.025,11.025,0,0,1,3.723-5.454,13.954,13.954,0,0,0,3.727-17.679c-.063-.118-.134-.231-.195-.35a.958.958,0,0,1,.336-1.342.927.927,0,0,1,1.315.425,14.7,14.7,0,0,1,1.964,5.627,15.376,15.376,0,0,1-3.183,11.985,19.576,19.576,0,0,1-2.671,2.694A10.016,10.016,0,0,0,1808.37,258.884Zm-6.523,4.248v0c1.7,0,3.406,0,5.109,0a1.3,1.3,0,1,0,.042-2.592q-5.158-.02-10.317,0a1.307,1.307,0,1,0,.059,2.6Q1799.293,263.134,1801.847,263.132Zm3.935,5.905h-7.912a4.048,4.048,0,0,0,4.185,3.109A4,4,0,0,0,1805.782,269.037Zm-8.034-1.975h8.187v-1.992h-8.187Z" transform="translate(-1777.786 -225.943)" fill="#1d272b"/>
      <path id="Trazado_159692" data-name="Trazado 159692" d="M1876.147,296.571a3.247,3.247,0,0,1-1.336,3.713,2.943,2.943,0,0,1-3.354.048,3.221,3.221,0,0,1-1.421-3.761c-.752,0-1.477.009-2.2,0a2.417,2.417,0,0,1-2.283-1.355,3.43,3.43,0,0,1-.306-1.343c-.043-.933-.013-1.87,0-2.8.014-1.316.9-1.843,2.087-1.248a1.346,1.346,0,0,0,1.9-.611,1.207,1.207,0,0,0-.732-1.662,1.92,1.92,0,0,0-1.191.1c-1.144.524-2.037.037-2.066-1.219-.023-1.018-.026-2.038.01-3.055a2.5,2.5,0,0,1,2.617-2.513c.7,0,1.4,0,2.151,0a3.378,3.378,0,0,1,.953-3.419,3.164,3.164,0,0,1,2.447-.8c1.881.118,2.943,1.714,2.762,4.216.7,0,1.4,0,2.1,0a2.512,2.512,0,0,1,2.648,2.582c.016,1,.01,2,0,3.006a1.27,1.27,0,0,1-2.012,1.2,1.345,1.345,0,0,0-2.009.693,1.22,1.22,0,0,0,.4,1.356,1.432,1.432,0,0,0,1.509.152,2.863,2.863,0,0,1,1.086-.25,1.174,1.174,0,0,1,1.017,1.231c.015,1.085.024,2.171,0,3.256a2.489,2.489,0,0,1-2.532,2.492C1877.66,296.584,1876.927,296.571,1876.147,296.571Zm2.878-4.742c-2.373.208-3.919-.919-4.068-2.963a3,3,0,0,1,.755-2.216,3.37,3.37,0,0,1,3.322-1.039v-1.617c0-1.2-.049-1.248-1.23-1.243-.9,0-1.8.006-2.7-.005a1.149,1.149,0,0,1-1.214-.975,2.022,2.022,0,0,1,.247-1.116,1.417,1.417,0,0,0-.327-1.916,1.288,1.288,0,0,0-1.609.153,1.362,1.362,0,0,0-.108,1.785,1.274,1.274,0,0,1,.106,1.41,1.29,1.29,0,0,1-1.251.665c-1.018-.013-2.036,0-3.054,0-.373,0-.694.129-.712.539-.033.76-.009,1.523-.009,2.286,2.519-.1,4.032,1.059,4.063,3.092a3.07,3.07,0,0,1-.906,2.259,3.4,3.4,0,0,1-3.178.888c0,.7,0,1.348,0,2,0,.664.2.863.867.866,1.018,0,2.036,0,3.054,0a1.2,1.2,0,0,1,1.269,1.1,2.037,2.037,0,0,1-.295,1.018,1.394,1.394,0,0,0,.32,1.876,1.291,1.291,0,0,0,1.612-.121,1.359,1.359,0,0,0,.159-1.743,1.322,1.322,0,0,1-.14-1.5,1.359,1.359,0,0,1,1.363-.64c.967.024,1.936.009,2.9.005.383,0,.736-.115.755-.555C1879.049,293.362,1879.024,292.6,1879.024,291.83Z" transform="translate(-1849.032 -271.539)" fill="#008f85"/>
      <path id="Trazado_159693" data-name="Trazado 159693" d="M1707.331,375.5c-.784,0-1.568.006-2.351,0a.951.951,0,1,1,0-1.89q2.376-.009,4.752,0a.95.95,0,1,1,0,1.893C1708.932,375.509,1708.131,375.5,1707.331,375.5Z" transform="translate(-1703.924 -358.781)" fill="#1d272b"/>
      <path id="Trazado_159694" data-name="Trazado 159694" d="M2118.12,373.593c.785,0,1.569,0,2.354,0a.952.952,0,1,1,.007,1.89q-2.378.009-4.757,0a.951.951,0,1,1-.007-1.893c.8-.008,1.6,0,2.4,0Z" transform="translate(-2073.442 -358.765)" fill="#1d272b"/>
      <path id="Trazado_159695" data-name="Trazado 159695" d="M2116.11,419.041a4.307,4.307,0,0,1-.774-.432c-.468-.425-.911-.877-1.346-1.336a.948.948,0,1,1,1.344-1.329c.466.451.922.913,1.374,1.379a.823.823,0,0,1,.16,1.052A3.623,3.623,0,0,1,2116.11,419.041Z" transform="translate(-2072.519 -396.558)" fill="#1d272b"/>
      <path id="Trazado_159696" data-name="Trazado 159696" d="M1741.537,418.883c-.233-.179-.594-.323-.7-.574a1.127,1.127,0,0,1,.043-.961,13.957,13.957,0,0,1,1.645-1.675.862.862,0,0,1,1.219.112.9.9,0,0,1,.068,1.192c-.515.568-1.068,1.1-1.627,1.629A2.423,2.423,0,0,1,1741.537,418.883Z" transform="translate(-1737.053 -396.444)" fill="#1d272b"/>
      <path id="Trazado_159697" data-name="Trazado 159697" d="M1740.765,316.246a4.417,4.417,0,0,1,.773.44c.468.427.911.884,1.35,1.341a.951.951,0,0,1,.042,1.383.917.917,0,0,1-1.344-.025c-.487-.457-.955-.934-1.416-1.417a.809.809,0,0,1-.165-1.052A4.031,4.031,0,0,1,1740.765,316.246Z" transform="translate(-1736.266 -307.181)" fill="#1d272b"/>
      <path id="Trazado_159698" data-name="Trazado 159698" d="M2116.109,316.644c.23.193.594.358.7.624a1.139,1.139,0,0,1-.094.96,14.022,14.022,0,0,1-1.569,1.6.873.873,0,0,1-1.222-.04.883.883,0,0,1-.1-1.255c.51-.568,1.064-1.1,1.622-1.618A2.409,2.409,0,0,1,2116.109,316.644Z" transform="translate(-2072.481 -307.539)" fill="#1d272b"/>
      <path id="Trazado_159699" data-name="Trazado 159699" d="M2039.529,269.414a.95.95,0,0,1,.06,1.9.989.989,0,0,1-1-.925A.959.959,0,0,1,2039.529,269.414Z" transform="translate(-2004.997 -265.05)" fill="#1d272b"/>
    </g>
  </g>
</svg>
