<svg xmlns="http://www.w3.org/2000/svg" width="64.48" height="101.975" viewBox="0 0 64.48 101.975">
  <g id="icon1" transform="translate(293.044 -125.805)">
    <g id="Grupo_121055" data-name="Grupo 121055" transform="translate(-293.044 125.805)">
      <path id="Trazado_158720" data-name="Trazado 158720" d="M-291.024,227.78a3.561,3.561,0,0,1-2.015-3.718c.1-2.652.026-5.31.027-7.965,0-8.228,4.821-13.971,12.894-15.4,2.634-.466,5.258-.985,8-1.5-.04-.738-.079-1.445-.125-2.287h-2.307c-1.822,0-3.644.009-5.466,0a7.493,7.493,0,0,1-7.909-7.842c-.038-5.676-.018-11.352,0-17.028a5.11,5.11,0,0,0-.775-2.973,5.354,5.354,0,0,1,.2-6.091,3.482,3.482,0,0,0,.547-1.716c.062-5.376-.094-10.76.125-16.128A20.588,20.588,0,0,1-271.193,126.2c.68-.124,1.357-.261,2.035-.392h2.783a19.448,19.448,0,0,0,11.132,0h2.783a46.458,46.458,0,0,1,5.178,1.288,20.461,20.461,0,0,1,13.545,18.832c.145,5.074.028,10.155.088,15.232a3.781,3.781,0,0,0,.6,1.9,5.789,5.789,0,0,1-.078,6.461,3.105,3.105,0,0,0-.529,1.622c-.037,5.841-.017,11.682-.025,17.523-.007,5.171-3.072,8.245-8.205,8.247-2.449,0-4.9,0-7.448,0-.067.758-.131,1.47-.2,2.283,2.307.44,4.562.917,6.834,1.29,3.207.527,6.282,1.341,8.811,3.539a14.867,14.867,0,0,1,5.286,11.156c.039,1.133-.557,1.843-1.477,1.848-.88.005-1.452-.656-1.5-1.737-.3-6.5-4.435-10.876-11.159-11.706-.66,1.614-1.332,3.261-2.007,4.906-.276.674-.542,1.354-.838,2.019a5.725,5.725,0,0,1-8.474,2.617q-3.032-1.9-5.99-3.909a1.131,1.131,0,0,0-1.5,0c-1.892,1.282-3.814,2.518-5.739,3.75a5.76,5.76,0,0,1-8.88-2.827c-.886-2.174-1.745-4.359-2.608-6.52a11.573,11.573,0,0,0-11.176,10.8c-.222,3.4-.04,6.824-.04,10.3h8.285c0-.568,0-1.151,0-1.734,0-1.792-.01-3.584,0-5.376,0-1.1.552-1.76,1.437-1.782.922-.023,1.532.664,1.542,1.8.017,1.991,0,3.983.005,5.974v1.127h35.846c0-1.759,0-3.5,0-5.249,0-.7-.027-1.4.012-2.09a1.506,1.506,0,0,1,1.478-1.561,1.483,1.483,0,0,1,1.484,1.631c.018,2.386.006,4.773.006,7.243h8.318c0-.994-.011-1.98,0-2.967.015-1.069.607-1.739,1.5-1.727s1.46.678,1.478,1.755c.012.73-.058,1.466.015,2.189a3.481,3.481,0,0,1-2,3.82Zm38.561-79.351a18.549,18.549,0,0,0-1.031,1.642,2.534,2.534,0,0,1-2.651,1.453c-7.153-.053-14.306-.006-21.459-.049-.952-.006-1.152.3-1.146,1.183.041,5.773,0,11.547.055,17.32a26.032,26.032,0,0,0,.429,5.236c2,9.242,7.58,15.313,16.527,18.278a2.534,2.534,0,0,0,1.341.079c9.5-2.388,17.071-11.457,17.428-21.221.243-6.661.1-13.336.146-20,0-.643-.212-.872-.866-.86-1.821.035-3.644-.027-5.463.028a2.1,2.1,0,0,1-2.1-1.18C-251.59,149.729-251.994,149.163-252.463,148.429Zm15.746,12.2c.023-.274.054-.47.054-.667,0-4.48.066-8.961-.045-13.438a19.906,19.906,0,0,0-.783-5.183,17.1,17.1,0,0,0-19.149-12.147,20.522,20.522,0,0,1-7.959.037,13.405,13.405,0,0,0-5.807-.152,17.72,17.72,0,0,0-14.524,17.557c-.054,4.379-.018,8.76-.018,13.14,0,.284.048.568.07.813h3.164c0-2.77,0-5.454,0-8.138,0-2.707,1.241-3.937,3.956-3.937q10.432,0,20.864.013a1.261,1.261,0,0,0,1.276-.684c.56-.977,1.174-1.924,1.8-2.857a1.492,1.492,0,0,1,2.722.022c.629.934,1.243,1.881,1.811,2.854a1.177,1.177,0,0,0,1.187.664c1.489-.038,2.98-.018,4.471-.011,2.444.011,3.75,1.289,3.767,3.736.016,2.422-.012,4.844-.021,7.267,0,.355,0,.709,0,1.111Zm-3.168,11.229a26.272,26.272,0,0,1-8.23,18c-1.327,1.245-1.333,2.48-1.193,4.061,2.58,0,5.122,0,7.663,0,3.124-.006,4.951-1.8,4.963-4.924.02-5.374.012-10.748.01-16.123,0-.346-.044-.693-.065-1.014Zm-32.461,22.05a3.938,3.938,0,0,0-1.226-4.041,24.925,24.925,0,0,1-7.367-12.83c-.4-1.695-.606-3.434-.905-5.179h-3.107c0,1.872,0,3.691,0,5.51,0,3.917-.017,7.833.008,11.75.016,2.639,1.684,4.663,4.1,4.762C-278.037,193.993-275.222,193.9-272.345,193.9Zm19.923-.523c-.379.206-.65.383-.944.507-2,.853-3.973,1.8-6.031,2.489a5.02,5.02,0,0,1-2.981,0c-2.025-.678-3.959-1.629-5.928-2.475-.276-.119-.538-.271-.9-.456,0,1.534-.073,2.892.014,4.239a8.326,8.326,0,0,0,6.056,7.44,8.466,8.466,0,0,0,9.043-2.982C-252.066,199.531-252.339,196.519-252.423,193.381Zm-4.4,14.389c1.623,1.054,3.088,2.075,4.622,2.98a2.554,2.554,0,0,0,3.561-.91c1.077-2.216,1.952-4.53,2.939-6.868-1.523-.284-2.881-.565-4.25-.769a1.01,1.01,0,0,0-.836.366A12.042,12.042,0,0,1-256.826,207.77Zm-7.943,0a11.924,11.924,0,0,1-6.069-5.256c-.1-.187-.4-.42-.567-.393-1.448.241-2.887.536-4.432.835.929,2.3,1.75,4.495,2.706,6.632a2.631,2.631,0,0,0,3.805,1.108C-267.824,209.806-266.38,208.814-264.769,207.774Zm-17.1-44.091a22.3,22.3,0,0,0-2.5.018,2.507,2.507,0,0,0-2.155,2.468,2.487,2.487,0,0,0,2.018,2.578,18.274,18.274,0,0,0,2.633.024Zm42.121,5.134c.841,0,1.567.041,2.286-.009a2.561,2.561,0,0,0,2.381-2.477,2.531,2.531,0,0,0-2.1-2.624,20.072,20.072,0,0,0-2.572-.021Z" transform="translate(293.044 -125.805)" fill="#1d272b"/>
      <path id="Trazado_158721" data-name="Trazado 158721" d="M-148.009,125.805a19.448,19.448,0,0,1-11.132,0Z" transform="translate(185.811 -125.805)" fill="#1d272b"/>
      <path id="Trazado_158722" data-name="Trazado 158722" d="M-147.782,571.812a3.874,3.874,0,0,1,3.907,3.8,3.866,3.866,0,0,1-3.848,3.956,3.889,3.889,0,0,1-3.863-3.853A3.88,3.88,0,0,1-147.782,571.812Zm.118,5.152c.377-.619.793-1,.744-1.305s-.548-.569-.849-.849c-.273.309-.741.606-.761.93C-148.55,576.049-148.1,576.386-147.664,576.965Z" transform="translate(179.762 -482.981)" fill="#1d272b"/>
      <path id="Trazado_158723" data-name="Trazado 158723" d="M-167.63,406.267c2.523.364,5.012.69,7.487,1.094a1.478,1.478,0,0,1,1.412,1.87c-.205.867-.974,1.272-2.036,1.029a30.034,30.034,0,0,0-13.678,0c-1.059.246-1.835-.157-2.046-1.019a1.478,1.478,0,0,1,1.4-1.878C-172.616,406.963-170.129,406.63-167.63,406.267Z" transform="translate(199.747 -350.407)" fill="#1d272b"/>
      <path id="Trazado_158724" data-name="Trazado 158724" d="M-198.1,352.076a3.641,3.641,0,0,1-3.28-5.435,14.613,14.613,0,0,1,2.244-2.748,1.332,1.332,0,0,1,2.038.019,14.758,14.758,0,0,1,2.228,2.761A3.635,3.635,0,0,1-198.1,352.076Zm.282-4.842-.669.021q-.094.8-.187,1.6l1.125-.037Z" transform="translate(220.032 -300.084)" fill="#1d272b"/>
      <path id="Trazado_158725" data-name="Trazado 158725" d="M-143.364,353.322a4.158,4.158,0,0,1-2.986,4.092,4.115,4.115,0,0,1-4.566-1.557,5.024,5.024,0,0,1-.713-3.9,1.3,1.3,0,0,1,1.439-1.106,1.346,1.346,0,0,1,1.388,1.178,10.431,10.431,0,0,1,.074,1.286c.045.768.409,1.292,1.213,1.278.746-.013,1.105-.514,1.15-1.239.02-.33,0-.664.026-.993a1.484,1.484,0,0,1,1.5-1.521,1.515,1.515,0,0,1,1.468,1.562C-143.349,352.634-143.364,352.867-143.364,353.322Z" transform="translate(179.877 -306.02)" fill="#1d272b"/>
      <path id="Trazado_158726" data-name="Trazado 158726" d="M-205.6,280.618c-1.187-.269-2.389-.484-3.556-.823a1.476,1.476,0,0,1-1.094-1.929,1.539,1.539,0,0,1,2.029-.9,16.06,16.06,0,0,0,2.023.478,5.313,5.313,0,0,0,4.789-1.868,1.459,1.459,0,0,1,2.259-.243,1.532,1.532,0,0,1-.1,2.292A8.787,8.787,0,0,1-205.6,280.618Z" transform="translate(226.804 -245.209)" fill="#1d272b"/>
      <path id="Trazado_158727" data-name="Trazado 158727" d="M-103.738,280.57a8.783,8.783,0,0,1-6.37-3.157,1.486,1.486,0,0,1,.037-2.14,1.39,1.39,0,0,1,2.118.12c1.929,2.2,4.252,2.431,6.868,1.571,1.268-.417,2.348.3,2.11,1.452a2.045,2.045,0,0,1-1.117,1.306A31.266,31.266,0,0,1-103.738,280.57Z" transform="translate(146.892 -245.156)" fill="#1d272b"/>
      <path id="Trazado_158728" data-name="Trazado 158728" d="M-95.883,318.915a35.677,35.677,0,0,1-3.425-1.716,1.288,1.288,0,0,1-.235-1.944,1.284,1.284,0,0,1,1.914-.4,2.645,2.645,0,0,0,3.526-.016,1.285,1.285,0,0,1,1.909.427,1.3,1.3,0,0,1-.257,1.944A36.216,36.216,0,0,1-95.883,318.915Z" transform="translate(138.348 -276.974)" fill="#1d272b"/>
      <path id="Trazado_158729" data-name="Trazado 158729" d="M-198.691,318.928a34.815,34.815,0,0,1-3.431-1.726,1.288,1.288,0,0,1-.214-1.946,1.257,1.257,0,0,1,1.831-.423,2.733,2.733,0,0,0,3.619.018,1.282,1.282,0,0,1,1.9.447,1.292,1.292,0,0,1-.277,1.941A37.084,37.084,0,0,1-198.691,318.928Z" transform="translate(220.675 -276.989)" fill="#1d272b"/>
    </g>
  </g>
</svg>
