<svg id="icon2" xmlns="http://www.w3.org/2000/svg" xmlns:xlink="http://www.w3.org/1999/xlink" width="121.001" height="120.999" viewBox="0 0 121.001 120.999">
  <defs>
    <radialGradient id="radial-gradient" cx="0.077" cy="0.019" r="1.465" gradientTransform="matrix(1, 0, 0, -1, 0, 9.666)" gradientUnits="objectBoundingBox">
      <stop offset="0" stop-color="#f4f4f5"/>
      <stop offset="0.477" stop-color="#f7f8fa"/>
      <stop offset="0.715" stop-color="#fff"/>
    </radialGradient>
  </defs>
  <g id="Group_18531" data-name="Group 18531">
    <g id="Group_18423" data-name="Group 18423">
      <g id="Group_18421" data-name="Group 18421">
        <g id="Group_18420" data-name="Group 18420">
          <g id="Group_18419" data-name="Group 18419">
            <path id="Path_40936" data-name="Path 40936" d="M243.8,575.329a60.5,60.5,0,1,1-60.5-60.5h0A60.5,60.5,0,0,1,243.8,575.329Z" transform="translate(-122.8 -514.832)" fill="#fff"/>
          </g>
        </g>
      </g>
      <path id="Path_40937" data-name="Path 40937" d="M243.8,575.329a60.259,60.259,0,1,0,0,.477Z" transform="translate(-122.798 -514.832)" fill="url(#radial-gradient)"/>
      <path id="Path_40938" data-name="Path 40938" d="M221.969,567.828a46.18,46.18,0,1,0-46.179,46.179h0a46.008,46.008,0,0,0,46.179-45.836Z" transform="translate(-115.106 -507.129)" fill="none" stroke="#1d272d" stroke-miterlimit="10" stroke-width="3"/>
      <g id="Group_18422" data-name="Group 18422" transform="translate(10.719 33.966)">
        <path id="Path_40939" data-name="Path 40939" d="M232,530.78a60.506,60.506,0,0,1-104.163,60.246A60.314,60.314,0,0,0,232,530.78Z" transform="translate(-127.833 -530.78)" fill="#e7e9eb"/>
      </g>
    </g>
  </g>
  <g id="Oj1QsQ" transform="translate(1556.667 -74.133)">
    <g id="Grupo_91874" data-name="Grupo 91874" transform="translate(-1521.875 105.508)">
      <path id="Trazado_150941" data-name="Trazado 150941" d="M-1266.55,406.362h-9.252c-.955,0-1.911.017-2.865-.01a2.1,2.1,0,0,1-1.868-3.225c.733-1.353,1.535-2.669,2.3-4q4.89-8.472,9.776-16.947a2.271,2.271,0,0,1,2.043-1.347,2.254,2.254,0,0,1,2.005,1.324q5.973,10.352,11.945,20.7c.866,1.5.391,2.986-1.108,3.415a3.593,3.593,0,0,1-.98.107q-5.726,0-11.452-.017Zm10.663-3.14-10.542-18.255-10.54,18.255Z" transform="translate(1307.465 -350.428)" fill="#1d272b"/>
      <path id="Trazado_150942" data-name="Trazado 150942" d="M-1514.4,140.906v3.2h-4.2v39.4h24.626c-.629,1.09-1.2,2.1-1.8,3.093-.064.106-.32.133-.487.133q-5.487.01-10.974,0c-3.732,0-7.465-.057-11.2.019a3.451,3.451,0,0,1-3.445-3.477c.038-12.97.02-25.941.02-38.911a3.275,3.275,0,0,1,3.4-3.452C-1517.1,140.9-1515.739,140.906-1514.4,140.906Z" transform="translate(1521.875 -136.994)" fill="#1d272b"/>
      <path id="Trazado_150943" data-name="Trazado 150943" d="M-1268.274,144.458v-3.223a46.5,46.5,0,0,1,4.745.035,3.087,3.087,0,0,1,2.716,3.278q0,9.051,0,18.1c0,2.52.007,5.041-.01,7.561a1.761,1.761,0,0,1-.216.821c-.944,1.673-1.913,3.333-2.956,5.138V144.458Z" transform="translate(1296.277 -137.248)" fill="#1d272b"/>
      <path id="Trazado_150944" data-name="Trazado 150944" d="M-1432.412,108.629c0-.531,0-.972,0-1.413a1.581,1.581,0,0,1,1.679-1.7c2.11-.02,4.221,0,6.332,0,.4,0,.809-.025,1.209.011a1.6,1.6,0,0,1,1.49,1.611c.009.475,0,.95,0,1.486.423,0,.8-.008,1.183,0a1.579,1.579,0,0,1,1.6,1.557c.026.623.032,1.247.016,1.87a1.606,1.606,0,0,1-1.723,1.666q-6.486,0-12.972,0a1.533,1.533,0,0,1-1.583-1.382,14.163,14.163,0,0,1-.013-2.244,1.547,1.547,0,0,1,1.63-1.459C-1433.2,108.625-1432.835,108.629-1432.412,108.629Z" transform="translate(1444.799 -105.508)" fill="#1d272b"/>
      <path id="Trazado_150945" data-name="Trazado 150945" d="M-1456.786,432.712c0,.952,0,1.9,0,2.857,0,.755-.227,1-.976,1q-2.843.016-5.685,0c-.782,0-1-.244-1-1.041q0-2.76,0-5.519c0-.85.237-1.089,1.071-1.09q2.76,0,5.519,0c.829,0,1.042.214,1.046,1.045,0,.915,0,1.829,0,2.744Zm-4.839.9c-.362-.373-.685-.674-.971-1.008-.346-.4-.656-.409-.988,0a2.672,2.672,0,0,1-.314.309c-.276.245-.285.464,0,.732.585.557,1.166,1.121,1.711,1.717.323.353.541.3.848-.012,1.288-1.31,2.594-2.6,3.892-3.9.457-.458.432-.505-.034-1.019-.356-.393-.623-.386-.99,0C-1459.49,431.488-1460.536,432.517-1461.625,433.612Z" transform="translate(1470.788 -393.21)" fill="#008f85"/>
      <path id="Trazado_150946" data-name="Trazado 150946" d="M-1460.631,210.38c.972,0,1.943,0,2.915,0,.653,0,.9.24.907.9q.015,2.911,0,5.822c0,.681-.266.93-.942.932q-2.868.008-5.736,0c-.7,0-.971-.266-.973-.962q-.011-2.9,0-5.791c0-.649.253-.89.913-.9C-1462.574,210.373-1461.6,210.38-1460.631,210.38Zm-1.031,4.682c-.36-.386-.692-.725-1-1.08a.514.514,0,0,0-.88,0c-.125.134-.258.261-.389.39a.431.431,0,0,0,0,.707c.576.564,1.155,1.127,1.7,1.716.312.334.547.327.865,0,1.326-1.343,2.67-2.668,4-4.006.109-.11.264-.352.227-.4a3.754,3.754,0,0,0-.788-.813c-.077-.055-.4.162-.558.313C-1459.53,212.914-1460.558,213.955-1461.662,215.062Z" transform="translate(1470.803 -198.798)" fill="#008f85"/>
      <path id="Trazado_150947" data-name="Trazado 150947" d="M-1460.611,319.815c.974,0,1.949,0,2.923,0,.59,0,.854.223.859.82.018,2.01.013,4.021,0,6.031,0,.513-.283.762-.8.763-2,.006-4.007,0-6.011,0a.72.72,0,0,1-.8-.779q-.03-3.033,0-6.066c.005-.537.307-.772.859-.775C-1462.6,319.812-1461.6,319.815-1460.611,319.815Zm-1.047,4.632c-.27-.268-.49-.489-.713-.707-.834-.815-.595-.858-1.536.055a.437.437,0,0,0,0,.738c.568.549,1.134,1.1,1.675,1.679.332.354.584.324.913-.011,1.275-1.3,2.571-2.578,3.856-3.867.458-.459.453-.525-.038-1.014s-.545-.482-1.014-.013C-1459.558,322.345-1460.6,323.386-1461.658,324.448Z" transform="translate(1470.802 -296.15)" fill="#008f85"/>
      <path id="Trazado_150948" data-name="Trazado 150948" d="M-1369.623,451.622v-3.408h12.728v3.408Z" transform="translate(1386.435 -410.372)" fill="#1d272b"/>
      <path id="Trazado_150949" data-name="Trazado 150949" d="M-1356.773,229.782v3.393H-1369.5v-3.393Z" transform="translate(1386.326 -216.059)" fill="#1d272b"/>
      <path id="Trazado_150950" data-name="Trazado 150950" d="M-1369.616,342.527v-3.359h12.741v3.359Z" transform="translate(1386.429 -313.367)" fill="#1d272b"/>
      <path id="Trazado_150951" data-name="Trazado 150951" d="M-1157.609,468.181q0,1.626,0,3.251c0,.768-.313,1.1-1.033,1.108s-1.063-.326-1.064-1.076q0-3.307,0-6.613c0-.729.314-1.034,1.035-1.035.765,0,1.058.288,1.061,1.058C-1157.607,465.976-1157.609,467.079-1157.609,468.181Z" transform="translate(1199.7 -424.251)" fill="#008f85"/>
      <path id="Trazado_150952" data-name="Trazado 150952" d="M-1159,549.157a1.072,1.072,0,0,1-1.084-1.123,1.108,1.108,0,0,1,1.083-1.09,1.187,1.187,0,0,1,1.133,1.119A1.11,1.11,0,0,1-1159,549.157Z" transform="translate(1200.036 -498.199)" fill="#008f85"/>
    </g>
  </g>
</svg>
