<svg xmlns="http://www.w3.org/2000/svg" width="90.309" height="107.398" viewBox="0 0 90.309 107.398">
  <g id="icon2" transform="translate(832.418 -116.894)">
    <g id="Grupo_121056" data-name="Grupo 121056" transform="translate(-832.418 116.894)">
      <path id="Trazado_158730" data-name="Trazado 158730" d="M-451.047,116.894A2.277,2.277,0,0,1-450,119.112c-.056,1.7-.016,3.4-.016,5.242,1.661,0,3.223,0,4.784,0a9.658,9.658,0,0,1,1.356.055,1.39,1.39,0,0,1,1.276,1.424c.04.836-.371,1.545-1.205,1.569a63.8,63.8,0,0,1-6.888-.077,3.033,3.033,0,0,1-2.451-3.008c-.044-1.918-.094-3.843.033-5.754.038-.577.657-1.115,1.01-1.671Z" transform="translate(532.89 -116.894)" fill="#1d272b"/>
      <path id="Trazado_158731" data-name="Trazado 158731" d="M-511.573,116.894a2.079,2.079,0,0,1,1.088,2.078c-.057,1.672,0,3.348-.021,5.022a3.294,3.294,0,0,1-3.373,3.49c-1.811.058-3.626.036-5.438.005-1.11-.019-1.723-.6-1.74-1.535-.018-.977.61-1.566,1.784-1.591,1.777-.038,3.554-.034,5.331-.054.063,0,.124-.057.3-.141,0-1.646.039-3.348-.015-5.048a2.322,2.322,0,0,1,1.04-2.226Z" transform="translate(586.496 -116.894)" fill="#1d272b"/>
      <path id="Trazado_158732" data-name="Trazado 158732" d="M-829.143,239.157h14.572v-1.116q0-6.083,0-12.166a4.3,4.3,0,0,1,.041-.94,1.619,1.619,0,0,1,1.629-1.365,1.574,1.574,0,0,1,1.577,1.511c.046.521.026,1.048.026,1.572q0,5.663,0,11.327v1.176h37.833v-1.184c0-4.055,0-8.11.008-12.166a3.5,3.5,0,0,1,.183-1.226,1.473,1.473,0,0,1,1.666-.984,1.49,1.49,0,0,1,1.394,1.348,10.421,10.421,0,0,1,.076,1.358q.009,5.768,0,11.536v1.3h14.563c-.208-1.725-.4-3.377-.609-5.026-.528-4.112-1.032-8.228-1.614-12.333a47.512,47.512,0,0,0-1.171-6.357,13.51,13.51,0,0,0-7-8.235c-3.718-2.022-7.814-2.939-11.849-4.024a1.8,1.8,0,0,0-1.127.361c-2.9,1.681-5.837,3.3-8.66,5.106a8.064,8.064,0,0,1-9.488.006c-2.847-1.83-5.8-3.5-8.739-5.178a2.136,2.136,0,0,0-1.524-.207c-3.583,1.133-7.179,2.24-10.693,3.563a13.165,13.165,0,0,0-5.175,3.838c-.809.927-1.765,1.075-2.447.441-.809-.752-.8-1.595.045-2.569a22.011,22.011,0,0,1,10.115-6.268c2.448-.811,4.928-1.545,7.431-2.165,2.054-.508,2.761-2.091,3.366-3.785.073-.2-.339-.684-.628-.9a30.642,30.642,0,0,1-10.341-12.94,5.444,5.444,0,0,0-3.006-3.282,7.52,7.52,0,0,1-4.614-7.36c.008-.524-.014-1.049.006-1.573a3.946,3.946,0,0,1,4.082-4.01c.588-.009,1.175,0,1.745,0,.287-1.989.472-3.9.851-5.767a25.56,25.56,0,0,1,6.551-12.9,2.36,2.36,0,0,1,1.584-.764,1.868,1.868,0,0,1,1.41.972,2.172,2.172,0,0,1-.449,1.771,24.949,24.949,0,0,0-4.377,6.736,30.456,30.456,0,0,0-2.118,8.921,1.918,1.918,0,0,0,.117.534,8.448,8.448,0,0,0,4.346-2.222,20.4,20.4,0,0,0,1.495-1.47A6.991,6.991,0,0,1-800.428,160c1.108.306,2.241.533,3.328.9a14.829,14.829,0,0,0,9.731-.057,30.963,30.963,0,0,1,5.084-1.139,6.025,6.025,0,0,1,5.2,1.937c.519.5,1.044.988,1.566,1.482l.29-.151c-.461-1.409-.809-2.867-1.4-4.217a28.521,28.521,0,0,0-14.691-15.115,7.453,7.453,0,0,0-5.2-.011,48.4,48.4,0,0,0-5.873,2.135c-1.383.563-2.44.178-2.636-1.133a1.653,1.653,0,0,1,1.023-1.766,24.131,24.131,0,0,1,26.761,2.244c5.47,4.506,8.346,10.456,9.475,17.343.2,1.2.3,2.424.462,3.793.642,0,1.29-.013,1.938,0a3.9,3.9,0,0,1,3.926,3.924c.082,2.329.059,4.614-1.533,6.567a9.641,9.641,0,0,1-4.475,3.148,1.353,1.353,0,0,0-.794.658,31.164,31.164,0,0,1-11.566,15.172c-.11.08-.205.18-.32.282.7,2.246,1.851,3.794,4.391,4.378a61.56,61.56,0,0,1,9.246,2.977c7.19,2.912,10.918,8.412,11.746,16.09.678,6.284,1.573,12.545,2.412,18.811.383,2.866-.673,4.153-3.585,4.154q-36.431.007-72.862,0c-2.87,0-3.922-1.091-3.563-3.953.918-7.311,1.926-14.61,2.9-21.914a2.843,2.843,0,0,1,.051-.31,1.63,1.63,0,0,1,1.974-1.4c.9.169,1.343.9,1.187,2-.311,2.21-.667,4.414-.961,6.626-.662,4.98-1.3,9.964-1.939,14.948A6.3,6.3,0,0,0-829.143,239.157Zm58.584-69.935a13.715,13.715,0,0,1-8.466-4.863c-.071-.078-.151-.145-.224-.221a3.461,3.461,0,0,0-3.709-1.046c-1.542.441-3.122.752-4.652,1.229a15.452,15.452,0,0,1-9.477,0c-1.363-.429-2.776-.695-4.139-1.124a3.958,3.958,0,0,0-4.531,1.221,13.681,13.681,0,0,1-7.837,4.72c-.222.04-.566.376-.559.564.107,2.889-.224,5.9.5,8.639,2.146,8.13,7.518,13.709,15.035,17.247a12.961,12.961,0,0,0,9.06,1.139c8.14-2.178,13.607-7.49,17.347-14.825C-770.183,177.921-770.464,173.641-770.559,169.222Zm-12.5,28.485a18.127,18.127,0,0,1-18.6.018l-1.854,3.3c3.071,1.8,6.131,3.617,9.207,5.4a3.785,3.785,0,0,0,4.073-.091q4.367-2.59,8.733-5.181a1.219,1.219,0,0,0,.228-.209Zm15.785-21.466a6.432,6.432,0,0,0,.626-.348,5.42,5.42,0,0,0,1.957-5.808,1.055,1.055,0,0,0-.712-.608,12.679,12.679,0,0,0-1.871-.029Zm-50.236-.009v-6.786a9.156,9.156,0,0,0-1.746.03,1.178,1.178,0,0,0-.771.669A5.287,5.287,0,0,0-817.507,176.231Z" transform="translate(832.418 -135.011)" fill="#1d272b"/>
      <path id="Trazado_158733" data-name="Trazado 158733" d="M-449.973,188.1q0,2.514,0,5.012a4.679,4.679,0,0,1-.047,1.043,1.486,1.486,0,0,1-1.565,1.274A1.421,1.421,0,0,1-453.092,194c-.045-2.094-.086-4.195.028-6.284a3.224,3.224,0,0,1,3.233-2.867c1.848-.064,3.7-.043,5.55-.013a1.58,1.58,0,0,1,1.738,1.563c.009.968-.652,1.557-1.807,1.568-1.745.018-3.491.014-5.236.023A2.308,2.308,0,0,0-449.973,188.1Z" transform="translate(532.852 -170.531)" fill="#1d272b"/>
      <path id="Trazado_158734" data-name="Trazado 158734" d="M-513.831,187.979c-1.79,0-3.565.007-5.34,0-1.246-.006-1.911-.569-1.9-1.575.013-.951.682-1.547,1.84-1.561,1.744-.022,3.49-.036,5.234,0a3.342,3.342,0,0,1,3.479,3.512c.02,1.745.014,3.491,0,5.236-.008,1.145-.6,1.853-1.528,1.872-.952.02-1.6-.729-1.61-1.92-.022-1.744-.02-3.489-.033-5.234C-513.685,188.248-513.737,188.187-513.831,187.979Z" transform="translate(586.505 -170.543)" fill="#1d272b"/>
      <path id="Trazado_158735" data-name="Trazado 158735" d="M-657.874,357.238a5.788,5.788,0,0,1,3.751,1.351,1.581,1.581,0,0,1,.44,2.29,1.572,1.572,0,0,1-2.309.271,2.8,2.8,0,0,0-3.8.04,1.514,1.514,0,0,1-2.155-.212,1.539,1.539,0,0,1,.189-2.238A5.281,5.281,0,0,1-657.874,357.238Z" transform="translate(698.089 -306.724)" fill="#1d272b"/>
      <path id="Trazado_158736" data-name="Trazado 158736" d="M-691.963,287.055c-.3-.1-.6-.179-.887-.3-1.7-.726-3.4-1.452-5.09-2.2-1.125-.5-1.526-1.315-1.126-2.224s1.261-1.176,2.4-.694c1.8.764,3.593,1.53,5.37,2.337a1.378,1.378,0,0,1,.87,1.874c-.247.548-.856.932-1.3,1.39Z" transform="translate(727.212 -246.827)" fill="#1d272b"/>
      <path id="Trazado_158737" data-name="Trazado 158737" d="M-623.007,285.919a6.259,6.259,0,0,1-1.227-1.339,1.286,1.286,0,0,1,.679-1.77c1.988-.929,4-1.81,6.04-2.617a1.423,1.423,0,0,1,1.906.844,1.354,1.354,0,0,1-.557,1.911c-2.039.976-4.139,1.827-6.218,2.719a1.62,1.62,0,0,1-.412.061Z" transform="translate(668.098 -245.78)" fill="#1d272b"/>
      <path id="Trazado_158738" data-name="Trazado 158738" d="M-690.19,314.911a10.283,10.283,0,0,1-.007,1.15,1.451,1.451,0,0,1-1.426,1.4,1.38,1.38,0,0,1-1.62-1.161,9,9,0,0,1-.013-2.7,1.4,1.4,0,0,1,1.693-1.2,1.454,1.454,0,0,1,1.375,1.455c.031.346.005.7.005,1.046Z" transform="translate(722.579 -271.308)" fill="#1d272b"/>
      <path id="Trazado_158739" data-name="Trazado 158739" d="M-606.842,314.877c0-.314-.019-.629,0-.941a1.529,1.529,0,0,1,1.512-1.547,1.533,1.533,0,0,1,1.627,1.439,11.767,11.767,0,0,1,0,2.194,1.538,1.538,0,0,1-1.622,1.447,1.54,1.54,0,0,1-1.516-1.546C-606.863,315.576-606.842,315.226-606.842,314.877Z" transform="translate(654.258 -271.301)" fill="#1d272b"/>
    </g>
  </g>
</svg>
