<svg id="icon8" xmlns="http://www.w3.org/2000/svg" xmlns:xlink="http://www.w3.org/1999/xlink" width="105.91" height="105.91" viewBox="0 0 105.91 105.91">
  <defs>
    <radialGradient id="radial-gradient" cx="0.076" cy="0.019" r="1.465" gradientTransform="translate(0.001)" gradientUnits="objectBoundingBox">
      <stop offset="0" stop-color="#f6f6f7"/>
      <stop offset="0.477" stop-color="#f9f9fa"/>
      <stop offset="0.715" stop-color="#fff"/>
    </radialGradient>
  </defs>
  <g id="Grupo_18423" data-name="Grupo 18423" transform="translate(0 0)">
    <g id="Grupo_18421" data-name="Grupo 18421">
      <g id="Grupo_18420" data-name="Grupo 18420">
        <g id="Grupo_18419" data-name="Grupo 18419">
          <path id="Trazado_40936" data-name="Trazado 40936" d="M300.533,2198.675a52.955,52.955,0,1,1-52.954-52.954A52.954,52.954,0,0,1,300.533,2198.675Z" transform="translate(-194.623 -2145.721)" fill="#fff"/>
        </g>
      </g>
    </g>
    <path id="Trazado_40937" data-name="Trazado 40937" d="M300.034,2198.131a52.954,52.954,0,1,0-52.954,52.956A52.746,52.746,0,0,0,300.034,2198.131Z" transform="translate(-194.124 -2145.177)" fill="url(#radial-gradient)"/>
    <path id="Trazado_40938" data-name="Trazado 40938" d="M283.1,2193.749a40.42,40.42,0,1,0-40.42,40.42A40.269,40.269,0,0,0,283.1,2193.749Z" transform="translate(-189.561 -2140.619)" fill="none" stroke="#1d272b" stroke-miterlimit="10" stroke-width="4"/>
    <g id="Grupo_18422" data-name="Grupo 18422" transform="translate(9.382 29.73)">
      <path id="Trazado_40939" data-name="Trazado 40939" d="M291.719,2164.488a52.962,52.962,0,0,1-91.174,52.736,52.793,52.793,0,0,0,91.174-52.736Z" transform="translate(-200.545 -2164.488)" fill="#eceef0"/>
    </g>
  </g>
  <path id="Trazado_160218" data-name="Trazado 160218" d="M12.721-6.875,19-27.727h6.36L15.71,0H9.75L.133-27.727H6.475ZM46.389,0h-19V-3.771l8.969-9.56a22.127,22.127,0,0,0,2.733-3.523,5.66,5.66,0,0,0,.885-2.856,4.235,4.235,0,0,0-.933-2.9,3.368,3.368,0,0,0-2.666-1.057,3.633,3.633,0,0,0-2.942,1.285A5.092,5.092,0,0,0,32.354-19H26.832a9.09,9.09,0,0,1,1.209-4.627,8.523,8.523,0,0,1,3.418-3.285,10.389,10.389,0,0,1,5.008-1.19,9.837,9.837,0,0,1,6.656,2.057,7.276,7.276,0,0,1,2.371,5.808,9.323,9.323,0,0,1-1.066,4.189,23.281,23.281,0,0,1-3.656,4.97l-6.3,6.646H46.389Z" transform="translate(29.682 68.851)" fill="#12263f"/>
</svg>
