<svg id="icon1" xmlns="http://www.w3.org/2000/svg" xmlns:xlink="http://www.w3.org/1999/xlink" width="105.91" height="105.91" viewBox="0 0 105.91 105.91">
  <defs>
    <radialGradient id="radial-gradient" cx="0.076" cy="0.019" r="1.465" gradientTransform="translate(0.001)" gradientUnits="objectBoundingBox">
      <stop offset="0" stop-color="#f6f6f7"/>
      <stop offset="0.477" stop-color="#f9f9fa"/>
      <stop offset="0.715" stop-color="#fff"/>
    </radialGradient>
  </defs>
  <g id="Grupo_18423" data-name="Grupo 18423" transform="translate(0 0)">
    <g id="Grupo_18421" data-name="Grupo 18421">
      <g id="Grupo_18420" data-name="Grupo 18420">
        <g id="Grupo_18419" data-name="Grupo 18419">
          <path id="Trazado_40936" data-name="Trazado 40936" d="M300.533,2198.675a52.955,52.955,0,1,1-52.954-52.954A52.954,52.954,0,0,1,300.533,2198.675Z" transform="translate(-194.623 -2145.721)" fill="#fff"/>
        </g>
      </g>
    </g>
    <path id="Trazado_40937" data-name="Trazado 40937" d="M300.034,2198.131a52.954,52.954,0,1,0-52.954,52.956A52.746,52.746,0,0,0,300.034,2198.131Z" transform="translate(-194.124 -2145.177)" fill="url(#radial-gradient)"/>
    <path id="Trazado_40938" data-name="Trazado 40938" d="M283.1,2193.749a40.42,40.42,0,1,0-40.42,40.42A40.269,40.269,0,0,0,283.1,2193.749Z" transform="translate(-189.561 -2140.619)" fill="none" stroke="#1d272b" stroke-miterlimit="10" stroke-width="4"/>
    <g id="Grupo_18422" data-name="Grupo 18422" transform="translate(9.382 29.73)">
      <path id="Trazado_40939" data-name="Trazado 40939" d="M291.719,2164.488a52.962,52.962,0,0,1-91.174,52.736,52.793,52.793,0,0,0,91.174-52.736Z" transform="translate(-200.545 -2164.488)" fill="#eceef0"/>
    </g>
  </g>
  <g id="orc9hl" transform="translate(372.042 -1649.666)">
    <g id="Grupo_90664" data-name="Grupo 90664" transform="translate(-338.002 1682.829)">
      <path id="Trazado_145267" data-name="Trazado 145267" d="M-304.8,1725.971H-338v-43.122c.124-.006.255-.019.387-.019q13.15,0,26.3.009a.931.931,0,0,1,.588.231q2.893,2.772,5.755,5.576a.61.61,0,0,1,.188.378c.011,1.881.007,3.762,0,5.644a.641.641,0,0,1-.043.139c-.208-.114-.4-.234-.6-.323-.629-.279-1.256-.563-1.9-.811a.435.435,0,0,1-.335-.487c.016-.951.006-1.9.006-2.905h-4.782v-4.538h-22.712v37.36c.146.007.279.019.413.019q13.319,0,26.638.009c.376,0,.453-.12.448-.469-.02-1.354,0-2.709-.013-4.063a.44.44,0,0,1,.327-.492c.751-.309,1.482-.668,2.22-1.008.088-.041.175-.085.3-.146Z" transform="translate(338.002 -1682.829)" fill="#1d272b"/>
      <path id="Trazado_145268" data-name="Trazado 145268" d="M-143.005,1842.578a11.857,11.857,0,0,1,11.946-11.752,11.842,11.842,0,0,1,11.767,12,11.98,11.98,0,0,1-11.965,11.736A12.022,12.022,0,0,1-143.005,1842.578Zm11.773,8.976a8.913,8.913,0,0,0,8.968-8.831,9.037,9.037,0,0,0-8.9-8.925,8.856,8.856,0,0,0-8.852,8.789A8.839,8.839,0,0,0-131.232,1851.553Z" transform="translate(157.68 -1819.688)" fill="#1d272b"/>
      <path id="Trazado_145269" data-name="Trazado 145269" d="M129.207,2113.558l-2.679,2.564-8.916-9.3,2.676-2.569Z" transform="translate(-83.325 -2072.539)" fill="#1d272b"/>
      <path id="Trazado_145270" data-name="Trazado 145270" d="M-249.649,2048.768c-.113.007-.209.017-.306.017h-7.9a1.1,1.1,0,0,1-1.111-.547,1.341,1.341,0,0,1,.043-1.391.967.967,0,0,1,.891-.461q3.536-.008,7.071,0a.383.383,0,0,1,.294.152C-250.321,2047.262-250,2047.994-249.649,2048.768Z" transform="translate(265.073 -2019.023)" fill="#1d272b"/>
      <path id="Trazado_145271" data-name="Trazado 145271" d="M-250.743,1804.449c.978,0,1.957.025,2.935-.007a1.221,1.221,0,0,1,1.072,1.882.994.994,0,0,1-.9.521c-2.082.008-4.164.014-6.246,0a1.105,1.105,0,0,1-1.089-1.2,1.117,1.117,0,0,1,1.14-1.191c1.028-.016,2.057,0,3.085,0Z" transform="translate(261.217 -1795.29)" fill="#008f85"/>
      <path id="Trazado_145272" data-name="Trazado 145272" d="M-250.989,1937.828c-.146.724-.293,1.418-.424,2.116-.038.2-.137.256-.332.256-2.1-.006-4.208,0-6.312-.009a1.1,1.1,0,0,1-1.169-1.192,1.1,1.1,0,0,1,1.125-1.2c2.329-.012,4.659,0,6.988,0A.645.645,0,0,1-250.989,1937.828Z" transform="translate(265.155 -1918.609)" fill="#1d272b"/>
      <path id="Trazado_145273" data-name="Trazado 145273" d="M-250.767,1858.362c-.991,0-1.981,0-2.971,0a1.12,1.12,0,0,1-1.236-1.165,1.128,1.128,0,0,1,1.221-1.224q2.99-.015,5.98,0a1.113,1.113,0,0,1,1.215,1.19,1.121,1.121,0,0,1-1.238,1.2C-248.786,1858.366-249.776,1858.362-250.767,1858.362Z" transform="translate(261.222 -1842.935)" fill="#008f85"/>
      <path id="Trazado_145274" data-name="Trazado 145274" d="M-251.592,1989.38l.215,2.362c-.106.01-.211.029-.316.029q-3.141,0-6.283,0a1.211,1.211,0,0,1-1.08-1.888.891.891,0,0,1,.79-.5C-256.048,1989.374-253.831,1989.38-251.592,1989.38Z" transform="translate(265.177 -1966.31)" fill="#1d272b"/>
      <path id="Trazado_145275" data-name="Trazado 145275" d="M-98.982,2131.094a3.543,3.543,0,0,1-.391.042c-1.965,0-3.93.007-5.895,0a1.2,1.2,0,0,1-1.056-1.885,1.241,1.241,0,0,1,1.525-.431A14.079,14.079,0,0,0-98.982,2131.094Z" transform="translate(123.952 -2095.142)" fill="#1d272b"/>
      <path id="Trazado_145276" data-name="Trazado 145276" d="M65.661,1911.67v-13.607a20,20,0,0,1,1.579,1.268,12.129,12.129,0,0,1,1.161,1.423.812.812,0,0,1,.1.459c.006,2.295-.02,4.59.02,6.884a2.311,2.311,0,0,1-.547,1.61,8.452,8.452,0,0,1-2.16,1.905A.99.99,0,0,1,65.661,1911.67Z" transform="translate(-35.284 -1881.866)" fill="#1d272b"/>
      <path id="Trazado_145277" data-name="Trazado 145277" d="M-89.224,1989.252c2.048,0,4.04-.011,6.032.006a1.08,1.08,0,0,1,1.071,1.2,1.091,1.091,0,0,1-1.058,1.181c-.537.028-1.077.01-1.616.01-1.24,0-2.481-.009-3.721.008-.27,0-.39-.087-.43-.336-.091-.568-.188-1.134-.275-1.7A2.558,2.558,0,0,1-89.224,1989.252Z" transform="translate(107.952 -1966.19)" fill="#1d272b"/>
      <path id="Trazado_145278" data-name="Trazado 145278" d="M-87,1940.113a6.821,6.821,0,0,1,.819-2.234.383.383,0,0,1,.289-.109c1.565-.006,3.13-.013,4.7,0a1.085,1.085,0,0,1,1.138,1.177,1.074,1.074,0,0,1-1.066,1.2c-1.915.023-3.831.009-5.746.008A.485.485,0,0,1-87,1940.113Z" transform="translate(105.886 -1918.577)" fill="#1d272b"/>
      <path id="Trazado_145279" data-name="Trazado 145279" d="M-71.91,2046.354c1.637,0,3.189-.012,4.74.005a1.083,1.083,0,0,1,1.07,1.167,1.1,1.1,0,0,1-1.024,1.21c-.724.036-1.452.014-2.178.014a.355.355,0,0,1-.176-.049A7.8,7.8,0,0,1-71.91,2046.354Z" transform="translate(91.935 -2018.993)" fill="#1d272b"/>
    </g>
  </g>
</svg>
