<svg xmlns="http://www.w3.org/2000/svg" xmlns:xlink="http://www.w3.org/1999/xlink" width="126.927" height="126.927" viewBox="0 0 126.927 126.927">
  <defs>
    <radialGradient id="radial-gradient" cx="0.076" cy="0.019" r="1.465" gradientTransform="translate(0.001)" gradientUnits="objectBoundingBox">
      <stop offset="0" stop-color="#f6f6f7"/>
      <stop offset="0.477" stop-color="#f9f9fa"/>
      <stop offset="0.715" stop-color="#fff"/>
    </radialGradient>
  </defs>
  <g id="icon6" transform="translate(-217 -741.333)">
    <g id="Grupo_42274" data-name="Grupo 42274" transform="translate(217 741.333)">
      <g id="Grupo_18423" data-name="Grupo 18423" transform="translate(0 0)">
        <g id="Grupo_18421" data-name="Grupo 18421">
          <g id="Grupo_18420" data-name="Grupo 18420">
            <g id="Grupo_18419" data-name="Grupo 18419">
              <path id="Trazado_40936" data-name="Trazado 40936" d="M321.55,2209.183a63.464,63.464,0,1,1-63.463-63.462A63.463,63.463,0,0,1,321.55,2209.183Z" transform="translate(-194.623 -2145.721)" fill="#fff"/>
            </g>
          </g>
        </g>
        <path id="Trazado_40937" data-name="Trazado 40937" d="M320.783,2208.346a63.462,63.462,0,1,0-63.463,63.465A63.213,63.213,0,0,0,320.783,2208.346Z" transform="translate(-193.856 -2144.885)" fill="url(#radial-gradient)"/>
        <path id="Trazado_40938" data-name="Trazado 40938" d="M298.935,2201.548a48.442,48.442,0,1,0-48.441,48.441A48.262,48.262,0,0,0,298.935,2201.548Z" transform="translate(-186.837 -2137.874)" fill="none" stroke="#008f85" stroke-miterlimit="10" stroke-width="4"/>
        <g id="Grupo_18422" data-name="Grupo 18422" transform="translate(11.243 35.63)">
          <path id="Trazado_40939" data-name="Trazado 40939" d="M309.812,2164.488a63.471,63.471,0,0,1-109.267,63.2,63.27,63.27,0,0,0,109.267-63.2Z" transform="translate(-200.545 -2164.488)" fill="#eceef0"/>
        </g>
      </g>
    </g>
    <g id="LJPqPp" transform="translate(2368.108 811.004)">
      <g id="Grupo_121155" data-name="Grupo 121155" transform="translate(-2116.153 -26.932)">
        <path id="Trazado_159180" data-name="Trazado 159180" d="M-2112.67-22.918c0-.913,0-1.754,0-2.6,0-1.074.346-1.418,1.412-1.417q10.49,0,20.981,0a4.576,4.576,0,0,1,3.532,1.561,22.044,22.044,0,0,1,2.146-1.259,3.917,3.917,0,0,1,1.565-.288q10.52-.029,21.039-.016c1.07,0,1.4.336,1.4,1.429,0,.807.006,1.613.012,2.42,0,.034.028.068.071.166.292,0,.613,0,.934,0a2.311,2.311,0,0,1,2.466,2.5q0,6.859,0,13.718,0,10.433,0,20.866a2.36,2.36,0,0,1-2.667,2.649q-4.092,0-8.185,0h-.678c0,1.464-.009,2.862,0,4.259a1.186,1.186,0,0,1-.514,1.2,1.171,1.171,0,0,1-1.29-.181c-.717-.446-1.434-.894-2.175-1.3a.785.785,0,0,0-.647,0c-.772.427-1.512.912-2.273,1.358-.948.555-1.68.131-1.684-.972-.006-1.42,0-2.839,0-4.327-.249-.014-.45-.035-.652-.035q-17.752,0-35.505,0c-1.914,0-2.771-.853-2.771-2.773q0-17.177,0-34.354a2.341,2.341,0,0,1,2.593-2.6C-2113.293-22.919-2113.027-22.918-2112.67-22.918Zm25,30.324c.011-.222.026-.391.026-.56q0-14.469,0-28.938a2.541,2.541,0,0,0-2.852-2.837q-9.771-.007-19.542,0h-.565V7.406Zm25.022-32.31c-.207-.011-.339-.025-.471-.025q-9.857,0-19.714,0a2.521,2.521,0,0,0-2.792,2.835q0,14.44,0,28.88c0,.2.018.4.027.6h22.951Zm-50.021,3.973h-.735c-.7,0-.759.059-.759.748q0,17.086,0,34.172c0,.815.008.822.791.822l20.918,0c.165,0,.33-.019.486-.028V13.419h-.881q-8.961,0-17.922,0c-1.76,0-1.906-.156-1.906-1.906q0-15.588.006-31.176Zm52.066.037v.763q0,8.013,0,16.026,0,8.071,0,16.141c0,1.056-.341,1.382-1.382,1.384q-3,.006-6,0h-.625V14.81h.667q3.979,0,7.956,0c.873,0,.873,0,.873-.855q0-16.8,0-33.608C-2059.1-21-2059.1-21-2060.6-20.894Zm-50.011,32.284h22.93V9.444h-22.93Zm47.957-1.939h-22.933V11.4h22.933ZM-2075.2,19.6c.571-.343,1.058-.609,1.517-.917a1.223,1.223,0,0,1,1.5,0c.471.312.969.584,1.526.917V13.464h-4.538Zm-14.7-4.813h6.523V13.45h-6.523Zm12.618,0V13.453h-4.016V14.79Z" transform="translate(2116.153 26.932)" fill="#1d272b"/>
        <path id="Trazado_159181" data-name="Trazado 159181" d="M-2026.388,219.283c-1.766,0-3.531,0-5.3,0a2.727,2.727,0,0,1-.794-.093.9.9,0,0,1-.656-.913.887.887,0,0,1,.649-.915,2.456,2.456,0,0,1,.737-.093q5.383-.012,10.766-.007a2.536,2.536,0,0,1,.737.091.894.894,0,0,1,.653.914.9.9,0,0,1-.647.919,2.471,2.471,0,0,1-.737.092c-1.8.007-3.608,0-5.412,0Z" transform="translate(2042.707 -189.101)" fill="#1d272b"/>
        <path id="Trazado_159182" data-name="Trazado 159182" d="M-2026.307,109.16c-1.784,0-3.568,0-5.351,0a2.9,2.9,0,0,1-.74-.074.9.9,0,0,1-.691-.886.883.883,0,0,1,.607-.943,2.2,2.2,0,0,1,.733-.106q5.438-.012,10.875-.009c.818,0,1.248.3,1.31.906a.976.976,0,0,1-1.047,1.094c-.823.035-1.649.019-2.474.021C-2024.159,109.162-2025.234,109.16-2026.307,109.16Z" transform="translate(2042.669 -91.68)" fill="#1d272b"/>
        <path id="Trazado_159183" data-name="Trazado 159183" d="M-2026.356,70.455c1.787,0,3.574,0,5.361,0a2.745,2.745,0,0,1,.686.063.908.908,0,0,1,.718.927.893.893,0,0,1-.639.925,2,2,0,0,1-.622.092q-5.505.01-11.011.007a2.072,2.072,0,0,1-.457-.043.967.967,0,0,1-.8-1.038.9.9,0,0,1,.888-.894c.708-.04,1.42-.037,2.131-.04C-2028.854,70.451-2027.6,70.455-2026.356,70.455Z" transform="translate(2042.701 -59.225)" fill="#1d272b"/>
        <path id="Trazado_159184" data-name="Trazado 159184" d="M-2026.477,35.847q-2.8,0-5.592,0a.982.982,0,0,1-1.068-.775.877.877,0,0,1,.482-1.065,1.979,1.979,0,0,1,.835-.142c2.152-.009,4.3,0,6.456,0,1.537,0,3.075-.006,4.612.005.7.005,1.118.385,1.129.967.011.6-.43.992-1.148,1.014-.1,0-.192,0-.288,0h-5.419Z" transform="translate(2042.739 -26.852)" fill="#1d272b"/>
        <path id="Trazado_159185" data-name="Trazado 159185" d="M-2026.452,145.959c-1.88,0-3.76.009-5.64,0-.837-.006-1.352-.673-1.067-1.353a1,1,0,0,1,1.005-.63q5.7,0,11.4,0a.98.98,0,0,1,1.077.959.978.978,0,0,1-1.073,1.018c-1.9.014-3.8,0-5.7,0Z" transform="translate(2042.799 -124.262)" fill="#1d272b"/>
        <path id="Trazado_159186" data-name="Trazado 159186" d="M-2026.419,182.679h-5.238c-.154,0-.308.007-.46,0a1.025,1.025,0,0,1-1.051-1,.964.964,0,0,1,1.048-.981c1.228-.023,2.456-.016,3.684-.017q3.655,0,7.31,0h.172c.875.006,1.339.35,1.34.993s-.474,1-1.337,1q-2.734,0-5.468,0Z" transform="translate(2042.737 -156.738)" fill="#1d272b"/>
        <path id="Trazado_159187" data-name="Trazado 159187" d="M-1797.8,219.28c-1.785,0-3.569,0-5.354,0a2.659,2.659,0,0,1-.682-.078.891.891,0,0,1-.7-.936.893.893,0,0,1,.71-.926,2.553,2.553,0,0,1,.625-.075q5.411,0,10.823.006a2.64,2.64,0,0,1,.682.077.9.9,0,0,1,.7.935.9.9,0,0,1-.658.912,2.422,2.422,0,0,1-.737.091c-1.8.007-3.608,0-5.412,0Z" transform="translate(1840.469 -189.104)" fill="#1d272b"/>
        <path id="Trazado_159188" data-name="Trazado 159188" d="M-1797.745,109.16c-1.784,0-3.568,0-5.351,0a2.838,2.838,0,0,1-.683-.067.888.888,0,0,1-.7-.874.879.879,0,0,1,.586-.954,2.362,2.362,0,0,1,.789-.113q5.351-.008,10.7,0c.978,0,1.453.329,1.455,1s-.476,1.012-1.444,1.014q-2.675,0-5.351,0Z" transform="translate(1840.421 -91.686)" fill="#1d272b"/>
        <path id="Trazado_159189" data-name="Trazado 159189" d="M-1797.7,70.462c1.749,0,3.5,0,5.246,0a3.694,3.694,0,0,1,.744.058.884.884,0,0,1,.733.851.9.9,0,0,1-.618.995,2.175,2.175,0,0,1-.735.1q-5.39.007-10.78,0a2.429,2.429,0,0,1-.792-.108.884.884,0,0,1-.6-.949.9.9,0,0,1,.7-.882,2.952,2.952,0,0,1,.742-.069c1.787-.005,3.574,0,5.361,0Z" transform="translate(1840.438 -59.224)" fill="#1d272b"/>
        <path id="Trazado_159190" data-name="Trazado 159190" d="M-1797.749,35.84c-1.806,0-3.613,0-5.419-.006a1.962,1.962,0,0,1-.782-.13.884.884,0,0,1-.507-1.05.882.882,0,0,1,.811-.774,8.293,8.293,0,0,1,1.036-.03q5.16,0,10.319,0c.135,0,.27,0,.4.011a.987.987,0,0,1,.944.974.963.963,0,0,1-.983.99c-1.249.024-2.5.013-3.747.016C-1796.366,35.841-1797.058,35.84-1797.749,35.84Z" transform="translate(1840.416 -26.839)" fill="#1d272b"/>
        <path id="Trazado_159191" data-name="Trazado 159191" d="M-1797.838,145.9c-1.88,0-3.76,0-5.64,0a1.045,1.045,0,0,1-1.08-.6.98.98,0,0,1,.964-1.379c1.093-.024,2.187-.009,3.28-.009q3.913,0,7.827,0a3.3,3.3,0,0,1,.574.026.975.975,0,0,1,.819.968.973.973,0,0,1-.874.976,4,4,0,0,1-.517.019h-5.352Z" transform="translate(1840.566 -124.209)" fill="#1d272b"/>
        <path id="Trazado_159192" data-name="Trazado 159192" d="M-1797.71,180.675c1.8,0,3.607,0,5.41,0,.246,0,.569-.034.72.1a1.48,1.48,0,0,1,.571.886c0,.3-.32.645-.576.888-.135.129-.436.112-.662.112q-5.5.007-10.993,0a1.93,1.93,0,0,1-.62-.086.9.9,0,0,1-.638-1.029.894.894,0,0,1,.8-.844,3.483,3.483,0,0,1,.573-.034q2.705,0,5.41,0Z" transform="translate(1840.44 -156.729)" fill="#1d272b"/>
      </g>
    </g>
  </g>
</svg>
