<svg id="icon2" xmlns="http://www.w3.org/2000/svg" xmlns:xlink="http://www.w3.org/1999/xlink" width="105.91" height="105.91" viewBox="0 0 105.91 105.91">
  <defs>
    <radialGradient id="radial-gradient" cx="0.076" cy="0.019" r="1.465" gradientTransform="translate(0.001)" gradientUnits="objectBoundingBox">
      <stop offset="0" stop-color="#f6f6f7"/>
      <stop offset="0.477" stop-color="#f9f9fa"/>
      <stop offset="0.715" stop-color="#fff"/>
    </radialGradient>
  </defs>
  <g id="Grupo_18423" data-name="Grupo 18423" transform="translate(0 0)">
    <g id="Grupo_18421" data-name="Grupo 18421">
      <g id="Grupo_18420" data-name="Grupo 18420">
        <g id="Grupo_18419" data-name="Grupo 18419">
          <path id="Trazado_40936" data-name="Trazado 40936" d="M300.533,2198.675a52.955,52.955,0,1,1-52.954-52.954A52.954,52.954,0,0,1,300.533,2198.675Z" transform="translate(-194.623 -2145.721)" fill="#fff"/>
        </g>
      </g>
    </g>
    <path id="Trazado_40937" data-name="Trazado 40937" d="M300.034,2198.131a52.954,52.954,0,1,0-52.954,52.956A52.746,52.746,0,0,0,300.034,2198.131Z" transform="translate(-194.124 -2145.177)" fill="url(#radial-gradient)"/>
    <path id="Trazado_40938" data-name="Trazado 40938" d="M283.1,2193.749a40.42,40.42,0,1,0-40.42,40.42A40.269,40.269,0,0,0,283.1,2193.749Z" transform="translate(-189.561 -2140.619)" fill="none" stroke="#1d272b" stroke-miterlimit="10" stroke-width="4"/>
    <g id="Grupo_18422" data-name="Grupo 18422" transform="translate(9.382 29.73)">
      <path id="Trazado_40939" data-name="Trazado 40939" d="M291.719,2164.488a52.962,52.962,0,0,1-91.174,52.736,52.793,52.793,0,0,0,91.174-52.736Z" transform="translate(-200.545 -2164.488)" fill="#eceef0"/>
    </g>
  </g>
  <g id="AQnrIy.tif" transform="translate(-2207.87 -137.083)">
    <g id="Grupo_122201" data-name="Grupo 122201" transform="translate(2240.549 168.137)">
      <path id="Trazado_159700" data-name="Trazado 159700" d="M2247.015,217.1a5.621,5.621,0,0,1-.65-.486c-1.818-1.806-3.621-3.629-5.447-5.427a1.138,1.138,0,0,1-.312-1.235,9.8,9.8,0,0,1,3.047-4.945c3.27-3.116,6.416-6.361,9.6-9.565a1.439,1.439,0,0,1,1.114-.457c1.622.015,3.244.016,4.865-.006a1.067,1.067,0,0,0,.676-.269q6.789-6.758,13.551-13.543a2.246,2.246,0,0,0,.4-.559c.558-1.093,1.091-2.2,1.661-3.288a1.734,1.734,0,0,1,.561-.628c1.661-1.08,3.337-2.138,5.009-3.2.532-.338.762-.309,1.216.143.554.552,1.109,1.1,1.659,1.659a.729.729,0,0,1,.122,1.113c-1.085,1.71-2.17,3.42-3.271,5.119a2.195,2.195,0,0,1-.535.481,1.58,1.58,0,0,1-.385.2,16.843,16.843,0,0,0-5.927,4.246c-3.659,3.793-7.436,7.473-11.153,11.21a.936.936,0,0,0-.245.592q-.029,2.52-.005,5.04a1.205,1.205,0,0,1-.384.924q-5.734,5.724-11.466,11.45a2.176,2.176,0,0,1-.762.465c-.915.342-1.843.649-2.766.969Zm13.881-13.549-2-1.992c-.468.471-.955.963-1.446,1.452a8.328,8.328,0,0,1-.693.655.644.644,0,0,1-.9-.9,3.1,3.1,0,0,1,.324-.35c.6-.6,1.2-1.2,1.778-1.772l-.977-1.024-10.817,10.82,1.01,1.1a3,3,0,0,1,.284-.4q3.081-3.092,6.171-6.175c.368-.367.785-.4,1.065-.1s.226.666-.124,1.036c-.07.074-.143.144-.215.215q-2.995,2.994-5.993,5.984a1.337,1.337,0,0,1-.327.2l2.064,2.052Zm-15.778,5.889,10.8-10.812L2254,196.714l-10.8,10.8Zm16.729-12.826,13.327-13.328-.857-.9-13.329,13.33Zm19.776-21.837a.809.809,0,0,0-.142.042c-.928.588-1.819,1.249-2.792,1.749a5.831,5.831,0,0,0-3,3.335c-.158.445-.613.9-.538,1.278.08.405.631.709.954,1.078a.389.389,0,0,0,.559.088c.938-.482,1.885-.944,2.825-1.42a.764.764,0,0,0,.3-.236q1.443-2.244,2.862-4.5a.388.388,0,0,0-.036-.36C2282.289,175.454,2281.94,175.107,2281.623,174.774Zm-20.383,27.072c0-1.281.006-2.535-.009-3.789a.618.618,0,0,0-.2-.357,5.57,5.57,0,0,0-1.411-1.319,4.851,4.851,0,0,0-1.8-.062h-2.1Zm-18.829,6.96c-.14.413-.3.844-.423,1.287a.506.506,0,0,0,.136.4q2.461,2.484,4.943,4.947c.08.08.232.172.319.147.462-.133.915-.3,1.353-.453Z" transform="translate(-2240.549 -172.813)" fill="#1d272b"/>
      <path id="Trazado_159701" data-name="Trazado 159701" d="M2525.639,435.622c-.188.692-.342,1.4-.576,2.074-.292.844-.785.936-1.412.31q-2.75-2.748-5.5-5.5a3.722,3.722,0,0,1-.278-.346l-3.042,3.043c.068.071.173.187.284.3l5.5,5.5c.656.657.561,1.108-.3,1.44a8.334,8.334,0,0,1-11.233-6.327,7.753,7.753,0,0,1,.29-3.979.561.561,0,0,0-.161-.675c-1.557-1.535-3.1-3.086-4.642-4.635a1.785,1.785,0,0,1-.33-.4.6.6,0,0,1,.132-.786.584.584,0,0,1,.758-.077,2.16,2.16,0,0,1,.361.309c1.68,1.678,3.352,3.365,5.042,5.033a.954.954,0,0,1,.262,1.16,6.989,6.989,0,0,0,7.073,9.584c.412-.045.821-.115,1.312-.185-.172-.182-.276-.3-.386-.407q-2.594-2.6-5.189-5.193c-.57-.57-.568-.833.01-1.412q1.749-1.752,3.5-3.5c.533-.532.821-.533,1.349-.006q2.6,2.594,5.189,5.192a4.432,4.432,0,0,1,.3.37l.165-.036a13.9,13.9,0,0,0,.2-1.884,6.986,6.986,0,0,0-4.668-6.529,6.518,6.518,0,0,0-4.749.04,1.224,1.224,0,0,1-1.525-.347c-1.8-1.848-3.634-3.655-5.456-5.479a2.7,2.7,0,0,1-.314-.357.583.583,0,0,1,.063-.793.607.607,0,0,1,.824-.1,2.017,2.017,0,0,1,.36.31q2.628,2.624,5.247,5.257a.538.538,0,0,0,.637.162,8.315,8.315,0,0,1,10.765,6.388c.036.193.091.383.137.575Z" transform="translate(-2481.204 -398.899)" fill="#1d272b"/>
      <path id="Trazado_159702" data-name="Trazado 159702" d="M2252.16,178.949l3.056-3.054a6.821,6.821,0,0,1-.541-.446q-2.647-2.636-5.285-5.281c-.664-.665-.564-1.123.32-1.468a8.348,8.348,0,0,1,11.169,6.163,7.917,7.917,0,0,1-.242,4.112.629.629,0,0,0,.181.757c1.579,1.554,3.139,3.127,4.705,4.694.072.072.146.141.215.216.349.378.374.744.072,1.033a.69.69,0,0,1-1-.092q-2.74-2.728-5.471-5.464a.826.826,0,0,1-.145-1,6.782,6.782,0,0,0,.432-3.7,7.017,7.017,0,0,0-8.771-5.7c.139.151.235.265.34.37q2.594,2.6,5.189,5.193c.578.578.581.842.013,1.41q-1.766,1.767-3.534,3.531c-.518.516-.8.518-1.315,0q-2.613-2.609-5.217-5.227c-.108-.109-.159-.276-.3-.368a5.755,5.755,0,0,0-.215,3.228,7.029,7.029,0,0,0,7.6,5.608,9.515,9.515,0,0,0,1.92-.5.947.947,0,0,1,1.091.256c1.464,1.485,2.945,2.952,4.418,4.428a1.848,1.848,0,0,1,.278.331.593.593,0,0,1-.1.79.6.6,0,0,1-.794.085,2.107,2.107,0,0,1-.361-.309c-1.3-1.3-2.61-2.591-3.894-3.908a.71.71,0,0,0-.831-.2,8.281,8.281,0,0,1-10.5-5.787,8.061,8.061,0,0,1,.328-5.31c.277-.68.78-.779,1.309-.252q2.785,2.775,5.562,5.558C2251.956,178.758,2252.071,178.864,2252.16,178.949Z" transform="translate(-2244.014 -168.137)" fill="#1d272b"/>
      <path id="Trazado_159703" data-name="Trazado 159703" d="M2644.387,190.656c.318.333.666.68.988,1.051a.39.39,0,0,1,.036.36q-1.416,2.261-2.862,4.5a.766.766,0,0,1-.3.236c-.94.476-1.887.938-2.825,1.42a.389.389,0,0,1-.559-.088c-.323-.368-.874-.672-.954-1.078-.074-.374.381-.833.538-1.278a5.832,5.832,0,0,1,3-3.335c.973-.5,1.864-1.161,2.792-1.749A.815.815,0,0,1,2644.387,190.656Z" transform="translate(-2603.315 -188.696)" fill="#008f85"/>
      <path id="Trazado_159704" data-name="Trazado 159704" d="M2257.42,581.579l6.329,6.329c-.439.151-.891.319-1.354.453-.086.025-.239-.067-.319-.147q-2.479-2.465-4.942-4.947a.508.508,0,0,1-.137-.4C2257.115,582.423,2257.28,581.992,2257.42,581.579Z" transform="translate(-2255.559 -545.587)" fill="#008f85"/>
    </g>
  </g>
</svg>
