<svg xmlns="http://www.w3.org/2000/svg" xmlns:xlink="http://www.w3.org/1999/xlink" width="126.927" height="126.927" viewBox="0 0 126.927 126.927">
  <defs>
    <radialGradient id="radial-gradient" cx="0.076" cy="0.019" r="1.465" gradientTransform="translate(0.001)" gradientUnits="objectBoundingBox">
      <stop offset="0" stop-color="#f6f6f7"/>
      <stop offset="0.477" stop-color="#f9f9fa"/>
      <stop offset="0.715" stop-color="#fff"/>
    </radialGradient>
  </defs>
  <g id="icon8" transform="translate(-217 -741.333)">
    <g id="Grupo_42274" data-name="Grupo 42274" transform="translate(217 741.333)">
      <g id="Grupo_18423" data-name="Grupo 18423" transform="translate(0 0)">
        <g id="Grupo_18421" data-name="Grupo 18421">
          <g id="Grupo_18420" data-name="Grupo 18420">
            <g id="Grupo_18419" data-name="Grupo 18419">
              <path id="Trazado_40936" data-name="Trazado 40936" d="M321.55,2209.183a63.464,63.464,0,1,1-63.463-63.462A63.463,63.463,0,0,1,321.55,2209.183Z" transform="translate(-194.623 -2145.721)" fill="#fff"/>
            </g>
          </g>
        </g>
        <path id="Trazado_40937" data-name="Trazado 40937" d="M320.783,2208.346a63.462,63.462,0,1,0-63.463,63.465A63.213,63.213,0,0,0,320.783,2208.346Z" transform="translate(-193.856 -2144.885)" fill="url(#radial-gradient)"/>
        <path id="Trazado_40938" data-name="Trazado 40938" d="M298.935,2201.548a48.442,48.442,0,1,0-48.441,48.441A48.262,48.262,0,0,0,298.935,2201.548Z" transform="translate(-186.837 -2137.874)" fill="none" stroke="#008f85" stroke-miterlimit="10" stroke-width="4"/>
        <g id="Grupo_18422" data-name="Grupo 18422" transform="translate(11.243 35.63)">
          <path id="Trazado_40939" data-name="Trazado 40939" d="M309.812,2164.488a63.471,63.471,0,0,1-109.267,63.2,63.27,63.27,0,0,0,109.267-63.2Z" transform="translate(-200.545 -2164.488)" fill="#eceef0"/>
        </g>
      </g>
    </g>
    <g id="wiMhEI" transform="translate(2854.142 477.623)">
      <g id="Grupo_121157" data-name="Grupo 121157" transform="translate(-2606.703 295.302)">
        <path id="Trazado_159197" data-name="Trazado 159197" d="M-2572.522,378.214c.16-.043.256-.038.292-.082,3.108-3.789,7.3-4.841,11.982-5.378,2.808-.322,5.469-1.918,8.2-2.935.592-.221,1.412-.77,1.758-.56,2.079,1.263,2.956-.4,4.073-1.5.872-.858,1.735-1.727,2.563-2.626a2.283,2.283,0,0,1,3.271-.334,4.979,4.979,0,0,1,.881,7.523c-3.363,3.458-6.731,6.915-10.244,10.217a13.16,13.16,0,0,1-3.774,1.965c-1.97.869-4,1.6-5.964,2.484-1.819.818-3,2.044-2.814,4.31.169,2.074-.014,4.175.052,6.26.043,1.333-.4,2.041-1.817,2.037q-8.314-.025-16.63,0c-1.386,0-1.907-.624-1.864-1.992.069-2.158-.111-4.329.055-6.476.154-1.988-.908-3.048-2.38-3.947a3.461,3.461,0,0,0-.983-.434c-8.7-2.044-13.88-8.823-19.691-14.712a4.772,4.772,0,0,1,1.307-7.251,3.617,3.617,0,0,1,3.016.38,19.105,19.105,0,0,1,3.206,3.179c.9.978,1.713,1.937,3.248.944.338-.218,1.155.023,1.6.3a23.07,23.07,0,0,0,11.549,3.642,11.021,11.021,0,0,1,8.192,4.177A8.83,8.83,0,0,0-2572.522,378.214Zm23.27-5.546-.113-.7a5.9,5.9,0,0,0-2.243.2,22.2,22.2,0,0,1-9.959,3.136,21.122,21.122,0,0,0-3.611.581,8.29,8.29,0,0,0-6.124,7.491q0,3.78,0,7.561v6.14h6.881c0-2.487-.141-4.793.061-7.07a4.7,4.7,0,0,1,1.353-3.114,43.648,43.648,0,0,1,6.122-3.471c1.9-.974,4.2-1.449,5.747-2.8,3.464-3.021,6.6-6.427,9.813-9.725,1.33-1.363,1.092-2.818-.739-4.241-1.574,1.793-3.207,3.57-4.738,5.429-.961,1.168-1.512,2.884-2.7,3.607a43.228,43.228,0,0,1-7.4,3.289c-1.053.393-2.805,1.5-3.246-.345-.391-1.64,1.628-1.453,2.679-1.72A18,18,0,0,0-2549.253,372.668Zm-24.242,24.487c0-5.406,0-10.646-.01-15.885a1.26,1.26,0,0,0-.235-.806c-1.975-2.053-3.66-4.542-6.871-4.824-4.537-.4-8.975-1.089-12.937-3.608-.459-.292-1.311.035-2.558.109.854.815,1.1,1.079,1.37,1.3,2.58,2.093,5.662,3.018,8.793,3.887.552.154.918.979,1.369,1.494-.614.2-1.283.676-1.833.563a18.377,18.377,0,0,1-5.355-1.539c-2.135-1.209-4.8-2.569-5.726-4.565-1.331-2.882-3.691-4.406-5.483-6.655-1.666,1.746-1.741,2.97-.386,4.4.889.942,1.882,1.792,2.725,2.772,4.287,4.979,9.189,9.053,15.66,10.887a5.047,5.047,0,0,1,1.177.534c2.128,1.266,3.764,2.752,3.456,5.622a60.374,60.374,0,0,0-.042,6.306Z" transform="translate(2606.703 -334.445)" fill="#1d272b"/>
        <path id="Trazado_159198" data-name="Trazado 159198" d="M-2538.234,308.993c4.936,2.85,7.577,9.75,5.9,15.3a5.659,5.659,0,0,1-5.768,4.279c-5.475.025-10.95-.008-16.426.013-2.71.01-4.672-1.248-5.44-3.759a14.723,14.723,0,0,1,2-13.145c.769-1.116,2.147-1.814,3.464-2.879-1.526-4.654-1.222-9.208,3.728-12.249a8.9,8.9,0,0,1,10.134.71C-2536.751,300.5-2536.664,304.61-2538.234,308.993Zm-8,17.22c2.738,0,5.478-.046,8.215.014a3.236,3.236,0,0,0,3.573-3.026,14.727,14.727,0,0,0-1.753-9.8c-1.226-2.041-3.088-2.382-5.255-1.168a9.249,9.249,0,0,1-9.465.074c-2.636-1.443-4.5-.971-5.963,1.746a14.628,14.628,0,0,0-1.234,9.262,3.257,3.257,0,0,0,3.668,2.922C-2551.714,326.151-2548.974,326.214-2546.235,326.212Zm-6.814-21.661a6.736,6.736,0,0,0,6.9,6.765,6.708,6.708,0,0,0,6.62-6.817,6.638,6.638,0,0,0-6.552-6.847A6.686,6.686,0,0,0-2553.049,304.552Z" transform="translate(2580.592 -295.302)" fill="#1d272b"/>
      </g>
    </g>
  </g>
</svg>
