<svg id="icon5" xmlns="http://www.w3.org/2000/svg" xmlns:xlink="http://www.w3.org/1999/xlink" width="121.001" height="120.999" viewBox="0 0 121.001 120.999">
  <defs>
    <radialGradient id="radial-gradient" cx="0.077" cy="0.019" r="1.465" gradientTransform="matrix(1, 0, 0, -1, 0, 9.666)" gradientUnits="objectBoundingBox">
      <stop offset="0" stop-color="#f4f4f5"/>
      <stop offset="0.477" stop-color="#f7f8fa"/>
      <stop offset="0.715" stop-color="#fff"/>
    </radialGradient>
  </defs>
  <g id="Group_18531" data-name="Group 18531">
    <g id="Group_18423" data-name="Group 18423">
      <g id="Group_18421" data-name="Group 18421">
        <g id="Group_18420" data-name="Group 18420">
          <g id="Group_18419" data-name="Group 18419">
            <path id="Path_40936" data-name="Path 40936" d="M243.8,575.329a60.5,60.5,0,1,1-60.5-60.5h0A60.5,60.5,0,0,1,243.8,575.329Z" transform="translate(-122.8 -514.832)" fill="#fff"/>
          </g>
        </g>
      </g>
      <path id="Path_40937" data-name="Path 40937" d="M243.8,575.329a60.259,60.259,0,1,0,0,.477Z" transform="translate(-122.798 -514.832)" fill="url(#radial-gradient)"/>
      <path id="Path_40938" data-name="Path 40938" d="M221.969,567.828a46.18,46.18,0,1,0-46.179,46.179h0a46.008,46.008,0,0,0,46.179-45.836Z" transform="translate(-115.106 -507.129)" fill="none" stroke="#1d272d" stroke-miterlimit="10" stroke-width="3"/>
      <g id="Group_18422" data-name="Group 18422" transform="translate(10.719 33.966)">
        <path id="Path_40939" data-name="Path 40939" d="M232,530.78a60.506,60.506,0,0,1-104.163,60.246A60.314,60.314,0,0,0,232,530.78Z" transform="translate(-127.833 -530.78)" fill="#e7e9eb"/>
      </g>
    </g>
  </g>
  <g id="orc9hl" transform="translate(373.683 -1649.037)">
    <g id="Grupo_90664" data-name="Grupo 90664" transform="translate(-338.002 1682.829)">
      <path id="Trazado_145267" data-name="Trazado 145267" d="M-297.317,1735.7H-338v-52.849c.152-.008.313-.024.474-.024q16.116,0,32.231.011a1.141,1.141,0,0,1,.721.284q3.545,3.4,7.054,6.833a.748.748,0,0,1,.231.464c.014,2.305.009,4.611.006,6.917a.793.793,0,0,1-.053.17c-.255-.139-.485-.286-.732-.4-.771-.342-1.54-.691-2.326-.994a.532.532,0,0,1-.411-.6c.02-1.166.008-2.333.008-3.56h-5.86V1686.4h-27.835v45.787c.179.009.342.023.506.023q16.323,0,32.647.011c.46,0,.555-.146.548-.575-.024-1.66,0-3.32-.016-4.98a.54.54,0,0,1,.4-.6c.921-.378,1.816-.819,2.721-1.235.108-.05.214-.1.369-.179Z" transform="translate(338.002 -1682.829)" fill="#1d272b"/>
      <path id="Trazado_145268" data-name="Trazado 145268" d="M-143.005,1845.229a14.531,14.531,0,0,1,14.641-14.4,14.514,14.514,0,0,1,14.421,14.708,14.681,14.681,0,0,1-14.664,14.383A14.733,14.733,0,0,1-143.005,1845.229Zm14.429,11a10.924,10.924,0,0,0,10.99-10.823,11.075,11.075,0,0,0-10.9-10.938,10.854,10.854,0,0,0-10.848,10.772A10.833,10.833,0,0,0-128.576,1856.229Z" transform="translate(160.99 -1817.176)" fill="#1d272b"/>
      <path id="Trazado_145269" data-name="Trazado 145269" d="M131.822,2115.657l-3.283,3.143-10.927-11.4,3.279-3.148Z" transform="translate(-75.592 -2065.385)" fill="#1d272b"/>
      <path id="Trazado_145270" data-name="Trazado 145270" d="M-247.508,2049.306c-.138.008-.257.021-.375.021h-9.681a1.348,1.348,0,0,1-1.362-.671,1.644,1.644,0,0,1,.053-1.7,1.185,1.185,0,0,1,1.092-.565q4.333-.01,8.666,0a.469.469,0,0,1,.361.186C-248.333,2047.461-247.937,2048.357-247.508,2049.306Z" transform="translate(266.412 -2012.853)" fill="#1d272b"/>
      <path id="Trazado_145271" data-name="Trazado 145271" d="M-249.79,1804.451c1.2,0,2.4.03,3.6-.008a1.5,1.5,0,0,1,1.314,2.306,1.218,1.218,0,0,1-1.1.638c-2.551.01-5.1.017-7.655,0a1.355,1.355,0,0,1-1.335-1.468,1.369,1.369,0,0,1,1.4-1.459c1.26-.02,2.521-.005,3.781-.005Z" transform="translate(262.627 -1793.225)" fill="#008f85"/>
      <path id="Trazado_145272" data-name="Trazado 145272" d="M-249.131,1937.835c-.179.887-.359,1.739-.52,2.593-.047.249-.168.314-.407.314-2.578-.007-5.157,0-7.735-.011a1.351,1.351,0,0,1-1.433-1.461,1.343,1.343,0,0,1,1.379-1.466c2.855-.015,5.709,0,8.564,0A.79.79,0,0,1-249.131,1937.835Z" transform="translate(266.492 -1914.281)" fill="#1d272b"/>
      <path id="Trazado_145273" data-name="Trazado 145273" d="M-249.817,1858.9c-1.214,0-2.428.006-3.642,0a1.372,1.372,0,0,1-1.514-1.428,1.382,1.382,0,0,1,1.5-1.5q3.664-.019,7.329,0a1.364,1.364,0,0,1,1.49,1.458,1.374,1.374,0,0,1-1.517,1.469C-247.39,1858.908-248.6,1858.9-249.817,1858.9Z" transform="translate(262.632 -1839.996)" fill="#008f85"/>
      <path id="Trazado_145274" data-name="Trazado 145274" d="M-249.865,1989.38l.264,2.9c-.13.013-.259.035-.387.036q-3.85,0-7.7,0a1.484,1.484,0,0,1-1.323-2.314,1.093,1.093,0,0,1,.969-.608C-255.326,1989.372-252.609,1989.38-249.865,1989.38Z" transform="translate(266.514 -1961.106)" fill="#1d272b"/>
      <path id="Trazado_145275" data-name="Trazado 145275" d="M-97.279,2131.636a4.434,4.434,0,0,1-.479.051c-2.408,0-4.816.008-7.224,0a1.465,1.465,0,0,1-1.294-2.31,1.522,1.522,0,0,1,1.869-.528A17.247,17.247,0,0,0-97.279,2131.636Z" transform="translate(127.881 -2087.573)" fill="#1d272b"/>
      <path id="Trazado_145276" data-name="Trazado 145276" d="M65.661,1914.739v-16.676a24.53,24.53,0,0,1,1.935,1.554,14.888,14.888,0,0,1,1.423,1.744,1,1,0,0,1,.128.563c.008,2.812-.024,5.625.025,8.436a2.832,2.832,0,0,1-.671,1.973,10.36,10.36,0,0,1-2.647,2.335A1.206,1.206,0,0,1,65.661,1914.739Z" transform="translate(-28.432 -1878.213)" fill="#1d272b"/>
      <path id="Trazado_145277" data-name="Trazado 145277" d="M-89.223,1989.253c2.51,0,4.951-.014,7.392.008a1.324,1.324,0,0,1,1.313,1.473,1.337,1.337,0,0,1-1.3,1.448c-.659.034-1.32.013-1.981.013-1.52,0-3.041-.011-4.561.01-.331,0-.478-.107-.527-.412-.111-.7-.23-1.39-.337-2.086A3.132,3.132,0,0,1-89.223,1989.253Z" transform="translate(112.174 -1960.989)" fill="#1d272b"/>
      <path id="Trazado_145278" data-name="Trazado 145278" d="M-87,1940.643a8.359,8.359,0,0,1,1-2.738.47.47,0,0,1,.354-.134c1.918-.008,3.836-.016,5.754,0a1.329,1.329,0,0,1,1.394,1.442,1.316,1.316,0,0,1-1.307,1.476c-2.347.029-4.695.011-7.043.01A.591.591,0,0,1-87,1940.643Z" transform="translate(110.147 -1914.25)" fill="#1d272b"/>
      <path id="Trazado_145279" data-name="Trazado 145279" d="M-71.91,2046.354c2.006,0,3.908-.015,5.809.007a1.328,1.328,0,0,1,1.311,1.43,1.343,1.343,0,0,1-1.255,1.483c-.888.044-1.779.017-2.669.017a.433.433,0,0,1-.216-.06A9.557,9.557,0,0,1-71.91,2046.354Z" transform="translate(96.451 -2012.823)" fill="#1d272b"/>
    </g>
  </g>
</svg>
