<svg xmlns="http://www.w3.org/2000/svg" xmlns:xlink="http://www.w3.org/1999/xlink" width="267.489" height="159.859" viewBox="0 0 267.489 159.859">
  <defs>
    <linearGradient id="linear-gradient" x1="2.863" y1="-1.338" x2="0.5" y2="1" gradientUnits="objectBoundingBox">
      <stop offset="0" stop-color="#fff"/>
      <stop offset="1" stop-color="#f8f8f8"/>
    </linearGradient>
    <linearGradient id="linear-gradient-5" x1="0.5" x2="0.5" y2="1" gradientUnits="objectBoundingBox">
      <stop offset="0" stop-color="#f5f5f5"/>
      <stop offset="0.25" stop-color="#f5f5f5"/>
      <stop offset="1" stop-color="#a7b3cf"/>
    </linearGradient>
    <linearGradient id="linear-gradient-9" x1="0.5" y1="0" xlink:href="#linear-gradient"/>
  </defs>
  <g id="img-intro1" transform="translate(-854 -186.975)">
    <g id="Grupo_106414" data-name="Grupo 106414" transform="translate(854 177.999)">
      <g id="coronavirus" transform="translate(0 8.975)">
        <g id="Grupo_106376" data-name="Grupo 106376" transform="translate(135.665 1.441)">
          <g id="Grupo_106372" data-name="Grupo 106372" transform="translate(37.861 2.682)">
            <g id="haed" transform="translate(2.817 2.307)">
              <g id="Grupo_106370" data-name="Grupo 106370">
                <g id="Grupo_106367" data-name="Grupo 106367">
                  <path id="Trazado_149848" data-name="Trazado 149848" d="M211.893,34.748c-.594-2.384-.664-5.3.858-7.378,2.392-3.27,8.544-3.924,11.417-1.059a8.564,8.564,0,0,1,2.36,6.8,5.06,5.06,0,0,0,1.331,4.087c.141.133.311.316.23.495s-.3.175-.474.219c-.557.142-.812.782-.9,1.348a23.352,23.352,0,0,1-.736,4.059,1.268,1.268,0,0,1-.52.732,1.535,1.535,0,0,1-.923.093c-1.052-.119-2.1-.293-3.134-.513a.591.591,0,0,0-.182.113,1.523,1.523,0,0,0-.319.757c-.477,2.116-.954,4.226-1.43,6.344a37.186,37.186,0,0,0-7.446-4.568,9.8,9.8,0,0,0,1.485-7.332A18.392,18.392,0,0,1,211.893,34.748Z" transform="translate(-211.5 -24.496)" fill="#ff8f67"/>
                  <path id="Trazado_149849" data-name="Trazado 149849" d="M220.526,39.111a.13.13,0,0,1-.052-.01c-.148-.052-3.666-1.323-4.531-4.2a.155.155,0,0,1,.1-.191.153.153,0,0,1,.19.1c.821,2.728,4.306,3.989,4.342,4a.153.153,0,0,1-.05.3Z" transform="translate(-209.362 -19.578)" fill="#894c4c"/>
                </g>
                <g id="Grupo_106369" data-name="Grupo 106369" transform="translate(12.646 8.956)">
                  <g id="Grupo_106368" data-name="Grupo 106368">
                    <path id="Trazado_149850" data-name="Trazado 149850" d="M221.919,31.423a.411.411,0,0,1-.19.009,1.8,1.8,0,0,0-1.051.162.434.434,0,0,1-.418-.762,2.685,2.685,0,0,1,1.626-.255.432.432,0,0,1,.347.505A.425.425,0,0,1,221.919,31.423Z" transform="translate(-220.034 -30.54)" fill="#1d272b"/>
                    <path id="Trazado_149851" data-name="Trazado 149851" d="M221.369,31.977c.012.356-.116.653-.285.659s-.314-.28-.327-.639.117-.655.286-.662S221.359,31.62,221.369,31.977Z" transform="translate(-219.686 -30.157)" fill="#a86060"/>
                  </g>
                </g>
              </g>
              <path id="Trazado_149852" data-name="Trazado 149852" d="M220.751,35.126a.123.123,0,0,1-.079-.03.122.122,0,0,1-.015-.172,1.326,1.326,0,0,1,1.348-.344.122.122,0,1,1-.061.237,1.1,1.1,0,0,0-1.1.264A.122.122,0,0,1,220.751,35.126Z" transform="translate(-207.102 -19.663)" fill="#894c4c"/>
              <g id="Grupo_106371" data-name="Grupo 106371" transform="translate(6.178 10.276)">
                <path id="Trazado_149853" data-name="Trazado 149853" d="M216.574,32.465a.214.214,0,0,1-.043-.006l-.751-.218a.153.153,0,0,1-.105-.188.15.15,0,0,1,.188-.1l.753.216a.153.153,0,0,1-.041.3Z" transform="translate(-215.669 -31.184)" fill="#894c4c"/>
                <path id="Trazado_149854" data-name="Trazado 149854" d="M216.575,33.553h0a.152.152,0,0,1-.148-.156c.009-.391-.067-1.455-.522-1.677a.153.153,0,0,1-.07-.2.154.154,0,0,1,.2-.07c.708.35.695,1.794.69,1.959A.151.151,0,0,1,216.575,33.553Z" transform="translate(-215.599 -31.431)" fill="#894c4c"/>
              </g>
            </g>
            <path id="Trazado_149855" data-name="Trazado 149855" d="M227.226,26.709a8.84,8.84,0,0,0-4.1-3.2c-3.616-1.374-7.628-.136-10.482,2.4a9.558,9.558,0,0,0-2.663,9.6c.7,2.22,2.252,3.927,2.32,6.308-.01.357.012.719.037,1.079a4.388,4.388,0,0,0,.851-2.475c.341.92.095,2.433.163,3.531a5.2,5.2,0,0,0,2.358-1.159,10.345,10.345,0,0,0,1.465-2.1,8.247,8.247,0,0,0,1.028-3.835c.052-.624.988-2.549,1.612-1.347.32.616-.3,2.393,1.042,2.181a2.658,2.658,0,0,1,.311-2.5c.317-.5,1.525-1.7,1.451-2.3.033.267.052,2.017-.323,2.086,2.5-.465,6.028-3.555,5.654-6.385A4.568,4.568,0,0,0,227.226,26.709Z" transform="translate(-209.599 -22.939)" fill="#1d272b"/>
          </g>
          <path id="Trazado_149856" data-name="Trazado 149856" d="M196.616,117.42c-2.371-1.279-4.785-3.876-7.733-3.267-2.187.45-5.01,2.654-4.826,5.065.153,1.947,2.793,3.3,4.242,4.411,3.516,2.691,6.317,5.137,10.541,6.366,4.106,1.194,10.853,1.184,6.413-4.288-1.4-1.719-3.047-3.153-4.313-5.011-.735-1.082-.36-1.172-1.454-2A21.764,21.764,0,0,0,196.616,117.42Z" transform="translate(-184.048 23.645)" fill="#f7b242"/>
          <g id="Grupo_106373" data-name="Grupo 106373" transform="translate(25.589 28.477)">
            <path id="Trazado_149857" data-name="Trazado 149857" d="M228.308,82.357H210.534c-1.892-.08-3.536-.2-3.536-.2-7.367-.474-6.023-9.177-4.429-14.289,1.014-3.251-.21-5.446.193-8.52.4-3.036,1.547-4.5,1.252-7.708-.44-4.84,4.367-11.3,9.734-11.3h5.176c3.13,0,6.713,1.03,8.8,3.5,2.272,2.685,1.47,6.215,3.135,9.052,1.9,3.241.59,7.413,1.262,10.947.732,3.838.954,7.483,1.368,11.393,0,0,.012.1.022.276C233.592,76.783,233.629,82.047,228.308,82.357Z" transform="translate(-201.317 -40.347)" fill="url(#linear-gradient)"/>
          </g>
          <g id="Grupo_106374" data-name="Grupo 106374" transform="translate(35.993 64.665)">
            <path id="Trazado_149858" data-name="Trazado 149858" d="M234.237,118.158c-2.641.529-6.158.068-8.042,2.418-1.394,1.743-2.162,5.238-.482,6.976,1.357,1.406,4.256.763,6.078.693,4.426-.172,8.142-.077,12.18-1.826,3.924-1.7,9.112-6.013,2.2-7.394-2.171-.434-4.359-.485-6.518-1.108-1.255-.362-1.024-.671-2.4-.615A22.017,22.017,0,0,0,234.237,118.158Z" transform="translate(-200.429 -39.462)" fill="#f7b242"/>
            <path id="Trazado_149859" data-name="Trazado 149859" d="M242.881,106.1c1.485,4.281,1.32,8.888,2.581,13.186,1.11,3.789,2.792,7.791,3.2,11.7.35,3.352,2.75,6.135,3.475,9.377.816,3.654-2.029,3.3-4.5,4.05-1.169.354-1.818,1.351-2.941,1.68-2.239.652-4.331-1.34-6.606-.584-1.726.576-2.685,2.313-4.771,2.218-3.359-.153-4.207-7.77-4.62-10.9-.582-4.394-2.941-8.858-2.909-13.26.034-4.776-2.235-7.993-3.6-12.54s-3.066-8.351-3.93-13.148c-.848-4.7-4.789-7.019-5.746-11.856-.479-2.415-.536-3.792-1.962-5.946-3.613-5.44-3.075-11.671,3.663-14.483a10.682,10.682,0,0,1,13.955,5.66q2.669,6.324,5.343,12.646,3.79,8.964,7.575,17.93c.581,1.375,1.263,2.747,1.757,4.158C242.856,106.028,242.869,106.06,242.881,106.1Z" transform="translate(-208.338 -64.769)" fill="url(#linear-gradient)"/>
          </g>
          <path id="Trazado_149860" data-name="Trazado 149860" d="M218.817,114.3q-.216.671-.436,1.341c-2.55,7.765-6.8,15.274-10.209,22.713-.931,2.032-3.213,9.667-4.88,9.989-3.081.6-6.729-4.376-9.6-5.318-2.485-.819-8.622-2.593-8.492-6.222.159-4.389,3.848-8.84,5.921-12.474,1.191-2.092,1.288-4.176,2.11-6.277,1.434-3.663,4.027-6.544,5.369-10.31.527-1.483,1.086-2.87,1.508-4.408q1.638-5.961,3.275-11.922,2.623-9.555,5.248-19.108a10.646,10.646,0,1,1,20.532,5.638q-2.1,7.657-4.21,15.317C223.009,100.35,221.056,107.35,218.817,114.3Z" transform="translate(-183.492 -0.245)" fill="url(#linear-gradient)"/>
          <path id="Trazado_149861" data-name="Trazado 149861" d="M220.038,37.3a7.739,7.739,0,0,1,3.5-4.677c.686-.443,6.689-2.812,6.874-1.62-.243-1.572,1.083-2.03.856-3.521-.185-1.227-2.169-2.971-3.072-3.651-8.056-6.069-18.038-1.156-21.964,7.252-1.581,3.386-1.741,7.314-1.578,10.986.258,5.84,2.032,14.15,9.38,12.388a15.989,15.989,0,0,1,5.7-.538c4.134.276,2.313-1.471,1.6-4.007-1.056-3.752-2.344-8.282-1.391-12.266C219.976,37.528,220.007,37.412,220.038,37.3Z" transform="translate(-174.143 -21.129)" fill="url(#linear-gradient)"/>
          <path id="Trazado_149862" data-name="Trazado 149862" d="M224.627,32.325a1.191,1.191,0,0,0-.287-.055,19.549,19.549,0,0,0-2.221.1c-1.369.067-2.737.129-4.108.2l-1.065,4.007a3.787,3.787,0,0,0,.834,2.326,3.694,3.694,0,0,0,1.815,1.342,4.884,4.884,0,0,0,1.48.249,4.463,4.463,0,0,0,1.505-.013c.456-.156.63-.6.882-.972a12.153,12.153,0,0,0,1.2-2.285,17.56,17.56,0,0,0,.8-2.758C225.643,33.679,225.423,32.587,224.627,32.325Z" transform="translate(-168.213 -15.767)" fill="url(#linear-gradient-5)"/>
          <path id="Trazado_149863" data-name="Trazado 149863" d="M219.3,33.577s-1.837-4.133-4.131-1.877l-.25.585s2.045-2.713,4.007,1.543S219.3,33.577,219.3,33.577Z" transform="translate(-169.174 -16.361)" fill="url(#linear-gradient-5)"/>
          <path id="Trazado_149864" data-name="Trazado 149864" d="M219.08,34.459s-3.34,0-4.174-2.922l-.207.668s.458,2.3,4.425,2.549S219.08,34.459,219.08,34.459Z" transform="translate(-169.282 -16.115)" fill="url(#linear-gradient-5)"/>
          <g id="Grupo_106375" data-name="Grupo 106375" transform="translate(5.902 27.724)">
            <path id="Trazado_149865" data-name="Trazado 149865" d="M216.78,40.079c-3.989,1.679-6.468,4.008-9.664,7.062a48.155,48.155,0,0,0-4.3,4.432c-1.7,2.085-4.085,3.054-5.807,5.062-1.74,2.032-2.427,4.712-3.924,6.93a16.29,16.29,0,0,0-2.562,5.054c-.636,2.249-1.554,4.559-1.691,6.917-.221,3.826,1.51,4.451,5.077,5.114,3.112.579,3.1.332,4.25-2.636.935-2.414,1.609-4.825,2.7-7.206,1.325-2.894,3.146-3.867,5.438-6.261,2.535-2.645,3.793-4.139,7.233-5.287,2.829-.947,3.155-2.261,4.228-4.918,1.148-2.857,4.373-11.254,1.463-13.88-.811-.732-1.952-.966-2.559.108Z" transform="translate(-187.654 -39.839)" fill="url(#linear-gradient)"/>
            <path id="Trazado_149866" data-name="Trazado 149866" d="M188.112,70.9c.356-2.054.849-6.933,3.962-6.837a7.2,7.2,0,0,1,3.847,1.757c2.15,1.784,1.735,4.994,1.27,7.424a3.664,3.664,0,0,0-.123,1.254c.08.359.56.653.608.941a.987.987,0,0,1-1.193,1.083c-.7-.084-.994-.907-1.732-.646-.7.247-.445,1.059-.667,1.636a1.32,1.32,0,0,1-1.587.837c-.323-.049-.722-.461-.922-.479-.464-.043-.313.314-.728.418s-.424.1-.782-.185c-.089-.067.016-.446-.129-.541s-.36,0-.391-.016c-.322-.173-.562.144-.891-.449a8.414,8.414,0,0,1-.418-2.83A11.933,11.933,0,0,1,188.112,70.9Z" transform="translate(-188.031 -28.17)" fill="#b1e5d2"/>
          </g>
          <path id="Trazado_149867" data-name="Trazado 149867" d="M202.659,57.36l-.218-.107-.176-.166a11.135,11.135,0,0,1,2.519-2.9c.384-.268.859-.667,1.363-1.091,1.759-1.477,3.946-3.319,5.754-2.841a.238.238,0,0,1,.17.292.234.234,0,0,1-.292.17c-1.571-.409-3.737,1.414-5.324,2.746-.511.43-1,.836-1.4,1.116A10.814,10.814,0,0,0,202.659,57.36Z" transform="translate(-175.272 -7.133)" fill="#fff"/>
          <path id="Trazado_149868" data-name="Trazado 149868" d="M230.141,64.069c1.128,1.418,2.3,2.8,3.414,4.239,2.02,2.62,3.362,5.463,5.686,7.855,1.056,1.086,6.142,5.286,1.944,5.748,1.07,1.692,1.783,3.881-.913,4.448-1.022.213-1.006,1-2.432.75-1.132-.2-2.248-1.335-3.112-2.024-2.135-1.7-2.709-3.767-4.268-5.97a26.42,26.42,0,0,0-7.249-6.286c-3.241-2.085-6.594-5.416-6.183-9.525.231-2.338.608-9.432,2.867-10.771,2.82-1.671,6.1,5.308,7.047,6.963A36.555,36.555,0,0,0,230.141,64.069Z" transform="translate(-168.175 -6.122)" fill="url(#linear-gradient-9)"/>
          <path id="Trazado_149869" data-name="Trazado 149869" d="M221.556,74.27a2.066,2.066,0,0,1-.508-.067.239.239,0,1,1,.117-.464,1.3,1.3,0,0,0,1.322-.367c1.391-1.406,1.476-5.982,1.079-7.49a11.783,11.783,0,0,0-.925-2.238,9.978,9.978,0,0,1-1.051-2.817,25.792,25.792,0,0,1-.222-3.782c0-.44-.009-.871-.022-1.283a.239.239,0,0,1,.233-.246.246.246,0,0,1,.247.231c.012.415.016.849.021,1.294a25.474,25.474,0,0,0,.218,3.709,9.46,9.46,0,0,0,1.006,2.681,12.153,12.153,0,0,1,.957,2.329c.416,1.58.393,6.341-1.2,7.95A1.749,1.749,0,0,1,221.556,74.27Z" transform="translate(-166.309 -4.561)" fill="#fff"/>
          <path id="Trazado_149870" data-name="Trazado 149870" d="M198.185,141.574a.294.294,0,0,1-.138-.036.288.288,0,0,1-.116-.39,27.232,27.232,0,0,0,1.855-4.73,36.275,36.275,0,0,1,1.359-3.746c.6-1.341,1.3-2.655,1.975-3.925.695-1.3,1.414-2.652,2.018-4.023.691-1.566,1.371-3.027,2.029-4.441a88.743,88.743,0,0,0,6.145-16.251c.674-2.534,1.46-5.081,2.218-7.544.382-1.237.765-2.475,1.134-3.716l4.494-15.086a.286.286,0,0,1,.359-.194.289.289,0,0,1,.194.359l-4.494,15.088c-.37,1.242-.753,2.481-1.135,3.721-.757,2.457-1.543,5-2.212,7.52a89.1,89.1,0,0,1-6.181,16.346c-.656,1.412-1.335,2.872-2.024,4.432-.612,1.39-1.337,2.749-2.036,4.062-.673,1.261-1.368,2.566-1.959,3.888a36.569,36.569,0,0,0-1.335,3.688,27.648,27.648,0,0,1-1.9,4.828A.288.288,0,0,1,198.185,141.574Z" transform="translate(-177.376 6.02)" fill="#fff"/>
        </g>
        <g id="Grupo_106388" data-name="Grupo 106388" transform="translate(43.921 3.675)">
          <g id="Grupo_106386" data-name="Grupo 106386">
            <g id="Grupo_106384" data-name="Grupo 106384" transform="translate(0.413)">
              <g id="Grupo_106382" data-name="Grupo 106382" transform="translate(24.493 2.683)">
                <g id="haed-2" data-name="haed" transform="translate(2.817 2.306)">
                  <g id="Grupo_106380" data-name="Grupo 106380">
                    <g id="Grupo_106377" data-name="Grupo 106377">
                      <path id="Trazado_149871" data-name="Trazado 149871" d="M141.235,36.255c-.593-2.384-.662-5.3.856-7.378,2.393-3.269,8.547-3.924,11.42-1.058a8.553,8.553,0,0,1,2.359,6.8,5.075,5.075,0,0,0,1.331,4.087c.142.133.313.317.23.493s-.3.178-.473.221c-.559.142-.815.781-.9,1.348a23.407,23.407,0,0,1-.736,4.059,1.281,1.281,0,0,1-.52.732,1.523,1.523,0,0,1-.923.092c-1.052-.119-2.1-.292-3.134-.513a.569.569,0,0,0-.182.114,1.517,1.517,0,0,0-.319.757q-.716,3.172-1.431,6.342a37.139,37.139,0,0,0-7.446-4.567,9.8,9.8,0,0,0,1.486-7.332A18.314,18.314,0,0,1,141.235,36.255Z" transform="translate(-140.843 -26.003)" fill="#ff8f67"/>
                      <path id="Trazado_149872" data-name="Trazado 149872" d="M149.869,40.617a.128.128,0,0,1-.05-.01c-.148-.052-3.669-1.322-4.533-4.2a.154.154,0,0,1,.1-.191.152.152,0,0,1,.191.1c.819,2.728,4.308,3.987,4.343,4a.153.153,0,0,1-.052.3Z" transform="translate(-138.706 -21.085)" fill="#894c4c"/>
                    </g>
                    <g id="Grupo_106379" data-name="Grupo 106379" transform="translate(12.645 8.957)">
                      <g id="Grupo_106378" data-name="Grupo 106378">
                        <path id="Trazado_149873" data-name="Trazado 149873" d="M151.262,32.932a.391.391,0,0,1-.19.006,1.793,1.793,0,0,0-1.049.162.434.434,0,1,1-.419-.76,2.694,2.694,0,0,1,1.626-.255.435.435,0,0,1,.033.848Z" transform="translate(-149.377 -32.048)" fill="#1d272b"/>
                        <path id="Trazado_149874" data-name="Trazado 149874" d="M150.714,33.485c.012.356-.116.653-.286.659s-.314-.28-.327-.64.119-.655.286-.661S150.7,33.126,150.714,33.485Z" transform="translate(-149.029 -31.665)" fill="#a86060"/>
                      </g>
                    </g>
                  </g>
                  <path id="Trazado_149875" data-name="Trazado 149875" d="M150.095,36.634a.123.123,0,0,1-.093-.2,1.33,1.33,0,0,1,1.348-.345.121.121,0,0,1,.087.148.123.123,0,0,1-.148.089,1.077,1.077,0,0,0-1.1.265A.122.122,0,0,1,150.095,36.634Z" transform="translate(-136.445 -21.17)" fill="#894c4c"/>
                  <g id="Grupo_106381" data-name="Grupo 106381" transform="translate(6.177 10.276)">
                    <path id="Trazado_149876" data-name="Trazado 149876" d="M145.917,33.972a.145.145,0,0,1-.042-.007l-.754-.215a.152.152,0,0,1,.084-.292l.754.215a.151.151,0,0,1,.1.188A.153.153,0,0,1,145.917,33.972Z" transform="translate(-145.012 -32.691)" fill="#894c4c"/>
                    <path id="Trazado_149877" data-name="Trazado 149877" d="M145.916,35.061h0a.152.152,0,0,1-.148-.156c.009-.391-.067-1.455-.522-1.677a.153.153,0,1,1,.135-.274c.71.348.695,1.794.69,1.957A.152.152,0,0,1,145.916,35.061Z" transform="translate(-144.942 -32.938)" fill="#894c4c"/>
                  </g>
                </g>
                <path id="Trazado_149878" data-name="Trazado 149878" d="M156.568,28.215a8.829,8.829,0,0,0-4.1-3.2c-3.617-1.374-7.628-.136-10.481,2.4a9.554,9.554,0,0,0-2.664,9.6c.7,2.22,2.252,3.925,2.322,6.306a10.573,10.573,0,0,0,.036,1.08,4.377,4.377,0,0,0,.851-2.475c.341.92.1,2.433.164,3.53a5.2,5.2,0,0,0,2.356-1.157,10.333,10.333,0,0,0,1.467-2.1,8.263,8.263,0,0,0,1.027-3.835c.053-.624.988-2.55,1.612-1.348.322.619-.3,2.395,1.043,2.183a2.653,2.653,0,0,1,.31-2.506c.317-.5,1.525-1.7,1.452-2.3.033.267.052,2.015-.323,2.085,2.5-.464,6.028-3.555,5.655-6.382A4.594,4.594,0,0,0,156.568,28.215Z" transform="translate(-138.942 -24.447)" fill="#1d272b"/>
              </g>
              <path id="Trazado_149879" data-name="Trazado 149879" d="M134.494,120.632c-2.574-.793-5.446-2.875-8.221-1.707-2.058.867-4.4,3.574-3.75,5.9.523,1.88,3.378,2.7,5.014,3.5,3.971,1.96,7.193,3.816,11.576,4.2,4.262.376,10.876-.941,5.46-5.447-1.7-1.418-3.6-2.506-5.2-4.082-.932-.916-.581-1.082-1.818-1.686A22.527,22.527,0,0,0,134.494,120.632Z" transform="translate(-122.413 23.586)" fill="#f7b242"/>
              <path id="Trazado_149880" data-name="Trazado 149880" d="M156.618,119.4c-2.691.059-6.072-1.014-8.339.969-1.679,1.471-3.048,4.779-1.7,6.785,1.089,1.62,4.057,1.5,5.863,1.749,4.388.609,8.028,1.356,12.311.341,4.162-.984,10.026-4.318,3.464-6.889-2.061-.811-4.2-1.243-6.222-2.238-1.172-.576-.891-.843-2.254-1.027A22.172,22.172,0,0,0,156.618,119.4Z" transform="translate(-111.033 23.822)" fill="#f7b242"/>
              <g id="Grupo_106383" data-name="Grupo 106383" transform="translate(12.221 28.479)">
                <path id="Trazado_149881" data-name="Trazado 149881" d="M157.652,83.865H139.875c-1.889-.081-3.536-.2-3.536-.2-7.366-.476-6.022-9.177-4.428-14.289,1.015-3.253-.209-5.447.194-8.522.4-3.038,1.547-4.5,1.252-7.708-.44-4.84,4.367-11.293,9.732-11.293h5.176c3.131,0,6.714,1.027,8.8,3.5,2.272,2.686,1.47,6.215,3.134,9.054,1.9,3.239.591,7.41,1.262,10.944.733,3.838.956,7.484,1.368,11.395,0,0,.01.1.024.274C162.936,78.29,162.973,83.555,157.652,83.865Z" transform="translate(-130.66 -41.856)" fill="url(#linear-gradient)"/>
              </g>
              <path id="Trazado_149882" data-name="Trazado 149882" d="M152.615,114.074c-.735,4.469-3.075,8.442-4.019,12.822-.83,3.862-1.258,8.179-2.764,11.816-1.294,3.11-.51,6.7-1.417,9.9-1.024,3.6-3.356,1.931-5.892,1.414-1.2-.245-2.242.323-3.383.076-2.28-.495-3.173-3.242-5.529-3.661-1.793-.314-3.463.753-5.254-.325-2.879-1.737.006-8.837,1.132-11.78,1.584-4.14,1.64-9.19,3.767-13.043,2.307-4.182,1.846-8.092,2.815-12.742s1.285-8.8,2.812-13.431c1.5-4.531-.862-8.451.6-13.16.732-2.352,1.338-3.589,1.108-6.164-.579-6.5,2.864-11.724,10.128-10.984a10.68,10.68,0,0,1,9.568,11.628q-.665,6.835-1.332,13.665-.942,9.686-1.886,19.371c-.147,1.488-.2,3.018-.437,4.494C152.627,114,152.621,114.037,152.615,114.074Z" transform="translate(-122.072 -2.353)" fill="url(#linear-gradient)"/>
              <path id="Trazado_149883" data-name="Trazado 149883" d="M167.27,110.422c.1.461.19.92.283,1.381,1.611,8.014,1.611,16.645,2.31,24.8.194,2.226,1.971,9.993.679,11.1-2.386,2.036-8.009-.49-10.97.1-2.568.514-8.781,2-10.457-1.225-2.026-3.9-1.008-9.587-1-13.773.007-2.406-.938-4.266-1.255-6.5-.559-3.9.279-7.682-.415-11.617-.271-1.553-.468-3.035-.859-4.58q-1.514-5.995-3.027-11.989L137.713,78.9a10.646,10.646,0,1,1,20.644-5.216l3.885,15.4C164.042,96.215,165.792,103.268,167.27,110.422Z" transform="translate(-115.197 -1.913)" fill="url(#linear-gradient)"/>
              <path id="Trazado_149884" data-name="Trazado 149884" d="M137.882,136.26a.333.333,0,0,1-.077-.009.29.29,0,0,1-.2-.356l7.768-28.124,2.692-29.846a.287.287,0,0,1,.572.053l-2.7,29.9-7.776,28.176A.288.288,0,0,1,137.882,136.26Z" transform="translate(-115.099 3.874)" fill="#fff"/>
              <path id="Trazado_149885" data-name="Trazado 149885" d="M149.383,38.8a7.732,7.732,0,0,1,3.5-4.674c.685-.443,6.689-2.812,6.874-1.62-.243-1.572,1.082-2.03.856-3.522-.187-1.224-2.171-2.972-3.073-3.651-8.055-6.068-18.036-1.154-21.965,7.252C134,35.975,133.836,39.9,134,43.576c.258,5.84,2.033,14.15,9.381,12.386a16.045,16.045,0,0,1,5.7-.538c4.136.276,2.313-1.47,1.6-4.005-1.057-3.752-2.347-8.282-1.393-12.268C149.321,39.036,149.352,38.918,149.383,38.8Z" transform="translate(-116.854 -22.637)" fill="url(#linear-gradient)"/>
              <path id="Trazado_149886" data-name="Trazado 149886" d="M153.968,33.831a1.154,1.154,0,0,0-.285-.053,19.2,19.2,0,0,0-2.221.1q-2.056.1-4.109.194s-1.061,4-1.064,4.008a3.784,3.784,0,0,0,.833,2.323,3.706,3.706,0,0,0,1.815,1.345,4.939,4.939,0,0,0,1.482.247,4.541,4.541,0,0,0,1.505-.012c.456-.157.627-.6.882-.975a12.217,12.217,0,0,0,1.2-2.283,17.422,17.422,0,0,0,.8-2.759C154.986,35.186,154.764,34.1,153.968,33.831Z" transform="translate(-110.923 -17.275)" fill="url(#linear-gradient-5)"/>
              <path id="Trazado_149887" data-name="Trazado 149887" d="M148.648,35.085s-1.837-4.133-4.133-1.877l-.249.584s2.043-2.713,4.005,1.543S148.648,35.085,148.648,35.085Z" transform="translate(-111.884 -17.868)" fill="url(#linear-gradient-5)"/>
              <path id="Trazado_149888" data-name="Trazado 149888" d="M148.423,35.967s-3.338,0-4.174-2.922l-.207.67s.458,2.294,4.423,2.546S148.423,35.967,148.423,35.967Z" transform="translate(-111.992 -17.622)" fill="url(#linear-gradient-5)"/>
            </g>
            <g id="Grupo_106385" data-name="Grupo 106385" transform="translate(0 30.813)">
              <path id="Trazado_149889" data-name="Trazado 149889" d="M141.341,43.945c-3.493,2.553-5.368,5.392-7.775,9.1a47.737,47.737,0,0,0-3.159,5.3c-1.178,2.421-3.272,3.913-4.482,6.266-1.224,2.378-1.277,5.145-2.22,7.647a16.184,16.184,0,0,0-1.328,5.506c-.1,2.34-.462,4.8-.05,7.121.668,3.776,2.5,3.985,6.118,3.808,3.164-.154,3.094-.394,3.528-3.549.351-2.562.453-5.065.966-7.633.624-3.121,2.171-4.487,3.85-7.347,1.855-3.161,2.737-4.9,5.817-6.813,2.532-1.571,2.549-2.928,2.977-5.758.461-3.048,1.661-11.964-1.777-13.844-.957-.526-2.12-.49-2.466.693Z" transform="translate(-122.134 -43.431)" fill="url(#linear-gradient-9)"/>
              <path id="Trazado_149890" data-name="Trazado 149890" d="M122.686,78.684c-.13-2.083-.775-6.947,2.278-7.569a7.217,7.217,0,0,1,4.147.822c2.507,1.242,2.841,4.46,2.952,6.933a3.491,3.491,0,0,0,.167,1.246c.16.33.695.508.806.776a.985.985,0,0,1-.91,1.329c-.7.079-1.178-.652-1.834-.23-.622.4-.187,1.132-.273,1.747a1.317,1.317,0,0,1-1.348,1.179c-.327.027-.811-.283-1.008-.255-.462.067-.231.379-.613.575s-.39.191-.8,0c-.1-.046-.087-.436-.25-.493s-.353.08-.382.071c-.353-.092-.516.27-.972-.23a8.422,8.422,0,0,1-1.058-2.657A11.93,11.93,0,0,1,122.686,78.684Z" transform="translate(-121.938 -30.127)" fill="#b1e5d2"/>
            </g>
            <path id="Trazado_149891" data-name="Trazado 149891" d="M131.2,67.936a.239.239,0,0,1-.144-.43c1.08-.818,1.545-2.3,2.04-3.869a11.158,11.158,0,0,1,1.556-3.512c.289-.369.627-.891.984-1.445,1.248-1.928,2.8-4.328,4.662-4.407a.228.228,0,0,1,.25.23.241.241,0,0,1-.23.25c-1.615.068-3.155,2.448-4.279,4.186-.365.563-.708,1.1-1.009,1.48a10.844,10.844,0,0,0-1.477,3.361c-.495,1.572-1.006,3.2-2.208,4.106A.238.238,0,0,1,131.2,67.936Z" transform="translate(-117.881 -7.395)" fill="#fff"/>
          </g>
          <path id="Trazado_149892" data-name="Trazado 149892" d="M159.483,65.578c1.129,1.417,2.306,2.8,3.416,4.238,2.02,2.618,3.364,5.462,5.687,7.853,1.057,1.086,6.141,5.288,1.943,5.751,1.07,1.689,1.784,3.879-.913,4.447-1.021.213-1.006,1-2.43.75-1.132-.2-2.249-1.335-3.112-2.023-2.137-1.7-2.709-3.768-4.269-5.972a26.476,26.476,0,0,0-7.249-6.287c-3.241-2.085-6.594-5.417-6.184-9.523.233-2.34.606-9.432,2.866-10.771,2.823-1.67,6.1,5.308,7.05,6.963A37.157,37.157,0,0,0,159.483,65.578Z" transform="translate(-110.473 -7.63)" fill="url(#linear-gradient-9)"/>
          <path id="Trazado_149893" data-name="Trazado 149893" d="M150.9,75.779a2.057,2.057,0,0,1-.508-.067.24.24,0,0,1-.173-.29.243.243,0,0,1,.29-.175,1.292,1.292,0,0,0,1.32-.365c1.391-1.4,1.476-5.982,1.08-7.492a12.038,12.038,0,0,0-.925-2.239,9.982,9.982,0,0,1-1.052-2.817,25.981,25.981,0,0,1-.222-3.8c0-.436-.009-.861-.021-1.267a.241.241,0,0,1,.233-.247h.007a.239.239,0,0,1,.239.233c.013.41.018.839.022,1.277a25.5,25.5,0,0,0,.216,3.725,9.453,9.453,0,0,0,1.008,2.681,12.248,12.248,0,0,1,.957,2.329c.415,1.581.39,6.344-1.2,7.95A1.746,1.746,0,0,1,150.9,75.779Z" transform="translate(-108.607 -6.069)" fill="#fff"/>
          <g id="Grupo_106387" data-name="Grupo 106387" transform="translate(7.727 106.803)">
            <path id="Trazado_149894" data-name="Trazado 149894" d="M148.128,131.425a.215.215,0,0,1-.052-.006.24.24,0,0,1-.182-.286c.187-.839-.542-4.273-.839-5.526l-.837-3.109a.211.211,0,0,1-.007-.062c0-2.172-3.272-12.606-3.3-12.711L139.864,95a.24.24,0,0,1,.185-.283.237.237,0,0,1,.283.187l3.036,14.7c.13.406,3.29,10.488,3.321,12.8l.831,3.087c.113.479,1.085,4.647.842,5.748A.24.24,0,0,1,148.128,131.425Z" transform="translate(-121.321 -94.714)" fill="#fff"/>
            <path id="Trazado_149895" data-name="Trazado 149895" d="M133.98,131.294a.236.236,0,0,1-.182-.084c-.981-1.144-1.732-8.99-1.815-9.881l-4.628-18.66a.24.24,0,1,1,.465-.116l4.634,18.7c.324,3.473,1.04,8.871,1.707,9.649a.238.238,0,0,1-.025.338A.241.241,0,0,1,133.98,131.294Z" transform="translate(-127.348 -91.024)" fill="#fff"/>
          </g>
        </g>
        <g id="Grupo_106403" data-name="Grupo 106403" transform="translate(30.772)">
          <g id="Grupo_106389" data-name="Grupo 106389" transform="translate(0 56.868)">
            <path id="Trazado_149896" data-name="Trazado 149896" d="M301.793,64.765c0,3.426-4.315,6.231-9.587,6.231H128.255c-5.272,0-9.587-2.805-9.587-6.231s4.315-6.231,9.587-6.231H292.206C297.478,58.534,301.793,61.338,301.793,64.765Z" transform="translate(-110.655 -58.534)" fill="#443b2c"/>
            <g id="cascet" transform="translate(0 4.109)">
              <rect id="Rectángulo_33884" data-name="Rectángulo 33884" width="195.57" height="38.58" transform="translate(3.882 11.646)" fill="#443b2c"/>
              <rect id="Rectángulo_33885" data-name="Rectángulo 33885" width="195.326" height="12.375" transform="translate(3.882 0.483)" fill="#443b2c"/>
              <rect id="Rectángulo_33886" data-name="Rectángulo 33886" width="195.57" height="2.105" transform="translate(3.882 11.646)" fill="#332c21"/>
              <rect id="Rectángulo_33887" data-name="Rectángulo 33887" width="195.57" height="2.104" transform="translate(3.882)" fill="#332c21"/>
              <path id="Rectángulo_33888" data-name="Rectángulo 33888" d="M1.965,0H29.336A1.965,1.965,0,0,1,31.3,1.965V5.557a1.965,1.965,0,0,1-1.965,1.965H1.966A1.966,1.966,0,0,1,0,5.556V1.965A1.965,1.965,0,0,1,1.965,0Z" transform="translate(0 5.337)" fill="#b57878"/>
              <rect id="Rectángulo_33889" data-name="Rectángulo 33889" width="31.3" height="7.522" rx="1.965" transform="translate(171.792 5.337)" fill="#0b0904"/>
              <rect id="Rectángulo_33890" data-name="Rectángulo 33890" width="191.932" height="3.398" transform="translate(6.792 46.828)" fill="#332c21"/>
              <path id="Rectángulo_33891" data-name="Rectángulo 33891" d="M1.965,0H29.336A1.965,1.965,0,0,1,31.3,1.965V5.556A1.964,1.964,0,0,1,29.337,7.52H1.964A1.964,1.964,0,0,1,0,5.557V1.965A1.965,1.965,0,0,1,1.965,0Z" transform="translate(1.213 45.374)" fill="#0b0904"/>
              <path id="Rectángulo_33892" data-name="Rectángulo 33892" d="M1.965,0H29.337A1.963,1.963,0,0,1,31.3,1.963V5.556A1.964,1.964,0,0,1,29.336,7.52H1.965A1.965,1.965,0,0,1,0,5.555V1.965A1.965,1.965,0,0,1,1.965,0Z" transform="translate(169.771 45.374)" fill="#0b0904"/>
            </g>
          </g>
          <g id="Grupo_106390" data-name="Grupo 106390" transform="translate(166.689 80.232)">
            <path id="Trazado_149897" data-name="Trazado 149897" d="M240.1,76.768a2.726,2.726,0,0,1-2.912,2.467h-5.9a2.5,2.5,0,1,1,0-4.933h5.9A2.725,2.725,0,0,1,240.1,76.768Z" transform="translate(-224.49 -74.302)" fill="#0b0904"/>
            <path id="Trazado_149898" data-name="Trazado 149898" d="M228.13,80.975h-1.941V78.47a2.914,2.914,0,0,1,2.912-2.912h12.537a2.913,2.913,0,0,1,2.909,2.912v2.344h-1.94V78.47a.973.973,0,0,0-.969-.972H229.1a.973.973,0,0,0-.971.972Z" transform="translate(-225.541 -73.697)" fill="#0b0904"/>
            <path id="Trazado_149899" data-name="Trazado 149899" d="M225.752,80.2a1.7,1.7,0,1,1,1.7,1.7A1.7,1.7,0,0,1,225.752,80.2Z" transform="translate(-225.752 -72.278)" fill="#0b0904"/>
            <path id="Trazado_149900" data-name="Trazado 149900" d="M236.779,80.2a1.7,1.7,0,1,1,1.7,1.7A1.7,1.7,0,0,1,236.779,80.2Z" transform="translate(-220.439 -72.278)" fill="#0b0904"/>
          </g>
          <g id="Grupo_106391" data-name="Grupo 106391" transform="translate(30.269 80.232)">
            <path id="Trazado_149901" data-name="Trazado 149901" d="M148.034,76.768a2.726,2.726,0,0,1-2.912,2.467h-5.9a2.5,2.5,0,1,1,0-4.933h5.9A2.725,2.725,0,0,1,148.034,76.768Z" transform="translate(-132.425 -74.302)" fill="#0b0904"/>
            <path id="Trazado_149902" data-name="Trazado 149902" d="M136.066,80.975h-1.941V78.47a2.913,2.913,0,0,1,2.909-2.912h12.537a2.914,2.914,0,0,1,2.91,2.912v2.344H150.54V78.47a.972.972,0,0,0-.969-.972H137.034a.972.972,0,0,0-.968.972Z" transform="translate(-133.477 -73.697)" fill="#0b0904"/>
            <circle id="Elipse_4245" data-name="Elipse 4245" cx="1.698" cy="1.698" r="1.698" transform="translate(0 6.228)" fill="#0b0904"/>
            <path id="Trazado_149903" data-name="Trazado 149903" d="M144.713,80.2a1.7,1.7,0,1,1,1.7,1.7A1.7,1.7,0,0,1,144.713,80.2Z" transform="translate(-128.376 -72.278)" fill="#0b0904"/>
          </g>
          <g id="Grupo_106402" data-name="Grupo 106402" transform="translate(170.866)">
            <g id="Grupo_106401" data-name="Grupo 106401">
              <g id="Grupo_106399" data-name="Grupo 106399" transform="translate(0.413)">
                <g id="Grupo_106397" data-name="Grupo 106397" transform="translate(24.494 2.683)">
                  <g id="haed-3" data-name="haed" transform="translate(2.816 2.306)">
                    <g id="Grupo_106395" data-name="Grupo 106395">
                      <g id="Grupo_106392" data-name="Grupo 106392">
                        <path id="Trazado_149904" data-name="Trazado 149904" d="M247.674,33.775c-.6-2.384-.664-5.3.856-7.378,2.395-3.27,8.545-3.924,11.42-1.059a8.56,8.56,0,0,1,2.359,6.8,5.064,5.064,0,0,0,1.331,4.087c.141.132.311.316.228.493s-.295.178-.47.225c-.56.138-.816.778-.9,1.347a23.515,23.515,0,0,1-.738,4.056,1.267,1.267,0,0,1-.517.732,1.529,1.529,0,0,1-.923.1q-1.58-.182-3.137-.516a.558.558,0,0,0-.181.113,1.523,1.523,0,0,0-.32.76q-.716,3.17-1.43,6.339a37.082,37.082,0,0,0-7.447-4.567,9.779,9.779,0,0,0,1.486-7.33A18.359,18.359,0,0,1,247.674,33.775Z" transform="translate(-247.28 -23.523)" fill="#ff8f67"/>
                        <path id="Trazado_149905" data-name="Trazado 149905" d="M256.308,38.136a.15.15,0,0,1-.05-.009c-.15-.052-3.667-1.32-4.534-4.2a.153.153,0,0,1,.1-.19.151.151,0,0,1,.19.1c.822,2.731,4.308,3.987,4.343,4a.152.152,0,0,1,.093.194A.154.154,0,0,1,256.308,38.136Z" transform="translate(-245.143 -18.604)" fill="#894c4c"/>
                      </g>
                      <g id="Grupo_106394" data-name="Grupo 106394" transform="translate(12.647 8.957)">
                        <g id="Grupo_106393" data-name="Grupo 106393">
                          <path id="Trazado_149906" data-name="Trazado 149906" d="M257.7,30.453a.4.4,0,0,1-.191,0,1.769,1.769,0,0,0-1.049.164.435.435,0,0,1-.418-.763,2.707,2.707,0,0,1,1.624-.255.436.436,0,0,1,.034.849Z" transform="translate(-255.815 -29.568)" fill="#1d272b"/>
                          <path id="Trazado_149907" data-name="Trazado 149907" d="M257.151,31c.01.359-.117.655-.287.659s-.313-.282-.324-.64.117-.653.284-.659S257.139,30.646,257.151,31Z" transform="translate(-255.467 -29.184)" fill="#a86060"/>
                        </g>
                      </g>
                    </g>
                    <path id="Trazado_149908" data-name="Trazado 149908" d="M256.532,34.154a.128.128,0,0,1-.08-.03.122.122,0,0,1-.013-.172,1.335,1.335,0,0,1,1.348-.347.122.122,0,1,1-.061.237,1.078,1.078,0,0,0-1.1.268A.126.126,0,0,1,256.532,34.154Z" transform="translate(-242.882 -18.69)" fill="#894c4c"/>
                    <g id="Grupo_106396" data-name="Grupo 106396" transform="translate(6.178 10.277)">
                      <path id="Trazado_149909" data-name="Trazado 149909" d="M252.355,31.492a.134.134,0,0,1-.041-.006l-.754-.218a.15.15,0,0,1-.1-.188.154.154,0,0,1,.188-.1l.753.218a.152.152,0,0,1,.105.188A.154.154,0,0,1,252.355,31.492Z" transform="translate(-251.45 -30.212)" fill="#894c4c"/>
                      <path id="Trazado_149910" data-name="Trazado 149910" d="M252.356,32.58h0a.152.152,0,0,1-.148-.156c.01-.391-.067-1.452-.523-1.677a.151.151,0,0,1-.07-.2.153.153,0,0,1,.2-.07c.713.35.7,1.794.692,1.957A.15.15,0,0,1,252.356,32.58Z" transform="translate(-251.38 -30.458)" fill="#894c4c"/>
                    </g>
                  </g>
                  <path id="Trazado_149911" data-name="Trazado 149911" d="M263.006,25.734a8.849,8.849,0,0,0-4.1-3.2c-3.616-1.372-7.627-.138-10.482,2.4a9.567,9.567,0,0,0-2.663,9.6c.705,2.221,2.255,3.925,2.323,6.306a10.514,10.514,0,0,0,.034,1.079,4.375,4.375,0,0,0,.852-2.475c.341.92.1,2.435.164,3.531a5.2,5.2,0,0,0,2.356-1.157,10.257,10.257,0,0,0,1.465-2.094,8.234,8.234,0,0,0,1.027-3.836c.053-.622.99-2.55,1.615-1.347.322.618-.3,2.395,1.04,2.18a2.663,2.663,0,0,1,.311-2.506c.317-.495,1.523-1.7,1.452-2.3.031.267.053,2.015-.323,2.086,2.5-.465,6.028-3.558,5.653-6.384A4.572,4.572,0,0,0,263.006,25.734Z" transform="translate(-245.38 -21.967)" fill="#1d272b"/>
                </g>
                <path id="Trazado_149912" data-name="Trazado 149912" d="M240.931,118.152c-2.572-.793-5.444-2.875-8.219-1.706-2.06.865-4.4,3.574-3.752,5.9.525,1.88,3.381,2.7,5.014,3.5,3.974,1.959,7.194,3.816,11.577,4.2,4.26.375,10.876-.942,5.459-5.449-1.7-1.417-3.6-2.5-5.2-4.082-.931-.916-.579-1.079-1.817-1.685A22.061,22.061,0,0,0,240.931,118.152Z" transform="translate(-228.85 26.067)" fill="#f7b242"/>
                <path id="Trazado_149913" data-name="Trazado 149913" d="M263.056,116.922c-2.692.058-6.074-1.014-8.338.969-1.682,1.47-3.051,4.777-1.7,6.784,1.092,1.621,4.059,1.5,5.862,1.749,4.388.609,8.03,1.356,12.314.342,4.161-.984,10.026-4.318,3.466-6.89-2.064-.809-4.207-1.245-6.223-2.238-1.171-.575-.892-.839-2.254-1.025A22.147,22.147,0,0,0,263.056,116.922Z" transform="translate(-217.47 26.303)" fill="#f7b242"/>
                <g id="Grupo_106398" data-name="Grupo 106398" transform="translate(12.223 28.475)">
                  <path id="Trazado_149914" data-name="Trazado 149914" d="M264.087,81.386H246.314c-1.892-.081-3.537-.2-3.537-.2-7.366-.474-6.021-9.177-4.428-14.289,1.014-3.253-.212-5.447.194-8.52.4-3.036,1.547-4.5,1.252-7.708-.442-4.841,4.367-11.3,9.734-11.3H254.7c3.13,0,6.712,1.031,8.8,3.5,2.273,2.685,1.471,6.213,3.137,9.051,1.9,3.244.588,7.413,1.261,10.949.732,3.838.956,7.483,1.368,11.393,0,0,.01.1.022.276C269.373,75.81,269.411,81.075,264.087,81.386Z" transform="translate(-237.099 -39.373)" fill="url(#linear-gradient)"/>
                </g>
                <path id="Trazado_149915" data-name="Trazado 149915" d="M259.052,111.593c-.733,4.472-3.075,8.445-4.017,12.823-.83,3.859-1.258,8.179-2.766,11.814-1.291,3.112-.508,6.7-1.415,9.9-1.022,3.6-3.355,1.932-5.89,1.414-1.2-.244-2.24.323-3.384.076-2.28-.495-3.171-3.244-5.529-3.663-1.791-.314-3.463.754-5.253-.326-2.879-1.734.006-8.836,1.132-11.78,1.583-4.137,1.639-9.187,3.767-13.041,2.306-4.182,1.845-8.092,2.814-12.742s1.285-8.8,2.814-13.431c1.494-4.53-.864-8.451.6-13.16.733-2.35,1.337-3.587,1.11-6.164-.582-6.5,2.861-11.724,10.126-10.983a10.682,10.682,0,0,1,9.568,11.629L261.395,87.62q-.94,9.686-1.886,19.373c-.147,1.486-.2,3.017-.437,4.491C259.064,111.52,259.058,111.557,259.052,111.593Z" transform="translate(-228.509 0.128)" fill="url(#linear-gradient)"/>
                <path id="Trazado_149916" data-name="Trazado 149916" d="M273.71,107.941q.142.689.28,1.381c1.612,8.013,1.611,16.643,2.313,24.8.191,2.226,1.969,9.992.677,11.1-2.387,2.037-8.01-.49-10.971.1-2.566.514-8.778,2-10.454-1.227-2.027-3.9-1.009-9.587-1-13.772.007-2.408-.938-4.266-1.257-6.5-.56-3.9.28-7.679-.412-11.619-.273-1.55-.471-3.033-.861-4.579q-1.514-5.992-3.026-11.986-2.427-9.609-4.854-19.213A10.647,10.647,0,1,1,264.794,71.2l3.885,15.4C270.479,93.734,272.232,100.789,273.71,107.941Z" transform="translate(-221.634 0.568)" fill="url(#linear-gradient-9)"/>
                <path id="Trazado_149917" data-name="Trazado 149917" d="M244.319,133.779a.275.275,0,0,1-.077-.01.288.288,0,0,1-.2-.354l7.768-28.123L254.5,75.444a.288.288,0,1,1,.573.052l-2.7,29.9L244.6,133.567A.291.291,0,0,1,244.319,133.779Z" transform="translate(-221.536 6.354)" fill="#fff"/>
                <path id="Trazado_149918" data-name="Trazado 149918" d="M255.82,36.324a7.745,7.745,0,0,1,3.5-4.672c.686-.445,6.69-2.815,6.875-1.62-.243-1.574,1.085-2.029.858-3.522-.187-1.227-2.171-2.972-3.073-3.653-8.056-6.069-18.038-1.154-21.965,7.252-1.581,3.387-1.741,7.314-1.581,10.986.261,5.841,2.034,14.15,9.381,12.388a16.064,16.064,0,0,1,5.7-.536c4.136.274,2.315-1.47,1.6-4.007-1.056-3.753-2.346-8.282-1.39-12.266C255.758,36.555,255.789,36.439,255.82,36.324Z" transform="translate(-223.291 -20.156)" fill="url(#linear-gradient)"/>
                <path id="Trazado_149919" data-name="Trazado 149919" d="M260.406,31.353a1.076,1.076,0,0,0-.286-.056,18.891,18.891,0,0,0-2.221.105l-4.108.194s-1.062,4-1.065,4.007a3.776,3.776,0,0,0,.834,2.323,3.712,3.712,0,0,0,1.814,1.347,4.943,4.943,0,0,0,1.48.246,4.51,4.51,0,0,0,1.507-.012c.458-.156.63-.6.883-.975a12.168,12.168,0,0,0,1.2-2.283,17.03,17.03,0,0,0,.8-2.759C261.423,32.706,261.2,31.616,260.406,31.353Z" transform="translate(-217.36 -14.795)" fill="url(#linear-gradient-5)"/>
                <path id="Trazado_149920" data-name="Trazado 149920" d="M255.086,32.606s-1.837-4.133-4.131-1.879l-.25.585s2.043-2.715,4.007,1.545S255.086,32.606,255.086,32.606Z" transform="translate(-218.321 -15.388)" fill="url(#linear-gradient-5)"/>
                <path id="Trazado_149921" data-name="Trazado 149921" d="M254.861,33.487s-3.34,0-4.173-2.922l-.21.667s.461,2.3,4.425,2.546S254.861,33.487,254.861,33.487Z" transform="translate(-218.43 -15.141)" fill="url(#linear-gradient-5)"/>
              </g>
              <g id="Grupo_106400" data-name="Grupo 106400" transform="translate(0 30.813)">
                <path id="Trazado_149922" data-name="Trazado 149922" d="M247.781,41.464c-3.5,2.555-5.37,5.392-7.776,9.1a47.758,47.758,0,0,0-3.159,5.3c-1.18,2.42-3.27,3.913-4.482,6.264-1.225,2.378-1.279,5.145-2.221,7.649a16.165,16.165,0,0,0-1.326,5.508,32.981,32.981,0,0,0-.052,7.121c.67,3.773,2.5,3.983,6.12,3.807,3.162-.154,3.094-.394,3.527-3.547.353-2.563.453-5.065.968-7.633.624-3.125,2.171-4.49,3.85-7.347,1.855-3.161,2.737-4.9,5.816-6.815,2.534-1.572,2.55-2.927,2.978-5.76.459-3.047,1.66-11.961-1.777-13.844-.959-.525-2.122-.49-2.464.7Z" transform="translate(-228.571 -40.951)" fill="url(#linear-gradient-9)"/>
                <path id="Trazado_149923" data-name="Trazado 149923" d="M229.126,76.2c-.13-2.08-.776-6.942,2.276-7.567a7.225,7.225,0,0,1,4.149.822c2.5,1.24,2.839,4.457,2.949,6.933a3.551,3.551,0,0,0,.167,1.245c.16.332.7.51.809.776a.989.989,0,0,1-.911,1.331c-.7.079-1.176-.653-1.836-.228-.621.4-.187,1.131-.271,1.746a1.314,1.314,0,0,1-1.348,1.178c-.329.03-.809-.28-1.009-.253-.462.067-.23.379-.61.576s-.393.19-.8,0c-.1-.047-.087-.437-.25-.495s-.351.079-.384.071c-.353-.093-.514.271-.971-.23a8.373,8.373,0,0,1-1.058-2.657A11.737,11.737,0,0,1,229.126,76.2Z" transform="translate(-228.375 -27.647)" fill="#f7b242"/>
              </g>
              <path id="Trazado_149924" data-name="Trazado 149924" d="M237.638,65.457a.24.24,0,0,1-.145-.431c1.082-.818,1.548-2.3,2.043-3.867a11.112,11.112,0,0,1,1.557-3.512c.286-.369.624-.891.982-1.443,1.248-1.929,2.8-4.33,4.662-4.41a.24.24,0,1,1,.019.479c-1.614.07-3.155,2.451-4.278,4.19-.365.562-.707,1.094-1.009,1.479a10.829,10.829,0,0,0-1.477,3.361c-.495,1.571-1.006,3.2-2.209,4.106A.245.245,0,0,1,237.638,65.457Z" transform="translate(-224.319 -4.914)" fill="#fff"/>
            </g>
            <path id="Trazado_149925" data-name="Trazado 149925" d="M265.923,63.1c1.129,1.417,2.3,2.8,3.414,4.239,2.02,2.617,3.362,5.463,5.687,7.853,1.055,1.088,6.139,5.287,1.941,5.749,1.071,1.692,1.784,3.881-.911,4.447-1.022.216-1.006,1-2.432.75-1.131-.2-2.248-1.335-3.11-2.021-2.137-1.7-2.71-3.768-4.268-5.972a26.479,26.479,0,0,0-7.25-6.287c-3.239-2.086-6.594-5.417-6.185-9.522.234-2.341.608-9.436,2.867-10.774,2.821-1.67,6.1,5.308,7.05,6.964A36.7,36.7,0,0,0,265.923,63.1Z" transform="translate(-216.91 -5.15)" fill="url(#linear-gradient)"/>
            <path id="Trazado_149926" data-name="Trazado 149926" d="M257.337,73.3a2.075,2.075,0,0,1-.508-.067.24.24,0,0,1-.173-.29.244.244,0,0,1,.292-.173,1.287,1.287,0,0,0,1.32-.366c1.391-1.406,1.476-5.982,1.079-7.49a11.99,11.99,0,0,0-.923-2.239,9.922,9.922,0,0,1-1.052-2.817,25.951,25.951,0,0,1-.222-3.81c0-.431-.009-.854-.019-1.257a.238.238,0,0,1,.233-.246h.006a.239.239,0,0,1,.24.233c.012.406.016.83.021,1.265a25.638,25.638,0,0,0,.215,3.737,9.445,9.445,0,0,0,1.008,2.682,12.216,12.216,0,0,1,.959,2.329c.415,1.58.39,6.342-1.2,7.95A1.745,1.745,0,0,1,257.337,73.3Z" transform="translate(-215.044 -3.589)" fill="#fff"/>
            <path id="Trazado_149927" data-name="Trazado 149927" d="M229.752,124.409h-.027a.361.361,0,0,1-.333-.384c.479-6.68,5.376-21.821,5.585-22.462a.365.365,0,0,1,.453-.231.36.36,0,0,1,.231.453c-.052.156-5.08,15.7-5.552,22.291A.358.358,0,0,1,229.752,124.409Z" transform="translate(-228.176 18.946)" fill="#fff"/>
          </g>
        </g>
        <g id="Grupo_106413" data-name="Grupo 106413" transform="translate(0 5.276)">
          <g id="Grupo_106409" data-name="Grupo 106409" transform="translate(37.859 2.683)">
            <g id="haed-4" data-name="haed" transform="translate(2.817 2.306)">
              <g id="Grupo_106407" data-name="Grupo 106407">
                <g id="Grupo_106404" data-name="Grupo 106404">
                  <path id="Trazado_149928" data-name="Trazado 149928" d="M120.337,37.335c-.6-2.381-.664-5.3.858-7.376,2.393-3.27,8.542-3.924,11.419-1.059a8.556,8.556,0,0,1,2.359,6.8,5.065,5.065,0,0,0,1.331,4.087c.142.133.311.316.23.495s-.295.175-.471.221c-.56.139-.816.781-.9,1.347a23.5,23.5,0,0,1-.738,4.059,1.267,1.267,0,0,1-.517.732,1.516,1.516,0,0,1-.923.093c-1.054-.119-2.1-.293-3.135-.514a.625.625,0,0,0-.182.114,1.522,1.522,0,0,0-.319.759q-.718,3.172-1.431,6.341a37.285,37.285,0,0,0-7.447-4.567,9.781,9.781,0,0,0,1.486-7.33A18.342,18.342,0,0,1,120.337,37.335Z" transform="translate(-119.943 -27.084)" fill="#ff8f67"/>
                  <path id="Trazado_149929" data-name="Trazado 149929" d="M128.972,41.7a.123.123,0,0,1-.05-.01c-.15-.052-3.669-1.323-4.536-4.2a.153.153,0,1,1,.293-.089c.819,2.728,4.309,3.989,4.343,4a.151.151,0,0,1,.093.194A.154.154,0,0,1,128.972,41.7Z" transform="translate(-117.806 -22.166)" fill="#894c4c"/>
                </g>
                <g id="Grupo_106406" data-name="Grupo 106406" transform="translate(12.647 8.957)">
                  <g id="Grupo_106405" data-name="Grupo 106405">
                    <path id="Trazado_149930" data-name="Trazado 149930" d="M130.364,34.011a.4.4,0,0,1-.191.009,1.8,1.8,0,0,0-1.048.16.434.434,0,1,1-.421-.76,2.672,2.672,0,0,1,1.624-.253.429.429,0,0,1,.348.5A.424.424,0,0,1,130.364,34.011Z" transform="translate(-128.478 -33.129)" fill="#1d272b"/>
                    <path id="Trazado_149931" data-name="Trazado 149931" d="M129.814,34.564c.012.356-.116.653-.286.659s-.316-.28-.326-.639.117-.656.285-.661S129.8,34.209,129.814,34.564Z" transform="translate(-128.13 -32.746)" fill="#a86060"/>
                  </g>
                </g>
              </g>
              <path id="Trazado_149932" data-name="Trazado 149932" d="M129.195,37.713a.121.121,0,0,1-.079-.03.122.122,0,0,1-.015-.172,1.33,1.33,0,0,1,1.348-.344.124.124,0,0,1,.089.15.126.126,0,0,1-.15.087,1.089,1.089,0,0,0-1.1.264A.12.12,0,0,1,129.195,37.713Z" transform="translate(-115.545 -22.251)" fill="#894c4c"/>
              <g id="Grupo_106408" data-name="Grupo 106408" transform="translate(6.178 10.277)">
                <path id="Trazado_149933" data-name="Trazado 149933" d="M125.018,35.054a.136.136,0,0,1-.041-.007l-.754-.216a.152.152,0,1,1,.084-.292l.753.216a.153.153,0,0,1-.041.3Z" transform="translate(-124.113 -33.773)" fill="#894c4c"/>
                <path id="Trazado_149934" data-name="Trazado 149934" d="M125.019,36.141a.162.162,0,0,1-.153-.156c.009-.391-.067-1.454-.522-1.676a.152.152,0,0,1,.133-.274c.711.347.7,1.793.692,1.957A.15.15,0,0,1,125.019,36.141Z" transform="translate(-124.042 -34.019)" fill="#894c4c"/>
              </g>
            </g>
            <path id="Trazado_149935" data-name="Trazado 149935" d="M135.669,29.3a8.836,8.836,0,0,0-4.1-3.2c-3.614-1.372-7.625-.136-10.482,2.4a9.564,9.564,0,0,0-2.663,9.6c.705,2.22,2.255,3.928,2.325,6.308a10.519,10.519,0,0,0,.034,1.079,4.388,4.388,0,0,0,.851-2.475c.342.92.1,2.433.163,3.531a5.179,5.179,0,0,0,2.359-1.159,10.223,10.223,0,0,0,1.464-2.1,8.191,8.191,0,0,0,1.027-3.833c.053-.625.988-2.55,1.615-1.347.322.616-.3,2.393,1.04,2.18a2.662,2.662,0,0,1,.311-2.506c.317-.5,1.525-1.7,1.454-2.3.03.265.052,2.017-.325,2.085,2.5-.465,6.026-3.555,5.654-6.384A4.588,4.588,0,0,0,135.669,29.3Z" transform="translate(-118.043 -25.528)" fill="#1d272b"/>
          </g>
          <path id="Trazado_149936" data-name="Trazado 149936" d="M105.058,120.008c-2.368-1.277-4.783-3.876-7.732-3.269-2.186.452-5.01,2.655-4.825,5.065.15,1.949,2.792,3.3,4.239,4.413,3.519,2.691,6.318,5.137,10.543,6.366,4.108,1.194,10.853,1.184,6.413-4.287-1.4-1.72-3.047-3.156-4.315-5.011-.732-1.082-.359-1.175-1.452-2.006A21.78,21.78,0,0,0,105.058,120.008Z" transform="translate(-92.493 21.056)" fill="#f7b242"/>
          <g id="Grupo_106410" data-name="Grupo 106410" transform="translate(25.588 28.477)">
            <path id="Trazado_149937" data-name="Trazado 149937" d="M136.752,84.945H118.978c-1.891-.079-3.537-.2-3.537-.2-7.364-.476-6.022-9.178-4.428-14.289,1.015-3.251-.21-5.449.194-8.522.4-3.038,1.547-4.5,1.254-7.707-.443-4.841,4.365-11.3,9.732-11.3h5.174c3.13,0,6.711,1.028,8.8,3.5,2.272,2.686,1.47,6.215,3.135,9.054,1.9,3.241.587,7.412,1.261,10.944.732,3.841.956,7.485,1.368,11.395,0,0,.01.1.022.274C142.036,79.371,142.074,84.635,136.752,84.945Z" transform="translate(-109.761 -42.935)" fill="url(#linear-gradient)"/>
          </g>
          <g id="Grupo_106411" data-name="Grupo 106411" transform="translate(35.991 64.665)">
            <path id="Trazado_149938" data-name="Trazado 149938" d="M142.681,120.746c-2.641.529-6.158.068-8.042,2.418-1.4,1.744-2.163,5.238-.482,6.978,1.357,1.4,4.257.762,6.078.693,4.426-.173,8.144-.079,12.179-1.827,3.925-1.7,9.113-6.012,2.2-7.394-2.172-.433-4.359-.485-6.52-1.108-1.252-.36-1.022-.671-2.4-.613A21.925,21.925,0,0,0,142.681,120.746Z" transform="translate(-108.873 -42.049)" fill="#f7b242"/>
            <path id="Trazado_149939" data-name="Trazado 149939" d="M151.325,108.686c1.485,4.279,1.322,8.888,2.581,13.186,1.11,3.787,2.793,7.788,3.2,11.7.347,3.35,2.749,6.135,3.472,9.377.819,3.651-2.026,3.3-4.5,4.05-1.168.356-1.814,1.353-2.94,1.682-2.239.65-4.333-1.341-6.6-.585-1.725.578-2.686,2.313-4.773,2.22-3.358-.154-4.208-7.77-4.622-10.9-.582-4.395-2.94-8.858-2.907-13.261.037-4.776-2.236-7.994-3.6-12.542s-3.067-8.351-3.93-13.148c-.845-4.7-4.786-7.019-5.745-11.854-.477-2.415-.536-3.792-1.965-5.948-3.611-5.44-3.072-11.671,3.666-14.484a10.683,10.683,0,0,1,13.954,5.662q2.669,6.326,5.342,12.646,3.792,8.966,7.576,17.931c.582,1.375,1.264,2.746,1.757,4.156C151.3,108.616,151.312,108.649,151.325,108.686Z" transform="translate(-116.782 -67.357)" fill="url(#linear-gradient)"/>
          </g>
          <path id="Trazado_149940" data-name="Trazado 149940" d="M127.263,116.891c-.144.447-.29.892-.437,1.341-2.547,7.765-6.8,15.274-10.209,22.714-.931,2.03-3.211,9.666-4.88,9.987-3.081.6-6.729-4.376-9.6-5.318-2.485-.821-8.624-2.592-8.492-6.221.157-4.389,3.848-8.842,5.923-12.475,1.191-2.094,1.285-4.176,2.11-6.275,1.433-3.667,4.029-6.545,5.366-10.312.529-1.483,1.088-2.87,1.51-4.407Q110.2,99.962,111.832,94q2.623-9.558,5.248-19.109a10.647,10.647,0,1,1,20.533,5.638q-2.1,7.657-4.21,15.317C131.455,102.938,129.5,109.938,127.263,116.891Z" transform="translate(-91.937 -2.833)" fill="url(#linear-gradient)"/>
          <path id="Trazado_149941" data-name="Trazado 149941" d="M128.483,39.885a7.752,7.752,0,0,1,3.5-4.675c.686-.443,6.689-2.812,6.873-1.618-.242-1.574,1.086-2.032.858-3.524-.187-1.224-2.168-2.971-3.072-3.65-8.055-6.069-18.036-1.156-21.963,7.252-1.581,3.386-1.743,7.314-1.581,10.986.258,5.841,2.033,14.15,9.381,12.388a15.957,15.957,0,0,1,5.7-.536c4.134.276,2.313-1.471,1.6-4.008-1.055-3.753-2.344-8.283-1.388-12.265C128.42,40.116,128.451,40,128.483,39.885Z" transform="translate(-82.589 -23.717)" fill="url(#linear-gradient)"/>
          <path id="Trazado_149942" data-name="Trazado 149942" d="M133.069,34.913a1.077,1.077,0,0,0-.286-.055,19.189,19.189,0,0,0-2.22.1l-4.11.194s-1.061,4-1.062,4.008a3.769,3.769,0,0,0,.834,2.325,3.7,3.7,0,0,0,1.814,1.344,4.883,4.883,0,0,0,1.48.247,4.5,4.5,0,0,0,1.505-.012c.458-.156.63-.6.885-.974a12.129,12.129,0,0,0,1.2-2.285,17.176,17.176,0,0,0,.8-2.759C134.089,36.267,133.865,35.177,133.069,34.913Z" transform="translate(-76.658 -18.356)" fill="url(#linear-gradient-5)"/>
          <path id="Trazado_149943" data-name="Trazado 149943" d="M127.751,36.165s-1.839-4.133-4.133-1.877l-.252.585s2.046-2.713,4.008,1.541S127.751,36.165,127.751,36.165Z" transform="translate(-77.619 -18.949)" fill="url(#linear-gradient-5)"/>
          <path id="Trazado_149944" data-name="Trazado 149944" d="M127.523,37.048s-3.338,0-4.173-2.922l-.209.668s.461,2.3,4.425,2.546S127.523,37.048,127.523,37.048Z" transform="translate(-77.727 -18.702)" fill="url(#linear-gradient-5)"/>
          <g id="Grupo_106412" data-name="Grupo 106412" transform="translate(5.901 27.724)">
            <path id="Trazado_149945" data-name="Trazado 149945" d="M125.224,42.666c-3.989,1.682-6.468,4.01-9.666,7.065a48.3,48.3,0,0,0-4.3,4.431c-1.706,2.083-4.085,3.055-5.806,5.062-1.74,2.032-2.432,4.712-3.927,6.93a16.212,16.212,0,0,0-2.559,5.053c-.64,2.252-1.557,4.559-1.694,6.918-.219,3.826,1.511,4.451,5.077,5.114,3.112.581,3.1.333,4.25-2.636.935-2.414,1.609-4.823,2.7-7.206,1.329-2.9,3.146-3.866,5.441-6.259,2.534-2.646,3.793-4.14,7.23-5.288,2.829-.947,3.158-2.261,4.229-4.918,1.151-2.855,4.374-11.254,1.464-13.88-.812-.731-1.954-.966-2.561.107Z" transform="translate(-96.098 -42.427)" fill="url(#linear-gradient)"/>
            <path id="Trazado_149946" data-name="Trazado 149946" d="M96.558,73.485c.354-2.054.848-6.933,3.961-6.835a7.194,7.194,0,0,1,3.847,1.756c2.15,1.784,1.735,5,1.273,7.425a3.514,3.514,0,0,0-.124,1.252c.077.357.559.655.606.942a.986.986,0,0,1-1.194,1.082c-.7-.084-.993-.907-1.731-.646-.7.247-.443,1.059-.668,1.636a1.317,1.317,0,0,1-1.584.839c-.326-.05-.723-.461-.922-.48-.465-.043-.313.314-.731.418s-.422.1-.781-.185c-.086-.067.015-.445-.13-.541s-.36,0-.387-.016c-.323-.172-.565.144-.9-.449a8.441,8.441,0,0,1-.416-2.829A11.89,11.89,0,0,1,96.558,73.485Z" transform="translate(-96.475 -30.758)" fill="#f7b242"/>
          </g>
          <path id="Trazado_149947" data-name="Trazado 149947" d="M111.1,59.957l-.21-.116-.184-.157a11.146,11.146,0,0,1,2.526-2.907c.382-.268.859-.668,1.363-1.092,1.759-1.477,3.946-3.318,5.752-2.841a.238.238,0,0,1,.172.292.235.235,0,0,1-.293.17c-1.566-.41-3.736,1.414-5.323,2.746-.513.43-1,.836-1.4,1.117A10.852,10.852,0,0,0,111.1,59.957Z" transform="translate(-83.719 -9.721)" fill="#fff"/>
          <path id="Trazado_149948" data-name="Trazado 149948" d="M138.586,66.657c1.129,1.42,2.3,2.8,3.416,4.239,2.017,2.62,3.361,5.463,5.686,7.855,1.057,1.088,6.139,5.287,1.943,5.749,1.071,1.691,1.783,3.881-.913,4.448-1.022.213-1.006,1-2.432.75-1.131-.2-2.246-1.337-3.11-2.024-2.138-1.7-2.709-3.77-4.268-5.97a26.475,26.475,0,0,0-7.25-6.287c-3.241-2.085-6.594-5.416-6.185-9.525.236-2.338.609-9.432,2.867-10.771,2.821-1.67,6.1,5.308,7.05,6.963A36.766,36.766,0,0,0,138.586,66.657Z" transform="translate(-76.621 -8.71)" fill="url(#linear-gradient-9)"/>
          <path id="Trazado_149949" data-name="Trazado 149949" d="M130,76.858a2.054,2.054,0,0,1-.507-.067.24.24,0,1,1,.117-.465,1.285,1.285,0,0,0,1.32-.366c1.391-1.406,1.476-5.98,1.079-7.489a11.85,11.85,0,0,0-.923-2.239,9.934,9.934,0,0,1-1.051-2.817,25.747,25.747,0,0,1-.224-3.793c0-.437-.007-.864-.019-1.271a.238.238,0,0,1,.231-.246h.007a.238.238,0,0,1,.24.231c.012.41.016.842.021,1.282a25.216,25.216,0,0,0,.216,3.721,9.42,9.42,0,0,0,1.008,2.681,12.36,12.36,0,0,1,.957,2.331c.416,1.578.39,6.339-1.2,7.948A1.746,1.746,0,0,1,130,76.858Z" transform="translate(-74.755 -7.149)" fill="#fff"/>
          <path id="Trazado_149950" data-name="Trazado 149950" d="M106.63,144.163a.289.289,0,0,1-.253-.425A27.311,27.311,0,0,0,108.233,139a36.567,36.567,0,0,1,1.354-3.737c.6-1.342,1.3-2.658,1.978-3.928.695-1.3,1.414-2.651,2.017-4.02.692-1.568,1.372-3.033,2.032-4.448a88.745,88.745,0,0,0,6.142-16.243c.673-2.532,1.457-5.075,2.217-7.535.384-1.242.766-2.482,1.138-3.727L129.6,80.275a.282.282,0,0,1,.359-.194.288.288,0,0,1,.193.359l-4.494,15.088q-.558,1.869-1.139,3.733c-.757,2.454-1.54,4.991-2.209,7.511a89.268,89.268,0,0,1-6.178,16.34c-.658,1.412-1.337,2.875-2.027,4.438-.612,1.388-1.335,2.746-2.035,4.057-.673,1.262-1.369,2.569-1.96,3.893a36.039,36.039,0,0,0-1.332,3.679,27.728,27.728,0,0,1-1.9,4.835A.291.291,0,0,1,106.63,144.163Z" transform="translate(-85.821 3.431)" fill="#fff"/>
        </g>
      </g>
    </g>
    <path id="Trazado_151844" data-name="Trazado 151844" d="M.152,7.638C.016,5.558-.655.7,2.518.071A7.765,7.765,0,0,1,6.832.893C9.436,2.133,9.784,5.35,9.9,7.826a3.424,3.424,0,0,0,.174,1.245c.166.332.724.51.841.776a.994.994,0,0,1-.947,1.331c-.732.079-1.223-.653-1.909-.228-.646.4-.194,1.131-.282,1.746a1.35,1.35,0,0,1-1.4,1.178c-.342.03-.841-.28-1.049-.253-.481.067-.239.379-.635.576s-.408.19-.837,0c-.1-.047-.091-.437-.26-.495s-.365.079-.4.071c-.367-.093-.535.271-1.009-.23a8.191,8.191,0,0,1-1.1-2.657A11.39,11.39,0,0,1,.152,7.638Z" transform="matrix(0.875, -0.485, 0.485, 0.875, 1104.922, 259.051)" fill="#f7b242"/>
    <path id="Trazado_151845" data-name="Trazado 151845" d="M.152,7.638C.016,5.558-.655.7,2.518.071A7.765,7.765,0,0,1,6.832.893C9.436,2.133,9.784,5.35,9.9,7.826a3.424,3.424,0,0,0,.174,1.245c.166.332.724.51.841.776a.994.994,0,0,1-.947,1.331c-.732.079-1.223-.653-1.909-.228-.646.4-.194,1.131-.282,1.746a1.35,1.35,0,0,1-1.4,1.178c-.342.03-.841-.28-1.049-.253-.481.067-.239.379-.635.576s-.408.19-.837,0c-.1-.047-.091-.437-.26-.495s-.365.079-.4.071c-.367-.093-.535.271-1.009-.23a8.191,8.191,0,0,1-1.1-2.657A11.39,11.39,0,0,1,.152,7.638Z" transform="matrix(0.875, -0.485, 0.485, 0.875, 915.259, 262.718)" fill="#f7b242"/>
  </g>
</svg>
