<svg xmlns="http://www.w3.org/2000/svg" width="526.652" height="574.89" viewBox="0 0 526.652 574.89">
  <g id="img14" transform="translate(-900.348 -7841)">
    <g id="Grupo_124053" data-name="Grupo 124053" transform="translate(900.348 7841)">
      <path id="Trazado_151846" data-name="Trazado 151846" d="M534.369,654.616c19.768-36.423,25.392-83.694,14.925-125.437-6.618-26.391-19.318-50.908-20.942-78.428-3.248-55.022,37.69-99.505,46.182-153.7,3.733-23.816-.34-51.562-16.34-66.028-15.8-14.288-38.36-11.371-56.252-1.365s-33.031,26.025-50.209,37.736-38.33,18.95-56.471,9.63c-18.375-9.441-28.8-33.238-34.637-56.431s-8.7-47.9-18.668-68.908c-16.422-34.631-51.436-53.513-84.065-48.627s-61.782,31.651-77.42,66.814S162.1,247.571,169.887,286.41c3.949,19.7,10.453,38.561,14,58.373s3.872,41.495-4.047,59.339c-16.559,37.314-60.244,42.518-83.121,74.518-18.881,26.411-19.473,66.715-8.758,99.195s30.853,58.832,50.93,83.9c93.648,3.828,188.975,4.081,282.623,7.909C457.91,671.134,498.015,657.219,534.369,654.616Z" transform="translate(-80.961 -94.868)" fill="#a4a4b4" opacity="0.354" style="mix-blend-mode: multiply;isolation: isolate"/>
      <path id="Trazado_151847" data-name="Trazado 151847" d="M359.211,201.389c-.248,28.57,24.933,53.436,20.55,81.613-2.343,15.076-12.994,30.359-6.8,44.111,5.476,12.168,21.161,14.278,33.153,10.322,28.071-9.263,45.134-40.212,53.294-70.628,7.675-28.609,9.58-60.566-2.712-87.236-9.905-21.488-32.757-40.458-55.963-38.7C379.474,142.476,359.4,179.869,359.211,201.389Z" transform="translate(61.112 -70.667)" fill="#a4a4b4" opacity="0.31" style="mix-blend-mode: multiply;isolation: isolate"/>
      <path id="Trazado_151848" data-name="Trazado 151848" d="M121.228,166.433c-18.751,33.744-19.6,78.218-2.144,112.761,5.515,10.915,12.964,21.087,23.022,27.156s23.032,7.423,33.043,1.264c15.182-9.341,18.54-31.373,17.331-50.18s-5.159-38.524,1.556-55.929c4.378-11.345,12.783-20.191,20.239-29.481s14.416-20.135,14.8-32.417c1-31.837-30.339-29.458-49.224-22.847A109.049,109.049,0,0,0,121.228,166.433Z" transform="translate(-67.892 -88.348)" fill="#a4a4b4" opacity="0.31" style="mix-blend-mode: multiply;isolation: isolate"/>
      <g id="Grupo_107069" data-name="Grupo 107069" transform="translate(10.491)" style="mix-blend-mode: multiply;isolation: isolate">
        <path id="Trazado_151849" data-name="Trazado 151849" d="M526.148,665.729l-2.014-2.235c5.541-7.363,14.385-24.241,11.391-54.586-1.332-13.508-4.636-26.852-7.831-39.756-1.426-5.765-2.9-11.726-4.19-17.646-13.74-63.161-7.73-132.836,16.49-191.157,2.151-5.175,4.479-10.369,6.731-15.39,6.675-14.887,13.577-30.283,16.546-46.913,5.206-29.183-5.085-51.056-16.848-59.029-11.286-7.653-27.216-6.483-43.7,3.21A204.845,204.845,0,0,0,485.155,254.3c-7.493,5.543-15.239,11.273-23.558,15.33-32.727,15.963-73.645,2.4-95.175-31.552-10.348-16.314-16.191-36.031-21.84-55.1-2.189-7.388-4.453-15.03-6.943-22.342-7.743-22.731-21.916-51.264-45.459-58.088-20.686-6-41.638,7.186-55.569,19.3a165.453,165.453,0,0,0-52.9,88.412c-5.032,22.812-5.234,47.64-5.431,71.651-.292,35.758-.594,72.733-17.2,102.511-7.556,13.546-17.949,24.355-28,34.808-9.413,9.789-19.145,19.912-26.4,32.182-16.44,27.8-20.47,67.163-11.056,107.991,8.459,36.683,25.7,69.232,42.378,100.711l-2.292,1.793C118.922,630.229,101.565,597.467,93,560.3c-9.639-41.8-5.459-82.2,11.467-110.819,7.447-12.6,17.307-22.849,26.84-32.766,9.914-10.31,20.165-20.973,27.514-34.149,16.148-28.951,16.432-63.794,16.733-100.683.2-24.219.4-49.26,5.526-72.48a168.854,168.854,0,0,1,53.95-90.248c14.391-12.518,36.1-26.121,57.788-19.831,24.662,7.15,39.359,36.6,47.344,60.044,2.515,7.383,4.79,15.062,6.99,22.487,5.579,18.827,11.346,38.3,21.434,54.2,20.813,32.817,60.367,45.93,92,30.5,8.107-3.954,15.757-9.612,23.156-15.084a206.493,206.493,0,0,1,17.792-12.228c17.3-10.167,34.144-11.309,46.22-3.122,12.614,8.551,23.685,31.8,18.185,62.626-3.051,17.1-10.049,32.7-16.818,47.8-2.242,5-4.561,10.167-6.69,15.3-23.923,57.607-29.86,126.428-16.287,188.816,1.275,5.866,2.745,11.8,4.165,17.539,3.228,13.039,6.567,26.522,7.929,40.316C541.357,640.172,532,657.952,526.148,665.729Z" transform="translate(-87.906 -97.739)" fill="#a4a4b4"/>
      </g>
    </g>
    <g id="Grupo_124052" data-name="Grupo 124052" transform="translate(875.372 7860.658)">
      <g id="Checklist" transform="translate(151.012 48.818)">
        <g id="Grupo_123843" data-name="Grupo 123843">
          <g id="Grupo_123785" data-name="Grupo 123785" transform="translate(0 33.127)">
            <rect id="Rect치ngulo_34554" data-name="Rect치ngulo 34554" width="304.616" height="417.411" fill="#1d272b"/>
          </g>
          <g id="Grupo_123786" data-name="Grupo 123786" transform="translate(25.365 49.997)">
            <path id="Trazado_160013" data-name="Trazado 160013" d="M425.137,464.336H157.926V88.621H425.137V464.336Z" transform="translate(-157.926 -88.621)" fill="#e0e0e0"/>
          </g>
          <g id="Grupo_123787" data-name="Grupo 123787" transform="translate(23.551 45.029)">
            <path id="Trazado_160014" data-name="Trazado 160014" d="M421.286,458.379h-264.8V84.666h264.8V458.379Z" transform="translate(-156.482 -84.666)" fill="#ebebeb"/>
          </g>
          <g id="Grupo_123791" data-name="Grupo 123791" transform="translate(18.28 45.649)">
            <g id="Grupo_123788" data-name="Grupo 123788" transform="translate(0.327 0.327)">
              <path id="Trazado_160015" data-name="Trazado 160015" d="M393.839,429.1l-30.5,24.835H152.546V85.421H419.757V408.092Z" transform="translate(-152.546 -85.421)" fill="#fafafa"/>
            </g>
            <g id="Grupo_123790" data-name="Grupo 123790">
              <g id="Grupo_123789" data-name="Grupo 123789">
                <path id="Trazado_160016" data-name="Trazado 160016" d="M393.906,429.169s.54-.461,1.628-1.355l4.886-3.994,19.338-15.742-.038.08c-.031-53-.1-170.777-.192-322.67l.3.3-264.879.031h-2.333l.327-.327c-.024,138.543-.046,266.352-.064,368.516l-.263-.261,210.793.149-.07.025,22.9-18.581q3.821-3.086,5.739-4.636c1.279-1.029,1.927-1.531,1.927-1.531s-.624.533-1.89,1.576l-5.7,4.682-22.836,18.663-.03.025h-.04l-210.793.151h-.261V454c-.018-102.163-.04-229.973-.064-368.516V85.16h2.659l264.879.031h.3v.3c-.09,151.893-.16,269.667-.191,322.67v.05l-.039.031-19.4,15.662-4.919,3.954C394.468,428.736,393.906,429.169,393.906,429.169Z" transform="translate(-152.286 -85.16)" fill="#263238"/>
              </g>
            </g>
          </g>
          <g id="Grupo_123792" data-name="Grupo 123792" transform="translate(97.627 20.223)">
            <path id="Rect치ngulo_34555" data-name="Rect치ngulo 34555" d="M14.757,0h80.45a14.154,14.154,0,0,1,14.154,14.154V37.491a0,0,0,0,1,0,0H0a0,0,0,0,1,0,0V14.757A14.757,14.757,0,0,1,14.757,0Z" fill="#1d272b"/>
          </g>
          <g id="Grupo_123793" data-name="Grupo 123793" transform="translate(120.415)">
            <path id="Trazado_160017" data-name="Trazado 160017" d="M237.594,69.041l-4-20.223h62.968l-3.5,20.223Z" transform="translate(-233.596 -48.818)" fill="#1d272b"/>
          </g>
          <g id="Grupo_123803" data-name="Grupo 123803" transform="translate(46.556 104.688)">
            <g id="Grupo_123794" data-name="Grupo 123794">
              <path id="Trazado_160018" data-name="Trazado 160018" d="M219.814,177.179H174.8V132.161h45.018Zm-43.762-1.256h42.506V133.417H176.052Z" transform="translate(-174.796 -132.161)" fill="#1d272b"/>
            </g>
            <g id="Grupo_123796" data-name="Grupo 123796" transform="translate(64.126 10.544)">
              <g id="Grupo_123795" data-name="Grupo 123795">
                <path id="Trazado_160019" data-name="Trazado 160019" d="M365.816,140.883c0,.18-31.335.327-69.981.327s-69.988-.147-69.988-.327,31.329-.328,69.988-.328S365.816,140.7,365.816,140.883Z" transform="translate(-225.847 -140.555)" fill="#263238"/>
              </g>
            </g>
            <g id="Grupo_123798" data-name="Grupo 123798" transform="translate(64.126 19.899)">
              <g id="Grupo_123797" data-name="Grupo 123797">
                <path id="Trazado_160020" data-name="Trazado 160020" d="M365.816,148.33c0,.181-31.335.327-69.981.327s-69.988-.146-69.988-.327S257.176,148,295.835,148,365.816,148.149,365.816,148.33Z" transform="translate(-225.847 -148.003)" fill="#263238"/>
              </g>
            </g>
            <g id="Grupo_123800" data-name="Grupo 123800" transform="translate(64.126 29.254)">
              <g id="Grupo_123799" data-name="Grupo 123799">
                <path id="Trazado_160021" data-name="Trazado 160021" d="M365.816,155.777c0,.181-31.335.328-69.981.328s-69.988-.147-69.988-.328,31.329-.327,69.988-.327S365.816,155.6,365.816,155.777Z" transform="translate(-225.847 -155.45)" fill="#263238"/>
              </g>
            </g>
            <g id="Grupo_123802" data-name="Grupo 123802" transform="translate(64.126 38.608)">
              <g id="Grupo_123801" data-name="Grupo 123801">
                <path id="Trazado_160022" data-name="Trazado 160022" d="M365.816,163.224c0,.181-31.335.328-69.981.328s-69.988-.147-69.988-.328,31.329-.327,69.988-.327S365.816,163.044,365.816,163.224Z" transform="translate(-225.847 -162.897)" fill="#263238"/>
              </g>
            </g>
          </g>
          <g id="Grupo_123814" data-name="Grupo 123814" transform="translate(46.556 174.067)">
            <g id="Grupo_123804" data-name="Grupo 123804">
              <path id="Trazado_160023" data-name="Trazado 160023" d="M219.814,232.412H174.8V187.394h45.018Zm-43.762-1.256h42.506V188.65H176.052Z" transform="translate(-174.796 -187.394)" fill="#1d272b"/>
            </g>
            <g id="Grupo_123805" data-name="Grupo 123805" transform="translate(8.952 2.851)">
              <path id="Trazado_160024" data-name="Trazado 160024" d="M181.923,210.248l5.976-6.419,9.96,7.968,22.8-22.134,5.462,6.437-28.7,28.314Z" transform="translate(-181.923 -189.664)" fill="#008f85"/>
            </g>
            <g id="Grupo_123807" data-name="Grupo 123807" transform="translate(64.126 10.545)">
              <g id="Grupo_123806" data-name="Grupo 123806">
                <path id="Trazado_160025" data-name="Trazado 160025" d="M365.816,196.116c0,.181-31.335.327-69.981.327s-69.988-.146-69.988-.327,31.329-.327,69.988-.327S365.816,195.935,365.816,196.116Z" transform="translate(-225.847 -195.789)" fill="#263238"/>
              </g>
            </g>
            <g id="Grupo_123809" data-name="Grupo 123809" transform="translate(64.126 19.899)">
              <g id="Grupo_123808" data-name="Grupo 123808">
                <path id="Trazado_160026" data-name="Trazado 160026" d="M365.816,203.563c0,.181-31.335.328-69.981.328s-69.988-.147-69.988-.328,31.329-.327,69.988-.327S365.816,203.382,365.816,203.563Z" transform="translate(-225.847 -203.236)" fill="#263238"/>
              </g>
            </g>
            <g id="Grupo_123811" data-name="Grupo 123811" transform="translate(64.126 29.254)">
              <g id="Grupo_123810" data-name="Grupo 123810">
                <path id="Trazado_160027" data-name="Trazado 160027" d="M365.816,211.011c0,.18-31.335.327-69.981.327s-69.988-.147-69.988-.327,31.329-.328,69.988-.328S365.816,210.83,365.816,211.011Z" transform="translate(-225.847 -210.683)" fill="#263238"/>
              </g>
            </g>
            <g id="Grupo_123813" data-name="Grupo 123813" transform="translate(64.126 38.608)">
              <g id="Grupo_123812" data-name="Grupo 123812">
                <path id="Trazado_160028" data-name="Trazado 160028" d="M365.816,218.458c0,.181-31.335.327-69.981.327s-69.988-.146-69.988-.327,31.329-.328,69.988-.328S365.816,218.277,365.816,218.458Z" transform="translate(-225.847 -218.13)" fill="#263238"/>
              </g>
            </g>
          </g>
          <g id="Grupo_123825" data-name="Grupo 123825" transform="translate(46.556 241.204)">
            <g id="Grupo_123815" data-name="Grupo 123815">
              <path id="Trazado_160029" data-name="Trazado 160029" d="M219.814,285.86H174.8V240.842h45.018ZM176.052,284.6h42.506V242.1H176.052Z" transform="translate(-174.796 -240.842)" fill="#1d272b"/>
            </g>
            <g id="Grupo_123816" data-name="Grupo 123816" transform="translate(8.952 2.851)">
              <path id="Trazado_160030" data-name="Trazado 160030" d="M181.923,263.7l5.976-6.419,9.96,7.968,22.8-22.134,5.462,6.437-28.7,28.314Z" transform="translate(-181.923 -243.112)" fill="#008f85"/>
            </g>
            <g id="Grupo_123818" data-name="Grupo 123818" transform="translate(64.126 10.545)">
              <g id="Grupo_123817" data-name="Grupo 123817">
                <path id="Trazado_160031" data-name="Trazado 160031" d="M365.816,249.564c0,.181-31.335.327-69.981.327s-69.988-.146-69.988-.327,31.329-.327,69.988-.327S365.816,249.383,365.816,249.564Z" transform="translate(-225.847 -249.237)" fill="#263238"/>
              </g>
            </g>
            <g id="Grupo_123820" data-name="Grupo 123820" transform="translate(64.126 19.899)">
              <g id="Grupo_123819" data-name="Grupo 123819">
                <path id="Trazado_160032" data-name="Trazado 160032" d="M365.816,257.011c0,.181-31.335.328-69.981.328s-69.988-.147-69.988-.328,31.329-.327,69.988-.327S365.816,256.831,365.816,257.011Z" transform="translate(-225.847 -256.684)" fill="#263238"/>
              </g>
            </g>
            <g id="Grupo_123822" data-name="Grupo 123822" transform="translate(64.126 29.254)">
              <g id="Grupo_123821" data-name="Grupo 123821">
                <path id="Trazado_160033" data-name="Trazado 160033" d="M365.816,264.458c0,.181-31.335.328-69.981.328s-69.988-.147-69.988-.328,31.329-.327,69.988-.327S365.816,264.278,365.816,264.458Z" transform="translate(-225.847 -264.131)" fill="#263238"/>
              </g>
            </g>
            <g id="Grupo_123824" data-name="Grupo 123824" transform="translate(64.126 38.608)">
              <g id="Grupo_123823" data-name="Grupo 123823">
                <path id="Trazado_160034" data-name="Trazado 160034" d="M365.816,271.906c0,.181-31.335.327-69.981.327s-69.988-.146-69.988-.327,31.329-.328,69.988-.328S365.816,271.725,365.816,271.906Z" transform="translate(-225.847 -271.578)" fill="#263238"/>
              </g>
            </g>
          </g>
          <g id="Grupo_123836" data-name="Grupo 123836" transform="translate(46.556 306.027)">
            <g id="Grupo_123826" data-name="Grupo 123826">
              <path id="Trazado_160035" data-name="Trazado 160035" d="M219.814,337.465H174.8V292.448h45.018Zm-43.762-1.256h42.506V293.7H176.052Z" transform="translate(-174.796 -292.448)" fill="#1d272b"/>
            </g>
            <g id="Grupo_123827" data-name="Grupo 123827" transform="translate(8.952 2.85)">
              <path id="Trazado_160036" data-name="Trazado 160036" d="M181.923,315.3l5.976-6.419,9.96,7.968,22.8-22.134,5.462,6.437-28.7,28.314Z" transform="translate(-181.923 -294.717)" fill="#008f85"/>
            </g>
            <g id="Grupo_123829" data-name="Grupo 123829" transform="translate(64.126 10.544)">
              <g id="Grupo_123828" data-name="Grupo 123828">
                <path id="Trazado_160037" data-name="Trazado 160037" d="M365.816,301.17c0,.18-31.335.327-69.981.327s-69.988-.147-69.988-.327,31.329-.328,69.988-.328S365.816,300.989,365.816,301.17Z" transform="translate(-225.847 -300.842)" fill="#263238"/>
              </g>
            </g>
            <g id="Grupo_123831" data-name="Grupo 123831" transform="translate(64.126 19.898)">
              <g id="Grupo_123830" data-name="Grupo 123830">
                <path id="Trazado_160038" data-name="Trazado 160038" d="M365.816,308.617c0,.181-31.335.327-69.981.327s-69.988-.146-69.988-.327,31.329-.328,69.988-.328S365.816,308.436,365.816,308.617Z" transform="translate(-225.847 -308.289)" fill="#263238"/>
              </g>
            </g>
            <g id="Grupo_123833" data-name="Grupo 123833" transform="translate(64.126 29.254)">
              <g id="Grupo_123832" data-name="Grupo 123832">
                <path id="Trazado_160039" data-name="Trazado 160039" d="M365.816,316.064c0,.181-31.335.327-69.981.327s-69.988-.146-69.988-.327,31.329-.327,69.988-.327S365.816,315.883,365.816,316.064Z" transform="translate(-225.847 -315.737)" fill="#263238"/>
              </g>
            </g>
            <g id="Grupo_123835" data-name="Grupo 123835" transform="translate(64.126 38.608)">
              <g id="Grupo_123834" data-name="Grupo 123834">
                <path id="Trazado_160040" data-name="Trazado 160040" d="M365.816,323.511c0,.181-31.335.328-69.981.328s-69.988-.147-69.988-.328,31.329-.327,69.988-.327S365.816,323.331,365.816,323.511Z" transform="translate(-225.847 -323.184)" fill="#263238"/>
              </g>
            </g>
          </g>
          <g id="Grupo_123837" data-name="Grupo 123837" transform="translate(208.484 353.48)">
            <path id="Trazado_160041" data-name="Trazado 160041" d="M333,330.226l-29.3,60.671h20.916Z" transform="translate(-303.708 -330.226)" fill="#e0e0e0"/>
          </g>
          <g id="Grupo_123841" data-name="Grupo 123841" transform="translate(229.399 353.421)">
            <g id="Grupo_123838" data-name="Grupo 123838" transform="translate(0.001 0.401)">
              <path id="Trazado_160042" data-name="Trazado 160042" d="M320.36,391.17l8.379-60.671,48.039,14.826Z" transform="translate(-320.36 -330.498)" fill="#fafafa"/>
            </g>
            <g id="Grupo_123840" data-name="Grupo 123840">
              <g id="Grupo_123839" data-name="Grupo 123839">
                <path id="Trazado_160043" data-name="Trazado 160043" d="M320.36,391.251l16.154-13.3,40.063-32.8.108.553L358.137,340c-10.4-3.217-20.372-6.3-29.488-9.121l.4-.252c-2.51,17.623-4.661,32.719-6.19,43.45-1.515,10.433-2.3,15.818-2.493,17.179a2.352,2.352,0,0,1,.026-.269l.107-.84c.1-.785.246-1.889.432-3.3.388-2.947.947-7.184,1.649-12.506,1.447-10.816,3.483-26.032,5.86-43.794l.048-.359.348.107,29.5,9.084,18.543,5.73.574.177-.467.377L336.432,378.36l-11.84,9.515-3.158,2.532c-.338.268-.6.48-.809.643C320.444,391.192,320.355,391.26,320.36,391.251Z" transform="translate(-320.359 -330.179)" fill="#263238"/>
              </g>
            </g>
          </g>
          <g id="Grupo_123842" data-name="Grupo 123842" transform="translate(175.56)" opacity="0.3">
            <path id="Trazado_160044" data-name="Trazado 160044" d="M280.97,48.818,277.5,69.041h4.324l3.5-20.223h-5.507" transform="translate(-277.498 -48.818)"/>
          </g>
        </g>
      </g>
      <g id="Character" transform="translate(85.885 168.09)">
        <g id="Grupo_124051" data-name="Grupo 124051">
          <g id="Grupo_123858" data-name="Grupo 123858" transform="translate(30.751 10.095)">
            <g id="Grupo_123849" data-name="Grupo 123849" transform="translate(19.445 16.669)">
              <g id="Grupo_123848" data-name="Grupo 123848">
                <g id="Grupo_123847" data-name="Grupo 123847">
                  <g id="Grupo_123846" data-name="Grupo 123846">
                    <g id="Grupo_123845" data-name="Grupo 123845">
                      <g id="Grupo_123844" data-name="Grupo 123844">
                        <path id="Trazado_160045" data-name="Trazado 160045" d="M135.37,232.337h0A11.3,11.3,0,0,0,147.524,221.5c.237-6.151.443-12.369.443-12.369s9.32-.873,10-10.1.368-30.52.368-30.52h0a32.144,32.144,0,0,0-32.484,2.089l.574,32.464v17.466C126.483,226.394,129.527,231.888,135.37,232.337Z" transform="translate(-125.847 -165.078)" fill="#ffbe9d"/>
                      </g>
                    </g>
                  </g>
                </g>
              </g>
            </g>
            <g id="Grupo_123850" data-name="Grupo 123850" transform="translate(14.654 8.933)">
              <path id="Trazado_160046" data-name="Trazado 160046" d="M149.747,189.352c-1.59-1.972-4.178-2.757-6.3-1.377a5.364,5.364,0,0,0-1.786,6.7,7.063,7.063,0,0,0,4.526,3.422,3.544,3.544,0,0,1,2.773,3.815,11.808,11.808,0,0,1-3.238,6.424A17.029,17.029,0,0,1,135.04,213.4c-3.928.465-8.429-.354-10.715-3.584-1.663-2.349-1.784-5.42-1.843-8.3l-.422-20.4a29.24,29.24,0,0,1,.465-7.321,9.828,9.828,0,0,1,3.861-6.054c2.243-1.476,5.086-1.6,7.642-2.428,3.194-1.034,5.908-3.153,8.9-4.682s6.652-2.443,9.653-.937c2.154,1.081,3.6,3.231,5.693,4.422,2.983,1.7,7.043,1.311,8.491,5.7a7.434,7.434,0,0,1-.05,4.69c-2.022,5.968-9.413,8.374-14.737,5.794-.1,1.011.891,3.261-.173,6.454-.34,1.02-.461,2.576-2.056,2.605" transform="translate(-122.032 -158.92)" fill="#263238"/>
            </g>
            <g id="Grupo_123851" data-name="Grupo 123851" transform="translate(1.247)">
              <path id="Trazado_160047" data-name="Trazado 160047" d="M127.025,172.185a31.414,31.414,0,0,0,2.964-9.266c.329-3.24-.494-6.768-2.908-8.955A8.736,8.736,0,0,0,121,151.812a10.283,10.283,0,0,0-9.269,7.344A11.073,11.073,0,0,0,115.46,170.5a12.007,12.007,0,0,0,11.951,1.559" transform="translate(-111.359 -151.808)" fill="#263238"/>
            </g>
            <g id="Grupo_123853" data-name="Grupo 123853" transform="translate(14.353 17.012)">
              <g id="Grupo_123852" data-name="Grupo 123852">
                <path id="Trazado_160048" data-name="Trazado 160048" d="M126.165,165.352c.175-.005.025,1.642-1.36,2.979-1.372,1.354-3.02,1.465-3.011,1.29-.045-.187,1.35-.556,2.554-1.757C125.578,166.69,125.98,165.3,126.165,165.352Z" transform="translate(-121.793 -165.351)" fill="#e8505b"/>
              </g>
            </g>
            <g id="Grupo_123855" data-name="Grupo 123855" transform="translate(5.189 10.879)">
              <g id="Grupo_123854" data-name="Grupo 123854">
                <path id="Trazado_160049" data-name="Trazado 160049" d="M125,168.856a8.668,8.668,0,0,1-2.5,1.833,7.239,7.239,0,0,1-3.3.935,4.594,4.594,0,0,1-3.85-1.727,5.126,5.126,0,0,1-.682-4.172,8.111,8.111,0,0,1,1.551-3.054,9.559,9.559,0,0,1,2.183-2.2,29.418,29.418,0,0,1-1.81,2.473,8.3,8.3,0,0,0-1.336,2.912,4.657,4.657,0,0,0,.622,3.654,4.075,4.075,0,0,0,3.321,1.511,7.243,7.243,0,0,0,3.1-.746C123.969,169.462,124.938,168.76,125,168.856Z" transform="translate(-114.498 -160.468)" fill="#263238"/>
              </g>
            </g>
            <g id="Grupo_123857" data-name="Grupo 123857" transform="translate(0 20.35)">
              <g id="Grupo_123856" data-name="Grupo 123856">
                <path id="Trazado_160050" data-name="Trazado 160050" d="M110.378,177.345a4.063,4.063,0,0,1,.448,1.023,10.546,10.546,0,0,0,1.359,2.628,3.813,3.813,0,0,0,3.613,1.662,4.955,4.955,0,0,0,3.476-3.5,36.077,36.077,0,0,0,.945-5.359,8.274,8.274,0,0,1,1.761-4.226,4.534,4.534,0,0,1,2.686-1.531,1.773,1.773,0,0,1,1.129.1c-.005.063-.408-.018-1.082.154a4.57,4.57,0,0,0-2.383,1.581,8.162,8.162,0,0,0-1.517,4.022,32.018,32.018,0,0,1-.919,5.474,5.489,5.489,0,0,1-3.989,3.881,3.679,3.679,0,0,1-2.5-.484,5.2,5.2,0,0,1-1.589-1.5,9.059,9.059,0,0,1-1.228-2.824A3.451,3.451,0,0,1,110.378,177.345Z" transform="translate(-110.366 -168.008)" fill="#263238"/>
              </g>
            </g>
          </g>
          <g id="Grupo_123859" data-name="Grupo 123859" transform="translate(24.141 117.274)">
            <path id="Trazado_160051" data-name="Trazado 160051" d="M107.193,237.134s-4.7,34.443,0,38.809,9.229,2.917,9.229,2.917l8.952-7.486,1.762-34.239Z" transform="translate(-105.103 -237.134)" fill="#ffbe9d"/>
          </g>
          <g id="Grupo_123862" data-name="Grupo 123862" transform="translate(100.662)">
            <g id="Grupo_123860" data-name="Grupo 123860" transform="translate(22.861)">
              <path id="Trazado_160052" data-name="Trazado 160052" d="M184.223,164.356l5.976-6.419,9.96,7.968,22.8-22.134,5.462,6.437-28.7,28.313Z" transform="translate(-184.223 -143.772)" fill="#008f85"/>
            </g>
            <g id="Grupo_123861" data-name="Grupo 123861" transform="translate(0 22.332)">
              <path id="Trazado_160053" data-name="Trazado 160053" d="M216.967,161.551l-8.667,5.562c-.392-3.425-3.007-6.822-2.873-5.1s.016,10.649.016,10.649l-15.456,32.523c-2.1,5.153-6.357,8.391-9.536,9.156l-14.428,4.29,5.64,19.074,20.053-6.649a17.292,17.292,0,0,0,10.99-11.022l13.822-42.109a65.323,65.323,0,0,0,2.235-8.3C219.353,166.118,216.967,161.551,216.967,161.551Z" transform="translate(-166.023 -161.55)" fill="#ffbe9d"/>
            </g>
          </g>
          <g id="Grupo_123934" data-name="Grupo 123934" transform="translate(62.215 368.387)">
            <g id="Grupo_123933" data-name="Grupo 123933">
              <g id="Grupo_123869" data-name="Grupo 123869" transform="translate(0.095)">
                <g id="Grupo_123865" data-name="Grupo 123865">
                  <g id="Grupo_123864" data-name="Grupo 123864">
                    <g id="Grupo_123863" data-name="Grupo 123863">
                      <path id="Trazado_160054" data-name="Trazado 160054" d="M153.774,446.691l-.216-9.644-18.067.289.166,14.112,1.122.054c4.989.2,25.385.651,28.7-.413C169.18,449.9,153.774,446.691,153.774,446.691Z" transform="translate(-135.491 -437.047)" fill="#868695"/>
                    </g>
                  </g>
                </g>
                <g id="Grupo_123868" data-name="Grupo 123868" transform="translate(0.103 9.067)" opacity="0.5">
                  <g id="Grupo_123867" data-name="Grupo 123867">
                    <g id="Grupo_123866" data-name="Grupo 123866">
                      <path id="Trazado_160055" data-name="Trazado 160055" d="M142.184,449.353a6.268,6.268,0,0,0-2.367-3.816,6.094,6.094,0,0,0-4.244-1.246l.077,5.05Z" transform="translate(-135.573 -444.265)" fill="#fff"/>
                    </g>
                  </g>
                </g>
              </g>
              <g id="Grupo_123872" data-name="Grupo 123872" transform="translate(0.261 11.481)" opacity="0.4">
                <g id="Grupo_123871" data-name="Grupo 123871">
                  <g id="Grupo_123870" data-name="Grupo 123870">
                    <path id="Trazado_160056" data-name="Trazado 160056" d="M161.272,446.187s5.405,1.466,4.748,2.363-21.286,1.213-30.4.558l.023-.4,24.065-.165S160.22,446.247,161.272,446.187Z" transform="translate(-135.623 -446.187)" fill="#fff"/>
                  </g>
                </g>
              </g>
              <g id="Grupo_123876" data-name="Grupo 123876" transform="translate(0 13.534)">
                <g id="Grupo_123875" data-name="Grupo 123875">
                  <g id="Grupo_123874" data-name="Grupo 123874">
                    <g id="Grupo_123873" data-name="Grupo 123873">
                      <path id="Trazado_160057" data-name="Trazado 160057" d="M135.415,448.278a1.64,1.64,0,0,0,.312.029l.892.04,3.286.091c2.776.058,6.611.085,10.845.024s8.069-.2,10.842-.34l3.281-.187.892-.067a1.7,1.7,0,0,0,.31-.038,1.616,1.616,0,0,0-.313-.006l-.893.025-3.284.117c-2.773.1-6.6.215-10.838.278s-8.066.058-10.84.04l-3.286-.021h-.894A1.66,1.66,0,0,0,135.415,448.278Z" transform="translate(-135.415 -447.822)" fill="#263238"/>
                    </g>
                  </g>
                </g>
              </g>
              <g id="Grupo_123880" data-name="Grupo 123880" transform="translate(24.313 11.257)">
                <g id="Grupo_123879" data-name="Grupo 123879">
                  <g id="Grupo_123878" data-name="Grupo 123878">
                    <g id="Grupo_123877" data-name="Grupo 123877">
                      <path id="Trazado_160058" data-name="Trazado 160058" d="M154.805,448.864a4.784,4.784,0,0,1,1.689-2.85,2.922,2.922,0,0,0-1.689,2.85Z" transform="translate(-154.77 -446.009)" fill="#263238"/>
                    </g>
                  </g>
                </g>
              </g>
              <g id="Grupo_123884" data-name="Grupo 123884" transform="translate(18.966 9.97)">
                <g id="Grupo_123883" data-name="Grupo 123883">
                  <g id="Grupo_123882" data-name="Grupo 123882">
                    <g id="Grupo_123881" data-name="Grupo 123881">
                      <path id="Trazado_160059" data-name="Trazado 160059" d="M150.523,446.5c.051.033.3-.281.559-.7s.425-.785.373-.816-.3.283-.559.7S150.471,446.472,150.523,446.5Z" transform="translate(-150.514 -444.984)" fill="#263238"/>
                    </g>
                  </g>
                </g>
              </g>
              <g id="Grupo_123888" data-name="Grupo 123888" transform="translate(17.495 9.702)">
                <g id="Grupo_123887" data-name="Grupo 123887">
                  <g id="Grupo_123886" data-name="Grupo 123886">
                    <g id="Grupo_123885" data-name="Grupo 123885">
                      <path id="Trazado_160060" data-name="Trazado 160060" d="M149.348,445.809c.041.044.324-.151.631-.435s.523-.551.481-.6-.323.151-.629.436S149.308,445.763,149.348,445.809Z" transform="translate(-149.343 -444.771)" fill="#263238"/>
                    </g>
                  </g>
                </g>
              </g>
              <g id="Grupo_123892" data-name="Grupo 123892" transform="translate(16.549 8.935)">
                <g id="Grupo_123891" data-name="Grupo 123891">
                  <g id="Grupo_123890" data-name="Grupo 123890">
                    <g id="Grupo_123889" data-name="Grupo 123889">
                      <path id="Trazado_160061" data-name="Trazado 160061" d="M148.59,444.273a4.133,4.133,0,1,0,.943-.113A2.141,2.141,0,0,0,148.59,444.273Z" transform="translate(-148.59 -444.16)" fill="#263238"/>
                    </g>
                  </g>
                </g>
              </g>
              <g id="Grupo_123896" data-name="Grupo 123896" transform="translate(16.213 7.832)">
                <g id="Grupo_123895" data-name="Grupo 123895">
                  <g id="Grupo_123894" data-name="Grupo 123894">
                    <g id="Grupo_123893" data-name="Grupo 123893">
                      <path id="Trazado_160062" data-name="Trazado 160062" d="M148.323,443.3a2.65,2.65,0,0,0,2.14.128,75.625,75.625,0,0,1-2.14-.128Z" transform="translate(-148.323 -443.282)" fill="#263238"/>
                    </g>
                  </g>
                </g>
              </g>
              <g id="Grupo_123900" data-name="Grupo 123900" transform="translate(19.564 8.245)">
                <g id="Grupo_123899" data-name="Grupo 123899">
                  <g id="Grupo_123898" data-name="Grupo 123898">
                    <g id="Grupo_123897" data-name="Grupo 123897">
                      <path id="Trazado_160063" data-name="Trazado 160063" d="M150.99,445.27a3.311,3.311,0,0,0,1.161-.025,6.729,6.729,0,0,0,1.232-.291,3.391,3.391,0,0,0,.7-.3.627.627,0,0,0,.281-.364.457.457,0,0,0-.183-.461,2.128,2.128,0,0,0-2.623.662,2.082,2.082,0,0,0-.367.781c-.044.2-.039.313-.025.314a3.222,3.222,0,0,1,.512-1,2.1,2.1,0,0,1,.982-.659,1.8,1.8,0,0,1,1.385.073c.186.133.118.352-.085.477a3.538,3.538,0,0,1-.648.289,8.079,8.079,0,0,1-1.191.329C151.432,445.228,150.989,445.235,150.99,445.27Z" transform="translate(-150.99 -443.611)" fill="#263238"/>
                    </g>
                  </g>
                </g>
              </g>
              <g id="Grupo_123904" data-name="Grupo 123904" transform="translate(18.323 7.727)">
                <g id="Grupo_123903" data-name="Grupo 123903">
                  <g id="Grupo_123902" data-name="Grupo 123902">
                    <g id="Grupo_123901" data-name="Grupo 123901">
                      <path id="Trazado_160064" data-name="Trazado 160064" d="M151.545,445.429a1.147,1.147,0,0,0,.122-.808,1.9,1.9,0,0,0-.33-.843,1.167,1.167,0,0,0-.976-.578.463.463,0,0,0-.349.541,1.266,1.266,0,0,0,.2.516,3.535,3.535,0,0,0,.56.695,1.693,1.693,0,0,0,.671.46c.02-.029-.234-.2-.56-.568a4.034,4.034,0,0,1-.5-.69c-.163-.242-.279-.682.011-.739.29-.033.59.251.773.481a1.9,1.9,0,0,1,.339.75A4.185,4.185,0,0,1,151.545,445.429Z" transform="translate(-150.002 -443.199)" fill="#263238"/>
                    </g>
                  </g>
                </g>
              </g>
              <g id="Grupo_123908" data-name="Grupo 123908" transform="translate(0.293 8.905)">
                <g id="Grupo_123907" data-name="Grupo 123907">
                  <g id="Grupo_123906" data-name="Grupo 123906">
                    <g id="Grupo_123905" data-name="Grupo 123905">
                      <path id="Trazado_160065" data-name="Trazado 160065" d="M135.648,444.273c.005.04.516-.058,1.335.026a5.66,5.66,0,0,1,4.79,3.7c.288.77.323,1.29.363,1.285a1.045,1.045,0,0,0-.005-.366,4.736,4.736,0,0,0-.212-.971,5.492,5.492,0,0,0-4.923-3.8,4.859,4.859,0,0,0-.994.04A1.031,1.031,0,0,0,135.648,444.273Z" transform="translate(-135.648 -444.136)" fill="#263238"/>
                    </g>
                  </g>
                </g>
              </g>
              <g id="Grupo_123912" data-name="Grupo 123912" transform="translate(1.95 1.494)">
                <g id="Grupo_123911" data-name="Grupo 123911">
                  <g id="Grupo_123910" data-name="Grupo 123910">
                    <g id="Grupo_123909" data-name="Grupo 123909">
                      <path id="Trazado_160066" data-name="Trazado 160066" d="M137.067,438.236a63.152,63.152,0,0,0,.02,7.427,63.168,63.168,0,0,0-.02-7.427Z" transform="translate(-136.968 -438.236)" fill="#263238"/>
                    </g>
                  </g>
                </g>
              </g>
              <g id="Grupo_123916" data-name="Grupo 123916" transform="translate(9.057 12.305)">
                <g id="Grupo_123915" data-name="Grupo 123915">
                  <g id="Grupo_123914" data-name="Grupo 123914">
                    <g id="Grupo_123913" data-name="Grupo 123913">
                      <path id="Trazado_160067" data-name="Trazado 160067" d="M142.625,446.9a14.836,14.836,0,0,0,5.281-.031c-.008-.064-1.186.026-2.64.033S142.631,446.833,142.625,446.9Z" transform="translate(-142.625 -446.843)" fill="#263238"/>
                    </g>
                  </g>
                </g>
              </g>
              <g id="Grupo_123920" data-name="Grupo 123920" transform="translate(5.508 12.4)">
                <g id="Grupo_123919" data-name="Grupo 123919">
                  <g id="Grupo_123918" data-name="Grupo 123918">
                    <g id="Grupo_123917" data-name="Grupo 123917">
                      <path id="Trazado_160068" data-name="Trazado 160068" d="M139.808,446.927c-.044.044.1.247.225.518s.193.507.256.5.088-.288-.058-.6S139.845,446.881,139.808,446.927Z" transform="translate(-139.8 -446.919)" fill="#263238"/>
                    </g>
                  </g>
                </g>
              </g>
              <g id="Grupo_123924" data-name="Grupo 123924" transform="translate(4.147 10.759)">
                <g id="Grupo_123923" data-name="Grupo 123923">
                  <g id="Grupo_123922" data-name="Grupo 123922">
                    <g id="Grupo_123921" data-name="Grupo 123921">
                      <path id="Trazado_160069" data-name="Trazado 160069" d="M138.725,445.621c-.043.043.077.229.266.416s.378.3.421.26-.077-.23-.266-.416S138.767,445.578,138.725,445.621Z" transform="translate(-138.716 -445.612)" fill="#263238"/>
                    </g>
                  </g>
                </g>
              </g>
              <g id="Grupo_123928" data-name="Grupo 123928" transform="translate(2.232 9.929)">
                <g id="Grupo_123927" data-name="Grupo 123927">
                  <g id="Grupo_123926" data-name="Grupo 123926">
                    <g id="Grupo_123925" data-name="Grupo 123925">
                      <path id="Trazado_160070" data-name="Trazado 160070" d="M137.193,445.06c.014.062.254.055.521.145s.46.229.506.186-.108-.289-.44-.394S137.174,445,137.193,445.06Z" transform="translate(-137.192 -444.952)" fill="#263238"/>
                    </g>
                  </g>
                </g>
              </g>
              <g id="Grupo_123932" data-name="Grupo 123932" transform="translate(0.866 9.658)">
                <g id="Grupo_123931" data-name="Grupo 123931">
                  <g id="Grupo_123930" data-name="Grupo 123930">
                    <g id="Grupo_123929" data-name="Grupo 123929">
                      <path id="Trazado_160071" data-name="Trazado 160071" d="M136.108,444.779c-.021.057.084.148.235.2s.29.055.312,0-.084-.148-.236-.2S136.129,444.722,136.108,444.779Z" transform="translate(-136.105 -444.736)" fill="#263238"/>
                    </g>
                  </g>
                </g>
              </g>
            </g>
          </g>
          <g id="Grupo_124006" data-name="Grupo 124006" transform="translate(0 355.93)">
            <g id="Grupo_124005" data-name="Grupo 124005">
              <g id="Grupo_123941" data-name="Grupo 123941">
                <g id="Grupo_123937" data-name="Grupo 123937">
                  <g id="Grupo_123936" data-name="Grupo 123936">
                    <g id="Grupo_123935" data-name="Grupo 123935">
                      <path id="Trazado_160072" data-name="Trazado 160072" d="M102.722,446.146l6.126-7.451L94.963,427.13l-9.078,10.808.815.771c3.654,3.4,18.819,17.049,22.027,18.407C112.306,458.628,102.722,446.146,102.722,446.146Z" transform="translate(-85.885 -427.13)" fill="#868695"/>
                    </g>
                  </g>
                </g>
                <g id="Grupo_123940" data-name="Grupo 123940" transform="translate(0.18 6.743)" opacity="0.5">
                  <g id="Grupo_123939" data-name="Grupo 123939">
                    <g id="Grupo_123938" data-name="Grupo 123938">
                      <path id="Trazado_160073" data-name="Trazado 160073" d="M90.973,440.646a6.271,6.271,0,0,0,.695-4.437,6.093,6.093,0,0,0-2.405-3.712l-3.234,3.878Z" transform="translate(-86.028 -432.498)" fill="#fff"/>
                    </g>
                  </g>
                </g>
              </g>
              <g id="Grupo_123944" data-name="Grupo 123944" transform="translate(0 10.515)" opacity="0.4">
                <g id="Grupo_123943" data-name="Grupo 123943">
                  <g id="Grupo_123942" data-name="Grupo 123942">
                    <path id="Trazado_160074" data-name="Trazado 160074" d="M107.234,450.307s3.14,4.636,2.058,4.888-16.927-12.962-23.406-19.4l.281-.293,18.349,15.57S106.4,449.667,107.234,450.307Z" transform="translate(-85.885 -435.501)" fill="#fff"/>
                  </g>
                </g>
              </g>
              <g id="Grupo_123948" data-name="Grupo 123948" transform="translate(0.07 10.325)">
                <g id="Grupo_123947" data-name="Grupo 123947">
                  <g id="Grupo_123946" data-name="Grupo 123946">
                    <g id="Grupo_123945" data-name="Grupo 123945">
                      <path id="Trazado_160075" data-name="Trazado 160075" d="M85.941,435.35a1.763,1.763,0,0,0,.217.225c.195.183.408.386.651.613l2.432,2.212c2.066,1.853,4.955,4.375,8.2,7.091s6.249,5.109,8.441,6.812q1.543,1.181,2.609,2l.72.531a1.871,1.871,0,0,0,.259.173,1.586,1.586,0,0,0-.232-.208l-.693-.564-2.566-2.052c-2.166-1.733-5.145-4.145-8.4-6.858s-6.151-5.217-8.244-7.039l-2.477-2.159-.678-.582A1.6,1.6,0,0,0,85.941,435.35Z" transform="translate(-85.941 -435.35)" fill="#263238"/>
                    </g>
                  </g>
                </g>
              </g>
              <g id="Grupo_123952" data-name="Grupo 123952" transform="translate(18.444 25.109)">
                <g id="Grupo_123951" data-name="Grupo 123951">
                  <g id="Grupo_123950" data-name="Grupo 123950">
                    <g id="Grupo_123949" data-name="Grupo 123949">
                      <path id="Trazado_160076" data-name="Trazado 160076" d="M100.572,448.307a7.463,7.463,0,0,1,1.476-.81,7.369,7.369,0,0,1,1.664-.249,2.923,2.923,0,0,0-3.14,1.059Z" transform="translate(-100.568 -447.12)" fill="#263238"/>
                    </g>
                  </g>
                </g>
              </g>
              <g id="Grupo_123956" data-name="Grupo 123956" transform="translate(16.085 20.242)">
                <g id="Grupo_123955" data-name="Grupo 123955">
                  <g id="Grupo_123954" data-name="Grupo 123954">
                    <g id="Grupo_123953" data-name="Grupo 123953">
                      <path id="Trazado_160077" data-name="Trazado 160077" d="M98.691,443.808a1.9,1.9,0,0,0,.881-.167c.469-.151.834-.319.815-.377a1.918,1.918,0,0,0-.882.168C99.037,443.582,98.672,443.75,98.691,443.808Z" transform="translate(-98.69 -443.245)" fill="#263238"/>
                    </g>
                  </g>
                </g>
              </g>
              <g id="Grupo_123960" data-name="Grupo 123960" transform="translate(15.456 19.133)">
                <g id="Grupo_123959" data-name="Grupo 123959">
                  <g id="Grupo_123958" data-name="Grupo 123958">
                    <g id="Grupo_123957" data-name="Grupo 123957">
                      <path id="Trazado_160078" data-name="Trazado 160078" d="M98.19,442.5c0,.06.344.1.762.082s.755-.077.752-.137-.343-.1-.761-.082S98.189,442.442,98.19,442.5Z" transform="translate(-98.19 -442.362)" fill="#263238"/>
                    </g>
                  </g>
                </g>
              </g>
              <g id="Grupo_123964" data-name="Grupo 123964" transform="translate(15.836 17.366)">
                <g id="Grupo_123963" data-name="Grupo 123963">
                  <g id="Grupo_123962" data-name="Grupo 123962">
                    <g id="Grupo_123961" data-name="Grupo 123961">
                      <path id="Trazado_160079" data-name="Trazado 160079" d="M98.5,440.961c-.04.046.25.358.647.7s.75.575.789.529-.25-.357-.647-.7S98.535,440.915,98.5,440.961Z" transform="translate(-98.492 -440.955)" fill="#263238"/>
                    </g>
                  </g>
                </g>
              </g>
              <g id="Grupo_123968" data-name="Grupo 123968" transform="translate(16.359 16.243)">
                <g id="Grupo_123967" data-name="Grupo 123967">
                  <g id="Grupo_123966" data-name="Grupo 123966">
                    <g id="Grupo_123965" data-name="Grupo 123965">
                      <path id="Trazado_160080" data-name="Trazado 160080" d="M98.915,440.063a2.653,2.653,0,0,0,1.539,1.492c.031-.054-.358-.333-.775-.741S98.968,440.03,98.915,440.063Z" transform="translate(-98.908 -440.061)" fill="#263238"/>
                    </g>
                  </g>
                </g>
              </g>
              <g id="Grupo_123972" data-name="Grupo 123972" transform="translate(17.497 19.714)">
                <g id="Grupo_123971" data-name="Grupo 123971">
                  <g id="Grupo_123970" data-name="Grupo 123970">
                    <g id="Grupo_123969" data-name="Grupo 123969">
                      <path id="Trazado_160081" data-name="Trazado 160081" d="M99.883,443.1a3.354,3.354,0,0,0,.9.739,6.811,6.811,0,0,0,1.123.582,3.424,3.424,0,0,0,.731.23.629.629,0,0,0,.451-.093.457.457,0,0,0,.162-.47,2.13,2.13,0,0,0-2.421-1.208,2.087,2.087,0,0,0-.788.353c-.162.123-.232.212-.224.221a3.306,3.306,0,0,1,1.04-.421,2.09,2.09,0,0,1,1.174.139,1.8,1.8,0,0,1,1,.958c.055.224-.139.344-.376.306a3.481,3.481,0,0,1-.68-.2,7.961,7.961,0,0,1-1.118-.528C100.246,443.353,99.906,443.07,99.883,443.1Z" transform="translate(-99.814 -442.824)" fill="#263238"/>
                    </g>
                  </g>
                </g>
              </g>
              <g id="Grupo_123976" data-name="Grupo 123976" transform="translate(17.472 17.704)">
                <g id="Grupo_123975" data-name="Grupo 123975">
                  <g id="Grupo_123974" data-name="Grupo 123974">
                    <g id="Grupo_123973" data-name="Grupo 123973">
                      <path id="Trazado_160082" data-name="Trazado 160082" d="M100.083,443.744c0,.021.325-.1.619-.533a1.914,1.914,0,0,0,.3-.854,1.165,1.165,0,0,0-.363-1.074.462.462,0,0,0-.618.182,1.269,1.269,0,0,0-.181.525,3.515,3.515,0,0,0-.029.891,1.662,1.662,0,0,0,.21.786c.033-.009-.045-.308-.055-.8a4.069,4.069,0,0,1,.073-.847c.035-.29.234-.7.491-.553a1.036,1.036,0,0,1,.271.868,1.889,1.889,0,0,1-.231.79A4.278,4.278,0,0,1,100.083,443.744Z" transform="translate(-99.794 -441.224)" fill="#263238"/>
                    </g>
                  </g>
                </g>
              </g>
              <g id="Grupo_123980" data-name="Grupo 123980" transform="translate(3.519 6.763)">
                <g id="Grupo_123979" data-name="Grupo 123979">
                  <g id="Grupo_123978" data-name="Grupo 123978">
                    <g id="Grupo_123977" data-name="Grupo 123977">
                      <path id="Trazado_160083" data-name="Trazado 160083" d="M88.687,432.515c-.023.034.43.294.995.891a5.659,5.659,0,0,1,1.218,5.929c-.284.771-.6,1.188-.563,1.21.011.009.1-.087.235-.279a4.855,4.855,0,0,0,.472-.874,5.494,5.494,0,0,0-1.252-6.093,4.759,4.759,0,0,0-.78-.618A1.039,1.039,0,0,0,88.687,432.515Z" transform="translate(-88.686 -432.514)" fill="#263238"/>
                    </g>
                  </g>
                </g>
              </g>
              <g id="Grupo_123984" data-name="Grupo 123984" transform="translate(4.944 2.187)">
                <g id="Grupo_123983" data-name="Grupo 123983">
                  <g id="Grupo_123982" data-name="Grupo 123982">
                    <g id="Grupo_123981" data-name="Grupo 123981">
                      <path id="Trazado_160084" data-name="Trazado 160084" d="M94.651,428.872a31.644,31.644,0,0,0-2.5,2.751,31.639,31.639,0,0,0-2.331,2.893,31.545,31.545,0,0,0,2.5-2.751A31.224,31.224,0,0,0,94.651,428.872Z" transform="translate(-89.821 -428.871)" fill="#263238"/>
                    </g>
                  </g>
                </g>
              </g>
              <g id="Grupo_123988" data-name="Grupo 123988" transform="translate(7.999 14.993)">
                <g id="Grupo_123987" data-name="Grupo 123987">
                  <g id="Grupo_123986" data-name="Grupo 123986">
                    <g id="Grupo_123985" data-name="Grupo 123985">
                      <path id="Trazado_160085" data-name="Trazado 160085" d="M92.254,439.067a14.828,14.828,0,0,0,4.023,3.42c.035-.053-.917-.752-2.024-1.7S92.3,439.023,92.254,439.067Z" transform="translate(-92.253 -439.066)" fill="#263238"/>
                    </g>
                  </g>
                </g>
              </g>
              <g id="Grupo_123992" data-name="Grupo 123992" transform="translate(4.97 12.722)">
                <g id="Grupo_123991" data-name="Grupo 123991">
                  <g id="Grupo_123990" data-name="Grupo 123990">
                    <g id="Grupo_123989" data-name="Grupo 123989">
                      <path id="Trazado_160086" data-name="Trazado 160086" d="M90.155,437.258c-.062.006-.085.254-.167.539s-.183.511-.133.549.255-.159.344-.49S90.213,437.249,90.155,437.258Z" transform="translate(-89.842 -437.258)" fill="#263238"/>
                    </g>
                  </g>
                </g>
              </g>
              <g id="Grupo_123996" data-name="Grupo 123996" transform="translate(5.246 10.591)">
                <g id="Grupo_123995" data-name="Grupo 123995">
                  <g id="Grupo_123994" data-name="Grupo 123994">
                    <g id="Grupo_123993" data-name="Grupo 123993">
                      <path id="Trazado_160087" data-name="Trazado 160087" d="M90.138,435.562c-.06.005-.092.225-.069.49s.089.476.149.471.092-.225.069-.49S90.2,435.557,90.138,435.562Z" transform="translate(-90.061 -435.562)" fill="#263238"/>
                    </g>
                  </g>
                </g>
              </g>
              <g id="Grupo_124000" data-name="Grupo 124000" transform="translate(4.338 8.771)">
                <g id="Grupo_123999" data-name="Grupo 123999">
                  <g id="Grupo_123998" data-name="Grupo 123998">
                    <g id="Grupo_123997" data-name="Grupo 123997">
                      <path id="Trazado_160088" data-name="Trazado 160088" d="M89.342,434.127c-.029.055.157.207.3.45s.2.472.264.471.106-.289-.077-.585S89.364,434.073,89.342,434.127Z" transform="translate(-89.339 -434.112)" fill="#263238"/>
                    </g>
                  </g>
                </g>
              </g>
              <g id="Grupo_124004" data-name="Grupo 124004" transform="translate(3.498 7.634)">
                <g id="Grupo_124003" data-name="Grupo 124003">
                  <g id="Grupo_124002" data-name="Grupo 124002">
                    <g id="Grupo_124001" data-name="Grupo 124001">
                      <path id="Trazado_160089" data-name="Trazado 160089" d="M88.7,433.213c-.053.03-.033.167.045.308s.183.231.236.2.033-.167-.045-.308S88.752,433.184,88.7,433.213Z" transform="translate(-88.67 -433.208)" fill="#263238"/>
                    </g>
                  </g>
                </g>
              </g>
            </g>
          </g>
          <g id="Grupo_124019" data-name="Grupo 124019" transform="translate(1.521 162.734)">
            <g id="Grupo_124007" data-name="Grupo 124007" transform="translate(0 9.25)">
              <path id="Trazado_160090" data-name="Trazado 160090" d="M140.011,281.817S134,307.27,135.7,312.305s12.723,7.946,12.723,7.946l-.373,69.7L87.1,465.29,109.6,483.7s65.984-75.482,71.8-89.15S177.7,280.689,177.7,280.689Z" transform="translate(-87.096 -280.689)" fill="#263238"/>
            </g>
            <g id="Grupo_124008" data-name="Grupo 124008" transform="translate(33.122)">
              <path id="Trazado_160091" data-name="Trazado 160091" d="M164.389,273.325l2.983,211.689-31.008.157L120.8,312.762h0c-3.29-3.139-7.916-8.516-7.279-20.509l.756-13.932Z" transform="translate(-113.465 -273.325)" fill="#263238"/>
            </g>
            <g id="Grupo_124010" data-name="Grupo 124010" transform="translate(51.351 42.844)">
              <g id="Grupo_124009" data-name="Grupo 124009">
                <path id="Trazado_160092" data-name="Trazado 160092" d="M127.978,394.884a1.19,1.19,0,0,1,.178-.314l.589-.868,2.3-3.261,8.412-11.645-.053.16c-.675-7.347-1.494-16.258-2.377-25.865-1.124-12.591-2.036-24-2.572-32.265-.274-4.133-.455-7.48-.554-9.8-.038-1.107-.068-1.992-.09-2.665a4.952,4.952,0,0,1,.013-.932,4.953,4.953,0,0,1,.118.925c.054.672.126,1.555.215,2.658.185,2.382.443,5.7.76,9.776.654,8.254,1.639,19.652,2.763,32.241.845,9.641,1.707,18.536,2.264,25.921l.006.082-.059.078c-3.546,4.748-6.492,8.69-8.6,11.51l-2.423,3.174-.653.822C128.072,394.8,127.99,394.891,127.978,394.884Z" transform="translate(-127.977 -307.433)" fill="#455a64"/>
              </g>
            </g>
            <g id="Grupo_124012" data-name="Grupo 124012" transform="translate(44.652 39.412)">
              <g id="Grupo_124011" data-name="Grupo 124011">
                <path id="Trazado_160093" data-name="Trazado 160093" d="M138.862,308.133c-.028.175-3.722-.276-8.21-1.222s-8.053-2.014-8.008-2.184,3.669.608,8.142,1.545S138.892,307.951,138.862,308.133Z" transform="translate(-122.644 -304.701)" fill="#455a64"/>
              </g>
            </g>
            <g id="Grupo_124014" data-name="Grupo 124014" transform="translate(65.12 112.226)">
              <g id="Grupo_124013" data-name="Grupo 124013">
                <path id="Trazado_160094" data-name="Trazado 160094" d="M155.927,365.561c-.083.2-3.561-1.834-8.373-2.182-4.81-.415-8.564,1.046-8.614.835a7.085,7.085,0,0,1,2.417-.947,19.045,19.045,0,0,1,12.334.979A7.084,7.084,0,0,1,155.927,365.561Z" transform="translate(-138.939 -362.669)" fill="#455a64"/>
              </g>
            </g>
            <g id="Grupo_124016" data-name="Grupo 124016" transform="translate(53.563 124.927)">
              <g id="Grupo_124015" data-name="Grupo 124015">
                <path id="Trazado_160095" data-name="Trazado 160095" d="M169.22,372.781c.143.109-8.579,11.816-19.48,26.145s-19.858,25.861-20,25.752,8.577-11.814,19.481-26.147S169.076,372.672,169.22,372.781Z" transform="translate(-129.738 -372.78)" fill="#455a64"/>
              </g>
            </g>
            <g id="Grupo_124018" data-name="Grupo 124018" transform="translate(73.226 14.078)">
              <g id="Grupo_124017" data-name="Grupo 124017">
                <path id="Trazado_160096" data-name="Trazado 160096" d="M161.011,286.181a5.2,5.2,0,0,1-1.745,2.3,8.638,8.638,0,0,1-12.639-1.333,5.2,5.2,0,0,1-1.226-2.617,27.253,27.253,0,0,0,1.585,2.324,8.612,8.612,0,0,0,11.988,1.265A27.262,27.262,0,0,0,161.011,286.181Z" transform="translate(-145.391 -284.533)" fill="#455a64"/>
              </g>
            </g>
          </g>
          <g id="Grupo_124020" data-name="Grupo 124020" transform="translate(39.578 31.829)">
            <path id="Trazado_160097" data-name="Trazado 160097" d="M125.814,206.823a27.04,27.04,0,0,1-1.467-37.712" transform="translate(-117.393 -169.111)" fill="#263238"/>
          </g>
          <g id="Grupo_124050" data-name="Grupo 124050" transform="translate(22.452 74.983)">
            <g id="Grupo_124031" data-name="Grupo 124031">
              <g id="Grupo_124021" data-name="Grupo 124021" transform="translate(0 14.306)">
                <path id="Trazado_160098" data-name="Trazado 160098" d="M111.891,214.855s-6.737,7.608-8.132,36.716c0,0,19.185,3.639,19.535,2.593S111.891,214.855,111.891,214.855Z" transform="translate(-103.759 -214.855)" fill="#868695"/>
              </g>
              <g id="Grupo_124028" data-name="Grupo 124028" transform="translate(6.025)">
                <g id="Grupo_124027" data-name="Grupo 124027">
                  <g id="Grupo_124026" data-name="Grupo 124026">
                    <g id="Grupo_124023" data-name="Grupo 124023" transform="translate(7.531 51.022)">
                      <path id="Trazado_160100" data-name="Trazado 160100" d="M114.551,244.085" transform="translate(-114.551 -244.085)" fill="#455a64"/>
                    </g>
                    <g id="Grupo_124024" data-name="Grupo 124024">
                      <path id="Trazado_160101" data-name="Trazado 160101" d="M113.77,302.539h58.9l-.951-9.2s-6.73-35-6.681-35.465l1.06-2.228a22.2,22.2,0,0,0,.259-18.523h0l28.839-9.862-7.061-23.8c-13.086,2.21-32.867,4.674-32.867,4.674l-2.946.247s-20.419,1.064-20.855,1.117c-8.543,1.033-18.481,1.688-22.114,10.83-1.942,4.889-.1,12.227,3.074,19.791l7.551,23.234c3.015,12.771-1.8,12.164-4.437,25.018C115.138,290.321,113.731,300.756,113.77,302.539Z" transform="translate(-108.555 -203.466)" fill="#868695"/>
                    </g>
                  </g>
                </g>
              </g>
              <g id="Grupo_124030" data-name="Grupo 124030" transform="translate(59.282 24.172)">
                <g id="Grupo_124029" data-name="Grupo 124029">
                  <path id="Trazado_160103" data-name="Trazado 160103" d="M184.064,222.719a5.665,5.665,0,0,1-1.28.538c-.837.307-2.054.729-3.562,1.236-3.016,1.019-7.2,2.369-11.825,3.846s-8.756,2.948-11.691,4.16c-1.472.594-2.643,1.124-3.461,1.473a5.69,5.69,0,0,1-1.291.507,5.746,5.746,0,0,1,1.178-.736c.786-.421,1.933-1.017,3.392-1.669a111.309,111.309,0,0,1,11.672-4.357c4.629-1.481,8.834-2.76,11.887-3.665,1.526-.452,2.765-.806,3.625-1.038A5.687,5.687,0,0,1,184.064,222.719Z" transform="translate(-150.953 -222.71)" fill="#263238"/>
                </g>
              </g>
            </g>
            <g id="Grupo_124033" data-name="Grupo 124033" transform="translate(11.187 11.186)">
              <g id="Grupo_124032" data-name="Grupo 124032">
                <path id="Trazado_160104" data-name="Trazado 160104" d="M190.447,212.7c0,.181-17.413.327-38.889.327s-38.893-.146-38.893-.327,17.41-.327,38.893-.327S190.447,212.517,190.447,212.7Z" transform="translate(-112.665 -212.371)" fill="#fafafa"/>
              </g>
            </g>
            <g id="Grupo_124035" data-name="Grupo 124035" transform="translate(4.207 22.753)">
              <g id="Grupo_124034" data-name="Grupo 124034">
                <path id="Trazado_160105" data-name="Trazado 160105" d="M193.666,221.907c0,.181-19.378.327-43.277.327s-43.281-.146-43.281-.327,19.374-.327,43.281-.327S193.666,221.726,193.666,221.907Z" transform="translate(-107.108 -221.58)" fill="#fafafa"/>
              </g>
            </g>
            <g id="Grupo_124037" data-name="Grupo 124037" transform="translate(1.814 35.916)">
              <g id="Grupo_124036" data-name="Grupo 124036">
                <path id="Trazado_160106" data-name="Trazado 160106" d="M112.416,232.386c0,.181-1.614.328-3.606.328s-3.606-.147-3.606-.328,1.614-.327,3.606-.327S112.416,232.2,112.416,232.386Z" transform="translate(-105.203 -232.059)" fill="#fafafa"/>
              </g>
            </g>
            <g id="Grupo_124039" data-name="Grupo 124039" transform="translate(9.026 36.314)">
              <g id="Grupo_124038" data-name="Grupo 124038">
                <path id="Trazado_160107" data-name="Trazado 160107" d="M167.553,232.7c0,.18-12.673.327-28.3.327s-28.305-.147-28.305-.327,12.67-.328,28.305-.328S167.553,232.523,167.553,232.7Z" transform="translate(-110.945 -232.376)" fill="#fafafa"/>
              </g>
            </g>
            <g id="Grupo_124041" data-name="Grupo 124041" transform="translate(13.581 49.876)">
              <g id="Grupo_124040" data-name="Grupo 124040">
                <path id="Trazado_160108" data-name="Trazado 160108" d="M165.377,243.5c0,.181-11.374.328-25.4.328s-25.4-.147-25.4-.328,11.372-.327,25.4-.327S165.377,243.32,165.377,243.5Z" transform="translate(-114.571 -243.173)" fill="#fafafa"/>
              </g>
            </g>
            <g id="Grupo_124043" data-name="Grupo 124043" transform="translate(17.969 62.441)">
              <g id="Grupo_124042" data-name="Grupo 124042">
                <path id="Trazado_160109" data-name="Trazado 160109" d="M164.114,253.5c0,.181-10.31.328-23.025.328s-23.026-.147-23.026-.328,10.306-.327,23.026-.327S164.114,253.322,164.114,253.5Z" transform="translate(-118.064 -253.176)" fill="#fafafa"/>
              </g>
            </g>
            <g id="Grupo_124045" data-name="Grupo 124045" transform="translate(16.772 72.612)">
              <g id="Grupo_124044" data-name="Grupo 124044">
                <path id="Trazado_160110" data-name="Trazado 160110" d="M166.373,261.6c0,.181-11.029.327-24.63.327s-24.632-.146-24.632-.327,11.026-.328,24.632-.328S166.373,261.42,166.373,261.6Z" transform="translate(-117.111 -261.273)" fill="#fafafa"/>
              </g>
            </g>
            <g id="Grupo_124047" data-name="Grupo 124047" transform="translate(13.182 85.576)">
              <g id="Grupo_124046" data-name="Grupo 124046">
                <path id="Trazado_160111" data-name="Trazado 160111" d="M170.3,271.921c0,.181-12.546.328-28.02.328s-28.023-.147-28.023-.328,12.544-.327,28.023-.327S170.3,271.74,170.3,271.921Z" transform="translate(-114.253 -271.594)" fill="#fafafa"/>
              </g>
            </g>
            <g id="Grupo_124049" data-name="Grupo 124049" transform="translate(6.675 28.39)">
              <g id="Grupo_124048" data-name="Grupo 124048">
                <path id="Trazado_160112" data-name="Trazado 160112" d="M119.489,256.485a4.782,4.782,0,0,1-.52-1.158q-.518-1.343-1.239-3.213c-1.036-2.717-2.5-6.461-4.013-10.637s-2.776-8.005-3.567-10.81c-.393-1.4-.69-2.546-.858-3.345a4.722,4.722,0,0,1-.206-1.254,46.123,46.123,0,0,1,1.506,4.463c.9,2.762,2.218,6.553,3.741,10.722s2.907,7.941,3.832,10.7c.466,1.379.82,2.5,1.045,3.29A4.8,4.8,0,0,1,119.489,256.485Z" transform="translate(-109.073 -226.068)" fill="#263238"/>
              </g>
            </g>
          </g>
        </g>
      </g>
    </g>
  </g>
</svg>
