<svg xmlns="http://www.w3.org/2000/svg" width="299.269" height="241.507" viewBox="0 0 299.269 241.507">
  <g id="img13" transform="translate(-61.698 -265.588)">
    <g id="Grupo_107015" data-name="Grupo 107015" transform="translate(61.698 265.588)">
      <path id="Trazado_151637" data-name="Trazado 151637" d="M174.54,406.292c-.62,2.839-1.277,5.7-1.969,8.554C164.4,448.984,152.5,483.023,152.5,483.023a38.223,38.223,0,0,1-7.947,2.1c-5.667,1.05-14.688,2.1-28.147,2.111h-.059c-26.93-.011-36.093-4.212-36.093-4.212s-11.9-34.039-20.057-68.164c-.692-2.864-1.349-5.728-1.981-8.567-3.866-17.575-6.373-34.423-5.346-45.782,1.4-15.558,8.734-29.8,16.465-40.853v-.013a132.988,132.988,0,0,1,20.034-22.669h54a130.539,130.539,0,0,1,16.86,18.314v.011c8.794,11.514,18.053,27.515,19.652,45.209C180.911,371.869,178.406,388.717,174.54,406.292Z" transform="translate(-52.643 -245.728)" fill="#1d272b"/>
      <path id="Trazado_151638" data-name="Trazado 151638" d="M180.1,359.577v.168c-.011.536-.011,1.073-.023,1.61v.024a185.076,185.076,0,0,1-3.664,28.79c-.571,2.972-1.2,5.978-1.873,9.021-.62,2.839-1.277,5.7-1.969,8.554C164.4,441.882,152.5,475.921,152.5,475.921a38.224,38.224,0,0,1-7.947,2.1c-5.667,1.05-14.688,2.1-28.147,2.111h-.059c-26.93-.011-36.093-4.213-36.093-4.213s-11.9-34.039-20.057-68.164c-.692-2.864-1.349-5.728-1.981-8.567-3.866-17.575-6.373-34.423-5.346-45.782a65.937,65.937,0,0,1,2.493-12.85l.011-.011c3.079-10.513,8.425-20.07,13.96-27.992-14.985,66.028,26.726,82.267,60.851,79.572s49.755-41.081,30.044-83.928c8.794,11.514,18.053,27.515,19.652,45.209A59.8,59.8,0,0,1,180.1,359.577Z" transform="translate(-52.643 -238.626)" fill="#2c3352" opacity="0.1" style="mix-blend-mode: multiply;isolation: isolate"/>
      <path id="Trazado_151639" data-name="Trazado 151639" d="M141.321,292.959v6.67s-.31.836-.859,2.183c-.74,1.825-1.945,4.619-3.437,7.542a54.112,54.112,0,0,1-4.487,7.481,70.927,70.927,0,0,1-27,5.62,70.961,70.961,0,0,1-27-5.62c-4.9-6.67-8.769-17.206-8.769-17.206v-6.67A160.3,160.3,0,0,1,83.3,279.6c6.693-5.847,14.891-11.86,22.217-14.009,7.05,1.825,14.162,6.539,20.176,11.55A121.862,121.862,0,0,1,141.321,292.959Z" transform="translate(-41.808 -265.588)" fill="#1d272b"/>
      <path id="Trazado_151640" data-name="Trazado 151640" d="M120.448,277.138c-.789,9.713-40.508,12.171-42.393,2.459,6.693-5.847,14.891-11.86,22.217-14.009C107.322,267.413,114.434,272.127,120.448,277.138Z" transform="translate(-36.565 -265.588)" fill="#434d7d" opacity="0.4"/>
      <path id="Trazado_151641" data-name="Trazado 151641" d="M141.321,284.427v3.282s-.31.836-.859,2.183l-63.834,2.16s8.614,8.556,31.117,9.689c14.8.74,24.281-2.327,29.28-4.307a54.109,54.109,0,0,1-4.487,7.481,70.926,70.926,0,0,1-27,5.62,70.96,70.96,0,0,1-27-5.62c-4.9-6.67-8.769-17.206-8.769-17.206v-3.282Z" transform="translate(-41.808 -253.668)" fill="#2c3352" opacity="0.4" style="mix-blend-mode: multiply;isolation: isolate"/>
      <path id="Trazado_151642" data-name="Trazado 151642" d="M172.379,363.928c-.62,2.839-1.277,5.7-1.969,8.554-10.595.789-40.662,2.875-56.137,2.875-.013,0-.013.013-.024.013h-.059a.039.039,0,0,1-.024-.013c-15.475,0-45.519-2.087-56.126-2.862-.692-2.864-1.349-5.728-1.981-8.567,10.141.4,41.521,1.61,58.153,1.61S162.261,364.322,172.379,363.928Z" transform="translate(-50.482 -203.364)" fill="#fff" opacity="0.3" style="mix-blend-mode: screen;isolation: isolate"/>
      <path id="Trazado_151643" data-name="Trazado 151643" d="M68.129,281.667l.582,9.025,75.69-1.019v-7.424Z" transform="translate(-42.845 -255.414)" fill="#434d7d"/>
      <path id="Trazado_151644" data-name="Trazado 151644" d="M119.518,332.239H105.167l.373-17.473H94.519l.448,17.473H78.391L80,343.529H95.257l.875,34.139H104.2l.73-34.139h14.592Z" transform="translate(-36.352 -234.47)" fill="#fff"/>
      <path id="Trazado_151645" data-name="Trazado 151645" d="M176.413,377.633c-.571,2.972-1.2,5.978-1.873,9.021-.62,2.839-1.277,5.7-1.969,8.554C164.4,429.346,152.5,463.385,152.5,463.385a38.225,38.225,0,0,1-7.947,2.1c-5.667,1.05-14.688,2.1-28.147,2.111h-.059c-26.93-.011-36.093-4.212-36.093-4.212s-11.9-34.039-20.057-68.164c-.692-2.864-1.349-5.728-1.981-8.567-3.866-17.575-6.373-34.423-5.346-45.782a65.937,65.937,0,0,1,2.493-12.85l.011-.011c-4.975,32.43,31.739,120.866,65.207,125.854C146.8,457.765,168.156,415.075,176.413,377.633Z" transform="translate(-52.643 -226.09)" fill="#2c3352" opacity="0.3" style="mix-blend-mode: multiply;isolation: isolate"/>
      <path id="Trazado_151646" data-name="Trazado 151646" d="M70.729,288.16l-.876-5.034,5.489-.338.348,5.2-.672.045-.3-4.532-4.069.251.65,3.733h2.266l-.084-2.336-1.267.069.11.947.528-.042.054.672-1.176.094-.267-2.3,2.667-.145.133,3.719Z" transform="translate(-41.754 -254.705)" fill="#2c3352"/>
      <path id="Trazado_151647" data-name="Trazado 151647" d="M76.265,288.16l-.876-5.034,5.489-.338.348,5.2-.672.045-.3-4.532-4.069.251.649,3.733H79.1l-.084-2.336-1.267.069.11.947.528-.042.054.672-1.176.094-.267-2.3,2.667-.145.133,3.719Z" transform="translate(-38.251 -254.705)" fill="#2c3352"/>
      <path id="Trazado_151648" data-name="Trazado 151648" d="M81.8,288.16l-.876-5.034,5.489-.338.348,5.2-.672.045-.3-4.532-4.069.251.65,3.733h2.266l-.084-2.336-1.267.069.11.947.528-.042.054.672-1.176.094-.267-2.3,2.667-.145.133,3.719Z" transform="translate(-34.748 -254.705)" fill="#2c3352"/>
      <path id="Trazado_151649" data-name="Trazado 151649" d="M87.337,288.16l-.876-5.034,5.489-.338.348,5.2-.672.045-.3-4.532-4.069.251.649,3.733h2.266l-.084-2.336-1.267.069.11.947.528-.042.054.672-1.176.094-.267-2.3,2.667-.145.133,3.719Z" transform="translate(-31.246 -254.705)" fill="#2c3352"/>
      <path id="Trazado_151650" data-name="Trazado 151650" d="M92.873,288.16,92,283.126l5.489-.338.348,5.2-.672.045-.3-4.532-4.069.251.649,3.733h2.266l-.084-2.336-1.267.069.11.947.528-.042.054.672-1.176.094-.267-2.3,2.667-.145.133,3.719Z" transform="translate(-27.743 -254.705)" fill="#2c3352"/>
      <path id="Trazado_151651" data-name="Trazado 151651" d="M98.408,288.16l-.876-5.034,5.489-.338.348,5.2-.672.045-.3-4.532-4.069.251.65,3.733h2.266l-.084-2.336-1.267.069.11.947.528-.042.054.672-1.176.094-.267-2.3,2.667-.145.133,3.719Z" transform="translate(-24.24 -254.705)" fill="#2c3352"/>
      <path id="Trazado_151652" data-name="Trazado 151652" d="M103.944,288.16l-.876-5.034,5.489-.338.348,5.2-.672.045-.3-4.532-4.069.251.649,3.733h2.266l-.084-2.336-1.267.069.11.947.528-.042.054.672-1.176.094-.267-2.3,2.667-.145.133,3.719Z" transform="translate(-20.737 -254.705)" fill="#2c3352"/>
      <path id="Trazado_151653" data-name="Trazado 151653" d="M109.48,288.16l-.876-5.034,5.489-.338.348,5.2-.672.045-.3-4.532-4.069.251.649,3.733h2.266l-.084-2.336-1.267.069.11.947.528-.042.054.672-1.176.094-.267-2.3,2.667-.145.133,3.719Z" transform="translate(-17.235 -254.705)" fill="#2c3352"/>
    </g>
    <g id="Grupo_107017" data-name="Grupo 107017" transform="translate(211.114 317.717)">
      <rect id="Rect치ngulo_34124" data-name="Rect치ngulo 34124" width="149.852" height="189.378" fill="#1d272b"/>
      <rect id="Rect치ngulo_34125" data-name="Rect치ngulo 34125" width="164.369" height="124.843" transform="translate(137.348 12.504) rotate(90)" fill="#dedff1"/>
      <path id="Trazado_151654" data-name="Trazado 151654" d="M210.162,372l-12.787,1.621L184.587,372l-1.1,14.46,13.8,2.229v.027l.084-.014.084.014v-.027l13.8-2.229Z" transform="translate(-119.268 -250.388)" fill="#ffc3aa"/>
      <path id="Trazado_151655" data-name="Trazado 151655" d="M270.436,401.043v16.349H155.053c1.052-6.24,3.408-15.764,8.242-20.173,7.524-6.846,37.95-16.215,37.95-16.215l14.12,2,14.13-2s30.416,9.369,37.94,16.215A16.49,16.49,0,0,1,270.436,401.043Z" transform="translate(-137.261 -244.689)" fill="#8c94ad"/>
      <path id="Trazado_151656" data-name="Trazado 151656" d="M207.488,378.139l4.68,5.683-13.707,12.035-6.519-11.032Z" transform="translate(-113.92 -246.501)" fill="#9aa1b9"/>
      <path id="Trazado_151657" data-name="Trazado 151657" d="M244.362,372.127v17.6l-30.906,33.282H196.262Z" transform="translate(-111.187 -250.306)" fill="#2c3352"/>
      <g id="Grupo_107016" data-name="Grupo 107016" transform="translate(43.135 25.368)">
        <path id="Trazado_151658" data-name="Trazado 151658" d="M175.31,344.952s-4.867,14.536-1.752,19.242,10.125,2.777,10.125,2.777l-2.336-19.294Z" transform="translate(-169.346 -292.869)" fill="#ffc3aa"/>
        <path id="Trazado_151659" data-name="Trazado 151659" d="M212.254,344.952s4.867,14.536,1.752,19.242-10.125,2.777-10.125,2.777l2.336-19.294Z" transform="translate(-149.5 -292.869)" fill="#ffc3aa"/>
        <path id="Trazado_151660" data-name="Trazado 151660" d="M178.213,371.456c-1.883,3.238,1.282,3.666,1.282,3.666s.913,16.267,4.846,30.062,30.712,15.447,37.878,6.146c8.3-10.763,8.041-34.748,8.041-34.748a4.405,4.405,0,0,0,2.034-6.44c6.255-.531,8.541-10.419,5.039-10.557,5.22-3.884.637-6.209.482-7.191,5.889-6,3.179-11.369-.042-13.64,3.92-10.366-3.5-10.077-6.056-9.4.877-12.241-10.688-15.428-15.558-10.556-6.453-9.22-23.345-5.8-21.608-.47-14.615,0-18.481,4.136-16.114,8.322-6.831,5.184-3.728,10.988-2.957,11.214-7.764,3.558-2.942,12.909-.63,13.584-3.852,3.744-1.714,6.022-1.714,6.022-5.416,3.876-.891,6.123,1.287,7.016C172.291,368.493,178.213,371.456,178.213,371.456Z" transform="translate(-170.575 -313.053)" fill="#96492c"/>
        <path id="Trazado_151661" data-name="Trazado 151661" d="M219.683,368.823c-1.954,1.507-11.632,5.4-20.274,5.431-9.514.038-18.9-4.756-19.614-6.621-1.13-2.923-1.755-12.146-1.171-21.477,1.714.173,1.719-2,1.376-3.293,4.34,4.73,6.911,2,7.561.4,3.651,4.495,13.98,2.078,16.327-2.687,5.223,2.127,6.293-.052,7.248-1.641,3.633,2.377,5.065-1.518,5.726-3.109,1.45,3,2.01,1.394,2.717.712-.4,4.24,1.037,6,2.235,6.722C223.138,354.308,222.673,366.534,219.683,368.823Z" transform="translate(-165.623 -298.641)" fill="#ffc3aa"/>
        <path id="Trazado_151662" data-name="Trazado 151662" d="M187.979,358.611s2.142,4.673,6.035,5.061,6.815-5.256,6.815-5.256Z" transform="translate(-159.562 -284.349)" fill="#ffc3aa"/>
      </g>
      <path id="Trazado_151663" data-name="Trazado 151663" d="M184.338,378.139l-4.68,5.683,13.707,12.035,6.519-11.032Z" transform="translate(-121.693 -246.501)" fill="#9aa1b9"/>
    </g>
  </g>
</svg>
