<svg xmlns="http://www.w3.org/2000/svg" xmlns:xlink="http://www.w3.org/1999/xlink" width="361.385" height="168.854" viewBox="0 0 361.385 168.854">
  <defs>
    <clipPath id="clip-path">
      <rect id="Rectángulo_34025" data-name="Rectángulo 34025" width="361.385" height="168.854" transform="translate(0 0)" fill="#fff" stroke="#707070" stroke-width="1"/>
    </clipPath>
    <linearGradient id="linear-gradient" x1="0.5" x2="0.5" y2="1" gradientUnits="objectBoundingBox">
      <stop offset="0" stop-color="#f5f5f5"/>
      <stop offset="0.25" stop-color="#f5f5f5"/>
      <stop offset="1" stop-color="#a7b3cf"/>
    </linearGradient>
    <clipPath id="clip-path-2">
      <rect id="Rectángulo_33954" data-name="Rectángulo 33954" width="5.354" height="2.218" fill="none"/>
    </clipPath>
    <clipPath id="clip-path-3">
      <path id="Trazado_150181" data-name="Trazado 150181" d="M-2661.921,1254.2c145.843-1.322,168.562,1.527,169.411-6.82s5.472-119.947-29.493-126.079-127.578-10.821-134.667,26.876S-2661.921,1254.2-2661.921,1254.2Z" transform="translate(2662.136 -1117.15)" fill="none"/>
    </clipPath>
    <radialGradient id="radial-gradient" cx="0.5" cy="0.5" r="0.5" gradientUnits="objectBoundingBox">
      <stop offset="0" stop-color="#4c5872"/>
      <stop offset="0.75" stop-color="#f5f5f5"/>
      <stop offset="1" stop-color="#f5f5f5"/>
    </radialGradient>
  </defs>
  <g id="img27" transform="translate(-1028.984 -12676)">
    <g id="Enmascarar_grupo_114" data-name="Enmascarar grupo 114" transform="translate(1028.984 12676)" clip-path="url(#clip-path)">
      <g id="Grupo_91815" data-name="Grupo 91815" transform="translate(13.444 3.763)">
        <g id="Grupo_91804" data-name="Grupo 91804" transform="translate(51.84 0)">
          <rect id="Rectángulo_34001" data-name="Rectángulo 34001" width="196.44" height="153.182" transform="translate(4.229 2.201)" fill="#e8f3fc"/>
          <rect id="Rectángulo_34002" data-name="Rectángulo 34002" width="196.44" height="5.869" transform="translate(4.229 133.668)" fill="#050505" opacity="0.16"/>
          <g id="Grupo_91795" data-name="Grupo 91795" transform="translate(134.933 13.206)">
            <rect id="Rectángulo_34003" data-name="Rectángulo 34003" width="57.704" height="33.013" transform="translate(0.409 0.44)" fill="#a7c1ce"/>
            <path id="Trazado_150759" data-name="Trazado 150759" d="M281.468,357.061h-57.7a.426.426,0,0,1-.409-.44V323.607a.425.425,0,0,1,.409-.44h57.7a.425.425,0,0,1,.409.44v33.013A.426.426,0,0,1,281.468,357.061Zm-57.3-.88h56.886V324.047H224.173Z" transform="translate(-223.354 -323.167)" fill="#7d888c"/>
          </g>
          <g id="Grupo_91796" data-name="Grupo 91796" transform="translate(134.933 51.647)">
            <rect id="Rectángulo_34004" data-name="Rectángulo 34004" width="57.704" height="33.013" transform="translate(0.409 0.44)" fill="#a7c1ce"/>
            <path id="Trazado_150760" data-name="Trazado 150760" d="M281.468,400.727h-57.7a.426.426,0,0,1-.409-.44V367.273a.426.426,0,0,1,.409-.44h57.7a.426.426,0,0,1,.409.44v33.013A.426.426,0,0,1,281.468,400.727Zm-57.3-.88h56.886V367.713H224.173Z" transform="translate(-223.354 -366.833)" fill="#7d888c"/>
          </g>
          <g id="Grupo_91797" data-name="Grupo 91797" transform="translate(134.933 90.97)">
            <rect id="Rectángulo_34005" data-name="Rectángulo 34005" width="57.704" height="33.013" transform="translate(0.409 0.44)" fill="#a7c1ce"/>
            <path id="Trazado_150761" data-name="Trazado 150761" d="M281.468,445.394h-57.7a.426.426,0,0,1-.409-.44V411.94a.426.426,0,0,1,.409-.44h57.7a.426.426,0,0,1,.409.44v33.013A.426.426,0,0,1,281.468,445.394Zm-57.3-.88h56.886V412.38H224.173Z" transform="translate(-223.354 -411.5)" fill="#7d888c"/>
          </g>
          <g id="Grupo_91798" data-name="Grupo 91798" transform="translate(73.256 13.206)">
            <rect id="Rectángulo_34006" data-name="Rectángulo 34006" width="57.704" height="33.013" transform="translate(0.409 0.44)" fill="#a7c1ce"/>
            <path id="Trazado_150762" data-name="Trazado 150762" d="M206.114,357.061h-57.7a.426.426,0,0,1-.409-.44V323.607a.425.425,0,0,1,.409-.44h57.7a.425.425,0,0,1,.409.44v33.013A.426.426,0,0,1,206.114,357.061Zm-57.3-.88H205.7V324.047H148.818Z" transform="translate(-148 -323.167)" fill="#7d888c"/>
          </g>
          <g id="Grupo_91799" data-name="Grupo 91799" transform="translate(73.256 51.647)">
            <rect id="Rectángulo_34007" data-name="Rectángulo 34007" width="57.704" height="33.013" transform="translate(0.409 0.44)" fill="#a7c1ce"/>
            <path id="Trazado_150763" data-name="Trazado 150763" d="M206.114,400.727h-57.7a.426.426,0,0,1-.409-.44V367.273a.426.426,0,0,1,.409-.44h57.7a.426.426,0,0,1,.409.44v33.013A.426.426,0,0,1,206.114,400.727Zm-57.3-.88H205.7V367.713H148.818Z" transform="translate(-148 -366.833)" fill="#7d888c"/>
          </g>
          <rect id="Rectángulo_34008" data-name="Rectángulo 34008" width="57.704" height="33.013" transform="translate(73.665 91.41)" fill="#475054"/>
          <g id="Grupo_91800" data-name="Grupo 91800" transform="translate(10.505 13.206)">
            <rect id="Rectángulo_34009" data-name="Rectángulo 34009" width="57.704" height="33.013" transform="translate(0.409 0.44)" fill="#a7c1ce"/>
            <path id="Trazado_150764" data-name="Trazado 150764" d="M129.448,357.061h-57.7a.425.425,0,0,1-.409-.44V323.607a.425.425,0,0,1,.409-.44h57.7a.425.425,0,0,1,.409.44v33.013A.426.426,0,0,1,129.448,357.061Zm-57.3-.88h56.886V324.047H72.153Z" transform="translate(-71.334 -323.167)" fill="#7d888c"/>
          </g>
          <g id="Grupo_91801" data-name="Grupo 91801" transform="translate(10.505 51.647)">
            <rect id="Rectángulo_34010" data-name="Rectángulo 34010" width="57.704" height="33.013" transform="translate(0.409 0.44)" fill="#a7c1ce"/>
            <path id="Trazado_150765" data-name="Trazado 150765" d="M129.448,400.727h-57.7a.425.425,0,0,1-.409-.44V367.273a.425.425,0,0,1,.409-.44h57.7a.426.426,0,0,1,.409.44v33.013A.426.426,0,0,1,129.448,400.727Zm-57.3-.88h56.886V367.713H72.153Z" transform="translate(-71.334 -366.833)" fill="#7d888c"/>
          </g>
          <g id="Grupo_91802" data-name="Grupo 91802" transform="translate(10.505 90.97)">
            <rect id="Rectángulo_34011" data-name="Rectángulo 34011" width="57.704" height="33.013" transform="translate(0.409 0.44)" fill="#a7c1ce"/>
            <path id="Trazado_150766" data-name="Trazado 150766" d="M129.448,445.394h-57.7a.425.425,0,0,1-.409-.44V411.94a.425.425,0,0,1,.409-.44h57.7a.426.426,0,0,1,.409.44v33.013A.426.426,0,0,1,129.448,445.394Zm-57.3-.88h56.886V412.38H72.153Z" transform="translate(-71.334 -411.5)" fill="#7d888c"/>
          </g>
          <path id="Trazado_150767" data-name="Trazado 150767" d="M266.6,329.667H246.752a1.067,1.067,0,0,0-1.023,1.1h0a1.068,1.068,0,0,0,1.023,1.1H266.6a1.067,1.067,0,0,0,1.023-1.1h0A1.066,1.066,0,0,0,266.6,329.667Z" transform="translate(-92.482 -310.739)" fill="#e8f3fc"/>
          <path id="Trazado_150768" data-name="Trazado 150768" d="M266.6,373.167H246.752a1.067,1.067,0,0,0-1.023,1.1h0a1.068,1.068,0,0,0,1.023,1.1H266.6a1.067,1.067,0,0,0,1.023-1.1h0A1.066,1.066,0,0,0,266.6,373.167Z" transform="translate(-92.482 -315.944)" fill="#e8f3fc"/>
          <path id="Trazado_150769" data-name="Trazado 150769" d="M266.6,416.417H246.752a1.067,1.067,0,0,0-1.023,1.1h0a1.068,1.068,0,0,0,1.023,1.1H266.6a1.067,1.067,0,0,0,1.023-1.1h0A1.067,1.067,0,0,0,266.6,416.417Z" transform="translate(-92.482 -321.118)" fill="#e8f3fc"/>
          <path id="Trazado_150770" data-name="Trazado 150770" d="M112.6,329.667H92.752a1.067,1.067,0,0,0-1.023,1.1h0a1.068,1.068,0,0,0,1.023,1.1H112.6a1.067,1.067,0,0,0,1.023-1.1h0A1.067,1.067,0,0,0,112.6,329.667Z" transform="translate(-64.531 -310.739)" fill="#e8f3fc"/>
          <path id="Trazado_150771" data-name="Trazado 150771" d="M112.6,373.167H92.752a1.067,1.067,0,0,0-1.023,1.1h0a1.068,1.068,0,0,0,1.023,1.1H112.6a1.067,1.067,0,0,0,1.023-1.1h0A1.066,1.066,0,0,0,112.6,373.167Z" transform="translate(-64.531 -315.944)" fill="#e8f3fc"/>
          <path id="Trazado_150772" data-name="Trazado 150772" d="M190.6,329.667H170.752a1.067,1.067,0,0,0-1.023,1.1h0a1.068,1.068,0,0,0,1.023,1.1H190.6a1.067,1.067,0,0,0,1.023-1.1h0A1.067,1.067,0,0,0,190.6,329.667Z" transform="translate(-78.688 -310.739)" fill="#e8f3fc"/>
          <path id="Trazado_150773" data-name="Trazado 150773" d="M190.6,373.167H170.752a1.067,1.067,0,0,0-1.023,1.1h0a1.068,1.068,0,0,0,1.023,1.1H190.6a1.067,1.067,0,0,0,1.023-1.1h0A1.066,1.066,0,0,0,190.6,373.167Z" transform="translate(-78.688 -315.944)" fill="#e8f3fc"/>
          <path id="Trazado_150774" data-name="Trazado 150774" d="M112.6,416.417H92.752a1.067,1.067,0,0,0-1.023,1.1h0a1.068,1.068,0,0,0,1.023,1.1H112.6a1.067,1.067,0,0,0,1.023-1.1h0A1.067,1.067,0,0,0,112.6,416.417Z" transform="translate(-64.531 -321.118)" fill="#e8f3fc"/>
          <rect id="Rectángulo_34012" data-name="Rectángulo 34012" width="59.546" height="4.622" transform="translate(72.847 120.022)" fill="#a7c1ce"/>
          <path id="Trazado_150775" data-name="Trazado 150775" d="M150,442.734h55.112a28.445,28.445,0,0,0-11.186-7.043c-7.367-2.641-7.367-4.988-15.006-4.695S159.822,435.692,150,442.734Z" transform="translate(-75.107 -322.859)" fill="#fff"/>
          <path id="Trazado_150776" data-name="Trazado 150776" d="M166.625,443.464a25.5,25.5,0,0,0,9-2.971c3.837-2.366,3.172-3.467,8.339-3.247s10.231,6.218,10.231,6.218Z" transform="translate(-78.125 -323.607)" fill="#6d6d6d"/>
          <path id="Trazado_150777" data-name="Trazado 150777" d="M192.747,430.453a.379.379,0,0,0-.431.021,1.031,1.031,0,0,0-.292.372c-.043.082-.079.168-.116.254a2.463,2.463,0,0,0-.164-.227,4.509,4.509,0,0,0,.436-.839.9.9,0,0,0,.032-.744.549.549,0,0,0-.316-.239.507.507,0,0,0-.576.174.9.9,0,0,0-.1.272l-.194.781c-.055-.032-.111-.061-.168-.089a6.366,6.366,0,0,0,.209-.934,1.024,1.024,0,0,0-.015-.481.474.474,0,0,0-.9-.022,1.111,1.111,0,0,0-.058.307c-.026.275-.052.549-.078.824-.091-.022-.183-.04-.274-.055,0-.017.012-.03.014-.047a6.156,6.156,0,0,0,.055-.86,1.186,1.186,0,0,0-.028-.29.552.552,0,0,0-.246-.343.4.4,0,0,0-.4-.007.565.565,0,0,0-.243.391,1.83,1.83,0,0,0,0,.482q.027.3.052.607a3.2,3.2,0,0,0-.331.026,4.1,4.1,0,0,1-.09-.774,2.8,2.8,0,0,0-.058-.756.949.949,0,0,0-.661-.648.88.88,0,0,0-.854.283,1.4,1.4,0,0,0-.238,1.168,4.028,4.028,0,0,0,.475,1.127c.049.091.1.181.149.272a2.547,2.547,0,0,0-.37,1.879c.088.657.31,1.284.428,1.936a6.147,6.147,0,0,1-.209,2.994,10.651,10.651,0,0,0-.926,2.912,2.565,2.565,0,0,0,1.058,2.193,1.9,1.9,0,0,0,2.257-.114,3.843,3.843,0,0,0,.958-1.679,38.7,38.7,0,0,0,1.659-6.364,6.83,6.83,0,0,0,.116-1.974,1.488,1.488,0,0,1,.156-.35c.087-.138.2-.261.278-.4a1.284,1.284,0,0,0,.168-.558A.544.544,0,0,0,192.747,430.453Z" transform="translate(-81.688 -322.454)" fill="#e6b89c"/>
          <path id="Trazado_150778" data-name="Trazado 150778" d="M176.721,430.453a.379.379,0,0,1,.431.021,1.031,1.031,0,0,1,.292.372c.043.082.079.168.116.254a2.457,2.457,0,0,1,.164-.227,4.509,4.509,0,0,1-.436-.839.9.9,0,0,1-.032-.744.549.549,0,0,1,.316-.239.507.507,0,0,1,.576.174.9.9,0,0,1,.1.272l.194.781c.055-.032.111-.061.168-.089a6.364,6.364,0,0,1-.209-.934,1.024,1.024,0,0,1,.015-.481.474.474,0,0,1,.9-.022,1.143,1.143,0,0,1,.058.307c.026.275.052.549.078.824.091-.022.183-.04.274-.055,0-.017-.012-.03-.014-.047a6.165,6.165,0,0,1-.055-.86,1.186,1.186,0,0,1,.028-.29.552.552,0,0,1,.246-.343.4.4,0,0,1,.4-.007.564.564,0,0,1,.242.391,1.762,1.762,0,0,1,0,.482l-.052.607a3.2,3.2,0,0,1,.332.026,4.1,4.1,0,0,0,.09-.774,2.8,2.8,0,0,1,.058-.756.947.947,0,0,1,.661-.648.878.878,0,0,1,.854.283,1.393,1.393,0,0,1,.239,1.168,4.028,4.028,0,0,1-.475,1.127l-.149.272a2.547,2.547,0,0,1,.37,1.879c-.088.657-.311,1.284-.428,1.936a6.147,6.147,0,0,0,.209,2.994,10.68,10.68,0,0,1,.926,2.912,2.565,2.565,0,0,1-1.058,2.193,1.9,1.9,0,0,1-2.257-.114,3.836,3.836,0,0,1-.958-1.679,38.7,38.7,0,0,1-1.659-6.364,6.83,6.83,0,0,1-.116-1.974,1.491,1.491,0,0,0-.156-.35c-.087-.138-.2-.261-.278-.4a1.285,1.285,0,0,1-.169-.558A.547.547,0,0,1,176.721,430.453Z" transform="translate(-79.927 -322.454)" fill="#e6b89c"/>
          <path id="Trazado_150779" data-name="Trazado 150779" d="M188.605,432.677a.073.073,0,0,1-.057-.028,8.888,8.888,0,0,1-1.148-1.842.083.083,0,0,1,.041-.107.074.074,0,0,1,.1.043,8.255,8.255,0,0,0,1.031,1.68,8.162,8.162,0,0,0,.264-2.439.08.08,0,0,1,.068-.09c.041-.012.079.028.083.073a8.226,8.226,0,0,1-.308,2.652.079.079,0,0,1-.057.057Z" transform="translate(-81.894 -322.73)" fill="#050505"/>
          <path id="Trazado_150780" data-name="Trazado 150780" d="M189.416,433.716l-.763-1.1-.649,1.1v2.642h1.412Z" transform="translate(-82.005 -323.057)" fill="#d93328"/>
          <path id="Trazado_150781" data-name="Trazado 150781" d="M188.341,433.9h0a.06.06,0,0,0-.057.062v2.2a.059.059,0,0,0,.057.062h0a.06.06,0,0,0,.057-.062v-2.2A.06.06,0,0,0,188.341,433.9Z" transform="translate(-82.056 -323.209)" opacity="0.24" fill="url(#linear-gradient)"/>
          <path id="Trazado_150782" data-name="Trazado 150782" d="M188.7,433.9h0a.06.06,0,0,0-.057.062v2.2a.06.06,0,0,0,.057.062h0a.059.059,0,0,0,.057-.062v-2.2A.06.06,0,0,0,188.7,433.9Z" transform="translate(-82.12 -323.209)" opacity="0.24" fill="url(#linear-gradient)"/>
          <path id="Trazado_150783" data-name="Trazado 150783" d="M189.04,433.9h0a.06.06,0,0,0-.057.062v2.2a.06.06,0,0,0,.057.062h0a.059.059,0,0,0,.057-.062v-2.2A.06.06,0,0,0,189.04,433.9Z" transform="translate(-82.183 -323.209)" opacity="0.24" fill="url(#linear-gradient)"/>
          <g id="Grupo_91803" data-name="Grupo 91803" transform="translate(195.037 50.343)">
            <path id="Trazado_150784" data-name="Trazado 150784" d="M296.785,395.464a2.19,2.19,0,0,0,4.328.617,2.4,2.4,0,0,0-1.372-2.831v-27.9H298.23v27.9A2.357,2.357,0,0,0,296.785,395.464Z" transform="translate(-296.785 -365.351)" fill="#bacff4"/>
            <path id="Trazado_150785" data-name="Trazado 150785" d="M297.915,399.347a1.274,1.274,0,1,0,1.271-1.367A1.321,1.321,0,0,0,297.915,399.347Z" transform="translate(-296.99 -369.255)" fill="#d93328"/>
            <rect id="Rectángulo_34013" data-name="Rectángulo 34013" width="0.569" height="28.389" rx="0.216" transform="translate(2.48 29.011) rotate(180)" fill="#d93328"/>
            <ellipse id="Elipse_4257" data-name="Elipse 4257" cx="0.873" cy="0.938" rx="0.873" ry="0.938" transform="translate(2.158 29.725)" fill="#fff" opacity="0.47"/>
          </g>
          <rect id="Rectángulo_34014" data-name="Rectángulo 34014" width="205.239" height="3.521" transform="translate(0 132.347)" fill="#fff"/>
          <rect id="Rectángulo_34015" data-name="Rectángulo 34015" width="196.44" height="5.869" transform="translate(4.229 1.321)" fill="#050505" opacity="0.16"/>
          <rect id="Rectángulo_34016" data-name="Rectángulo 34016" width="205.239" height="3.521" fill="#fff"/>
          <path id="Trazado_150786" data-name="Trazado 150786" d="M290.216,465.167h0a.747.747,0,0,0-.716.77v13.278a.747.747,0,0,0,.716.77h0a.747.747,0,0,0,.716-.77V465.937A.747.747,0,0,0,290.216,465.167Z" transform="translate(-100.426 -326.951)" fill="#050505" opacity="0.53"/>
          <path id="Trazado_150787" data-name="Trazado 150787" d="M287.3,465.167h0a.747.747,0,0,0-.716.77v13.278a.747.747,0,0,0,.716.77h0a.747.747,0,0,0,.716-.77V465.937A.746.746,0,0,0,287.3,465.167Z" transform="translate(-99.897 -326.951)" fill="#050505" opacity="0.53"/>
          <path id="Trazado_150788" data-name="Trazado 150788" d="M284.466,465.167h0a.747.747,0,0,0-.716.77v13.278a.747.747,0,0,0,.716.77h0a.747.747,0,0,0,.716-.77V465.937A.747.747,0,0,0,284.466,465.167Z" transform="translate(-99.383 -326.951)" fill="#050505" opacity="0.53"/>
          <path id="Trazado_150789" data-name="Trazado 150789" d="M230.216,465.167h0a.747.747,0,0,0-.716.77v13.278a.747.747,0,0,0,.716.77h0a.747.747,0,0,0,.716-.77V465.937A.747.747,0,0,0,230.216,465.167Z" transform="translate(-89.536 -326.951)" fill="#050505" opacity="0.53"/>
          <path id="Trazado_150790" data-name="Trazado 150790" d="M227.3,465.167h0a.747.747,0,0,0-.716.77v13.278a.747.747,0,0,0,.716.77h0a.747.747,0,0,0,.716-.77V465.937A.746.746,0,0,0,227.3,465.167Z" transform="translate(-89.007 -326.951)" fill="#050505" opacity="0.53"/>
          <path id="Trazado_150791" data-name="Trazado 150791" d="M224.466,465.167h0a.747.747,0,0,0-.716.77v13.278a.747.747,0,0,0,.716.77h0a.747.747,0,0,0,.716-.77V465.937A.747.747,0,0,0,224.466,465.167Z" transform="translate(-88.493 -326.951)" fill="#050505" opacity="0.53"/>
          <path id="Trazado_150792" data-name="Trazado 150792" d="M141.549,465.167h0a.747.747,0,0,0-.716.77v13.278a.747.747,0,0,0,.716.77h0a.747.747,0,0,0,.716-.77V465.937A.746.746,0,0,0,141.549,465.167Z" transform="translate(-73.443 -326.951)" fill="#050505" opacity="0.53"/>
          <path id="Trazado_150793" data-name="Trazado 150793" d="M138.633,465.167h0a.747.747,0,0,0-.716.77v13.278a.747.747,0,0,0,.716.77h0a.747.747,0,0,0,.716-.77V465.937A.747.747,0,0,0,138.633,465.167Z" transform="translate(-72.914 -326.951)" fill="#050505" opacity="0.53"/>
          <path id="Trazado_150794" data-name="Trazado 150794" d="M135.8,465.167h0a.747.747,0,0,0-.716.77v13.278a.747.747,0,0,0,.716.77h0a.747.747,0,0,0,.716-.77V465.937A.746.746,0,0,0,135.8,465.167Z" transform="translate(-72.4 -326.951)" fill="#050505" opacity="0.53"/>
          <rect id="Rectángulo_34017" data-name="Rectángulo 34017" width="1.432" height="14.819" rx="0.716" transform="translate(16.097 138.216)" fill="#050505" opacity="0.53"/>
          <path id="Trazado_150795" data-name="Trazado 150795" d="M75.966,465.167h0a.747.747,0,0,0-.716.77v13.278a.747.747,0,0,0,.716.77h0a.747.747,0,0,0,.716-.77V465.937A.747.747,0,0,0,75.966,465.167Z" transform="translate(-61.54 -326.951)" fill="#050505" opacity="0.53"/>
          <path id="Trazado_150796" data-name="Trazado 150796" d="M73.133,465.167h0a.746.746,0,0,0-.716.77v13.278a.747.747,0,0,0,.716.77h0a.747.747,0,0,0,.716-.77V465.937A.747.747,0,0,0,73.133,465.167Z" transform="translate(-61.026 -326.951)" fill="#050505" opacity="0.53"/>
        </g>
        <g id="Grupo_91791" data-name="Grupo 91791" transform="translate(0 91.235)">
          <path id="Trazado_150745" data-name="Trazado 150745" d="M360.694,453.48c-2.613,0-3.937-1.676-3.937-4.982V427.991h.618V448.5c0,2.946,1.055,4.317,3.319,4.317,2.617,0,3.01-.619,3.01-4.732,0-.511-.011-1.078-.023-1.683-.066-3.5-.151-7.852,1.514-9.68a2.482,2.482,0,0,1,1.905-.843h4.323v.664H367.1a1.882,1.882,0,0,0-1.465.644c-1.482,1.628-1.4,6-1.337,9.2.012.609.023,1.183.023,1.7C364.322,452.264,363.846,453.48,360.694,453.48Z" transform="translate(-327.784 -413.738)" fill="#51799e"/>
          <rect id="Rectángulo_33941" data-name="Rectángulo 33941" width="21.408" height="4.65" rx="2.325" transform="translate(0.746)" fill="#008f85"/>
          <rect id="Rectángulo_33942" data-name="Rectángulo 33942" width="108.073" height="4.65" rx="2.325" transform="translate(22.463)" fill="#008f85"/>
          <rect id="Rectángulo_33943" data-name="Rectángulo 33943" width="19.388" height="24.797" transform="translate(40.886 29.225)" fill="#acc1d1"/>
          <rect id="Rectángulo_33944" data-name="Rectángulo 33944" width="19.388" height="11.347" transform="translate(40.886 15.498)" fill="#707b82"/>
          <path id="Trazado_150746" data-name="Trazado 150746" d="M400.824,419.22H355.28l13.123,9.631h19.453Z" transform="translate(-327.516 -412.688)" fill="#c7d0d8"/>
          <path id="Trazado_150747" data-name="Trazado 150747" d="M405.848,477.724l-59.747.332,20.636-5.646h19.453Z" transform="translate(-325.85 -419.052)" fill="#c7d0d8"/>
          <path id="Trazado_150748" data-name="Trazado 150748" d="M361.1,423.537h33.848l5.813-4.317H355.217Z" transform="translate(-327.505 -412.688)" opacity="0.25"/>
          <rect id="Rectángulo_33945" data-name="Rectángulo 33945" width="131.643" height="4.428" transform="translate(0 3.432)" fill="url(#linear-gradient)"/>
          <rect id="Rectángulo_33946" data-name="Rectángulo 33946" width="60.416" height="4.982" transform="translate(20.096 58.783)" fill="#f2f3f4"/>
          <rect id="Rectángulo_33947" data-name="Rectángulo 33947" width="23.57" height="3.1" rx="1.55" transform="translate(38.931 26.513)" fill="#f2f3f4"/>
          <g id="Grupo_91787" data-name="Grupo 91787" transform="translate(42.899 31.767)">
            <rect id="Rectángulo_33948" data-name="Rectángulo 33948" width="8.397" height="14.861" rx="0.667" transform="translate(0 8.397) rotate(-90)" fill="#fff"/>
            <g id="Grupo_91786" data-name="Grupo 91786" transform="translate(1.347 2.85)">
              <rect id="Rectángulo_33949" data-name="Rectángulo 33949" width="5.801" height="2.628" rx="0.263" fill="#7aa2cc"/>
              <rect id="Rectángulo_33950" data-name="Rectángulo 33950" width="5.354" height="2.218" transform="translate(0.193 0.198)" fill="#d93328"/>
              <g id="Grupo_91785" data-name="Grupo 91785" transform="translate(0.184 0.208)">
                <g id="Grupo_91784" data-name="Grupo 91784" clip-path="url(#clip-path-2)">
                  <path id="Trazado_160141" data-name="Trazado 160141" d="M0,0,.865.031l.181,5L.181,5Z" transform="translate(4.841 -0.579) rotate(49.414)" fill="#fff" opacity="0.26"/>
                  <path id="Trazado_160142" data-name="Trazado 160142" d="M0,0,.581.021l.181,5L.181,5Z" transform="translate(3.342 -0.579) rotate(49.415)" fill="#fff" opacity="0.26"/>
                  <path id="Trazado_160143" data-name="Trazado 160143" d="M0,0,.51.018.668,4.4l-.51-.018Z" transform="translate(5.358 0.601) rotate(49.412)" fill="#fff" opacity="0.26"/>
                </g>
              </g>
            </g>
            <rect id="Rectángulo_33955" data-name="Rectángulo 33955" width="5.758" height="6.506" rx="0.531" transform="translate(7.888 0.972)" fill="#7aa2cc"/>
            <rect id="Rectángulo_33956" data-name="Rectángulo 33956" width="1.258" height="0.625" rx="0.156" transform="translate(8.444 1.57)" fill="#b5d6ff"/>
            <rect id="Rectángulo_33957" data-name="Rectángulo 33957" width="1.258" height="0.625" rx="0.156" transform="translate(10.017 1.57)" fill="#b5d6ff"/>
            <rect id="Rectángulo_33958" data-name="Rectángulo 33958" width="1.258" height="0.625" rx="0.156" transform="translate(11.577 1.57)" fill="#b5d6ff"/>
            <rect id="Rectángulo_33959" data-name="Rectángulo 33959" width="1.258" height="0.625" rx="0.156" transform="translate(8.444 2.494)" fill="#b5d6ff"/>
            <rect id="Rectángulo_33960" data-name="Rectángulo 33960" width="1.258" height="0.625" rx="0.156" transform="translate(10.017 2.494)" fill="#b5d6ff"/>
            <rect id="Rectángulo_33961" data-name="Rectángulo 33961" width="1.258" height="0.625" rx="0.156" transform="translate(11.577 2.494)" fill="#b5d6ff"/>
            <rect id="Rectángulo_33962" data-name="Rectángulo 33962" width="1.258" height="0.625" rx="0.156" transform="translate(8.444 3.457)" fill="#b5d6ff"/>
            <rect id="Rectángulo_33963" data-name="Rectángulo 33963" width="1.258" height="0.625" rx="0.156" transform="translate(10.017 3.457)" fill="#b5d6ff"/>
            <rect id="Rectángulo_33964" data-name="Rectángulo 33964" width="1.258" height="0.625" rx="0.156" transform="translate(11.577 3.457)" fill="#b5d6ff"/>
            <rect id="Rectángulo_33965" data-name="Rectángulo 33965" width="1.258" height="0.625" rx="0.156" transform="translate(8.444 4.407)" fill="#b5d6ff"/>
            <rect id="Rectángulo_33966" data-name="Rectángulo 33966" width="1.258" height="0.625" rx="0.156" transform="translate(10.017 4.407)" fill="#b5d6ff"/>
            <rect id="Rectángulo_33967" data-name="Rectángulo 33967" width="1.258" height="0.625" rx="0.156" transform="translate(11.577 4.407)" fill="#b5d6ff"/>
            <rect id="Rectángulo_33968" data-name="Rectángulo 33968" width="2.952" height="1.223" transform="translate(9.17 5.76)" fill="#f2f2f2"/>
            <rect id="Rectángulo_33969" data-name="Rectángulo 33969" width="2.202" height="0.104" rx="0.05" transform="translate(9.497 6.007)" opacity="0.41"/>
            <rect id="Rectángulo_33970" data-name="Rectángulo 33970" width="2.202" height="0.104" rx="0.05" transform="translate(9.497 6.202)" opacity="0.41"/>
            <rect id="Rectángulo_33971" data-name="Rectángulo 33971" width="1.827" height="0.104" rx="0.05" transform="translate(9.497 6.397)" opacity="0.41"/>
            <rect id="Rectángulo_33972" data-name="Rectángulo 33972" width="0.871" height="0.104" rx="0.05" transform="translate(9.497 6.645)" opacity="0.41"/>
          </g>
          <g id="Grupo_91788" data-name="Grupo 91788" transform="translate(42.443 43.684)">
            <rect id="Rectángulo_33973" data-name="Rectángulo 33973" width="7.497" height="5.19" fill="#d7e9f4"/>
            <rect id="Rectángulo_33974" data-name="Rectángulo 33974" width="5.329" height="1.112" rx="0.556" transform="translate(1.005 0.355)" fill="#175a8b"/>
            <rect id="Rectángulo_33975" data-name="Rectángulo 33975" width="4.233" height="0.255" rx="0.127" transform="translate(1.54 0.765)" fill="#fff"/>
            <rect id="Rectángulo_33976" data-name="Rectángulo 33976" width="6.409" height="0.174" rx="0.087" transform="translate(0.496 2.074)" opacity="0.17"/>
            <rect id="Rectángulo_33977" data-name="Rectángulo 33977" width="6.409" height="0.174" rx="0.087" transform="translate(0.496 2.491)" opacity="0.17"/>
            <rect id="Rectángulo_33978" data-name="Rectángulo 33978" width="6.409" height="0.174" rx="0.087" transform="translate(0.496 2.943)" opacity="0.17"/>
            <rect id="Rectángulo_33979" data-name="Rectángulo 33979" width="6.409" height="0.174" rx="0.087" transform="translate(0.496 3.36)" opacity="0.17"/>
            <rect id="Rectángulo_33980" data-name="Rectángulo 33980" width="4.262" height="0.174" rx="0.087" transform="translate(1.695 3.823)" opacity="0.17"/>
          </g>
          <g id="Grupo_91790" data-name="Grupo 91790" transform="translate(26.283 8.161)">
            <g id="Grupo_91789" data-name="Grupo 91789">
              <rect id="Rectángulo_33981" data-name="Rectángulo 33981" width="5.758" height="6.506" rx="0.531" transform="translate(0.231 0.249)" fill="#7aa2cc"/>
              <path id="Trazado_150749" data-name="Trazado 150749" d="M359.133,428.075h-5.1a.582.582,0,0,1-.559-.6v-5.8a.582.582,0,0,1,.559-.6h5.1a.582.582,0,0,1,.56.6v5.8A.582.582,0,0,1,359.133,428.075Zm-5.1-6.506a.1.1,0,0,0-.1.1v5.8a.1.1,0,0,0,.1.1h5.1a.1.1,0,0,0,.1-.1v-5.8a.1.1,0,0,0-.1-.1Z" transform="translate(-353.471 -421.071)" fill="#f2f2f2"/>
            </g>
            <rect id="Rectángulo_33982" data-name="Rectángulo 33982" width="1.258" height="0.625" rx="0.156" transform="translate(0.788 0.847)" fill="#b5d6ff"/>
            <rect id="Rectángulo_33983" data-name="Rectángulo 33983" width="1.258" height="0.625" rx="0.156" transform="translate(2.361 0.847)" fill="#b5d6ff"/>
            <rect id="Rectángulo_33984" data-name="Rectángulo 33984" width="1.258" height="0.625" rx="0.156" transform="translate(3.921 0.847)" fill="#b5d6ff"/>
            <rect id="Rectángulo_33985" data-name="Rectángulo 33985" width="1.258" height="0.625" rx="0.156" transform="translate(0.788 1.771)" fill="#b5d6ff"/>
            <rect id="Rectángulo_33986" data-name="Rectángulo 33986" width="1.258" height="0.625" rx="0.156" transform="translate(2.361 1.771)" fill="#b5d6ff"/>
            <rect id="Rectángulo_33987" data-name="Rectángulo 33987" width="1.258" height="0.625" rx="0.156" transform="translate(3.921 1.771)" fill="#b5d6ff"/>
            <rect id="Rectángulo_33988" data-name="Rectángulo 33988" width="1.258" height="0.625" rx="0.156" transform="translate(0.788 2.734)" fill="#b5d6ff"/>
            <rect id="Rectángulo_33989" data-name="Rectángulo 33989" width="1.258" height="0.625" rx="0.156" transform="translate(2.361 2.734)" fill="#b5d6ff"/>
            <rect id="Rectángulo_33990" data-name="Rectángulo 33990" width="1.258" height="0.625" rx="0.156" transform="translate(3.921 2.734)" fill="#b5d6ff"/>
            <rect id="Rectángulo_33991" data-name="Rectángulo 33991" width="1.258" height="0.625" rx="0.156" transform="translate(0.788 3.684)" fill="#b5d6ff"/>
            <rect id="Rectángulo_33992" data-name="Rectángulo 33992" width="1.258" height="0.625" rx="0.156" transform="translate(2.361 3.684)" fill="#b5d6ff"/>
            <rect id="Rectángulo_33993" data-name="Rectángulo 33993" width="1.258" height="0.625" rx="0.156" transform="translate(3.921 3.684)" fill="#b5d6ff"/>
            <rect id="Rectángulo_33994" data-name="Rectángulo 33994" width="2.952" height="1.223" transform="translate(1.514 5.037)" fill="#f2f2f2"/>
            <rect id="Rectángulo_33995" data-name="Rectángulo 33995" width="2.202" height="0.104" rx="0.05" transform="translate(1.84 5.284)" opacity="0.41"/>
            <rect id="Rectángulo_33996" data-name="Rectángulo 33996" width="2.202" height="0.104" rx="0.05" transform="translate(1.84 5.48)" opacity="0.41"/>
            <rect id="Rectángulo_33997" data-name="Rectángulo 33997" width="1.827" height="0.104" rx="0.05" transform="translate(1.84 5.675)" opacity="0.41"/>
            <rect id="Rectángulo_33998" data-name="Rectángulo 33998" width="0.871" height="0.104" rx="0.05" transform="translate(1.84 5.922)" opacity="0.41"/>
          </g>
        </g>
        <path id="Trazado_150868" data-name="Trazado 150868" d="M324.6,409.785s19.969-.705,26.517-.485,28.443,1.32,34.582.66c4.792-.516,61.388-.44,61.388-.44s1.842-14.086.409-14.526-3.683,2.641-5.525,6.383c0,0-19.644-5.282-32.945-5.062s-26.192,1.1-33.149.44S331.645,391.122,324.6,409.785Z" transform="translate(-321.948 -318.55)" fill="#1d272b"/>
        <path id="Trazado_150869" data-name="Trazado 150869" d="M350.881,399.829c-4.529-.035-8.373,4.119-12.9,4.173a32.635,32.635,0,0,1,15.719-6.443,63.058,63.058,0,0,1,10.18-.137,43.065,43.065,0,0,1,7.557.753,74.43,74.43,0,0,1-10.7,2.048l2.6.839L347.276,406a44.1,44.1,0,0,1,10.09-4.946,9.942,9.942,0,0,0-6.988-.289A1.678,1.678,0,0,1,350.881,399.829Z" transform="translate(-324.376 -318.829)" fill="#fff" opacity="0.28"/>
        <path id="Trazado_150870" data-name="Trazado 150870" d="M391.055,404.7a93.076,93.076,0,0,0,13.42-3.233c-5.323,0-10.735-.021-15.833-1.665l21.3-1.066c-.3.286.268.68.67.677l18.8-.11a156.792,156.792,0,0,0-22.2,3.613C401.881,404.18,396.42,405.731,391.055,404.7Z" transform="translate(-333.571 -319.003)" fill="#fff" opacity="0.28"/>
        <path id="Trazado_150871" data-name="Trazado 150871" d="M468.919,399.958c-.185-.332-.673-.156-.927.118-.96,1.03-1.112,2.906-2.368,3.459a3.028,3.028,0,0,1-1.8.025c-5.541-1.084-11.168-2.792-16.715-1.739a55.938,55.938,0,0,1,12.868,2.749,28.486,28.486,0,0,0-6.736,1.683l12.084.388a1.258,1.258,0,0,0,.7-.113,1.443,1.443,0,0,0,.5-.734Z" transform="translate(-344.184 -319.127)" fill="#fff" opacity="0.28"/>
      </g>
      <path id="Rectángulo_34026" data-name="Rectángulo 34026" d="M.433,0H293.017a.433.433,0,0,1,.433.433v0a.433.433,0,0,1-.433.433H.433A.433.433,0,0,1,0,.434v0A.433.433,0,0,1,.433,0Z" transform="translate(0.616 158.411)" fill="#1d272b"/>
    </g>
    <g id="Grupo_91825" data-name="Grupo 91825" transform="translate(1214.675 12698.34)">
      <g id="Grupo_90984" data-name="Grupo 90984" transform="translate(0 0)" clip-path="url(#clip-path-3)">
        <g id="Grupo_91824" data-name="Grupo 91824" transform="translate(6.709 3.624)">
          <path id="Trazado_150872" data-name="Trazado 150872" d="M925.172,1042.075c5.461-22.42,14.138-65.579,14.138-65.579l49.151-.5c7.8,4.266,6.313,56.468,8.248,61.515s22.593,36.589,20.43,47.858-21.038,2.066-21.038,2.066-17.145-24.781-21.617-30.968c-5.04-6.973-6.526-11.529-6.526-11.529-5.551-10.187-8.2-27.039-8.2-27.039-.845,17.367-7.5,31.142-6.793,33.9,0,0-8.849,37.246-11.751,40.006s-15.872,2.755-20.831-5.981C920.384,1085.82,921.577,1056.854,925.172,1042.075Z" transform="translate(-871.081 -855.541)" fill="url(#linear-gradient)"/>
          <path id="Trazado_150873" data-name="Trazado 150873" d="M960.988,986.962c-3.558-2.073-28.836,1.51-40.54-5.177.677-3.314,1.072-5.288,1.072-5.288l49.151-.5c7.8,4.266,6.313,56.468,8.248,61.515,1.909,4.978,22,35.686,20.489,47.353l-23.715-1.211c-.077-.109-.147-.214-.225-.324,3.969-.57,13.189-2.368,13.743-6.9.707-5.78-9-1.643-8.985-6.236s4.392-9.2,1.965-11.959-13.772-3.6-13.421-11.688,4.484-16.821,0-23.261-11.159-9.656-9.756-17.012S964.94,989.261,960.988,986.962Z" transform="translate(-853.291 -855.541)" fill="url(#radial-gradient)"/>
          <path id="Trazado_150874" data-name="Trazado 150874" d="M1146.051,1156.625c-2.9,2.756-15.872,2.755-20.831-5.981,0,0,.12-2.844.393-7.2,2.207.869,13.363,5.041,16.83,2.147,3.849-3.221-4.173-13.795-2.339-21.613s8.381-7.423,9.944-13.83-4.757-11-2.808-15.6,9.206-16.1,7.754-21.155,5.36-8.906,5.36-8.906,1.922,8.566,4.157,19.636c-1.121,16.7-7.4,29.81-6.71,32.495C1157.8,1116.619,1148.953,1153.865,1146.051,1156.625Z" transform="translate(-1075.917 -920.366)" fill="#7999c6"/>
          <path id="Trazado_150875" data-name="Trazado 150875" d="M1171.565,1202.652s-15.137,13.4-22.564,15.634" transform="translate(-1089.661 -1021.572)" fill="none" stroke="#5179aa" stroke-linecap="round" stroke-miterlimit="10" stroke-width="2.579"/>
          <path id="Trazado_150876" data-name="Trazado 150876" d="M1181.5,1248.207s-17.4,4.405-24.177,6.686" transform="translate(-1101.94 -1054.942)" fill="none" stroke="#5179aa" stroke-linecap="round" stroke-miterlimit="10" stroke-width="2.579"/>
          <g id="Grupo_91823" data-name="Grupo 91823" transform="translate(16.263 0)">
            <g id="Grupo_91822" data-name="Grupo 91822">
              <path id="Trazado_150877" data-name="Trazado 150877" d="M970.22,675.063a2.015,2.015,0,0,0,2.063,1.959h10.289a2.014,2.014,0,0,0,2.063-1.959h0a2.013,2.013,0,0,0-2.063-1.958H972.283a2.014,2.014,0,0,0-2.063,1.958Z" transform="translate(-868.7 -633.673)" fill="#00111c"/>
              <path id="Trazado_150878" data-name="Trazado 150878" d="M1035.834,676.011a2.012,2.012,0,0,0,2.063,1.958h10.288a2.011,2.011,0,0,0,2.063-1.958h0a2.012,2.012,0,0,0-2.062-1.96H1037.9a2.013,2.013,0,0,0-2.063,1.96Z" transform="translate(-952.771 -634.366)" fill="#00111c"/>
              <path id="Trazado_150879" data-name="Trazado 150879" d="M987.935,681.379v5.979l-30.949.229.771-6.208Z" transform="translate(-868.278 -639.734)" fill="#00111c"/>
              <g id="Grupo_91821" data-name="Grupo 91821">
                <path id="Trazado_150880" data-name="Trazado 150880" d="M1201.505,831.879s-18.625-3.27-21.162-2.427-7.011,8.164.24,12.99,32.143,12.945,33.269,10.53S1212.895,833.6,1201.505,831.879Z" transform="translate(-1156.254 -748.097)" fill="url(#linear-gradient)"/>
                <path id="Trazado_150881" data-name="Trazado 150881" d="M1205.819,716.621s-5.805,2.28-7.616,4.657.655,33.49,5.407,41.058S1205.819,716.621,1205.819,716.621Z" transform="translate(-1154.529 -665.549)" fill="url(#linear-gradient)"/>
                <path id="Trazado_150882" data-name="Trazado 150882" d="M935.068,756.744a8.5,8.5,0,0,0,8.7,8.282h18.953a8.5,8.5,0,0,0,8.706-8.282V703.529a8.5,8.5,0,0,0-8.706-8.275H943.772a8.5,8.5,0,0,0-8.7,8.275Z" transform="translate(-845.609 -649.898)" fill="#db8804"/>
                <path id="Trazado_150883" data-name="Trazado 150883" d="M935.068,756.744V703.529a8.5,8.5,0,0,1,8.7-8.275h2.942a8.5,8.5,0,0,1,8.706,8.275v53.215a8.5,8.5,0,0,1-8.706,8.282h-2.942A8.5,8.5,0,0,1,935.068,756.744Z" transform="translate(-829.596 -649.898)" fill="#f7b242"/>
                <g id="Grupo_91816" data-name="Grupo 91816" transform="translate(114.761 97.77)">
                  <path id="Trazado_150884" data-name="Trazado 150884" d="M950.03,900.044a3.511,3.511,0,1,1,3.688-3.507A3.6,3.6,0,0,1,950.03,900.044Z" transform="translate(-945.828 -892.542)" fill="#a2c2e7"/>
                  <path id="Trazado_150885" data-name="Trazado 150885" d="M948.711,892.182a3.021,3.021,0,1,0,3.174,3.017,3.1,3.1,0,0,0-3.174-3.017m0-.979a4,4,0,1,1-4.2,4,4.109,4.109,0,0,1,4.2-4Z" transform="translate(-944.509 -891.203)" fill="#00111c"/>
                </g>
                <g id="Grupo_91819" data-name="Grupo 91819" transform="translate(47.574 46.606)">
                  <g id="Grupo_91818" data-name="Grupo 91818">
                    <g id="Grupo_91817" data-name="Grupo 91817">
                      <path id="Trazado_150886" data-name="Trazado 150886" d="M1012.072,956.239s.008,6.767,1.7,7.254c0,0,29.079,6.8,51.563-3.3l.632-6.271Z" transform="translate(-1009.382 -885.984)" fill="#1d272b"/>
                      <path id="Trazado_150887" data-name="Trazado 150887" d="M1032.26,699.926s21.11,4.5,23.988,7.717-5.559,29.63-6.345,32.62,3.091,25.855,2.305,29.092-36.478,8.793-53.748.825c0,0-.969-35.152-.969-35.9s-4.712-30.462,3.346-30.8c2.1-.086,11.044-3.552,11.044-3.552Z" transform="translate(-995.771 -699.926)" fill="#ecedea"/>
                      <path id="Trazado_150888" data-name="Trazado 150888" d="M1068.314,777.3c-.786,3.235-36.478,8.793-53.748.826,0,0-.969-35.152-.969-35.9s-4.712-30.462,3.346-30.8a14.131,14.131,0,0,0,2.8-.651l4.843,3.844h23.346s15.882,4.961,17.251,8.756c.753,2.089.875,12.271,1.371,22.948-.262.885-.455,1.544-.545,1.888C1065.223,751.193,1069.1,774.065,1068.314,777.3Z" transform="translate(-1011.876 -707.871)" fill="url(#linear-gradient)"/>
                      <path id="Trazado_150889" data-name="Trazado 150889" d="M959.765,940.844s-17.329-10.233-2.538-19.741c9.854-6.331,77.421,15.228,64.6-11.986" transform="translate(-949.739 -853.161)" fill="none" stroke="#1d272d" stroke-linecap="round" stroke-miterlimit="10" stroke-width="7.736"/>
                      <path id="Trazado_150890" data-name="Trazado 150890" d="M1199.038,711.742s-2.715,39.116-3.2,55.108c0,0-4.537-37.312-1.03-50.551C1195.989,711.844,1196.29,711.742,1199.038,711.742Z" transform="translate(-1193.482 -708.581)" fill="#1d272b"/>
                      <path id="Trazado_150891" data-name="Trazado 150891" d="M1020.474,714.7s-19.847,30.24,1.626,57.295c0,0,2.946,3.139,0,4.406,0,0-16.661-12.258-14.487-36.305,0,0,2.48-18.242,9.7-26.432C1017.316,713.662,1019.795,712.432,1020.474,714.7Z" transform="translate(-965.513 -709.744)" fill="#1d272b"/>
                      <path id="Trazado_150892" data-name="Trazado 150892" d="M1079.47,789.56h10.817V782.7H1079.47Z" transform="translate(-1052.659 -760.558)" fill="#008f85"/>
                      <rect id="Rectángulo_34024" data-name="Rectángulo 34024" width="8.87" height="1.065" transform="translate(27.185 25.038)" fill="#1d272b"/>
                      <path id="Trazado_150893" data-name="Trazado 150893" d="M1095.775,770.918l.722,4.427h1.974l.147-4.427Z" transform="translate(-1065.576 -751.928)" fill="#1d272b"/>
                    </g>
                  </g>
                </g>
                <path id="Trazado_150894" data-name="Trazado 150894" d="M1050.834,530.722c1.522-1.175,7.082-4.311,15.852-5,6.047-.473,12.208,5.069,16.543,10,3.249,3.7,1.57,14.917.682,19.892,0,0,1.592,14.761.183,18.908,0,0-25.385,4.986-28.349,4.489s-6.989-3.152-8.38-5.806-1.276-15.845-1.276-15.845S1047.169,533.547,1050.834,530.722Z" transform="translate(-990.551 -525.691)" fill="#ecedea"/>
                <path id="Trazado_150895" data-name="Trazado 150895" d="M1059.151,560.56s-.5-9.488,1.57-11.728,15.534-2.416,18.775-1.21,4.333,14.1,4.153,17.653c0,0,6.529-3.391,7.433-2.158s-7.616,2.513-7.069,3.941,5.982.929,6.344,2.73-6.707-.829-7.071.574-1.27.576.364,2.11,8.522,2.569,6.346,3.6-8.38-2.358-8.179-.919,10.536,4.538,8.541,5.489-8.906-2.511-8.715-.953,10.361,4.566,7.456,4.87-5.651-1.339-7.456,0c-1.313.978-.631,4.949-.154,7.683-7.073,1.263-15,2.552-16.577,2.286a14.142,14.142,0,0,1-7.4-4.4c-.164-4.2-.643-15.208.986-22.4Z" transform="translate(-999.716 -541.213)" fill="url(#linear-gradient)"/>
                <path id="Trazado_150896" data-name="Trazado 150896" d="M1091.407,579.224a14.163,14.163,0,0,0-.144,6.591,7.783,7.783,0,0,1-.142,3.983c-.673,1.88-1.364,10.384,1.162,14.331,1.779,2.778,12.153,5.2,17.182,0,4.176-4.315,4.738-13.615,4.622-16.712s-1.008-11.456-9.33-10.713C1097.016,577.394,1091.8,576.166,1091.407,579.224Z" transform="translate(-1032 -563.025)" fill="#fca977"/>
                <path id="Trazado_150897" data-name="Trazado 150897" d="M1112.649,592.586s-1.686.262-.465,1.092,4.4.293,6.226.624a3.105,3.105,0,0,0-1.509-1.187A13.64,13.64,0,0,0,1112.649,592.586Z" transform="translate(-1042.286 -574.691)" fill="#1a1715"/>
                <path id="Trazado_150898" data-name="Trazado 150898" d="M1161.931,595.8s1.134.261.314,1.09-2.48.207-3.714.539c0,0-.842-.454-.018-1.036S1161.931,595.8,1161.931,595.8Z" transform="translate(-1099.475 -577.05)" fill="#1a1715"/>
                <path id="Trazado_150899" data-name="Trazado 150899" d="M1126.623,611.782c0,.778-.38,1.411-.844,1.411s-.844-.633-.844-1.411.377-1.411.844-1.411S1126.623,611,1126.623,611.782Z" transform="translate(-1054.211 -587.72)" fill="#1a1715"/>
                <path id="Trazado_150900" data-name="Trazado 150900" d="M1162.436,611.782c0,.778-.266,1.411-.594,1.411s-.6-.633-.6-1.411.266-1.411.6-1.411S1162.436,611,1162.436,611.782Z" transform="translate(-1100.238 -587.72)" fill="#1a1715"/>
                <path id="Trazado_150901" data-name="Trazado 150901" d="M1124.655,608.97s.272,4.6-.929,5.6-11.085-1.28-11.786-1.709c0,0-6.418,1.742-6.474,1.387a31.582,31.582,0,0,1-.281-6.277l16.365-.394Z" transform="translate(-1046.687 -585.677)" fill="#8e2f2b" opacity="0.5" style="mix-blend-mode: multiply;isolation: isolate"/>
                <g id="Grupo_91820" data-name="Grupo 91820" transform="translate(57.839 21.762)">
                  <path id="Trazado_150902" data-name="Trazado 150902" d="M1117.064,607.048h0Z" transform="translate(-1100.336 -607.047)" fill="#1d272b"/>
                  <path id="Trazado_150903" data-name="Trazado 150903" d="M1102.248,607.63l.933-.032c-.077.623-.556,4.939.743,5.478a41.693,41.693,0,0,1,5.943-1.08c1.569,0,8.793,2.116,10.416,1.642s1.173-5.035,1.173-5.035l-2.394-1.523,3.876,1.523s1.178,6.05-1.425,6.567-10.58-2.5-12.213-2.068-5.675,1.748-6.373,1.305S1102.248,607.63,1102.248,607.63Z" transform="translate(-1102.248 -607.07)" fill="#1d272b"/>
                </g>
                <path id="Trazado_150904" data-name="Trazado 150904" d="M1114.875,609.133a58.9,58.9,0,0,0-6.835-2.55c-1.943-.414-16.656-.329-17.412,0,0,0-.5.673.94.809,0,0,13.25-.8,16.473,0l6.645,2.372Z" transform="translate(-1032.789 -584.74)" fill="#1d272b"/>
                <path id="Trazado_150905" data-name="Trazado 150905" d="M1120.118,632.782a5.2,5.2,0,0,1,3.324,0c2.321.676,7.786,3.841,7.944,5.107s-3.167,8.276-6.935,9.252c-2.731.709-7.547-.925-9.538-7.387,0,0-.4-2.74.492-4.223S1120.118,632.782,1120.118,632.782Z" transform="translate(-1056.134 -603.947)" fill="#eeebf5"/>
                <path id="Trazado_150906" data-name="Trazado 150906" d="M1091.115,637.179s6.6-3.957,7.359-4.656l-.079,1.543-6.6,3.823Z" transform="translate(-1016.548 -603.947)" fill="#eeebf5"/>
                <path id="Trazado_150907" data-name="Trazado 150907" d="M1099.083,666.894s5.435-.535,6.682-.914l-.441.914-6.584.992Z" transform="translate(-1025.984 -628.454)" fill="#eeebf5"/>
                <path id="Trazado_150908" data-name="Trazado 150908" d="M1041.341,692.142l-3.125,4.251s3.957,8.718,13.843,9.754,29.834-9.31,29.834-9.31l-2.7-6.049s-19.856,9.628-28.129,7.714C1041.931,696.394,1041.341,692.142,1041.341,692.142Z" transform="translate(-985.087 -646.627)" fill="#008f85"/>
                <path id="Trazado_150909" data-name="Trazado 150909" d="M1040.767,703.021l19.677-7.766,2.163,4.854s-14.031,7.276-24.391,9.012Z" transform="translate(-965.8 -649.898)" fill="#008f85"/>
                <path id="Trazado_150910" data-name="Trazado 150910" d="M1055.79,698.5c8.272,1.913,28.128-7.714,28.128-7.714l.827,1.848c-5.424,2.617-19.767,9.067-27.671,8.24a17.443,17.443,0,0,1-12.2-7.114l1.193-1.622S1046.656,696.394,1055.79,698.5Z" transform="translate(-989.812 -646.627)" fill="#1d272b"/>
                <path id="Trazado_150911" data-name="Trazado 150911" d="M1010.984,728.451s-5.079-1.381-8.7,5.271-6.3,30.206-6.3,30.206-22.925,29.333-25.058,30.32.332,7.617,6.774,8.626c4.409.691,30.681-22.516,32.881-26.3,0,0,1.087.69,8.029-33.7C1019.807,736.9,1017.092,728.331,1010.984,728.451Z" transform="translate(-902.933 -674.128)" fill="#ecedea"/>
                <path id="Trazado_150912" data-name="Trazado 150912" d="M1307.773,816.619s2.345,8.1-3.14,10.7l-8.665-5.032a48.164,48.164,0,0,1-6.445.7c-1.406-.134-9.3-3.234-10-4.3s.242-4.833,1.087-6.44,4.975-1.564,6.242-1.829a21.178,21.178,0,0,1,5.061,0,3.8,3.8,0,0,1,2.533,2.005c.422.8,4.225,2.846,5.212,3.248S1307.773,816.619,1307.773,816.619Z" transform="translate(-1279.277 -734.142)" fill="#f7b242"/>
              </g>
            </g>
            <path id="Trazado_150913" data-name="Trazado 150913" d="M999.7,838.906s13.235,2.12,13.047,9.4" transform="translate(-905.105 -755.124)" fill="none" stroke="#868695" stroke-linecap="round" stroke-miterlimit="10" stroke-width="2.579"/>
            <line id="Línea_1693" data-name="Línea 1693" y1="1.304" x2="14.719" transform="translate(95.953 81.215)" fill="none" stroke="#868695" stroke-linecap="round" stroke-miterlimit="10" stroke-width="2.579"/>
            <path id="Trazado_150914" data-name="Trazado 150914" d="M981.943,802.127s10.611-6.827,13.422-8.6" transform="translate(-882.728 -721.887)" fill="none" stroke="#868695" stroke-linecap="round" stroke-miterlimit="10" stroke-width="2.579"/>
          </g>
          <path id="Trazado_150915" data-name="Trazado 150915" d="M1297.423,786.633s-4.9,3.62-2.719,9.309l40.223,7.413.293-2.122Z" transform="translate(-1294.146 -716.834)" fill="#1d272b"/>
          <path id="Trazado_150916" data-name="Trazado 150916" d="M1335.192,810.488a5.609,5.609,0,0,0-2.421,1.141c-.681.761-1.33,3.013-.726,3.894s2.788-1.19,3.147-1.936a6.45,6.45,0,0,0,2.657-.472" transform="translate(-1307.369 -734.308)" fill="#f7b242"/>
          <path id="Trazado_150917" data-name="Trazado 150917" d="M1357.2,828.134a1.06,1.06,0,0,1-1.085,1.034h0a1.061,1.061,0,0,1-1.087-1.034v-4.369a1.059,1.059,0,0,1,1.087-1.034h0a1.058,1.058,0,0,1,1.085,1.034Z" transform="translate(-1333.254 -743.276)" fill="#f7b242"/>
          <path id="Trazado_150918" data-name="Trazado 150918" d="M1364.306,825.71a1.063,1.063,0,0,1-1.091,1.034h0a1.061,1.061,0,0,1-1.088-1.034v-4.367a1.061,1.061,0,0,1,1.088-1.033h0a1.063,1.063,0,0,1,1.091,1.033Z" transform="translate(-1342.355 -741.502)" fill="#f7b242"/>
          <path id="Trazado_150919" data-name="Trazado 150919" d="M1372.049,823.9a1.061,1.061,0,0,1-1.085,1.033h0a1.064,1.064,0,0,1-1.091-1.033v-4.37a1.062,1.062,0,0,1,1.091-1.034h0a1.059,1.059,0,0,1,1.085,1.034Z" transform="translate(-1352.277 -740.171)" fill="#f7b242"/>
          <path id="Trazado_150920" data-name="Trazado 150920" d="M1379.781,823.084a1.06,1.06,0,0,1-1.087,1.035h0a1.062,1.062,0,0,1-1.088-1.035v-4.367a1.062,1.062,0,0,1,1.088-1.037h0a1.061,1.061,0,0,1,1.087,1.037Z" transform="translate(-1362.185 -739.576)" fill="#f7b242"/>
          <path id="Trazado_150921" data-name="Trazado 150921" d="M1115.373,842.555s9.188,2.056,12.816,10.564,3.145,82.77,19.56,93.459c0,0,23.966,12.5,18.846-18.968-4.463-27.424-11.314-36.9-11.314-36.9" transform="translate(-1075.948 -757.797)" fill="none" stroke="#1d272d" stroke-linecap="round" stroke-miterlimit="10" stroke-width="7.736"/>
          <path id="Trazado_150922" data-name="Trazado 150922" d="M1120.711,975.992l-6.522,7.806a7.128,7.128,0,0,0-3.325,1.152c-2.2,1.214-3.687.77-4.126,2.191s-.735,1.086-.447,2-2.406,2.508-2.231,4.142,3.637,3.279,6.121,4.34c.625.264,4.787.651,6.51-.321s3.766-7.2,4.639-8.614,8.01-6.992,8.01-6.992A17.029,17.029,0,0,0,1120.711,975.992Z" transform="translate(-1034.79 -855.541)" fill="#f7b242"/>
          <path id="Trazado_150923" data-name="Trazado 150923" d="M881.1,1383.5s-12.555,11.456-13.311,12-.306,1.945.2,2.506,30.571-11.276,32.412-12.016,4.2-1.383,4.712-2.3-1.2-6.038-4.505-9.845l-9.9-19.346s.1-2.822-1.875-3.032c0,0-11.824,6.566-22.035,9.294a28.5,28.5,0,0,0,4.022,4.961C874.78,1369.111,881.1,1383.5,881.1,1383.5Z" transform="translate(-743.914 -1130.583)" fill="#00111c"/>
          <path id="Trazado_150924" data-name="Trazado 150924" d="M1199.6,1404.536s-17.145,2.825-18.089,2.872-1.4,1.448-1.306,2.181,31.974,6.9,33.934,7.27,4.3,1.085,5.261.6,2.555-5.646,2.053-10.559l3.165-21.3s1.743-2.284.224-3.511c0,0-13.659-.839-23.734-4.008a27.016,27.016,0,0,0,.421,6.254C1202.823,1389.24,1199.6,1404.536,1199.6,1404.536Z" transform="translate(-1152.331 -1150.071)" fill="#00111c"/>
          <path id="Trazado_150925" data-name="Trazado 150925" d="M1010.738,1209.52s-3.752,11.408-7.4,20.695" transform="translate(-887.856 -1026.603)" fill="none" stroke="#5179aa" stroke-linecap="round" stroke-miterlimit="10" stroke-width="2.579"/>
          <path id="Trazado_150926" data-name="Trazado 150926" d="M995.364,1240.6s-8.953,14.383-13.422,17.438" transform="translate(-866.465 -1049.371)" fill="none" stroke="#5179aa" stroke-linecap="round" stroke-miterlimit="10" stroke-width="2.579"/>
        </g>
      </g>
    </g>
  </g>
</svg>
