<svg xmlns="http://www.w3.org/2000/svg" width="439.655" height="132" viewBox="0 0 439.655 132">
  <g id="img2" transform="translate(-194 -742)">
    <path id="Trazado_160205" data-name="Trazado 160205" d="M10.78-8.588H6.929V0H2.095V-23.461h8.717a9.854,9.854,0,0,1,6.413,1.853,6.4,6.4,0,0,1,2.256,5.237,7.218,7.218,0,0,1-1.039,4,7.088,7.088,0,0,1-3.15,2.554L20.367-.226V0H15.179ZM6.929-12.5h3.9a3.992,3.992,0,0,0,2.82-.927,3.312,3.312,0,0,0,1-2.554,3.545,3.545,0,0,0-.943-2.61,3.917,3.917,0,0,0-2.892-.951H6.929ZM37.27-10.167H27.989v6.284H38.881V0H23.155V-23.461H38.849v3.916H27.989v5.591H37.27ZM60.957-11.2a14.135,14.135,0,0,1-1.063,5.712A9.806,9.806,0,0,1,56.944-1.6l3.9,3.062L57.766,4.189l-5-4.012A10.573,10.573,0,0,1,51,.322a9.76,9.76,0,0,1-5.2-1.4,9.313,9.313,0,0,1-3.545-4,13.758,13.758,0,0,1-1.273-5.986v-1.16a14.088,14.088,0,0,1,1.249-6.1,9.3,9.3,0,0,1,3.529-4.044,9.707,9.707,0,0,1,5.213-1.41,9.707,9.707,0,0,1,5.213,1.41,9.3,9.3,0,0,1,3.529,4.044,14.048,14.048,0,0,1,1.249,6.083Zm-4.9-1.063a9.873,9.873,0,0,0-1.321-5.607,4.306,4.306,0,0,0-3.771-1.917,4.307,4.307,0,0,0-3.754,1.893,9.76,9.76,0,0,0-1.337,5.551V-11.2A10,10,0,0,0,47.2-5.624,4.3,4.3,0,0,0,51-3.642a4.256,4.256,0,0,0,3.738-1.909,9.938,9.938,0,0,0,1.321-5.567Zm26.2-11.2V-8.008a7.911,7.911,0,0,1-2.409,6.091A9.287,9.287,0,0,1,73.267.322a9.392,9.392,0,0,1-6.526-2.175,7.776,7.776,0,0,1-2.465-5.978v-15.63H69.11V-7.976a4.47,4.47,0,0,0,1.1,3.36,4.237,4.237,0,0,0,3.053,1.055q4.077,0,4.141-4.286V-23.461ZM91.362,0H86.528V-23.461h4.834Zm16.645-6.155a2.481,2.481,0,0,0-.967-2.1A12.681,12.681,0,0,0,103.56-9.8a24.673,24.673,0,0,1-3.98-1.6q-4-2.159-4-5.817a5.665,5.665,0,0,1,1.072-3.392,6.99,6.99,0,0,1,3.078-2.328,11.584,11.584,0,0,1,4.5-.838,10.544,10.544,0,0,1,4.479.91,7.133,7.133,0,0,1,3.053,2.57,6.725,6.725,0,0,1,1.088,3.771h-4.834a3.164,3.164,0,0,0-1.015-2.506,4.173,4.173,0,0,0-2.852-.894,4.458,4.458,0,0,0-2.755.749,2.363,2.363,0,0,0-.983,1.974,2.263,2.263,0,0,0,1.152,1.917,13.016,13.016,0,0,0,3.392,1.45,14.655,14.655,0,0,1,6.01,3.078,6.129,6.129,0,0,1,1.885,4.576,5.646,5.646,0,0,1-2.3,4.778,10.087,10.087,0,0,1-6.2,1.732,11.979,11.979,0,0,1-4.931-.991,7.8,7.8,0,0,1-3.392-2.715,6.953,6.953,0,0,1-1.168-4h4.85q0,3.883,4.641,3.883a4.514,4.514,0,0,0,2.691-.7A2.28,2.28,0,0,0,108.007-6.155ZM121.269,0h-4.834V-23.461h4.834Zm22.14-19.545h-7.187V0h-4.834V-19.545H124.3v-3.916h19.11ZM164.984-11.2a14.163,14.163,0,0,1-1.225,6.075,9.223,9.223,0,0,1-3.5,4.028A9.7,9.7,0,0,1,155.026.322a9.76,9.76,0,0,1-5.2-1.4,9.313,9.313,0,0,1-3.545-4A13.758,13.758,0,0,1,145-11.07v-1.16a14.088,14.088,0,0,1,1.249-6.1,9.3,9.3,0,0,1,3.529-4.044,9.707,9.707,0,0,1,5.213-1.41,9.707,9.707,0,0,1,5.213,1.41,9.3,9.3,0,0,1,3.529,4.044,14.048,14.048,0,0,1,1.249,6.083Zm-4.9-1.063a9.873,9.873,0,0,0-1.321-5.607,4.306,4.306,0,0,0-3.771-1.917,4.307,4.307,0,0,0-3.754,1.893,9.76,9.76,0,0,0-1.337,5.551V-11.2a10,10,0,0,0,1.321,5.575,4.3,4.3,0,0,0,3.8,1.982,4.256,4.256,0,0,0,3.738-1.909,9.938,9.938,0,0,0,1.321-5.567Zm20.577,6.107a2.481,2.481,0,0,0-.967-2.1,12.681,12.681,0,0,0-3.48-1.547,24.673,24.673,0,0,1-3.98-1.6q-4-2.159-4-5.817a5.665,5.665,0,0,1,1.072-3.392,6.99,6.99,0,0,1,3.078-2.328,11.584,11.584,0,0,1,4.5-.838,10.544,10.544,0,0,1,4.479.91,7.133,7.133,0,0,1,3.053,2.57,6.725,6.725,0,0,1,1.088,3.771h-4.834a3.164,3.164,0,0,0-1.015-2.506,4.173,4.173,0,0,0-2.852-.894,4.458,4.458,0,0,0-2.755.749,2.363,2.363,0,0,0-.983,1.974,2.263,2.263,0,0,0,1.152,1.917,13.016,13.016,0,0,0,3.392,1.45,14.655,14.655,0,0,1,6.01,3.078,6.129,6.129,0,0,1,1.885,4.576,5.646,5.646,0,0,1-2.3,4.778A10.087,10.087,0,0,1,177,.322a11.979,11.979,0,0,1-4.931-.991,7.8,7.8,0,0,1-3.392-2.715,6.953,6.953,0,0,1-1.168-4h4.85Q172.364-3.5,177-3.5a4.514,4.514,0,0,0,2.691-.7A2.28,2.28,0,0,0,180.662-6.155Zm21.173-2.111V0H197V-23.461h9.152a10.589,10.589,0,0,1,4.649.967,7.124,7.124,0,0,1,3.086,2.747,7.66,7.66,0,0,1,1.08,4.052,6.736,6.736,0,0,1-2.361,5.438,9.832,9.832,0,0,1-6.534,1.99Zm0-3.916h4.318a4.246,4.246,0,0,0,2.925-.9,3.282,3.282,0,0,0,1.007-2.578,3.87,3.87,0,0,0-1.015-2.788,3.792,3.792,0,0,0-2.8-1.1h-4.431Zm26.829,7.348h-8.476L218.577,0h-5.14l8.733-23.461h4.479L235.431,0h-5.14Zm-7.17-3.916h5.865l-2.949-8.782Zm24.814.161h-3.851V0h-4.834V-23.461h8.717a9.854,9.854,0,0,1,6.413,1.853,6.4,6.4,0,0,1,2.256,5.237,7.218,7.218,0,0,1-1.039,4,7.088,7.088,0,0,1-3.15,2.554L255.9-.226V0h-5.188ZM242.457-12.5h3.9a3.992,3.992,0,0,0,2.82-.927,3.312,3.312,0,0,0,1-2.554,3.545,3.545,0,0,0-.943-2.61,3.917,3.917,0,0,0-2.892-.951h-3.883Zm29.471,7.67h-8.476L261.841,0H256.7l8.733-23.461h4.479L278.7,0h-5.14Zm-7.17-3.916h5.865l-2.949-8.782Z" transform="translate(210 779)" fill="#008f85"/>
    <path id="Trazado_160207" data-name="Trazado 160207" d="M6.929-3.883H17.193V0H2.095V-23.461H6.929Zm26.587-.951H25.04L23.429,0h-5.14l8.733-23.461H31.5L40.283,0h-5.14ZM26.345-8.75H32.21l-2.949-8.782ZM63.938-4.834H55.462L53.851,0H48.71l8.733-23.461h4.479L70.705,0h-5.14ZM56.767-8.75h5.865l-2.949-8.782ZM90.379-23.461V-8.008A7.911,7.911,0,0,1,87.97-1.917,9.287,9.287,0,0,1,81.388.322a9.392,9.392,0,0,1-6.526-2.175A7.776,7.776,0,0,1,72.4-7.831v-15.63h4.834V-7.976a4.47,4.47,0,0,0,1.1,3.36,4.237,4.237,0,0,0,3.053,1.055q4.077,0,4.141-4.286V-23.461ZM112-19.545h-7.187V0H99.983V-19.545h-7.09v-3.916H112Zm16.871,9.378h-9.281v6.284h10.893V0H114.759V-23.461h15.694v3.916h-10.86v5.591h9.281ZM152.4,0h-4.834l-9.41-15.437V0h-4.834V-23.461h4.834l9.426,15.469V-23.461H152.4Zm21.882-19.545h-7.187V0h-4.834V-19.545h-7.09v-3.916h19.11ZM182.177,0h-4.834V-23.461h4.834Zm22.9-7.815a8.3,8.3,0,0,1-2.8,5.962A9.818,9.818,0,0,1,195.631.322a8.829,8.829,0,0,1-7.1-3.037q-2.586-3.037-2.586-8.339v-1.434a14.064,14.064,0,0,1,1.192-5.962,8.936,8.936,0,0,1,3.408-3.956,9.547,9.547,0,0,1,5.148-1.378,9.565,9.565,0,0,1,6.542,2.175,8.922,8.922,0,0,1,2.868,6.107h-4.834a4.9,4.9,0,0,0-1.265-3.3,4.684,4.684,0,0,0-3.311-1.023,4.107,4.107,0,0,0-3.617,1.732,9.708,9.708,0,0,0-1.233,5.374v1.772q0,3.8,1.152,5.559a4.031,4.031,0,0,0,3.634,1.756,4.772,4.772,0,0,0,3.344-1.023,4.621,4.621,0,0,0,1.265-3.166ZM213.388,0h-4.834V-23.461h4.834Zm4.479,0V-23.461h7.219a10.963,10.963,0,0,1,5.535,1.394,9.719,9.719,0,0,1,3.811,3.964,12.226,12.226,0,0,1,1.37,5.841v1.08a12.261,12.261,0,0,1-1.345,5.817,9.636,9.636,0,0,1-3.795,3.948A11.045,11.045,0,0,1,225.135,0ZM222.7-19.545V-3.883h2.336a5.249,5.249,0,0,0,4.334-1.853,8.374,8.374,0,0,0,1.531-5.3v-1.241a8.507,8.507,0,0,0-1.482-5.422,5.232,5.232,0,0,0-4.334-1.845ZM252.56-4.834h-8.476L242.473,0h-5.14l8.733-23.461h4.479L259.327,0h-5.14Zm-7.17-3.916h5.865l-2.949-8.782ZM261.519,0V-23.461h7.219a10.963,10.963,0,0,1,5.535,1.394,9.719,9.719,0,0,1,3.811,3.964,12.226,12.226,0,0,1,1.37,5.841v1.08a12.261,12.261,0,0,1-1.345,5.817,9.636,9.636,0,0,1-3.795,3.948A11.045,11.045,0,0,1,268.786,0Zm4.834-19.545V-3.883h2.336a5.249,5.249,0,0,0,4.334-1.853,8.374,8.374,0,0,0,1.531-5.3v-1.241a8.507,8.507,0,0,0-1.482-5.422,5.232,5.232,0,0,0-4.334-1.845Zm32.919,6.655,4.882-10.57h5.285l-7.7,14.953V0h-4.915V-8.508l-7.7-14.953h5.3Z" transform="translate(210 840)" fill="#008f85"/>
    <path id="Trazado_160208" data-name="Trazado 160208" d="M14.3-5.447a5.786,5.786,0,0,1-1.948,4.155A6.843,6.843,0,0,1,7.715.225,6.153,6.153,0,0,1,2.768-1.892,8.68,8.68,0,0,1,.966-7.7v-1A9.8,9.8,0,0,1,1.8-12.859a6.228,6.228,0,0,1,2.375-2.757,6.654,6.654,0,0,1,3.588-.96,6.666,6.666,0,0,1,4.56,1.516,6.218,6.218,0,0,1,2,4.256H10.95a3.415,3.415,0,0,0-.882-2.3,3.265,3.265,0,0,0-2.308-.713,2.863,2.863,0,0,0-2.521,1.207A6.766,6.766,0,0,0,4.38-8.861v1.235a7.242,7.242,0,0,0,.8,3.875A2.81,2.81,0,0,0,7.715-2.527a3.326,3.326,0,0,0,2.33-.713,3.221,3.221,0,0,0,.882-2.207ZM25.74-3.369H19.833L18.71,0H15.127l6.087-16.352h3.122L30.457,0H26.875Zm-5-2.729h4.088l-2.055-6.121Zm14.611.337V0H31.984V-16.352h6.379a7.38,7.38,0,0,1,3.24.674,4.965,4.965,0,0,1,2.151,1.915,5.339,5.339,0,0,1,.752,2.824,4.7,4.7,0,0,1-1.645,3.79,6.853,6.853,0,0,1-4.554,1.387Zm0-2.729h3.01A2.959,2.959,0,0,0,40.4-9.119a2.287,2.287,0,0,0,.7-1.8,2.7,2.7,0,0,0-.708-1.943,2.643,2.643,0,0,0-1.954-.764H35.354Zm18.7,5.121H48.145L47.022,0H43.439l6.087-16.352h3.122L58.769,0H55.187Zm-5-2.729h4.088l-2.055-6.121Zm24.078.651a5.786,5.786,0,0,1-1.948,4.155A6.843,6.843,0,0,1,66.552.225,6.153,6.153,0,0,1,61.6-1.892,8.68,8.68,0,0,1,59.8-7.7v-1a9.8,9.8,0,0,1,.831-4.155,6.228,6.228,0,0,1,2.375-2.757,6.654,6.654,0,0,1,3.588-.96,6.666,6.666,0,0,1,4.56,1.516,6.218,6.218,0,0,1,2,4.256H69.786a3.415,3.415,0,0,0-.882-2.3,3.265,3.265,0,0,0-2.308-.713,2.863,2.863,0,0,0-2.521,1.207,6.766,6.766,0,0,0-.859,3.745v1.235a7.242,7.242,0,0,0,.8,3.875,2.81,2.81,0,0,0,2.532,1.224,3.326,3.326,0,0,0,2.33-.713,3.221,3.221,0,0,0,.882-2.207ZM78.928,0H75.559V-16.352h3.369ZM82.05,0V-16.352h5.031a7.641,7.641,0,0,1,3.858.971,6.774,6.774,0,0,1,2.656,2.763,8.521,8.521,0,0,1,.955,4.071v.752a8.545,8.545,0,0,1-.938,4.054A6.716,6.716,0,0,1,90.967-.988,7.7,7.7,0,0,1,87.115,0Zm3.369-13.623V-2.707h1.628A3.659,3.659,0,0,0,90.068-4a5.836,5.836,0,0,0,1.067-3.695v-.865A5.929,5.929,0,0,0,90.1-12.337a3.646,3.646,0,0,0-3.021-1.286Zm20.81,10.253h-5.907L99.2,0H95.616L101.7-16.352h3.122L110.946,0h-3.583Zm-5-2.729h4.088l-2.055-6.121ZM112.473,0V-16.352H117.5a7.641,7.641,0,0,1,3.858.971,6.774,6.774,0,0,1,2.656,2.763,8.521,8.521,0,0,1,.955,4.071v.752a8.545,8.545,0,0,1-.938,4.054A6.716,6.716,0,0,1,121.39-.988,7.7,7.7,0,0,1,117.538,0Zm3.369-13.623V-2.707h1.628A3.659,3.659,0,0,0,120.492-4a5.836,5.836,0,0,0,1.067-3.695v-.865a5.929,5.929,0,0,0-1.033-3.779,3.646,3.646,0,0,0-3.021-1.286Zm20.675,7.861V0h-3.369V-16.352h6.379a7.38,7.38,0,0,1,3.24.674,4.965,4.965,0,0,1,2.151,1.915,5.339,5.339,0,0,1,.752,2.824,4.7,4.7,0,0,1-1.645,3.79,6.853,6.853,0,0,1-4.554,1.387Zm0-2.729h3.01a2.959,2.959,0,0,0,2.038-.629,2.287,2.287,0,0,0,.7-1.8,2.7,2.7,0,0,0-.708-1.943,2.643,2.643,0,0,0-1.954-.764h-3.088Zm17.52,2.5h-2.684V0h-3.369V-16.352h6.076a6.868,6.868,0,0,1,4.47,1.292,4.457,4.457,0,0,1,1.572,3.65,5.031,5.031,0,0,1-.724,2.791,4.94,4.94,0,0,1-2.2,1.78l3.538,6.682V0H157.1Zm-2.684-2.729h2.718a2.783,2.783,0,0,0,1.965-.646,2.308,2.308,0,0,0,.7-1.78,2.471,2.471,0,0,0-.657-1.819,2.73,2.73,0,0,0-2.016-.663h-2.707Zm24.741.91a9.871,9.871,0,0,1-.854,4.234A6.428,6.428,0,0,1,172.8-.764a6.757,6.757,0,0,1-3.644.988,6.8,6.8,0,0,1-3.627-.977,6.491,6.491,0,0,1-2.471-2.791,9.589,9.589,0,0,1-.887-4.172v-.809a9.819,9.819,0,0,1,.87-4.251,6.48,6.48,0,0,1,2.459-2.819,6.765,6.765,0,0,1,3.633-.983,6.765,6.765,0,0,1,3.633.983,6.48,6.48,0,0,1,2.459,2.819,9.791,9.791,0,0,1,.87,4.24Zm-3.414-.741a6.881,6.881,0,0,0-.921-3.908,3,3,0,0,0-2.628-1.336,3,3,0,0,0-2.617,1.32,6.8,6.8,0,0,0-.932,3.869v.8a6.967,6.967,0,0,0,.921,3.886,2.993,2.993,0,0,0,2.65,1.381,2.966,2.966,0,0,0,2.605-1.331,6.927,6.927,0,0,0,.921-3.88ZM178.542,0V-16.352h5.728a7.521,7.521,0,0,1,4.515,1.14,3.9,3.9,0,0,1,1.539,3.341,3.694,3.694,0,0,1-.618,2.117,3.568,3.568,0,0,1-1.718,1.342,3.452,3.452,0,0,1,1.982,1.269,3.752,3.752,0,0,1,.724,2.336,4.315,4.315,0,0,1-1.5,3.571A6.775,6.775,0,0,1,184.9,0Zm3.369-7.12v4.414H184.8a2.785,2.785,0,0,0,1.859-.567,1.945,1.945,0,0,0,.668-1.567A2.053,2.053,0,0,0,185-7.12Zm0-2.381H184.4q2.549-.045,2.549-2.033a1.878,1.878,0,0,0-.646-1.6,3.4,3.4,0,0,0-2.038-.489h-2.358Zm20.541,6.132h-5.907L195.421,0h-3.583l6.087-16.352h3.122L207.168,0h-3.583Zm-5-2.729h4.088l-2.055-6.121Zm22.2-7.524h-5.009V0h-3.369V-13.623h-4.941v-2.729h13.319Zm15.038,5.817a9.871,9.871,0,0,1-.854,4.234A6.428,6.428,0,0,1,231.4-.764a6.757,6.757,0,0,1-3.644.988,6.8,6.8,0,0,1-3.627-.977,6.491,6.491,0,0,1-2.471-2.791,9.589,9.589,0,0,1-.887-4.172v-.809a9.819,9.819,0,0,1,.87-4.251,6.48,6.48,0,0,1,2.459-2.819,6.765,6.765,0,0,1,3.633-.983,6.765,6.765,0,0,1,3.633.983,6.48,6.48,0,0,1,2.459,2.819,9.791,9.791,0,0,1,.87,4.24Zm-3.414-.741a6.881,6.881,0,0,0-.921-3.908,3,3,0,0,0-2.628-1.336,3,3,0,0,0-2.617,1.32,6.8,6.8,0,0,0-.932,3.869v.8a6.967,6.967,0,0,0,.921,3.886,2.993,2.993,0,0,0,2.65,1.381,2.966,2.966,0,0,0,2.605-1.331,6.927,6.927,0,0,0,.921-3.88ZM243.2-5.986h-2.684V0h-3.369V-16.352h6.076a6.868,6.868,0,0,1,4.47,1.292,4.457,4.457,0,0,1,1.572,3.65,5.031,5.031,0,0,1-.724,2.791,4.94,4.94,0,0,1-2.2,1.78l3.538,6.682V0h-3.616Zm-2.684-2.729h2.718a2.783,2.783,0,0,0,1.965-.646,2.308,2.308,0,0,0,.7-1.78,2.471,2.471,0,0,0-.657-1.819,2.73,2.73,0,0,0-2.016-.663h-2.707ZM255.4,0h-3.369V-16.352H255.4Zm12.354-3.369H261.85L260.727,0h-3.583l6.087-16.352h3.122L272.474,0h-3.583Zm-5-2.729h4.088l-2.055-6.121Z" transform="translate(210 863)" fill="#1d272b"/>
    <path id="Trazado_160206" data-name="Trazado 160206" d="M21.134-8.052a8.553,8.553,0,0,1-2.88,6.143A10.116,10.116,0,0,1,11.405.332,9.1,9.1,0,0,1,4.092-2.8Q1.428-5.927,1.428-11.389v-1.478a14.49,14.49,0,0,1,1.229-6.143,9.206,9.206,0,0,1,3.511-4.076,9.836,9.836,0,0,1,5.3-1.419,9.854,9.854,0,0,1,6.74,2.241,9.192,9.192,0,0,1,2.955,6.292h-4.98a5.048,5.048,0,0,0-1.3-3.4,4.826,4.826,0,0,0-3.412-1.054,4.232,4.232,0,0,0-3.727,1.785A10,10,0,0,0,6.475-13.1v1.826q0,3.918,1.187,5.728a4.153,4.153,0,0,0,3.744,1.81A4.917,4.917,0,0,0,14.85-4.79a4.762,4.762,0,0,0,1.3-3.262ZM44.26-11.538A14.592,14.592,0,0,1,43-5.279a9.5,9.5,0,0,1-3.611,4.15A9.988,9.988,0,0,1,34,.332a10.056,10.056,0,0,1-5.362-1.444,9.6,9.6,0,0,1-3.652-4.125,14.174,14.174,0,0,1-1.312-6.167v-1.2a14.515,14.515,0,0,1,1.287-6.284A9.58,9.58,0,0,1,28.6-23.051,10,10,0,0,1,33.967-24.5a10,10,0,0,1,5.371,1.453,9.58,9.58,0,0,1,3.636,4.167,14.474,14.474,0,0,1,1.287,6.267Zm-5.047-1.1a10.172,10.172,0,0,0-1.361-5.777,4.436,4.436,0,0,0-3.885-1.976A4.438,4.438,0,0,0,30.1-18.436a10.056,10.056,0,0,0-1.378,5.719v1.179a10.3,10.3,0,0,0,1.361,5.744A4.425,4.425,0,0,0,34-3.752a4.385,4.385,0,0,0,3.852-1.967,10.239,10.239,0,0,0,1.361-5.736ZM67.535,0h-4.98l-9.7-15.9V0h-4.98V-24.172h4.98L62.571-8.234V-24.172h4.964ZM84.419-6.342a2.556,2.556,0,0,0-1-2.167A13.065,13.065,0,0,0,79.837-10.1a25.42,25.42,0,0,1-4.1-1.652q-4.117-2.225-4.117-5.993a5.837,5.837,0,0,1,1.1-3.495,7.2,7.2,0,0,1,3.171-2.4,11.935,11.935,0,0,1,4.64-.863,10.863,10.863,0,0,1,4.615.938A7.349,7.349,0,0,1,88.3-20.918a6.929,6.929,0,0,1,1.121,3.885h-4.98a3.259,3.259,0,0,0-1.046-2.582,4.3,4.3,0,0,0-2.938-.921,4.593,4.593,0,0,0-2.839.772A2.435,2.435,0,0,0,76.6-17.73a2.332,2.332,0,0,0,1.187,1.976,13.411,13.411,0,0,0,3.495,1.494,15.1,15.1,0,0,1,6.192,3.171,6.315,6.315,0,0,1,1.942,4.715,5.817,5.817,0,0,1-2.374,4.922A10.393,10.393,0,0,1,80.65.332,12.342,12.342,0,0,1,75.57-.689a8.039,8.039,0,0,1-3.495-2.8,7.164,7.164,0,0,1-1.2-4.117h5q0,4,4.781,4a4.651,4.651,0,0,0,2.772-.722A2.349,2.349,0,0,0,84.419-6.342Zm22.91-4.134H97.767V-4h11.223V0h-16.2V-24.172h16.17v4.034H97.767v5.761h9.563Zm13.53,1.627h-3.968V0h-4.98V-24.172h8.981a10.153,10.153,0,0,1,6.607,1.909,6.589,6.589,0,0,1,2.324,5.4,7.437,7.437,0,0,1-1.071,4.125,7.3,7.3,0,0,1-3.246,2.631l5.229,9.878V0h-5.346Zm-3.968-4.034h4.018a4.113,4.113,0,0,0,2.905-.955,3.412,3.412,0,0,0,1.029-2.631,3.652,3.652,0,0,0-.971-2.689,4.036,4.036,0,0,0-2.98-.979h-4Zm25.334,6.89L147.7-24.172h5.545L144.832,0h-5.2l-8.384-24.172h5.528Zm25.7,1.013h-8.732L157.532,0h-5.3l9-24.172h4.615L174.9,0h-5.3Zm-7.388-4.034h6.043l-3.038-9.048Zm25.566.166h-3.968V0h-4.98V-24.172h8.981a10.153,10.153,0,0,1,6.607,1.909,6.589,6.589,0,0,1,2.324,5.4A7.437,7.437,0,0,1,194-12.742a7.3,7.3,0,0,1-3.246,2.631l5.229,9.878V0h-5.346Zm-3.968-4.034h4.018a4.113,4.113,0,0,0,2.905-.955,3.412,3.412,0,0,0,1.029-2.631,3.652,3.652,0,0,0-.971-2.689,4.036,4.036,0,0,0-2.98-.979h-4Zm33.519-.4,5.03-10.891h5.445L218.194-8.766V0h-5.063V-8.766L205.2-24.172h5.462Zm26.131,4.765V0H236.8V-24.172h9.43a10.91,10.91,0,0,1,4.79,1,7.34,7.34,0,0,1,3.179,2.831,7.893,7.893,0,0,1,1.112,4.175,6.94,6.94,0,0,1-2.432,5.6,10.13,10.13,0,0,1-6.732,2.05Zm0-4.034h4.449a4.375,4.375,0,0,0,3.013-.93,3.381,3.381,0,0,0,1.038-2.656,3.987,3.987,0,0,0-1.046-2.872,3.907,3.907,0,0,0-2.889-1.129h-4.565Zm25.9,3.7h-3.968V0h-4.98V-24.172h8.981a10.153,10.153,0,0,1,6.607,1.909,6.589,6.589,0,0,1,2.324,5.4,7.437,7.437,0,0,1-1.071,4.125,7.3,7.3,0,0,1-3.246,2.631l5.229,9.878V0h-5.346Zm-3.968-4.034h4.018a4.113,4.113,0,0,0,2.905-.955,3.412,3.412,0,0,0,1.029-2.631,3.652,3.652,0,0,0-.971-2.689,4.036,4.036,0,0,0-2.98-.979h-4Zm31.261,2.407h-9.562V-4h11.223V0h-16.2V-24.172H296.6v4.034H285.414v5.761h9.563Zm17.116,4.134a2.556,2.556,0,0,0-1-2.167,13.065,13.065,0,0,0-3.586-1.594,25.421,25.421,0,0,1-4.1-1.652q-4.117-2.225-4.117-5.993a5.837,5.837,0,0,1,1.1-3.495,7.2,7.2,0,0,1,3.171-2.4,11.935,11.935,0,0,1,4.64-.863,10.863,10.863,0,0,1,4.615.938,7.349,7.349,0,0,1,3.146,2.648,6.929,6.929,0,0,1,1.121,3.885h-4.98a3.259,3.259,0,0,0-1.046-2.582,4.3,4.3,0,0,0-2.938-.921,4.593,4.593,0,0,0-2.839.772,2.435,2.435,0,0,0-1.013,2.034,2.332,2.332,0,0,0,1.187,1.976,13.411,13.411,0,0,0,3.495,1.494,15.1,15.1,0,0,1,6.192,3.171,6.315,6.315,0,0,1,1.942,4.715,5.817,5.817,0,0,1-2.374,4.922A10.393,10.393,0,0,1,308.324.332a12.342,12.342,0,0,1-5.08-1.021,8.039,8.039,0,0,1-3.495-2.8,7.164,7.164,0,0,1-1.2-4.117h5q0,4,4.781,4a4.651,4.651,0,0,0,2.772-.722A2.349,2.349,0,0,0,312.093-6.342ZM335-10.476H325.44V-4h11.223V0h-16.2V-24.172h16.17v4.034H325.44v5.761H335Zm13.53,1.627h-3.968V0h-4.98V-24.172h8.981a10.153,10.153,0,0,1,6.607,1.909,6.589,6.589,0,0,1,2.324,5.4,7.437,7.437,0,0,1-1.071,4.125,7.3,7.3,0,0,1-3.246,2.631l5.229,9.878V0h-5.346Zm-3.968-4.034h4.018a4.113,4.113,0,0,0,2.905-.955,3.412,3.412,0,0,0,1.029-2.631,3.652,3.652,0,0,0-.971-2.689,4.036,4.036,0,0,0-2.98-.979h-4ZM369.9-5.993l5.479-18.179h5.545L372.506,0h-5.2l-8.384-24.172h5.528ZM395.6-4.98h-8.732L385.206,0h-5.3l9-24.172h4.615L402.571,0h-5.3Zm-7.388-4.034h6.043l-3.038-9.048Zm25.566.166H409.81V0h-4.98V-24.172h8.981a10.153,10.153,0,0,1,6.607,1.909,6.589,6.589,0,0,1,2.324,5.4,7.437,7.437,0,0,1-1.071,4.125,7.3,7.3,0,0,1-3.246,2.631l5.229,9.878V0H418.31Zm-3.968-4.034h4.018a4.113,4.113,0,0,0,2.905-.955,3.412,3.412,0,0,0,1.029-2.631,3.652,3.652,0,0,0-.971-2.689,4.036,4.036,0,0,0-2.98-.979h-4Z" transform="translate(210 809)" fill="#1d272b"/>
    <rect id="Rectángulo_34436" data-name="Rectángulo 34436" width="7" height="132" transform="translate(194 742)" fill="#1d272b"/>
  </g>
</svg>
