<svg xmlns="http://www.w3.org/2000/svg" xmlns:xlink="http://www.w3.org/1999/xlink" width="222.94" height="222.945" viewBox="0 0 222.94 222.945">
  <defs>
    <radialGradient id="radial-gradient" cx="0.076" cy="0.019" r="1.465" gradientTransform="translate(0)" gradientUnits="objectBoundingBox">
      <stop offset="0" stop-color="#f6f6f7"/>
      <stop offset="0.477" stop-color="#f9f9fa"/>
      <stop offset="0.715" stop-color="#fff"/>
    </radialGradient>
  </defs>
  <g id="img4" transform="translate(-701.749 -761.795)">
    <g id="Grupo_91009" data-name="Grupo 91009" transform="translate(701.749 761.795)">
      <g id="Grupo_42274" data-name="Grupo 42274" transform="translate(0 0)">
        <g id="Grupo_18423" data-name="Grupo 18423" transform="translate(0 0)">
          <g id="Grupo_18421" data-name="Grupo 18421">
            <g id="Grupo_18420" data-name="Grupo 18420">
              <g id="Grupo_18419" data-name="Grupo 18419">
                <path id="Trazado_40936" data-name="Trazado 40936" d="M417.562,2257.189a111.47,111.47,0,1,1-111.468-111.468A111.468,111.468,0,0,1,417.562,2257.189Z" transform="translate(-194.623 -2145.721)" fill="#fff"/>
              </g>
            </g>
          </g>
          <path id="Trazado_40937" data-name="Trazado 40937" d="M415.569,2255.017A111.467,111.467,0,1,0,304.1,2366.492,111.031,111.031,0,0,0,415.569,2255.017Z" transform="translate(-192.629 -2143.547)" fill="url(#radial-gradient)"/>
          <path id="Trazado_40938" data-name="Trazado 40938" d="M389.579,2246.181a94.349,94.349,0,1,0-94.349,94.35A94.011,94.011,0,0,0,389.579,2246.181Z" transform="translate(-183.54 -2134.468)" fill="none" stroke="#008f85" stroke-miterlimit="10" stroke-width="5"/>
          <g id="Grupo_18422" data-name="Grupo 18422" transform="translate(19.748 62.583)">
            <path id="Trazado_40939" data-name="Trazado 40939" d="M392.465,2164.488A111.483,111.483,0,0,1,200.545,2275.5a111.8,111.8,0,0,0,11.094,14.849,111.485,111.485,0,0,0,180.826-125.859Z" transform="translate(-200.545 -2164.488)" fill="#eceef0"/>
          </g>
        </g>
      </g>
    </g>
    <g id="p8ix17" transform="translate(-828.045 696.018)">
      <g id="Grupo_121019" data-name="Grupo 121019" transform="translate(1584.512 128.425)">
        <path id="Trazado_158644" data-name="Trazado 158644" d="M1644.813,142.836c0-2.943-.026-5.517.007-8.09.053-4.161,2.066-6.284,6.144-6.294q20.867-.054,41.734,0c4.058.01,6.141,2.157,6.152,6.29q.047,17.125,0,34.249c-.013,4.187-2,6.163-6.182,6.216-4.412.056-8.846.27-13.234-.064-3.752-.285-5.988,2.031-5.919,5.759.243,13.235.1,26.477.09,39.717,0,3.977-1.105,5.059-5.156,5.061-16.981.009-33.963-.037-50.943.078a6.952,6.952,0,0,0-4.2,1.709c-3.207,2.881-6.145,6.06-9.221,9.089-4.48,4.412-10.074,4.693-14.046.744s-3.729-9.634.657-14.045c6.7-6.734,13.472-13.394,20.086-20.209a6.29,6.29,0,0,0,1.619-3.956c.108-16.788.07-33.578.071-50.367,0-5.063.8-5.884,5.767-5.885C1626.955,142.835,1635.674,142.836,1644.813,142.836Zm-28.654,53.78c4.876-2.163,9.755-4.474,14.752-6.5,3.733-1.511,7.8,1.6,6.481,5.145-2.182,5.84-3.635,12.134-8.592,16.641-3.357,3.051-6.449,6.4-10.01,9.96h51.17v-39.2c-2.112-.523-4.47-.433-5.609-1.568-1.3-1.295-1.515-3.68-2.3-5.877-3.172,0-6.615.009-10.057,0-5.493-.017-7.165-1.713-7.176-7.258q-.007-3.311,0-6.622v-14.69h-28.654Zm50.454-18.121.784.432c1.778-1.769,3.64-3.461,5.307-5.33a5.608,5.608,0,0,1,4.759-2.007c4.792.139,9.594-.078,14.383.092,2.72.1,3.484-1.023,3.464-3.562-.083-10.837-.1-21.676.011-32.512.029-2.807-1.029-3.65-3.73-3.63-13.139.1-26.278.037-39.418.047-3.477,0-3.768.3-3.771,3.777q-.017,15.825,0,31.65c0,4.123.063,4.178,4.195,4.182,4.557,0,9.114,0,14.018,0Zm-63.653,42.272,19.009-19.011-1.881-2.053-19.2,19.224Zm22.576-15.535-19.08,19.082,2.068,1.972,18.909-18.727Zm-33.059,21.589c-2.132,2.559-2.184,5.543-.04,7.816,2.191,2.323,5.375,2.357,7.917.261Zm13.471,2.711-8.276-8.268-2.181,2.188,8.255,8.3Zm23.823-25.318c2.047-3.964,2.16-4.111-2-7.306-.966-.742-2.988-.109-4.524-.109l.017.869Z" transform="translate(-1585.661 -128.425)" fill="#1d272b"/>
        <path id="Trazado_158645" data-name="Trazado 158645" d="M1761.611,232.611h-8.855v3.271q0,16.4-.005,32.793c-.005,4.228-1.033,5.25-5.263,5.265-5.347.019-10.694,0-16.111,0V270.33h17.563V232.607h-8.575L1751,216.675ZM1751,223.145l-3.628,5.49h7.258Z" transform="translate(-1646.82 -165.866)" fill="#008f85"/>
        <path id="Trazado_158646" data-name="Trazado 158646" d="M1584.512,176.059h8.817v-3.383q0-16.263,0-32.524c0-4.608.9-5.478,5.609-5.489,4.012-.01,8.023,0,12.2,0v3.575h-13.989v37.771h8.549l-10.606,15.925Zm6.855,3.787,3.73,5.59,3.7-5.59Z" transform="translate(-1584.512 -131.07)" fill="#008f85"/>
        <path id="Trazado_158647" data-name="Trazado 158647" d="M1673.086,133.815a5.412,5.412,0,1,1-5.332-5.346A5.567,5.567,0,0,1,1673.086,133.815Zm-2.929.245c-1.131-.905-1.821-1.876-2.419-1.823a2.643,2.643,0,0,0-1.723,1.687c-.115.379.909,1.538,1.468,1.574C1668.169,135.541,1668.907,134.78,1670.156,134.06Z" transform="translate(-1617.498 -128.443)" fill="#1d272b"/>
        <path id="Trazado_158648" data-name="Trazado 158648" d="M1637.249,133.88a5.414,5.414,0,1,1,5.274,5.409A5.531,5.531,0,0,1,1637.249,133.88Zm5.444-2.5c-.826,1.176-1.648,1.846-1.677,2.549-.023.539,1.047,1.643,1.464,1.568a2.559,2.559,0,0,0,1.808-1.552C1644.381,133.337,1643.486,132.576,1642.693,131.382Z" transform="translate(-1606.886 -128.444)" fill="#1d272b"/>
        <path id="Trazado_158649" data-name="Trazado 158649" d="M1716.9,308.94a5.607,5.607,0,0,1-5.268,5.426,5.411,5.411,0,0,1-.307-10.817A5.536,5.536,0,0,1,1716.9,308.94Zm-5.481-2.42c-.767,1.151-1.589,1.856-1.594,2.568,0,.529,1.052,1.065,1.636,1.6.569-.624,1.462-1.185,1.6-1.893C1713.152,308.291,1712.231,307.591,1711.414,306.519Z" transform="translate(-1636.105 -202.721)" fill="#1d272b"/>
        <path id="Trazado_158650" data-name="Trazado 158650" d="M1691.884,308.924a5.6,5.6,0,0,1-5.251,5.44,5.411,5.411,0,0,1-.338-10.815A5.532,5.532,0,0,1,1691.884,308.924Zm-2.992.368c-1.069-.97-1.645-1.9-2.324-1.981-.553-.069-1.231.874-1.853,1.368.537.665.958,1.622,1.649,1.894C1686.822,310.753,1687.666,309.953,1688.892,309.292Z" transform="translate(-1625.494 -202.721)" fill="#1d272b"/>
        <path id="Trazado_158651" data-name="Trazado 158651" d="M1666.875,308.946a5.608,5.608,0,0,1-5.274,5.42,5.411,5.411,0,0,1-.3-10.818A5.537,5.537,0,0,1,1666.875,308.946Zm-5.318-2.41c-.84,1.08-1.712,1.724-1.775,2.441-.046.518,1.094,1.666,1.507,1.58a2.705,2.705,0,0,0,1.761-1.65C1663.18,308.408,1662.3,307.645,1661.557,306.536Z" transform="translate(-1614.884 -202.721)" fill="#1d272b"/>
        <path id="Trazado_158653" data-name="Trazado 158653" d="M1681.344,250.263v-21.5h25.061c0,6.739.035,13.334-.066,19.928a2.16,2.16,0,0,1-1.477,1.5C1697.109,250.294,1689.355,250.263,1681.344,250.263Zm21.27-17.877H1684.98v13.957h17.634Z" transform="translate(-1625.594 -170.994)" fill="#1d272b"/>
        <path id="Trazado_158654" data-name="Trazado 158654" d="M1673.007,273.482c3.114-2.206,3.789-2.088,7.345,1.62a3.505,3.505,0,0,0,2.287.628c5.163.053,10.328.028,15.707.028v3.378H1677.1l-.518-3.757-5.434,4.949-3.243-5.173-2.009,4.705-3.038-.99c.518-2.641.784-5.481,3.566-6.206C1668.163,272.214,1670.24,273.084,1673.007,273.482Z" transform="translate(-1617.753 -189.349)" fill="#1d272b"/>
        <path id="Trazado_158655" data-name="Trazado 158655" d="M1665.223,178.819v3.118H1643.86v-3.118Z" transform="translate(-1609.691 -149.805)" fill="#1d272b"/>
        <path id="Trazado_158656" data-name="Trazado 158656" d="M1643.8,216.415h21.325l.151,3.188H1643.8Z" transform="translate(-1609.667 -165.755)" fill="#1d272b"/>
        <path id="Trazado_158657" data-name="Trazado 158657" d="M1643.737,169.611v-3.1h10.511c.043.864.092,1.858.154,3.1Z" transform="translate(-1609.639 -144.584)" fill="#1d272b"/>
        <path id="Trazado_158658" data-name="Trazado 158658" d="M1662.54,203.748h10.523c.061,1.032.115,1.956.187,3.159h-10.71Z" transform="translate(-1617.616 -160.381)" fill="#1d272b"/>
        <path id="Trazado_158659" data-name="Trazado 158659" d="M1654.283,194.722H1643.62l-.156-3.234h10.672C1654.179,192.42,1654.224,193.417,1654.283,194.722Z" transform="translate(-1609.523 -155.18)" fill="#1d272b"/>
        <path id="Trazado_158660" data-name="Trazado 158660" d="M1668.739,169.666V166.5h6.917v3.163Z" transform="translate(-1620.246 -144.58)" fill="#1d272b"/>
        <path id="Trazado_158661" data-name="Trazado 158661" d="M1668.874,191.374h6.878v3.179h-6.878Z" transform="translate(-1620.303 -155.132)" fill="#1d272b"/>
        <path id="Trazado_158662" data-name="Trazado 158662" d="M1650.755,203.847v3.2h-6.874v-3.2Z" transform="translate(-1609.699 -160.423)" fill="#1d272b"/>
        <path id="Trazado_158663" data-name="Trazado 158663" d="M1730.454,141.064c4.469.015,5.518,1.135,4.994,5.485-.342,2.839-.768,5.669-1.191,8.5-.352,2.351-1.584,4-4.1,3.921-2.348-.077-3.493-1.687-3.807-3.928-.384-2.739-.8-5.472-1.152-8.216C1724.6,142.14,1725.618,141.047,1730.454,141.064Zm-1.939,3.692,1.484,9.793.657-.038,1.382-9.755Z" transform="translate(-1644.134 -133.787)" fill="#1d272b"/>
        <path id="Trazado_158664" data-name="Trazado 158664" d="M1730.227,178.485a5.407,5.407,0,1,1-5.307,5.58A5.4,5.4,0,0,1,1730.227,178.485Zm2.469,5.2c-1.226-.692-1.983-1.454-2.685-1.405-.533.037-1.519,1.321-1.376,1.669a2.846,2.846,0,0,0,1.883,1.551C1731.016,185.576,1731.665,184.6,1732.7,183.69Z" transform="translate(-1644.08 -149.663)" fill="#1d272b"/>
      </g>
    </g>
  </g>
</svg>
